<svg width="24" height="24" viewBox="0 0 24 24" fill="none" xmlns="http://www.w3.org/2000/svg">
<path d="M7 1C7.55228 1 8 1.44772 8 2V3H16V2C16 1.44772 16.4477 1 17 1C17.5523 1 18 1.44772 18 2V3H20C21.6569 3 23 4.34315 23 6V20C23 21.6569 21.6569 23 20 23H4C2.34315 23 1 21.6569 1 20V6C1 4.34315 2.34315 3 4 3H6V2C6 1.44772 6.44772 1 7 1ZM6 5H4C3.44772 5 3 5.44772 3 6V9H21V6C21 5.44772 20.5523 5 20 5H18V6C18 6.55228 17.5523 7 17 7C16.4477 7 16 6.55228 16 6V5H8V6C8 6.55228 7.55228 7 7 7C6.44772 7 6 6.55228 6 6V5ZM21 11H3V20C3 20.5523 3.44772 21 4 21H20C20.5523 21 21 20.5523 21 20V11ZM16.2071 13.2929C16.5976 13.6834 16.5976 14.3166 16.2071 14.7071L12.2071 18.7071C11.8166 19.0976 11.1834 19.0976 10.7929 18.7071L8.79289 16.7071C8.40237 16.3166 8.40237 15.6834 8.79289 15.2929C9.18342 14.9024 9.81658 14.9024 10.2071 15.2929L11.5 16.5858L14.7929 13.2929C15.1834 12.9024 15.8166 12.9024 16.2071 13.2929Z" fill="#80BA27"/>
</svg>
