<svg width="160" height="46" viewBox="0 0 160 46" fill="none" xmlns="http://www.w3.org/2000/svg">
<path d="M25.9858 41.7067L25.7401 38.6011C26.0287 38.3563 27.0846 37.8903 27.7301 37.7637L26.5806 27.5929C25.9228 27.6155 24.7647 27.4024 24.4274 27.2287L24 24.144L45.3626 21.6994L45.6087 24.8048C45.3196 25.0506 44.2377 25.5191 43.5929 25.6463L44.7425 35.8165C45.3988 35.7932 46.5584 36.0075 46.8937 36.1811L47.3215 39.2649L37.5257 40.3863L37.2556 37.2837C37.5437 37.0378 38.6256 36.5698 39.2714 36.4422L38.1214 26.2725L32.0779 26.9649L33.2269 37.1334C33.8841 37.1108 35.0176 37.3282 35.3529 37.5015L35.7808 40.5863L25.9858 41.7067Z" fill="#2A1E17"/>
<path d="M48.5273 30.3486C48.2021 24.3433 51.7742 20.9497 57.3766 20.6435C63.0317 20.3336 66.8983 23.3463 67.2216 29.3259C67.5446 35.3053 64.0271 38.7216 58.3716 39.0313C52.7421 39.3403 48.8502 36.3295 48.5273 30.3486ZM54.3662 30.029C54.5357 33.1645 56.0747 35.4045 58.1687 35.2904C60.2642 35.1751 61.5273 32.781 61.3566 29.6463C61.1862 26.5107 59.6475 24.2723 57.5792 24.3845C55.4848 24.4993 54.1964 26.8947 54.3662 30.029Z" fill="#2A1E17"/>
<path d="M113.013 39.2901L113.467 36.2082C113.803 36.0349 114.936 35.8209 115.592 35.841L116.745 25.6724C116.1 25.5458 115.018 25.0754 114.73 24.8297L115.002 21.728L124.823 22.8543L124.394 25.9375C124.058 26.1121 122.899 26.3242 122.242 26.3026L121.77 30.4692L127.856 27.5298L127.922 26.9531C127.276 26.8264 126.194 26.3564 125.905 26.1121L126.152 23.0057L136 24.1355L135.545 27.217C135.209 27.3906 134.049 27.6029 133.392 27.5808L132.24 37.7513C132.885 37.878 133.967 38.347 134.256 38.5928L133.983 41.6949L124.189 40.5717L124.616 37.4875C124.953 37.3136 126.112 37.1014 126.769 37.1235L127.227 33.086L121.142 36.0265L121.091 36.4721C121.735 36.6005 122.791 37.0661 123.08 37.311L122.808 40.4134L113.013 39.2901Z" fill="#2A1E17"/>
<path d="M86.4665 34.3519L86.4427 24.1156C87.0991 24.06 88.2256 23.7155 88.5392 23.5032L88.6111 20.3891L71.2509 20.429L71.3368 23.542C71.6521 23.7532 72.7811 24.0935 73.4354 24.1453L73.4503 30.3711C73.3836 33.2273 72.6165 33.9167 72.0042 34.2961C71.6936 33.9135 70.6179 33.1136 70.2601 33.0061L67.7568 34.8381L71.0305 39.083C74.4378 38.0204 77.4741 36.0881 77.4089 29.9396L77.3697 24.1357L80.9095 24.1281L80.9325 34.3644C80.2767 34.419 79.1763 34.7642 78.8622 34.9765L78.7898 38.0903L88.6501 38.067L88.538 34.9539C88.2501 34.7431 87.1208 34.4039 86.4665 34.3519Z" fill="#2A1E17"/>
<path d="M108.713 35.2919L109.226 25.0676C109.883 25.0485 111.027 24.7628 111.352 24.5679L111.587 21.4621L94.2487 20.5808L94.171 23.6949C94.4748 23.9215 95.5833 24.3211 96.2358 24.4077L95.9242 30.6248C95.7084 33.4749 94.9056 34.1227 94.2749 34.4694C93.9843 34.0709 92.9527 33.2147 92.6006 33.088L90.0039 34.7842L93.0518 39.199C96.5094 38.3177 99.6442 36.5476 99.8993 30.4053L100.164 24.6068L103.7 24.7864L103.187 35.0107C102.53 35.03 101.413 35.316 101.088 35.5118L100.853 38.6172L110.7 39.1176L110.751 36.0024C110.475 35.7767 109.366 35.3778 108.713 35.2919Z" fill="#2A1E17"/>
<path d="M90.5472 6.41907C90.7165 6.58746 90.8973 6.67124 91.1839 6.70142L91.1477 8.12111L88.6469 8.05629L88.6821 6.63644C88.9698 6.6211 89.1545 6.54474 89.3318 6.38889L89.4013 5.02775L85.351 4.92203V6.28432C85.4862 6.38015 85.9758 6.54293 86.2618 6.57311L86.1469 11.0528C85.8592 11.0677 85.3743 11.2049 85.2351 11.2953L85.1543 12.6544L89.1925 12.76V11.3969C89.0409 11.2404 88.8372 11.1421 88.5686 11.1157L88.6043 9.68445L91.1053 9.74877L91.0679 11.181C90.8148 11.1914 90.6131 11.2597 90.419 11.4297L90.3495 12.7908L94.3879 12.8939L94.3889 11.5303C94.2532 11.4353 93.7641 11.2732 93.4769 11.2423L93.5912 6.76426C93.88 6.74892 94.3764 6.61104 94.5167 6.52231L94.5969 5.16117L90.5362 5.05595L90.5472 6.41907Z" fill="#2A1E17"/>
<path d="M63.3902 10.6376L61.8739 8.64911L63.6009 6.84152C63.7947 6.80886 64.269 6.63552 64.4139 6.54729L64.3824 5.18483L60.9231 5.35405L60.9429 6.71881C61.0262 6.84531 61.1283 6.91837 61.2638 6.96835L59.6115 8.65637L59.5329 7.05229C59.7514 6.99375 59.8367 6.91458 59.9426 6.76714L59.9105 5.40385L56.0845 5.59418C56.0722 5.81287 56.0603 6.0347 56.0699 6.24151C56.0947 6.74899 56.2765 7.16741 57.115 7.17335L57.3323 11.6467C57.0468 11.6849 56.5734 11.8578 56.4405 11.957C56.4505 12.4078 56.461 12.857 56.4605 13.3198L60.4407 13.1234L60.3409 11.7641C60.1754 11.6331 60.0064 11.5592 59.7514 11.5276L59.7179 10.8588L60.3571 10.2835L60.4668 10.4283L61.3211 11.6937C62.3522 13.0414 63.5631 13.3744 64.9618 13.3174L65.1575 11.9196C64.4563 11.6749 63.8425 11.2305 63.3902 10.6376Z" fill="#2A1E17"/>
<path d="M103.917 5.5973L101.556 5.47921C100.96 5.43897 99.8059 5.32319 99.8059 5.32319C98.0059 5.23496 96.8859 6.28834 96.8246 7.54508C96.7874 8.29533 96.9821 9.2524 97.7014 9.80853C97.5247 10.0817 97.4371 10.2057 97.2683 10.4689C96.9107 11.0334 96.3687 11.455 95.7362 11.6641L95.667 13.0935C97.077 13.1521 98.1663 12.9524 99.0752 11.5058L99.8981 10.2065L100.312 10.2271L100.247 11.5302C99.9834 11.5767 99.864 11.657 99.7139 11.7698L99.6129 13.129L103.538 13.3239C103.538 12.8613 103.548 12.4109 103.558 11.9608C103.426 11.862 102.951 11.6877 102.666 11.6508L102.885 7.17647C103.724 7.1707 103.905 6.75261 103.93 6.24529C103.94 6.03798 103.929 5.81764 103.917 5.5973ZM100.378 8.88148C100.175 8.87505 99.906 8.86598 99.8855 8.86499C99.4146 8.8414 99.1676 8.25146 99.1899 7.78983C99.2086 7.42122 99.4471 6.98153 99.9176 7.01765L100.467 7.05591L100.378 8.88148Z" fill="#2A1E17"/>
<path d="M70.651 6.37931C70.7892 6.51175 70.8942 6.60296 71.1399 6.63215L70.2802 8.60632L69.2114 6.67964C69.4175 6.64847 69.5496 6.58267 69.6879 6.40339L69.7007 5.03962L65.8232 5.13511L65.8909 6.49641C66.0309 6.58464 66.5051 6.72385 66.7917 6.73885L68.5771 9.84854L69.1413 10.8307C68.8456 11.4934 67.8578 11.9225 67.8578 11.9225L68.3657 12.9487C69.9088 12.6808 70.3886 12.1489 71.2633 10.3371L73.0551 6.58564C73.3418 6.55694 73.7166 6.39647 73.8517 6.30147L73.853 4.93934L70.651 5.01718V6.37931Z" fill="#2A1E17"/>
<path d="M82.6035 11.0159L80.695 8.66437L82.4574 6.53665C82.7441 6.51274 83.1226 6.36249 83.2604 6.2698L83.2927 4.90668L80.2848 4.91246L80.2539 6.27475C80.2959 6.39366 80.439 6.48915 80.5644 6.53962L79.7401 7.47657L78.9353 6.54292C79.0445 6.50119 79.1964 6.40372 79.2451 6.27706L79.2771 4.91493L75.1797 4.92202L75.2167 6.28514C75.3552 6.37651 75.8142 6.52709 76.1011 6.54919L77.918 8.79631L76.0287 11.0283C75.742 11.0528 75.3637 11.2029 75.2259 11.2961L75.1949 12.6582L78.305 12.6535L78.3476 11.2905C78.3214 11.1957 78.1755 11.0763 78.0372 11.0255L78.9063 10.0305L79.7349 11.0217C79.5936 11.072 79.4554 11.1897 79.4254 11.2885L79.3817 12.6505L83.5359 12.6421L83.4889 11.2803C83.3504 11.1876 82.8902 11.0388 82.6035 11.0159Z" fill="#2A1E17"/>
</svg>
