<svg width="300" height="125" fill="none" xmlns="http://www.w3.org/2000/svg"><path d="m15.661 109.894-2.435 3.6 1.274 5.221c1.062-.176 2.237-.067 2.798.061l.958 3.379L6.842 125l-.707-3.44c.438-.378 1.43-1.027 2.45-1.371l-4.87-19.955c-3.03.621-3.12-.652-3.51-2.251-.093-.38-.143-.769-.205-1.201l11.33-2.824c.236 1.148.472 2.294.75 3.43-.49.346-1.43 1.028-2.45 1.372l2.23 9.135 7.267-11.503c-1.073.132-1.696-.069-2.382-.165l-.75-3.432 10.248-2.555.707 3.442c-.49.345-1.19.922-1.96 1.203l-6.316 10.149 11.436 9.387 3.309.336.217 3.608c-3.998.997-6.91.652-10.512-2.336l-7.463-6.135ZM30.157 89.299l11.62-2.067.517 3.473c-.504.355-1.452.919-2.494 1.192l7.126 8.903 3.605-10.812c-1.07.103-2.15-.1-2.702-.266l-.518-3.474 11.153-1.985.476 3.482c-.462.346-1.44.74-2.48 1.013l-4.809 14.415c-.742 2.245-1.409 4.917-2.682 7.609-1.522 3.265-4.526 5.032-8.646 6.38l-1.79-4.524s4.34-2.093 4.333-2.136c.477-.26.898-.599 1.226-.966.395-.73.88-1.697 1.156-2.362L33.718 92.98c-1.072.102-2.322-.072-2.874-.237l-.687-3.444ZM60.666 83.992l11.715-1.4.324 3.5c-.525.323-1.502.834-2.556 1.047l6.617 9.295 4.203-10.588c-1.075.04-2.143-.225-2.683-.422l-.324-3.498 11.247-1.344.28 3.504c-.48.319-1.478.656-2.532.87L81.35 99.073c-.866 2.199-1.68 4.829-3.103 7.444-1.703 3.174-4.8 4.766-8.99 5.877l-1.534-4.619s4.45-1.842 4.446-1.884c.491-.234.93-.549 1.277-.895.436-.708.974-1.645 1.287-2.294l-10.72-14.83c-1.075.041-2.313-.204-2.854-.402l-.493-3.478ZM91.325 109.721l-1.36-4.642s4.282-2.133 4.279-2.175c.978-.767 1.355-2.75 1.49-3.89.013-1.044-.037-2.345-.148-3.946l-.74-10.51c-1.08-.053-1.57-.322-2.015-.508l-.374-3.494 24.564-1.765.161 3.51c-.495.296-1.581.766-2.644.93l1.441 20.502c1.076.01 2.215.319 2.746.542l.376 3.494-11.725.842-.118-3.513c.494-.295 1.581-.765 2.644-.929l-1.441-20.503-8.387.604.9 12.803c.595 8.478-3 11.17-9.65 12.648ZM137.322 94.781l-3.169 2.96.09 5.374c1.073.07 2.195.44 2.714.692l.187 3.51-11.751.199.069-3.514c.511-.269 1.619-.678 2.689-.783l-.339-20.548c-3.089-.079-2.897-1.339-2.924-2.986-.006-.39.03-.78.066-1.215l11.665-.198a95.68 95.68 0 0 0-.028 3.513c-.553.226-1.619.678-2.69.782l.156 9.407 9.626-9.572c-1.074-.112-1.638-.45-2.287-.699l.029-3.512 10.551-.179-.07 3.513c-.554.227-1.362.63-2.176.73l-8.397 8.47 9.076 11.726 3.149 1.075-.584 3.566c-4.118.069-6.88-.924-9.731-4.649l-5.921-7.662ZM155.831 107.027l-.886-4.756s4.473-1.683 4.474-1.727c1.05-.661 1.623-2.596 1.874-3.716.116-1.037.197-2.337.247-3.94l.319-10.532c-1.068-.163-1.531-.481-1.953-.711l-.022-3.515 24.614.762-.192 3.508c-.523.244-1.649.6-2.724.653l-.624 20.545c1.07.12 2.174.544 2.68.82l.022 3.515-11.749-.364.234-3.507c.523-.244 1.65-.6 2.725-.653l.623-20.544-8.406-.26-.388 12.828c-.257 8.496-4.106 10.806-10.868 11.594ZM189.211 108.314l.405-3.49c.534-.218 1.677-.518 2.753-.518l1.618-20.488c-3.751-.476-2.876-2.277-2.445-4.461l20.827 1.68-.601 7.609a7.779 7.779 0 0 1-1.638.041c-2.268-.183-2.885-1.624-2.843-3.796l-7.227-.583-.622 7.866 4.961.401c.107-.252.462-1.486.565-1.694l3.411.406-.508 3.7-.044 3.824-3.474-.15c-.107-.27-.226-1.497-.284-1.85l-4.961-.4-.663 8.385 7.87.636c.345-2.191 1.134-3.475 3.444-3.289.47.037 1.023.126 1.612.304l-.615 7.78-4.691-.552-16.85-1.361ZM228.11 87.143l-1.017 7.955 2.34.306c2.765.36 5.232-.323 5.639-3.505.341-2.666-1.335-4.109-4.483-4.52a48.322 48.322 0 0 0-2.479-.236Zm-1.561 12.212-1.04 8.128c.341.044 3.309.519 3.777.58 2.68.35 4.833-.592 5.184-3.345.336-2.622-1.411-4.513-5.071-4.99l-2.85-.373Zm-10.391 11.235.573-3.467c.544-.191 1.698-.433 2.774-.381l2.606-20.382c-3.047-.53-2.675-1.749-2.466-3.383.05-.386.142-.769.239-1.193l4.893.639c.935.122 5.341.523 7.552.812 5.447.711 9.849 4.17 9.249 8.859-.588 4.6-3.849 5.749-6.543 5.834l-.043.344c3.779 1.236 6.382 3.544 5.871 7.544-.6 4.686-4.9 7.535-11.494 6.674-2.086-.272-4.999-.828-6.445-1.017l-6.766-.883ZM244.732 114.468l.763-3.429c.551-.161 1.719-.339 2.79-.226L252 90.605c-3.681-.868-2.627-2.566-1.974-4.693l20.543 3.857-1.38 7.504a7.708 7.708 0 0 1-1.634-.13c-2.236-.42-2.703-1.92-2.437-4.075l-7.129-1.338-1.426 7.759 4.892.918c.132-.239.612-1.428.736-1.626l3.351.763-.886 3.626-.435 3.799-3.441-.514c-.079-.279-.071-1.513-.092-1.869l-4.894-.919-1.519 8.271 7.76 1.458c.569-2.143 1.488-3.338 3.765-2.91a7.782 7.782 0 0 1 1.571.471l-1.41 7.675-4.609-1.042-16.62-3.122ZM286.601 97.884l-2.185 8.789s2.278.624 2.776.751c3.62.92 5.953-.635 6.612-3.284.71-2.859-1.025-4.776-3.646-5.441l-3.557-.815Zm-3.115 12.532-1.841 7.401c1.019.348 2.838 1.213 3.275 1.592l-.722 3.438-12.232-3.107.971-3.374c.563-.126 1.738-.23 2.8-.05l4.956-19.932c-3.62-1.098-2.463-2.727-1.68-4.808l5.867 1.49s5.45 1.205 6.656 1.512l.541.137c6.491 1.65 8.743 6.29 7.666 10.621-.941 3.784-4.505 8.334-11.702 6.505a10.578 10.578 0 0 1-1.113-.327c-.458-.116-3.442-1.098-3.442-1.098ZM14.975 76.845l-.67.995.356 1.44c.293-.05.617-.02.772.014l.267.932-3.147.794-.197-.949c.12-.105.392-.284.674-.38l-1.36-5.502c-.835.174-.86-.176-.97-.618-.026-.104-.04-.211-.056-.33l3.122-.79c.067.317.132.634.21.947-.135.096-.394.284-.675.38l.623 2.518 1.995-3.18c-.296.038-.468-.016-.657-.043l-.21-.946 2.826-.713.197.949c-.134.095-.327.255-.54.333L15.803 75.5l3.162 2.58.913.091.063.996c-1.102.278-1.907.184-2.902-.637l-2.063-1.686ZM21.256 74.73c.388 1.714 1.623 2.669 2.94 2.365 1.315-.304 2.017-1.707 1.63-3.421-.388-1.715-1.613-2.672-2.94-2.366-1.315.304-2.019 1.707-1.63 3.421Zm-1.732.4c-.583-2.579.735-4.43 3.101-4.976 2.366-.546 4.36.54 4.944 3.117.583 2.577-.736 4.428-3.113 4.978-2.39.553-4.348-.542-4.932-3.12ZM29.322 76.976l-.157-.957c.125-.099.405-.267.69-.35l-.803-5.624a2.271 2.271 0 0 1-.771-.048l-.227-.942 2.539-.527 3.062 4.362.178.341.032-.373 1.252-5.268 2.354-.488.158.957c-.125.099-.405.267-.69.35l1.43 5.495c.294-.037.617.006.782.044.064.317.14.632.216.946l-3.131.649c-.053-.318-.106-.637-.17-.954a2.47 2.47 0 0 1 .701-.354l-1.015-4.052-.084-.533-.074.529-1.148 5.063-.835.173-3.014-4.249-.192-.351.071.413.655 4.177c.294-.038.618.006.77.047l.228.942-2.807.582ZM42.93 68.053l-.487 2.778 2.12-.39-1.4-2.43-.179-.454-.046.008-.008.488Zm-2.613 6.671-.137-.96c.118-.082.23-.188.502-.287l1.144-6.072-.058.01a.735.735 0 0 1-.698-.6 1.54 1.54 0 0 1-.034-.323l2.787-.695 3.681 6.413c.296-.03.49.043.653.087.057.317.127.632.196.948l-3.168.583a24.8 24.8 0 0 1-.149-.958 2.37 2.37 0 0 1 .71-.336l-.582-1.024-2.911.534-.087.527c-.045.216-.09.43-.124.644.295-.03.64.016.805.058.057.318.127.634.195.95l-2.725.501ZM49.307 73.073l-.12-.96c.13-.094.416-.251.704-.322l-.905-5.594a2.178 2.178 0 0 1-.756-.08l-.19-.95 3.175-.526.132.96c-.14.096-.415.25-.703.322l.352 2.171 3.478-.575-.351-2.172a2.192 2.192 0 0 1-.757-.08l-.19-.95 3.177-.525.131.96c-.129.094-.404.248-.692.32l.905 5.593c.295-.024.605.034.768.08l.178.951-3.198.53-.12-.962a2.26 2.26 0 0 1 .703-.323l-.368-2.277-3.48.575.369 2.277c.295-.025.616.032.768.08l.19.949-3.2.528ZM61.577 67.076c.192 1.337-.023 2.251-.536 2.931l2.905-.426-.804-5.611-1.968.288.403 2.818Zm3.823-4.622.114.962c-.141.094-.42.243-.71.31l.806 5.612 1.019-.15.346 2.669-.937.138c-.09-.132-.331-1.149-.403-1.477l-5.646.828c.027.346.104 1.387.054 1.539l-.95.128-.43-2.657.423-.063c1.578-.58 1.37-2.449 1.251-3.277l-.37-2.582a2.347 2.347 0 0 1-.767-.092l-.161-.956 6.36-.932ZM70.735 63.694l-.632 2.746 2.136-.275-1.269-2.502-.154-.463-.047.007-.034.487Zm-2.96 6.52-.087-.966c.123-.076.24-.176.517-.26l1.462-6.001-.058.007a.737.737 0 0 1-.665-.637c-.014-.107-.026-.202-.017-.324l2.819-.544 3.339 6.601c.296-.014.485.07.647.122.04.32.092.639.145.958l-3.194.411c-.04-.32-.07-.642-.098-.964a2.36 2.36 0 0 1 .726-.298l-.527-1.054-2.935.378-.113.521c-.058.213-.115.425-.16.636.297-.015.64.05.802.102.04.32.092.638.143.957l-2.747.355ZM80.901 60.47l3.237-.34.076.967a2.264 2.264 0 0 1-.709.278l1.788 2.591 1.202-2.903a2.138 2.138 0 0 1-.74-.127l-.075-.966 3.108-.326.064.968c-.135.085-.41.175-.702.23l-1.603 3.87c-.247.604-.483 1.326-.886 2.041-.481.868-1.342 1.295-2.502 1.585l-.404-1.28s1.234-.49 1.232-.502c.137-.063.26-.148.357-.242a7.84 7.84 0 0 0 .364-.627l-2.898-4.134a2.424 2.424 0 0 1-.786-.123l-.123-.96ZM90.194 67.602l-.047-.969c.135-.084.433-.218.726-.267l-.152-5.677a2.294 2.294 0 0 1-.76-.138l-.118-.962 2.582-.225 2.538 4.688.137.36.076-.367 1.847-5.082 2.394-.21.046.969a2.263 2.263 0 0 1-.724.268l.787 5.621c.297-.002.614.079.773.137.027.322.066.643.106.963l-3.184.277a26.739 26.739 0 0 0-.059-.966c.147-.085.445-.22.737-.269l-.543-4.142-.022-.538-.134.515-1.72 4.892-.85.074-2.504-4.572-.15-.37.023.417.17 4.223c.297-.001.613.08.76.139l.118.962-2.853.249ZM101.64 66.62l-.031-.97c.137-.081.437-.21.731-.254l-.387-5.657a2.192 2.192 0 0 1-.746-.153l-.102-.964 3.212-.224.043.968c-.149.083-.437.21-.73.255l.151 2.196 3.518-.245-.15-2.197a2.18 2.18 0 0 1-.746-.151l-.102-.964 3.213-.224.043.968c-.138.081-.426.21-.719.254l.387 5.657c.296.004.598.09.757.151l.091.965-3.237.226-.03-.97c.136-.08.436-.21.73-.254l-.157-2.304-3.52.246.157 2.304c.297.003.611.089.758.15l.101.965-3.235.226ZM118.358 65.58l-.015-.971c.138-.078.441-.202.735-.242l-.291-5.662a2.171 2.171 0 0 1-.743-.165l-.085-.966 3.214-.168c.004.323.009.646.025.969-.15.08-.439.203-.732.242l.291 5.662c.296.009.608.1.752.163l.086.967-3.237.17Zm-4.612-3.532.132 2.58c.094-.005 1.018-.029 1.147-.036.746-.027 1.272-.63 1.233-1.382-.037-.729-.61-1.262-1.625-1.209l-.887.047Zm.55-4.281c.017.323.021.646.027.969a2.29 2.29 0 0 1-.735.242l.097 1.887.745-.039c2.812-.148 3.544 1.168 3.601 2.279.07 1.385-.934 2.588-2.767 2.684-.577.03-1.478.03-1.893.051l-.105.006-1.773.093-.015-.969c.138-.079.441-.203.735-.242l-.291-5.662c-1.043.006-.868-.518-.829-1.13l3.203-.169ZM131.113 65.073l-3.548.125.004-.97c.138-.077.418-.194.713-.229l-1.572-1.955-1.467 2.063c.296.013.585.11.728.177l.01.97-2.79.098.002-.97c.14-.076.313-.19.607-.225l2.181-2.985-2.199-2.688a2.422 2.422 0 0 1-.775-.176l-.058-.968 3.513-.123.009.97c-.14.076-.419.194-.714.228l1.446 1.768 1.344-1.867a2.272 2.272 0 0 1-.74-.177l-.01-.97 2.72-.095.01.97c-.152.077-.325.19-.62.225l-2 2.763 2.373 2.897c.296.014.619.11.776.176l.057.968ZM147.192 56.743l3.255.005-.025.969a2.293 2.293 0 0 1-.735.203l1.512 2.766 1.495-2.762a2.096 2.096 0 0 1-.721-.204l.025-.97 3.126.006-.039.97c-.142.07-.425.13-.721.153l-1.995 3.682c-.308.574-.617 1.267-1.093 1.937-.569.812-1.469 1.146-2.653 1.311l-.27-1.316s1.279-.357 1.279-.37c.142-.047.272-.119.379-.202.142-.179.321-.418.427-.586l-2.456-4.419a2.436 2.436 0 0 1-.768-.204l-.022-.969ZM158.219 58.022l-.03 2.213.652.01c.769.01 1.424-.256 1.436-1.142.011-.742-.495-1.084-1.371-1.096-.201-.003-.473.006-.687.015Zm-.045 3.397-.031 2.262c.094.001.923.037 1.053.039.746.01 1.307-.317 1.316-1.083.011-.73-.527-1.192-1.545-1.207l-.793-.01Zm-2.497 3.412.048-.969c.142-.07.451-.173.749-.193l.077-5.67c-.852-.049-.789-.395-.783-.85.002-.107.016-.215.03-.334l1.361.019c.26.003 1.48-.027 2.096-.019 1.515.022 2.83.83 2.812 2.134-.018 1.28-.875 1.699-1.612 1.809v.095c1.074.218 1.86.768 1.844 1.88-.017 1.305-1.107 2.223-2.943 2.198-.579-.008-1.395-.068-1.798-.073l-1.881-.027ZM163.373 64.93l-.249-1.31s1.231-.47 1.231-.481c.288-.184.446-.718.512-1.027.033-.287.053-.645.065-1.087l.078-2.906c-.296-.044-.423-.13-.54-.194l-.01-.969 6.79.184-.05.968a2.274 2.274 0 0 1-.751.182l-.149 5.668c.294.031.599.147.739.223l.011.97-3.241-.089.061-.968c.143-.067.453-.167.75-.182l.15-5.667-2.318-.063-.094 3.539c-.062 2.343-1.12 2.984-2.985 3.21ZM172.27 65.194l.072-.966c.145-.067.456-.162.753-.175l.219-5.666c-1.04-.089-.819-.595-.724-1.202l5.761.226-.082 2.105a2.174 2.174 0 0 1-.451.03c-.627-.025-.813-.415-.825-1.015l-1.999-.078-.084 2.176 1.371.053c.027-.07.111-.414.137-.473l.945.073-.098 1.026.03 1.055-.96-.002c-.032-.073-.078-.41-.099-.507l-1.371-.054-.09 2.32 2.176.085c.072-.607.275-.971.914-.946.13.005.282.023.448.066-.029.717-.056 1.434-.084 2.152l-1.299-.1-4.66-.183ZM182.782 57.63a25.99 25.99 0 0 1-.074.966 2.181 2.181 0 0 1-.742.165l-.069 1.326c-.072 1.182.392 1.83 1.491 1.887.544.028 1.1-.194 1.628-.538l.129-2.508a2.198 2.198 0 0 1-.723-.242l.014-.97 3.215.17c-.016.322-.045.644-.073.966a2.197 2.197 0 0 1-.744.164l-.29 5.663c.294.039.583.162.734.241l-.026.97-3.463-.182c.016-.323.045-.644.073-.967.145-.063.695-.142.992-.151l.094-1.84c-.62.303-1.183.43-1.762.4-1.714-.091-3.087-1.062-2.991-2.925l.08-1.553a2.175 2.175 0 0 1-.722-.241l.014-.97 3.215.169ZM188.505 65.97l.098-.965c.146-.062.46-.15.757-.153l.364-5.658c-1.036-.116-.802-.617-.692-1.22l5.75.377-.135 2.1a2.035 2.035 0 0 1-.451.02c-.626-.042-.802-.437-.799-1.036l-1.996-.131-.139 2.172 1.369.09c.028-.07.121-.411.149-.47l.942.098-.125 1.023.003 1.055-.958-.027c-.031-.074-.069-.412-.086-.51l-1.37-.09-.149 2.316 2.173.143c.086-.605.299-.963.937-.921.129.009.283.03.446.077l-.139 2.149-1.296-.134-4.653-.305ZM195.612 66.436l.111-.963c.147-.06.462-.143.758-.143l.443-5.654a2.187 2.187 0 0 1-.716-.26l.039-.97 3.21.256-.099.965c-.16.059-.462.143-.759.143l-.171 2.194 3.516.28.171-2.194a2.171 2.171 0 0 1-.715-.261l.038-.968 3.211.255-.1.965c-.146.06-.45.143-.746.143l-.442 5.654c.293.047.579.178.728.262l-.052.968-3.233-.258.111-.963c.147-.06.462-.144.758-.144l.181-2.301-3.516-.28-.18 2.3c.293.048.591.18.726.263l-.039.97-3.233-.259ZM205.266 67.214l.126-.961c.148-.058.466-.135.761-.13l.533-5.644a2.212 2.212 0 0 1-.712-.273l.056-.968 3.204.308-.114.963c-.16.056-.465.135-.761.13l-.207 2.191 3.511.338.206-2.19a2.197 2.197 0 0 1-.711-.273l.056-.968 3.203.308-.114.963a2.179 2.179 0 0 1-.749.131l-.532 5.645c.292.052.576.187.723.273l-.068.967-3.227-.31.127-.962c.147-.058.464-.135.76-.13l.216-2.3-3.51-.337-.216 2.298c.293.052.588.189.723.274l-.056.968-3.228-.31ZM221.95 68.95l.143-.96c.15-.055.467-.126.764-.117l.632-5.635a2.195 2.195 0 0 1-.707-.285l.073-.967 3.199.367c-.047.32-.095.639-.132.96-.16.054-.467.127-.763.117l-.632 5.634c.291.058.585.2.719.288l-.073.966-3.223-.369Zm-3.979-4.25-.288 2.568c.094.01 1.009.14 1.139.155.74.096 1.356-.41 1.44-1.16.082-.725-.398-1.346-1.409-1.461l-.882-.101Zm1.238-4.132c-.036.321-.083.64-.132.96a2.273 2.273 0 0 1-.763.117l-.211 1.879.741.085c2.799.32 3.307 1.739 3.183 2.845-.155 1.379-1.341 2.398-3.165 2.19-.575-.067-1.464-.217-1.875-.264-.036-.003-.071-.007-.106-.012l-1.765-.202.144-.959c.149-.055.466-.126.764-.117l.632-5.634c-1.03-.167-.772-.655-.634-1.253l3.187.365ZM234.631 70.585l-3.52-.471.161-.956c.149-.052.446-.122.741-.106l-1.227-2.192L229 68.648c.289.064.557.208.689.298l-.149.957-2.769-.37.16-.956c.15-.053.34-.136.637-.12l2.642-2.578-1.73-3.02a2.468 2.468 0 0 1-.736-.303l.102-.964 3.484.467-.149.957c-.15.053-.446.121-.742.106l1.138 1.986 1.631-1.616a2.301 2.301 0 0 1-.701-.298l.149-.958 2.699.362-.149.957c-.161.05-.352.134-.649.118l-2.425 2.39 1.865 3.254c.291.063.593.213.736.305l-.102.963ZM240.797 71.491l-.076-1.333s1.282-.301 1.285-.313c.309-.144.534-.652.641-.95.069-.28.135-.632.206-1.069l.454-2.87c-.286-.082-.402-.186-.51-.264l.117-.962 6.707 1.085-.175.953a2.275 2.275 0 0 1-.768.082l-.886 5.598c.289.07.575.226.703.32l-.116.962-3.202-.518.187-.95c.151-.05.473-.107.768-.082l.887-5.599-2.29-.37-.554 3.496c-.367 2.314-1.5 2.809-3.378 2.784ZM255.999 70.02c-.311 1.73.464 3.101 1.781 3.344 1.34.246 2.52-.765 2.831-2.495.312-1.73-.428-3.095-1.779-3.344-1.328-.244-2.52.765-2.833 2.495Zm-1.829.272-1.398-.258-.396 2.202c.287.077.571.238.698.335l-.137.96-3.191-.588.207-.946c.153-.045.475-.096.77-.065l1.004-5.58a2.202 2.202 0 0 1-.686-.333l.137-.96 3.168.583c-.057.318-.126.634-.195.949a2.25 2.25 0 0 1-.769.065l-.397 2.202 1.398.257c.646-2.192 2.469-3.158 4.67-2.753 2.388.44 3.786 2.23 3.317 4.83-.467 2.601-2.401 3.779-4.788 3.339-2.225-.409-3.582-1.96-3.412-4.24ZM266.19 72.027c-.271 1.323-.78 2.109-1.49 2.571l2.873.6 1.133-5.553-1.948-.406-.568 2.788Zm5.148-3.03-.216.944c-.166.039-.476.084-.77.047l-1.133 5.552 1.008.21-.572 2.628-.927-.193c-.041-.155.073-1.193.118-1.525l-5.586-1.165c-.092.335-.37 1.34-.468 1.466l-.937-.208.492-2.645.417.087c1.679-.004 2.113-1.831 2.281-2.65l.52-2.554a2.377 2.377 0 0 1-.69-.352l.17-.953 6.293 1.31ZM271.228 77.18l.245-.937c.154-.038.477-.075.771-.031l1.237-5.53c-1.004-.279-.696-.735-.494-1.315l5.62 1.285-.459 2.053a2.147 2.147 0 0 1-.449-.054c-.612-.14-.724-.558-.629-1.149l-1.951-.446-.475 2.123 1.339.306c.039-.064.184-.386.22-.44l.916.246-.282.99-.161 1.042-.943-.178c-.018-.078-.003-.418-.005-.516l-1.339-.307-.506 2.264 2.123.484c.18-.583.445-.904 1.069-.76.126.028.273.074.428.146l-.47 2.1-1.259-.337-4.546-1.04ZM286.78 69.999c-.328.99-1.221 1.357-2.14 1.128-.931-.233-1.575-.985-1.38-2.032l1.028.034c-.033.632.237.873.604.965.368.092.698-.01.978-.557l.91.462Zm-8.338 8.828.265-.931c.155-.036.479-.066.77-.017l1.348-5.502a2.204 2.204 0 0 1-.665-.374l.196-.95 3.124.781-.253.934a2.363 2.363 0 0 1-.772.017l-.803 3.284 4.115-1.976.11-.453a2.208 2.208 0 0 1-.664-.376l.196-.947 3.123.78-.253.935a2.195 2.195 0 0 1-.76.019l-1.345 5.501c.28.095.542.271.675.378l-.208.946-3.146-.787.264-.93c.155-.036.48-.066.772-.017l.823-3.366-4.114 1.977-.131.533c.281.095.556.274.676.379l-.196.949-3.147-.787ZM142.401 12.663c-.511 0-.89.09-1.119.261-1.598 1.197-.437 8.891 4.763 20.907 8.407-.427 14.663-2.45 15.4-5.042.74-2.599-3.109-7.646-8.952-11.74-4.445-3.117-8.181-4.386-10.092-4.386Zm1.235 25.069-.516-1.163c-6.586-14.82-7.96-23.805-4.084-26.708 3.503-2.623 10.358.374 15.607 4.054 9.195 6.446 11.416 12.453 10.428 15.927-.775 2.723-4.426 7.364-20.173 7.851l-1.262.039Z" fill="#80BA27"/><path d="M146.778 3.8c-2.787 0-7.114 1.356-11.737 4.327-8.418 5.413-10.701 11.167-10.098 14.45.982 5.356 8.956 10.05 18.796 11.187 7.496-15.228 8.741-27.034 5.517-29.365-.544-.394-1.395-.598-2.478-.598Zm-.835 33.992-1.258-.104c-12.443-1.035-22.083-6.964-23.45-14.416-1.304-7.113 5.229-14.149 11.78-18.362 6.175-3.968 14.27-6.624 18.437-3.611 4.737 3.425 5.048 15.687-4.933 35.359l-.576 1.134Z" fill="#80BA27"/><path d="M131.247 24.741c-.186 0-.346.03-.48.087-.931.405-2.266 3.074-2.35 7.032-.066 3.038.75 7.02 3.263 8.246 2.597 1.266 7.33-.12 10.882-4.452-4.671-7.668-9.368-10.913-11.315-10.913Zm2.526 19.617c-1.328 0-2.594-.264-3.732-.818-3.498-1.707-5.515-6.104-5.393-11.763.084-3.929 1.348-9.024 4.629-10.451 4.424-1.921 11.496 3.629 17.192 13.502l.615 1.066-.711 1.003c-3.297 4.659-8.273 7.461-12.6 7.461Z" fill="#80BA27"/><path d="M147.265 36.072c3.523 4.867 10.08 6.699 15.263 4.049 5.46-2.792 6.254-8.964 6.368-10.79.222-3.572-.787-5.937-1.574-6.474-1.828-1.25-8.852 2.39-20.057 13.215Zm10.19 9.065c-5.64 0-11.254-3.08-14.254-8.406l-.722-1.28 1.045-1.03c12.903-12.697 21.619-17.65 25.909-14.724 2.238 1.528 3.505 5.404 3.229 9.874-.389 6.235-3.54 11.451-8.431 13.952a14.839 14.839 0 0 1-6.776 1.614Z" fill="#80BA27"/><path d="M138.88 71.265c-1.856-5.885-2.29-11.15-1.672-17.269a45.262 45.262 0 0 1 6.518-19.168l3.198 2.022a41.419 41.419 0 0 0-5.962 17.534c-.564 5.594.098 11.392 1.796 16.775l-3.878.106Z" fill="#80BA27"/></svg>