<svg width="120" height="120" viewBox="0 0 120 120" fill="none" xmlns="http://www.w3.org/2000/svg">
<path d="M120 60C120 93.1364 93.1398 120 59.999 120C26.864 120 0 93.1364 0 60C0 26.8636 26.864 0 59.999 0C93.1398 0 120 26.8636 120 60Z" fill="#C6026C"/>
<path d="M11.7924 48.5103C8.45391 47.2961 7.8728 44.5945 8.80797 42.0219C9.20821 40.9232 9.85667 39.9322 10.4436 39.3223L12.6526 40.2651C12.6275 40.3729 12.6064 40.4748 12.5775 40.5537C12.2639 41.4119 11.625 41.4985 10.738 41.3099C10.5224 41.612 10.3031 42.0046 10.1395 42.4568C9.57381 44.0115 10.3473 45.724 12.5313 46.5187C14.5267 47.2441 16.222 46.4648 16.8358 44.7927C17.1398 43.9442 17.2399 42.6761 17.0128 41.8352L18.4137 42.2374C18.6003 43.2341 18.4791 44.404 18.1327 45.3527C17.0802 48.2332 14.6576 49.5551 11.7924 48.5103Z" fill="white"/>
<path d="M14.7035 40.0122C11.9711 38.4362 11.4381 35.7674 12.9043 33.2371C14.3667 30.7068 16.951 29.8294 19.6814 31.4072C22.41 32.9889 22.941 35.65 21.469 38.1957C19.9912 40.7472 17.4282 41.59 14.7035 40.0122ZM15.7733 38.1592C17.5879 39.2117 19.4351 38.8923 20.2471 37.4915C21.063 36.081 20.4184 34.3223 18.6 33.2679C16.7874 32.223 14.9478 32.5251 14.1262 33.9452C13.3103 35.3556 13.9588 37.1105 15.7733 38.1592Z" fill="white"/>
<path d="M23.7085 27.894L22.5059 29.1101L24.4031 30.9843C24.6725 30.7514 25.0285 30.5802 25.2055 30.5167L26.0599 31.296L23.3102 34.0784L22.5213 33.2356C22.5809 33.0528 22.7483 32.7007 22.9792 32.4255L18.1687 27.6728C17.8993 27.9056 17.5587 28.0711 17.3759 28.1326L16.5254 27.3495L19.2539 24.5902C19.5252 24.8596 19.7869 25.1444 20.0563 25.4234C19.9928 25.6062 19.8254 25.9621 19.5926 26.2335L21.4937 28.1095L22.6944 26.8915C20.978 24.7711 21.2628 22.31 23.1582 20.3936C25.2152 18.3135 27.9245 18.123 30.1662 20.3397C32.4098 22.5563 32.2539 25.2694 30.2008 27.3495C28.2843 29.2871 25.8348 29.595 23.7085 27.894ZM24.686 25.891C26.1773 27.363 28.0515 27.515 29.1867 26.3662C30.3355 25.2021 30.145 23.3453 28.6557 21.8713C27.1644 20.3974 25.3152 20.2165 24.1511 21.3961C23.0119 22.5525 23.1928 24.417 24.686 25.891Z" fill="white"/>
<path d="M28.6685 17.5337C28.6281 16.8852 29.4093 15.5286 30.5869 14.7821C32.1186 13.8142 34.0871 13.4294 35.0069 14.886C35.6803 15.9481 35.2801 17.0757 34.6374 17.8204C35.6572 17.4625 37.0946 17.651 37.7643 18.7113C38.8553 20.4334 37.4776 22.3865 36.3076 23.1273C34.7529 24.1105 33.5522 23.9758 32.5958 23.7372L32.9672 22.2518C33.4252 22.3364 34.4296 22.3768 35.1396 21.9246C35.9363 21.4224 36.5135 20.5489 35.9844 19.7022C35.5303 18.996 34.6586 18.871 33.2019 19.7926L32.6689 20.1294L31.8473 18.8267L32.211 18.5977C33.2693 17.93 33.9909 17.0661 33.3982 16.1271C32.9056 15.3574 31.9397 15.6133 31.2662 16.0386C30.7851 16.3484 30.4638 16.8525 30.3252 17.1931C30.508 17.7492 30.5311 18.3957 29.9885 18.7401C29.8923 18.7998 29.773 18.8575 29.6941 18.8902L28.6685 17.5337Z" fill="white"/>
<path d="M40.6387 10.2436C41.2698 9.68948 42.2954 9.09106 43.4018 8.75432C46.0323 7.95194 48.6992 8.67159 49.7383 12.0659C50.6311 14.9848 49.1745 17.3362 46.2535 18.229C45.2876 18.5234 44.0984 18.5908 43.1171 18.3541L42.7899 16.9379C43.6154 17.2015 44.8893 17.1726 45.7609 16.9052C47.208 16.4645 48.0488 15.1773 47.8641 13.5494L44.3159 14.7251L43.804 13.0453L47.4273 12.0235C46.6365 10.3148 45.1721 9.67409 43.7713 10.1051C43.3076 10.2456 42.9054 10.4438 42.5918 10.6439C42.7091 11.5155 42.5841 12.1217 41.7509 12.3776C41.6547 12.4084 41.5565 12.4199 41.4391 12.4411L40.6387 10.2436Z" fill="white"/>
<path d="M54.4578 12.0881L53.4919 13.1484L53.6766 14.9051C54.0307 14.8975 54.4155 14.986 54.5945 15.0533L54.7542 16.1963L50.8692 16.6023L50.7922 15.4516C50.9538 15.3458 51.3098 15.1803 51.6619 15.1168L50.9634 8.3937C49.9359 8.45527 49.9629 8.03965 49.9071 7.50088C49.8974 7.37388 49.8974 7.24496 49.8955 7.10065L53.7536 6.70041C53.7786 7.08333 53.8036 7.47009 53.8421 7.853C53.6651 7.94151 53.3245 8.11854 52.9743 8.18589L53.2956 11.2607L56.2089 7.84723C55.849 7.84338 55.6528 7.74717 55.4334 7.68367L55.341 6.53301L58.8297 6.16934L58.9066 7.32385C58.7296 7.41429 58.4718 7.56822 58.2062 7.62595L55.6643 10.6431L59.0067 14.2221L60.0804 14.4818L59.988 15.6652C58.6276 15.8076 57.6867 15.5651 56.6341 14.4241L54.4578 12.0881Z" fill="white"/>
<path d="M59.968 10.9932C60.2893 7.45849 62.7523 6.20969 65.4828 6.45983C66.645 6.56951 67.7707 6.94473 68.5038 7.35458L68.1574 9.72903C68.0439 9.73288 67.9419 9.7348 67.8572 9.7271C66.9471 9.64629 66.7046 9.04979 66.6585 8.1435C66.3102 8.01073 65.8772 7.90105 65.3942 7.85487C63.749 7.70671 62.2924 8.88816 62.0807 11.203C61.8864 13.3176 63.0717 14.7589 64.8439 14.9205C65.7425 15.0051 66.9933 14.7742 67.7495 14.3432L67.7129 15.7998C66.8047 16.2309 65.6348 16.4117 64.6303 16.3194C61.5785 16.0384 59.687 14.0296 59.968 10.9932Z" fill="white"/>
<path d="M67.8623 16.3348L68.2337 15.2399C68.4223 15.2091 68.8129 15.1918 69.165 15.2649L71.0892 8.78236C70.7563 8.65344 70.4485 8.43024 70.3099 8.29747L70.5985 7.17759L80.1157 10.0042L79.7597 11.1049C79.5692 11.1395 79.1806 11.1568 78.8284 11.0818L76.9061 17.5644C77.2371 17.6913 77.5527 17.9184 77.7105 18.055L77.4083 19.173L73.6619 18.0569L74.0313 16.964C74.2199 16.9313 74.6125 16.914 74.9607 16.9871L76.883 10.5026L73.0308 9.35962L71.1046 15.8403C71.4413 15.9692 71.7588 16.1982 71.8974 16.3271L71.6107 17.4508L67.8623 16.3348Z" fill="white"/>
<path d="M77.2871 19.2661L77.8548 18.2579C78.0472 18.2617 78.4359 18.3175 78.7668 18.456L81.8629 12.4468C80.7738 11.8253 81.2722 11.3885 81.6801 10.7824L87.8511 13.9669L86.7004 16.1932C86.5022 16.1413 86.3329 16.0681 86.1905 15.995C85.5189 15.6506 85.5131 15.133 85.8037 14.4826L83.662 13.3743L82.4729 15.6833L83.9411 16.4433C84.0065 16.3779 84.272 16.0489 84.3317 15.9989L85.3246 16.5588L84.7011 17.6171L84.2028 18.7697L83.1541 18.2809C83.156 18.1847 83.2753 17.7961 83.3022 17.6844L81.8321 16.9244L80.566 19.3835L82.8943 20.5861C83.2791 19.9646 83.6851 19.6779 84.3682 20.0281C84.5106 20.1012 84.6723 20.1974 84.8243 20.3283C84.4356 21.0903 84.0411 21.8484 83.6505 22.6084L82.2824 21.8407L77.2871 19.2661Z" fill="white"/>
<path d="M88.5718 21.3238L87.067 23.3326C87.3345 23.5674 87.7867 24.0638 87.8733 24.2351L87.2133 25.1856L83.8594 22.6746L84.5867 21.7798C84.7715 21.8087 85.1467 21.9299 85.4507 22.1204L89.4935 16.7038C88.5256 15.9091 89.0875 15.5628 89.5858 15.0298L91.2022 16.2362C91.2022 16.2362 92.7185 17.3003 93.0475 17.5466C93.0956 17.5812 93.1437 17.6159 93.1976 17.6563C94.9813 18.9917 95.0833 20.6869 94.204 21.8645C93.4304 22.8901 91.7641 23.8137 89.7879 22.3378C89.6878 22.2609 89.5839 22.1839 89.4896 22.0973C89.3626 22.003 88.5718 21.3238 88.5718 21.3238ZM91.1214 17.918L89.3357 20.3059C89.3357 20.3059 89.9553 20.7889 90.09 20.8889C91.0848 21.6297 92.0007 21.4604 92.5337 20.7388C93.1129 19.9634 92.8224 19.1591 92.1085 18.6222L91.1214 17.918Z" fill="white"/>
<path d="M94.5771 22.2219L96.5264 20.3246L102.347 26.5167L100.334 28.3523L99.4781 27.5692C99.5435 27.3902 100.115 26.711 100.373 26.4358L99.0875 25.1332L94.1884 29.7435C94.4155 30.0264 94.5675 30.3785 94.6272 30.5671L93.8171 31.3868L91.1309 28.539L92.0025 27.7809C92.1911 27.8463 92.5298 28.0291 92.7953 28.2696L97.7117 23.6612L96.4744 22.3085C96.1954 22.5548 95.5566 23.0397 95.2987 23.1224L94.5771 22.2219Z" fill="white"/>
<path d="M99.0471 29.926C101.71 28.2385 104.314 28.9986 105.882 31.4654C107.454 33.9341 107.029 36.6318 104.368 38.3193C101.708 40.0088 99.1029 39.2487 97.5212 36.7646C95.9453 34.2728 96.3859 31.6136 99.0471 29.926ZM100.192 31.7309C98.4275 32.8547 97.8503 34.6384 98.7162 36.0103C99.5859 37.3823 101.447 37.6247 103.217 36.4991C104.991 35.3792 105.564 33.607 104.689 32.2197C103.821 30.8497 101.96 30.6091 100.192 31.7309Z" fill="white"/>
<path d="M100.022 40.4931L101.11 40.1064C101.258 40.2353 101.506 40.5297 101.664 40.853L107.944 38.3477C107.608 37.3798 108.02 37.2951 108.518 37.0931C108.641 37.0469 108.76 37.0123 108.901 36.9719L109.513 38.4958C109.628 38.7921 110.215 40.1314 110.5 40.8241C111.173 42.5193 110.887 44.3511 109.438 44.9226C108.021 45.4883 107.169 44.7263 106.707 43.9547L106.603 43.999C106.855 45.2959 106.611 46.4177 105.378 46.9084C103.934 47.4799 102.426 46.6909 101.61 44.6378C101.35 43.9855 101.035 43.0484 100.858 42.6001L100.022 40.4931ZM104.927 41.7169L102.42 42.7117C102.462 42.8195 102.803 43.7566 102.866 43.9047C103.199 44.7398 103.823 45.2132 104.666 44.8764C105.474 44.5551 105.73 43.7431 105.283 42.6078L104.927 41.7169ZM108.693 40.2218L106.242 41.1955L106.532 41.9266C106.873 42.7868 107.469 43.3948 108.443 43.0023C109.268 42.6752 109.409 41.9574 109.022 40.9742C108.935 40.7529 108.797 40.4527 108.693 40.2218Z" fill="white"/>
<path d="M40.2084 83.5565C42.0268 83.2717 43.2737 81.563 42.985 79.7427C42.7002 77.9225 40.9896 76.6775 39.1712 76.9642C37.3528 77.2509 36.1079 78.9577 36.3946 80.7799C36.6794 82.6002 38.39 83.8451 40.2084 83.5565Z" fill="white"/>
<path d="M34.6423 79.7427C34.3594 77.9225 32.6507 76.6775 30.8323 76.9642C29.012 77.2509 27.7671 78.9577 28.0538 80.7799C28.3386 82.6002 30.0453 83.8451 31.8676 83.5565C33.6879 83.2698 34.929 81.563 34.6423 79.7427Z" fill="white"/>
<path d="M43.3953 84.3821C41.575 84.6669 40.3281 86.3718 40.6167 88.192C40.8996 90.0123 42.6102 91.2592 44.4324 90.9706C46.2508 90.6858 47.4939 88.9771 47.2091 87.1549C46.9205 85.3365 45.2137 84.0935 43.3953 84.3821Z" fill="white"/>
<path d="M38.8664 87.1558C38.5816 85.3355 36.871 84.0925 35.0526 84.383C33.2323 84.6659 31.9892 86.3726 32.274 88.1929C32.5607 90.0132 34.2675 91.2581 36.0897 90.9733C37.9081 90.6866 39.1512 88.976 38.8664 87.1558Z" fill="white"/>
<path d="M39.2753 91.7935C37.4549 92.0802 36.21 93.7888 36.4986 95.6072C36.7853 97.4275 38.4921 98.6705 40.3105 98.3838C42.1327 98.099 43.3777 96.3923 43.091 94.572C42.8023 92.7536 41.0956 91.5087 39.2753 91.7935Z" fill="white"/>
<path d="M86.6828 78.2704C83.8042 81.7532 78.2047 85.3207 73.4654 86.531C65.0238 88.6822 57.0229 84.093 53.2669 74.5144C54.8582 72.419 55.9512 70.0869 56.4495 67.6566C58.5816 68.1685 60.9484 68.2589 63.4152 67.9029L64.589 67.7336L65.0123 66.6291C67.1617 61.0451 66.671 55.6843 63.6634 51.9129C61.9836 49.8059 59.6226 48.3743 56.8382 47.6489C58.7509 45.8614 61.0561 44.5875 63.6596 43.9198C65.3721 43.485 67.1578 43.2868 68.8107 43.2791C72.4533 51.2702 76.7115 51.632 78.1451 51.4954C78.6319 51.5165 79.1322 51.4665 79.6768 51.328C80.0424 51.2356 80.3983 51.1432 80.8121 50.9547L78.4299 37.2371C76.777 36.8138 74.5891 36.4328 72.105 36.2962C71.3988 32.2593 71.443 28.4128 71.3564 25.7305H64.3773C64.9373 29.9541 65.6434 33.4754 66.4381 36.4367C64.9834 36.5925 63.4902 36.8465 61.9778 37.2294C58.3122 38.1665 54.9371 39.7059 52.0334 41.8283C51.4235 39.3576 50.217 37.2083 48.4313 35.5689C44.8831 32.3035 39.5664 31.4338 33.8496 33.181L32.7143 33.5292L32.4661 34.6876C31.9408 37.1236 31.8599 39.4865 32.2179 41.6512C28.1366 42.19 24.1977 44.3605 21.117 47.8356L20.1973 48.8727L20.8342 50.1042C22.616 53.5369 25.1675 56.2289 28.1866 57.9048C24.3632 62.2727 22.312 67.9164 22.5025 73.7159L22.5602 75.4746L24.3074 75.6593C30.005 76.2443 35.7065 74.6491 40.3015 71.2356C41.2232 72.9712 42.4739 74.5702 43.996 75.9807C48.668 90.3428 60.5847 96.9312 74.5025 93.383C79.5979 92.0842 84.9434 89.094 88.6378 85.1475L86.6828 78.2704ZM39.7011 66.4713L39.5434 66.6272C35.9989 69.9329 31.3808 71.7436 26.6395 71.7436H26.5626C26.8801 66.9889 29.016 62.4786 32.5873 59.1556C32.6816 59.0632 32.7816 58.9766 32.8836 58.8919L35.7315 56.3963L32.316 55.3187C29.4489 54.4144 26.932 52.3613 25.1233 49.4827C27.923 46.7907 31.2885 45.3995 34.702 45.5612L37.7365 45.6978L36.684 42.85C36.0336 41.0778 35.8642 38.9824 36.1914 36.7253C40.0379 35.8306 43.4591 36.4675 45.7028 38.5321C48.135 40.7699 49.0163 44.5414 48.1196 48.8785L47.5481 51.6589L50.3632 51.2856C54.7524 50.6949 58.4507 51.8475 60.5096 54.4278C62.4127 56.81 62.8071 60.2677 61.6449 64.0411C59.3686 64.2066 57.2904 63.8948 55.5702 63.1175L52.8031 61.8706L52.7242 64.905C52.6377 68.3282 51.0194 71.58 48.1369 74.1835C45.6335 72.3459 43.8382 69.9541 43.0243 67.3276L42.0545 64.2142L39.7011 66.4713Z" fill="white"/>
</svg>
