<svg width="120" height="120" fill="none" xmlns="http://www.w3.org/2000/svg"><path d="M120 59.998C120 93.136 93.138 120 60 120 26.862 120 0 93.136 0 59.998 0 26.864 26.863 0 60 0c33.138 0 60 26.864 60 59.998Z" fill="#F9A91F"/><path d="M90.142 93.88c-.611-.03-1.227-.061-1.843-.088 2.47-.427 4.393-1.624 5.561-3.539l.004.042c.856-1.435 3.07-1.955 3.97-4.818.712-2.259.296-2.961 1.035-5.309.508-1.616 1.695-1.231 2.095-1.048a.208.208 0 0 0 .283-.114c.245-.594-.184-2.33-.948-2.559-2.385-.706-5.61 4.776-6.227 3.415l-.006-.011c-.597-1.5-1.216-2.41-1.216-2.41 0-.478.508-.753.508-1.15 0-.396-.223-.55-.595-.55h-5.188c.006-.202.028-.397.062-.593l.04-.04.622-.48c.158-.12.385-.242.622-.373l.277-.15.261-.102c.297-.125.603-.25.96-.33 1.702-.491 3.84-.322 5.508-.122h.005c.253.027.528.062.809.094a42.79 42.79 0 0 0 1.772.187c.633.025 1.799.066 2.107-.843.242-.716-.291-1.437-1.41-1.918-.984-.475-2.265-.664-2.933-.733-1.588-.198-3.933.088-5.794.946 1.156-.933 2.42-1.808 3.668-2.744l.1-.01.577-.02c.364-.021.9.017 1.326.056.822.076 1.72.319 2.446.511.192.052.369.099.535.14l.02.007c.128.027.262.057.4.09.376.09.815.194 1.229.194.492 0 .95-.15 1.218-.654.163-.306.169-.646.019-.964-.377-.804-1.638-1.247-2.227-1.366-.053-.014-.111-.021-.165-.033.304-.1.595-.2.843-.294l.181-.075c1.06-.43 2.511-1.018 2.209-2.167a1.02 1.02 0 0 0-.552-.671c-.718-.358-1.879-.033-2.556.217.023-.038.052-.075.073-.11.137-.225.281-.506.418-.81l.027-.069c.102-.302.204-.614.234-.952.026-.38-.015-.685-.132-.959a1.074 1.074 0 0 0-.82-.592c-.895-.093-1.38.733-1.767 1.402-.103.178-.204.353-.327.533-.496.834-1.146 1.9-1.787 2.78-.656.913-1.25 1.64-1.253 1.646l-.38.466c-.75.55-1.535 1.068-2.33 1.597.57-.791 1.096-1.701 1.323-2.621.163-.631.39-1.83.113-2.788-.127-.618-.429-1.12-.827-1.37a1.112 1.112 0 0 0-.872-.152c-.77.188-.954.881-1.118 1.495l-.034.137c-.081.506-.224 1.18-.387 1.85-.26 1.097-.955 2.856-1.732 4.384l-.358.714c-.24.479-.454.908-.614 1.247-.254.523-.383.856-.383.856l-.367.945a6.08 6.08 0 0 0-.762 2.61h-.343l-.035-.295.012-.749c.006-.16.029-.327.052-.5.02-.127.037-.254.044-.356.183-1.093.695-2.298 1.07-3.179l.13-.31c.059-.142.12-.294.19-.45.154-.375.319-.76.436-1.13.114-.375.349-1.156-.244-1.675-.45-.407-1.099-.299-1.69.242.713-1.612 1.527-3.225 2.244-4.903l.22-.198c.16-.146.33-.306.5-.452.125-.09.25-.193.377-.295a7.25 7.25 0 0 1 .683-.508c.741-.554 1.647-1.052 2.434-1.487.583-.302 1.153-.577 1.66-.824.242-.115.468-.223.676-.325l.437-.211c.568-.28 1.212-.593 1.751-.897.431-.256 1.443-.86 1.236-1.801-.162-.733-.965-1.072-2.15-.899-.845.108-1.745.46-2.432.782.125-.133.25-.264.364-.38l.013-.013c.347-.389.768-.806 1.176-1.209.204-.203.4-.4.571-.575.137-.133.262-.28.374-.415.136-.14.252-.291.35-.456.167-.299.317-.662.177-1.097-.146-.445-.564-.726-1.076-.728a2.868 2.868 0 0 0-.706.066c-.233.058-.45.15-.72.265-1.171.535-2.153 1.544-2.51 1.944-.503.52-.986 1.17-1.434 1.866.067-1.533-.052-3.073-.412-4.562-.039-.177-.093-.346-.135-.521l.173-.74c.183-.694.393-1.294.643-1.85.666-1.63 1.995-3.048 2.388-3.445l.004-.005c.16-.172.34-.353.521-.54.272-.278.553-.567.824-.865.335-.422.9-1.126.475-1.91-.358-.663-1.193-.817-2.109-.405-.85.32-1.622 1.037-2.024 1.46.054-.227.104-.457.14-.692.054-.48.158-1.368-.617-1.819-.64-.379-1.422-.098-1.984.693-.41.531-.77 1.36-.962 2.205-.125.495-.187 1.087-.19 1.719a30.327 30.327 0 0 0-.713-1.113l-.01-.13s-.017-.214.014-.576c.01-.188.021-.392.066-.64.032-.274.08-.518.144-.772.175-.85.54-1.79.833-2.544.083-.223.164-.427.23-.614l.007-.011c.038-.116.082-.237.127-.36.12-.345.26-.733.334-1.093.064-.298.233-1.091-.423-1.57-.404-.298-1.08-.339-1.757.442a4.848 4.848 0 0 0-.712 1.184c-.002-.01-.002-.016-.002-.027-.063-.916-.15-2.172-1.18-2.348-.328-.057-.644.04-.894.275-.685.645-.723 2.127-.65 2.804.007.121.025.248.044.373-.514-.5-1.053-.927-1.536-1.197-.59-.361-1.795-.883-2.597-.584a1.043 1.043 0 0 0-.65.68c-.33 1.036.76 1.667 1.556 2.127.108.06.212.12.321.189.272.152.595.317.941.496.077.04.164.089.243.127-.52-.106-1.5-.227-2.098.204-.271.194-.433.479-.465.82-.112 1.2 1.28 1.522 2.024 1.697l.092.02c.393.084.866.143 1.368.205.481.06.978.121 1.436.212.87.142 1.572.415 1.578.419l.108.04a30.271 30.271 0 0 1 2.14 3.572 7.454 7.454 0 0 0-1.582-1.132l-.733-.348-.668-.227a5.748 5.748 0 0 0-1.07-.258l-.256-.042c-1.091-.171-3.008-.146-3.822.616-.28.261-.413.592-.38.95.1 1.214 1.687 1.393 2.965 1.536.277.028.548.06.793.098.175.027.355.052.546.073.502.065 1.07.138 1.612.286.786.208 1.486.524 2.036.926.608.422 1.034 1.005 1.297 1.366l.235.373.947 1.815c.029.215.048.433.067.648l-.129-.302-.121-.238c-.16-.28-.325-.566-.545-.787-.265-.306-.567-.512-.86-.604-.485-.154-.82.025-1.016.204-.229.21-.36.5-.373.854-.006.25.048.51.121.793.025.075.05.157.077.242.048.167.102.346.15.45.04.147.089.287.139.426.027.075.054.154.079.236a11.614 11.614 0 0 0-.731-.998l-.185-.193c-.31-.329-.631-.667-.993-.885-1.049-.748-2.034-.793-2.573-.115-.637.804-.073 1.793.254 2.364.087.126.17.262.254.403.129.215.262.434.4.608l.843 1.373c.33.572.704 1.213 1.016 1.93.42.97.74 1.932.916 2.77.185.91.293 1.79.298 2.435.02.39.014.67.004.834-.38.788-.77 1.581-1.143 2.393l.004-.032c.05-.447.104-.909.092-1.328.008-.423-.044-.754-.16-1.028a1.493 1.493 0 0 0-.788-.854c-.41-.189-.843-.175-1.274.056-.308.185-.602.5-.86.92-.31.546-.504 1.195-.614 1.77a21.182 21.182 0 0 0-.042-.424v-.001a28.387 28.387 0 0 1-.104-1.297c-.04-.587-.081-1.19-.156-1.745-.106-.722-.3-2.067-1.424-2.234-.856-.127-1.586.621-1.938 2.008-.317 1.205-.315 2.677-.206 3.64.09 1.154.458 2.53 1.038 3.89a15.528 15.528 0 0 0 2.291 3.602c.835.993 1.701 1.72 2.336 2.247l.06.054a.01.01 0 0 1 .01.006h-2.742c-.24 0-.407.071-.503.221-.527-.325-1.28-.721-2.182-.65-1.703.129-2.503 1.785-2.424 3.225.146 2.72 1.783 4.716 2.757 6.147-.008.174-.015.347-.015.526 0 4.497 2.226 7.346 5.817 8.349a588.076 588.076 0 0 0-19.066-.445c5.242-1.297 8.477-5.314 8.477-11.743l-.002-.038a.538.538 0 0 0 .358-.522 14.239 14.239 0 0 0-.093-1.103.613.613 0 0 0 .414-.577.61.61 0 0 0-.576-.606 34.448 34.448 0 0 0-.446-2.145c.237-1.228 1.782-2.284 3.456-2.284 1 0 1.162-2.563 0-2.563-2.036 0-3.768.848-4.374 1.616-.038-.148-.061-.23-.061-.23 0-.665.773-1.05.773-1.602s-.34-.768-.902-.768h-9.816c-.025-1.497-.056-3.223-.087-4.927.178-.6.495-1.176.897-1.948.252-.48.855-.821 1.409-.821.067 0 .136.003.202.015a14.04 14.04 0 0 0 2.26.194c1.754 0 3.132-.396 4.151-1.056l-.252-.221s1.301-.202 3.849-2.267l-.314-.237c1.597-.78 1.72-1.785 2.467-2.547l-.514-.218c.447-.6.624-.95 1.055-1.374.09-.088.186-.18.304-.275-.787-.764-2.163-1.345-3.26-1.606l.104-.2s-1.103-.626-2.744-.626c-.16 0-.323.006-.494.017l.17-.329c-.109-.002-.217-.005-.32-.005-1.804 0-3.266.604-4.243 1.127l-.05-.363c-4.975 2.2-3.566 8.837-4.37 10.275-.168.3-.272.465-.341.542a1682.04 1682.04 0 0 0-.121-6.301c-.02-.76-.037-1.967-.06-3.29.117-2.57.63-3.791 1.672-4.961.397.098.853.15 1.35.15 2.755 0 6.76-1.493 8.743-4.85 0 0-.148-.074-.28-.113.709-.73 1.373-2.207 1.57-4.38h-.003c-.017 0-.294 0-.394.047.13-3.038-.485-4.404-.485-4.404s-.16.011-.48.192c-.15-.589-.427-2.101-1.508-3.835 0 0-1.035.631-2.144 1.636l-.117-.45c-1.23.49-2.31 1.935-2.946 3.003l-.377-.473c-.997.78-1.503 2.282-1.822 3.942l-.335-.267c-1.39 3.454.367 7.035-1.384 8.176a.939.939 0 0 1-.615.254c-.322 0-.636-.22-.72-.853a19.19 19.19 0 0 1-.025-.36 17.7 17.7 0 0 1-.02-.317c-.094-1.63-.132-3.673-.217-8.441.02-1.02.462-2.352.693-2.802a.347.347 0 0 1 .406-.183c2.757.837 3.789-.4 4.031-.589 0 0-.138-.132-.252-.188.876-.297 1.145-1.28 1.343-1.774 0 0-.248-.083-.36-.083.48-.373.485-1.191 1.247-1.824-.286-.087-.777-.168-1.18-.125.03-.071.05-.17.05-.17-.961-.144-1.82.118-2.05.256.011-.088-.027-.167-.027-.167-.938.279-1.636.883-1.784 1.15a.872.872 0 0 0-.083-.165c-1.68 1.559-1.843 3.439-1.809 3.593 0 .003-.052.088-.125.229.108-1.201.289-2.473.497-3.693.764-2.775 2.746-1.635 4.35-3.587.012-.017-.311-.152-.311-.152.883-.502 1.485-1.431 1.506-2.082.002-.013-.462-.025-.462-.025.472-.629.734-1.508.503-2.507-.002-.017-.475.089-.475.089.334-.907.103-2.061.103-2.061-.856.485-1.254.793-1.862.983 0 0-.014-.204-.03-.202-1.712.425-2.376 1.131-2.376 1.131l-.188-.315s-1.14.421-1.788 1.941l-.225-.248c-1.197 2.167-.258 4.587-.05 5.956a26.392 26.392 0 0 0-.518 2.942 4.93 4.93 0 0 0-.269-.574c-.006-.01-.006-.017-.006-.025.023-.198-.306-2.46-2.547-4.283 0 0-.05.1-.07.22-.342-.445-1.158-.936-2.384-1.238 0 0-.017.093.014.208-.33-.146-1.446-.362-2.6-.098 0 0 .038.12.098.204-.517-.008-1.1.148-1.462.285 1.016.704 1.116 1.706 1.716 2.12a2.357 2.357 0 0 0-.396.129c.219.51.57 1.753 1.837 2.067-.094.055-.296.279-.296.279.471.311 2.001 1.595 5.084.303a.44.44 0 0 1 .527.187c.246.397.472 1.264.55 2.205-.169 2.138-.234 4.597-.234 7.426 0 2.495.192 8.74.142 10.502-.044 1.462-.822 1.528-1.305 1.033a6.856 6.856 0 0 0-.26-.254c-1.583-2.013 1.946-5.195-.36-13.073l-.428.325c-.581-1.98-1.686-3.44-2.892-4.373l-.224.629c-1.526-2-4.38-3.644-4.38-3.644l-.232.367c-.991-.937-1.43-1.308-2.119-2.182-.508.785-1.343 3.185-1.574 4.86l-.263-.101c-.672 2.734-.34 4.625-.158 5.399l-.366-.029c.293 2.461 1.284 4.391 2.025 5.222l-.44.13c2.907 4.906 7.02 5.056 9.095 6.095 2.182 2.86 3.98 4.834 3.968 7.414-.008 1.395.004 3.792.02 6.219a6.285 6.285 0 0 0-.482-.964c-.006-.012-.01-.02-.008-.027.017-.237.131-3.13-1.938-5.247 0 0-.08.161-.073.308-.267-.414-1.293-1.436-2.865-1.353 0 0 .046.183.131.277-.396-.166-1.86-.414-3.077-.015 0 0 .03.184.09.317-.344-.015-1.266.083-2.488.43 0 0 .77 2.114 1.701 2.73-.227-.006-.534.136-.534.136.098.258.906 2.034 2.322 2.326-.25.104-.37.303-.37.303.24.22 2.104 1.75 5.943.073a.507.507 0 0 1 .621.186c.42.603 1.009 2.115 1.032 3.34.004.145.01.276.019.393.002.083.002.17.002.25H48.917c-.562 0-.902.216-.902.768s.773.937.773 1.601c0 0-.02.083-.061.231-.602-.768-2.338-1.616-4.372-1.616-1.162 0-1 2.563 0 2.563 1.672 0 3.217 1.056 3.456 2.284a31.895 31.895 0 0 0-.447 2.145.612.612 0 0 0-.577.606c0 .27.175.49.416.578-.039.36-.079.721-.093 1.102-.01.24.145.443.357.521v.039c0 6.429 3.257 10.446 8.487 11.743-6.061.043-11.992.177-17.733.383 4.13-1.15 6.673-4.42 6.673-9.588 0-2.819-1.1-4.96-1.1-4.96a.2.2 0 0 0 .009-.056c0-.545.639-.864.639-1.318 0-.458-.281-.633-.745-.633H38.95c.62-9.968 7.856-12.96 7.856-12.96-1.418-.348-4.673.15-7.294 2.806 3.548-8.069 8.722-11.03 8.722-11.03-2.116-.768-6.685 1.528-10.212 7.55 1.884-10.755 4.655-16.359 4.655-16.359-1.618-.046-5.157 2.815-7.487 14.61-1.049-19.14-6.481-27.954-8.83-27.229 0 0 4.739 6.897 5.453 27.484-3.285-9.846-8.667-14.83-10.959-14.805 0 0 6.56 7.897 8.956 20.864-2.677-2.782-6.012-3.254-7.77-2.461 0 0 6.858 2.453 8.335 11.53h-4.868c-.42 0-.677.155-.724.521-1.899-1.507-5.547-3.223-7.702-3.485-1.27-.154-1.495 2.215-.287 2.363 4.757.576 8.078 3.987 7.758 5.232-.024.125-.05.254-.073.387-.09.32-.175.654-.25.995-.015-.004-.029-.01-.044-.01a.51.51 0 0 0-.494.523.502.502 0 0 0 .373.466c-.037.298-.064.6-.066.912a.444.444 0 0 0 .381.435c.458 4.791 3.35 7.691 7.717 8.47-.83.039-1.657.077-2.479.118a6.59 6.59 0 0 0-6.252 6.584v7.062a59.735 59.735 0 0 0 36.636 12.484 59.75 59.75 0 0 0 36.39-12.295v-7.241a6.588 6.588 0 0 0-6.249-6.583ZM77.566 82.156c-.441-.223-1.534-1.637-1.669-3.477-.075-1.02.483-1.62 1.164-1.672.841-.064 1.63.762 1.674 1.793a14.913 14.913 0 0 0-1.17 3.356Z" fill="#1B0F0A"/><path d="m25.398 31.57-.956-.996c.057-.18.383-.737.61-1.01l-4.453-4.35c-.756.694-1.251.506-1.669.101-.12-.119-.223-.258-.344-.398l1.738-1.78s1.198-1.31 1.547-1.684c.038-.044.079-.082.119-.125 1.538-1.574 3.298-1.464 4.366-.423.926.902 1.661 2.711-.007 4.422-.1.102-.208.212-.33.315-.026.031-.773.693-.773.693l1.514 1.478c.258-.223 1.016-.773 1.197-.837l1.014.933-3.573 3.66Zm-3.092-8.104 1.87 1.824.508-.517c.695-.71.654-1.524.096-2.07-.54-.526-1.283-.5-1.799.03l-.675.733ZM31.887 25.135l-.733-1.168c.092-.164.523-.646.804-.868l-3.477-5.165c-.881.526-1.328.243-1.653-.24-.096-.142-.165-.298-.258-.462l6.19-4.166 1.494 2.219a3.157 3.157 0 0 1-.527.438c-.66.443-1.147.256-1.59-.248l-1.628 1.097 1.222 1.815.966-.65c-.027-.12-.138-.44-.163-.526l1.133-.71.664 1.114.835 1.064-1.106.799c-.09-.06-.333-.293-.44-.376l-.967.653 1.334 1.982 1.828-1.23c-.304-.604-.281-1.133.39-1.583.154-.106.347-.203.581-.306l1.524 2.263-1.493.937-4.93 3.317ZM37.694 15.814c-1.349-3.352.316-5.538 2.9-6.575.938-.378 2.07-.682 3.048-.691l.907 2.594c-.116.06-.216.115-.32.156-.91.365-1.533-.118-2.043-.849a6.31 6.31 0 0 0-.924.296c-1.33.537-2.005 2.096-1.183 4.141.742 1.846 2.23 2.533 3.72 1.932.792-.315 1.837-1.106 2.334-1.888l.729 1.544c-.602.825-1.584 1.543-2.521 1.92-2.915 1.172-5.484.306-6.647-2.58ZM47.367 10.352l-.549-3.048 8.566-1.422.463 3.063-1.343.325c-.125-.152-.406-1.143-.49-1.491l-1.438.285 1.01 6.096c.356-.031.997.02 1.18.077l.267 1.354-4.764.791-.183-1.37c.154-.11.76-.37 1.102-.456l-1.01-6.096-1.433.208c.027.356.077 1.256-.002 1.557l-1.376.127ZM57.815 10.42c.177-3.18 2.307-4.828 5.27-4.659 2.983.166 4.898 2.052 4.721 5.219-.177 3.163-2.292 4.826-5.273 4.657-2.978-.164-4.895-2.053-4.718-5.217Zm2.567.143c-.106 1.916.828 3.334 2.246 3.415 1.418.079 2.503-1.23 2.61-3.146.107-1.913-.825-3.335-2.243-3.412-1.42-.083-2.503 1.226-2.613 3.143ZM68.602 16.042l.42-1.314c.188-.035.832-.012 1.182.06L71.917 8.8c-.968-.336-1.04-.862-.88-1.422.047-.163.122-.32.185-.494l2.392.685s1.723.435 2.22.562c.055.015.109.032.165.046 2.116.608 2.857 2.209 2.447 3.646-.358 1.241-1.603 2.748-3.896 2.094-.139-.042-.289-.083-.435-.143-.04-.011-.978-.354-.978-.354l-.583 2.038c.322.121 1.164.526 1.305.654l-.337 1.34-4.92-1.41Zm5.665-6.57-.72 2.514.699.202c.956.271 1.653-.15 1.868-.899.208-.727-.171-1.368-.881-1.57l-.966-.246ZM80.317 20.25l-3.633-1.98.698-1.19c.171.014.595.099.922.212l5.192-4.39c-.12-.078-.218-.134-.237-.159-.344-.32-.404-.802-.165-1.241a1.45 1.45 0 0 1 .248-.364l3.83 1.794a837.636 837.636 0 0 0-1.352 8.441c.3.197.649.564.757.72l-.62 1.233-4.218-2.303c.236-.404.46-.785.683-1.195.206.014.816.168 1.141.314l.167-.993-2.919-1.59-.768.666c.3.193.787.637.895.793l-.621 1.232Zm3.956-5.808-2.172 1.942 1.909 1.04.477-2.866.148-.45-.05-.026-.312.36ZM86.823 23.923l.984-.966c.182.054.742.374 1.02.6l4.3-4.502c-.236-.267-.58-.812-.646-.991l.922-1.028 3.494 3.34-.981.967c-.185-.056-.745-.375-1.022-.6l-1.55 1.624 2.714 2.591 1.55-1.625c-.238-.264-.58-.809-.646-.988l.924-1.027 3.483 3.329-.983.966c-.183-.054-.743-.373-1.02-.6l-4.299 4.502c.237.268.581.812.645.991l-.92 1.028-3.497-3.337.986-.97c.178.056.752.385 1.027.608l1.61-1.681-2.714-2.594-1.61 1.685c.238.268.582.812.646.991l-.922 1.026-3.495-3.339Z" fill="#fff"/><path d="M64.21 40.95c-.471 1.187.88 5.565-1.271 7.06 3.465-1.66 7.731-7.846 7.858-14.448-.267.102-1.362.859-2.25 1.898l-.17-.664c-1.272 1.054-2.08 3.117-2.08 3.117l-.56-.625c-.834 1.687-1.103 3.971-1.103 3.971l-.424-.31ZM46.3 38.282l-.512-.217c-.404 2.904.574 4.964.574 4.964l-.56-.011c.656 2.58 2.553 4.431 2.553 4.431l-.663.204c2.028 2.69 4.137 3.218 5.924 3.805.456.148.834.28 1.178.429-4.287-4.724-7.96-11.15-7.813-17.617-.525 1.445-.68 4.012-.68 4.012ZM71.972 53.825c-1.851-.471-3.427.017-3.427.017l.158-.306c-1.97.291-3.424 1.619-3.424 1.619l-.044-.36c-1.726 1.651-1.872 3.86-2.032 5.765 1.83-2.682 4.834-4.815 11.54-5.513-1.199-.748-2.938-.9-2.938-.9l.167-.322ZM63.6 23.243l-.012-.183a3.094 3.094 0 0 0-1.799 1.143l-.18-.3c-1.119 1.02-1.129 2.352-1.129 2.352l-.207-.297c-.214 1.118.219 2.81.275 3.056.06.27.111.518.154.754.306-1.305.771-2.31 1.306-3.142 1.041-1.617 2.338-2.608 3.231-3.95-.49.24-1.64.567-1.64.567ZM37.348 69.762c.117-1.022.244-2.019.38-2.98.847-1.912 1.852-3.647 2.985-5.13a17.572 17.572 0 0 1 2.517-2.695c-1.907 2.234-4.245 5.748-5.882 10.805ZM34.005 70.03a53.447 53.447 0 0 0-.822-4.128c-.088-12.328-1.576-20.393-2.963-25.256 1.528 3.733 3.998 11.98 4.147 26.432-.137.993-.254 1.968-.362 2.952ZM34.65 76.966c.13-1.977.314-4.255.495-6.012.13-1.272.283-2.538.45-3.767 1.238-9.093 3.066-13.857 4.515-16.33-1.13 3.325-2.587 8.569-3.593 15.668a110.704 110.704 0 0 0-.583 4.85c-.177 1.802-.32 3.682-.42 5.59h-.864ZM33.259 73.936a16.87 16.87 0 0 0-.181-.608 15.91 15.91 0 0 0-.993-2.459 13.06 13.06 0 0 0-.697-1.2 52.763 52.763 0 0 0-5.965-17.862c1.88 2.358 4.74 6.895 6.535 14.238a52.99 52.99 0 0 1 1.008 5.367c.117.87.216 1.704.293 2.524ZM31.668 76.966a19.409 19.409 0 0 0-.924-3.631c-.949-2.598-2.425-4.784-4.388-6.506 1.13.471 2.589 1.41 3.866 3.269.522.764.976 1.641 1.353 2.613.095.248.189.502.277.768a19.55 19.55 0 0 1 .768 3.487h-.952ZM37.034 76.966c.014-.287.039-.562.062-.843.15-1.732.498-3.306 1.027-4.678.591-1.526 1.4-2.806 2.4-3.806a9.192 9.192 0 0 1 1.591-1.268c-1.803 2.016-3.829 5.401-4.152 10.595h-.928ZM89.115 46.118a18.3 18.3 0 0 1 .273-1.814c.337-.953.822-1.802 1.328-2.313.574-.614 1.201-1.078 1.72-1.276.212-.093.73-.252.822-.035-.94.778-1.649 1.463-2.222 2.155a11.515 11.515 0 0 0-1.765 2.889c-.056.13-.106.26-.156.394ZM84 46.203a14.076 14.076 0 0 0-1.743-.307l-.522-.072c-.254-.042-.54-.075-.839-.107-.687-.077-1.951-.218-2.05-.57a10.125 10.125 0 0 1 3.434-.044c1.316.212 2.56.754 3.421 1.49.258.217.489.453.704.723-.011-.012-.902-.728-2.405-1.113ZM85.13 57.647c-.653-1.54-2.518-4.362-2.595-4.47-.331-.581-.431-.908-.331-1.07 1.112.755 2.086 1.853 2.75 3.093.872 1.606 1.14 3.205 1.208 4.262.031.47.033.946.008 1.44-.02-.087-.246-1.394-1.04-3.255ZM89.331 57.876c.07-.312.13-.626.185-.94.523-1.02 1.366-2.472 2.344-3.494.679-.754 1.741-1.647 2.705-1.905.316-.083.608-.062.649.02-.374.2-1.095.732-1.495 1.125-.549.496-1.059 1.058-1.55 1.597l-.098.108a44.305 44.305 0 0 0-2.74 3.489ZM81.997 38.291a35.463 35.463 0 0 0-1.622-.875 32.96 32.96 0 0 1-.895-.472c-.098-.06-.21-.123-.321-.19-.37-.214-1.122-.647-1.103-.901 1.309.314 2.686 1.137 3.941 2.438ZM85.039 39.478c-.139-.99-.004-2.317.298-3.129.133-.398.387-.952.706-1.322.258-.3.406-.333.45-.323-.463 1.095-1.277 3.51-1.454 4.774ZM90.666 58.198c.433-.46 1.892-1.453 2.612-1.809.9-.44 1.749-.727 2.391-.81.164-.023.314-.035.443-.035.408 0 .558.1.568.137-2.74 1.155-6.135 3.09-7.174 3.949.017-.024 1.16-1.432 1.16-1.432ZM87.887 45.854a18.02 18.02 0 0 0-.265-.554c-.237-1.228-.247-2.561-.023-3.444.127-.556.398-1.328.789-1.834.184-.26.529-.556.667-.402-.564 1.52-1.039 3.927-1.1 5.776a7.3 7.3 0 0 0-.068.458ZM83.784 38.94a11.457 11.457 0 0 0-.356-.572c-.322-.79-.537-1.602-.581-2.218-.104-1.566.317-2.001.384-1.992.031 1.159.264 3.42.55 4.768 0 .002 0 .008.003.014ZM82.308 40.535c-.378-.064-.76-.108-1.11-.152-.487-.06-.934-.118-1.273-.187l-.084-.021c-.441-.102-1.26-.293-1.232-.602l.131-.002c1.097 0 2.511.332 3.568.964ZM97.143 66.305c.992-.741 2.103-1.426 2.846-1.717.627-.256 1.275-.411 1.693-.415.244-.002.344.038.346.073-1.087.5-2.45 1.058-3.552 1.503-.373.152-1.333.556-1.333.556ZM89.239 69.853c.822-1.61 1.534-3.42 1.815-4.607.098-.406.265-1.09.392-1.88.089-.566.285-.849.362-.831.14.029.406 1.574-.127 3.373-.408 1.376-1.253 2.482-1.822 3.208-.218.275-.43.527-.635.767l.015-.03ZM87.772 56.5c-.249-1.136-1.272-4.203-1.396-4.563-.123-.358-.13-.498-.069-.531.614.69.95 1.537 1.124 2.138.24.83.39 2.034.34 2.955ZM101.268 68.45c-1.177-.326-3.184-.792-4.583-.803a7.694 7.694 0 0 1 1.831-.231c.45 0 .864.046 1.195.133.732.146 1.565.6 1.557.9ZM82.444 71.557c-.668-1.58-1.012-3.46-.862-4.699.057-.731.283-1.535.577-2.053.146-.24.494-.704.772-.512-.703 3.622-.399 6.625-.399 6.625-.032.227-.063.44-.088.64ZM81.393 73.405a10.02 10.02 0 0 1-.55-.612 14.311 14.311 0 0 1-2.137-3.352c-.533-1.248-.873-2.518-.958-3.569-.125-1.132-.038-2.388.183-3.289.198-.813.556-1.277.783-1.248-.008 1.937.083 3.592.285 5.055.24 1.791.712 3.527 1.366 5.022.29.671.637 1.341 1.028 1.993ZM84.668 73.207c-.119-1.264.135-2.665.487-3.5.239-.589.562-1.149.884-1.476.315-.321.452-.327.492-.32-.889 1.725-1.48 3.297-1.863 5.296ZM96.928 64.961a43.988 43.988 0 0 0 1.545-2.44c.117-.173.235-.371.35-.573.208-.358.489-.841.699-.895-.089.656-.364 1.353-.776 1.972-.42.635-1.108 1.413-1.818 1.936ZM90.234 72.684c1.565-1.002 3.672-1.36 5.125-1.36.335 0 .654.019.95.055 1.038.112 1.994.347 2.625.647.64.279.881.589.864.66-1.106-.206-2.625-.46-4.095-.558-.473-.033-.94-.05-1.387-.05-1.088 0-2.077.096-2.947.289a9.09 9.09 0 0 0-1.146.325.03.03 0 0 0 .011-.008Z" fill="#6BC74B"/><path d="M54.075 105.31a6.025 6.025 0 0 0 6.027 6.025 6.03 6.03 0 0 0 5.906-4.811h1.328a1.214 1.214 0 1 0 0-2.428h-1.328a6.03 6.03 0 0 0-5.906-4.813 6.026 6.026 0 0 0-6.027 6.027Zm6.027-3.597a3.6 3.6 0 0 1 3.599 3.597 3.602 3.602 0 0 1-3.599 3.596 3.602 3.602 0 0 1-3.596-3.596 3.6 3.6 0 0 1 3.596-3.597ZM40.123 109.613a4.307 4.307 0 0 0 4.168-3.241h.999a1.063 1.063 0 0 0 0-2.126h-.999a4.31 4.31 0 0 0-4.168-3.244 4.305 4.305 0 0 0 0 8.611Zm0-6.485c1.2 0 2.178.981 2.178 2.182a2.182 2.182 0 0 1-2.178 2.178 2.182 2.182 0 0 1-2.18-2.178c0-1.201.977-2.182 2.18-2.182ZM85.248 104.247h-1a4.301 4.301 0 0 0-4.167-3.244 4.304 4.304 0 0 0-4.303 4.306 4.3 4.3 0 0 0 8.469 1.062h1a1.062 1.062 0 1 0 0-2.124Zm-5.167 3.24a2.18 2.18 0 0 1 0-4.358c1.2 0 2.178.979 2.178 2.18a2.18 2.18 0 0 1-2.178 2.178ZM29.901 79.448h-1.79c-.777 1.15-1.168 3.32-1.168 4.486 0 2.69.834 5.772 4.241 7.014-1.268-1.5-1.95-3.884-1.95-7.014 0-2.46.667-4.486.667-4.486ZM42.558 83.934c0-2.14-.898-4.11-1.15-4.486h-.857s.666 2.027.666 4.484c0 2.657-.496 4.766-1.418 6.263 1.607-1.093 2.76-3.003 2.76-6.261ZM90.943 78.862l-.412-.614h-.311c.186.485 1.208 3.342 1.208 6.987 0 2.224-.35 3.985-1.016 5.247 1.38-.894 2.382-2.486 2.382-5.247 0-3.575-1.833-6.344-1.85-6.373ZM83.606 91.126c-.943-1.277-1.453-3.279-1.453-5.892 0-3.608.93-6.24 1.208-6.985h-1.395a2.823 2.823 0 0 1-.315.68c-.3.473-1.81 3.1-1.81 6.211 0 3.87 1.856 5.38 3.765 5.986ZM56.157 90.611c-1.884-1.809-2.914-4.95-2.914-9.217 0-3.44.884-8.367.884-8.367H51.39s.04.097 0 .245c-.042.152-1.324 4.858-1.324 8.122 0 4.864 2.136 8.024 6.09 9.217ZM70.132 81.395c0-3.265-1.176-7.61-1.322-8.122-.029-.094 0-.246 0-.246h-1.416s.883 4.935.883 8.368c0 3.612-.739 6.42-2.109 8.292 2.588-1.572 3.964-4.388 3.964-8.292Z" fill="#fff"/></svg>