<svg width="169" height="46" viewBox="0 0 169 46" fill="none" xmlns="http://www.w3.org/2000/svg">
<path d="M15.942 38.3225C15.996 39.0051 15.4802 39.6116 14.7919 39.6647C14.1086 39.7444 13.498 39.2332 13.4445 38.5502C13.3909 37.8674 13.8796 37.265 14.5666 37.2118C15.2512 37.1313 15.862 37.6441 15.942 38.3225ZM12.042 35.7017C11.989 35.0197 12.5041 34.4131 13.1874 34.3327C13.8757 34.2798 14.4865 34.7918 14.5401 35.4744C14.594 36.1576 14.0783 36.7636 13.3897 36.817C12.7063 36.8973 12.0956 36.3853 12.042 35.7017ZM14.1947 40.9755C14.2751 41.6539 13.759 42.2602 13.0761 42.3405C12.3878 42.3935 11.7768 41.8818 11.7235 41.1984C11.6433 40.52 12.1587 39.9136 12.8455 39.8608C13.534 39.8079 14.1411 40.2923 14.1947 40.9755ZM11.6688 39.4654C10.9858 39.5451 10.3744 39.0339 10.321 38.3507C10.2679 37.6681 10.7564 37.0657 11.4437 37.0133C12.1268 36.9326 12.739 37.4446 12.8191 38.123C12.873 38.8066 12.3573 39.4122 11.6688 39.4654ZM10.2935 36.6132C9.60607 36.6664 8.99927 36.1819 8.91892 35.5036C8.86576 34.8204 9.38087 34.2137 10.0647 34.1334C10.7525 34.0802 11.3637 34.5927 11.4173 35.2752C11.4704 35.9578 10.9814 36.5599 10.2935 36.6132ZM14.5628 29.6926L14.8612 30.8622C15.1028 31.8466 15.7004 32.8038 16.6 33.5464C17.7373 32.6488 18.4117 31.4639 18.5432 30.1992L18.6421 29.078L19.6467 29.6104C20.2858 29.9519 21.0349 30.1106 21.8988 30.1128C22.4306 28.7299 22.3637 27.4408 21.711 26.4931C21.0222 25.4964 19.6599 24.9914 18.0043 25.0866L16.9322 25.1728L17.2113 24.133C17.6532 22.5425 17.4286 21.1407 16.5629 20.2544C15.7871 19.4085 14.5146 19.1117 13.0476 19.3427C12.8736 20.1718 12.8855 20.944 13.0795 21.632L13.4186 22.7127L12.2849 22.5872C11.006 22.4288 9.71398 22.8814 8.60823 23.8022C9.2049 24.9249 10.0896 25.7525 11.1535 26.1379L12.4025 26.6324L11.2833 27.472C11.2335 27.5077 11.1828 27.5433 11.1604 27.5747C9.72666 28.713 8.81876 30.3482 8.59658 32.0981L8.62448 32.0935C10.4006 32.2284 12.1735 31.6453 13.5797 30.5111L13.629 30.4752L14.5628 29.6926ZM31.8167 38.8349C30.223 40.1921 28.1728 40.957 25.9724 41.3041C20.6745 42.1387 16.39 39.5513 15.0169 34.1C14.4828 33.548 14.0488 32.9253 13.7467 32.254C11.9248 33.3982 9.76859 33.8487 7.64994 33.4909L6.99465 33.4011L7.02745 32.7318C7.09876 30.5642 8.00072 28.5422 9.53666 27.0011C8.45198 26.3149 7.55628 25.2399 6.983 23.92L6.76953 23.4559L7.1566 23.0906C8.38249 21.8749 9.91263 21.1637 11.4557 21.059C11.3536 20.2453 11.464 19.3711 11.7156 18.5024L11.8404 18.0681L12.2711 17.9719C14.4461 17.4636 16.41 17.9008 17.6754 19.1941C18.2844 19.8726 18.6941 20.6929 18.8237 21.5022C20.0771 20.8069 21.3155 20.3627 22.6737 20.1487L22.7002 20.1446C23.2984 20.0502 23.8191 19.996 24.3715 19.964C24.1677 18.863 23.983 17.5369 23.8692 15.9517L26.4858 16.1196C26.4512 17.1207 26.3447 18.5473 26.5048 20.0707C27.4135 20.1761 28.2209 20.353 28.8393 20.5594L29.386 25.7263C29.2278 25.7789 29.0915 25.8002 28.956 25.8218C28.7391 25.856 28.5714 25.8552 28.3764 25.8578C27.8478 25.8584 26.2536 25.6387 25.141 22.6905C25.0286 22.6805 24.7711 22.6386 24.4675 22.6579C24.0239 22.673 23.5085 22.7542 23.1821 22.8055C21.8777 23.0113 20.94 23.767 20.7221 23.9673C21.669 24.3157 22.424 24.8601 22.9696 25.6593C23.9842 27.13 24.0239 29.1143 23.0939 31.1411L22.9099 31.5567L22.4668 31.5714C21.5345 31.6632 20.6538 31.5528 19.864 31.3185C19.706 31.8962 19.4341 32.4642 19.1 32.9867C19.7104 36.4572 21.6753 37.9446 23.5124 38.457C24.3288 38.6878 25.1649 38.6934 25.7358 38.6036C27.5474 38.2631 29.9607 37.3302 31.1867 36.1143L31.8167 38.8349Z" fill="#C6026C"/>
<path d="M37.0257 30.0729C37.3951 34.0691 39.9492 36.6056 43.0714 36.3221C46.1938 36.0386 48.241 33.0835 47.8724 29.0869C47.5034 25.09 44.9765 22.5508 41.8269 22.8375C38.7045 23.1212 36.6576 26.0765 37.0257 30.0729ZM32.9175 30.4466C32.3631 24.4387 35.9634 20.6561 41.5784 20.1456C47.1929 19.635 51.4539 22.7014 52.0078 28.7106C52.5632 34.7191 48.9619 38.5003 43.3203 39.0135C37.6501 39.5292 33.4729 36.4546 32.9175 30.4466Z" fill="#C6026C"/>
<path d="M54.8174 37.643L54.831 35.4303C55.1547 35.2563 55.862 34.9883 56.5481 34.9122L56.9087 21.9528C56.2205 21.9192 55.4977 21.6957 55.1624 21.5427L55.0097 19.3342L61.0312 19.1476L66.3332 30.1557L66.6071 30.9941L66.828 30.1674L71.7541 18.8141L77.3351 18.641L77.3225 20.8534C76.9975 21.0278 76.2906 21.2952 75.605 21.3717L76.7282 34.2846C77.417 34.3185 78.1398 34.5416 78.5019 34.6942C78.5254 35.4311 78.5759 36.1671 78.627 36.9032L71.2036 37.134C71.2081 36.3966 71.2121 35.6584 71.1884 34.9219C71.5411 34.7465 72.2485 34.4793 72.9335 34.4032L72.1931 24.8924L72.2095 23.6625L71.8337 24.8215L67.225 35.7553L65.2446 35.8173L60.0074 25.08L59.705 24.2152L59.7076 25.1712L59.5715 34.819C60.261 34.8518 60.9831 35.0753 61.3184 35.2284L61.4704 37.4368L54.8174 37.643Z" fill="#C6026C"/>
<path d="M81.4854 37.0194L81.6135 34.8104C81.9472 34.6535 82.6671 34.4216 83.3556 34.3819L83.6274 21.4434C81.2097 21.2841 81.7016 20.1199 81.8953 18.7312L95.2879 19.0079L95.1869 23.8123C94.8007 23.8858 94.4424 23.9055 94.14 23.8991C92.6825 23.8695 92.2332 22.9864 92.1803 21.6196L87.5324 21.5238L87.4278 26.4913L90.6177 26.5575C90.6762 26.3953 90.8577 25.6066 90.9161 25.4713L93.1142 25.5987L92.9276 27.9437L93.042 30.3488L90.8129 30.3853C90.7334 30.2195 90.6123 29.4522 90.5618 29.2327L87.3718 29.1673L87.2604 34.4628L92.3211 34.5669C92.4596 33.1772 92.9176 32.34 94.4027 32.371C94.7053 32.3772 95.0619 32.4111 95.4451 32.5019C95.4114 34.1393 95.377 35.7771 95.3423 37.4142L92.3198 37.2431L81.4854 37.0194Z" fill="#C6026C"/>
<path d="M98.2558 37.3586L97.7998 34.3454C97.7998 34.3454 100.704 33.3916 100.706 33.3646C101.395 32.9721 101.807 31.7687 101.993 31.0698C102.092 30.4192 102.175 29.6043 102.244 28.5962L102.696 21.9761C102.015 21.8483 101.726 21.6374 101.461 21.4828L101.529 19.2701L117.282 20.3291L117.076 22.5316C116.736 22.673 116.006 22.8705 115.316 22.8794L114.436 35.7917C115.119 35.8928 115.815 36.1853 116.134 36.371L116.065 38.5832L108.545 38.0782L108.779 35.8771C109.119 35.7355 109.849 35.5386 110.539 35.5303L111.419 22.617L106.04 22.2556L105.49 30.3197C105.126 35.6584 102.607 37.0215 98.2558 37.3586Z" fill="#C6026C"/>
<path d="M126.043 31.0611L125.336 36.9164C125.553 36.9432 127.678 37.2506 127.978 37.2869C129.695 37.5188 131.135 36.3705 131.343 34.6635C131.542 33.0096 130.44 31.5858 128.091 31.3059L126.043 31.0611ZM128.982 21.6503C128.894 22.382 128.779 23.1109 128.662 23.8392C128.314 23.9628 127.575 24.1217 126.885 24.0951L126.368 28.3779L128.088 28.5832C134.588 29.3574 135.746 32.603 135.442 35.124C135.062 38.2685 132.288 40.5782 128.056 40.074C126.718 39.914 124.656 39.558 123.699 39.4448C123.617 39.4349 123.535 39.4246 123.454 39.415L119.357 38.9273L119.706 36.741C120.053 36.6176 120.792 36.4579 121.481 36.4853L123.035 23.636C120.646 23.2414 121.25 22.1307 121.581 20.768L128.982 21.6503Z" fill="#C6026C"/>
<path d="M136.862 41.0911L137.324 38.9262C137.678 38.8211 138.424 38.6997 139.111 38.7621L141.335 26.0117C138.97 25.4941 139.631 24.4162 140.033 23.073L153.231 25.3412L152.405 30.0762C152.012 30.0915 151.655 30.0573 151.357 30.0064C149.92 29.7593 149.611 28.8196 149.763 27.4607L145.184 26.6732L144.329 31.5701L147.472 32.1093C147.556 31.9571 147.854 31.2052 147.932 31.0802L150.086 31.5336L149.546 33.824L149.296 36.2189L147.087 35.9221C147.034 35.7467 147.03 34.9699 147.013 34.7458L143.869 34.2047L142.959 39.4236L147.945 40.2805C148.293 38.9275 148.872 38.1684 150.335 38.4196C150.634 38.4716 150.981 38.5586 151.346 38.7044C151.065 40.3196 150.783 41.9323 150.502 43.5467L147.54 42.9261L136.862 41.0911Z" fill="#C6026C"/>
<path d="M31.2782 9.64058C30.9751 6.96139 32.6271 5.65522 34.7077 5.42346C35.5966 5.32379 36.4972 5.43051 37.1114 5.62341L37.2184 7.44181C37.1336 7.46195 37.0589 7.48088 36.9932 7.48813C36.2997 7.56625 36.0238 7.16093 35.8491 6.49426C35.5696 6.44935 35.228 6.43304 34.8596 6.47372C33.6028 6.61386 32.6957 7.71746 32.8943 9.47084C33.0754 11.0738 34.1862 11.9628 35.5408 11.8122C36.2236 11.736 37.1263 11.3738 37.6257 10.9371L37.8259 12.0256C37.2082 12.4863 36.3656 12.7982 35.5958 12.8846C33.2663 13.1443 31.539 11.9422 31.2782 9.64058Z" fill="#C6026C"/>
<path d="M40.28 8.6165C40.4266 10.2013 41.4398 11.2077 42.6776 11.0949C43.9152 10.982 44.727 9.80992 44.5803 8.22488C44.4345 6.63983 43.4318 5.63307 42.1837 5.74684C40.9451 5.85979 40.1335 7.03166 40.28 8.6165ZM38.6501 8.7647C38.4308 6.3817 39.8582 4.88203 42.0837 4.67927C44.3109 4.47651 46.0011 5.69227 46.2214 8.07527C46.441 10.4583 45.014 11.9581 42.7762 12.1625C40.5276 12.3673 38.8708 11.1479 38.6501 8.7647Z" fill="#C6026C"/>
<path d="M52.414 7.64208C52.5187 9.23034 53.5161 10.2615 54.746 10.1815C55.9988 10.1004 56.8304 8.94986 56.7252 7.36179C56.6201 5.77353 55.6553 4.73939 54.3928 4.82174C53.1508 4.90208 52.3084 6.05301 52.414 7.64208ZM50.8377 8.287L49.5318 8.37198L49.6657 10.3927C49.9389 10.3966 50.2288 10.4753 50.3629 10.5321L50.4539 11.4053L47.4705 11.5988L47.4451 10.722C47.5727 10.6489 47.8488 10.5329 48.1194 10.4936L47.7812 5.37103C47.508 5.3672 47.2287 5.28787 47.0944 5.23129L47.0039 4.35863L49.9651 4.16614C49.9835 4.45749 49.9927 4.74945 50.0012 5.04242C49.8744 5.11571 49.5981 5.23129 49.3273 5.27055L49.4604 7.29152L50.7667 7.20655C50.8602 5.13846 52.2747 3.88465 54.3332 3.75115C56.5645 3.60638 58.2108 4.86624 58.369 7.25407C58.5267 9.64291 57.0597 11.1057 54.8277 11.2507C52.7492 11.386 51.1917 10.3257 50.8377 8.287Z" fill="#C6026C"/>
<path d="M58.8867 4.48546C59.107 4.04289 60.1403 3.44568 61.2085 3.39957C62.5921 3.34037 64.0453 3.82986 64.1019 5.13865C64.1437 6.09084 63.449 6.68423 62.7386 6.93169C63.5534 7.08089 64.4346 7.74757 64.476 8.69936C64.5437 10.2467 62.8857 11.0121 61.828 11.0574C60.4221 11.1182 59.677 10.5762 59.1303 10.0569L59.9458 9.22046C60.2176 9.44677 60.8683 9.8527 61.5114 9.82491C62.2309 9.7937 62.9465 9.43771 62.9139 8.68023C62.8863 8.04194 62.3548 7.63138 61.0361 7.68837L60.5566 7.70931L60.5061 6.54066L60.8322 6.52636C61.7917 6.48468 62.5972 6.19011 62.5599 5.34584C62.5307 4.65379 61.7901 4.45768 61.1805 4.48446C60.744 4.50318 60.3385 4.71621 60.1162 4.88797C60.0261 5.3251 59.7943 5.75841 59.3042 5.77996C59.2166 5.78338 59.118 5.77653 59.052 5.76848L58.8867 4.48546Z" fill="#C6026C"/>
<path d="M69.9863 3.56923C70.5709 3.29982 71.4513 3.08095 72.3345 3.06746C74.4392 3.03363 76.245 4.12013 76.2886 6.81563C76.3253 9.13258 74.7545 10.5429 72.4211 10.5791C71.6468 10.591 70.7598 10.3888 70.089 10.0093L70.1476 8.90385C70.6985 9.27454 71.6405 9.51918 72.339 9.50871C73.4952 9.49059 74.3877 8.72927 74.5973 7.50264L71.7416 7.61197L71.7205 6.28104L74.6003 6.30077C74.3814 4.88567 73.4422 4.11066 72.3187 4.12778C71.9477 4.13362 71.6113 4.19281 71.3395 4.27315C71.2411 4.935 71.0182 5.34978 70.3531 5.36046C70.2766 5.36126 70.2001 5.35179 70.1129 5.34233L69.9863 3.56923Z" fill="#C6026C"/>
<path d="M80.4261 7.26018L79.6062 7.98284L79.6027 9.32505C79.8748 9.3478 80.1583 9.44586 80.2892 9.5111L80.3194 10.3876L77.3311 10.3795L77.3661 9.50284C77.4976 9.43821 77.7806 9.34176 78.054 9.32062L78.0684 4.18997C77.2834 4.15554 77.3384 3.84163 77.3398 3.43087C77.3398 3.33322 77.3511 3.23556 77.3635 3.12764L80.3287 3.1363C80.3172 3.42806 80.305 3.72042 80.304 4.01278C80.1626 4.06654 79.8894 4.17366 79.6171 4.1946L79.6107 6.54337L82.103 4.20145C81.8308 4.16782 81.6892 4.08184 81.5268 4.0158L81.5507 3.14012L84.2334 3.14677L84.1972 4.02345C84.0557 4.07681 83.8488 4.17366 83.641 4.1946L81.4645 6.26712L83.7143 9.23927L84.5092 9.52318L84.3431 10.4103C83.2958 10.4069 82.5998 10.1462 81.8931 9.20142L80.4261 7.26018Z" fill="#C6026C"/>
<path d="M85.2453 6.83626C85.3035 4.14137 87.1161 3.06554 89.2095 3.10964C90.1043 3.12776 90.9832 3.35368 91.5666 3.6251L91.4285 5.4415C91.3415 5.45056 91.2648 5.45921 91.2001 5.458C90.5011 5.4433 90.2814 5.00536 90.198 4.32117C89.9272 4.23982 89.5903 4.17861 89.2191 4.17016C87.9551 4.14418 86.9078 5.11752 86.8707 6.88177C86.8354 8.4952 87.8164 9.5233 89.1803 9.55169C89.867 9.56679 90.8104 9.32698 91.3642 8.95952L91.4161 10.0653C90.7429 10.4409 89.8657 10.6386 89.0915 10.6217C86.7466 10.5721 85.196 9.15322 85.2453 6.83626Z" fill="#C6026C"/>
<path d="M92.7314 10.5712L92.7996 9.69615C92.9327 9.63675 93.2199 9.54997 93.4944 9.5399L93.7031 4.41166C93.4325 4.37904 93.1635 4.27051 93.0357 4.20165L93.039 3.32396L100.625 3.62941L100.567 4.50469C100.433 4.56449 100.146 4.65047 99.8729 4.66073L99.6623 9.78877C99.9342 9.82138 100.213 9.93032 100.353 10.0012L100.339 10.8781L97.3523 10.7573L97.4211 9.8824C97.5545 9.8226 97.8416 9.73662 98.115 9.72615L98.3254 4.59851L95.2514 4.47408L95.0409 9.60231C95.3127 9.63534 95.5924 9.74386 95.7206 9.81373L95.7172 10.6912L92.7314 10.5712Z" fill="#C6026C"/>
<path d="M101.434 10.941L101.519 10.0678C101.654 10.0108 101.943 9.93005 102.216 9.92441L102.522 4.80202C101.567 4.70255 101.78 4.2485 101.878 3.70203L107.18 4.01412L107.066 5.91609C106.912 5.93925 106.769 5.94147 106.65 5.93482C106.073 5.90039 105.908 5.54339 105.908 5.00155L104.068 4.89303L103.951 6.85983L105.213 6.93433C105.239 6.87071 105.323 6.56163 105.349 6.50847L106.217 6.59224L106.107 7.51825L106.116 8.47287L105.231 8.45373C105.204 8.38668 105.167 8.08124 105.15 7.99345L103.887 7.91915L103.762 10.0156L105.765 10.1336C105.842 9.58513 106.036 9.26015 106.624 9.29498C106.743 9.30223 106.885 9.32076 107.035 9.36224C106.996 10.0108 106.958 10.6591 106.918 11.3075L105.723 11.1937L101.434 10.941Z" fill="#C6026C"/>
<path d="M110.947 5.35071L110.772 7.60625C110.772 7.60625 111.369 7.66283 111.5 7.67269C112.446 7.74478 112.964 7.26355 113.017 6.58358C113.074 5.84986 112.557 5.45178 111.873 5.39883L110.947 5.35071ZM110.698 8.5673L110.55 10.4667C110.82 10.5093 111.313 10.6449 111.438 10.7191L111.403 11.596L108.206 11.352L108.306 10.4799C108.443 10.4256 108.732 10.3501 109.006 10.3489L109.403 5.23251C108.449 5.11633 108.67 4.66651 108.778 4.12105L110.311 4.23763C110.311 4.23763 111.728 4.30287 112.044 4.32683C112.087 4.32965 112.13 4.33347 112.184 4.3373C113.881 4.46697 114.643 5.513 114.556 6.62506C114.481 7.59638 113.781 8.86752 111.9 8.72436C111.802 8.71651 111.704 8.70905 111.607 8.69093C111.487 8.68127 110.698 8.5673 110.698 8.5673Z" fill="#C6026C"/>
<path d="M115.244 6.69359L115.409 4.63255L121.879 5.24365L121.65 7.29885L120.763 7.28073C120.711 7.14542 120.699 6.46948 120.705 6.18719L119.312 6.08893L118.823 11.1749C119.093 11.2216 119.366 11.3454 119.491 11.4227L119.439 12.2992L116.465 12.0175L116.581 11.1477C116.717 11.0955 117.009 11.0253 117.282 11.0291L117.771 5.94274L116.383 5.79012C116.345 6.06899 116.222 6.66681 116.117 6.84158L115.244 6.69359Z" fill="#C6026C"/>
<path d="M123.875 9.10852C123.69 10.6897 124.474 11.8811 125.709 12.0233C126.944 12.1648 127.982 11.1831 128.166 9.60163C128.351 8.02041 127.578 6.83042 126.332 6.68726C125.096 6.54531 124.059 7.5271 123.875 9.10852ZM122.249 8.92187C122.526 6.5441 124.234 5.367 126.455 5.62191C128.678 5.87743 130.081 7.41213 129.802 9.7901C129.525 12.1673 127.818 13.3444 125.585 13.088C123.342 12.8299 121.972 11.2992 122.249 8.92187Z" fill="#C6026C"/>
<path d="M133.245 7.67192L132.969 9.65684L133.563 9.73819C134.266 9.83363 134.895 9.66812 135.004 8.87479C135.097 8.21013 134.674 7.84548 133.875 7.73635C133.69 7.71158 133.441 7.68823 133.245 7.67192ZM132.822 10.719L132.54 12.746C132.627 12.7581 133.381 12.8823 133.499 12.8992C134.18 12.9924 134.729 12.7609 134.825 12.0747C134.916 11.4205 134.475 10.9443 133.546 10.8176L132.822 10.719ZM130.156 13.5027L130.309 12.6377C130.448 12.5909 130.742 12.5332 131.015 12.5483L131.721 7.46351C130.948 7.32478 131.044 7.02155 131.101 6.61381C131.114 6.51777 131.139 6.42253 131.164 6.31661L132.407 6.48655C132.645 6.51897 133.764 6.6277 134.326 6.70522C135.709 6.89429 136.821 7.76715 136.659 8.93701C136.499 10.0843 135.668 10.3644 134.983 10.3797L134.971 10.4659C135.929 10.7832 136.586 11.3645 136.448 12.3622C136.285 13.5313 135.186 14.2332 133.511 14.0046C132.982 13.9322 132.242 13.7874 131.874 13.737L130.156 13.5027Z" fill="#C6026C"/>
<path d="M159.258 8.75019C159.108 8.75019 158.997 8.77713 158.93 8.82764C158.461 9.18198 158.802 11.4608 160.327 15.0193C162.793 14.8928 164.628 14.2935 164.845 13.5259C165.062 12.7565 163.932 11.2617 162.218 10.049C160.915 9.12621 159.818 8.75019 159.258 8.75019ZM159.62 16.1747L159.469 15.8301C157.537 11.4412 157.134 8.78018 158.271 7.92044C159.299 7.1437 161.31 8.03125 162.849 9.12108C165.546 11.0299 166.198 12.8089 165.908 13.838C165.681 14.6443 164.61 16.0189 159.99 16.163L159.62 16.1747Z" fill="#80BA27"/>
<path d="M160.542 6.12559C159.725 6.12559 158.455 6.52689 157.099 7.40706C154.63 9.00984 153.96 10.7141 154.137 11.6864C154.425 13.2726 156.764 14.6627 159.651 14.9993C161.85 10.4896 162.215 6.99317 161.269 6.30284C161.11 6.18619 160.86 6.12559 160.542 6.12559ZM160.297 16.1924L159.928 16.1616C156.278 15.855 153.45 14.0993 153.049 11.8921C152.667 9.78558 154.583 7.70197 156.505 6.45424C158.316 5.27874 160.691 4.49241 161.913 5.38459C163.303 6.39914 163.395 10.0306 160.466 15.8565L160.297 16.1924Z" fill="#80BA27"/>
<path d="M155.986 12.3273C155.932 12.3273 155.885 12.3359 155.846 12.3531C155.572 12.4729 155.181 13.2635 155.156 14.4355C155.137 15.3352 155.376 16.5148 156.113 16.8777C156.875 17.2527 158.264 16.8419 159.305 15.5594C157.935 13.2883 156.557 12.3273 155.986 12.3273ZM156.727 18.1371C156.338 18.1371 155.966 18.0589 155.632 17.8947C154.606 17.3891 154.015 16.0869 154.05 14.4111C154.075 13.2475 154.446 11.7387 155.408 11.3159C156.706 10.747 158.781 12.3906 160.452 15.3145L160.632 15.6301L160.424 15.9273C159.456 17.3071 157.997 18.1371 156.727 18.1371Z" fill="#80BA27"/>
<path d="M160.685 15.6829C161.719 17.1243 163.642 17.6667 165.163 16.8821C166.764 16.0552 166.997 14.2273 167.03 13.6868C167.096 12.6287 166.8 11.9284 166.569 11.7692C166.033 11.399 163.972 12.4774 160.685 15.6829ZM163.674 18.3677C162.02 18.3677 160.373 17.4553 159.493 15.8782L159.281 15.4989L159.588 15.1943C163.373 11.4338 165.93 9.96666 167.188 10.8334C167.845 11.286 168.216 12.4338 168.135 13.7576C168.021 15.6043 167.097 17.149 165.662 17.8896C165.033 18.214 164.353 18.3677 163.674 18.3677Z" fill="#80BA27"/>
<path d="M158.225 26.1059C157.68 24.363 157.553 22.8034 157.734 20.9915C157.935 18.9912 158.596 17.0281 159.647 15.3146L160.585 15.9135C159.624 17.4812 159.019 19.2768 158.836 21.1061C158.67 22.763 158.864 24.4801 159.363 26.0744L158.225 26.1059Z" fill="#80BA27"/>
</svg>
