<svg width="120" height="120" viewBox="0 0 120 120" fill="none" xmlns="http://www.w3.org/2000/svg">
<path fill-rule="evenodd" clip-rule="evenodd" d="M120 60C120 93.1371 93.1371 120 60 120C26.86 120 0 93.1371 0 60C0 26.8629 26.86 0 60 0C93.1371 0 120 26.8629 120 60Z" fill="#781D14"/>
<path fill-rule="evenodd" clip-rule="evenodd" d="M66.8208 38.7683C66.8208 38.7683 65.3837 37.374 62.5865 37.8912L62.1094 38.7026L62.2922 39.514L62.9179 38.5054C62.9179 38.5054 63.1522 38.4312 63.5294 38.3826C63.4151 38.5969 63.3265 38.8369 63.3179 39.1169C63.3094 39.4569 63.4008 39.7597 63.5437 40.014C62.9694 40.0769 62.5522 40.154 62.5522 40.154C63.2008 40.7626 66.5837 40.1854 66.5837 40.1854C66.2922 40.0197 65.8379 39.9483 65.3408 39.9283C65.4465 39.7254 65.5237 39.5026 65.5322 39.2426C65.5351 39.1883 65.5208 39.1397 65.5179 39.0854C65.3094 39.1654 65.0579 38.9426 64.9494 38.5654C64.9322 38.5112 64.9265 38.4569 64.9208 38.4026C65.5351 38.4912 66.2351 38.694 66.9722 39.134L66.8208 38.7683Z" fill="white"/>
<path fill-rule="evenodd" clip-rule="evenodd" d="M58.5336 39.4882L58.7164 38.6739L58.2364 37.8653C55.4364 37.3596 54.005 38.7596 54.005 38.7596L53.8564 39.1282C54.5307 38.7196 55.1764 38.5168 55.7564 38.4139C55.6907 38.4339 55.625 38.4482 55.5564 38.4711C55.4622 38.6968 55.3936 38.9425 55.4022 39.2196C55.4136 39.4825 55.4964 39.7053 55.5993 39.9082C55.1079 39.9282 54.6593 39.9996 54.3736 40.1682C54.3736 40.1682 57.6336 40.7396 58.2564 40.1282C58.2564 40.1282 57.8936 40.0625 57.3879 40.0025C57.5336 39.7425 57.6307 39.4311 57.6193 39.0853C57.4136 39.1796 57.1564 38.9911 57.025 38.6339C56.985 38.5311 56.9736 38.4311 56.965 38.3311C57.5593 38.3625 57.945 38.4796 57.945 38.4796L58.5336 39.4882Z" fill="white"/>
<path fill-rule="evenodd" clip-rule="evenodd" d="M67.7292 36.7915C65.7378 35.4572 62.4664 35.5144 62.4664 35.5144L62.1035 36.7801C64.7378 36.2572 67.8692 37.5401 67.8692 37.5401L67.7292 36.7915Z" fill="white"/>
<path fill-rule="evenodd" clip-rule="evenodd" d="M58.3666 35.5063C58.3666 35.5063 55.0952 35.4349 53.098 36.7606L52.958 37.5092C52.958 37.5092 56.0923 36.2406 58.7266 36.772L58.3666 35.5063Z" fill="white"/>
<path fill-rule="evenodd" clip-rule="evenodd" d="M62.9635 25.2064V25.2093C62.9949 25.2064 62.9578 25.2064 62.9635 25.2064Z" fill="white"/>
<path fill-rule="evenodd" clip-rule="evenodd" d="M56.8203 48.0592C56.8203 48.0592 57.8775 49.065 60.2889 49.0707C62.7032 49.0792 63.8432 48.0792 63.8432 48.0792L64.3432 48.6021C64.3432 48.6021 63.8146 48.865 63.4432 49.385C63.0718 49.9078 62.3889 50.6478 60.2889 50.6421C58.186 50.6364 57.4432 49.6307 57.0746 49.1078C56.7032 48.5821 56.3003 48.5364 56.3003 48.5364C56.3003 48.5364 56.8203 47.9735 56.8203 48.0592ZM55.4129 60.6336C57.6129 60.7965 58.5672 60.3851 60.2415 60.2908H60.3386C62.0129 60.3936 62.9644 60.8079 65.1672 60.6565C70.8843 60.4879 75.6472 54.9965 71.6272 44.2393C71.5529 44.0479 71.4415 43.7422 71.3186 43.3622C72.8472 43.0193 71.0129 41.0451 71.7215 38.8393C72.4101 36.7108 71.7158 36.3251 71.0044 36.3793C70.9558 36.3765 70.9129 36.3736 70.8643 36.3765C71.0386 34.7908 71.2929 33.5736 71.2958 32.6708C71.3272 26.4451 67.8386 24.9822 63.7101 25.2079C64.9529 27.5679 63.0901 32.3393 66.6329 33.4993C67.9044 33.9193 68.9015 35.1393 68.8501 37.2108C68.7815 40.0193 70.1701 41.8308 69.9443 44.0108C69.8501 44.9136 69.6758 45.8336 69.4129 46.6822C68.4586 47.4993 67.1529 48.3451 65.9158 47.2165C64.2501 45.7022 62.7872 45.3022 61.7701 45.2565C62.0529 45.1479 62.3644 45.0565 62.8844 45.0565C64.1158 45.0593 63.7986 43.3365 63.7986 43.3365L63.0844 42.9965C63.2815 43.9765 63.0815 44.2393 62.6501 44.1251C62.2186 44.0108 62.2158 43.8622 62.1786 43.5593C62.1386 43.2565 61.6529 41.9365 61.7272 42.6936C61.8015 43.4451 61.7244 43.9365 61.4986 44.3879C61.2701 44.8393 60.3644 44.8365 60.3644 44.8365C59.6872 44.8365 58.9729 44.6451 58.7072 44.3079C58.4444 43.9651 58.3329 43.9279 57.9015 44.0393C57.4701 44.1536 57.6044 42.8708 57.6044 42.8708L56.9072 43.3222C56.9072 43.3222 56.5844 45.0422 57.8158 45.0451C58.3301 45.0451 58.6444 45.1393 58.9215 45.2479C57.9072 45.2736 56.4158 45.6565 54.7101 47.1936C53.4729 48.3079 52.1758 47.4765 51.2301 46.6593C50.9672 45.8051 50.7958 44.8793 50.7044 43.9708C50.4872 41.7908 51.8958 39.9822 51.8272 37.1736C51.7558 34.1222 57.4072 34.2193 59.7301 33.6822C63.2986 32.6222 63.8443 27.7108 62.9615 25.2108C62.9586 25.2108 62.9615 25.2108 62.9615 25.2108C62.0329 22.7222 59.0758 19.5365 52.5929 21.4679C52.5929 21.4679 54.7272 23.3222 51.6244 26.6022C50.2244 27.7165 49.4044 29.5936 49.3986 32.6251C49.3958 33.5279 49.6472 34.7451 49.8158 36.3308C49.7472 36.3308 49.6815 36.3308 49.6158 36.3365C48.9044 36.2765 48.1958 36.6508 48.8786 38.7936C49.5901 41.0336 47.6758 43.0251 49.3272 43.3336C49.2072 43.7022 49.0929 44.0051 49.0244 44.1908C44.9558 54.9336 49.6986 60.4422 55.4129 60.6336Z" fill="white"/>
<path fill-rule="evenodd" clip-rule="evenodd" d="M59.7727 90.7876C57.787 90.7876 56.1756 89.1762 56.1756 87.1876C56.1756 85.1991 57.7899 83.5905 59.7756 83.5905C61.7613 83.5905 63.3727 85.2019 63.3727 87.1905C63.3727 89.1791 61.7584 90.7876 59.7727 90.7876ZM67.4762 107.751L89.2334 107.754L89.0591 100.837C88.3562 100.368 85.8934 99.6027 84.4248 99.4856L82.8505 69.5713C84.3191 69.4542 86.7819 68.6913 87.4848 68.2227C87.5448 65.9342 87.6019 63.6485 87.7219 61.3027L70.4962 61.297L60.6991 76.457L59.7134 78.217L58.5819 76.397L50.0819 61.2913L32.2105 61.2885C32.2677 63.6342 32.3277 65.9199 32.4419 68.2085C33.0848 68.677 35.6077 69.4399 37.0762 69.557L35.6591 99.4742C34.1905 99.5913 31.7277 100.351 31.0219 100.82L30.8477 107.74L51.8191 107.746C51.7019 105.4 51.6419 103.111 51.5848 100.826C50.8819 100.357 48.4191 99.5942 46.9534 99.477L47.5448 85.477L48.0134 86.2027L59.6991 102.843L71.2362 86.4427L71.9962 85.2513L71.8791 87.5942L72.2877 99.4827C70.8191 99.5999 68.3591 100.363 67.6534 100.831L67.4762 107.751Z" fill="white"/>
<path fill-rule="evenodd" clip-rule="evenodd" d="M27.4153 28.0011L26.8153 27.2268C26.881 27.0782 27.2381 26.6382 27.4524 26.4268L23.7781 22.0382C23.5324 22.2125 23.0439 22.4782 22.8867 22.5182L22.2324 21.7897L29.0438 16.084L29.6524 16.8497C29.5896 16.9954 29.2353 17.4382 29.0181 17.6497L32.6924 22.0382C32.941 21.864 33.4353 21.5897 33.601 21.544L34.2496 22.2782L31.341 24.7125L30.741 23.9411C30.8067 23.7897 31.1638 23.3525 31.3781 23.1382L27.7039 18.7497L25.0924 20.9354L28.7667 25.324C29.0153 25.1497 29.5096 24.8754 29.6667 24.8382L30.3238 25.564L27.4153 28.0011Z" fill="white"/>
<path fill-rule="evenodd" clip-rule="evenodd" d="M34.1154 14.4715L35.3412 16.6773C35.3412 16.6773 35.9297 16.3658 36.0554 16.2973C36.9726 15.7858 37.1526 15.0201 36.7869 14.3544C36.3869 13.6373 35.6669 13.583 35.0012 13.9515L34.1154 14.4715ZM35.8694 17.6169L36.9037 19.474C37.1751 19.3512 37.9266 19.0569 38.0894 19.0512L38.5951 19.8883L35.0694 21.8483L34.6266 20.974C34.718 20.8397 35.1494 20.4769 35.4037 20.3083L32.6237 15.3054C31.6694 15.7797 31.3866 15.3426 31.1494 14.7683L32.8494 13.8226C32.8494 13.8226 34.1951 13.0197 34.5037 12.8483C34.5466 12.8254 34.5866 12.8026 34.6408 12.774C36.2894 11.8569 37.6323 12.3683 38.238 13.454C38.7666 14.4054 38.9008 16.014 37.0751 17.0312C36.9808 17.0826 36.8866 17.134 36.7866 17.1769C36.6694 17.2426 35.8694 17.6169 35.8694 17.6169Z" fill="white"/>
<path fill-rule="evenodd" clip-rule="evenodd" d="M41.9324 13.8398C42.501 15.5198 43.8525 16.3513 45.1553 15.9113C46.461 15.4713 47.0296 13.9913 46.4639 12.3112C45.8953 10.6284 44.5553 9.79411 43.241 10.237C41.9353 10.6798 41.3667 12.157 41.9324 13.8398ZM40.2128 14.4195C39.3613 11.8909 40.5099 9.89663 42.8556 9.10521C45.2013 8.31378 47.3356 9.19949 48.187 11.7252C49.0385 14.2566 47.8928 16.2481 45.5385 17.0452C43.1699 17.8424 41.067 16.9452 40.2128 14.4195Z" fill="white"/>
<path fill-rule="evenodd" clip-rule="evenodd" d="M53.2202 10.9604C53.3917 12.3175 53.1488 13.2346 52.6088 13.9089L55.5859 13.5432L54.8888 7.85749L52.8717 8.10321L53.2202 10.9604ZM57.4671 6.34555L57.5642 7.31984C57.4157 7.41126 56.8871 7.58555 56.5928 7.64555L57.29 13.3341L58.4557 13.1913L58.7528 15.897L57.7928 16.0141C57.6985 15.8798 57.4757 14.8456 57.4128 14.5141L51.3871 15.2541C51.4071 15.6056 51.4614 16.657 51.41 16.8084L50.4357 16.917L50.0557 14.2227L50.6071 14.157C52.23 13.6027 52.0614 11.7113 51.9585 10.8713L51.6357 8.25412C51.3328 8.26841 50.7814 8.22555 50.6157 8.17412L50.4699 7.20555L57.4671 6.34555Z" fill="white"/>
<path fill-rule="evenodd" clip-rule="evenodd" d="M59.7196 6.2458L63.5196 6.5058L63.4282 7.48009C63.2653 7.54295 62.7282 7.61438 62.4225 7.61723L63.9253 10.8344L65.4882 7.82866C65.1882 7.78295 64.6625 7.63723 64.5253 7.55438L64.6168 6.58009L67.8739 6.80295L67.7682 7.77723C67.6196 7.84009 67.1768 7.92009 66.8739 7.92295L64.3482 12.4372C63.391 14.0201 62.7968 14.5487 61.4196 14.6744L60.6396 13.1429C60.7339 13.0144 61.0453 12.9029 61.3568 12.9229C61.5996 12.9401 61.8453 13.0429 61.9739 13.2944C62.3482 13.1858 62.7139 12.9315 63.4168 11.7201L63.4568 11.6515L62.6253 11.5944L60.6882 7.50009C60.3882 7.45438 59.8168 7.3058 59.6768 7.22295L59.7196 6.2458Z" fill="white"/>
<path fill-rule="evenodd" clip-rule="evenodd" d="M72.3667 12.6215L71.281 13.17L70.8924 14.6157C71.1781 14.7186 71.6895 14.9672 71.8095 15.0757L71.5924 16.03L67.9238 15.05L68.2124 14.1129C68.3753 14.0815 68.9381 14.1186 69.2353 14.1729L70.7181 8.6386C69.8867 8.38145 69.8038 7.99288 69.921 7.55003C69.9467 7.44431 69.9867 7.34145 70.0324 7.23003L73.6724 8.20431C73.5781 8.51574 73.481 8.83003 73.3981 9.14431C73.2295 9.16146 72.6724 9.1386 72.3753 9.08431L71.6981 11.6157L75.0381 9.79574C74.7553 9.68431 74.3953 9.48717 74.2353 9.37003L74.5153 8.43003L77.8524 9.32431L77.5638 10.2586C77.3981 10.2786 76.9153 10.2615 76.6867 10.2243L73.761 11.8443L75.4838 16.0729L76.2524 16.6043L75.8238 17.5129C74.7038 17.2129 74.0267 16.6957 73.5438 15.5157L72.3667 12.6215Z" fill="white"/>
<path fill-rule="evenodd" clip-rule="evenodd" d="M78.8199 12.3159L79.837 10.1102L86.337 13.2188L85.257 15.3959L84.3427 15.0388C84.3399 14.8759 84.637 14.053 84.7513 13.7588L83.3399 13.1245L80.877 18.273C81.1399 18.4273 81.5942 18.7645 81.6942 18.893L81.3027 19.7902L77.8799 18.153L78.3342 17.2845C78.497 17.2816 79.0456 17.4245 79.3285 17.533L81.7913 12.3845L80.4056 11.693C80.257 11.973 79.8485 12.6616 79.6742 12.8045L78.8199 12.3159Z" fill="white"/>
<path fill-rule="evenodd" clip-rule="evenodd" d="M89.0414 24.991L89.6671 24.2396C89.8242 24.271 90.3299 24.5224 90.5842 24.6882L94.0814 20.1596C93.8556 19.9567 93.4928 19.5396 93.4214 19.3939L93.9871 18.5967L96.9699 20.8967C96.7614 21.1482 96.5499 21.3996 96.3528 21.6567C96.1842 21.6167 95.6871 21.371 95.4328 21.2082L91.9414 25.7339C92.1671 25.9396 92.5385 26.3624 92.6099 26.5082L92.0385 27.3053L89.0414 24.991ZM87.9794 19.3738L86.3851 21.4366C86.4651 21.4938 87.1937 22.0881 87.2994 22.1709C87.8937 22.6424 88.6965 22.5309 89.1594 21.9281C89.608 21.3481 89.5165 20.5595 88.6965 19.9252L87.9794 19.3738ZM91.4073 16.6056C91.2102 16.8656 91.0016 17.1171 90.7902 17.3685C90.633 17.3371 90.1244 17.0828 89.873 16.9171L88.7102 18.4256L89.3102 18.8914C91.5844 20.6456 91.2844 22.1371 90.5987 23.0257C89.7444 24.1342 88.1759 24.3885 86.6987 23.2456C86.2302 22.8856 85.5302 22.2856 85.1987 22.0285C85.1702 22.0056 85.1416 21.9828 85.113 21.9599L83.4873 20.7085L84.113 19.9571C84.273 19.9885 84.7787 20.2399 85.033 20.4056L88.5244 15.8799C87.713 15.1914 88.0044 14.7571 88.4359 14.3171L91.4073 16.6056Z" fill="white"/>
</svg>
