<svg width="120" height="120" viewBox="0 0 120 120" fill="none" xmlns="http://www.w3.org/2000/svg">
<path fill-rule="evenodd" clip-rule="evenodd" d="M120 60C120 93.1371 93.1371 120 60 120C26.86 120 0 93.1371 0 60C0 26.8629 26.86 0 60 0C93.1371 0 120 26.8629 120 60Z" fill="#EC174B"/>
<path fill-rule="evenodd" clip-rule="evenodd" d="M67.9375 97.0445C68.946 97.6977 70.6432 99.0883 70.6946 101.039C70.7432 102.915 69.2146 104.811 66.6061 106.111C64.7803 107.023 62.6061 107.534 60.3232 107.598C54.1032 107.781 49.6975 104.581 49.6204 101.614C49.5661 99.6603 51.1918 98.1825 52.1632 97.4742C53.5004 96.4987 55.2289 95.7903 57.1175 95.3984L57.1118 100.163C57.1118 101.649 58.2232 102.337 59.6146 102.592C59.7861 102.624 59.9632 102.642 60.1432 102.642C61.7946 102.642 63.0746 101.841 63.0775 100.168L63.0803 95.2735C64.9089 95.5726 66.5975 96.1764 67.9375 97.0445ZM44.5585 57.8457C44.5671 56.5392 44.6242 55.3054 44.7157 54.1238C48.3385 57.7499 54.0128 60.0782 60.3899 60.0782C60.6271 60.0782 60.8699 60.0753 61.1071 60.0695C64.9813 59.9621 68.7156 59.0215 71.907 57.3463C73.1699 56.6815 74.3099 55.915 75.3299 55.0731C75.3699 55.9325 75.3899 56.815 75.387 57.7382C75.2927 75.1168 68.6185 80.8071 60.1471 80.8825C60.1385 80.8825 60.1271 80.8796 60.1156 80.8796C60.0899 80.8796 60.0642 80.8884 60.0385 80.8884C51.5299 80.9145 44.4642 75.1603 44.5585 57.8457ZM60.4513 35.1947C60.6456 35.1889 60.8399 35.186 61.0313 35.186C64.7656 35.186 68.2456 36.1731 70.8913 37.9876C73.3627 39.6859 74.7627 41.8982 74.8227 44.2178C74.9027 47.1646 72.7856 50.0591 69.1656 51.9636C66.7713 53.2206 63.9284 53.929 60.9485 54.0103C53.2799 54.2223 46.7113 50.0852 46.5742 44.9872C46.4428 39.8863 52.797 35.4037 60.4513 35.1947ZM83.4362 57.6132C83.5534 35.906 73.6191 28.8251 60.0334 28.8744C46.382 28.9209 36.8535 35.8102 36.7335 57.7758C36.6249 77.6801 44.9249 85.4201 57.1277 86.4013L57.1249 89.2465C53.9506 89.7197 51.022 90.849 48.6906 92.5503C45.3992 94.9425 43.5677 98.3074 43.6592 101.777C43.8363 108.53 50.8906 113.665 59.842 113.665C60.0534 113.665 60.2677 113.662 60.4849 113.657C63.6163 113.569 66.642 112.841 69.2334 111.555C73.9963 109.18 76.7734 105.191 76.6591 100.877C76.5677 97.4074 74.5563 94.15 71.1477 91.9377C68.8648 90.4542 66.0791 89.5078 63.0906 89.1536L63.0934 86.3839C75.1134 85.3939 83.322 78.313 83.4362 57.6132Z" fill="#FEFEFE"/>
<path fill-rule="evenodd" clip-rule="evenodd" d="M53.2767 47.4239C55.0939 47.4674 56.5996 46.0042 56.6424 44.1578C56.6824 42.3142 55.2453 40.7814 53.431 40.7407C51.6139 40.6972 50.1082 42.1604 50.0625 44.0039C50.0196 45.8503 51.4596 47.3803 53.2767 47.4239Z" fill="#FEFEFE"/>
<path fill-rule="evenodd" clip-rule="evenodd" d="M17.5982 29.6531C17.0382 30.3121 16.6496 30.2366 16.2982 29.955C16.2153 29.8853 16.1267 29.7982 16.041 29.714L20.0382 24.5957L21.6781 25.9166L21.0496 26.6831C20.901 26.6105 20.5896 26.4218 20.2753 26.2302L18.6667 28.2886L23.1524 31.9088C23.3524 31.694 23.9353 31.1453 24.0753 31.0669L24.861 31.6563L22.3667 34.8498L21.621 34.2024C21.6553 34.0398 21.9181 33.5288 22.0839 33.2733L17.5982 29.6531Z" fill="#FEFEFE"/>
<path fill-rule="evenodd" clip-rule="evenodd" d="M24.529 22.874L25.629 25.5391L27.2319 24.0149L24.7033 22.7056L24.3033 22.4152L24.2662 22.4501L24.529 22.874ZM25.7578 30.2597L25.1178 29.5107C25.1721 29.3713 25.3863 29.0491 25.5635 28.811L23.2264 22.935L23.0064 23.144C22.6921 23.324 22.3349 23.2775 22.0806 23.0162C22.0035 22.9379 21.9406 22.8653 21.8721 22.7579L24.0606 20.4266L30.7235 23.8901C30.9606 23.6956 31.3435 23.4808 31.5063 23.4285C31.732 23.6695 31.9635 23.9017 32.1949 24.1369L29.4435 26.7527C29.2206 26.5117 29.0035 26.262 28.7921 26.0123C28.8492 25.8585 29.1892 25.3824 29.3921 25.1559L28.3349 24.5985L26.1321 26.6946L26.3463 27.1969C26.4235 27.4088 26.5006 27.6207 26.5892 27.821C26.8263 27.6294 27.3235 27.3072 27.4863 27.252C27.7092 27.4959 27.9406 27.7281 28.1721 27.9604L25.7578 30.2597Z" fill="#FEFEFE"/>
<path fill-rule="evenodd" clip-rule="evenodd" d="M30.6408 16.8437C30.3694 16.983 29.8494 17.1775 29.6894 17.1921L29.1494 16.3617L35.4637 12.4279L35.9551 13.2872C35.8694 13.4266 35.4551 13.8156 35.2094 13.9985L38.2008 18.9514C38.4694 18.812 39.0008 18.6117 39.158 18.5972L39.7037 19.4246L36.4694 21.4394L35.9923 20.5743C36.0751 20.432 36.4923 20.0459 36.738 19.863L33.7494 14.9072L31.698 16.1817L33.578 19.2969C34.8037 21.2827 34.338 22.6414 33.4351 23.7039L31.8751 23.0652C31.8666 22.8852 32.0323 22.5078 32.3323 22.322C32.4923 22.2175 32.6808 22.1739 32.9094 22.2465C33.0951 21.901 33.3065 21.2827 32.5894 20.0749L30.6408 16.8437Z" fill="#FEFEFE"/>
<path fill-rule="evenodd" clip-rule="evenodd" d="M40.6008 19.0523L40.2808 18.1116C40.3922 17.9897 40.8694 17.682 41.1408 17.5484L39.0751 12.1252C38.0665 12.4678 37.8437 11.9888 37.6865 11.3791L43.3979 9.13203L44.1665 11.1469C44.0237 11.2427 43.8808 11.3094 43.7551 11.3617C43.1608 11.5969 42.8265 11.3065 42.5751 10.7462L40.6722 11.4952L41.4694 13.5768L42.7751 13.063C42.7694 12.9875 42.7122 12.6275 42.7122 12.5607L43.6294 12.2414L43.9465 13.2459L44.3951 14.2271L43.5008 14.622C43.4379 14.5668 43.2608 14.2678 43.2008 14.1865L41.8951 14.6975L42.7408 16.9213L44.8151 16.1026C44.6351 15.5017 44.6837 15.0778 45.2894 14.8368C45.4151 14.7875 45.5636 14.7439 45.7351 14.7149L46.5208 16.7762L45.2665 17.2174L40.6008 19.0523Z" fill="#FEFEFE"/>
<path fill-rule="evenodd" clip-rule="evenodd" d="M48.8787 8.96077L49.3901 11.472C49.3901 11.472 50.0415 11.3472 50.1844 11.3182C51.2101 11.1004 51.6158 10.4153 51.4615 9.65754C51.2958 8.84174 50.6215 8.56884 49.8787 8.72561L48.8787 8.96077ZM49.6055 12.5405L50.0341 14.6541C50.337 14.6163 51.1398 14.5612 51.2969 14.6047L51.5312 15.5686L47.5798 16.4018L47.417 15.4205C47.5427 15.3189 48.0684 15.0953 48.357 15.0083L47.197 9.31508C46.1455 9.48636 46.0055 8.9754 45.9541 8.34831L47.857 7.94767C47.857 7.94767 49.3827 7.57606 49.7255 7.50638C49.7712 7.49477 49.8198 7.48606 49.8827 7.47154C51.7227 7.08542 52.8569 7.98541 53.1084 9.22217C53.3312 10.3051 52.9769 11.9076 50.9312 12.3373C50.8284 12.3605 50.7227 12.3838 50.6084 12.3925C50.4827 12.4186 49.6055 12.5405 49.6055 12.5405Z" fill="#FEFEFE"/>
<path fill-rule="evenodd" clip-rule="evenodd" d="M54.9311 14.9469V13.954C55.0711 13.8727 55.6225 13.7391 55.9225 13.7043L55.7025 7.89498C54.634 7.88918 54.5797 7.3637 54.6311 6.73661L60.7425 6.49274L60.8254 8.64981C60.6568 8.69336 60.4997 8.71078 60.3682 8.71659C59.7311 8.74272 59.5111 8.35659 59.4482 7.74692L57.4111 7.82821L57.4968 10.0579L58.8968 10.0027C58.9197 9.92722 58.9768 9.57013 58.9997 9.50626H59.9654L59.9454 10.563L60.0597 11.6372L59.0825 11.7127C59.0425 11.6401 58.9711 11.3004 58.9425 11.2017L57.5425 11.2569L57.6368 13.6346L59.854 13.5475C59.8768 12.9204 60.0568 12.5343 60.7082 12.5082C60.8397 12.5024 60.9968 12.5082 61.1711 12.5372L61.2539 14.7436L59.9254 14.7465L54.9311 14.9469Z" fill="#FEFEFE"/>
<path fill-rule="evenodd" clip-rule="evenodd" d="M67.0616 10.9283L67.133 11.9879L66.5644 11.9502L64.9787 13.9795C64.2044 14.9898 63.5101 15.0973 62.3702 14.9434L62.333 13.9128L63.2616 13.7124C63.2844 13.7037 64.2673 12.4118 64.913 11.5583C63.8187 10.9689 63.5787 9.81053 63.6873 8.95699C63.8501 7.6941 64.9644 6.70411 66.9616 6.9683C66.9616 6.9683 68.0359 7.1483 68.5587 7.22959L70.7616 7.52281C70.7558 8.1499 70.653 8.66958 69.593 8.57958L68.8501 14.3424C69.1473 14.4092 69.6844 14.5921 69.8187 14.6821L69.7301 15.6721L65.9701 15.1727L66.133 14.1944C66.2873 14.1392 66.8501 14.1044 67.153 14.1189L67.893 8.35313L66.9873 8.20797C66.2216 8.10636 65.473 8.40248 65.3644 9.26763C65.2359 10.2547 65.7444 10.7657 66.6787 10.8876L67.0616 10.9283Z" fill="#FEFEFE"/>
<path fill-rule="evenodd" clip-rule="evenodd" d="M81.4648 12.4279L80.5191 14.4833L81.1219 14.7708C81.8333 15.1046 82.5533 15.1366 82.9305 14.3121C83.2476 13.624 82.9191 13.0898 82.1105 12.7066C81.9248 12.6166 81.6676 12.5092 81.4648 12.4279ZM80.017 15.5837L79.0512 17.6857C79.1398 17.7263 79.897 18.1124 80.0141 18.1705C80.7055 18.4957 81.3627 18.426 81.6884 17.7176C81.9998 17.0382 81.6912 16.3763 80.7484 15.9321L80.017 15.5837ZM76.0625 17.6101L76.5111 16.7247C76.6739 16.7218 77.2225 16.8582 77.5054 16.9656L79.9225 11.6963C79.1482 11.2899 79.1339 10.8892 79.3282 10.4683C79.3739 10.3696 79.4311 10.2738 79.4939 10.1692L80.9682 10.866C81.2082 10.9792 82.3568 11.4699 82.9282 11.7399C84.3282 12.4047 85.2139 13.7169 84.6596 14.9276C84.1139 16.1179 83.1425 16.144 82.4139 15.935L82.3711 16.025C83.2825 16.684 83.7853 17.5317 83.3111 18.5653C82.7511 19.7788 81.3596 20.1708 79.6625 19.3695C79.1282 19.114 78.3939 18.7134 78.0225 18.5363L76.0625 17.6101Z" fill="#FEFEFE"/>
<path fill-rule="evenodd" clip-rule="evenodd" d="M83.0752 20.8982L83.6809 20.1173C83.8409 20.1434 84.3523 20.3873 84.6123 20.547L87.9809 15.8467C87.7495 15.6464 87.3752 15.2312 87.3009 15.086L87.8466 14.2615L90.8895 16.5144L90.2952 17.3041C90.1266 17.2693 89.6238 17.0312 89.3638 16.8715L87.3523 19.6789L91.998 19.4118L92.2723 19.0228C92.0466 18.8254 91.6695 18.4102 91.5923 18.2621L92.1409 17.4376L95.1837 19.6905L94.5895 20.4802C94.4295 20.4541 93.9266 20.216 93.6695 20.0563L90.3009 24.7566C90.5295 24.9569 90.9066 25.3721 90.9895 25.523L90.4352 26.3417L87.3695 24.0743L87.9752 23.2934C88.1352 23.3195 88.6466 23.5634 88.9038 23.726L90.9666 20.8489L86.3238 21.116L85.9952 21.5718C86.2295 21.7721 86.6095 22.196 86.6895 22.3411L86.138 23.1656L83.0752 20.8982Z" fill="#FEFEFE"/>
<path fill-rule="evenodd" clip-rule="evenodd" d="M91.1357 27.0034L91.8957 26.3763C92.0443 26.4373 92.4929 26.7915 92.71 27.0034L97.0157 23.1712C96.8357 22.9244 96.5557 22.4367 96.5157 22.277L97.23 21.5918L99.7129 24.4718L98.9614 25.1076C98.8043 25.0379 98.3614 24.6953 98.1472 24.4805L96.4729 25.9699L98.8443 28.7192L100.519 27.2298C100.339 26.9831 100.059 26.4953 100.019 26.3357L100.73 25.6534L103.216 28.5305L102.464 29.1692C102.313 29.1053 101.873 28.7627 101.656 28.5508L97.3529 32.3859C97.5329 32.6298 97.81 33.1175 97.8586 33.2888L97.1386 33.9595L94.6386 31.0621L95.3986 30.435C95.5472 30.4988 95.9957 30.8501 96.2129 31.0621L97.9672 29.503L95.5957 26.7537L93.8386 28.3156C94.0215 28.5624 94.3043 29.0589 94.3472 29.2185L93.6357 29.9008L91.1357 27.0034Z" fill="#FEFEFE"/>
</svg>
