<svg width="167" height="46" viewBox="0 0 167 46" fill="none" xmlns="http://www.w3.org/2000/svg">
<path d="M25.1352 38.9929L25.4279 40.7925C25.5259 41.3922 25.1027 41.7699 24.506 41.8686C24.432 41.8807 24.3819 41.8886 24.3029 41.8757C23.7653 41.8625 23.3063 41.707 23.2161 41.1575L22.9307 39.4078C22.3138 39.688 21.7081 40.0449 21.2723 40.5022C20.9609 40.7838 20.4289 41.4361 20.5683 42.1325C20.7719 43.2278 22.6 44.1076 24.8739 43.6559C25.6897 43.495 26.4528 43.1647 27.0997 42.7502C27.9418 42.1232 28.3954 41.3048 28.2649 40.6585C28.1504 39.9589 27.4439 39.5362 27.0344 39.3731C26.4886 39.1543 25.8266 39.007 25.1352 38.9929ZM17.431 21.937C17.3498 21.2831 17.7867 20.6722 18.4865 20.5827C19.1575 20.4723 19.7439 20.9404 19.854 21.6151C19.9394 22.2936 19.4778 22.9087 18.8276 22.9898C18.132 23.105 17.5201 22.6406 17.431 21.937ZM23.1287 33.7281C23.1531 33.7244 23.1828 33.7459 23.1828 33.7459C26.1817 33.1998 28.3198 31.2822 27.322 25.0046C27.2652 24.6542 27.2814 24.7539 27.2078 24.4585C26.1613 25.7095 24.2329 26.7197 22.311 27.1388C22.2609 27.1472 22.1612 27.1633 22.087 27.1757C19.8254 27.548 17.7693 26.9892 16.2692 25.9272C16.2888 26.3598 16.2672 26.3894 16.3414 26.8397C17.3384 33.1164 20.0973 34.228 23.1287 33.7281ZM16.1378 22.4581C16.4641 24.3039 19.0738 25.4391 21.7913 24.8888C24.3883 24.3839 26.4808 22.3454 26.138 20.5537C25.8073 18.8377 23.2928 17.6602 20.7081 18.0866C20.6339 18.099 20.5594 18.1108 20.5095 18.1193C17.7923 18.6693 15.7953 20.6663 16.1378 22.4581ZM24.6547 36.0434L24.781 36.8184C25.9193 36.759 26.9955 36.9412 27.9012 37.3307C29.2952 37.8967 30.2524 39.0738 30.4436 40.2484C30.7086 41.8729 29.9631 43.4071 28.3657 44.5695C27.4948 45.1738 26.4206 45.6338 25.2819 45.847C25.2075 45.8593 25.108 45.8754 25.0582 45.8844C21.7526 46.4283 18.8416 45.0094 18.3891 42.5426C18.1603 41.2969 18.6573 39.9572 19.7075 38.8862C20.4549 38.1477 21.4829 37.5673 22.5983 37.204L22.4715 36.429C17.9617 36.7875 14.3243 34.511 13.1938 27.2554C11.9445 19.2737 15.1448 16.205 20.1362 15.3573C25.1274 14.5093 29.2748 16.4697 30.533 24.347C31.7044 31.8532 29.0171 34.94 24.6547 36.0434Z" fill="#ED1344"/>
<path d="M32.539 22.2313L31.9531 17.4289L46.8798 15.825L47.3158 20.6443L45.3026 21.0135C45.1206 20.7268 44.7795 19.1843 44.6594 18.5343L41.4619 18.9545L42.7243 30.8433C43.3561 30.8267 44.0315 30.9827 44.348 31.1018L44.6398 33.1338L37.7774 33.8712L37.636 31.8225C37.9202 31.6389 38.5475 31.3424 39.1683 31.2252L37.9054 19.3367L34.6944 19.6307C34.7389 20.2883 34.7384 21.7148 34.5841 22.1646L32.539 22.2313Z" fill="#ED1344"/>
<path d="M55.5732 23.7884C55.7415 26.6456 55.1221 28.5348 53.9143 29.8747L60.1491 29.5028L59.4414 17.519L55.2181 17.7711L55.5732 23.7884ZM64.4995 14.7303L64.5698 16.7812C64.2519 16.9527 63.6375 17.2177 63.0116 17.3058L63.7187 29.2903L65.9061 29.1594L66.1668 34.8529L64.155 34.9729C63.9864 34.678 63.6552 32.4902 63.563 31.7853L51.446 32.5092C51.4387 33.2459 51.4177 35.4539 51.2847 35.7665L49.2466 35.8633L48.8105 30.1803L49.7153 30.126C53.1674 29.1842 53.0582 25.2073 52.9534 23.4375L52.6286 17.9257C51.9971 17.9128 51.3547 17.7229 51.0192 17.59L50.8484 15.5454L64.4995 14.7303Z" fill="#ED1344"/>
<path d="M71.4547 23.0625C71.4872 26.7854 73.6247 29.3249 76.496 29.2998C79.3675 29.2744 81.4602 26.6975 81.4278 22.9744C81.3961 19.2509 79.2835 16.7117 76.387 16.7365C73.5161 16.7619 71.4228 19.3382 71.4547 23.0625ZM67.6772 23.0946C67.6288 17.4975 71.2021 14.2745 76.3652 14.2289C81.5283 14.1841 85.1822 17.3434 85.231 22.9411C85.2797 28.5386 81.7058 31.7616 76.5175 31.8069C71.304 31.8533 67.7254 28.6929 67.6772 23.0946Z" fill="#ED1344"/>
<path d="M103.628 32.1533L96.0785 31.8457L96.2367 29.7986C96.545 29.6594 97.158 29.4567 97.7892 29.431L94.7648 25.05L91.3223 29.168C91.9495 29.2437 92.5441 29.4966 92.8398 29.66L92.7071 31.7083L86.7686 31.4658L86.9268 29.4197C87.2345 29.2798 87.6216 29.0675 88.2528 29.0424L93.3565 23.0912L89.1133 17.0629C88.4857 16.9869 87.7912 16.7303 87.4947 16.5667L87.5269 14.5142L95.0006 14.8189L94.8676 16.8666C94.5598 17.006 93.9462 17.2094 93.3159 17.2342L96.1045 21.2001L99.2538 17.4761C98.6268 17.4003 98.032 17.1471 97.7114 16.9824L97.8441 14.9346L103.631 15.1709L103.499 17.2178C103.165 17.3567 102.778 17.5693 102.147 17.5944L97.4647 23.1062L102.042 29.6042C102.669 29.6806 103.339 29.9362 103.66 30.1014L103.628 32.1533Z" fill="#ED1344"/>
<path d="M106.214 32.3126L106.487 30.2778C106.803 30.1571 107.477 29.9937 108.108 30.0055L109.27 18.0553C108.647 17.9435 108.044 17.6554 107.757 17.4743L107.88 15.4249L114.698 16.0949L114.45 18.1322C114.11 18.2513 113.461 18.4166 112.83 18.4057L112.379 23.0436L119.848 23.7783L120.3 19.1393C119.677 19.0275 119.073 18.7391 118.787 18.5589L118.91 16.5092L125.729 17.1791L125.48 19.2165C125.163 19.3379 124.515 19.5035 123.884 19.4919L122.722 31.441C123.344 31.5539 123.95 31.8423 124.26 32.0254L124.112 34.0723L117.244 33.3969L117.517 31.3618C117.832 31.2404 118.507 31.0787 119.138 31.0895L119.611 26.2235L112.141 25.4892L111.668 30.355C112.29 30.4671 112.92 30.7583 113.206 30.9382L113.082 32.9877L106.214 32.3126Z" fill="#ED1344"/>
<path d="M126.634 34.3779L127.037 32.3662C127.359 32.2649 128.042 32.1472 128.672 32.1983L130.599 20.3516C129.983 20.1992 129.401 19.8714 129.126 19.6725L129.381 17.6366L136.141 18.7471L135.76 20.7633C135.413 20.8599 134.755 20.9833 134.128 20.9306L132.977 28.004L141.375 23.1222L141.532 22.1478C140.921 21.9957 140.333 21.669 140.062 21.4702L140.314 19.4332L147.077 20.5436L146.699 22.5604C146.374 22.6615 145.716 22.7837 145.086 22.7319L143.162 34.5788C143.775 34.7314 144.36 35.0581 144.66 35.2614L144.38 37.2936L137.569 36.175L137.973 34.1634C138.295 34.0619 138.978 33.9428 139.608 33.9955L140.787 26.7468L132.389 31.6283L132.201 32.7782C132.814 32.93 133.425 33.2618 133.699 33.46L133.444 35.4977L126.634 34.3779Z" fill="#ED1344"/>
<path d="M43.6669 2.69572C42.9576 2.73093 42.7826 2.4538 42.7495 2.08374C42.7411 1.99418 42.742 1.89307 42.7425 1.79169L48.0339 1.307L48.1913 3.03734L47.3833 3.09141C47.3416 2.9644 47.2747 2.66756 47.2075 2.371L45.0792 2.56617L45.509 7.30997C45.7496 7.30772 46.4054 7.34855 46.5292 7.38742L46.6323 8.19485L43.3301 8.49817L43.2866 7.6851C43.4009 7.61413 43.8504 7.48176 44.0965 7.43924L43.6669 2.69572Z" fill="#ED1344"/>
<path d="M52.1374 2.6147L51.4787 4.88915L53.292 4.75791L52.3365 2.60034L52.2287 2.20492L52.1886 2.20802L52.1374 2.6147ZM49.3431 7.94513L49.3154 7.1315C49.4218 7.07348 49.526 6.99491 49.7624 6.93802L51.2704 1.97201L51.2211 1.97596C50.9268 1.92667 50.7212 1.7101 50.6896 1.40988C50.6831 1.31976 50.677 1.23949 50.6904 1.13782L53.0909 0.813665L55.5998 6.50628C55.8504 6.50797 56.0064 6.58739 56.1397 6.63836C56.1596 6.90873 56.1884 7.17853 56.2176 7.44861L53.5079 7.64435C53.4889 7.3737 53.4791 7.10221 53.4698 6.83128C53.5852 6.76172 53.8479 6.65272 54.0954 6.61442L53.7 5.70616L51.2096 5.88584L51.0903 6.31759C51.0324 6.49332 50.9747 6.6685 50.9268 6.84339C51.1777 6.84564 51.4628 6.91605 51.5969 6.96646C51.6162 7.23739 51.6456 7.50719 51.6748 7.77671L49.3431 7.94513Z" fill="#ED1344"/>
<path d="M57.0491 7.38882L56.7539 6.30708C56.7539 6.30708 57.7595 5.83225 57.759 5.82239C57.99 5.64975 58.0866 5.19154 58.1233 4.92793C58.1309 4.68657 58.125 4.38467 58.1068 4.01319L57.9822 1.57511C57.7312 1.55765 57.6175 1.49344 57.515 1.44782L57.4442 0.637563L63.1691 0.34185L63.1909 1.1552C63.0741 1.22167 62.8196 1.32531 62.5712 1.35798L62.8142 6.11444C63.0646 6.12177 63.3284 6.19837 63.4516 6.25244L63.5227 7.06354L60.7896 7.2052L60.7781 6.39073C60.8946 6.32398 61.1491 6.22062 61.3978 6.18767L61.1547 1.4312L59.1998 1.53231L59.3513 4.50267C59.4518 6.46958 58.603 7.07706 57.0491 7.38882Z" fill="#ED1344"/>
<path d="M64.5332 7.02847L64.5365 6.21456C64.6541 6.15006 64.9101 6.05121 65.1593 6.02221L65.0017 1.26348C64.1221 1.25278 64.2778 0.815408 64.32 0.301995L69.1807 0.138647L69.2395 1.90532C69.1009 1.94052 68.9709 1.95432 68.8609 1.95827C68.3322 1.97601 68.1521 1.6603 68.1053 1.15956L66.4187 1.21645L66.4797 3.04311L67.6368 3.00396C67.6548 2.94341 67.7049 2.65023 67.7236 2.59982L68.5229 2.60236L68.5013 3.46753L68.5904 4.35016L67.7833 4.40649C67.7519 4.34791 67.6923 4.06768 67.6696 3.98883L66.5116 4.02685L66.5763 5.97517L68.4128 5.9135C68.4358 5.3998 68.585 5.08324 69.1238 5.0655C69.2339 5.06212 69.3636 5.06748 69.5041 5.09282C69.5246 5.69523 69.5439 6.29792 69.5641 6.90061L68.4652 6.89723L64.5332 7.02847Z" fill="#ED1344"/>
<path d="M72.7182 1.05027L72.7535 3.14927C72.7535 3.14927 73.3026 3.15011 73.4228 3.14786C74.2912 3.13293 74.7225 2.64318 74.7121 2.01063C74.7006 1.32796 74.1957 1.00521 73.567 1.01535L72.7182 1.05027ZM72.7689 4.04317L72.7986 5.81181C73.0481 5.82702 73.509 5.9101 73.63 5.96811L73.6737 6.78175L70.7378 6.83188L70.7543 6.0174C70.873 5.95488 71.1312 5.85997 71.3807 5.83575L71.3001 1.07449C70.421 1.04858 70.5832 0.61459 70.6344 0.101176L72.0428 0.0772347C72.0428 0.0772347 73.3402 0.0152788 73.6295 0.00964594C73.6692 0.00908279 73.7095 0.00795412 73.7594 0.00767279C75.317 -0.0185189 76.1014 0.881575 76.1184 1.91657C76.1341 2.82089 75.6051 4.05528 73.8776 4.08485C73.788 4.08682 73.6986 4.08823 73.6082 4.07922C73.4984 4.08119 72.7689 4.04317 72.7689 4.04317Z" fill="#ED1344"/>
<path d="M76.941 6.73859L76.9696 5.92496C77.0892 5.86413 77.3491 5.77344 77.5983 5.75288L77.5904 0.991345C76.7111 0.952762 76.8805 0.520457 76.9399 0.00788784L81.8025 1.43051e-06L81.8059 1.7678C81.6653 1.79794 81.5356 1.80808 81.4259 1.80864C80.8966 1.80892 80.7269 1.48786 80.6958 0.985429L79.008 0.98909L79.0116 2.81688L80.1693 2.81491C80.1892 2.75492 80.2491 2.46343 80.2687 2.41274L81.068 2.44146L81.019 3.30551L81.0808 4.18983L80.2712 4.22109C80.2424 4.16138 80.1914 3.87975 80.1713 3.79921L79.0128 3.80146L79.0161 5.75007L80.8537 5.74753C80.8927 5.23468 81.0517 4.9232 81.5914 4.92179C81.7006 4.92179 81.8308 4.93165 81.9708 4.96178C81.9717 5.56447 81.9725 6.16744 81.9733 6.77042L80.875 6.73155L76.941 6.73859Z" fill="#ED1344"/>
<path d="M86.4115 3.22701L86.8508 3.23434L86.8862 1.05423L86.1275 1.02212C85.489 1.0117 84.9046 1.32347 84.8928 2.036C84.8794 2.84963 85.3428 3.21941 86.1216 3.23236L86.4115 3.22701ZM83.0787 6.7398L82.9521 5.90335L83.6959 5.65467C83.7156 5.64454 84.2801 4.69938 84.7321 3.94292C83.7794 3.56553 83.475 2.64601 83.4865 1.94277C83.503 0.898485 84.3269 -0.0117445 85.9945 0.0155735C85.9945 0.0155735 86.8929 0.0603514 87.332 0.0772491L88.9696 0.10457C89.0212 0.617702 89.1841 1.05226 88.3043 1.07789L88.227 5.83971C88.4759 5.86336 88.7344 5.95884 88.8529 6.02079L88.8697 6.83499L86.134 6.78993L86.1774 5.97714C86.2981 5.91884 86.5588 5.83238 86.8094 5.81633L86.8371 4.09838L86.1275 4.10655L85.1328 5.70847C84.589 6.5942 84.0275 6.75529 83.0787 6.7398Z" fill="#ED1344"/>
<path d="M96.3631 1.34456L96.2807 3.20164L96.8299 3.22642C97.4785 3.25543 98.0374 3.04899 98.0702 2.30605C98.0979 1.68336 97.6812 1.38343 96.9428 1.35048C96.7733 1.34259 96.5437 1.34259 96.3631 1.34456ZM96.2368 4.19552L96.1525 6.09315C96.2332 6.09681 96.9304 6.14863 97.0399 6.15313C97.6683 6.18158 98.1506 5.92135 98.1789 5.27923C98.2063 4.66612 97.7641 4.26423 96.9058 4.22565L96.2368 4.19552ZM94.043 6.99493L94.109 6.18242C94.2317 6.12779 94.4949 6.04921 94.7459 6.04048L94.9562 1.28119C94.2387 1.21895 94.302 0.930004 94.3179 0.548393C94.3227 0.458272 94.3365 0.368711 94.351 0.268732L95.4986 0.320269C95.7182 0.329281 96.7478 0.33604 97.2668 0.359135C98.5443 0.416587 99.6331 1.12912 99.5841 2.22269C99.5368 3.29739 98.8019 3.6269 98.1789 3.69928L98.1755 3.78011C99.0758 3.99077 99.7247 4.47264 99.6827 5.40653C99.6348 6.50123 98.6919 7.24389 97.145 7.17433C96.656 7.15264 95.9691 7.08139 95.6299 7.06646L94.043 6.99493Z" fill="#ED1344"/>
<path d="M100.456 7.286L100.538 6.4749C100.661 6.42252 100.926 6.3493 101.177 6.34479L101.481 1.59142C101.234 1.55565 100.99 1.44892 100.874 1.38104L100.897 0.567409L103.608 0.742583L103.536 1.55284C103.402 1.60522 103.148 1.67929 102.897 1.68267L102.715 4.52123L105.842 2.26677L105.867 1.87502C105.62 1.83954 105.376 1.73308 105.26 1.66464L105.283 0.851014L107.994 1.02703L107.921 1.83728C107.799 1.88967 107.544 1.96402 107.293 1.96796L106.988 6.72189C107.237 6.75823 107.479 6.86412 107.606 6.93368L107.573 7.74731L104.842 7.5696L104.924 6.75907C105.048 6.70697 105.312 6.63346 105.563 6.62952L105.75 3.72083L102.623 5.97614L102.592 6.43745C102.84 6.4735 103.094 6.58023 103.209 6.64811L103.188 7.46258L100.456 7.286Z" fill="#ED1344"/>
<path d="M108.579 7.82601L108.679 7.01689C108.805 6.96789 109.07 6.90058 109.321 6.90255L109.735 2.15678C109.488 2.11397 109.247 2.00217 109.133 1.93204L109.173 1.11841L111.881 1.35723L111.79 2.16607C111.655 2.2148 111.399 2.28295 111.148 2.28126L110.987 4.12369L113.953 4.38533L114.114 2.54233C113.867 2.50121 113.626 2.38856 113.511 2.31816L113.552 1.50509L116.259 1.74391L116.168 2.55191C116.044 2.60204 115.788 2.67019 115.537 2.6685L115.123 7.41427C115.37 7.45623 115.611 7.5686 115.735 7.63986L115.684 8.45236L112.957 8.21213L113.058 7.40385C113.183 7.354 113.449 7.28641 113.7 7.28866L113.868 5.35611L110.903 5.09476L110.734 7.02703C110.982 7.06899 111.232 7.18221 111.346 7.25233L111.306 8.06596L108.579 7.82601Z" fill="#ED1344"/>
<path d="M157.121 13.762C156.971 13.762 156.86 13.7889 156.793 13.8394C156.324 14.1938 156.665 16.4726 158.19 20.0311C160.656 19.9046 162.492 19.3053 162.708 18.5377C162.925 17.7683 161.796 16.2734 160.082 15.0607C158.778 14.138 157.682 13.762 157.121 13.762ZM157.484 21.1865L157.332 20.8418C155.4 16.453 154.997 13.792 156.134 12.9322C157.162 12.1555 159.173 13.043 160.713 14.1329C163.41 16.0416 164.061 17.8207 163.772 18.8497C163.544 19.6561 162.473 21.0307 157.854 21.1748L157.484 21.1865Z" fill="#80BA27"/>
<path d="M158.405 11.1374C157.588 11.1374 156.319 11.5387 154.962 12.4188C152.493 14.0216 151.823 15.7258 152 16.6981C152.288 18.2844 154.627 19.6745 157.514 20.0111C159.713 15.5014 160.078 12.0049 159.132 11.3146C158.973 11.198 158.723 11.1374 158.405 11.1374ZM158.16 21.2042L157.792 21.1734C154.141 20.8668 151.313 19.1111 150.912 16.9039C150.53 14.7974 152.447 12.7137 154.368 11.466C156.179 10.2905 158.554 9.50419 159.777 10.3964C161.166 11.4109 161.258 15.0423 158.329 20.8683L158.16 21.2042Z" fill="#80BA27"/>
<path d="M153.85 17.3391C153.795 17.3391 153.748 17.3477 153.709 17.3649C153.436 17.4847 153.044 18.2753 153.019 19.4473C153 20.347 153.24 21.5265 153.977 21.8895C154.738 22.2645 156.127 21.8537 157.169 20.5712C155.799 18.3001 154.421 17.3391 153.85 17.3391ZM154.591 23.1488C154.201 23.1488 153.829 23.0707 153.496 22.9065C152.47 22.4009 151.878 21.0987 151.914 19.4229C151.938 18.2593 152.309 16.7505 153.272 16.3277C154.569 15.7587 156.644 17.4024 158.315 20.3263L158.495 20.6419L158.287 20.9391C157.319 22.3189 155.86 23.1488 154.591 23.1488Z" fill="#80BA27"/>
<path d="M158.548 20.6947C159.582 22.1361 161.505 22.6785 163.026 21.8939C164.627 21.067 164.86 19.239 164.894 18.6986C164.959 17.6404 164.663 16.9401 164.432 16.781C163.896 16.4108 161.835 17.4892 158.548 20.6947ZM161.538 23.3795C159.883 23.3795 158.236 22.467 157.356 20.89L157.145 20.5107L157.451 20.2061C161.236 16.4455 163.793 14.9784 165.051 15.8452C165.708 16.2978 166.08 17.4456 165.998 18.7693C165.884 20.6161 164.96 22.1608 163.525 22.9014C162.897 23.2258 162.216 23.3795 161.538 23.3795Z" fill="#80BA27"/>
<path d="M156.088 31.1177C155.544 29.3748 155.417 27.8152 155.598 26.0033C155.798 24.0029 156.459 22.0399 157.51 20.3263L158.448 20.9253C157.487 22.4929 156.882 24.2885 156.699 26.1179C156.534 27.7748 156.728 29.4919 157.226 31.0862L156.088 31.1177Z" fill="#80BA27"/>
</svg>
