<svg width="160" height="46" viewBox="0 0 160 46" fill="none" xmlns="http://www.w3.org/2000/svg">
<path d="M26.6245 31.2284C26.5184 30.5675 25.9319 30.1602 25.2784 30.2672C24.6723 30.3656 24.1936 30.9473 24.2996 31.6088C24.4046 32.271 25.0445 32.6949 25.6497 32.5954C26.3033 32.4886 26.73 31.8904 26.6245 31.2284ZM25.3413 11.1965C25.0233 11.0722 24.7166 11.0219 24.4664 11.0122L24.4743 11.0615C24.5301 11.2532 24.6666 11.3318 24.7555 11.2661L24.7635 11.3159C24.7867 11.4628 24.7785 11.5648 24.7377 11.6209C24.9351 11.6143 25.1085 11.6115 25.2617 11.6371C25.2617 11.6371 23.9245 12.1314 23.6152 11.9056C23.6152 11.9056 23.7808 11.853 23.9949 11.7931C23.931 11.7029 23.8865 11.5849 23.8637 11.4372C23.8443 11.3156 23.8484 11.1896 23.8855 11.1069C23.7442 11.155 23.6266 11.1993 23.6266 11.1993L23.4791 11.6762L23.3275 11.3492L23.4631 10.9506C24.5692 10.5683 25.2685 11.0579 25.2685 11.0579L25.3413 11.1965ZM25.5943 10.4512C25.5943 10.4512 24.2285 10.1462 23.1985 10.5403L23.2578 9.97839C23.2578 9.97839 24.5858 9.73581 25.4992 10.1654L25.5943 10.4512ZM24.8974 15.2659L24.6682 15.0767C24.6682 15.0767 24.2507 15.5723 23.2816 15.731C22.2889 15.8936 21.7862 15.5487 21.7862 15.5487C21.7825 15.5228 21.5994 15.7792 21.5994 15.7792C21.5994 15.7792 21.7726 15.7761 21.9533 15.9728C22.1584 16.1659 22.5153 16.5349 23.3872 16.3936C24.2348 16.2544 24.478 15.9117 24.5847 15.6438C24.6983 15.4233 24.8974 15.2659 24.8974 15.2659ZM21.6172 11.5288C21.6172 11.5288 21.4393 11.507 21.193 11.5219C21.2012 11.5703 21.2295 11.5917 21.237 11.6407C21.3372 11.7997 21.446 11.8577 21.5385 11.8178C21.5621 11.965 21.5334 12.0951 21.5003 12.2012C21.6975 12.1927 21.8474 12.1946 21.8474 12.1946C21.6485 12.5038 20.2526 12.4807 20.2526 12.4807C20.338 12.3907 20.5279 12.3341 20.7216 12.3024C20.6612 12.2375 20.6211 12.1429 20.5978 11.9963C20.5823 11.8987 20.5665 11.7997 20.5996 11.6932C20.6479 11.6866 20.6683 11.6589 20.6683 11.6589C20.4539 11.7177 20.2076 11.8841 19.9684 12.0995L20.0176 11.9405C20.0176 11.9405 20.477 11.2364 21.6667 11.2182L21.9469 11.5747L21.9294 11.9295L21.6172 11.5288ZM21.818 10.7655C20.6694 10.7279 19.4914 11.4485 19.4914 11.4485L19.4928 11.1459C20.2265 10.4484 21.5868 10.251 21.5868 10.251L21.818 10.7655ZM26.0301 20.1858C25.1702 20.4011 24.7307 20.2977 24.0244 20.3874C23.3507 20.523 22.9904 20.7581 22.0343 20.8392C19.7256 21.1657 17.4041 19.2317 18.3591 14.4733C18.3762 14.4205 18.4007 14.2659 18.4257 14.1108C17.7042 14.1034 18.3741 13.1638 17.9104 12.2843C17.4996 11.4218 17.7428 11.2306 18.0613 11.2037L18.1334 11.1924C17.9838 10.5631 17.8011 10.0403 17.7416 9.67228C17.5392 8.39914 17.7076 7.59109 18.243 7.05257C19.2588 5.4791 18.2906 4.85724 18.2906 4.85724C20.7971 3.59318 22.243 4.71477 22.7948 5.68042C23.2984 6.65432 23.4053 8.72286 22.0257 9.42585C21.1132 9.77542 18.8127 10.1514 19.0118 11.4009C19.2481 12.5687 18.7882 13.4227 19.0221 14.2645C19.1044 14.6279 19.2404 15.008 19.3956 15.36C19.8377 15.6397 20.401 15.8993 20.8313 15.3267C21.436 14.599 22.0425 14.3492 22.474 14.2533C22.3413 14.2002 22.2163 14.1947 21.9982 14.2307C21.4899 14.314 21.4973 13.5846 21.4973 13.5846L21.7609 13.3641C21.7609 13.3641 21.7946 13.8872 21.9604 13.8347C22.1421 13.7301 22.1944 13.7464 22.3146 13.877C22.4595 14.0041 22.7577 14.0063 23 13.9667C23 13.9667 23.3878 13.9034 23.4607 13.7409C23.4981 13.5076 23.5153 13.3044 23.4163 12.9933C23.3491 12.7276 23.6487 13.2067 23.6922 13.3258C23.7086 13.4235 23.7197 13.4969 23.9018 13.5434C24.1029 13.5602 24.1802 13.4224 24.0208 13.0456L24.3068 13.1245C24.3068 13.1245 24.5894 13.8072 24.0569 13.8943C23.8391 13.9304 23.7215 13.9746 23.6369 14.0635C24.0278 14.0247 24.6809 14.0687 25.4565 14.5715C26.0434 14.978 26.4658 14.5066 26.8548 14.1408C26.8926 13.7576 26.9272 13.3503 26.8926 12.9787C26.8523 12.1058 26.1259 11.446 25.9623 10.2655C25.8499 9.40412 25.3554 8.95663 24.844 8.8645C23.2889 8.61532 23.7504 6.52945 23.0615 5.63669C24.7166 5.26594 26.2678 5.64027 26.6784 8.21267C26.7371 8.57984 26.7182 9.0859 26.7517 9.75891L26.7797 9.77927C27.0864 9.67915 27.4042 9.80347 27.2582 10.757C27.1371 11.7075 28.0165 12.3926 27.4062 12.6176C27.482 12.7815 27.5544 12.9207 27.5868 12.9664C29.9732 17.1772 28.3467 19.757 26.0301 20.1858ZM38.5521 37.9274L30.4638 39.2488L30.1072 36.3919C30.3423 36.1527 30.8043 35.7747 31.4013 35.6264L30.4576 30.8049L30.3295 29.8442L30.1171 30.3813L26.5146 37.8581L20.7013 31.795L20.4644 31.5571L21.1336 37.3042C21.7469 37.2548 22.302 37.4657 22.6241 37.6139C22.8003 38.5649 22.9742 39.4926 23.1504 40.4432L15.4251 41.7067L15.0442 38.8518C15.3037 38.6093 15.9833 38.1964 16.5807 38.0482L15.1575 25.7093C14.5973 25.7761 13.7467 25.5888 13.4976 25.4274C13.3009 24.5049 13.124 23.553 12.9229 22.6044L19.9218 21.4603L24.3739 27.0957L24.9034 27.7632L25.202 26.9846L28.1801 20.111L34.9121 19.0105C34.9921 19.9781 35.1205 20.9385 35.2447 21.8739C35.0093 22.1132 34.2857 22.5588 33.7085 22.6779L36.2937 34.8281C36.9071 34.7786 37.7044 34.9491 38.0024 35.1019L38.5521 37.9274Z" fill="#74140D"/>
<path d="M47.6141 27.958C47.6625 27.9534 48.3227 27.8926 48.8088 27.8216L48.4518 23.9156L47.1304 24.014C46.1268 24.0828 45.7508 25.0908 45.8234 25.8818C45.9134 26.8714 46.6127 28.0515 47.6141 27.958ZM48.1332 37.1318L47.9396 34.209C48.2147 33.984 48.7224 33.6133 49.3284 33.5057L49.0734 30.7139L47.7541 30.8372L46.2426 34.2437C44.7507 37.5972 43.6542 37.7256 40.6747 38.2781L39.9443 34.3347L42.1378 33.5318C42.0889 33.536 42.9296 31.688 43.5693 30.3316C41.6293 29.5912 41.0355 27.6761 40.8887 26.0694C40.6421 23.3748 42.6968 20.7892 46.5319 20.4303C46.5319 20.4303 49.0098 20.3225 50.2825 20.2279L54.8501 19.801L55.019 22.7271C54.7444 22.9518 54.2117 23.3264 53.6054 23.4332L54.4823 33.0248C55.0978 33.0168 55.6639 33.2874 55.9755 33.4571C56.0878 34.4188 56.2004 35.3804 56.3396 36.3628L48.1332 37.1318Z" fill="#74140D"/>
<path d="M57.3095 28.1131C57.0416 21.6641 61.0864 19.1566 66.0129 18.9459C67.777 18.8713 69.9 19.1293 71.3669 19.5884L71.3356 24.7332C71.0433 24.7945 70.775 24.8316 70.53 24.8418C68.7401 24.9177 67.8137 23.8891 67.2906 22.5194C67.0179 22.4564 66.7218 22.4196 66.2802 22.4383C64.3201 22.5222 62.606 24.4092 62.7537 27.9563C62.8864 31.1555 64.4781 32.8267 66.8555 32.7254C68.2036 32.6682 70.409 31.9778 71.7864 30.8508L72.1584 34.4864C70.655 35.5439 68.5951 36.1779 66.855 36.2516C61.2183 36.492 57.5441 33.7433 57.3095 28.1131Z" fill="#74140D"/>
<path d="M74.2861 35.5777L74.4063 32.6509C74.7021 32.4547 75.2443 32.1363 75.858 32.0911L75.9306 22.4592C75.3172 22.4044 74.756 22.078 74.4626 21.8763L74.4112 18.9472L82.6775 19.0105L82.5823 21.9393C82.2867 22.1352 81.7201 22.4536 81.1064 22.4985L81.0833 25.5533L86.4308 25.594L86.4536 22.5403C85.8405 22.485 85.279 22.1588 84.9867 21.9586L84.9103 19.0273L93.2016 19.0913L93.0817 22.0199C92.785 22.216 92.2184 22.534 91.6047 22.5802L91.5327 32.2122C92.1455 32.266 92.707 32.5934 93.0006 32.7935L93.0518 35.7227L84.8092 35.6603L84.9059 32.7322C85.201 32.5354 85.7676 32.2174 86.3813 32.1728L86.4044 29.0941L81.0575 29.0526L81.0344 32.131C81.6472 32.186 82.1837 32.5128 82.4771 32.713L82.5285 35.6413L74.2861 35.5777Z" fill="#74140D"/>
<path d="M100.257 27.8153C100.079 30.7637 101.269 33.0264 103.228 33.1477C105.187 33.2681 106.617 31.1683 106.795 28.2199C106.973 25.2707 105.783 23.0083 103.848 22.8883C101.889 22.7671 100.435 24.8656 100.257 27.8153ZM94.7965 27.4768C95.1386 21.8267 98.8215 19.0461 104.06 19.3698C109.35 19.6971 112.62 22.9335 112.28 28.559C111.94 34.1838 108.304 36.9913 103.016 36.6646C97.751 36.3384 94.4561 33.1018 94.7965 27.4768Z" fill="#74140D"/>
<path d="M121.205 24.7164L120.867 27.7503L120.987 27.7646C122.036 27.8851 122.923 27.6851 123.069 26.3781C123.203 25.1696 122.473 24.8613 121.205 24.7164ZM120.47 31.3034L120.145 34.2125L120.17 34.2158C120.17 34.2158 121.358 34.4023 121.139 34.377C122.066 34.4829 122.74 34.1856 122.853 33.1745C122.983 32.0147 122.201 31.5009 121.006 31.3642L120.47 31.3034ZM121.317 38.0933C119.83 37.9233 118.578 37.6301 117.75 37.5358L113.118 37.006L113.516 34.1049C113.831 33.9407 114.403 33.6817 115.018 33.7017L116.086 24.1303C114.317 23.8291 114.568 22.9083 114.692 21.7977C114.74 21.3788 114.84 20.9157 114.939 20.4767L118.205 20.851C118.741 20.9121 121.342 21.0595 122.707 21.2155C125.632 21.5488 128.931 23.4009 128.592 26.4351C128.281 29.2223 126.335 29.6244 125.016 29.7248L124.983 30.0196C126.885 30.6624 128.538 31.5758 128.259 34.0665C127.965 36.7052 125.411 38.5603 121.317 38.0933Z" fill="#74140D"/>
<path d="M139.077 33.1546L138.46 36.8249L138.484 36.8298C138.484 36.8298 139.951 37.1319 139.709 37.0895C140.725 37.2653 141.446 36.3818 141.603 35.4531C141.791 34.3277 141.084 33.4998 139.899 33.2968L139.077 33.1546ZM130.901 22.2789L142.147 24.2154C141.959 25.1904 141.774 26.1404 141.565 27.0871C141.266 27.2372 140.656 27.4595 140.044 27.4036L139.669 29.6311L140.056 29.6985C146.49 30.8058 147.406 33.9349 146.991 36.4049C146.505 39.2914 143.743 41.5102 139.68 40.811C138.448 40.5978 137.162 40.2519 136.271 40.0731L131.265 39.2106C131.478 38.2417 131.662 37.2923 131.847 36.3411C132.17 36.1962 132.756 35.9691 133.369 36.0243L134.957 26.5791L133.458 26.3208C133.22 27.1363 132.968 27.8984 132.842 28.2043L129.976 27.7859L130.901 22.2789Z" fill="#74140D"/>
<path d="M51.4156 12.5532L51.3884 11.7567C51.5012 11.6891 51.7479 11.5829 51.9882 11.5455L51.6611 6.89301C51.4172 6.88998 51.1687 6.81929 51.0475 6.76951L50.9629 5.97686L57.7163 5.4906L57.7525 6.28655C57.6407 6.35339 57.3944 6.46038 57.1532 6.49668L57.4806 11.15C57.7247 11.1516 57.983 11.2226 58.1138 11.2721L58.1886 12.0653L55.5302 12.2573L55.5031 11.46C55.6151 11.3931 55.8617 11.2861 56.1026 11.2496L55.7752 6.59652L53.0386 6.79372L53.3665 11.4462C53.6104 11.4484 53.8687 11.5185 53.9897 11.5691L54.0745 12.3624L51.4156 12.5532Z" fill="#74140D"/>
<path d="M61.0896 6.27371L61.1951 8.32767C61.1951 8.32767 61.7299 8.30952 61.8465 8.30319C62.6919 8.25919 63.0951 7.7644 63.063 7.1464C63.0287 6.47779 62.5263 6.17827 61.9142 6.21128L61.0896 6.27371ZM61.2399 9.20228L61.3288 10.9317C61.5725 10.9386 62.0238 11.0038 62.1437 11.0563L62.2139 11.8514L59.3576 12.0005L59.3456 11.2032C59.4595 11.1391 59.7072 11.0368 59.9498 11.0051L59.7099 6.34687C58.8532 6.35182 58.997 5.92057 59.0288 5.41615L60.3989 5.34382C60.3989 5.34382 61.6597 5.23848 61.9411 5.22418C61.9806 5.2217 62.0189 5.2206 62.0678 5.21703C63.5837 5.13727 64.3771 5.99263 64.4287 7.00503C64.4747 7.88899 64.0021 9.1162 62.3213 9.20476C62.234 9.20861 62.1462 9.21356 62.0583 9.20861C61.952 9.21356 61.2399 9.20228 61.2399 9.20228Z" fill="#74140D"/>
<path d="M66.5266 8.35426C66.5739 9.79984 67.4228 10.7649 68.5313 10.7278C69.639 10.6901 70.4229 9.6692 70.3756 8.22444C70.3277 6.77913 69.4889 5.81404 68.3706 5.85116C67.2626 5.88857 66.4785 6.90977 66.5266 8.35426ZM65.0681 8.40349C64.9966 6.23044 66.3463 4.94465 68.3385 4.87809C70.3313 4.80988 71.7721 6.00271 71.8425 8.17493C71.9148 10.3477 70.5654 11.6327 68.5631 11.7012C66.5513 11.7696 65.1397 10.576 65.0681 8.40349Z" fill="#74140D"/>
<path d="M75.3219 8.13431C75.3363 9.24627 75.0633 9.96769 74.5736 10.4652L76.9856 10.4355L76.9261 5.77148L75.2919 5.79238L75.3219 8.13431ZM78.927 4.78053L78.9177 5.57785C78.7915 5.63891 78.5496 5.7305 78.3065 5.75305L78.3668 10.4168L79.213 10.4055L79.2122 12.6198L78.4332 12.6284C78.3742 12.5115 78.285 11.6575 78.2622 11.3822L73.5741 11.4432C73.5586 11.729 73.5116 12.5857 73.455 12.7043L72.6662 12.7051L72.5996 10.4922L72.9493 10.4872C74.2976 10.1836 74.3262 8.63982 74.318 7.9503L74.2903 5.80586C74.0469 5.78936 73.8022 5.70409 73.6752 5.64661L73.6459 4.85039L78.927 4.78053Z" fill="#74140D"/>
<path d="M80.2461 4.73627L82.921 4.75414L82.8963 5.5512C82.7696 5.6095 82.5347 5.69614 82.2921 5.71429L83.5211 7.9946L84.7623 5.73134C84.519 5.70961 84.2865 5.61913 84.1696 5.55972L84.1949 4.76267L86.7621 4.78055L86.7276 5.57732C86.6107 5.6359 86.3763 5.68321 86.1338 5.70109L84.4795 8.71987C84.2231 9.19046 83.967 9.75895 83.5733 10.3079C83.1027 10.9735 82.3623 11.2439 81.3881 11.3756L81.1716 10.2906C81.1716 10.2906 82.2242 10.0026 82.2242 9.99301C82.3416 9.95478 82.449 9.89647 82.5368 9.82771C82.654 9.68139 82.8014 9.48584 82.8903 9.34915L80.8913 5.70439C80.648 5.68321 80.3763 5.59245 80.2605 5.53359L80.2461 4.73627Z" fill="#74140D"/>
<path d="M90.5256 8.6611L89.7792 9.30055L89.7469 10.5201C89.9902 10.547 90.2404 10.6419 90.3559 10.7038L90.3644 11.5011L87.6992 11.4296L87.7493 10.6342C87.8675 10.5781 88.1223 10.4967 88.3665 10.4832L88.4891 5.81999C87.7892 5.77158 87.8455 5.48857 87.8547 5.11397C87.8583 5.02513 87.8694 4.93712 87.8814 4.83921L90.5272 4.91072C90.5107 5.17613 90.493 5.43989 90.4862 5.70667C90.3584 5.7526 90.1131 5.84364 89.8698 5.85712L89.8135 7.99166L92.0874 5.9168C91.8438 5.88049 91.7198 5.79881 91.5762 5.73527L91.6159 4.93877L94.0092 5.00313L93.9581 5.79991C93.8308 5.84529 93.6437 5.92863 93.4586 5.94375L91.4734 7.78098L93.4159 10.53L94.1188 10.8053L93.9523 11.6073C93.0192 11.5831 92.4028 11.3303 91.7929 10.4568L90.5256 8.6611Z" fill="#74140D"/>
<path d="M95.0527 6.92443L95.1074 5.04457L100.901 5.31246L100.787 7.1882L99.9975 7.21185C99.9439 7.09028 99.9034 6.4786 99.8958 6.22117L98.6497 6.19339L98.4414 10.8349C98.6831 10.8654 98.9311 10.965 99.0456 11.0293L99.0382 11.828L96.3755 11.7045L96.4402 10.9097C96.5593 10.8561 96.8157 10.7788 97.0604 10.7708L97.2701 6.12931L96.0269 6.05285C96.0049 6.30753 95.9225 6.85595 95.8363 7.01932L95.0527 6.92443Z" fill="#74140D"/>
<path d="M107.193 12.3258L107.277 11.5326C107.397 11.4823 107.656 11.4108 107.899 11.4078L108.211 6.75472C107.97 6.71869 107.733 6.61445 107.622 6.5468L107.645 5.75002L110.284 5.93099C110.257 6.19558 110.229 6.45989 110.212 6.72475C110.081 6.77563 109.833 6.84631 109.589 6.85016L109.278 11.5018C109.518 11.5387 109.764 11.6435 109.877 11.7109L109.853 12.5087L107.193 12.3258ZM103.772 8.98581L103.63 11.1052C103.708 11.1099 104.464 11.1814 104.57 11.1897C105.181 11.2403 105.669 10.801 105.71 10.1828C105.75 9.58401 105.335 9.09279 104.5 9.03531L103.772 8.98581ZM104.637 5.54347C104.619 5.80888 104.591 6.07374 104.564 6.33749C104.444 6.38865 104.185 6.45961 103.942 6.46264L103.837 8.01328L104.449 8.05509C106.758 8.21378 107.227 9.3604 107.166 10.273C107.089 11.4108 106.153 12.2945 104.649 12.1908C104.173 12.1586 103.439 12.0687 103.099 12.045C103.07 12.0428 103.04 12.0412 103.012 12.0398L101.557 11.9389L101.639 11.1459C101.759 11.0951 102.017 11.0241 102.262 11.0211L102.574 6.36885C101.722 6.27039 101.915 5.86004 102.007 5.36332L104.637 5.54347Z" fill="#74140D"/>
</svg>
