<svg width="64" height="64" viewBox="0 0 64 64" fill="none" xmlns="http://www.w3.org/2000/svg">
<circle cx="32" cy="32" r="32" fill="#80BA27"/>
<path fill-rule="evenodd" clip-rule="evenodd" d="M50.9134 32.225C50.8213 33.6079 50.1749 38.2851 45.7328 40.4007C41.9565 42.1977 37.2913 41.2665 34.2975 38.4045C44.6465 37.6245 47.223 34.5083 47.8019 32.6112C48.1875 31.3477 47.9615 29.6375 46.8037 27.6643C48.1835 27.1077 49.1429 27.0076 49.6328 27.3196C50.2731 27.726 51.0944 29.5181 50.9134 32.225ZM20.6589 40.3901C18.783 39.5379 18.0773 36.933 18.0138 34.7297C20.7571 36.3668 24.293 37.585 28.3025 38.208C25.6196 40.5375 22.4877 41.2212 20.6589 40.3901ZM28.2788 35.2715C24.258 34.5705 20.7579 33.1905 18.3757 31.4389C18.7757 29.9674 19.4088 29.017 19.9059 28.8157C20.0153 28.7714 20.1452 28.7493 20.2966 28.7493C21.7102 28.7493 24.9065 30.7176 28.2788 35.2715ZM15.1411 27.1092C14.6511 24.6208 16.5096 20.2614 23.3564 16.1591C27.1163 13.9086 30.6359 12.8821 32.9025 12.8821C33.7842 12.8821 34.4756 13.0362 34.9185 13.3347C35.9853 14.0531 36.4384 15.9742 36.2052 18.7572C32.6151 16.943 28.8009 15.9424 26.606 17.4745C24.4181 19.0009 24.2923 22.7527 26.207 28.6567C23.4024 26.3147 20.695 25.3411 18.6698 26.1606C17.4506 26.6547 16.5761 27.7303 15.9767 29.0342C15.5645 28.4111 15.271 27.7679 15.1411 27.1092ZM28.4472 19.7951C28.6324 19.666 28.9423 19.5967 29.3575 19.5967C30.6412 19.5967 32.9487 20.2688 35.7492 21.8298C35.0486 25.1175 33.6442 29.1504 31.4298 33.6495C27.9696 25.6914 27.2454 20.6338 28.4472 19.7951ZM44.8399 31.815C44.3398 33.454 40.7056 34.7906 35.5424 35.3761C38.973 32.4448 41.8451 30.3638 44.0994 29.033C44.7755 30.124 45.0598 31.0947 44.8399 31.815ZM42.2593 26.7272C40.363 27.8443 38.2417 29.3417 35.8912 31.2291C37.0992 28.4095 37.9727 25.8451 38.5229 23.5696C39.9764 24.5952 41.2426 25.6756 42.2593 26.7272ZM51.3425 24.925C49.8768 23.9929 47.7657 24.1296 45.0409 25.3006C43.6918 23.7916 41.8302 22.1883 39.313 20.5454C39.2455 20.5011 39.176 20.4587 39.1085 20.4154C39.7457 15.5485 38.7321 12.3418 36.7161 10.9839C33.3274 8.70072 26.7425 10.7143 21.7214 13.7217C16.3914 16.914 11.0748 22.2451 12.1365 27.633C12.4852 29.4048 13.4978 31.0631 15.0341 32.5278C14.9656 33.0584 14.9247 33.5813 14.9134 34.0792C14.8153 38.3664 16.4559 41.6983 19.3024 42.9916C20.2281 43.4124 21.2591 43.6117 22.3382 43.6117C23.9481 43.6117 25.6654 43.1485 27.3153 42.3271C26.1973 45.0928 25.4486 47.9866 25.1305 50.916C24.6293 55.5518 24.9812 59.5414 26.4898 64L29.6432 63.9201C28.2634 59.8409 27.7244 55.4478 28.1847 51.2087C28.602 47.3423 29.8314 43.5414 31.7441 40.0728C34.3073 42.7171 37.9455 44.202 41.6001 44.202C43.4821 44.202 45.3682 43.8091 47.1121 42.9781C51.0899 41.0839 53.6541 37.1318 53.9692 32.4065C54.1952 29.0197 53.1642 26.0835 51.3425 24.925Z" fill="white"/>
</svg>
