<svg width="151" height="38" viewBox="0 0 151 38" fill="none" xmlns="http://www.w3.org/2000/svg">
<path d="M14.6245 27.2284C14.5184 26.5675 13.9319 26.1602 13.2784 26.2672C12.6723 26.3656 12.1936 26.9473 12.2996 27.6088C12.4046 28.271 13.0445 28.6949 13.6497 28.5954C14.3033 28.4886 14.73 27.8904 14.6245 27.2284ZM13.3413 7.19652C13.0233 7.07221 12.7166 7.02187 12.4664 7.01225L12.4743 7.06148C12.5301 7.25318 12.6666 7.33184 12.7555 7.26611L12.7635 7.31589C12.7867 7.46275 12.7785 7.56479 12.7377 7.6209C12.9351 7.6143 13.1085 7.61155 13.2617 7.63713C13.2617 7.63713 11.9245 8.13137 11.6152 7.90556C11.6152 7.90556 11.7808 7.85303 11.9949 7.79307C11.931 7.70286 11.8865 7.58487 11.8637 7.43718C11.8443 7.31561 11.8484 7.18965 11.8855 7.10686C11.7442 7.15499 11.6266 7.19927 11.6266 7.19927L11.4791 7.67618L11.3275 7.34916L11.4631 6.95064C12.5692 6.56834 13.2685 7.0579 13.2685 7.0579L13.3413 7.19652ZM13.5943 6.45118C13.5943 6.45118 12.2285 6.14616 11.1985 6.54029L11.2578 5.97839C11.2578 5.97839 12.5858 5.73581 13.4992 6.16541L13.5943 6.45118ZM12.8974 11.2659L12.6682 11.0767C12.6682 11.0767 12.2507 11.5723 11.2816 11.731C10.2889 11.8936 9.7862 11.5487 9.7862 11.5487C9.7825 11.5228 9.59938 11.7792 9.59938 11.7792C9.59938 11.7792 9.7726 11.7761 9.95328 11.9728C10.1584 12.1659 10.5153 12.5349 11.3872 12.3936C12.2348 12.2544 12.478 11.9117 12.5847 11.6438C12.6983 11.4233 12.8974 11.2659 12.8974 11.2659ZM9.61724 7.52876C9.61724 7.52876 9.43934 7.50703 9.19302 7.52189C9.20121 7.57029 9.22946 7.59175 9.23699 7.6407C9.33716 7.79967 9.44603 7.8577 9.53853 7.81782C9.5621 7.96497 9.53344 8.09506 9.5003 8.20123C9.69753 8.1927 9.84738 8.19462 9.84738 8.19462C9.64845 8.50376 8.25264 8.48066 8.25264 8.48066C8.33804 8.39072 8.52793 8.33406 8.72155 8.30243C8.66122 8.23753 8.62109 8.14292 8.59781 7.99632C8.58231 7.89868 8.56649 7.79967 8.59963 7.69323C8.64795 7.68663 8.66834 7.65885 8.66834 7.65885C8.4539 7.71771 8.20761 7.88411 7.96842 8.09946L8.01761 7.94049C8.01761 7.94049 8.47695 7.2364 9.66673 7.21825L9.94692 7.57469L9.92938 7.92949L9.61724 7.52876ZM9.81796 6.76554C8.6694 6.72786 7.49143 7.44845 7.49143 7.44845L7.49282 7.14592C8.22651 6.44843 9.58676 6.25095 9.58676 6.25095L9.81796 6.76554ZM14.0301 16.1858C13.1702 16.4011 12.7307 16.2977 12.0244 16.3874C11.3507 16.523 10.9904 16.7581 10.0343 16.8392C7.72562 17.1657 5.40409 15.2317 6.35914 10.4733C6.37621 10.4205 6.40065 10.2659 6.42572 10.1108C5.70424 10.1034 6.37409 9.16384 5.91039 8.28428C5.49956 7.42177 5.7428 7.23063 6.0613 7.20367L6.13343 7.19239C5.98378 6.56312 5.80109 6.04027 5.74163 5.67228C5.53917 4.39914 5.70764 3.59109 6.24303 3.05257C7.25882 1.4791 6.29062 0.857243 6.29062 0.857243C8.79709 -0.406818 10.243 0.714771 10.7948 1.68042C11.2984 2.65432 11.4053 4.72286 10.0257 5.42585C9.11317 5.77542 6.81274 6.15139 7.01177 7.40087C7.24811 8.56867 6.78822 9.42265 7.02208 10.2645C7.10441 10.6279 7.24036 11.008 7.39564 11.36C7.83767 11.6397 8.40101 11.8993 8.83126 11.3267C9.43605 10.599 10.0425 10.3492 10.474 10.2533C10.3413 10.2002 10.2163 10.1947 9.9982 10.2307C9.48988 10.314 9.49731 9.58465 9.49731 9.58465L9.76094 9.36407C9.76094 9.36407 9.7946 9.88719 9.9604 9.83465C10.1421 9.73014 10.1944 9.74637 10.3146 9.87701C10.4595 10.0041 10.7577 10.0063 11 9.96667C11 9.96667 11.3878 9.90342 11.4607 9.74087C11.4981 9.50764 11.5153 9.30439 11.4163 8.99332C11.3491 8.72764 11.6487 9.20675 11.6922 9.32584C11.7086 9.42348 11.7197 9.49691 11.9018 9.54339C12.1029 9.56017 12.1802 9.42238 12.0208 9.04558L12.3068 9.12452C12.3068 9.12452 12.5894 9.80715 12.0569 9.89434C11.8391 9.93037 11.7215 9.97465 11.6369 10.0635C12.0278 10.0247 12.6809 10.0687 13.4565 10.5715C14.0434 10.978 14.4658 10.5066 14.8548 10.1408C14.8926 9.75764 14.9272 9.35032 14.8926 8.97875C14.8523 8.10579 14.1259 7.44598 13.9623 6.26553C13.8499 5.40412 13.3554 4.95663 12.844 4.8645C11.2889 4.61532 11.7504 2.52945 11.0615 1.63669C12.7166 1.26594 14.2678 1.64027 14.6784 4.21267C14.7371 4.57984 14.7182 5.0859 14.7517 5.75891L14.7797 5.77927C15.0864 5.67915 15.4042 5.80347 15.2582 6.75702C15.1371 7.70754 16.0165 8.39265 15.4062 8.61762C15.482 8.78155 15.5544 8.92072 15.5868 8.96637C17.9732 13.1772 16.3467 15.757 14.0301 16.1858ZM26.5521 33.9274L18.4638 35.2488L18.1072 32.3919C18.3423 32.1527 18.8043 31.7747 19.4013 31.6264L18.4576 26.8049L18.3295 25.8442L18.1171 26.3813L14.5146 33.8581L8.70127 27.795L8.46442 27.5571L9.13356 33.3042C9.74691 33.2548 10.302 33.4657 10.6241 33.6139C10.8003 34.5649 10.9742 35.4926 11.1504 36.4432L3.42506 37.7067L3.04419 34.8518C3.30366 34.6093 3.98331 34.1964 4.58073 34.0482L3.15752 21.7093C2.59726 21.7761 1.74673 21.5888 1.49756 21.4274C1.30085 20.5049 1.12401 19.553 0.922852 18.6044L7.92179 17.4603L12.3739 23.0957L12.9034 23.7632L13.202 22.9846L16.1801 16.111L22.9121 15.0105C22.9921 15.9781 23.1205 16.9385 23.2447 17.8739C23.0093 18.1132 22.2857 18.5588 21.7085 18.6779L24.2937 30.8281C24.9071 30.7786 25.7044 30.9491 26.0024 31.1019L26.5521 33.9274Z" fill="#74140D"/>
<path d="M35.6141 23.958C35.6625 23.9534 36.3227 23.8926 36.8088 23.8216L36.4518 19.9156L35.1304 20.014C34.1268 20.0828 33.7508 21.0908 33.8234 21.8818C33.9134 22.8714 34.6127 24.0515 35.6141 23.958ZM36.1332 33.1318L35.9396 30.209C36.2147 29.984 36.7224 29.6133 37.3284 29.5057L37.0734 26.7139L35.7541 26.8372L34.2426 30.2437C32.7507 33.5972 31.6542 33.7256 28.6747 34.2781L27.9443 30.3347L30.1378 29.5318C30.0889 29.536 30.9296 27.688 31.5693 26.3316C29.6293 25.5912 29.0355 23.6761 28.8887 22.0694C28.6421 19.3748 30.6968 16.7892 34.5319 16.4303C34.5319 16.4303 37.0098 16.3225 38.2825 16.2279L42.8501 15.801L43.019 18.7271C42.7444 18.9518 42.2117 19.3264 41.6054 19.4332L42.4823 29.0248C43.0978 29.0168 43.6639 29.2874 43.9755 29.4571C44.0878 30.4188 44.2004 31.3804 44.3396 32.3628L36.1332 33.1318Z" fill="#74140D"/>
<path d="M45.3095 24.1131C45.0416 17.6641 49.0864 15.1566 54.0129 14.9459C55.777 14.8714 57.9 15.1294 59.3669 15.5884L59.3356 20.7332C59.0433 20.7945 58.775 20.8317 58.53 20.8418C56.7401 20.9177 55.8137 19.8891 55.2906 18.5194C55.0179 18.4565 54.7218 18.4196 54.2802 18.4383C52.3201 18.5222 50.606 20.4092 50.7537 23.9563C50.8864 27.1555 52.4781 28.8267 54.8555 28.7254C56.2036 28.6682 58.409 27.9778 59.7864 26.8509L60.1584 30.4865C58.655 31.5439 56.5951 32.1779 54.855 32.2516C49.2183 32.4921 45.5441 29.7433 45.3095 24.1131Z" fill="#74140D"/>
<path d="M62.2861 31.5777L62.4063 28.6509C62.7021 28.4547 63.2443 28.1363 63.858 28.0911L63.9306 18.4592C63.3172 18.4044 62.756 18.078 62.4626 17.8763L62.4112 14.9472L70.6775 15.0105L70.5823 17.9393C70.2867 18.1352 69.7201 18.4536 69.1064 18.4985L69.0833 21.5533L74.4308 21.594L74.4536 18.5403C73.8405 18.485 73.279 18.1588 72.9867 17.9586L72.9103 15.0273L81.2016 15.0913L81.0817 18.0199C80.785 18.216 80.2184 18.534 79.6047 18.5802L79.5327 28.2122C80.1455 28.266 80.707 28.5934 81.0006 28.7935L81.0518 31.7227L72.8092 31.6603L72.9059 28.7322C73.201 28.5354 73.7676 28.2174 74.3813 28.1728L74.4044 25.0941L69.0575 25.0526L69.0344 28.131C69.6472 28.186 70.1837 28.5128 70.4771 28.713L70.5285 31.6413L62.2861 31.5777Z" fill="#74140D"/>
<path d="M88.2568 23.8153C88.079 26.7637 89.2691 29.0264 91.2281 29.1477C93.1869 29.2681 94.6165 27.1683 94.7949 24.2199C94.973 21.2707 93.7826 19.0082 91.848 18.8883C89.889 18.767 88.4349 20.8655 88.2568 23.8153ZM82.7965 23.4767C83.1386 17.8267 86.8215 15.0461 92.0604 15.3698C97.3499 15.6971 100.62 18.9334 100.28 24.559C99.9397 30.1838 96.3042 32.9913 91.0158 32.6646C85.751 32.3384 82.4561 29.1018 82.7965 23.4767Z" fill="#74140D"/>
<path d="M109.205 20.7163L108.867 23.7503L108.987 23.7646C110.036 23.885 110.923 23.6851 111.069 22.3781C111.203 21.1696 110.473 20.8613 109.205 20.7163ZM108.47 27.3034L108.145 30.2124L108.17 30.2158C108.17 30.2158 109.358 30.4023 109.139 30.3769C110.066 30.4828 110.74 30.1856 110.853 29.1745C110.983 28.0146 110.201 27.5009 109.006 27.3642L108.47 27.3034ZM109.317 34.0932C107.83 33.9233 106.578 33.6301 105.75 33.5357L101.118 33.006L101.516 30.1049C101.831 29.9407 102.403 29.6817 103.018 29.7017L104.086 20.1303C102.317 19.8291 102.568 18.9083 102.692 17.7977C102.74 17.3788 102.84 16.9156 102.939 16.4767L106.205 16.851C106.741 16.9121 109.342 17.0595 110.707 17.2154C113.632 17.5488 116.931 19.4009 116.592 22.435C116.281 25.2222 114.335 25.6243 113.016 25.7247L112.983 26.0196C114.885 26.6623 116.538 27.5757 116.259 30.0664C115.965 32.7051 113.411 34.5602 109.317 34.0932Z" fill="#74140D"/>
<path d="M127.077 29.1546L126.46 32.8249L126.484 32.8298C126.484 32.8298 127.951 33.1319 127.709 33.0895C128.725 33.2653 129.446 32.3818 129.603 31.4531C129.791 30.3277 129.084 29.4998 127.899 29.2968L127.077 29.1546ZM118.901 18.2789L130.147 20.2154C129.959 21.1904 129.774 22.1404 129.565 23.0871C129.266 23.2372 128.656 23.4595 128.044 23.4036L127.669 25.6311L128.056 25.6985C134.49 26.8058 135.406 29.9349 134.991 32.4049C134.505 35.2914 131.743 37.5102 127.68 36.811C126.448 36.5978 125.162 36.2519 124.271 36.0731L119.265 35.2106C119.478 34.2417 119.662 33.2923 119.847 32.3411C120.17 32.1962 120.756 31.9691 121.369 32.0243L122.957 22.5791L121.458 22.3208C121.22 23.1363 120.968 23.8984 120.842 24.2043L117.976 23.7859L118.901 18.2789Z" fill="#74140D"/>
<path d="M39.4156 8.55322L39.3884 7.75672C39.5012 7.68906 39.7479 7.5829 39.9882 7.54549L39.6611 2.89301C39.4172 2.88998 39.1687 2.81929 39.0475 2.76951L38.9629 1.97686L45.7163 1.4906L45.7525 2.28655C45.6407 2.35339 45.3944 2.46038 45.1532 2.49668L45.4806 7.14999C45.7247 7.15164 45.983 7.2226 46.1138 7.27211L46.1886 8.06531L43.5302 8.25728L43.5031 7.45996C43.6151 7.39313 43.8617 7.28614 44.1026 7.24956L43.7752 2.59652L41.0386 2.79372L41.3665 7.44621C41.6104 7.44841 41.8687 7.51854 41.9897 7.56915L42.0745 8.36235L39.4156 8.55322Z" fill="#74140D"/>
<path d="M49.0896 2.27371L49.1951 4.32767C49.1951 4.32767 49.7299 4.30952 49.8465 4.30319C50.6919 4.25919 51.0951 3.7644 51.063 3.1464C51.0287 2.47779 50.5263 2.17827 49.9142 2.21128L49.0896 2.27371ZM49.2399 5.20228L49.3288 6.9317C49.5725 6.93858 50.0238 7.00376 50.1437 7.05629L50.2139 7.85142L47.3576 8.00049L47.3456 7.20316C47.4595 7.13908 47.7072 7.03676 47.9498 7.00514L47.7099 2.34687C46.8532 2.35182 46.997 1.92057 47.0288 1.41615L48.3989 1.34382C48.3989 1.34382 49.6597 1.23848 49.9411 1.22418C49.9806 1.2217 50.0189 1.2206 50.0678 1.21703C51.5837 1.13727 52.3771 1.99263 52.4287 3.00503C52.4747 3.88899 52.0021 5.1162 50.3213 5.20476C50.234 5.20861 50.1462 5.21356 50.0583 5.20861C49.952 5.21356 49.2399 5.20228 49.2399 5.20228Z" fill="#74140D"/>
<path d="M54.5266 4.35426C54.5739 5.79984 55.4228 6.76494 56.5313 6.72781C57.639 6.69013 58.4229 5.6692 58.3756 4.22444C58.3277 2.77913 57.4889 1.81404 56.3706 1.85116C55.2626 1.88857 54.4785 2.90977 54.5266 4.35426ZM53.0681 4.40349C52.9966 2.23044 54.3463 0.94465 56.3385 0.878091C58.3313 0.809883 59.7721 2.00271 59.8425 4.17493C59.9148 6.34771 58.5654 7.63267 56.5631 7.70116C54.5513 7.76964 53.1397 6.57599 53.0681 4.40349Z" fill="#74140D"/>
<path d="M63.3219 4.13431C63.3363 5.24627 63.0633 5.96769 62.5736 6.46523L64.9856 6.43552L64.9261 1.77148L63.2919 1.79238L63.3219 4.13431ZM66.927 0.780528L66.9177 1.57785C66.7915 1.63891 66.5496 1.7305 66.3065 1.75305L66.3668 6.41682L67.213 6.40554L67.2122 8.61985L66.4332 8.62837C66.3742 8.51148 66.285 7.6575 66.2622 7.38219L61.5741 7.44325C61.5586 7.72901 61.5116 8.58574 61.455 8.70428L60.6662 8.70511L60.5996 6.49218L60.9493 6.48723C62.2976 6.18359 62.3262 4.63982 62.318 3.9503L62.2903 1.80586C62.0469 1.78936 61.8022 1.70409 61.6752 1.64661L61.6459 0.850388L66.927 0.780528Z" fill="#74140D"/>
<path d="M68.2461 0.736267L70.921 0.754145L70.8963 1.5512C70.7696 1.6095 70.5347 1.69614 70.2921 1.71429L71.5211 3.9946L72.7623 1.73134C72.519 1.70961 72.2865 1.61913 72.1696 1.55972L72.1949 0.762669L74.7621 0.780547L74.7276 1.57732C74.6107 1.6359 74.3763 1.68321 74.1338 1.70109L72.4795 4.71987C72.2231 5.19046 71.967 5.75895 71.5733 6.30792C71.1027 6.97351 70.3623 7.24387 69.3881 7.37561L69.1716 6.2906C69.1716 6.2906 70.2242 6.00264 70.2242 5.99301C70.3416 5.95478 70.449 5.89647 70.5368 5.82771C70.654 5.68139 70.8014 5.48584 70.8903 5.34915L68.8913 1.70439C68.648 1.68321 68.3763 1.59245 68.2605 1.53359L68.2461 0.736267Z" fill="#74140D"/>
<path d="M78.5256 4.6611L77.7792 5.30055L77.7469 6.52006C77.9902 6.54701 78.2404 6.6419 78.3559 6.70378L78.3644 7.50111L75.6992 7.4296L75.7493 6.6342C75.8675 6.57809 76.1223 6.49668 76.3665 6.4832L76.4891 1.81999C75.7892 1.77158 75.8455 1.48857 75.8547 1.11397C75.8583 1.02513 75.8694 0.937123 75.8814 0.839211L78.5272 0.910719C78.5107 1.17613 78.493 1.43989 78.4862 1.70667C78.3584 1.7526 78.1131 1.84364 77.8698 1.85712L77.8135 3.99166L80.0874 1.9168C79.8438 1.88049 79.7198 1.79881 79.5762 1.73527L79.6159 0.938773L82.0092 1.00313L81.9581 1.79991C81.8308 1.84529 81.6437 1.92863 81.4586 1.94375L79.4734 3.78098L81.4159 6.52996L82.1188 6.80527L81.9523 7.60727C81.0192 7.58307 80.4028 7.33031 79.7929 6.4568L78.5256 4.6611Z" fill="#74140D"/>
<path d="M83.0527 2.92443L83.1074 1.04457L88.9007 1.31246L88.7873 3.1882L87.9975 3.21185C87.9439 3.09028 87.9034 2.4786 87.8958 2.22117L86.6497 2.19339L86.4414 6.83488C86.6831 6.86541 86.9311 6.96497 87.0456 7.02933L87.0382 7.82803L84.3755 7.70454L84.4402 6.90969C84.5593 6.85606 84.8157 6.77878 85.0604 6.7708L85.2701 2.12931L84.0269 2.05285C84.0049 2.30753 83.9225 2.85595 83.8363 3.01932L83.0527 2.92443Z" fill="#74140D"/>
<path d="M95.1934 8.32583L95.2771 7.53263C95.397 7.4823 95.6559 7.41079 95.8992 7.40776L96.2114 2.75472C95.9696 2.71869 95.7331 2.61445 95.6216 2.5468L95.6447 1.75002L98.2843 1.93099C98.2566 2.19558 98.2288 2.45989 98.2117 2.72475C98.0815 2.77563 97.8327 2.84631 97.5885 2.85016L97.2777 7.50183C97.5181 7.53868 97.7644 7.64347 97.8767 7.71085L97.8528 8.50873L95.1934 8.32583ZM91.7721 4.98581L91.6301 7.10522C91.7082 7.1099 92.4638 7.18141 92.5704 7.18966C93.1813 7.24027 93.6686 6.80104 93.7102 6.18276C93.7496 5.58401 93.3347 5.09279 92.4999 5.03531L91.7721 4.98581ZM92.637 1.54347C92.619 1.80888 92.5908 2.07374 92.5641 2.33749C92.4442 2.38865 92.1851 2.45961 91.9417 2.46264L91.8373 4.01328L92.4486 4.05509C94.7581 4.21378 95.2271 5.3604 95.1659 6.27297C95.0892 7.41079 94.1534 8.29448 92.6487 8.19079C92.1734 8.15861 91.4387 8.06867 91.0994 8.04502C91.07 8.04282 91.0404 8.04117 91.0121 8.0398L89.5566 7.93886L89.6388 7.14593C89.7587 7.09505 90.017 7.02409 90.2617 7.02107L90.5735 2.36885C89.7217 2.27039 89.9153 1.86004 90.0069 1.36332L92.637 1.54347Z" fill="#74140D"/>
<path d="M141.562 14.8064C141.419 14.8064 141.313 14.8323 141.249 14.8808C140.802 15.221 141.127 17.4091 142.582 20.8259C144.934 20.7045 146.685 20.1291 146.891 19.3921C147.098 18.6533 146.021 17.2179 144.386 16.0535C143.143 15.1675 142.097 14.8064 141.562 14.8064ZM141.908 21.9353L141.763 21.6044C139.921 17.3903 139.536 14.8352 140.621 14.0097C141.601 13.2639 143.519 14.1161 144.988 15.1626C147.56 16.9954 148.182 18.7036 147.906 19.6916C147.689 20.4659 146.667 21.7858 142.261 21.9241L141.908 21.9353Z" fill="#80BA27"/>
<path d="M142.787 12.2863C142.007 12.2863 140.796 12.6717 139.503 13.5168C137.147 15.0558 136.509 16.6921 136.677 17.6257C136.952 19.1488 139.183 20.4835 141.936 20.8068C144.034 16.4766 144.382 13.1194 143.48 12.4565C143.328 12.3445 143.09 12.2863 142.787 12.2863ZM142.553 21.9524L142.201 21.9228C138.72 21.6284 136.022 19.9426 135.64 17.8233C135.275 15.8006 137.103 13.8 138.936 12.6019C140.664 11.4732 142.929 10.7182 144.095 11.5749C145.42 12.549 145.508 16.0358 142.714 21.6298L142.553 21.9524Z" fill="#80BA27"/>
<path d="M138.442 18.2412C138.39 18.2412 138.345 18.2494 138.308 18.2659C138.047 18.381 137.674 19.1401 137.65 20.2654C137.631 21.1293 137.86 22.2619 138.563 22.6104C139.289 22.9704 140.614 22.576 141.608 21.3445C140.301 19.1639 138.987 18.2412 138.442 18.2412ZM139.149 23.8196C138.777 23.8196 138.423 23.7446 138.104 23.5869C137.126 23.1014 136.561 21.8511 136.595 20.242C136.619 19.1247 136.972 17.676 137.891 17.27C139.128 16.7237 141.107 18.3019 142.701 21.1094L142.873 21.4125L142.674 21.6978C141.752 23.0227 140.359 23.8196 139.149 23.8196Z" fill="#80BA27"/>
<path d="M142.923 21.4631C143.909 22.8471 145.744 23.368 147.194 22.6146C148.721 21.8206 148.944 20.0654 148.976 19.5465C149.038 18.5305 148.755 17.858 148.535 17.7053C148.024 17.3497 146.058 18.3852 142.923 21.4631ZM145.774 24.041C144.196 24.041 142.625 23.1649 141.786 21.6506L141.584 21.2865L141.876 20.994C145.486 17.3831 147.926 15.9745 149.126 16.8067C149.752 17.2413 150.107 18.3434 150.029 19.6144C149.92 21.3876 149.039 22.8708 147.67 23.5819C147.071 23.8934 146.422 24.041 145.774 24.041Z" fill="#80BA27"/>
<path d="M140.577 31.4711C140.057 29.7976 139.936 28.3002 140.109 26.5604C140.3 24.6397 140.93 22.7547 141.933 21.1094L142.827 21.6846C141.911 23.1898 141.334 24.9139 141.159 26.6704C141.001 28.2613 141.187 29.9101 141.662 31.4409L140.577 31.4711Z" fill="#80BA27"/>
</svg>
