<svg width="267" height="95" viewBox="0 0 267 95" fill="none" xmlns="http://www.w3.org/2000/svg">
<path fill-rule="evenodd" clip-rule="evenodd" d="M252.393 37.2559C252.393 34.3611 254.676 32 257.411 32C260.227 32 262.435 34.3611 262.435 37.2559C262.435 40.1506 260.227 42.5117 257.411 42.5117C254.676 42.5871 252.393 40.2261 252.393 37.2559ZM257.411 41.3689C259.543 41.3689 261.218 39.5415 261.218 37.3313C261.218 35.121 259.468 33.2937 257.411 33.2937C255.284 33.2937 253.61 35.121 253.61 37.3313C253.61 39.5415 255.284 41.3689 257.411 41.3689ZM256.727 39.6169H255.661V34.9702H257.567C257.944 34.9702 258.402 34.9702 258.709 35.1964C259.085 35.4285 259.242 35.881 259.242 36.3393C259.242 36.873 258.935 37.3313 258.477 37.4821L259.317 39.5415H258.176L257.492 37.7084H256.727V39.6169ZM256.727 37.0238H257.336C257.567 37.0238 257.793 37.0238 257.944 36.9484C258.095 36.873 258.176 36.6467 258.176 36.4147C258.176 36.2639 258.095 36.0376 257.944 35.9622C257.793 35.881 257.492 35.881 257.336 35.881H256.803L256.727 37.0238Z" fill="#FD0C15"/>
<path fill-rule="evenodd" clip-rule="evenodd" d="M180.486 2.13483L179.118 11.1267C176.152 9.52553 173.944 8.9164 171.586 8.9164C165.345 8.9164 160.93 15.3151 160.93 24.3823C160.93 30.6244 163.897 34.4358 168.77 34.4358C170.821 34.4358 173.104 33.7512 175.92 32.3009L174.471 41.751C171.354 42.6618 169.378 42.9693 167.02 42.9693C157.964 42.9693 152.332 36.1123 152.332 25.1423C152.332 10.3609 160.096 0 171.279 0C172.722 0 174.02 0.150831 175.086 0.458293L178.585 1.37488C179.495 1.75196 179.727 1.82737 180.486 2.13483Z" fill="#FD0C15"/>
<path fill-rule="evenodd" clip-rule="evenodd" d="M152.563 8.30784C152.332 8.23242 152.03 8.23242 151.723 8.23242C148.982 8.23242 147.389 9.67691 144.799 13.7145L145.558 8.6095H137.95L132.776 42.2041H141.224C144.266 21.6389 145.025 18.135 149.058 18.135C149.29 18.135 149.365 18.135 149.666 18.135C150.431 14.0974 151.416 11.1272 152.865 8.38325L152.563 8.30784Z" fill="#FD0C15"/>
<path fill-rule="evenodd" clip-rule="evenodd" d="M102.263 41.7518C99.98 42.5118 98.1548 42.8888 96.2543 42.8888C91.9955 42.8888 89.6372 40.3015 89.6372 35.5039C89.6372 34.5874 89.7125 33.5199 89.8632 32.4525L90.3963 29.1807L90.7729 26.5121L94.4291 3.58008H102.796L101.811 8.53428H106.145L104.928 16.6849H100.664L98.4619 30.7006C98.3866 31.3097 98.3054 31.768 98.3054 32.0754C98.3054 33.8274 99.2209 34.5874 101.203 34.5874C102.188 34.5874 102.871 34.5119 103.48 34.2857L102.263 41.7518Z" fill="#FD0C15"/>
<path fill-rule="evenodd" clip-rule="evenodd" d="M69.0909 19.1967C69.0909 23.4664 71.0667 26.3612 75.482 28.5714C78.8311 30.2479 79.4395 30.7758 79.4395 32.3016C79.4395 34.361 77.9156 35.3472 74.6418 35.3472C72.1329 35.3472 69.8499 34.9701 67.1092 33.9781L65.9678 41.7517L66.3502 41.8271L67.8741 42.1287C68.4072 42.2042 69.0909 42.355 70.0759 42.4362C72.0576 42.587 73.6568 42.7379 74.7171 42.7379C83.5476 42.7379 87.6557 39.1585 87.6557 31.5416C87.6557 26.9703 85.9812 24.2263 81.7224 22.1727C78.2227 20.4962 77.8402 20.1133 77.8402 18.5122C77.8402 16.6848 79.2077 15.774 81.9484 15.774C83.6229 15.774 85.8305 16.0003 87.9628 16.3019L89.1796 8.53415C86.972 8.15127 83.6982 7.84961 81.7977 7.84961C72.2835 7.84961 69.0156 12.9546 69.0909 19.1967Z" fill="#FD0C15"/>
<path fill-rule="evenodd" clip-rule="evenodd" d="M247.52 42.1279H239.53L239.912 38.8561C237.629 41.4434 235.195 42.5862 232.153 42.5862C225.988 42.5862 221.956 37.0229 221.956 28.646C221.956 17.4439 228.196 7.99963 235.653 7.99963C238.921 7.99963 241.361 9.44992 243.719 12.571L245.544 0.759766H253.836L247.52 42.1279ZM235.12 34.2847C239.078 34.2847 241.813 29.638 241.813 22.9318C241.813 18.668 240.219 16.3011 237.322 16.3011C233.521 16.3011 230.78 21.0291 230.78 27.5786C230.78 31.9991 232.229 34.2847 235.12 34.2847Z" fill="#FD0C15"/>
<path fill-rule="evenodd" clip-rule="evenodd" d="M128.894 41.4446C126.002 42.3554 123.267 42.8137 120.225 42.8137C110.862 42.8137 105.919 37.6333 105.919 27.7307C105.919 16.1515 112.154 7.69922 120.602 7.69922C127.526 7.69922 131.942 12.4968 131.942 19.9629C131.942 22.3994 131.634 24.8359 130.875 28.2644H114.136C114.06 28.7981 114.06 29.0301 114.06 29.3318C114.06 33.294 116.569 35.2722 121.442 35.2722C124.409 35.2722 127.15 34.5877 130.192 33.1432L128.894 41.4446ZM124.177 21.4074C124.258 20.7229 124.258 20.1137 124.258 19.7309C124.258 16.9869 122.81 15.3916 120.301 15.3916C117.635 15.3916 115.735 17.5264 114.97 21.4074H124.177Z" fill="#FD0C15"/>
<path fill-rule="evenodd" clip-rule="evenodd" d="M35.3044 42.1288H26.9375L31.7293 10.3615L20.923 42.1288H15.2157L14.5319 10.5936L9.43298 42.1288H1.59912L8.14085 0.841797H20.2393L20.5464 26.4366L28.7627 0.841797H41.8519L35.3044 42.1288Z" fill="#FD0C15"/>
<path fill-rule="evenodd" clip-rule="evenodd" d="M56.9925 27.1958C56.077 27.1204 55.7003 27.0449 55.0919 27.0449C50.2943 27.0449 47.936 28.7969 47.936 32.15C47.936 34.2094 49.1528 35.5785 50.978 35.5785C54.3271 35.5785 56.8418 32.15 56.9925 27.1958ZM63.0764 42.128H56.077L56.2276 38.6241C54.1011 41.4434 51.2851 42.6617 47.4029 42.6617C42.837 42.6617 39.7197 38.9315 39.7197 33.519C39.7197 25.293 45.1953 20.5708 54.4835 20.5708C55.4686 20.5708 56.6854 20.6462 57.9022 20.7971C58.1339 19.6542 58.2092 19.1959 58.2092 18.5868C58.2092 16.3824 56.7665 15.5412 52.809 15.5412C50.4507 15.5412 47.71 15.9241 45.8037 16.5332L44.7434 16.9103L43.9785 17.1423L45.12 9.60081C49.3035 8.30715 52.1195 7.77344 55.1673 7.77344C62.3927 7.77344 66.1996 11.2019 66.1996 17.6006C66.1996 19.2772 66.0431 20.4954 65.51 24.301L63.8413 36.263L63.5342 38.3978L63.3082 40.0686L63.1576 41.2926L63.0764 42.128Z" fill="#FD0C15"/>
<path fill-rule="evenodd" clip-rule="evenodd" d="M195.018 27.197C194.183 27.1215 193.726 27.0461 193.117 27.0461C188.325 27.0461 185.886 28.7981 185.886 32.1512C185.886 34.2106 187.109 35.5797 188.934 35.5797C192.358 35.5797 194.867 32.1512 195.018 27.197ZM201.108 42.1292H194.108L194.259 38.6253C192.127 41.4446 189.31 42.6629 185.434 42.6629C180.868 42.6629 177.745 38.9327 177.745 33.5202C177.745 25.2942 183.226 20.572 192.509 20.572C193.419 20.572 194.717 20.6474 195.933 20.7983C196.159 19.6554 196.235 19.1971 196.235 18.588C196.235 16.3836 194.792 15.5424 190.834 15.5424C188.476 15.5424 185.735 15.9253 183.835 16.5344L182.618 16.8361L181.853 17.0681L182.995 9.52659C187.184 8.23293 190 7.69922 193.042 7.69922C200.267 7.69922 204.074 11.1277 204.074 17.5264C204.074 19.1971 203.924 20.4212 203.391 24.2268L201.641 36.1134L201.409 38.2482L201.183 39.9189L201.032 41.0618L201.108 42.1292Z" fill="#FD0C15"/>
<path fill-rule="evenodd" clip-rule="evenodd" d="M224.62 8.30784C224.389 8.23242 224.087 8.23242 223.78 8.23242C221.04 8.23242 219.44 9.67691 216.856 13.7145L217.621 8.6095H210.007L204.833 42.2041H213.281C216.323 21.6389 217.082 18.135 221.115 18.135C221.347 18.135 221.347 18.135 221.729 18.135C222.488 14.0974 223.554 11.1272 224.922 8.38325L224.62 8.30784Z" fill="#FD0C15"/>
<path fill-rule="evenodd" clip-rule="evenodd" d="M189.311 74.8123C189.311 82.4293 186.952 86.9252 183.227 86.9252C180.486 87.0006 178.887 83.955 178.887 79.4591C178.887 74.1278 181.32 68.0308 185.127 68.0308C188.244 68.0308 189.311 71.3084 189.311 74.8123ZM197.608 74.8877C197.608 66.4296 193.419 59.8047 185.585 59.8047C176.528 59.8047 170.67 67.8045 170.67 79.6099C170.67 88.068 174.17 95.0004 182.694 95.0004C191.292 95.0004 197.608 88.9034 197.608 74.8877Z" fill="#F3AE12"/>
<path fill-rule="evenodd" clip-rule="evenodd" d="M173.336 53.9395L172.038 62.9255C169.228 61.3302 167.246 60.7153 165.038 60.7153C159.18 60.7153 155.072 67.1198 155.072 76.1812C155.072 82.4291 157.813 86.2405 162.379 86.2405C164.355 86.2405 166.487 85.5501 169.071 84.1056L167.704 93.5499C164.812 94.4665 162.906 94.7682 160.704 94.7682C152.256 94.7682 146.931 87.917 146.931 76.9412C146.931 62.1656 154.232 51.8047 164.662 51.8047C166.029 51.8047 167.171 51.9555 168.161 52.263L171.354 53.1738C172.42 53.4812 172.646 53.5566 173.336 53.9395Z" fill="#F3AE12"/>
<path fill-rule="evenodd" clip-rule="evenodd" d="M121.361 60.0305C121.135 59.9551 120.834 59.9551 120.527 59.9551C117.942 59.9551 116.494 61.4054 114.06 65.4372L114.819 60.338H107.744L102.947 93.9326H110.786C113.602 73.3616 114.361 69.8577 118.093 69.8577C118.319 69.8577 118.319 69.8577 118.701 69.9331C119.385 65.8955 120.376 62.9253 121.668 60.1813L121.361 60.0305Z" fill="#F3AE12"/>
<path fill-rule="evenodd" clip-rule="evenodd" d="M223.931 93.6248H216.474L216.856 90.353C214.724 92.9403 212.441 94.0831 209.549 94.0831C203.842 94.0831 200.041 88.5198 200.041 80.1429C200.041 68.9466 205.899 59.4965 212.823 59.4965C215.865 59.4965 218.223 60.9468 220.356 64.1433L222.106 52.3379H229.87L223.931 93.6248ZM212.29 85.7062C216.022 85.7062 218.531 81.0595 218.531 74.3533C218.531 70.0895 217.082 67.8038 214.347 67.8038C210.772 67.8038 208.257 72.4506 208.257 79.0755C208.257 83.496 209.625 85.7062 212.29 85.7062Z" fill="#F3AE12"/>
<path fill-rule="evenodd" clip-rule="evenodd" d="M47.71 93.4739C45.0446 94.3905 42.4604 94.8488 39.6443 94.8488C30.895 94.8488 26.3291 89.6684 26.3291 79.76C26.3291 68.262 32.1871 59.7285 40.021 59.7285C46.4932 59.7285 50.6013 64.4507 50.6013 71.9922C50.6013 74.4287 50.2942 76.8652 49.6105 80.2937H34.0123C33.937 80.8274 33.937 81.0594 33.937 81.3611C33.937 85.2479 36.2952 87.2261 40.8611 87.2261C43.6772 87.2261 46.1861 86.5415 49.0021 85.097L47.71 93.4739ZM43.2947 73.4367C43.2947 72.7521 43.3701 72.143 43.3701 71.766C43.3701 69.022 42.0026 67.4209 39.6443 67.4209C37.1296 67.4209 35.3798 69.5557 34.6207 73.4367H43.2947Z" fill="#F3AE12"/>
<path fill-rule="evenodd" clip-rule="evenodd" d="M141.149 93.4739C138.483 94.3905 135.899 94.8488 133.083 94.8488C124.258 94.8488 119.687 89.6684 119.687 79.76C119.687 68.262 125.55 59.7285 133.384 59.7285C139.851 59.7285 144.04 64.4507 144.04 71.9922C144.04 74.4287 143.733 76.8652 143.049 80.2937H127.451C127.376 80.8274 127.376 81.0594 127.376 81.3611C127.376 85.2479 129.734 87.2261 134.3 87.2261C137.116 87.2261 139.625 86.5415 142.441 85.097L141.149 93.4739ZM136.733 73.4367C136.809 72.7521 136.809 72.143 136.809 71.766C136.809 69.022 135.441 67.4209 133.083 67.4209C130.568 67.4209 128.818 69.5557 128.059 73.4367H136.733Z" fill="#F3AE12"/>
<path fill-rule="evenodd" clip-rule="evenodd" d="M250.718 93.4739C247.977 94.3905 245.393 94.8488 242.652 94.8488C233.903 94.8488 229.262 89.6684 229.262 79.76C229.262 68.262 235.12 59.7285 243.035 59.7285C249.501 59.7285 253.609 64.4507 253.609 71.9922C253.609 74.4287 253.302 76.8652 252.618 80.2937H237.02C236.945 80.8274 236.945 81.0594 236.945 81.3611C236.945 85.2479 239.303 87.2261 243.869 87.2261C246.685 87.2261 249.194 86.5415 252.01 85.097L250.718 93.4739ZM246.303 73.4367C246.303 72.7521 246.378 72.143 246.378 71.766C246.378 69.022 245.011 67.4209 242.652 67.4209C240.138 67.4209 238.393 69.5557 237.629 73.4367H246.303Z" fill="#F3AE12"/>
<path fill-rule="evenodd" clip-rule="evenodd" d="M24.4229 61.5558C22.9048 60.4884 20.7725 59.653 17.8811 59.653C14.6827 59.653 12.1738 60.3375 12.1738 63.6848C12.1738 69.631 23.7391 67.4208 23.7391 80.2181C23.7391 91.8727 16.1313 94.9241 9.2071 94.9241C6.16511 94.9241 2.58425 93.9321 0 92.7139L1.90052 84.1803C3.49974 85.6306 6.62285 86.6168 9.28242 86.6168C11.7913 86.6168 15.5982 85.9323 15.5982 81.5872C15.5982 74.8114 4.03281 77.3234 4.03281 65.4368C4.03281 54.548 10.8063 51.3457 17.3481 51.3457C20.9984 51.3457 24.504 51.8794 26.4798 53.2485L24.4229 61.5558Z" fill="#F3AE12"/>
<path fill-rule="evenodd" clip-rule="evenodd" d="M70.69 93.4735C69.0908 94.2335 66.8832 94.7672 63.6848 94.7672C56.8417 94.7672 52.5771 87.916 52.5771 79.5333C52.5771 68.5633 58.7423 59.8789 67.7929 59.8789C69.7745 59.8789 72.8165 60.7143 75.1748 62.0892L73.4307 70.089C71.7504 68.9461 70.0005 68.2616 68.1753 68.2616C63.9919 68.2616 60.9499 72.1426 60.9499 78.9996C60.9499 82.9618 63.1575 86.2394 66.5819 86.2394C68.6331 86.2394 70.0758 85.7811 71.8315 84.7891L70.69 93.4735Z" fill="#F3AE12"/>
<path fill-rule="evenodd" clip-rule="evenodd" d="M100.055 85.0168C99.6786 87.9174 99.2961 90.731 99.0702 93.7012H91.5376L92.146 88.2945H92.0707C89.7124 91.955 87.2788 94.467 82.9389 94.467C78.2224 94.467 75.6323 89.4373 75.6323 82.9632C75.6323 80.6776 75.783 79.4593 76.2407 75.9554L78.373 60.4141H86.8211L84.5381 76.0308C84.3063 77.7074 84.005 79.3839 84.005 81.1359C84.005 83.1141 84.9147 85.0981 87.1977 84.9414C90.6221 84.9414 92.6791 80.753 93.2875 75.8046L95.6457 60.4141H103.787L100.055 85.0168Z" fill="#F3AE12"/>
<path fill-rule="evenodd" clip-rule="evenodd" d="M258.552 93.3226H257.26V87.7593H255.435V86.541H260.377V87.7593H258.552V93.3226Z" fill="#F3AE12"/>
<path fill-rule="evenodd" clip-rule="evenodd" d="M267 93.3226H265.783V87.6838L264.642 93.3226H263.425L262.284 87.6838V93.3226H261.067V86.541H262.967L264.034 91.8723H264.109L265.175 86.541H267V93.3226Z" fill="#F3AE12"/>
</svg>
