<svg width="200" height="54" viewBox="0 0 200 54" fill="none" xmlns="http://www.w3.org/2000/svg">
<path d="M47.8452 34.9999L47.8149 33.2979C48.0544 33.1553 48.5908 32.9369 49.1091 32.8641L48.5424 22.9222C48.0241 22.9101 47.4876 22.7523 47.2239 22.6401L47.0693 20.9442L61.648 20.1099L61.7116 21.8118C61.4631 21.9514 60.9266 22.1729 60.4083 22.2457L60.9721 32.1875C61.5025 32.1997 62.0511 32.3574 62.3299 32.4667L62.4724 34.1656L56.7288 34.4902L56.6985 32.7882C56.9471 32.6487 57.4744 32.4302 57.9927 32.3574L57.429 22.4156L51.5217 22.7523L52.0885 32.6942C52.6159 32.7063 53.1675 32.8641 53.4312 32.9763L53.5858 34.6722" fill="white"/>
<path d="M64.6075 34.0871V32.3851C64.853 32.2486 65.3895 32.0392 65.9108 31.9755L65.538 22.0215C63.6891 22.0094 64.0074 21.0932 64.0953 20.0162L74.3125 19.6309L74.4519 23.3261C74.1579 23.3989 73.8851 23.4323 73.6608 23.4383C72.5424 23.4808 72.1636 22.8225 72.0635 21.7758L68.5174 21.9093L68.6629 25.7319L71.0936 25.6409C71.13 25.5135 71.2331 24.8976 71.2725 24.7914H72.9546L72.9152 26.6026L73.1092 28.4441L71.418 28.5716C71.3482 28.4472 71.2179 27.8647 71.1694 27.6978L68.7417 27.7888L68.8902 31.8633L72.7546 31.7176C72.8 30.6437 73.1092 29.9793 74.2428 29.9368C74.467 29.9277 74.7459 29.9398 75.0429 29.9914C75.0884 31.2504 75.1338 32.5125 75.1823 33.7716L72.8698 33.7746" fill="white"/>
<path d="M83.4677 27.4128L81.9219 28.8508L81.9704 31.4569C82.4978 31.4872 83.0494 31.6662 83.304 31.7876L83.398 33.4895L77.6484 33.6018L77.6787 31.8998C77.9272 31.7694 78.4697 31.5691 78.9911 31.5145L78.7971 21.5575C77.2847 21.5241 77.3756 20.9113 77.3604 20.1134C77.3544 19.9253 77.3756 19.7342 77.3907 19.5248L83.104 19.4095C83.0858 19.9799 83.0797 20.5472 83.0949 21.1146C82.8221 21.2238 82.3038 21.4452 81.7765 21.4968L81.8704 26.0567L86.5622 21.4028C86.0349 21.3512 85.756 21.1874 85.4469 21.066L85.4529 19.364L90.6146 19.2639L90.5812 20.9659C90.3175 21.0751 89.9144 21.2723 89.5204 21.3239L85.4226 25.4408L89.8841 31.111L91.4268 31.6268L91.148 33.3561C89.1324 33.3955 87.7746 32.9192 86.3774 31.1171" fill="white"/>
<path d="M99.5829 22.6163L97.8674 27.2641L101.692 27.2581L100.001 22.6163L99.8314 21.776H99.7526L99.5829 22.6163ZM92.9482 33.3227L93.0119 31.6207C93.2362 31.5145 93.4696 31.3689 93.9727 31.284L97.8613 21.1479H97.7583C97.1461 21.0023 96.7429 20.5199 96.7278 19.8889C96.7278 19.7008 96.7187 19.534 96.7672 19.3216L101.85 19L106.272 31.2415C106.799 31.284 107.118 31.4721 107.387 31.5965C107.387 32.1638 107.412 32.7311 107.436 33.2984L101.726 33.3075C101.726 32.7402 101.741 32.1729 101.762 31.6056C102.011 31.4781 102.577 31.29 103.105 31.2476L102.408 29.2938L97.1612 29.3029L96.843 30.1857C96.7035 30.5437 96.5581 30.9017 96.4338 31.2567C96.9521 31.2991 97.5431 31.4872 97.8129 31.6116C97.8129 32.1789 97.8371 32.7463 97.8613 33.3136" fill="white"/>
<path d="M114.107 21.4091L114.031 25.7991C114.031 25.7991 115.186 25.8415 115.435 25.8476C117.259 25.881 118.205 24.8859 118.229 23.5631C118.25 22.1342 117.211 21.4243 115.892 21.397L114.107 21.4091ZM113.992 27.6709L113.928 31.3661C114.45 31.4208 115.41 31.624 115.668 31.7545L115.698 33.4595L109.521 33.3472L109.615 31.6483C109.873 31.5269 110.422 31.3479 110.949 31.3146L111.128 21.3545C109.282 21.2362 109.655 20.3412 109.803 19.2703L112.758 19.3249C112.758 19.3249 115.489 19.2885 116.102 19.3006C116.18 19.3006 116.265 19.3036 116.374 19.3067C119.648 19.3643 121.23 21.306 121.193 23.4691C121.154 25.3622 119.951 27.9015 116.32 27.8378C116.132 27.8348 115.947 27.8317 115.753 27.8044C115.529 27.8014 113.992 27.6709 113.992 27.6709Z" fill="white"/>
<path d="M122.533 33.5835L122.657 31.8845C122.915 31.7693 123.473 31.5994 124 31.5781L124.367 21.6241C123.846 21.5604 123.327 21.3541 123.079 21.2176V19.5156L128.789 19.728L128.68 21.4269C128.401 21.5422 127.874 21.7121 127.346 21.7334L127.207 25.5985L133.451 25.8321L133.599 21.967C133.081 21.9063 132.559 21.6969 132.311 21.5604V19.8584L138.021 20.0708L137.912 21.7698C137.657 21.885 137.121 22.058 136.603 22.0792L136.23 32.0332C136.748 32.0939 137.269 32.3032 137.533 32.4397L137.518 34.1417L131.768 33.9263L131.893 32.2304C132.147 32.1121 132.699 31.9452 133.226 31.9209L133.381 27.8678L127.128 27.6341L126.98 31.6873C127.501 31.7511 128.037 31.9604 128.283 32.0939V33.7959" fill="white"/>
<path d="M147.233 27.2185L148.157 27.2731L148.412 22.7193L146.83 22.5858C145.487 22.51 144.229 23.1107 144.144 24.6003C144.044 26.2992 144.99 27.1093 146.62 27.2064L147.233 27.2185ZM139.931 34.2691L139.737 32.5095L141.319 32.0544C141.359 32.0362 142.632 30.1097 143.641 28.5685C141.677 27.6978 141.11 25.7501 141.195 24.2817C141.329 22.1004 143.135 20.268 146.636 20.4712C146.636 20.4712 148.512 20.6411 149.436 20.717L152.873 20.9142C152.937 21.9912 153.237 22.9135 151.391 22.8922L150.818 32.8341C151.337 32.9069 151.873 33.1284 152.122 33.2679L152.082 34.9699L146.342 34.6392L146.502 32.9433C146.76 32.8311 147.318 32.6733 147.845 32.6612L148.048 29.0752L146.557 29.0327L144.332 32.2911C143.114 34.0962 141.917 34.3844 139.931 34.2691Z" fill="white"/>
</svg>
