<svg width="200" height="54" viewBox="0 0 200 54" fill="none" xmlns="http://www.w3.org/2000/svg">
<path d="M42.3198 34.6956L42.2661 33.0963C42.4889 32.9605 42.976 32.7473 43.4506 32.6722L42.8047 23.3308C42.323 23.3247 41.8323 23.1828 41.5928 23.0828L41.4258 21.4913L54.7625 20.515L54.8339 22.1131C54.6133 22.2473 54.1268 22.4621 53.6505 22.535L54.297 31.8781C54.7792 31.8814 55.2893 32.0239 55.5476 32.1233L55.6952 33.7159L50.4455 34.1014L50.3918 32.5005C50.613 32.3663 51.1 32.1515 51.5757 32.078L50.9292 22.7355L45.5249 23.1314L46.1724 32.4728C46.6541 32.4773 47.1642 32.6181 47.4031 32.7197L47.5706 34.3123L42.3198 34.6956Z" fill="white"/>
<path d="M61.4253 22.087L61.6337 26.211C61.6337 26.211 62.6898 26.1746 62.9202 26.1619C64.5896 26.0735 65.3859 25.0801 65.3225 23.8392C65.2548 22.4968 64.2626 21.8954 63.0539 21.9617L61.4253 22.087ZM61.7223 27.9671L61.8978 31.4395C62.3789 31.4533 63.2703 31.5842 63.5071 31.6897L63.6456 33.2861L58.005 33.5854L57.9813 31.9845C58.2063 31.8559 58.6955 31.6504 59.1744 31.5869L58.7008 22.2339C57.0089 22.2438 57.293 21.378 57.3558 20.3652L60.0615 20.2199C60.0615 20.2199 62.5513 20.0084 63.107 19.9797C63.1849 19.9748 63.2606 19.9725 63.3573 19.9654C66.3508 19.8052 67.9176 21.5226 68.0196 23.5554C68.1103 25.3302 67.1771 27.7943 63.8577 27.9721C63.6853 27.9798 63.5119 27.9897 63.3385 27.9798C63.1285 27.9897 61.7223 27.9671 61.7223 27.9671Z" fill="white"/>
<path d="M72.1619 26.2644C72.2553 29.1669 73.9317 31.1046 76.1208 31.0301C78.3084 30.9544 79.8564 28.9045 79.763 26.0037C79.6685 23.1018 78.012 21.164 75.8035 21.2386C73.6154 21.3137 72.0669 23.3641 72.1619 26.2644ZM69.2817 26.3632C69.1405 22.0001 71.8059 19.4184 75.7401 19.2848C79.6754 19.1478 82.5207 21.5428 82.6598 25.9043C82.8026 30.2669 80.1377 32.8469 76.1837 32.9844C72.2108 33.1219 69.4229 30.7252 69.2817 26.3632Z" fill="white"/>
<path d="M89.5322 25.8228C89.5606 28.0555 89.0215 29.5039 88.0545 30.5029L92.8178 30.4433L92.7002 21.0786L89.4731 21.1206L89.5322 25.8228ZM96.6516 19.089L96.6333 20.6899C96.3842 20.8125 95.9063 20.9964 95.4263 21.0416L95.5455 30.4057L97.2164 30.3831L97.2148 34.8291L95.6765 34.8462C95.5599 34.6115 95.3838 32.8968 95.3387 32.344L86.0807 32.4666C86.0501 33.0404 85.9572 34.7606 85.8455 34.9986L84.2878 35.0002L84.1562 30.557L84.8468 30.5471C87.5095 29.9374 87.5659 26.8378 87.5498 25.4534L87.495 21.1477C87.0144 21.1145 86.5312 20.9433 86.2804 20.8279L86.2224 19.2292L96.6516 19.089Z" fill="white"/>
<path d="M99.2549 19.0001L104.537 19.036L104.489 20.6363C104.238 20.7534 103.774 20.9274 103.295 20.9638L105.722 25.5423L108.174 20.998C107.693 20.9544 107.234 20.7727 107.003 20.6534L107.053 19.0531L112.123 19.089L112.055 20.6888C111.824 20.8064 111.361 20.9014 110.882 20.9373L107.615 26.9985C107.109 27.9434 106.603 29.0848 105.826 30.1871C104.896 31.5235 103.434 32.0663 101.51 32.3308L101.083 30.1523C101.083 30.1523 103.161 29.5741 103.161 29.5548C103.393 29.478 103.605 29.3609 103.779 29.2229C104.01 28.9291 104.301 28.5365 104.477 28.262L100.529 20.9439C100.048 20.9014 99.5121 20.7192 99.2833 20.601L99.2549 19.0001Z" fill="white"/>
<path d="M119.555 26.88L118.081 28.1639L118.017 30.6125C118.498 30.6666 118.992 30.8571 119.22 30.9814L119.237 32.5823L113.974 32.4387L114.072 30.8416C114.306 30.729 114.809 30.5655 115.291 30.5385L115.533 21.1755C114.151 21.0783 114.263 20.5101 114.281 19.7579C114.288 19.5796 114.31 19.4028 114.333 19.2063L119.558 19.3498C119.526 19.8827 119.491 20.4123 119.477 20.948C119.225 21.0402 118.741 21.223 118.26 21.25L118.149 25.5359L122.639 21.3699C122.158 21.297 121.914 21.133 121.63 21.0054L121.708 19.4062L126.435 19.5354L126.334 21.1352C126.082 21.2263 125.713 21.3936 125.347 21.424L121.427 25.1129L125.263 30.6323L126.651 31.1851L126.322 32.7954C124.48 32.7468 123.262 32.2393 122.058 30.4855L119.555 26.88Z" fill="white"/>
<path d="M128.497 23.3939L128.605 19.6194L140.046 20.1573L139.822 23.9235L138.262 23.971C138.156 23.7269 138.076 22.4987 138.061 21.9818L135.6 21.9261L135.189 31.2454C135.666 31.3067 136.156 31.5066 136.382 31.6358L136.368 33.2395L131.109 32.9916L131.237 31.3956C131.472 31.2879 131.979 31.1328 132.462 31.1168L132.876 21.7974L130.421 21.6439C130.377 22.1552 130.215 23.2564 130.045 23.5844L128.497 23.3939Z" fill="white"/>
<path d="M152.471 34.239L152.637 32.6464C152.874 32.5453 153.385 32.4017 153.865 32.3956L154.482 23.0531C154.004 22.9808 153.537 22.7715 153.317 22.6356L153.363 21.0358L158.575 21.3992C158.521 21.9304 158.466 22.4611 158.432 22.9929C158.175 23.0951 157.683 23.237 157.201 23.2447L156.588 32.5845C157.062 32.6585 157.549 32.8689 157.77 33.0042L157.723 34.6062L152.471 34.239ZM145.715 27.5327L145.435 31.7882C145.589 31.7976 147.081 31.9412 147.291 31.9577C148.498 32.0593 149.46 31.1774 149.542 29.936C149.62 28.7338 148.801 27.7476 147.152 27.6321L145.715 27.5327ZM147.423 20.6211C147.388 21.154 147.332 21.6858 147.279 22.2154C147.042 22.3181 146.531 22.4606 146.05 22.4666L145.844 25.5801L147.051 25.664C151.612 25.9827 152.538 28.2849 152.417 30.1172C152.266 32.4017 150.418 34.176 147.446 33.9678C146.507 33.9032 145.057 33.7226 144.386 33.6752C144.329 33.6707 144.27 33.6674 144.214 33.6647L141.34 33.462L141.502 31.8699C141.739 31.7678 142.249 31.6253 142.732 31.6192L143.348 22.2783C141.666 22.0806 142.048 21.2567 142.229 20.2594L147.423 20.6211Z" fill="white"/>
</svg>
