<svg width="200" height="54" viewBox="0 0 200 54" fill="none" xmlns="http://www.w3.org/2000/svg">
<path d="M70.9129 24.3714L71.12 29.83C73.2782 29.5182 74.4398 28.4121 74.3858 27.0003C74.3318 25.5704 73.1011 24.5153 70.9129 24.3714ZM68.1544 29.9229L67.9383 24.5093C65.8102 24.821 64.7506 25.8792 64.8046 27.354C64.8647 28.8048 66.0863 29.755 68.1544 29.9229ZM66.9778 34.5002C66.9538 33.9396 66.9628 33.5439 66.9628 32.9834C67.1999 32.8275 67.7402 32.6417 68.2535 32.5787L68.2235 31.8323C64.6185 31.7034 61.836 30.2736 61.731 27.3899C61.6229 24.6921 64.0722 22.9146 67.8603 22.4949L67.8303 21.8115C67.317 21.7905 66.7857 21.6436 66.5336 21.5297L66.4105 19.9979L72.0806 19.7761V21.3139C71.8344 21.4488 71.3272 21.6346 70.8049 21.6946L70.8349 22.402C74.5839 22.5669 77.3664 24.1016 77.4835 26.8803C77.5885 29.6621 74.8481 31.3467 71.1981 31.7394L71.2281 32.4648C71.7504 32.4858 72.2967 32.6297 72.5488 32.7646C72.5938 33.3251 72.6269 33.7178 72.6479 34.2783" fill="white"/>
<path d="M78.426 33.7895L78.45 32.1049C78.6961 31.976 79.2334 31.7782 79.7557 31.7242L79.5336 21.8832C77.7056 21.8412 78.0358 20.939 78.1438 19.8778L88.2623 19.656L88.3464 23.31C88.0552 23.379 87.7881 23.406 87.5569 23.409C86.4583 23.4359 86.0891 22.7795 86.0051 21.7423L82.4842 21.8173L82.5682 25.5972L84.9815 25.5432C85.0206 25.4173 85.1346 24.8148 85.1736 24.7099L86.8335 24.7339L86.7735 26.5234L86.9326 28.3459L85.2577 28.4449C85.1887 28.322 85.0746 27.7434 85.0296 27.5786L82.6163 27.6325L82.7063 31.6583L86.5274 31.5743C86.5874 30.5132 86.9116 29.8627 88.0312 29.8387C88.2623 29.8327 88.5325 29.8477 88.8236 29.9047C88.8476 31.1487 88.8776 32.3957 88.9077 33.6426L86.6174 33.6097" fill="white"/>
<path d="M95.6014 21.6314L95.6254 25.9689C95.6254 25.9689 96.769 25.9839 97.0242 25.9839C98.8281 25.9719 99.7346 24.9707 99.7286 23.6637C99.7196 22.2519 98.6841 21.5714 97.3693 21.5774L95.6014 21.6314ZM95.6404 27.8184L95.6644 31.4694C96.1777 31.5084 97.1382 31.6912 97.3843 31.8141L97.4624 33.4958L91.3451 33.5287L91.3991 31.8471C91.6512 31.7212 92.1885 31.5324 92.7048 31.4874L92.6508 21.6464C90.8228 21.5744 91.168 20.6812 91.291 19.62L94.2176 19.602C94.2176 19.602 96.9221 19.5061 97.5224 19.5031C97.6065 19.5001 97.6905 19.5001 97.7986 19.5001C101.043 19.4821 102.649 21.3616 102.664 23.5019C102.67 25.3694 101.542 27.9083 97.9457 27.9293C97.7596 27.9293 97.5765 27.9323 97.3843 27.9113C97.1532 27.9113 95.6404 27.8184 95.6404 27.8184Z" fill="white"/>
<path d="M104.276 33.4451L104.36 31.7635C104.616 31.6436 105.162 31.4637 105.675 31.4308L106.414 21.5987C105.891 21.5508 105.354 21.3559 105.108 21.227L105.069 19.5454L109.625 19.6144L113.236 28.1604L113.413 28.8079L113.605 28.1874L117.733 19.7373L121.95 19.8002L121.866 21.4818C121.614 21.6017 121.067 21.7816 120.545 21.8146L120.935 31.6646C121.458 31.7125 121.998 31.9074 122.265 32.0363C122.25 32.5968 122.265 33.1574 122.28 33.7179L116.664 33.634C116.694 33.0734 116.727 32.5129 116.733 31.9523C117.003 31.8324 117.547 31.6526 118.072 31.6196L117.847 24.3685L117.901 23.4363L117.58 24.3025L113.713 32.4469L112.216 32.423L108.641 24.0837L108.443 23.4153L108.413 24.1437L107.965 31.4667C108.488 31.5147 109.025 31.7095 109.271 31.8384L109.31 33.5231" fill="white"/>
<path d="M130.894 23.4718L129.021 27.9921L132.8 28.136L131.308 23.4868L131.179 22.6504L131.095 22.6474L130.894 23.4718ZM123.909 33.7834L124.032 32.1048C124.269 32.0088 124.501 31.8739 125.002 31.808L129.249 21.955L129.141 21.949C128.544 21.7811 128.166 21.2895 128.175 20.666C128.181 20.4802 128.19 20.3153 128.235 20.1085L133.277 19.9856L137.179 32.2486C137.696 32.3086 138.002 32.5064 138.272 32.6413C138.248 33.2019 138.248 33.7624 138.248 34.326L132.593 34.1101C132.617 33.5496 132.653 32.992 132.701 32.4315C132.953 32.3176 133.523 32.1527 134.046 32.1287L133.43 30.1743L128.235 29.9765L127.889 30.8368C127.736 31.1845 127.574 31.5322 127.436 31.8799C127.952 31.9399 128.529 32.1497 128.796 32.2846C128.775 32.8452 128.775 33.4057 128.775 33.9662" fill="white"/>
</svg>
