<svg width="200" height="54" viewBox="0 0 200 54" fill="none" xmlns="http://www.w3.org/2000/svg">
<path d="M13.016 29.6044C13.3539 32.5561 15.2616 34.3954 17.5509 34.1385C19.8315 33.8787 21.2936 31.6598 20.9586 28.7052C20.6237 25.7506 18.7276 23.9113 16.4237 24.1711C14.1432 24.4281 12.6898 26.6498 13.016 29.6044ZM10.0131 29.9431C9.51215 25.5024 12.0927 22.6471 16.1995 22.18C20.3091 21.7158 23.4868 23.92 23.9848 28.3636C24.4858 32.8043 21.9052 35.6596 17.7752 36.1267C13.6218 36.5968 10.5112 34.3838 10.0131 29.9431Z" fill="white"/>
<path d="M29.8013 28.7824L30.1508 32.5895C30.3168 32.5749 31.7236 32.4844 31.942 32.4639C33.209 32.3471 34.1032 31.6961 33.9838 30.4085C33.8731 29.1794 32.8741 28.4992 31.1498 28.6597L29.8013 28.7824ZM29.2799 23.0629L29.6207 26.7883L30.7246 26.6861C32.0294 26.5664 33.0896 26 32.9556 24.511C32.842 23.2615 31.9275 22.7768 30.4362 22.914C30.0984 22.9462 29.6382 23.0104 29.2799 23.0629ZM26.178 34.9689L26.0877 33.331C26.3178 33.188 26.8246 32.9573 27.3256 32.8727L26.446 23.3257C24.9926 23.3987 25.0363 22.806 24.9693 22.0411C24.946 21.8601 24.9547 21.6761 24.9547 21.4718L27.2673 21.2586C27.7071 21.2178 29.7722 20.9463 30.8149 20.8499C33.3867 20.6105 35.7575 21.7316 35.9585 23.9271C36.1624 26.0818 34.7818 26.9401 33.5527 27.2583L33.5673 27.4189C35.4313 27.5912 36.8556 28.3736 37.0274 30.248C37.2342 32.4435 35.5507 34.1835 32.4343 34.4697C31.4498 34.5631 30.0547 34.6098 29.376 34.674" fill="white"/>
<path d="M41.2385 26.8348C41.454 29.8011 43.2977 31.7163 45.5841 31.5499C47.8821 31.3835 49.4258 29.223 49.2103 26.2568C49.0006 23.2905 47.1802 21.3753 44.8618 21.5417C42.5725 21.7081 41.0288 23.8686 41.2385 26.8348ZM38.2181 27.0538C37.8977 22.5956 40.5977 19.8454 44.719 19.5447C48.8433 19.2469 51.9306 21.5767 52.251 26.0378C52.5714 30.496 49.8802 33.2462 45.7355 33.5469C41.5676 33.8476 38.5472 31.512 38.2181 27.0538Z" fill="white"/>
<path d="M73.1226 18.2065L73.1372 19.8473C72.9042 19.9787 72.3916 20.186 71.8906 20.2502L72.3391 29.8235L74.6954 29.7125L74.8294 34.2612L73.2042 34.4597C73.076 34.2232 72.8663 32.3693 72.7789 31.7883L54.584 32.6525L54.5636 31.0147C54.8025 30.8804 55.2947 30.676 55.8015 30.6118L55.3442 21.0356C54.8374 21.021 54.3102 20.8633 54.0627 20.7553L53.9229 19.1204L59.2005 18.8693L59.2383 20.5072C58.9762 20.621 58.7461 20.7933 58.2102 20.9013L58.6558 30.4745L62.6461 30.2848L62.1975 20.7115C61.6674 20.6561 61.3995 20.5276 61.1548 20.4166L61.1169 18.7788L66.0683 18.5423L66.0887 20.1831C65.8528 20.3145 65.6198 20.4663 65.0548 20.5743L65.5091 30.1475L69.4761 29.9607L69.0275 20.3875C68.477 20.332 68.2062 20.2035 67.9615 20.0926L67.9237 18.4547" fill="white"/>
<path d="M76.1927 31.6917L76.2219 30.0538C76.4607 29.9253 76.9849 29.7326 77.483 29.6801L77.2733 20.0952C76.7665 20.066 76.2597 19.8966 76.0151 19.7798L75.9189 18.1449L81.4062 18.0223L81.3975 19.6631C81.1441 19.7886 80.6461 19.9813 80.1364 20.0338L80.2791 26.3635L86.1537 20.2849L86.1479 19.9025C85.647 19.8704 85.1343 19.701 84.8955 19.5842L84.7965 17.9493L90.2867 17.8267L90.278 19.4675C90.0391 19.593 89.5411 19.7857 89.0343 19.8382L89.2411 29.4232C89.7479 29.4524 90.2547 29.6217 90.5255 29.7385L90.5983 31.3734L85.0732 31.496L85.0965 29.8582C85.3353 29.7297 85.8567 29.537 86.3634 29.4845L86.2149 23.0147L80.3402 29.0932L80.3461 29.6188C80.8529 29.648 81.3829 29.8173 81.6276 29.9341L81.7266 31.569" fill="white"/>
<path d="M92.4482 27.6834L92.4336 25.6805L97.9966 25.6455L98.0112 27.6454L92.4482 27.6834Z" fill="white"/>
<path d="M107.57 21.9582L107.532 27.2747C109.626 27.0703 110.806 26.0456 110.821 24.6704C110.826 23.2749 109.688 22.1947 107.57 21.9582ZM104.646 27.2338L104.684 21.9582C102.604 22.1655 101.529 23.1464 101.524 24.5829C101.506 25.9988 102.648 26.9769 104.646 27.2338ZM103.303 31.6336C103.303 31.0876 103.327 30.7023 103.356 30.1563C103.594 30.0162 104.125 29.8585 104.626 29.8205L104.631 29.0936C101.142 28.8075 98.5091 27.2893 98.5324 24.4807C98.5557 21.8501 101.008 20.2298 104.698 19.9962L104.707 19.3276C104.2 19.2839 103.699 19.1174 103.455 18.9948L103.408 17.5L108.913 17.5409L108.843 19.0357C108.598 19.1554 108.092 19.313 107.591 19.351L107.585 20.0371C111.217 20.367 113.841 21.9844 113.826 24.6938C113.803 27.4031 111.065 28.9184 107.518 29.1344L107.509 29.8439C108.016 29.8877 108.54 30.0541 108.776 30.1972C108.799 30.7431 108.814 31.1285 108.808 31.6745" fill="white"/>
<path d="M119.291 20.0077L119.186 24.2352C119.186 24.2352 120.299 24.2848 120.538 24.2906C122.288 24.3344 123.205 23.3856 123.235 22.1127C123.272 20.7375 122.282 20.0456 121.006 20.0135L119.291 20.0077ZM119.142 26.0336L119.052 29.5926C119.553 29.648 120.476 29.8524 120.715 29.9809L120.739 31.6187L114.803 31.4669L114.908 29.832C115.152 29.7181 115.682 29.5488 116.189 29.5196L116.428 19.9347C114.654 19.8091 115.018 18.9479 115.167 17.9202L118.009 17.9932C118.009 17.9932 120.634 17.9786 121.222 17.9932C121.304 17.9961 121.385 17.999 121.484 18.0019C124.63 18.0807 126.136 19.9609 126.083 22.0426C126.039 23.8644 124.869 26.3022 121.379 26.2146C121.193 26.2088 121.012 26.203 120.835 26.1796C120.61 26.1738 119.142 26.0336 119.142 26.0336Z" fill="white"/>
<path d="M127.768 18.166L133.471 18.4142L133.361 20.0491C133.113 20.1396 132.621 20.2798 132.161 20.3207L134.566 24.8401L137.132 20.5571C136.634 20.4958 136.157 20.2915 135.918 20.1601L136.028 18.5251L141.353 18.7587L141.219 20.3907C140.974 20.5017 140.488 20.5834 139.981 20.6009L136.328 26.6765C135.761 27.6254 135.178 28.7728 134.33 29.8705C133.299 31.2019 131.741 31.7011 129.714 31.8967L129.347 29.6545C129.347 29.6545 131.549 29.1436 131.555 29.1231C131.794 29.0531 132.027 28.9392 132.213 28.8078C132.466 28.5129 132.787 28.1217 132.959 27.8882L128.954 20.1805C128.467 20.0988 127.955 19.9148 127.739 19.8039" fill="white"/>
<path d="M148.244 27.231L146.93 27.1493L146.7 30.7608C147.198 30.8338 147.714 31.0498 147.944 31.187L147.9 32.8249L142.381 32.4687L142.553 30.8367C142.8 30.7316 143.336 30.5827 143.843 30.5768L144.455 21.0065C143.957 20.9365 143.464 20.7204 143.231 20.5832L143.278 18.9453L148.751 19.2986C148.698 19.8416 148.637 20.3876 148.608 20.9306C148.34 21.0153 147.824 21.1846 147.318 21.1934L147.056 25.1903L148.451 25.2808L152.432 21.5233C151.934 21.4299 151.561 21.243 151.261 21.1029L151.413 19.4708L156.562 19.8037L156.399 21.4357C156.131 21.5174 155.476 21.6576 155.088 21.6751L150.658 25.8676L154.984 31.5199L156.131 31.9169L155.72 33.5519C153.245 33.3913 152.217 32.6994 151.031 31.0615" fill="white"/>
<path d="M158.392 23.8184L158.651 19.9646L170.633 20.9777L170.246 24.8227L168.612 24.8052C168.51 24.5541 168.472 23.2929 168.478 22.7645L165.9 22.6068L165.102 32.1187C165.6 32.2034 166.107 32.4282 166.34 32.5683L166.264 34.2062L160.754 33.742L160.949 32.1129C161.202 32.0136 161.738 31.8735 162.245 31.8764L163.043 22.3674L160.477 22.1076C160.41 22.6302 160.194 23.7484 160.008 24.0783" fill="white"/>
<path d="M183.117 35.9018L183.356 34.2785C183.609 34.1851 184.145 34.0625 184.652 34.0741L185.68 24.5447C185.182 24.4513 184.704 24.2148 184.474 24.0688L184.594 22.4338L190.049 23.0265C189.967 23.5666 189.895 24.1067 189.834 24.6498C189.557 24.7432 189.035 24.8688 188.529 24.8542L187.501 34.3836C187.999 34.48 188.5 34.7164 188.73 34.8624L188.61 36.5003L183.117 35.9018ZM176.302 28.7547L175.833 33.0961C175.987 33.1136 177.545 33.3238 177.77 33.3472C179.031 33.5048 180.082 32.6435 180.216 31.3765C180.35 30.1502 179.529 29.1021 177.799 28.9153L176.302 28.7547ZM178.372 21.7565C178.314 22.2995 178.239 22.8426 178.157 23.3827C177.904 23.4761 177.359 23.6017 176.852 23.5871L176.517 26.7635L177.778 26.9008C182.549 27.4175 183.429 29.8116 183.228 31.683C182.974 34.0157 180.962 35.75 177.851 35.4113C176.867 35.3033 175.355 35.058 174.653 34.9821C174.595 34.9763 174.534 34.9704 174.467 34.9646L171.461 34.6376L171.7 33.0143C171.953 32.9209 172.492 32.7954 172.999 32.81L174.027 23.2776C172.274 23.0061 172.708 22.1798 172.938 21.1667" fill="white"/>
</svg>
