<svg width="200" height="54" viewBox="0 0 200 54" fill="none" xmlns="http://www.w3.org/2000/svg">
<path d="M33.7083 35.5L33.6165 33.7947L35.185 33.4238L34.6367 23.2408L33.0367 23.027L32.9443 21.312L39.068 21.0084L39.1603 22.7234L37.602 23.0938L38.1404 33.0917L42.3244 32.8842L41.786 22.8863L40.186 22.6726L40.0937 20.9575L46.2072 20.6544L46.2995 22.3695L44.7412 22.7398L45.2796 32.7377L49.4229 32.5323L48.8846 22.5344L47.2846 22.3206L47.1923 20.6056L53.3159 20.302L53.4083 22.017L51.8398 22.3879L52.3881 32.5709L53.9881 32.7847L54.0799 34.49L33.7083 35.5Z" fill="white"/>
<path d="M55.4687 34.2988L55.4046 32.5923L56.9688 32.2453L56.5859 22.0553L54.9997 21.8173L54.9353 20.1011L66.4186 19.7038L66.5626 23.536L64.2863 23.6148L64.0926 21.9811L59.5602 22.1379L59.6943 25.7069L64.7043 25.5335L64.7868 27.7276L59.7768 27.9009L59.9292 31.9574L64.7055 31.7921L64.7738 30.0909L67.0298 30.0128L67.1757 33.8938L55.4687 34.2988Z" fill="white"/>
<path d="M74.0164 34.5149L73.979 32.9345L75.558 32.6073L75.5381 31.7684L75.3755 31.7719C74.1691 31.7982 73.0966 31.6102 72.1581 31.2077C71.2194 30.7987 70.4766 30.2163 69.9298 29.4604C69.3896 28.6979 69.1073 27.7997 69.0828 26.7656C69.0578 25.7121 69.3003 24.7829 69.8101 23.9779C70.3198 23.1665 71.0337 22.5295 71.9517 22.067C72.8697 21.6046 73.9286 21.3602 75.1282 21.3341L75.2908 21.3305L75.2705 20.4721L73.6776 20.214L73.6402 18.6337L79.7705 18.5L79.8079 20.0803L78.2289 20.4076L78.2492 21.266L78.3712 21.2633C79.5708 21.2372 80.6401 21.4351 81.5791 21.857C82.5248 22.2724 83.2713 22.871 83.8187 23.6528C84.3662 24.4347 84.6524 25.3524 84.6773 26.406C84.7018 27.44 84.4589 28.3497 83.9486 29.1352C83.4383 29.9206 82.7206 30.5381 81.7954 30.9877C80.8771 31.4372 79.8181 31.675 78.6185 31.7012L78.4965 31.7038L78.5164 32.5428L80.1092 32.8008L80.1467 34.3811L74.0164 34.5149ZM78.45 29.7431L78.5924 29.74C79.5819 29.7184 80.3649 29.4248 80.9415 28.8591C81.5179 28.287 81.794 27.4904 81.7698 26.4694C81.7445 25.4028 81.4303 24.5898 80.8271 24.0304C80.2239 23.471 79.4275 23.2021 78.438 23.2236L78.2961 23.2463L78.45 29.7431ZM75.329 29.8112L75.4917 29.8076L75.3378 23.3108L75.1751 23.3143C74.1788 23.3361 73.3927 23.6428 72.8168 24.2344C72.2407 24.8196 71.9652 25.6422 71.9903 26.7022C72.0146 27.7297 72.3281 28.5102 72.9307 29.0436C73.5333 29.577 74.3327 29.8329 75.329 29.8112Z" fill="white"/>
<path d="M86.7428 28.4154L86.7191 26.2201L92.454 26.1629L92.4778 28.3582L86.7428 28.4154Z" fill="white"/>
<path d="M94.0118 33.2792L94.0158 31.5716L95.5927 31.2823L95.6169 21.0857L94.0414 20.7896L94.0455 19.0723L109.177 19.1053L109.173 20.8226L107.596 21.1119L107.572 31.3085L109.147 31.6046L109.143 33.3122L103.021 33.2988L103.025 31.5913L104.602 31.302L104.626 21.2908L98.5857 21.2776L98.562 31.2888L100.148 31.585L100.144 33.2925L94.0118 33.2792Z" fill="white"/>
<path d="M116.466 33.6857C115.13 33.6649 113.966 33.3378 112.974 32.7042C111.981 32.0642 111.213 31.1967 110.668 30.1018C110.131 29.0069 109.874 27.7668 109.897 26.3814L109.901 26.1668C109.924 24.7879 110.223 23.5597 110.797 22.4821C111.378 21.4047 112.172 20.5616 113.179 19.9527C114.193 19.3439 115.368 19.0499 116.703 19.0707C118.038 19.0915 119.206 19.422 120.205 20.0621C121.211 20.7024 121.986 21.57 122.531 22.6649C123.082 23.76 123.345 24.997 123.322 26.3758L123.318 26.5905C123.295 27.9759 122.993 29.2073 122.412 30.2847C121.831 31.3621 121.027 32.2051 119.999 32.8137C118.979 33.4158 117.801 33.7065 116.466 33.6857ZM116.503 31.4711C117.757 31.4906 118.707 31.05 119.353 30.1492C119.999 29.242 120.334 28.0403 120.36 26.5444L120.364 26.3102C120.38 25.3281 120.253 24.4641 119.98 23.7182C119.708 22.9658 119.295 22.377 118.739 21.952C118.19 21.5271 117.499 21.3081 116.665 21.2951C115.418 21.2757 114.478 21.7165 113.846 22.6175C113.221 23.5185 112.895 24.7106 112.87 26.1935L112.866 26.4276C112.841 27.9236 113.129 29.1349 113.73 30.0616C114.338 30.9819 115.263 31.4517 116.503 31.4711Z" fill="white"/>
<path d="M124.099 33.6601L124.151 31.9533L125.735 31.7049L126.046 21.5126L124.479 21.1758L124.531 19.4592L131.108 19.6437C132.849 19.6925 134.198 20.0558 135.154 20.7333C136.11 21.4109 136.568 22.3967 136.529 23.6906C136.509 24.3474 136.308 24.9307 135.926 25.4406C135.552 25.9442 135.015 26.3164 134.315 26.5571C135.198 26.764 135.85 27.1728 136.272 27.7834C136.701 28.3941 136.904 29.0929 136.88 29.8796C136.838 31.2386 136.339 32.2561 135.383 32.9321C134.426 33.6016 133.091 33.9123 131.377 33.8642L124.099 33.6601ZM128.894 25.5362L131.028 25.5961C131.821 25.6183 132.436 25.4794 132.872 25.1792C133.309 24.8791 133.536 24.4299 133.554 23.8317C133.593 22.5508 132.755 21.8863 131.041 21.8382L129.008 21.7812L128.894 25.5362ZM128.709 31.6028L131.443 31.6795C133.056 31.7247 133.882 31.0971 133.922 29.7967C133.943 29.1009 133.783 28.5661 133.442 28.1921C133.101 27.8115 132.551 27.6106 131.792 27.5894L128.834 27.5064L128.709 31.6028Z" fill="white"/>
<path d="M137.847 34.2033L137.922 32.4973L138.985 32.3938L144.232 20.2424L147.27 20.3656L151.4 32.897L152.45 33.086L152.375 34.7921L147.336 34.5878L147.411 32.8818L148.445 32.7479L147.88 30.7718L142.678 30.561L141.942 32.4844L142.961 32.7015L142.886 34.4075L137.847 34.2033ZM143.472 28.4934L147.272 28.6474L145.758 23.7127L145.635 23.278L145.574 23.2755L145.402 23.7276L143.472 28.4934Z" fill="white"/>
<path d="M153.985 34.9063L154.082 33.2013L155.673 32.992L156.256 22.8107L154.699 22.4355L154.797 20.7208L161.833 21.0916C162.964 21.1512 163.927 21.3942 164.724 21.8206C165.522 22.2405 166.121 22.803 166.522 23.5082C166.923 24.2069 167.098 25.0076 167.047 25.9105C166.995 26.8133 166.73 27.5941 166.251 28.2529C165.772 28.9053 165.112 29.3982 164.272 29.7317C163.431 30.0588 162.446 30.1925 161.316 30.133L158.818 30.0013L158.638 33.1483L160.205 33.524L160.107 35.229L153.985 34.9063ZM158.943 27.8092L161.441 27.9408C162.267 27.9844 162.902 27.8028 163.346 27.3963C163.798 26.9836 164.042 26.4427 164.081 25.7737C164.12 25.0917 163.939 24.5186 163.537 24.0545C163.143 23.5842 162.533 23.3273 161.708 23.2838L159.21 23.1521L158.943 27.8092Z" fill="white"/>
</svg>
