<svg width="200" height="54" viewBox="0 0 200 54" fill="none" xmlns="http://www.w3.org/2000/svg">
<path d="M33.6224 29.2379L33.9585 33.111C34.1162 33.0961 35.556 33.016 35.7851 32.9952C37.0791 32.8854 37.9924 32.2295 37.8853 30.9177C37.7723 29.6683 36.7668 28.9708 34.9997 29.1222L33.6224 29.2379ZM33.1256 23.4209L33.4469 27.2109L34.5803 27.1129C35.913 27.0002 37.0048 26.4333 36.8739 24.9167C36.7668 23.6465 35.8297 23.1479 34.3155 23.2785C33.9645 23.3082 33.4915 23.3675 33.1256 23.4209ZM29.8741 35.5001L29.7997 33.8351C30.0347 33.6927 30.5524 33.4612 31.064 33.3751L30.2341 23.6673C28.7466 23.7326 28.7942 23.1301 28.7318 22.3525C28.7169 22.1655 28.7169 21.9786 28.7258 21.7738L31.0849 21.572C31.5341 21.5334 33.6462 21.2722 34.7112 21.1802C37.338 20.9576 39.7535 22.1121 39.9439 24.3469C40.1343 26.5372 38.7183 27.4008 37.4599 27.7154L37.4748 27.8786C39.3787 28.0656 40.8334 28.8729 40.994 30.7753C41.1844 33.0071 39.456 34.767 36.273 35.0371C35.2675 35.1232 33.8425 35.1617 33.1434 35.2211" fill="white"/>
<path d="M48.9525 28.0473L47.5067 29.5193L47.6733 32.0657C48.1909 32.0717 48.7324 32.223 48.9912 32.3299L49.1578 33.9859L43.5234 34.3569L43.4788 32.689C43.7138 32.5495 44.2404 32.3299 44.7491 32.2557L44.1095 22.53C42.625 22.5656 42.6935 21.9632 42.6399 21.1826C42.625 20.9986 42.631 20.8116 42.6399 20.6069L48.2385 20.2418C48.2534 20.7938 48.2683 21.3518 48.307 21.9068C48.0482 22.0255 47.5454 22.2659 47.0337 22.3371L47.3223 26.7919L51.725 22.0314C51.1985 22.0047 50.9248 21.8563 50.6065 21.7554L50.5381 20.0905L55.6012 19.7581L55.6459 21.423C55.3871 21.5447 55.0063 21.7554 54.6195 21.8237L50.788 26.0291L55.4109 31.3742L56.9488 31.8075L56.7525 33.5111C54.7802 33.6387 53.4296 33.235 51.9749 31.5374" fill="white"/>
<path d="M58.3047 19.5299L63.9688 19.2806L64.0075 20.9426C63.7427 21.0791 63.2548 21.2868 62.7432 21.3492L65.593 25.979L67.9759 21.1177C67.4583 21.0999 66.9555 20.9366 66.7056 20.8239L66.667 19.1589L72.105 18.9155L72.1198 20.5835C71.8759 20.717 71.388 20.8417 70.8704 20.907L67.6933 27.3887C67.2054 28.3978 66.7205 29.6117 65.95 30.8018C65.0219 32.2412 63.4839 32.8852 61.4431 33.2651L60.8631 31.0273C60.8631 31.0273 63.0644 30.3091 63.0644 30.2883C63.3084 30.1963 63.5196 30.0628 63.704 29.9114C63.939 29.5909 64.2306 29.1694 64.3972 28.8727L59.7802 21.4827C59.2626 21.4649 58.6765 21.3046 58.4267 21.1919" fill="white"/>
<path d="M73.5217 25.9494C73.3848 20.8328 76.7107 18.6277 80.6642 18.5268C82.3539 18.4823 84.0376 18.8295 85.1562 19.2925L85.0669 22.753C84.8974 22.7768 84.7546 22.8005 84.6326 22.8035C83.3148 22.8391 82.8566 22.0259 82.6454 20.7378C82.1189 20.6073 81.4793 20.5212 80.7772 20.539C78.3885 20.6013 76.5054 22.5423 76.5887 25.893C76.675 28.9558 78.6145 30.8167 81.1907 30.7514C82.4848 30.7157 84.2518 30.1786 85.2573 29.4307L85.4537 31.523C84.2221 32.2976 82.583 32.7517 81.1223 32.7873C76.6898 32.9031 73.6347 30.3507 73.5217 25.9494Z" fill="white"/>
<path d="M87.9972 32.3717L88.0448 30.7068C88.2947 30.5821 88.8272 30.3922 89.3448 30.3476L89.2764 20.6042C88.7588 20.5656 88.2501 20.3846 87.9972 20.2629L87.9229 18.5979L93.5275 18.5594L93.4977 20.2273C93.23 20.3519 92.7183 20.5389 92.2007 20.5834L92.2334 24.3645L98.3705 24.3259L98.3407 20.5419C97.8291 20.5033 97.3114 20.3252 97.0616 20.2035L96.9931 18.5386L102.598 18.5L102.568 20.165C102.315 20.2896 101.806 20.4796 101.286 20.5211L101.357 30.2645C101.875 30.3031 102.384 30.4842 102.657 30.6058L102.711 32.2708L97.0616 32.3094L97.1151 30.6444C97.359 30.5198 97.8915 30.3298 98.4092 30.2853L98.3794 26.3203L92.2393 26.3589L92.2691 30.3269C92.7808 30.3655 93.3222 30.5465 93.5721 30.6682L93.6405 32.3302" fill="white"/>
<path d="M111.927 25.0857L112.831 25.0976L112.893 20.6369L111.326 20.5776C110.008 20.5597 108.803 21.2008 108.782 22.661C108.764 24.3259 109.716 25.0798 111.326 25.1006L111.927 25.0857ZM105.072 32.2946L104.805 30.5851L106.337 30.0717C106.381 30.0509 107.539 28.1129 108.47 26.5637C106.497 25.798 105.864 23.9194 105.879 22.4799C105.908 20.3431 107.601 18.4734 111.043 18.5179C111.043 18.5179 112.893 18.6039 113.801 18.6336L117.18 18.6781C117.296 19.7288 117.629 20.6161 115.818 20.6755L115.687 30.4189C116.207 30.4664 116.74 30.6593 116.984 30.784L117.019 32.4519L111.376 32.3777L111.462 30.7128C111.712 30.594 112.245 30.416 112.762 30.3804L112.81 26.8664L111.346 26.8872L109.306 30.1726C108.187 31.986 107.03 32.3213 105.072 32.2946Z" fill="white"/>
<path d="M139.601 19.4112L139.485 21.0702C139.235 21.186 138.688 21.3522 138.17 21.373L137.819 31.1105C138.337 31.1698 138.839 31.3746 139.083 31.5082V33.1731L119.503 32.4668L119.625 30.8048C119.875 30.692 120.401 30.5258 120.913 30.5021L121.27 20.7646C120.752 20.7052 120.226 20.5004 119.982 20.3698V18.7019L125.375 18.8948L125.274 20.5598C125 20.6518 124.751 20.8091 124.194 20.8714L123.837 30.6059L127.919 30.7543L128.27 21.0168C127.734 20.9159 127.475 20.7616 127.232 20.628L127.333 18.969L132.396 19.15L132.274 20.812C132.024 20.9248 131.771 21.0613 131.194 21.1237L130.843 30.8582L134.895 31.0066L135.252 21.2661C134.695 21.1652 134.437 21.0109 134.193 20.8803L134.294 19.2183" fill="white"/>
<path d="M148.198 27.7862L146.568 29.0684L146.408 31.6118C146.928 31.683 147.446 31.9026 147.69 32.0421L147.642 33.7071L142.008 33.3599L142.174 31.7008C142.427 31.594 142.975 31.4426 143.492 31.4337L144.093 21.7051C142.618 21.5538 142.754 20.9661 142.799 20.1856C142.814 20.0016 142.844 19.8176 142.882 19.6128L148.472 19.9571C148.419 20.5091 148.365 21.0611 148.329 21.6161C148.053 21.7022 147.529 21.8773 147.011 21.8862L146.738 26.3379L151.703 22.174C151.191 22.0791 150.932 21.901 150.635 21.7585L150.781 20.0995L155.838 20.4082L155.668 22.0672C155.403 22.1533 154.999 22.3135 154.603 22.3313L150.269 26.0204L154.178 31.9026L155.647 32.5318L155.237 34.1938C153.262 34.0721 151.976 33.4994 150.751 31.6326" fill="white"/>
<path d="M164.39 24.409L162.332 28.7955L166.065 29.1042L164.801 24.4417L164.703 23.6077L164.616 23.6018L164.39 24.409ZM157.019 34.2979L157.215 32.6448C157.45 32.5587 157.688 32.4341 158.182 32.3925L162.819 22.8361L162.721 22.8272C162.135 22.6343 161.784 22.1297 161.814 21.5124C161.829 21.3284 161.847 21.1652 161.906 20.9634L166.895 21.0673L170.224 33.366C170.733 33.4461 171.021 33.6598 171.28 33.8023C171.235 34.3573 171.206 34.9093 171.182 35.4672L165.601 35.0043C165.646 34.4522 165.714 33.9002 165.776 33.3512C166.035 33.2473 166.606 33.1078 167.124 33.1078L166.598 31.149L161.466 30.7246L161.091 31.5616C160.916 31.8969 160.74 32.2323 160.588 32.5706C161.1 32.6537 161.662 32.8852 161.915 33.0306C161.868 33.5827 161.847 34.1406 161.823 34.6956" fill="white"/>
</svg>
