<svg width="200" height="54" viewBox="0 0 200 54" fill="none" xmlns="http://www.w3.org/2000/svg">
<path d="M70.0221 27.7787L70.1821 32.2807C70.3451 32.2747 71.9751 32.2597 72.2075 32.2506C73.5296 32.2235 74.4714 31.1876 74.4261 29.8746C74.3808 28.6008 73.3817 27.6582 71.5676 27.7245L70.0221 27.7787ZM65.932 34.5002V32.8108C66.1795 32.6752 66.7138 32.4705 67.239 32.4102L66.8768 22.5267C65.0144 22.5117 65.3615 21.5811 65.446 20.5362L76.1889 20.1477L76.3187 23.7554L74.6434 23.7735C74.574 23.5024 74.4412 22.8821 74.3567 22.2587L69.8289 22.4213L69.9436 25.7158L71.2567 25.6676C76.2342 25.49 77.4868 27.8027 77.5563 29.7421C77.6468 32.1603 75.8387 34.2291 72.6029 34.3436C71.5525 34.3797 69.9828 34.3556 69.2554 34.3797L69.0622 34.3887" fill="white"/>
<path d="M78.543 19.9846L84.4623 19.8792L84.4562 21.5687C84.1996 21.6771 83.7046 21.8547 83.2277 21.927L86.0017 26.4231L88.3893 21.8517C87.8641 21.8216 87.36 21.6439 87.1065 21.5205L87.1216 19.8311L92.6394 19.7317L92.6092 21.4211C92.3617 21.5506 91.8576 21.665 91.3324 21.7162L87.9396 28.2028C87.4143 29.2147 86.8891 30.4343 86.0772 31.6178C85.0961 33.0542 83.5205 33.6656 81.4347 33.9938L80.9155 31.7081C80.9155 31.7081 83.1583 31.0456 83.1583 31.0215C83.4118 30.9342 83.6352 30.8047 83.8223 30.6571C84.0698 30.3409 84.3717 29.9163 84.5317 29.6634L79.9043 21.9872C79.4032 21.933 78.8539 21.7734 78.6214 21.6741" fill="white"/>
<path d="M102.423 24.0774L102.413 29.5612C104.587 29.3353 105.8 28.2723 105.806 26.8539C105.806 25.4144 104.617 24.3092 102.423 24.0774ZM99.4252 29.5341L99.4312 24.0924C97.2821 24.3153 96.1713 25.3361 96.1713 26.8178C96.1622 28.2783 97.3515 29.2811 99.4252 29.5341ZM98.0548 34.0783C98.0548 33.5152 98.079 33.1177 98.1031 32.5575C98.3506 32.413 98.897 32.2444 99.4161 32.2052L99.4252 31.4523C95.806 31.1783 93.0713 29.6274 93.0713 26.7274C93.0803 24.0171 95.6129 22.3307 99.4403 22.0687V21.3791C98.9151 21.337 98.3959 21.1683 98.1423 21.0419L98.079 19.5L103.79 19.509L103.727 21.0539C103.473 21.1774 102.948 21.346 102.429 21.3852V22.0958C106.187 22.4151 108.921 24.0653 108.921 26.8599C108.912 29.6545 106.093 31.2355 102.407 31.4795V32.2112C102.933 32.2504 103.473 32.419 103.727 32.5666C103.745 33.1297 103.766 33.5272 103.766 34.0873" fill="white"/>
<path d="M109.576 33.8282L109.67 32.1388C109.917 32.0184 110.467 31.8407 110.992 31.8076L111.17 21.9241C109.329 21.8036 109.7 20.9152 109.848 19.8552L120.023 20.0359L119.963 23.7068C119.67 23.7641 119.398 23.7821 119.166 23.7761C118.055 23.758 117.714 23.0835 117.669 22.0385L114.137 21.9753L114.068 25.7697L116.495 25.8148C116.54 25.6914 116.67 25.0891 116.718 24.9837L118.387 25.077L118.254 26.8688L118.348 28.7058L116.649 28.7389C116.594 28.6124 116.495 28.0282 116.455 27.8596L114.034 27.8144L113.959 31.8618L117.808 31.931C117.907 30.868 118.254 30.2296 119.383 30.2477C119.616 30.2507 119.884 30.2778 120.18 30.347C120.156 31.5968 120.132 32.8495 120.111 34.1023L117.808 33.9758" fill="white"/>
<path d="M122.112 24.0685L122.188 20.0874L134.636 20.515L134.437 24.4931L132.743 24.5624C132.62 24.3064 132.52 23.0085 132.496 22.4634L129.825 22.4363L129.483 32.2746C130 32.3349 130.543 32.5396 130.79 32.6722V34.3646L125.064 34.1688L125.188 32.4824C125.442 32.365 125.991 32.1963 126.516 32.1723L126.857 22.3339L124.183 22.1984C124.144 22.7405 123.981 23.9029 123.797 24.2522" fill="white"/>
</svg>
