<svg width="24" height="24" viewBox="0 0 24 24" fill="none" xmlns="http://www.w3.org/2000/svg">
<path d="M10.2307 2.20979C10.9811 0.787495 13.0181 0.787491 13.7685 2.20979L16.3224 7.05029L21.7151 7.98338C23.2997 8.25755 23.9292 10.1948 22.8084 11.348L18.994 15.2727L19.773 20.6899C20.0019 22.2816 18.354 23.4789 16.9109 22.7694L11.9996 20.3544L7.08827 22.7694C5.64517 23.4789 3.99723 22.2816 4.22614 20.6899L5.00518 15.2727L1.19078 11.348C0.0699876 10.1948 0.699441 8.25755 2.28401 7.98338L7.6768 7.05029L10.2307 2.20979ZM14.5535 7.98357L11.9996 3.14307L9.4457 7.98357C9.15631 8.53206 8.62886 8.91528 8.01779 9.02101L2.625 9.9541L6.4394 13.8788C6.87162 14.3235 7.07309 14.9436 6.98481 15.5574L6.20577 20.9746L11.1171 18.5597C11.6736 18.286 12.3256 18.286 12.8821 18.5597L17.7934 20.9746L17.0143 15.5574C16.9261 14.9436 17.1275 14.3235 17.5598 13.8788L21.3742 9.9541L15.9814 9.02101C15.3703 8.91528 14.8429 8.53206 14.5535 7.98357Z" fill="#80BA27"/>
</svg>
