<svg width="64" height="64" viewBox="0 0 64 64" fill="none" xmlns="http://www.w3.org/2000/svg">
<path fill-rule="evenodd" clip-rule="evenodd" d="M58.6569 22.3337H47.3644C42.1093 22.3429 37.8521 26.4937 37.8426 31.6175C37.8355 36.7529 42.0975 40.9221 47.3644 40.9291H58.6663V41.7449C58.6663 50.7029 53.2358 56 44.0459 56H19.9558C10.7635 56 5.33301 50.7029 5.33301 41.7449V22.2343C5.33301 13.2763 10.7635 8 19.9558 8H44.0364C53.2263 8 58.6569 13.2763 58.6569 22.2343V22.3337ZM17.9718 22.313H33.0118H33.0213H33.0403C34.1662 22.3084 35.0764 21.414 35.0717 20.3139C35.067 19.2161 34.1473 18.3286 33.0213 18.3333H17.9718C16.853 18.3379 15.9452 19.2231 15.9404 20.3162C15.9357 21.414 16.8459 22.3084 17.9718 22.313Z" fill="#80BA27"/>
<path opacity="0.4" d="M42.7658 32.791C43.3234 35.3275 45.5473 37.1121 48.0863 37.0657H56.7527C57.8091 37.0657 58.666 36.1908 58.666 35.1094V28.3585C58.6637 27.2794 57.8091 26.4022 56.7527 26.3999H47.8822C44.9942 26.4092 42.6615 28.8064 42.666 31.7606C42.666 32.1064 42.7 32.4522 42.7658 32.791Z" fill="#80BA27"/>
<ellipse cx="47.9997" cy="31.7331" rx="2.66667" ry="2.66667" fill="#80BA27"/>
</svg>
