<svg width="64" height="64" viewBox="0 0 64 64" fill="none" xmlns="http://www.w3.org/2000/svg">
<path fill-rule="evenodd" clip-rule="evenodd" d="M22.7507 7.83155C28.577 4.44623 35.7384 4.5054 41.51 7.98655C47.2249 11.5386 50.6982 17.878 50.6659 24.6973C50.5329 31.472 46.8085 37.8402 42.1529 42.7631C39.4659 45.6172 36.46 48.141 33.1966 50.2829C32.8605 50.4773 32.4923 50.6074 32.1103 50.6668C31.7426 50.6512 31.3845 50.5425 31.0683 50.3507C26.0861 47.1323 21.7152 43.0243 18.1659 38.2241C15.1959 34.2171 13.5086 29.3762 13.333 24.3586C13.3292 17.5261 16.9244 11.2169 22.7507 7.83155ZM26.1179 27.1862C27.0979 29.6024 29.4113 31.1784 31.9777 31.1784C33.659 31.1905 35.2753 30.517 36.4663 29.3081C37.6573 28.0992 38.3241 26.4552 38.3181 24.7425C38.3271 22.1283 36.788 19.7663 34.4195 18.7596C32.051 17.7528 29.3202 18.2998 27.5023 20.1451C25.6844 21.9904 25.1378 24.7701 26.1179 27.1862Z" fill="#80BA27"/>
<ellipse opacity="0.4" cx="31.9993" cy="56.0002" rx="13.3333" ry="2.66667" fill="#80BA27"/>
</svg>
