<svg width="64" height="64" viewBox="0 0 64 64" fill="none" xmlns="http://www.w3.org/2000/svg">
<path opacity="0.4" d="M31.4027 58.2332C25.3146 54.4728 19.6552 50.0388 14.5279 45.0123C10.9082 41.4234 8.14379 37.0412 6.44593 32.2007C3.41224 22.7606 6.94364 11.9719 16.8031 8.76906C22.0071 7.13475 27.667 8.13801 32.019 11.4662C36.3725 8.14173 42.0305 7.1388 47.2348 8.76906C57.0943 11.9719 60.6494 22.7606 57.6157 32.2007C55.9316 37.0367 53.1837 41.4184 49.5811 45.0123C44.4492 50.0333 38.7903 54.4668 32.7063 58.2332L32.0427 58.6667L31.4027 58.2332Z" fill="#80BA27"/>
<path d="M32.0288 58.6666L31.4023 58.2331C25.3067 54.473 19.6393 50.0391 14.5037 45.0122C10.8669 41.4283 8.08603 37.0457 6.37439 32.2006C3.36441 22.7605 6.89581 11.9719 16.7553 8.76898C21.9593 7.13467 27.6938 8.1387 32.0288 11.4948V58.6666Z" fill="#80BA27"/>
<path d="M48.6139 26.6646C48.0782 26.6301 47.5793 26.3624 47.2342 25.9242C46.889 25.486 46.7279 24.9157 46.7885 24.3471C46.8464 22.4741 45.7807 20.7693 44.1373 20.106C43.0952 19.8216 42.4641 18.693 42.7248 17.58C42.9721 16.4848 43.9976 15.8039 45.0283 16.0504C45.1584 16.072 45.2837 16.1191 45.3977 16.1895C48.6929 17.4575 50.8264 20.8704 50.6566 24.602C50.6512 25.1676 50.4307 25.7066 50.0455 26.0955C49.6604 26.4844 49.1437 26.6898 48.6139 26.6646Z" fill="#80BA27"/>
</svg>
