<svg width="64" height="64" viewBox="0 0 64 64" fill="none" xmlns="http://www.w3.org/2000/svg">
<path d="M57.1395 6.87563C55.8061 5.51296 53.8328 5.00896 51.9928 5.54229L9.08613 17.9396C7.14479 18.4783 5.76879 20.017 5.39813 21.969C5.01946 23.9583 6.34213 26.4863 8.07013 27.5423L21.4861 35.7343C22.8621 36.577 24.6381 36.3663 25.7768 35.225L41.1395 19.8623C41.9128 19.0596 43.1928 19.0596 43.9661 19.8623C44.7395 20.633 44.7395 21.889 43.9661 22.689L28.5768 38.0516C27.4355 39.193 27.2221 40.9636 28.0621 42.3423L36.2595 55.809C37.2195 57.4063 38.8728 58.3156 40.6861 58.3156C40.8995 58.3156 41.1395 58.3156 41.3528 58.2863C43.4328 58.0223 45.0861 56.6063 45.6995 54.6063L58.4195 12.0223C58.9795 10.209 58.4728 8.23563 57.1395 6.87563Z" fill="#80BA27"/>
<path opacity="0.4" fill-rule="evenodd" clip-rule="evenodd" d="M8.02765 44.8212C7.51565 44.8212 7.00365 44.6265 6.61432 44.2345C5.83299 43.4532 5.83299 42.1892 6.61432 41.4078L10.2543 37.7652C11.0357 36.9865 12.3023 36.9865 13.0837 37.7652C13.8623 38.5465 13.8623 39.8132 13.0837 40.5945L9.44099 44.2345C9.05165 44.6265 8.53965 44.8212 8.02765 44.8212ZM18.0575 48.0009C17.5455 48.0009 17.0335 47.8062 16.6442 47.4142C15.8629 46.6329 15.8629 45.3689 16.6442 44.5876L20.2842 40.9449C21.0655 40.1662 22.3322 40.1662 23.1135 40.9449C23.8922 41.7262 23.8922 42.9929 23.1135 43.7742L19.4709 47.4142C19.0815 47.8062 18.5695 48.0009 18.0575 48.0009ZM18.7341 57.5156C19.1234 57.9076 19.6354 58.1022 20.1474 58.1022C20.6594 58.1022 21.1714 57.9076 21.5607 57.5156L25.2034 53.8756C25.9821 53.0942 25.9821 51.8276 25.2034 51.0462C24.4221 50.2676 23.1554 50.2676 22.3741 51.0462L18.7341 54.6889C17.9527 55.4702 17.9527 56.7342 18.7341 57.5156Z" fill="#80BA27"/>
</svg>
