<svg width="220" height="95" viewBox="0 0 220 95" fill="none" xmlns="http://www.w3.org/2000/svg">
<path d="M88.9672 50.7226L77.9672 80.4726L76.7887 74.4197C74.0387 67.0049 68.0854 59.2269 61.165 56.0492L71.2584 94.2731H83.1953L100.934 50.6621H88.9672V50.7226Z" fill="#11559C"/>
<path d="M98.4258 94.3639L105.467 50.6621H116.739L109.698 94.3639H98.4258Z" fill="#11559C"/>
<path d="M150.555 51.7524C148.319 50.8747 144.813 49.9062 140.462 49.9062C129.311 49.9062 121.484 55.8381 121.423 64.3121C121.363 70.6071 127.014 74.0875 131.275 76.1758C135.687 78.3245 137.138 79.6864 137.138 81.5931C137.107 84.5287 133.632 85.8604 130.399 85.8604C125.896 85.8604 123.509 85.1946 119.792 83.5905L118.341 82.8945L116.77 92.6699C119.399 93.8804 124.264 94.9397 129.341 95.0002C141.157 95.0002 148.863 89.1289 148.954 80.0799C149.014 75.0862 145.992 71.3335 139.495 68.2162C135.566 66.1885 133.149 64.8569 133.179 62.7989C133.179 60.983 135.204 59.0461 139.646 59.0461C143.333 58.9856 145.992 59.833 148.077 60.7409L149.074 61.2554L150.555 51.7524Z" fill="#11559C"/>
<path d="M179.445 50.7227H170.742C168.052 50.7227 166.028 51.4793 164.819 54.3544L148.107 94.3942H159.923C159.923 94.3942 161.857 89.0071 162.311 87.8268C163.61 87.8268 175.094 87.8571 176.726 87.8571C177.088 89.3703 178.085 94.3942 178.085 94.3942H188.572L179.445 50.7227ZM165.544 78.8686C166.481 76.3566 170.017 66.6417 170.017 66.6417C169.956 66.7628 170.954 64.1298 171.528 62.4652L172.283 66.218C172.283 66.218 174.459 76.6593 174.912 78.8383C173.16 78.8686 167.75 78.8686 165.544 78.8686Z" fill="#11559C"/>
<path d="M67.7224 50.6934H49.5603L49.4395 51.45C63.5521 55.0817 72.89 63.9492 76.7581 74.4509L72.8296 54.3554C72.1647 51.6013 70.1702 50.7842 67.7224 50.6934Z" fill="#F2A724"/>
<path d="M15.4725 40.131H8.31044L0 2.72421L7.9478 1.39258L13.6291 30.6583L28.0742 1.78601H35.6896L15.4725 40.131Z" fill="#11559C"/>
<path d="M52.854 27.9046H35.7194C35.2359 33.1101 37.6535 35.38 41.7633 35.38C45.1782 35.38 48.2002 34.1088 51.4337 32.0509L51.4035 37.2563C48.2304 39.2538 44.5436 40.5249 40.2221 40.5249C32.7579 40.5249 27.832 36.2576 29.3128 26.6335C30.6425 17.9476 36.6562 12.6816 43.6068 12.6816C51.615 12.6816 54.2743 18.7043 53.126 26.3006C53.0655 26.8454 52.8842 27.5112 52.854 27.9046ZM42.7606 17.2818C40.1013 17.2818 37.6232 19.3701 36.4749 23.7584H47.082C47.2634 19.6122 45.9639 17.2818 42.7606 17.2818Z" fill="#11559C"/>
<path d="M64.0055 24.6351L61.6484 39.9489H55.0303L59.1402 13.2254H64.7913V18.5822C67.0275 15.4952 70.0797 12.8925 74.2803 12.6504L74.3105 19.248C70.0797 19.5507 66.3325 21.76 64.0055 24.6351Z" fill="#11559C"/>
<path d="M74.1895 39.9484L78.2993 13.2249H84.9175L80.8378 39.9484H74.1895ZM82.3488 8.74577C80.1427 8.74577 78.6015 7.20229 78.9642 4.99299C79.3268 2.72316 81.3213 1.11914 83.5274 1.11914C85.673 1.11914 87.2142 2.72316 86.8515 4.99299C86.5191 7.20229 84.5246 8.74577 82.3488 8.74577Z" fill="#11559C"/>
<path d="M103.291 5.93197C101.025 5.93197 99.6647 6.93069 99.3021 9.32158L98.6977 13.256H103.775V18.6733H97.8515L94.5878 39.9492H87.9999L91.2636 18.643H87.3955L88.2417 13.2257H92.1098L92.8048 8.6255C93.7114 2.69368 97.8213 0.484375 103.291 0.484375C104.439 0.484375 105.316 0.605432 105.981 0.696225L106.041 6.11356C105.376 6.05303 104.409 5.93197 103.291 5.93197Z" fill="#11559C"/>
<path d="M103.352 39.9484L107.461 13.2249H114.08L110 39.9484H103.352ZM111.541 8.74577C109.335 8.74577 107.794 7.20229 108.126 4.99299C108.489 2.72316 110.483 1.11914 112.689 1.11914C114.835 1.11914 116.376 2.72316 116.014 4.99299C115.681 7.20229 113.687 8.74577 111.541 8.74577Z" fill="#11559C"/>
<path d="M139.827 27.9046H122.692C122.239 33.1101 124.626 35.38 128.736 35.38C132.151 35.38 135.173 34.1088 138.406 32.0509L138.376 37.2563C135.203 39.2538 131.516 40.5249 127.195 40.5249C119.731 40.5249 114.805 36.2576 116.285 26.6335C117.615 17.9476 123.629 12.6816 130.579 12.6816C138.588 12.6816 141.247 18.7043 140.099 26.3006C140.038 26.8454 139.857 27.5112 139.827 27.9046ZM129.733 17.2818C127.074 17.2818 124.596 19.3701 123.448 23.7584H134.055C134.236 19.6122 132.937 17.2818 129.733 17.2818Z" fill="#11559C"/>
<path d="M159.44 39.949L159.47 36.2265C157.234 38.4963 154.333 40.4938 150.646 40.4938C145.055 40.4938 141.217 36.3476 142.607 27.3288C144.148 17.3718 150.283 12.9532 156.478 12.9532C159.017 12.9532 161.011 13.4071 162.522 13.9519L164.517 1.05925L171.316 0L165.181 39.949H159.44ZM161.676 19.4298C160.135 18.6429 158.926 18.2797 156.659 18.2797C153.184 18.2797 150.192 21.0943 149.316 26.9656C148.53 32.1711 150.344 34.5922 153.275 34.5922C155.692 34.5922 157.808 33.1395 159.923 30.9302L161.676 19.4298Z" fill="#11559C"/>
<path d="M185.459 40.2214C182.316 40.2214 179.747 39.7069 177.39 38.8897L181.742 10.5017L186.879 9.71484L185.006 22.0022C186.517 20.6706 188.602 19.3087 191.14 19.3087C195.401 19.3087 198.272 22.4864 197.214 29.2959C196.066 36.741 191.473 40.2214 185.459 40.2214ZM189.176 23.7273C187.514 23.7273 185.821 24.847 184.341 26.3603L182.92 35.5304C183.918 35.8936 184.582 36.0751 186.003 36.0751C189.176 36.0751 191.412 34.1382 192.107 29.538C192.712 25.6642 191.412 23.7273 189.176 23.7273Z" fill="#11559C"/>
<path d="M209.06 41.0697C206.492 46.0634 203.953 47.6068 200.055 47.6068C199.178 47.6068 198.695 47.5161 198.242 47.395L198.211 43.2488C198.846 43.4304 199.541 43.5514 200.508 43.5514C201.959 43.5514 203.258 42.8856 204.104 41.4026L204.769 40.071L200.508 20.1268L205.857 19.4609L208.335 33.8668L215.014 19.7333H220L209.06 41.0697Z" fill="#11559C"/>
</svg>
