<svg width="186" height="55" viewBox="0 0 186 55" fill="none" xmlns="http://www.w3.org/2000/svg">
<path d="M178.648 55H7.35185C3.58333 55 0.5 51.9062 0.5 48.125V6.875C0.5 3.09375 3.58333 -1.80801e-06 7.35185 -1.80801e-06H178.648C182.417 -1.80801e-06 185.5 3.09375 185.5 6.875V48.125C185.5 51.9062 182.417 55 178.648 55Z" fill="white"/>
<path d="M178.648 -1.80801e-06H7.35185C3.58333 -1.80801e-06 0.5 3.09375 0.5 6.875V48.125C0.5 51.9062 3.58333 55 7.35185 55H178.648C182.417 55 185.5 51.9062 185.5 48.125V6.875C185.5 3.09375 182.417 -1.80801e-06 178.648 -1.80801e-06ZM178.648 1.1C181.822 1.1 184.404 3.69105 184.404 6.875V48.125C184.404 51.3095 181.822 53.9005 178.648 53.9005H7.35185C4.17862 53.9005 1.5963 51.3095 1.5963 48.125V6.875C1.5963 3.69105 4.17862 1.1 7.35185 1.1H178.648Z" fill="white"/>
<path d="M65.4808 14.0845C65.4808 15.2365 65.1408 16.1539 64.4598 16.8382C63.6864 17.6519 62.6784 18.0591 61.4391 18.0591C60.2524 18.0591 59.2434 17.6466 58.4136 16.8205C57.5824 15.9949 57.1676 14.9712 57.1676 13.7498C57.1676 12.5279 57.5824 11.5047 58.4136 10.6786C59.2434 9.85309 60.2524 9.44004 61.4391 9.44004C62.028 9.44004 62.5917 9.55553 63.127 9.78598C63.6623 10.017 64.0916 10.3236 64.4128 10.7076L63.6901 11.4332C63.1458 10.7807 62.3963 10.4546 61.4391 10.4546C60.5736 10.4546 59.8252 10.7598 59.1936 11.3704C58.5619 11.9817 58.2462 12.7744 58.2462 13.7498C58.2462 14.7253 58.5619 15.5179 59.1936 16.1293C59.8252 16.7399 60.5736 17.045 61.4391 17.045C62.3573 17.045 63.1228 16.7383 63.7356 16.1239C64.1334 15.7236 64.3635 15.1673 64.425 14.4529H61.4391V13.4619H65.4235C65.462 13.6774 65.4808 13.8842 65.4808 14.0845Z" fill="#2E2E2E"/>
<path d="M65.4808 14.0847H65.3437C65.3426 15.2104 65.015 16.0848 64.363 16.7412L64.3615 16.7423L64.3609 16.7434C63.612 17.5291 62.6494 17.9201 61.4391 17.9218C60.284 17.9201 59.3173 17.5248 58.51 16.7235C57.7045 15.9205 57.3061 14.9402 57.3046 13.75C57.3061 12.5593 57.7045 11.5796 58.51 10.7771C59.3173 9.97523 60.284 9.57937 61.4391 9.57772C62.0103 9.57772 62.5542 9.68951 63.0729 9.9124C63.5921 10.1369 64.0023 10.4312 64.3079 10.7965L64.4128 10.7078L64.316 10.6106L63.5932 11.3368L63.6901 11.4334L63.7956 11.3454C63.226 10.6605 62.4263 10.3153 61.4391 10.3173C60.5415 10.3162 59.7519 10.638 59.0988 11.2719C58.4394 11.9078 58.108 12.745 58.1091 13.75C58.108 14.755 58.4394 15.5923 59.0988 16.2282C59.7519 16.8621 60.5415 17.1838 61.4391 17.1827C62.3877 17.1844 63.1961 16.8615 63.8325 16.2213C64.2576 15.7937 64.4985 15.2013 64.5617 14.4649L64.5744 14.3156H61.5762V13.5996H65.4235V13.4621L65.2885 13.4863C65.3261 13.6947 65.3437 13.8929 65.3437 14.0847H65.4808H65.6178C65.6178 13.8757 65.5985 13.6609 65.5583 13.4375L65.5381 13.3246H61.3021V14.4531V14.5906H64.425V14.4531L64.2885 14.4412C64.2281 15.1331 64.0086 15.6541 63.6387 16.0269C63.0499 16.6155 62.3273 16.9061 61.4391 16.9077C60.6057 16.9066 59.8986 16.6187 59.2889 16.0306C58.6851 15.4446 58.3847 14.6964 58.3832 13.75C58.3847 12.8036 58.6851 12.0555 59.2889 11.4694C59.8986 10.8814 60.6057 10.5934 61.4391 10.5923C62.3658 10.5945 63.0655 10.9017 63.5853 11.5221L63.6816 11.6371L64.5097 10.805L64.5985 10.7159L64.5177 10.6197C64.181 10.217 63.7324 9.89727 63.181 9.65995C62.6286 9.42193 62.0457 9.30272 61.4391 9.30272C60.2209 9.30162 59.1695 9.73131 58.3167 10.5816C57.4608 11.4303 57.0294 12.497 57.0305 13.75C57.0294 15.0025 57.4608 16.0698 58.3173 16.919C59.1695 17.7687 60.2209 18.1979 61.4391 18.1968C62.7078 18.1979 63.7603 17.7751 64.5589 16.9334L64.4598 16.8384L64.5567 16.9356C65.2666 16.2239 65.6188 15.2625 65.6178 14.0847H65.4808Z" fill="#2E2E2E"/>
<path d="M71.7972 10.6385H68.0528V13.2543H71.4295V14.2457H68.0528V16.8615H71.7972V17.875H66.9972V9.625H71.7972V10.6385Z" fill="#2E2E2E"/>
<path d="M71.7972 10.6387V10.5012H67.9158V13.392H71.2925V14.108L67.9158 14.1084V16.9992H71.6602V17.7377H67.1342V9.76269H71.6602V10.6387H71.7972V10.5012V10.6387H71.9343V9.62519V9.48769H66.8602V18.0127H71.9343V16.8617V16.7242H68.1898V14.3834H71.5666V13.2545V13.117H68.1898V10.7762H71.9343V10.6387H71.7972Z" fill="#2E2E2E"/>
<path d="M76.2526 17.875H75.1953V10.6385H72.8989V9.625H78.549V10.6385H76.2526V17.875Z" fill="#2E2E2E"/>
<path d="M76.2526 17.8752V17.7377H75.3324V10.5012H73.0359V9.76269H78.412V10.5012H76.1155V17.8752H76.2526V17.7377V17.8752H76.3896V10.7762H78.6861V9.62519V9.48769H72.7618V10.6387V10.7762H75.0583V18.0127H76.2526H76.3896V17.8752H76.2526Z" fill="#2E2E2E"/>
<path d="M82.6371 17.875V9.625H83.6933V17.875H82.6371Z" fill="#2E2E2E"/>
<path d="M82.6371 17.8752H82.7742V9.76269H83.5562V17.7377H82.6371V17.8752H82.7742H82.6371V18.0127H83.6933H83.8303V9.48769H82.6371H82.5001V18.0127H82.6371V17.8752Z" fill="#2E2E2E"/>
<path d="M88.3798 17.875H87.3226V10.6385H85.0262V9.625H90.6762V10.6385H88.3798V17.875Z" fill="#2E2E2E"/>
<path d="M88.3798 17.8752V17.7377H87.4596V10.5012H85.1633V9.76269H90.5392V10.5012H88.2428V17.8752H88.3798V17.7377V17.8752H88.5168V10.7762H90.8133V9.62519V9.48769H84.8892V10.6387V10.7762H87.1855V18.0127H88.3798H88.5168V17.8752H88.3798Z" fill="#2E2E2E"/>
<path d="M96.1235 16.118C96.7321 16.7362 97.4767 17.045 98.3573 17.045C99.2379 17.045 99.983 16.7362 100.591 16.118C101.2 15.4998 101.505 14.7096 101.505 13.7498C101.505 12.7901 101.2 11.9999 100.591 11.3817C99.983 10.7635 99.2379 10.4546 98.3573 10.4546C97.4767 10.4546 96.7321 10.7635 96.1235 11.3817C95.5159 11.9999 95.2108 12.7901 95.2108 13.7498C95.2108 14.7096 95.5159 15.4998 96.1235 16.118ZM101.372 16.8087C100.564 17.6427 99.5585 18.0591 98.3573 18.0591C97.155 18.0591 96.1502 17.6427 95.3436 16.8087C94.5347 15.9755 94.1322 14.9557 94.1322 13.7498C94.1322 12.544 94.5347 11.524 95.3436 10.691C96.1502 9.8568 97.155 9.44004 98.3573 9.44004C99.5522 9.44004 100.555 9.859 101.367 10.6964C102.178 11.5337 102.584 12.5515 102.584 13.7498C102.584 14.9557 102.179 15.9755 101.372 16.8087Z" fill="#2E2E2E"/>
<path d="M96.1235 16.1182L96.026 16.2148C96.6572 16.8578 97.4446 17.1844 98.3573 17.1827C99.2694 17.1844 100.058 16.8578 100.688 16.2148C101.323 15.5713 101.643 14.7388 101.642 13.75C101.643 12.7613 101.323 11.9287 100.688 11.2852C100.058 10.6422 99.2694 10.3157 98.3573 10.3173C97.4446 10.3157 96.6572 10.6422 96.026 11.2852C95.3922 11.9287 95.0721 12.7613 95.0738 13.75C95.0721 14.7388 95.3922 15.5713 96.026 16.2148L96.1235 16.1182L96.2209 16.0215C95.6396 15.4279 95.3489 14.6813 95.3478 13.75C95.3489 12.8187 95.6396 12.0721 96.2209 11.4785C96.8076 10.8851 97.5082 10.594 98.3573 10.5923C99.2057 10.594 99.908 10.8851 100.493 11.4785C101.076 12.0721 101.366 12.8187 101.367 13.75C101.366 14.6813 101.076 15.4279 100.493 16.0215C99.908 16.615 99.2057 16.9061 98.3573 16.9077C97.5082 16.9061 96.8076 16.615 96.2209 16.0215L96.1235 16.1182ZM101.372 16.8089L101.274 16.7133C100.488 17.5211 99.5275 17.9201 98.3573 17.9218C97.1866 17.9201 96.2257 17.5211 95.4414 16.7133L95.4377 16.709L95.4414 16.7133C94.6573 15.9027 94.2703 14.9252 94.2692 13.75C94.2703 12.5748 94.6573 11.5973 95.4414 10.7868C96.2257 9.97895 97.1866 9.57937 98.3573 9.57772C99.5199 9.57937 100.479 9.9806 101.269 10.7927C102.056 11.6069 102.445 12.5829 102.447 13.75C102.445 14.9252 102.057 15.9027 101.274 16.7133L101.372 16.8089L101.471 16.9044C102.301 16.0483 102.722 14.9864 102.721 13.75C102.722 12.5206 102.3 11.4609 101.465 10.601C100.63 9.73777 99.5842 9.30121 98.3573 9.30272C97.124 9.30121 96.0748 9.73571 95.2451 10.5956V10.5951C94.4127 11.4517 93.9941 12.5136 93.9951 13.75C93.9941 14.9864 94.4127 16.0483 95.2451 16.905L95.2488 16.9088L95.2451 16.9044C96.0748 17.7643 97.124 18.1979 98.3573 18.1968C99.5901 18.1979 100.639 17.7643 101.471 16.9044L101.372 16.8089Z" fill="#2E2E2E"/>
<path d="M104.066 17.875V9.625H105.352L109.348 16.0429H109.394L109.348 14.453V9.625H110.405V17.875H109.303L105.122 11.146H105.076L105.122 12.7365V17.875H104.066Z" fill="#2E2E2E"/>
<path d="M104.066 17.8752H104.203V9.76269H105.276L109.272 16.1806H109.394H109.534L109.485 14.4512V9.76269H110.268V17.7377H109.379L105.198 11.0087H105.076H104.936L104.985 12.7389V17.7377H104.066V17.8752H104.203H104.066V18.0127H105.122H105.259V12.7345L105.213 11.1425L105.076 11.1462V11.2837H105.122V11.1462L105.006 11.2194L109.227 18.0127H110.405H110.542V9.48769H109.348H109.211V14.4549L109.257 16.0469L109.394 16.0431V15.9056H109.348V16.0431L109.464 15.9701L105.428 9.48769H104.066H103.929V18.0127H104.066V17.8752Z" fill="#2E2E2E"/>
<path d="M147.042 41.2502H149.599V24.0611H147.042V41.2502ZM170.074 30.2529L167.143 37.7053H167.055L164.013 30.2529H161.258L165.82 40.669L163.219 46.4628H165.887L172.917 30.2529H170.074ZM155.572 39.2978C154.734 39.2978 153.566 38.8778 153.566 37.838C153.566 36.5113 155.022 36.0027 156.277 36.0027C157.402 36.0027 157.93 36.2459 158.613 36.578C158.415 38.1699 157.048 39.2978 155.572 39.2978ZM155.881 29.8769C154.029 29.8769 152.112 30.6954 151.319 32.5088L153.588 33.4595C154.073 32.5088 154.976 32.1989 155.925 32.1989C157.247 32.1989 158.591 32.9954 158.613 34.4107V34.5874C158.15 34.322 157.159 33.9241 155.947 33.9241C153.5 33.9241 151.009 35.2727 151.009 37.7939C151.009 40.0938 153.015 41.5757 155.263 41.5757C156.983 41.5757 157.93 40.8017 158.526 39.8951H158.613V41.2217H161.081V34.6314C161.081 31.5801 158.812 29.8769 155.881 29.8769ZM140.078 32.3454H136.441V26.4534H140.078C141.989 26.4534 143.075 28.0415 143.075 29.3994C143.075 30.7315 141.989 32.3454 140.078 32.3454ZM140.012 24.0611H133.885V41.2502H136.441V34.7378H140.012C142.846 34.7378 145.632 32.679 145.632 29.3994C145.632 26.1198 142.846 24.0611 140.012 24.0611ZM106.601 39.301C104.834 39.301 103.355 37.817 103.355 35.7787C103.355 33.7189 104.834 32.2123 106.601 32.2123C108.345 32.2123 109.714 33.7189 109.714 35.7787C109.714 37.817 108.345 39.301 106.601 39.301ZM109.537 31.2154H109.449C108.875 30.5289 107.771 29.9087 106.38 29.9087C103.466 29.9087 100.795 32.4781 100.795 35.7787C100.795 39.0572 103.466 41.6047 106.38 41.6047C107.771 41.6047 108.875 40.9843 109.449 40.2759H109.537V41.1175C109.537 43.3552 108.345 44.5513 106.424 44.5513C104.857 44.5513 103.885 43.4212 103.488 42.4689L101.258 43.3992C101.898 44.9498 103.598 46.855 106.424 46.855C109.427 46.855 111.966 45.0825 111.966 40.763V30.2631H109.537V31.2154ZM113.732 41.2502H116.293V24.0605H113.732V41.2502ZM120.068 35.5794C120.002 33.3198 121.812 32.1682 123.114 32.1682C124.131 32.1682 124.991 32.6774 125.278 33.409L120.068 35.5794ZM128.016 33.6302C127.531 32.3229 126.051 29.9087 123.026 29.9087C120.024 29.9087 117.529 32.2789 117.529 35.7567C117.529 39.0352 120.002 41.6047 123.313 41.6047C125.985 41.6047 127.531 39.9654 128.171 39.0131L126.184 37.6837C125.522 38.6586 124.616 39.301 123.313 39.301C122.011 39.301 121.084 38.7027 120.487 37.529L128.28 34.2946L128.016 33.6302ZM65.9267 31.703V34.1839H71.8432C71.6666 35.5794 71.203 36.5983 70.4964 37.3073C69.6357 38.1714 68.2889 39.1238 65.9267 39.1238C62.2838 39.1238 59.4361 36.1777 59.4361 32.5227C59.4361 28.8676 62.2838 25.9211 65.9267 25.9211C67.8916 25.9211 69.3263 26.6967 70.3861 27.6935L72.1302 25.9437C70.6512 24.5257 68.6861 23.4402 65.9267 23.4402C60.937 23.4402 56.7425 27.5163 56.7425 32.5227C56.7425 37.529 60.937 41.6047 65.9267 41.6047C68.6203 41.6047 70.6512 40.719 72.2405 39.0572C73.8743 37.4179 74.3823 35.1143 74.3823 33.2538C74.3823 32.6774 74.3383 32.1462 74.2495 31.703H65.9267ZM81.1089 39.301C79.3423 39.301 77.8189 37.839 77.8189 35.7567C77.8189 33.6522 79.3423 32.2123 81.1089 32.2123C82.8747 32.2123 84.3982 33.6522 84.3982 35.7567C84.3982 37.839 82.8747 39.301 81.1089 39.301ZM81.1089 29.9087C77.8852 29.9087 75.2579 32.3674 75.2579 35.7567C75.2579 39.1238 77.8852 41.6047 81.1089 41.6047C84.3318 41.6047 86.9591 39.1238 86.9591 35.7567C86.9591 32.3674 84.3318 29.9087 81.1089 29.9087ZM93.8714 39.301C92.1055 39.301 90.582 37.839 90.582 35.7567C90.582 33.6522 92.1055 32.2123 93.8714 32.2123C95.6374 32.2123 97.1608 33.6522 97.1608 35.7567C97.1608 37.839 95.6374 39.301 93.8714 39.301ZM93.8714 29.9087C90.6479 29.9087 88.0212 32.3674 88.0212 35.7567C88.0212 39.1238 90.6479 41.6047 93.8714 41.6047C97.0945 41.6047 99.7218 39.1238 99.7218 35.7567C99.7218 32.3674 97.0945 29.9087 93.8714 29.9087Z" fill="#2E2E2E"/>
<path d="M14.9023 44.5356L14.8005 44.4379C14.4017 44.0145 14.1663 43.3571 14.1663 42.5059V42.7062V12.2967C14.1663 12.2939 14.1663 12.2919 14.1663 12.2897C14.1663 12.2923 14.1663 12.2945 14.1663 12.2972V12.4981C14.1663 11.5763 14.4408 10.882 14.9007 10.4656L31.8793 27.5012L14.9023 44.5356ZM14.1663 12.288C14.1663 12.2123 14.1683 12.1387 14.1722 12.0662C14.1683 12.1382 14.1663 12.2123 14.1663 12.288ZM14.1722 12.0629C14.1722 12.062 14.1722 12.0609 14.1726 12.0598C14.1722 12.0609 14.1722 12.062 14.1722 12.0629ZM14.1726 12.0533C14.1726 12.0528 14.1726 12.0522 14.1726 12.0517C14.1726 12.0522 14.1726 12.0528 14.1726 12.0533Z" fill="url(#paint0_linear_4419:83568)"/>
<path d="M37.538 33.3828L37.6671 33.3092L44.3721 29.4866C45.0114 29.122 45.4375 28.6799 45.65 28.2121C45.438 28.6799 45.0118 29.1225 44.3721 29.4872L37.6671 33.3098L37.538 33.3828ZM37.5396 33.1814L31.8793 27.501L37.5391 21.8215L44.3721 25.7166C45.2399 26.2114 45.727 26.8489 45.8084 27.5004C45.8084 27.501 45.8084 27.5021 45.8084 27.503C45.727 28.153 45.2399 28.7911 44.3721 29.2857L37.5396 33.1814Z" fill="url(#paint1_linear_4419:83568)"/>
<path d="M16.1126 45.1841C15.6383 45.1841 15.2245 45.0294 14.9018 44.7372L14.9023 44.7367C15.225 45.0288 15.6394 45.1841 16.1137 45.1841C16.1548 45.1841 16.1966 45.183 16.239 45.1809C16.1961 45.183 16.1537 45.1841 16.1126 45.1841ZM16.1132 44.9826C15.6389 44.9832 15.225 44.828 14.9023 44.5358V44.5354L31.8793 27.5009L37.5396 33.1813L17.6484 44.5213C17.0981 44.8344 16.5766 44.9826 16.1132 44.9826ZM14.8975 44.7335C14.8675 44.7061 14.8381 44.6771 14.8091 44.647L14.8975 44.7335Z" fill="url(#paint2_linear_4419:83568)"/>
<path d="M31.8793 27.501L14.9007 10.4654C15.2234 10.1738 15.6367 10.0191 16.1104 10.0191C16.5751 10.0191 17.097 10.1679 17.6484 10.4815L37.5391 21.8215L31.8793 27.501ZM37.667 21.6933L17.6484 10.2808C17.097 9.96698 16.5751 9.81821 16.1104 9.81821C16.1082 9.81821 16.1067 9.81821 16.1045 9.81821C16.1073 9.81821 16.1093 9.81821 16.1126 9.81821C16.5762 9.81821 17.0975 9.96643 17.6484 10.2802L37.667 21.6933Z" fill="url(#paint3_linear_4419:83568)"/>
<path d="M16.239 45.1812C16.6698 45.1564 17.1468 45.0076 17.6484 44.7225L37.538 33.383L17.6484 44.7225C17.1473 45.0082 16.6698 45.1564 16.239 45.1812ZM14.9018 44.7374L14.8975 44.7337C14.899 44.7348 14.9007 44.7363 14.9018 44.7374ZM14.8091 44.6472L14.8005 44.6387V44.6382C14.8038 44.6413 14.8064 44.6445 14.8091 44.6472Z" fill="white"/>
<path d="M37.538 33.3828L37.667 33.3092L37.538 33.3828Z" fill="url(#paint4_linear_4419:83568)"/>
<path d="M16.1137 45.1841C15.6394 45.1841 15.225 45.0288 14.9023 44.7367L14.9018 44.7372C14.9007 44.7361 14.899 44.7346 14.8975 44.7335L14.8091 44.647C14.8064 44.6443 14.8038 44.6411 14.8005 44.6379L14.9023 44.5358C15.225 44.828 15.6389 44.9832 16.1132 44.9826C16.5766 44.9826 17.0981 44.8344 17.6484 44.5213L37.5396 33.1813L37.667 33.3092L37.538 33.3827L17.6484 44.7222C17.1468 45.0074 16.6698 45.1562 16.239 45.1809C16.1966 45.183 16.1548 45.1841 16.1137 45.1841Z" fill="url(#paint5_linear_4419:83568)"/>
<path d="M14.8005 44.6387C14.4017 44.2153 14.1663 43.5579 14.1663 42.7067V42.7061C14.1663 43.5579 14.4017 44.2148 14.8005 44.6381V44.6387Z" fill="white"/>
<path d="M14.8005 44.6382C14.4017 44.2148 14.1663 43.558 14.1663 42.7062V42.5058C14.1663 43.3571 14.4017 44.0145 14.8005 44.4378L14.9023 44.5356L14.8005 44.6382Z" fill="url(#paint6_linear_4419:83568)"/>
<path d="M14.8005 44.6382L14.9023 44.5356V44.536L14.8005 44.6382Z" fill="url(#paint7_linear_4419:83568)"/>
<path d="M45.65 28.2124C45.7554 27.9803 45.8084 27.7419 45.8084 27.5033C45.8084 27.5029 45.8084 27.5023 45.8084 27.5023C45.8084 27.7413 45.7554 27.9797 45.65 28.2124Z" fill="white"/>
<path d="M37.667 33.3096L37.5396 33.1817L44.3721 29.286C45.2398 28.7915 45.727 28.1533 45.8084 27.5034C45.8084 27.7419 45.7554 27.9803 45.65 28.2124C45.4375 28.6802 45.0114 29.1223 44.3721 29.4869L37.667 33.3096Z" fill="url(#paint8_linear_4419:83568)"/>
<path d="M45.8084 27.501V27.5004C45.8079 26.7812 45.3288 26.062 44.3721 25.5163L37.667 21.6937H37.6665L37.667 21.6933L44.3721 25.5158C45.3299 26.0615 45.8095 26.7817 45.8084 27.501Z" fill="white"/>
<path d="M45.8084 27.5005C45.727 26.849 45.2399 26.2114 44.3721 25.7167L37.5391 21.8216L37.6665 21.6937H37.667L44.3721 25.5164C45.3288 26.0621 45.8079 26.7812 45.8084 27.5005Z" fill="url(#paint9_linear_4419:83568)"/>
<path d="M14.1663 12.2896C14.1663 12.289 14.1663 12.2885 14.1663 12.2879C14.1663 12.2885 14.1663 12.289 14.1663 12.2896ZM14.1722 12.0661C14.1722 12.065 14.1722 12.0639 14.1722 12.0628C14.1722 12.0639 14.1722 12.065 14.1722 12.0661ZM14.1726 12.0597C14.1726 12.0575 14.1726 12.0554 14.1726 12.0532C14.1726 12.0554 14.1726 12.0575 14.1726 12.0597ZM14.1726 12.0515C14.2519 10.639 15.0174 9.82308 16.1003 9.81826C15.6308 9.82101 15.2219 9.9757 14.9018 10.2651V10.2646L14.8979 10.2684C14.8642 10.299 14.8322 10.3313 14.8005 10.3645C14.4408 10.7464 14.2138 11.3184 14.1726 12.0515Z" fill="white"/>
<path d="M14.1663 12.498V12.2972C14.1663 12.2944 14.1663 12.2922 14.1663 12.2896C14.1663 12.289 14.1663 12.2885 14.1663 12.2879C14.1663 12.2122 14.1683 12.1381 14.1722 12.0662C14.1722 12.0651 14.1722 12.064 14.1722 12.0629C14.1722 12.0619 14.1722 12.0608 14.1726 12.0597C14.1726 12.0575 14.1726 12.0554 14.1726 12.0532C14.1726 12.0527 14.1726 12.0521 14.1726 12.0516C14.2138 11.3184 14.4408 10.7464 14.8005 10.3646L14.9007 10.4655C14.4408 10.8819 14.1663 11.5762 14.1663 12.498ZM14.8979 10.2685L14.9018 10.2646C14.9007 10.2663 14.899 10.2674 14.8979 10.2685Z" fill="url(#paint10_linear_4419:83568)"/>
<path d="M37.5391 21.8218L17.6484 10.4817C17.097 10.1681 16.5751 10.0193 16.1104 10.0193C15.6367 10.0193 15.2234 10.174 14.9007 10.4657L14.8005 10.3647C14.8322 10.3314 14.8642 10.2991 14.8979 10.2686C14.899 10.2675 14.9007 10.2664 14.9018 10.2653C15.2219 9.97588 15.6308 9.82119 16.1003 9.81844C16.1014 9.81844 16.1029 9.81844 16.1045 9.81844C16.1067 9.81844 16.1082 9.81844 16.1104 9.81844C16.5751 9.81844 17.097 9.96721 17.6484 10.281L37.667 21.6935L37.6665 21.6939L37.5391 21.8218Z" fill="url(#paint11_linear_4419:83568)"/>
<defs>
<linearGradient id="paint0_linear_4419:83568" x1="30.3738" y1="11.9759" x2="7.29799" y2="34.974" gradientUnits="userSpaceOnUse">
<stop stop-color="#00A0FF"/>
<stop offset="0.00657445" stop-color="#00A1FF"/>
<stop offset="0.2601" stop-color="#00BEFF"/>
<stop offset="0.5122" stop-color="#00D2FF"/>
<stop offset="0.7604" stop-color="#00DFFF"/>
<stop offset="1" stop-color="#00E3FF"/>
</linearGradient>
<linearGradient id="paint1_linear_4419:83568" x1="46.8657" y1="27.5018" x2="13.7068" y2="27.5018" gradientUnits="userSpaceOnUse">
<stop stop-color="#FFE000"/>
<stop offset="0.4087" stop-color="#FFBD00"/>
<stop offset="0.7754" stop-color="#FFA500"/>
<stop offset="1" stop-color="#FF9C00"/>
</linearGradient>
<linearGradient id="paint2_linear_4419:83568" x1="34.5222" y1="30.6569" x2="3.22967" y2="61.844" gradientUnits="userSpaceOnUse">
<stop stop-color="#FF3A44"/>
<stop offset="1" stop-color="#C31162"/>
</linearGradient>
<linearGradient id="paint3_linear_4419:83568" x1="10.5" y1="0.24216" x2="24.4733" y2="14.1685" gradientUnits="userSpaceOnUse">
<stop stop-color="#32A071"/>
<stop offset="0.0685" stop-color="#2DA771"/>
<stop offset="0.4762" stop-color="#15CF74"/>
<stop offset="0.8009" stop-color="#06E775"/>
<stop offset="1" stop-color="#00F076"/>
</linearGradient>
<linearGradient id="paint4_linear_4419:83568" x1="46.8657" y1="27.5016" x2="13.7067" y2="27.5016" gradientUnits="userSpaceOnUse">
<stop stop-color="#CCB300"/>
<stop offset="0.4087" stop-color="#CC9700"/>
<stop offset="0.7754" stop-color="#CC8400"/>
<stop offset="1" stop-color="#CC7D00"/>
</linearGradient>
<linearGradient id="paint5_linear_4419:83568" x1="34.5222" y1="30.6569" x2="3.22967" y2="61.844" gradientUnits="userSpaceOnUse">
<stop stop-color="#CC2E36"/>
<stop offset="1" stop-color="#9C0E4E"/>
</linearGradient>
<linearGradient id="paint6_linear_4419:83568" x1="30.3738" y1="11.9759" x2="7.29793" y2="34.9739" gradientUnits="userSpaceOnUse">
<stop stop-color="#008DE0"/>
<stop offset="0.00657445" stop-color="#008DE0"/>
<stop offset="0.2601" stop-color="#00A7E0"/>
<stop offset="0.5122" stop-color="#00B8E0"/>
<stop offset="0.7604" stop-color="#00C4E0"/>
<stop offset="1" stop-color="#00C7E0"/>
</linearGradient>
<linearGradient id="paint7_linear_4419:83568" x1="34.5221" y1="30.6568" x2="3.22875" y2="61.8438" gradientUnits="userSpaceOnUse">
<stop stop-color="#E0333C"/>
<stop offset="1" stop-color="#AB0F56"/>
</linearGradient>
<linearGradient id="paint8_linear_4419:83568" x1="46.8657" y1="27.5021" x2="13.7068" y2="27.5021" gradientUnits="userSpaceOnUse">
<stop stop-color="#E0C500"/>
<stop offset="0.4087" stop-color="#E0A600"/>
<stop offset="0.7754" stop-color="#E09100"/>
<stop offset="1" stop-color="#E08900"/>
</linearGradient>
<linearGradient id="paint9_linear_4419:83568" x1="46.8657" y1="27.5019" x2="13.7068" y2="27.5019" gradientUnits="userSpaceOnUse">
<stop stop-color="#FFE840"/>
<stop offset="0.4087" stop-color="#FFCE40"/>
<stop offset="0.7754" stop-color="#FFBC40"/>
<stop offset="1" stop-color="#FFB540"/>
</linearGradient>
<linearGradient id="paint10_linear_4419:83568" x1="30.3738" y1="11.9758" x2="7.298" y2="34.9739" gradientUnits="userSpaceOnUse">
<stop stop-color="#40B8FF"/>
<stop offset="0.00657445" stop-color="#40B9FF"/>
<stop offset="0.2601" stop-color="#40CEFF"/>
<stop offset="0.5122" stop-color="#40DDFF"/>
<stop offset="0.7604" stop-color="#40E7FF"/>
<stop offset="1" stop-color="#40EAFF"/>
</linearGradient>
<linearGradient id="paint11_linear_4419:83568" x1="10.5" y1="0.242388" x2="24.4734" y2="14.1687" gradientUnits="userSpaceOnUse">
<stop stop-color="#65B895"/>
<stop offset="0.0685" stop-color="#62BD95"/>
<stop offset="0.4762" stop-color="#50DB97"/>
<stop offset="0.8009" stop-color="#44ED98"/>
<stop offset="1" stop-color="#40F498"/>
</linearGradient>
</defs>
</svg>
