<svg width="186" height="55" viewBox="0 0 186 55" fill="none" xmlns="http://www.w3.org/2000/svg">
<g clip-path="url(#clip0_4698_17092)">
<path d="M11.5812 0H173.759C173.953 0 174.147 0 174.343 0.00859375C174.572 0.00859375 174.801 0.0171875 175.031 0.0171875C176.011 0.0292188 176.961 0.115156 177.887 0.275L177.781 0.259531C178.761 0.42625 179.637 0.721875 180.447 1.13438L180.393 1.11031C182.855 2.35641 184.618 4.675 185.075 7.43531L185.082 7.48516C185.225 8.28953 185.316 9.22797 185.336 10.1836V10.2025V44.7872C185.316 45.7617 185.225 46.7002 185.067 47.6145L185.082 47.5045C184.919 48.4739 184.621 49.3436 184.207 50.1411L184.231 50.0912C183.36 51.7292 182.043 53.0303 180.44 53.8587L180.39 53.8828C179.634 54.2713 178.757 54.5703 177.834 54.737L177.777 54.7456C176.959 54.8866 176.009 54.9725 175.039 54.9845H175.027C174.615 55 174.18 55 173.761 55H11.5812C11.3715 55 11.1687 55 10.9538 54.9914C10.739 54.9828 10.5327 54.9828 10.3213 54.9828C9.34852 54.9777 8.39977 54.8986 7.47336 54.7525L7.57992 54.7663C6.60023 54.5944 5.72367 54.2953 4.91586 53.8794L4.96742 53.9034C4.11148 53.4703 3.37586 52.9358 2.74164 52.3033C2.10227 51.6794 1.56258 50.9558 1.14836 50.1583L1.12602 50.1119C0.732422 49.3625 0.433359 48.4945 0.273516 47.5767L0.266641 47.5234C0.122266 46.7139 0.0328906 45.7755 0.0208594 44.8181V44.8061C0.00195312 44.3833 0.00195312 43.9845 0.00195312 43.5548V11.4606C0.00195312 11.0481 0.00195312 10.6287 0.0208594 10.2128C0.0328906 9.24516 0.122266 8.30672 0.282109 7.39234L0.266641 7.49719C0.433359 6.52781 0.732422 5.65812 1.15008 4.86063L1.12602 4.91047C1.56258 4.06313 2.09711 3.33781 2.73133 2.71047C3.36727 2.08141 4.09773 1.54859 4.90039 1.13266L4.95023 1.11031C5.7082 0.720156 6.5882 0.424531 7.51633 0.268125L7.56961 0.26125C8.38773 0.118594 9.3382 0.0309375 10.3076 0.0171875H10.3196C10.7424 0 11.1618 0 11.5812 0V0Z" fill="white"/>
<path d="M37.0632 10.0049H21.8007C14.6094 10.0049 11.9814 12.6414 11.9814 19.8482V35.1553C11.9814 42.3621 14.6094 44.9986 21.8007 44.9986H37.0632C44.251 44.9986 46.8858 42.3621 46.8858 35.1553V19.8499C46.8875 12.6414 44.2527 10.0049 37.0632 10.0049Z" fill="#C8102E"/>
<path d="M25.3259 19.9751C26.3778 21.0253 27.8301 21.6749 29.4337 21.6749C32.6426 21.6749 35.2448 19.0728 35.2448 15.8638C35.2448 15.8621 35.2448 15.8604 35.2448 15.8587H34.4198C34.4215 15.9017 34.4215 15.9515 34.4215 16.0013C34.4215 18.7565 32.1871 20.9909 29.432 20.9909C26.6768 20.9909 24.4425 18.7565 24.4425 16.0013C24.4425 15.9515 24.4425 15.8999 24.4442 15.8501V15.857H23.6192C23.6209 17.464 24.274 18.9198 25.3276 19.9717L25.3259 19.9751ZM19.8259 27.5032H18.8926V29.3492H16.8026V27.5015H15.8779V32.0768H16.8026V30.2206H18.8926V32.0785H19.819L19.8259 27.5032ZM23.0778 31.2621C23.7464 31.2621 24.1159 30.8651 24.1159 30.1226V27.4998H25.0406V30.0882C25.0492 30.1553 25.0543 30.2326 25.0543 30.3134C25.0543 31.3326 24.2293 32.1576 23.2101 32.1576C23.1586 32.1576 23.1087 32.1559 23.0589 32.1507H23.0657C23.0142 32.1559 22.9557 32.1593 22.8956 32.1593C21.897 32.1593 21.0857 31.3498 21.0857 30.3495C21.0857 30.2653 21.0909 30.1845 21.1029 30.1037L21.1012 30.1123V27.4998H22.0259V30.0882C22.0276 30.8548 22.4006 31.2621 23.0692 31.2621H23.0778ZM33.7736 27.4998L34.8082 30.6451L35.8154 27.4998H36.7779L35.1864 32.0768H34.4129L33.3765 29.0742L32.3384 32.0768H31.5718L29.9751 27.4998H30.9617L31.9757 30.6434L33.0173 27.4998H33.7736ZM40.1209 30.1123H38.4382V31.2432H40.9648V32.0785H37.5273V27.4998H40.8857V28.3317H38.4365V29.2701H40.1209V30.1123ZM42.9878 32.0751H42.0751V27.4998H42.9895L42.9878 32.0751ZM26.4517 32.0751L26.8642 31.1229H28.9542L29.3667 32.0751H30.3361L28.332 27.4998H27.5156L25.5046 32.0734L26.4517 32.0751ZM28.6001 30.2979H27.2079L27.8954 28.6582L28.6001 30.2979Z" fill="white"/>
<path d="M100.172 19.8808V15.5685C100.172 15.0265 100.191 14.4055 100.23 13.7054L96.3064 19.8791H94.8008V12.0416H96.0555V16.5207C96.0555 17.0071 96.04 17.5416 96.0056 18.1191L99.8762 12.0451H101.427V19.8826L100.172 19.8808ZM97.1245 11.3558C96.8581 11.2183 96.6398 11.019 96.4834 10.7783L96.48 10.7715C96.3391 10.5515 96.2377 10.2919 96.1981 10.0118L96.1964 10.0015H97.1692C97.207 10.4879 97.6092 10.8677 98.1008 10.8677C98.13 10.8677 98.1592 10.866 98.1867 10.8643H98.1833C98.2073 10.866 98.2331 10.8677 98.2606 10.8677C98.7556 10.8677 99.1612 10.4896 99.2042 10.0066V10.0032H100.18C100.137 10.2954 100.036 10.5566 99.8883 10.7852L99.8934 10.7783C99.7319 11.0258 99.5153 11.2252 99.2575 11.3576L99.2489 11.3627C98.9378 11.5054 98.5752 11.5896 98.1919 11.5896C97.8086 11.5896 97.4459 11.5054 97.1194 11.3558L97.1348 11.3627L97.1245 11.3558ZM57.3131 18.1122C57.6105 18.6983 58.0591 19.1693 58.6091 19.4855L58.6245 19.4941C59.1814 19.8052 59.8466 19.9891 60.5547 19.9891C60.5942 19.9891 60.6337 19.9891 60.6733 19.9874H60.6681C60.6991 19.9874 60.7352 19.9891 60.7713 19.9891C61.512 19.9891 62.2081 19.8018 62.8148 19.4718L62.7925 19.4838C63.3889 19.1487 63.8633 18.6588 64.1709 18.0676L64.1795 18.0487C64.4889 17.4419 64.6694 16.7252 64.6694 15.9655C64.6694 15.9277 64.6694 15.8882 64.6677 15.8504V15.8555C64.6677 15.8246 64.6694 15.7885 64.6694 15.7524C64.6694 15.0391 64.5044 14.3654 64.2088 13.7655L64.2208 13.7913C63.9269 13.2104 63.4834 12.7412 62.9403 12.4249L62.9248 12.4163C62.368 12.1069 61.7028 11.9247 60.9964 11.9247C60.9586 11.9247 60.9208 11.9247 60.883 11.9265H60.8881C60.8537 11.9247 60.8142 11.9247 60.773 11.9247C60.0288 11.9247 59.3275 12.1121 58.7139 12.4438L58.7362 12.4318C58.1364 12.7652 57.6603 13.2551 57.3527 13.8463L57.3441 13.8652C57.0381 14.4668 56.8594 15.1783 56.8594 15.9312C56.8594 15.9672 56.8594 16.0033 56.8611 16.0394V16.0343C56.8611 16.0652 56.8594 16.103 56.8594 16.1391C56.8594 16.8558 57.0261 17.533 57.3252 18.1346L57.3131 18.1088V18.1122ZM62.973 17.4866C62.7942 17.9215 62.5003 18.279 62.1308 18.5333L62.1222 18.5385C61.7561 18.774 61.3109 18.9132 60.8314 18.9132C60.8022 18.9132 60.7712 18.9132 60.742 18.9115H60.7455C60.7231 18.9115 60.6991 18.9132 60.6733 18.9132C60.1886 18.9132 59.7366 18.7671 59.3619 18.5162L59.3705 18.5213C59.0027 18.2566 58.7173 17.8974 58.5506 17.4763L58.5455 17.4608C58.3787 17.0346 58.2825 16.5413 58.2825 16.0257C58.2825 15.9982 58.2825 15.9707 58.2825 15.9432V15.9466C58.2825 15.9226 58.2808 15.8951 58.2808 15.8676C58.2808 15.3622 58.3822 14.8827 58.5661 14.4444L58.5575 14.4685C58.7397 14.0251 59.037 13.659 59.41 13.396L59.4186 13.3908C59.8173 13.1433 60.3003 12.9955 60.8177 12.9955C61.335 12.9955 61.818 13.1433 62.2288 13.3977L62.2167 13.3908C62.5759 13.6538 62.8509 14.013 63.0056 14.4307L63.0108 14.4462C63.1672 14.8707 63.2566 15.3605 63.2566 15.871C63.2566 15.9019 63.2566 15.9329 63.2548 15.9638V15.9587C63.2548 15.9776 63.2548 16.0016 63.2548 16.024C63.2548 16.5516 63.15 17.0535 62.9609 17.5124L62.9712 17.4866H62.973ZM126.324 38.5894V24.6005L129.016 24.384V38.1065C129.011 38.1529 129.009 38.2062 129.009 38.2612C129.009 38.6032 129.107 38.9212 129.275 39.191L129.272 39.1841C129.454 39.3783 129.712 39.5004 129.999 39.5004C130.03 39.5004 130.061 39.4987 130.092 39.4952H130.088C130.346 39.4815 130.589 39.4385 130.819 39.368L130.797 39.3732L131.115 41.3137C130.846 41.4185 130.532 41.5044 130.207 41.556L130.18 41.5594C129.867 41.6162 129.504 41.6505 129.136 41.6522H129.135C127.26 41.6477 126.323 40.6262 126.323 38.5877L126.324 38.5894ZM101.812 40.676C100.651 40.0297 99.7302 39.0793 99.1372 37.9312L99.12 37.8951C98.5219 36.7108 98.173 35.3152 98.173 33.8371C98.173 33.7597 98.1747 33.6841 98.1764 33.6085V33.6205C98.173 33.538 98.173 33.4401 98.173 33.3421C98.173 31.778 98.5734 30.3068 99.2764 29.0263L99.2523 29.0727C99.945 27.861 100.954 26.9002 102.166 26.2815L102.205 26.2626C103.386 25.6696 104.778 25.3241 106.251 25.3241C106.301 25.3241 106.349 25.3241 106.399 25.3258H106.392C106.404 25.3258 106.42 25.3258 106.433 25.3258C107.346 25.3258 108.233 25.4358 109.08 25.6438L109.005 25.6283C109.886 25.8397 110.658 26.1233 111.385 26.4826L111.32 26.4533L110.632 28.5382C109.436 27.9177 108.025 27.5396 106.53 27.5069H106.519C106.48 27.5052 106.433 27.5052 106.389 27.5052C105.375 27.5052 104.422 27.7682 103.596 28.2288L103.625 28.2133C102.784 28.7015 102.121 29.4113 101.702 30.2621L101.69 30.2896C101.253 31.1988 100.999 32.2679 100.999 33.3954C100.999 33.4693 101 33.5415 101.002 33.6137V33.6033C101.002 33.6463 101 33.6979 101 33.7477C101 34.7807 101.195 35.769 101.55 36.6765L101.531 36.6215C101.875 37.4877 102.454 38.1976 103.19 38.696L103.205 38.7063C103.97 39.191 104.9 39.478 105.899 39.478C105.967 39.478 106.036 39.4763 106.103 39.4746H106.093C106.652 39.4729 107.196 39.423 107.726 39.3285L107.669 39.3371C108.229 39.2443 108.726 39.1119 109.202 38.9349L109.145 38.9538V35.7518H105.479V33.6326H111.77V40.3168C110.957 40.7087 110.007 41.0438 109.017 41.2741L108.922 41.293C108.03 41.5062 107.006 41.6299 105.952 41.6316H105.95C105.878 41.6333 105.796 41.6351 105.71 41.6351C104.287 41.6351 102.946 41.281 101.77 40.6571L101.815 40.6794L101.812 40.676ZM67.825 37.1715H61.4777L59.9256 41.434H57.1309L63.3425 25.539H65.9808L72.3384 41.4288H69.4114L67.825 37.1715ZM62.2769 35.0162H67.0086L65.3122 30.4615C65.0807 29.8347 64.8516 29.1403 64.6247 28.3783C64.4196 29.0509 64.1973 29.7384 63.9578 30.4408L62.2769 35.0162ZM73.6017 32.4879C73.6017 31.6113 73.5731 30.6454 73.5158 29.5901H76.0544C76.1403 30.0146 76.2108 30.5319 76.2503 31.0579L76.2537 31.1026C77.1217 30.061 78.4142 29.3976 79.8614 29.3787H79.8648C79.8837 29.3787 79.9061 29.3787 79.9284 29.3787C81.6042 29.3787 83.0428 30.391 83.6684 31.8365L83.6787 31.8622C84.0741 32.7508 84.3027 33.7855 84.3027 34.8752C84.3027 34.9663 84.3009 35.0591 84.2975 35.1502V35.1365C84.2992 35.2018 84.3009 35.2791 84.3009 35.3565C84.3009 36.5596 84.0397 37.7008 83.5688 38.7287L83.5894 38.6788C83.158 39.6155 82.4791 40.3752 81.6369 40.8943L81.6145 40.9063C80.805 41.3841 79.8322 41.666 78.7923 41.666C78.7528 41.666 78.715 41.666 78.6755 41.6643H78.6806C77.8298 41.6591 77.0169 41.5079 76.2623 41.2312L76.3122 41.2466V46.1279L73.6086 46.3582L73.6017 32.4879ZM80.7087 38.5379C81.2347 37.7197 81.5458 36.7194 81.5458 35.6469C81.5458 35.5197 81.5406 35.3926 81.532 35.2671L81.5337 35.2843C81.5441 35.1691 81.5492 35.0351 81.5492 34.8993C81.5492 33.9763 81.288 33.1152 80.8342 32.3847L80.8462 32.4054C80.4458 31.8605 79.8081 31.5099 79.0862 31.5099C79.0639 31.5099 79.0416 31.5099 79.0209 31.5116H79.0244C79.0175 31.5116 79.0106 31.5116 79.002 31.5116C78.4761 31.5116 77.9811 31.6491 77.5531 31.8915L77.5686 31.8846C77.0822 32.1647 76.6645 32.4965 76.3019 32.8797L76.3002 32.8832V39.2237C76.57 39.3543 76.8862 39.4626 77.2145 39.5313L77.242 39.5365C77.56 39.6087 77.9261 39.6499 78.3008 39.6499C78.3008 39.6499 78.3008 39.6499 78.3025 39.6499C78.3541 39.6533 78.4142 39.6551 78.4744 39.6551C79.387 39.6551 80.1966 39.2202 80.7087 38.5465L80.7139 38.5396L80.7087 38.5379ZM85.9337 29.5918C85.9922 30.6471 86.0214 31.613 86.0214 32.4896V46.3771L88.7336 46.1382V41.2518C89.4366 41.5096 90.2495 41.6608 91.0969 41.6643H91.0986C91.1312 41.6643 91.1708 41.666 91.2103 41.666C92.2484 41.666 93.2212 41.3841 94.0566 40.8908L94.0308 40.9046C94.8953 40.3735 95.5742 39.6138 95.9936 38.708L96.0073 38.6771C96.4542 37.7026 96.7155 36.563 96.7155 35.3616C96.7155 35.2826 96.7137 35.2035 96.712 35.1244V35.1365C96.7155 35.0608 96.7155 34.9715 96.7155 34.8821C96.7155 33.7907 96.4869 32.7526 96.0744 31.8124L96.0933 31.8622C95.4573 30.3893 94.0187 29.3787 92.343 29.3787C92.3206 29.3787 92.2983 29.3787 92.2759 29.3787H92.2794C90.8287 29.3993 89.538 30.0627 88.6751 31.0957L88.6683 31.1026C88.6287 30.5354 88.56 30.0163 88.4603 29.5093L88.4741 29.5901L85.9337 29.5918ZM93.9569 35.286C93.9655 35.3943 93.9689 35.5215 93.9689 35.6487C93.9689 36.7212 93.6561 37.7197 93.1181 38.5602L93.1319 38.5379C92.6145 39.2202 91.8033 39.6551 90.8906 39.6551C90.8322 39.6551 90.7755 39.6533 90.7188 39.6499H90.7273H90.7256C90.3492 39.6499 89.9831 39.6087 89.6308 39.5296L89.6634 39.5365C89.3077 39.4626 88.9931 39.356 88.6975 39.2133L88.7216 39.2237V32.8815C89.0859 32.4947 89.5036 32.163 89.9642 31.8966L89.99 31.8829C90.4025 31.6491 90.8958 31.5099 91.4234 31.5099C91.432 31.5099 91.4406 31.5099 91.4475 31.5099H91.4458C91.4647 31.5099 91.487 31.5082 91.5077 31.5082C92.2278 31.5082 92.8672 31.8588 93.2625 32.3985L93.2659 32.4054C93.7042 33.1135 93.9655 33.9729 93.9655 34.8924C93.9655 35.0299 93.9603 35.1657 93.9483 35.2997L93.95 35.2826L93.9569 35.286ZM121.319 39.8596C121.343 40.4319 121.41 40.9716 121.517 41.4958L121.505 41.4288H124.059C123.999 40.4337 123.971 39.6912 123.971 39.2013V34.4885C123.975 34.3991 123.978 34.296 123.978 34.1912C123.978 33.1908 123.753 32.2421 123.353 31.393L123.37 31.4326C123.007 30.721 122.423 30.1641 121.71 29.8444L121.687 29.8358C120.969 29.5402 120.135 29.3666 119.26 29.3666C119.198 29.3666 119.137 29.3666 119.075 29.3701H119.083C119.068 29.3701 119.049 29.3701 119.03 29.3701C118.164 29.3701 117.323 29.4697 116.515 29.6605L116.589 29.6451C115.862 29.8032 115.228 30.0112 114.623 30.2741L114.69 30.2483L115.12 32.2232C115.606 31.9929 116.179 31.7849 116.773 31.6337L116.84 31.6199C117.394 31.4669 118.03 31.3758 118.686 31.369H118.69C118.74 31.3655 118.8 31.3638 118.858 31.3638C119.528 31.3638 120.14 31.6113 120.608 32.0187L120.604 32.0152C121.029 32.5291 121.287 33.1943 121.287 33.9196C121.287 34.0279 121.282 34.1344 121.27 34.241L121.271 34.2272V34.4576C120.628 34.3579 119.888 34.3029 119.135 34.3029C119.13 34.3029 119.125 34.3029 119.121 34.3029C118.947 34.2874 118.748 34.2771 118.544 34.2771C117.224 34.2771 115.996 34.669 114.97 35.3444L114.994 35.329C114.235 35.9546 113.753 36.8947 113.753 37.9466C113.753 37.993 113.755 38.0394 113.757 38.0858V38.079C113.755 38.1168 113.755 38.1615 113.755 38.2062C113.755 38.8833 113.937 39.5193 114.255 40.0641L114.245 40.0469C114.563 40.5712 115.015 40.9854 115.556 41.2466L115.575 41.2552C116.103 41.5079 116.722 41.654 117.377 41.654C117.395 41.654 117.414 41.654 117.432 41.654H117.428C117.452 41.654 117.48 41.654 117.509 41.654C118.305 41.654 119.054 41.4615 119.716 41.1212L119.688 41.1332C120.328 40.8083 120.867 40.3804 121.309 39.8665L121.314 39.8596H121.319ZM121.268 38.2251C120.888 38.641 120.431 38.9813 119.919 39.2237L119.893 39.234C119.413 39.4815 118.846 39.6293 118.246 39.6396H118.243C118.215 39.6413 118.184 39.6413 118.152 39.6413C117.701 39.6413 117.291 39.4763 116.974 39.2047L116.976 39.2065C116.686 38.9091 116.505 38.5018 116.505 38.0532C116.505 38.0033 116.507 37.9552 116.512 37.9071V37.914C116.51 37.8916 116.51 37.8658 116.51 37.8401C116.51 37.2832 116.76 36.7865 117.155 36.453L117.158 36.4513C117.713 36.0955 118.391 35.8841 119.118 35.8841C119.243 35.8841 119.365 35.891 119.487 35.903L119.472 35.9013C120.12 35.9116 120.745 35.9546 121.361 36.0302L121.276 36.0216L121.268 38.2251ZM133.055 24.5971V38.5894C133.055 40.6267 133.992 41.6482 135.865 41.654C136.235 41.6522 136.597 41.6196 136.948 41.556L136.91 41.5612C137.262 41.5062 137.579 41.4202 137.878 41.3051L137.845 41.3154L137.529 39.3749C137.319 39.4385 137.075 39.4832 136.824 39.4952H136.817C136.79 39.4987 136.759 39.4987 136.728 39.4987C136.441 39.4987 136.183 39.3766 136.003 39.1824C135.836 38.9194 135.738 38.6015 135.738 38.2577C135.738 38.2027 135.74 38.1494 135.745 38.0979V38.1047V24.3822L133.055 24.5971ZM149.05 35.8566H141.322C141.448 38.3316 142.627 39.5691 144.859 39.5691C145.464 39.5657 146.05 39.4918 146.612 39.356L146.561 39.3663C147.205 39.2133 147.762 39.0243 148.293 38.7905L148.228 38.8163L148.819 40.6691C147.563 41.2776 146.087 41.6333 144.528 41.6333C144.471 41.6333 144.414 41.6333 144.357 41.6316H144.366C144.304 41.6333 144.23 41.6351 144.156 41.6351C143.075 41.6351 142.054 41.3704 141.157 40.9046L141.193 40.9218C140.348 40.4508 139.681 39.7479 139.27 38.8971L139.258 38.8696C138.849 37.9844 138.61 36.9497 138.61 35.8601C138.61 35.781 138.612 35.7037 138.613 35.6246V35.6366C138.612 35.5765 138.61 35.5043 138.61 35.4321C138.61 34.2805 138.864 33.1891 139.32 32.2094L139.301 32.2558C139.729 31.3535 140.389 30.6196 141.205 30.1126L141.226 30.1005C142.006 29.6313 142.948 29.3546 143.955 29.3546C143.995 29.3546 144.033 29.3546 144.072 29.3563H144.067C144.119 29.3546 144.179 29.3529 144.239 29.3529C145.215 29.3529 146.124 29.6468 146.881 30.1521L146.863 30.1418C147.601 30.6608 148.173 31.3707 148.515 32.1991L148.527 32.2301C148.866 33.0516 149.062 34.0038 149.062 35.0041C149.062 35.0471 149.062 35.0918 149.06 35.1347V35.1279L149.05 35.8566ZM146.411 34.131C146.411 34.1172 146.411 34.1001 146.411 34.0829C146.411 33.2974 146.145 32.5755 145.696 32.0015L145.702 32.0083C145.301 31.5718 144.73 31.3002 144.095 31.3002C144.064 31.3002 144.033 31.3002 144.002 31.3019H144.007C143.988 31.3019 143.964 31.3002 143.94 31.3002C143.288 31.3002 142.701 31.5752 142.286 32.0135L142.285 32.0152C141.793 32.5876 141.468 33.3163 141.393 34.1172L141.391 34.1327L146.411 34.131ZM151.14 29.5935C151.197 30.925 151.226 31.9161 151.226 32.5669V41.4357H153.921V33.8251C154.345 33.2012 154.849 32.6718 155.425 32.2318L155.442 32.2197C155.89 31.9138 156.445 31.7316 157.042 31.7316C157.064 31.7316 157.087 31.7316 157.109 31.7316H157.105C157.117 31.7316 157.131 31.7316 157.145 31.7316C157.442 31.7316 157.731 31.7763 158.001 31.8588L157.98 31.8537L158.321 29.5058C158.015 29.4182 157.664 29.3683 157.301 29.3683C157.283 29.3683 157.262 29.3683 157.243 29.3683H157.246C157.229 29.3683 157.21 29.3683 157.191 29.3683C156.705 29.3683 156.248 29.4921 155.847 29.7104L155.863 29.7035C155.449 29.9321 155.098 30.2191 154.807 30.5612L154.802 30.5663C154.476 30.953 154.17 31.381 153.902 31.833L153.878 31.876C153.862 31.5907 153.836 31.2194 153.797 30.7605C153.757 30.3016 153.714 29.9115 153.67 29.5815L151.14 29.5935ZM159.94 46.274C159.565 46.2121 159.237 46.1296 158.92 46.0247L158.967 46.0385L159.458 44.0637C159.641 44.1135 159.871 44.1633 160.146 44.2115C160.381 44.2562 160.653 44.2819 160.93 44.2837H160.931C162.128 44.2837 163.025 43.5119 163.623 41.9685L163.798 41.5371L159.443 29.6021H162.344L164.53 36.2726C164.776 36.9772 165.015 37.8572 165.196 38.7579L165.218 38.8937C165.422 38.0308 165.663 37.1749 165.942 36.3258L168.16 29.5883H170.883L166.541 41.5801C166.184 42.6268 165.735 43.5326 165.189 44.3679L165.218 44.3215C164.79 44.9677 164.226 45.4902 163.561 45.8546L163.537 45.8666C162.896 46.1863 162.14 46.3737 161.34 46.3737C161.291 46.3737 161.241 46.3737 161.191 46.3719H161.198C161.186 46.3719 161.172 46.3719 161.158 46.3719C160.727 46.3719 160.304 46.3341 159.893 46.2637L159.938 46.2705L159.94 46.274ZM67.4056 13.1726H64.9822L65.1008 12.0416H71.18L71.0545 13.1726H68.7566V19.8808H67.4056V13.1726ZM76.9327 19.8808H78.4555L75.5456 15.608L76.9859 13.5455C77.0787 13.4012 77.1905 13.2774 77.3177 13.176L77.3211 13.1743C77.4294 13.0987 77.5652 13.0522 77.7112 13.0522C77.7198 13.0522 77.7267 13.0522 77.7353 13.0522H77.7336C77.89 13.054 78.0378 13.0883 78.1719 13.1468L78.165 13.1433L78.4486 12.076C78.2183 11.9797 77.9484 11.9247 77.6683 11.9247C77.658 11.9247 77.6476 11.9247 77.6356 11.9247H77.6373C77.6219 11.9247 77.6047 11.9247 77.5875 11.9247C77.2695 11.9247 76.9739 12.0158 76.723 12.1722L76.7298 12.1688C76.4445 12.3751 76.2073 12.6277 76.0234 12.9182L76.0166 12.9285L74.3958 15.266H73.6894V12.0416H72.3402V19.8791H73.6894V16.4313H74.6141L76.9327 19.8808ZM79.4867 12.0433H81.5922C81.6644 12.0382 81.7486 12.0347 81.8328 12.0347C82.5908 12.0347 83.2937 12.2651 83.8781 12.6587L83.8644 12.6501C84.3491 13.0351 84.6567 13.6263 84.6567 14.2863C84.6567 14.3276 84.655 14.3671 84.6533 14.4083V14.4032C84.6533 14.4169 84.6533 14.4341 84.6533 14.4513C84.6533 14.936 84.5209 15.3897 84.2889 15.7782L84.2958 15.7662C84.0586 16.1529 83.7217 16.4571 83.323 16.653L83.3092 16.6599C82.9019 16.8576 82.4223 16.9727 81.917 16.9727C81.8964 16.9727 81.8741 16.9727 81.8534 16.9727H81.8569C81.4908 16.9676 81.1367 16.928 80.7947 16.8558L80.8308 16.8627V19.8877H79.4798L79.4867 12.0433ZM82.8727 15.5376C83.1391 15.278 83.3058 14.9171 83.3058 14.5149C83.3058 14.484 83.3041 14.4547 83.3023 14.4255V14.429C83.3058 14.3963 83.3075 14.3585 83.3075 14.319C83.3075 13.9443 83.1391 13.6108 82.8744 13.3857L82.8727 13.384C82.5461 13.1794 82.1491 13.0574 81.7228 13.0574C81.673 13.0574 81.6248 13.0591 81.5767 13.0626H81.5836H80.8514V15.8452C81.08 15.8882 81.3464 15.9191 81.6197 15.9277H81.6283C81.6627 15.9294 81.7022 15.9312 81.7434 15.9312C82.1731 15.9312 82.5667 15.7816 82.8778 15.5324L82.8744 15.5358L82.8727 15.5376ZM85.9406 18.1088C86.238 18.6949 86.6866 19.1658 87.2366 19.4821L87.252 19.4907C87.8089 19.8018 88.4723 19.984 89.1787 19.984C89.2166 19.984 89.2544 19.984 89.2939 19.9822H89.2887C89.3197 19.9822 89.3558 19.984 89.3919 19.984C90.1326 19.984 90.8287 19.7966 91.4355 19.4666L91.4131 19.4787C92.013 19.1452 92.4908 18.6571 92.8019 18.0676L92.8105 18.0487C93.1198 17.4419 93.3003 16.7252 93.3003 15.9655C93.3003 15.9277 93.3003 15.8882 93.2986 15.8504V15.8555C93.2986 15.8263 93.3003 15.7937 93.3003 15.7593C93.3003 15.0443 93.1336 14.3671 92.838 13.7672L92.85 13.793C92.5578 13.2104 92.1127 12.7412 91.5661 12.4266L91.5506 12.418C90.9955 12.1104 90.332 11.9299 89.6273 11.9299C89.5861 11.9299 89.5448 11.9299 89.5053 11.9316H89.5105C89.4761 11.9299 89.4366 11.9299 89.397 11.9299C88.6511 11.9299 87.9498 12.1172 87.338 12.449L87.3603 12.4369C86.7605 12.7704 86.2827 13.2602 85.975 13.8515L85.9664 13.8704C85.6622 14.4719 85.4834 15.1835 85.4834 15.9363C85.4834 15.9724 85.4834 16.0085 85.4852 16.0446V16.0394C85.4852 16.0721 85.4834 16.1082 85.4834 16.146C85.4834 16.861 85.6502 17.5382 85.9475 18.138L85.9355 18.1122L85.9406 18.1088ZM91.6108 17.4797C91.4303 17.918 91.133 18.2772 90.7583 18.5299L90.7497 18.5351C90.3836 18.7705 89.9367 18.9097 89.4572 18.9097C89.428 18.9097 89.3988 18.9097 89.3695 18.908H89.373C89.3506 18.908 89.3231 18.9097 89.2956 18.9097C88.8127 18.9097 88.3623 18.7637 87.9894 18.5127L87.998 18.5179C87.6284 18.2549 87.3431 17.894 87.1781 17.4729L87.173 17.4574C86.9994 17.0226 86.898 16.519 86.898 15.9913C86.898 15.9741 86.898 15.9587 86.898 15.9415V15.9432C86.898 15.9294 86.898 15.914 86.898 15.8968C86.898 15.3794 87.0028 14.8879 87.1936 14.441L87.185 14.4651C87.3689 14.0216 87.6645 13.6555 88.0375 13.3926L88.0444 13.3874C88.4156 13.1365 88.8711 12.9869 89.3644 12.9869C89.3902 12.9869 89.4159 12.9869 89.44 12.9887H89.4366C89.4675 12.9869 89.5019 12.9869 89.538 12.9869C90.0227 12.9869 90.4747 13.1347 90.8494 13.3857L90.8408 13.3805C91.2 13.6435 91.475 14.0027 91.6297 14.4204L91.6348 14.4358C91.793 14.8621 91.8841 15.3571 91.8841 15.871C91.8841 15.8985 91.8841 15.926 91.8841 15.9518V15.9483C91.8841 15.9776 91.8858 16.0102 91.8858 16.0446C91.8858 16.5637 91.7844 17.0587 91.6022 17.5107L91.6108 17.4849V17.4797ZM102.575 13.1726H104.99V19.8808H106.34V13.1726H108.654L108.779 12.0416H102.697L102.575 13.1726ZM109.914 12.0416H114.52L114.401 13.1519H111.266V15.3072H114.214V16.3505H111.266V18.7568H114.566L114.453 19.8843H109.915L109.914 12.0416ZM124.626 16.684C124.465 16.4038 124.243 16.1752 123.977 16.0119L123.968 16.0068C123.695 15.8383 123.373 15.7197 123.028 15.6699L123.014 15.6682C123.432 15.5513 123.784 15.321 124.05 15.0133L124.052 15.0099C124.3 14.7108 124.451 14.3241 124.451 13.9013C124.451 13.8807 124.451 13.8618 124.449 13.8412V13.8446C124.451 13.8257 124.451 13.8016 124.451 13.7793C124.451 13.2688 124.209 12.8151 123.832 12.5263L123.829 12.5229C123.365 12.2152 122.794 12.033 122.182 12.033C122.107 12.033 122.031 12.0365 121.957 12.0416H121.967H119.537V19.8791H122.089C122.119 19.8808 122.155 19.8808 122.189 19.8808C122.696 19.8808 123.179 19.7794 123.619 19.5955L123.595 19.6041C123.99 19.4374 124.313 19.171 124.544 18.8324L124.549 18.8255C124.755 18.5093 124.877 18.1208 124.877 17.7049C124.877 17.6912 124.877 17.6774 124.877 17.6654V17.6671C124.877 17.6516 124.877 17.6344 124.877 17.6155C124.877 17.2735 124.788 16.9521 124.631 16.6719L124.637 16.6822L124.626 16.684ZM121.691 15.2454H120.862V13.0454H121.759C121.792 13.0437 121.832 13.0419 121.869 13.0419C122.199 13.0419 122.509 13.1313 122.775 13.286L122.767 13.2808C122.978 13.4321 123.114 13.6779 123.114 13.9546C123.114 13.9718 123.114 13.9872 123.112 14.0044V14.0027C123.112 14.0079 123.112 14.013 123.112 14.0199C123.112 14.2451 123.048 14.4565 122.937 14.6335L122.94 14.6283C122.82 14.8226 122.651 14.9772 122.452 15.0769L122.445 15.0804C122.241 15.1852 121.998 15.2454 121.744 15.2454C121.728 15.2454 121.713 15.2454 121.697 15.2454H121.699H121.691ZM123.416 18.0933C123.342 18.2687 123.239 18.4165 123.11 18.5402C122.796 18.7602 122.404 18.8926 121.983 18.8926C121.942 18.8926 121.899 18.8908 121.857 18.8891H121.862H120.862V16.2594H121.766C121.809 16.256 121.857 16.2543 121.907 16.2543C122.344 16.2543 122.749 16.3832 123.09 16.6049L123.081 16.5997C123.358 16.8421 123.531 17.1944 123.531 17.5897C123.531 17.7719 123.494 17.9455 123.428 18.1019L123.432 18.0933H123.416Z" fill="black"/>
</g>
<defs>
<clipPath id="clip0_4698_17092">
<rect width="185.625" height="55" fill="white"/>
</clipPath>
</defs>
</svg>
