<svg width="135" height="135" fill="none" xmlns="http://www.w3.org/2000/svg"><path d="M37 42.975C28.989 50.73 24 61.6 24 73.617c0 10.223 3.611 19.617 9.623 26.969 1.337 1.634 3.709.412 3.377-1.674-5.818-6.81-9.337-15.649-9.337-25.295 0-9.8 3.63-18.765 9.614-25.617L37 42.975ZM109.059 73.617c0-11.496-4.567-21.944-11.977-29.617L96 48.252c5.853 6.82 9.395 15.685 9.395 25.365 0 8.52-2.745 16.41-7.395 22.83-.363 2.174 2.124 3.367 3.387 1.56a42.438 42.438 0 0 0 7.672-24.39Z" fill="#F45600"/><path fill-rule="evenodd" clip-rule="evenodd" d="m61.918 61.334 3.93 5.679a1.4 1.4 0 0 0 2.303 0l3.983-5.753 1.746-.106c5.994-.363 11.5-1.064 15.44-1.661 2.297-.349 4.04-2.034 4.444-4.236.79-4.292 1.636-10.3 1.636-16.241 0-6.103-.893-12.594-1.702-17.205-.398-2.267-2.163-3.995-4.464-4.351-5.441-.842-13.832-1.86-22.52-1.86-8.621 0-16.756 1.003-22.03 1.84-2.256.358-3.98 2.053-4.37 4.282-.81 4.624-1.714 11.275-1.714 17.859 0 6.32.833 12.074 1.608 16.047.392 2.01 1.983 3.554 4.115 3.904 3.896.642 9.51 1.394 15.825 1.713l1.77.09Zm-25.15-40.233c.657-3.755 3.588-6.62 7.353-7.217C49.501 13.031 57.837 12 66.715 12c8.94 0 17.53 1.046 23.069 1.902 3.812.59 6.792 3.487 7.46 7.286C98.069 25.887 99 32.611 99 39.016c0 6.246-.886 12.491-1.695 16.892-.69 3.753-3.673 6.572-7.446 7.144-4.011.608-9.63 1.324-15.761 1.696l-2.987 4.314c-1.988 2.872-6.234 2.872-8.222 0l-2.923-4.222a147.389 147.389 0 0 1-16.227-1.755c-3.561-.586-6.374-3.226-7.065-6.769C35.871 52.195 35 46.2 35 39.581c0-6.876.94-13.755 1.767-18.48Z" fill="#F45600"/><path fill-rule="evenodd" clip-rule="evenodd" d="M62.643 40.239c1.007-.86 2.713-2.073 4.66-2.073 1.965 0 3.627 1.231 4.596 2.104a14.103 14.103 0 0 1 1.715 1.859l.03.04.01.013.003.004.002.003-1.455 1.06 1.455-1.06a1.8 1.8 0 0 1-2.907 2.123h-.001l-.012-.016a9.433 9.433 0 0 0-.316-.39c-.227-.266-.55-.616-.933-.96-.855-.77-1.643-1.18-2.188-1.18-.564 0-1.406.428-2.32 1.21a11.646 11.646 0 0 0-1.352 1.373l-.013.016a1.8 1.8 0 0 1-2.826-2.23l1.413 1.114-1.413-1.114.002-.003.004-.004.01-.013.03-.038.107-.129a15.255 15.255 0 0 1 1.699-1.71Zm.974 4.126-.001.002v-.002ZM49.204 31a2 2 0 1 1-4 0 2 2 0 0 1 4 0Zm40 0a2 2 0 1 1-4 0 2 2 0 0 1 4 0Z" fill="#F45600"/><g clip-path="url(#a)" fill="#F45600"><path d="M67 122.037c-12.183 0-22.14-9.958-22.14-22.14 0-12.183 9.957-22.141 22.14-22.141.945 0 1.669.723 1.669 1.669a1.64 1.64 0 0 1-1.67 1.669c-10.346 0-18.802 8.455-18.802 18.802S56.653 118.7 67 118.7c10.347 0 18.802-8.456 18.802-18.803 0-.945.724-1.669 1.67-1.669a1.64 1.64 0 0 1 1.668 1.67c0 12.182-9.957 22.14-22.14 22.14Z"/><path fill-rule="evenodd" clip-rule="evenodd" d="M58.9 92.131a1.6 1.6 0 0 0 0 2.263l5.87 5.869-5.869 5.869a1.6 1.6 0 0 0 2.263 2.263l5.869-5.869 5.869 5.869a1.6 1.6 0 1 0 2.262-2.263l-5.868-5.869 5.868-5.869a1.6 1.6 0 1 0-2.262-2.263l-5.87 5.87-5.868-5.87a1.6 1.6 0 0 0-2.263 0Z"/></g><path fill-rule="evenodd" clip-rule="evenodd" d="M88.292 39.233 87 40.414l-1.292-1.18L87 37.82l1.292 1.413ZM87 43.138c-.19.242-.389.502-.586.773-.474.65-.918 1.325-1.236 1.937-.348.667-.428 1.041-.428 1.153a2.25 2.25 0 0 0 4.5 0c0-.111-.08-.486-.428-1.153-.318-.612-.762-1.288-1.236-1.937-.197-.27-.396-.531-.586-.773Zm0-2.723-1.292-1.18-.005.005-.011.012-.038.043-.138.155a34.17 34.17 0 0 0-1.93 2.398c-.526.722-1.082 1.555-1.514 2.385-.402.774-.822 1.776-.822 2.768a5.75 5.75 0 0 0 11.5 0c0-.992-.42-1.994-.822-2.768-.432-.83-.988-1.663-1.514-2.385a34.115 34.115 0 0 0-2.067-2.553l-.039-.043-.01-.012-.005-.005L87 40.414Z" fill="#F45600"/><defs><clipPath id="a"><path fill="#fff" transform="translate(44.86 77.756)" d="M0 0h44.281v44.281H0z"/></clipPath></defs></svg>