<svg width="93" height="101" fill="none" xmlns="http://www.w3.org/2000/svg"><path fill-rule="evenodd" clip-rule="evenodd" d="M51.483 11.79a2.051 2.051 0 0 0 2.057-2.042 2.052 2.052 0 0 0-2.057-2.042h-4.775a2.051 2.051 0 0 0-2.055 2.042 2.05 2.05 0 0 0 2.055 2.041h4.775Zm-7.162 57.687a2.051 2.051 0 0 0-2.057 2.041c0 1.126.923 2.043 2.057 2.043h9.55a2.051 2.051 0 0 0 2.056-2.043 2.05 2.05 0 0 0-2.056-2.04h-9.55Zm-9.729 26.29c.499-.21 1.001-.41 1.513-.612A42.593 42.593 0 0 0 46.5 96.439c23.385 0 42.41-18.891 42.41-42.113 0-14.099-7.021-26.594-17.767-34.241v7.512c2.594-.158 6.385-.311 8.299 3.366.93 1.792.976 3.62.13 5.287-.86 1.7-2.614 3.156-5.215 4.329-.233.106-.464.204-.69.297a6.697 6.697 0 0 1 3.023 2.29 6.618 6.618 0 0 1-.725 8.667 6.125 6.125 0 0 1 1.986 1.739c1.089 1.48 1.446 3.33 1.009 5.21-.41 1.77-1.493 3.368-3.047 4.495l-.552.4c.58.396 1.093.891 1.506 1.464a5.995 5.995 0 0 1 1.063 4.52 6.022 6.022 0 0 1-2.47 3.942l-1.614 1.15a6.102 6.102 0 0 1-2.703 1.076c0 .11-.01.219-.028.326-.205 2.64-2.243 4.698-4.73 4.698H55.067C52.432 85.516 47.578 89 43.148 91.805c-2.414 1.528-4.587 2.383-6.689 3.21-.635.25-1.254.494-1.867.752ZM9.486 78.115a52.36 52.36 0 0 1 .018-.037 17.564 17.564 0 0 1-.018.037Zm.728-1.635c.034-.073.068-.146.097-.221a42.58 42.58 0 0 0 20.02 16.993c1.583-.84 3.115-1.445 4.596-2.028 1.938-.762 3.927-1.544 6.01-2.863 3.262-2.064 6.803-4.529 9.18-7.508h-18.31c-2.624 0-4.758-2.354-4.758-5.25l.01-19.704c0-4.005.843-6.636 1.913-9.965.779-2.422 1.655-5.153 2.416-9.115.277-1.44-.034-4.338-.737-6.89-.796-2.888-1.965-5.067-3.126-5.834-.46-.303-.905-.383-1.705.144-.61.403-.474 3.38-.415 4.667v.012c.064 1.38.123 2.675-.086 3.727-1.478 7.468-4.897 13.668-7.914 19.139l-.004.007c-2.545 4.614-4.743 8.599-4.942 11.948-.237 4.01-.548 7.099-1.363 10.108-.266.98-.596 1.91-.965 2.82a3.85 3.85 0 0 1 .083-.187ZM27.06 16.917C13.43 23.93 4.09 38.061 4.09 54.326c0 5.896 1.23 11.51 3.444 16.61.454-2.304.66-4.743.82-7.437.253-4.263 2.654-8.619 5.435-13.662 2.88-5.219 6.138-11.126 7.495-17.98.114-.57.063-1.676.014-2.747-.136-2.938-.304-6.587 2.244-8.271 1.32-.873 2.528-1.11 3.52-1.066l-.002-2.856ZM7.263 72.18c.058-.24.11-.484.163-.726l.011-.053c-.056.26-.111.522-.174.78Zm-.408 1.46c.055-.169.102-.34.15-.51a37.7 37.7 0 0 1 .047-.171l-.047.166c-.048.172-.095.344-.15.514ZM66.72 4.791c-.113-.132-.233-.208-.334-.208h-34.58c-.257 0-.644.464-.644 1.166l.015 16.135c.362.395.71.847 1.04 1.35 1.599 2.5 2.062 4.477 2.081 4.56.11.322.224.71.32 1.057.903 3.278 1.214 6.624.81 8.73-.32 1.67-.684 3.258-1.104 4.99l-.05.33-1.932 6.005c-.74 2.41-1.172 4.33-1.172 6.992 0 0 .008.23.008.297l-.016 19.41c0 .699.387 1.163.645 1.163h34.579c.256 0 .646-.464.646-1.165l.001-.65a6.133 6.133 0 0 1-1.71-1.598c-.765-1.059-1.16-2.304-1.121-3.81l.473-2.122c.105-.242.225-.476.359-.7a6.175 6.175 0 0 1-2.486-1.987c-1.086-1.479-1.446-3.328-1.01-5.21.412-1.773 1.496-3.37 3.05-4.495l.202-.147a6.643 6.643 0 0 1-1.883-1.729 6.564 6.564 0 0 1-1.208-4.943 6.607 6.607 0 0 1 2.616-4.304l2.717-1.971V5.75c0-.379-.112-.72-.312-.958Zm-.85 57.538c.794 1.08 2.779 1.155 4.184.138l3.434-2.49c.755-.548 1.276-1.298 1.465-2.114.165-.708.05-1.377-.323-1.884-.416-.566-1.134-.89-1.968-.89-.76 0-1.547.266-2.217.75l-3.434 2.49c-.755.548-1.275 1.3-1.464 2.114-.165.71-.05 1.378.324 1.886Zm5.578 9.104 1.616-1.151c.435-.307.72-.765.807-1.286a1.955 1.955 0 0 0-.346-1.478 2.007 2.007 0 0 0-2.785-.456l-1.614 1.15a1.966 1.966 0 0 0-.461 2.764c.616.853 1.918 1.074 2.783.457Zm-.167-26.912c-.548 0-1.073.17-1.517.491L66.79 47.17a2.542 2.542 0 0 0-1.028 1.674c-.107.674.058 1.35.465 1.904.805 1.097 2.489 1.367 3.604.56l2.973-2.157a2.552 2.552 0 0 0 .563-3.579 2.597 2.597 0 0 0-2.087-1.05Zm-.044-12.839-.094.006v5.771c.458-.158.975-.356 1.512-.598 2.261-1.02 3.003-1.97 3.243-2.446.163-.322.298-.792-.112-1.578-.621-1.197-1.626-1.332-4.531-1.156l-.067-1.081.05 1.082ZM66.386.5c2.624 0 4.757 2.355 4.757 5.25v9.447C84.258 23.371 93 37.85 93 54.326c0 25.46-20.859 46.174-46.5 46.174a46.6 46.6 0 0 1-15.665-2.703l-4.188-1.727a46.72 46.72 0 0 1-18.448-15.6l-2.474-3.971A45.631 45.631 0 0 1 0 54.326c0-18.568 11.101-34.601 27.055-41.927l-.006-6.647C27.05 2.855 29.183.5 31.807.5h34.579Zm-7.412 31.64a2.25 2.25 0 1 0-3.341-3.015l-6.58 7.293-3.841-3.572a2.25 2.25 0 1 0-3.065 3.295l5.515 5.128a2.25 2.25 0 0 0 3.203-.14l8.11-8.99Z" fill="#80BA27"/></svg>