<svg width="71" height="70" fill="none" xmlns="http://www.w3.org/2000/svg"><path d="M69.248 49.604 64.552 35.34a1.026 1.026 0 0 0-1.948.64l4.423 13.436a2.753 2.753 0 0 0-.405-.033h-3.968l-5.237-15.91V23.006h.4c.308 0 .58.196.677.49l2.527 7.677a1.026 1.026 0 0 0 1.948-.641l-2.527-7.677a2.76 2.76 0 0 0-2.626-1.9H42.492a12.847 12.847 0 0 0-6.992-2.06c-2.574 0-4.974.757-6.991 2.06H13.184a2.76 2.76 0 0 0-2.625 1.9L1.753 49.604c-.092.28-.139.57-.139.864v7.305a1.025 1.025 0 0 0 2.051 0v-5.626c0-.393.32-.713.713-.713h12.838c.271 0 .523.157.641.4l2.523 5.165a2.781 2.781 0 0 0 2.484 1.551h25.273A2.781 2.781 0 0 0 50.62 57l2.523-5.166c.12-.243.37-.4.641-.4h12.838c.394 0 .714.32.714.713v15.089c0 .393-.32.713-.714.713H4.378a.714.714 0 0 1-.713-.713v-4.401a1.025 1.025 0 0 0-2.05 0v4.4A2.767 2.767 0 0 0 4.377 70h62.244a2.767 2.767 0 0 0 2.765-2.764V50.468a2.76 2.76 0 0 0-.14-.864ZM55.366 31.49a2.775 2.775 0 0 0-.626-.073h-6.323a12.874 12.874 0 0 0-3.474-8.41h10.423v8.483Zm-32.782-.073h-6.323c-.214 0-.424.026-.626.073v-8.482h10.423a12.874 12.874 0 0 0-3.474 8.41Zm-18.61 18 8.533-25.92a.712.712 0 0 1 .678-.49h.4v10.466l-5.239 15.91H4.378c-.137 0-.272.014-.404.034ZM51.3 50.934l-2.522 5.165a.718.718 0 0 1-.641.4H22.864a.718.718 0 0 1-.64-.4L19.7 50.934a2.781 2.781 0 0 0-2.483-1.551h-6.712l5.079-15.426a.712.712 0 0 1 .677-.49h6.423a12.947 12.947 0 0 0 2.778 6.491 12.972 12.972 0 0 0 7.221 4.476 1.026 1.026 0 0 0 .446-2.002 10.914 10.914 0 0 1-6.075-3.766 10.894 10.894 0 0 1-2.426-6.846c0-5.996 4.877-10.873 10.872-10.873s10.873 4.877 10.873 10.873c0 5.11-3.624 9.584-8.617 10.637a1.025 1.025 0 1 0 .424 2.007 12.963 12.963 0 0 0 7.316-4.453 12.943 12.943 0 0 0 2.821-6.544h6.422c.31 0 .582.197.678.49l5.079 15.426h-6.712a2.782 2.782 0 0 0-2.484 1.55Z" fill="#BCBCBC"/><path d="M7.87 65.269h3.753a1.025 1.025 0 0 0 0-2.051H7.871a1.025 1.025 0 0 0 0 2.05ZM7.87 62.065h3.753a1.025 1.025 0 0 0 0-2.05H7.871a1.025 1.025 0 0 0 0 2.05ZM37.865 36.387a1.026 1.026 0 0 0 .666-1.805c-.845-.722-1.968-1.121-3.162-1.125-1.19-.003-2.318.389-3.168 1.106a1.025 1.025 0 1 0 1.322 1.567c.47-.396 1.137-.623 1.83-.623h.01c.698.003 1.367.233 1.837.634.193.165.43.246.665.246ZM29.852 29.608h-.012a1.024 1.024 0 1 0 .001 2.051h.006a1.025 1.025 0 0 0 .005-2.05ZM41.06 31.654h.024c.025.003.05.005.076.005H41.169a1.025 1.025 0 0 0 .027-2.05H41.153a1.02 1.02 0 0 0-1.02 1.02 1.03 1.03 0 0 0 .928 1.025ZM26.243 4.858a1.022 1.022 0 0 0 1.45 0l.829-.829.829.83a1.023 1.023 0 0 0 1.45 0c.4-.401.4-1.05 0-1.45l-.829-.83.829-.829A1.025 1.025 0 0 0 29.35.3l-.83.83-.828-.83a1.025 1.025 0 1 0-1.45 1.45l.829.83-.829.828c-.4.4-.4 1.05 0 1.45ZM18.937 15.553c2.582 0 4.682-2.1 4.682-4.682 0-2.582-2.1-4.682-4.682-4.682a4.687 4.687 0 0 0-4.682 4.682c0 2.582 2.1 4.682 4.682 4.682Zm0-7.313c1.451 0 2.631 1.18 2.631 2.631 0 1.451-1.18 2.631-2.63 2.631a2.634 2.634 0 0 1-2.632-2.63c0-1.452 1.18-2.632 2.631-2.632ZM49.435 14.92a1.022 1.022 0 0 0 1.45 0l.829-.829.829.83a1.022 1.022 0 0 0 1.45 0c.4-.401.4-1.05 0-1.45l-.83-.83.83-.829a1.025 1.025 0 0 0-1.45-1.45l-.83.83-.828-.83a1.025 1.025 0 1 0-1.45 1.45l.829.83-.83.828c-.4.4-.4 1.05 0 1.45ZM35.444 14.765h.003c.565 0 1.024-.457 1.026-1.022l.009-3.053a1.025 1.025 0 0 0-1.023-1.029h-.003c-.565 0-1.023.457-1.025 1.023l-.01 3.053a1.026 1.026 0 0 0 1.023 1.028ZM28.78 11.513c-.486.29-.644.92-.353 1.406l1.586 2.65a1.025 1.025 0 1 0 1.76-1.055l-1.587-2.648a1.025 1.025 0 0 0-1.406-.353ZM39.46 15.96a1.025 1.025 0 0 0 1.409-.345l1.602-2.64a1.025 1.025 0 0 0-1.753-1.064l-1.602 2.64a1.026 1.026 0 0 0 .345 1.409ZM44.86 9.159a3.934 3.934 0 0 0 3.93-3.93 3.934 3.934 0 0 0-3.93-3.93 3.934 3.934 0 0 0-3.93 3.93 3.934 3.934 0 0 0 3.93 3.93Zm0-5.809c1.037 0 1.88.843 1.88 1.88 0 1.035-.843 1.878-1.88 1.878a1.881 1.881 0 0 1-1.878-1.879c0-1.036.843-1.879 1.879-1.879Z" fill="#BCBCBC"/></svg>