<svg width="168" height="168" fill="none" xmlns="http://www.w3.org/2000/svg"><path d="M144.355 84.622c0 32.99-26.743 59.734-59.733 59.734-32.99 0-59.733-26.744-59.733-59.734S51.632 24.89 84.622 24.89c32.99 0 59.733 26.743 59.733 59.733Z" fill="#EEFCD9"/><path fill-rule="evenodd" clip-rule="evenodd" d="M41.638 111.009c-2.282.979-2.617 2.472-2.613 3.275.004.801.35 2.291 2.646 3.254 1.639.688 37.17 15.826 41.612 17.718l.451.192a12.77 12.77 0 0 0 4.999 1.014c1.691 0 3.382-.332 4.96-.996l32.421-13.677.003-.001c.741-.313 2.982-1.262 2.968-3.395-.013-2.118-2.214-3.019-2.945-3.318l-.005-.002-43.283-17.636a12.818 12.818 0 0 0-9.854.094l-31.36 13.478Zm79.589 7.439L80.97 102.045a7.842 7.842 0 0 0-6.004.059l-28.283 12.155c9.085 3.864 34.955 14.886 38.58 16.43l.42.179c.959.408 2 .617 3.05.617a7.794 7.794 0 0 0 3.025-.606l29.469-12.431Z" fill="#80BA27"/><path fill-rule="evenodd" clip-rule="evenodd" d="M39.025 113.921h4.444v13.723l13.85-5.953 5.34 2.446-17.56 7.547c7.005 2.977 32.348 13.773 38.862 16.548l1.48.631a8.448 8.448 0 0 0 6.56.012l30.85-13.014-18.52-7.547 5.705-2.378 14.605 5.952v-14.625h4.444v17.726h-.126c.079.252.124.527.126.827.014 2.132-2.224 3.079-2.966 3.393l-.004.002-32.422 13.677c-1.576.665-3.269.996-4.959.996-1.706 0-3.412-.337-5-1.013-.403-.173-40.324-17.181-42.063-17.911-2.294-.962-2.642-2.452-2.646-3.255v-17.784ZM78.697 46.26c1.253-1.07 3.377-2.58 5.798-2.58 2.446 0 4.514 1.533 5.72 2.619a17.567 17.567 0 0 1 2.135 2.314l.037.049.012.016.004.006.002.003s.001.001-1.81 1.32l1.81-1.32a2.241 2.241 0 0 1-3.617 2.643l-.001-.002-.014-.018a11.785 11.785 0 0 0-.393-.485 13.088 13.088 0 0 0-1.162-1.197c-1.063-.957-2.045-1.468-2.723-1.468-.701 0-1.75.534-2.888 1.507a14.506 14.506 0 0 0-1.681 1.708l-.017.02a2.24 2.24 0 0 1-3.517-2.775l1.76 1.387-1.76-1.386.003-.005.005-.005.012-.015.039-.048a17.531 17.531 0 0 1 .6-.692c.394-.43.96-1.01 1.646-1.595Zm1.212 5.135a.013.013 0 0 0-.001.002l.001-.002Z" fill="#80BA27"/><path fill-rule="evenodd" clip-rule="evenodd" d="M111.009 94.225c1.229.492 2.968.645 4.053.369l2.576-1.307c-.665-.633-1.459-1.251-2.288-1.621a8.91 8.91 0 0 0-.23-.096l-.009-.004c-2.362-.922-24.629-9.813-36.038-14.37l-.008-.02-5.634-2.233-3.828 2.774 7.76 3.084.002.005 33.644 13.42Zm5.835 4.347 3.208-1.626c.057.19.108.384.153.58l3.669 16.248-42.932-17.123-2.414-10.692 30.868 12.312v.001c1.34.534 2.907.81 4.382.81.98 0 1.92-.122 2.728-.372.115-.036.23-.082.338-.138ZM75.939 71.253l40.568 16.182.211.083a12.755 12.755 0 0 1 7.735 9.049l4.581 20.282a2.18 2.18 0 0 1-2.932 2.503l-47.838-19.081a2.175 2.175 0 0 1-1.317-1.542L73.62 84.001l-6.338-2.528a3.935 3.935 0 0 1-2.457-3.215 3.934 3.934 0 0 1 1.672-3.685l5.524-3.832a2.179 2.179 0 0 1 2.05-.234l1.697.679.144.057.026.01Z" fill="#80BA27"/><path fill-rule="evenodd" clip-rule="evenodd" d="M56.872 20.765c6.561-1.04 16.685-2.29 27.415-2.29 10.81 0 21.252 1.268 28.023 2.315 2.864.443 5.06 2.593 5.556 5.415 1.007 5.738 2.118 13.815 2.118 21.41 0 7.394-1.054 14.87-2.036 20.211-.503 2.74-2.673 4.838-5.532 5.271-6.438.977-16.19 2.168-26.251 2.35v2.95c1.29.728 2.517 1.24 3.616 1.24h3.693c7.631-.462 14.623-1.353 19.614-2.11 4.696-.712 8.408-4.22 9.267-8.89 1.006-5.477 2.109-13.249 2.109-21.022 0-7.97-1.159-16.338-2.186-22.185-.83-4.729-4.539-8.334-9.283-9.067-6.892-1.066-17.583-2.367-28.708-2.367-11.048 0-21.423 1.282-28.117 2.344-4.686.743-8.333 4.309-9.151 8.982-1.03 5.88-2.2 14.44-2.2 22.996 0 8.238 1.084 15.698 2.084 20.827.859 4.408 4.36 7.693 8.791 8.423 3.201.526 7.314 1.112 11.995 1.572.47.046.816-.14 1.084-.476V74.73a19.557 19.557 0 0 1-.763-.061 182.37 182.37 0 0 1-11.589-1.523c-2.653-.437-4.633-2.357-5.12-4.86-.965-4.943-2.002-12.103-2.002-19.969 0-8.193 1.125-16.47 2.132-22.223.486-2.775 2.632-4.885 5.44-5.33Zm55.4 16.875a2.489 2.489 0 1 1-4.977 0 2.489 2.489 0 0 1 4.977 0Zm-52.267 2.489a2.489 2.489 0 1 0 0-4.978 2.489 2.489 0 0 0 0 4.978Z" fill="#80BA27"/></svg>