<svg width="168" height="168" fill="none" xmlns="http://www.w3.org/2000/svg"><path d="M46.044 53.48c-9.969 9.65-16.177 23.178-16.177 38.132 0 12.722 4.494 24.413 11.975 33.561 1.664 2.035 4.616.513 4.203-2.083-7.241-8.474-11.62-19.473-11.62-31.478 0-12.194 4.518-23.351 11.964-31.879l-.345-6.253ZM135.717 91.612c0-14.306-5.682-27.307-14.903-36.856l-1.347 5.291c7.284 8.486 11.692 19.52 11.692 31.565a48.272 48.272 0 0 1-9.203 28.41c-.453 2.707 2.643 4.19 4.215 1.941a52.81 52.81 0 0 0 9.546-30.351Z" fill="#80BA27"/><path fill-rule="evenodd" clip-rule="evenodd" d="m77.053 76.327 4.892 7.067c.693 1 2.173 1 2.865 0l4.956-7.159 2.174-.132c7.459-.452 14.311-1.325 19.213-2.068 2.859-.433 5.028-2.53 5.532-5.271.982-5.341 2.035-12.817 2.035-20.211 0-7.595-1.111-15.672-2.118-21.41-.495-2.822-2.691-4.972-5.556-5.415-6.77-1.048-17.213-2.315-28.023-2.315-10.73 0-20.853 1.249-27.415 2.29-2.809.445-4.954 2.555-5.44 5.33-1.008 5.753-2.132 14.03-2.132 22.223 0 7.865 1.037 15.026 2 19.97.488 2.502 2.469 4.422 5.122 4.859 4.849.798 11.835 1.734 19.693 2.131l2.202.111ZM45.755 26.26c.818-4.673 4.466-8.239 9.151-8.982 6.695-1.062 17.07-2.345 28.117-2.345 11.126 0 21.816 1.301 28.708 2.367 4.745.734 8.453 4.34 9.283 9.068 1.027 5.847 2.186 14.214 2.186 22.185 0 7.773-1.102 15.545-2.109 21.021-.859 4.671-4.571 8.179-9.267 8.89-4.991.757-11.983 1.649-19.614 2.111l-3.716 5.369c-2.475 3.574-7.758 3.574-10.232 0l-3.637-5.254c-8.069-.407-15.229-1.367-20.194-2.185-4.432-.729-7.933-4.014-8.792-8.422-1-5.13-2.083-12.59-2.083-20.827 0-8.556 1.169-17.117 2.199-22.997Z" fill="#80BA27"/><path fill-rule="evenodd" clip-rule="evenodd" d="M89.308 53.482c-1.253 1.07-3.377 2.58-5.799 2.58-2.445 0-4.514-1.532-5.72-2.618a17.578 17.578 0 0 1-2.134-2.314l-.037-.05-.012-.015-.004-.006-.003-.003 1.81-1.32-1.81 1.32a2.241 2.241 0 0 1 3.618-2.643l.001.002.014.018.075.097a13.088 13.088 0 0 0 1.48 1.584c1.063.958 2.045 1.468 2.722 1.468.702 0 1.75-.533 2.889-1.506a14.52 14.52 0 0 0 1.681-1.708l.017-.02a2.24 2.24 0 0 1 3.517 2.774l-1.76-1.386 1.76 1.386-.003.004-.005.006-.012.015-.039.048-.132.16a19.006 19.006 0 0 1-2.114 2.127Zm-1.212-5.134.001-.002-.001.002ZM61.231 38.578a2.489 2.489 0 1 1-4.977 0 2.489 2.489 0 0 1 4.977 0Zm49.778 0a2.489 2.489 0 1 1-4.977 0 2.489 2.489 0 0 1 4.977 0Z" fill="#80BA27"/><g clip-path="url(#a)" fill="#80BA27"><path d="M81.438 134.215a1.981 1.981 0 0 1-1.523-.692L69.462 122.17c-.762-.831-.692-2.146.138-2.908.83-.761 2.146-.692 2.908.139l9 9.761 24.921-24.853c.831-.831 2.146-.831 2.908 0 .831.831.831 2.146 0 2.908l-26.445 26.375c-.346.416-.9.623-1.454.623Z"/><path d="M83.378 151.868c-15.161 0-27.553-12.392-27.553-27.553 0-15.16 12.392-27.552 27.553-27.552 1.177 0 2.076.9 2.076 2.077 0 1.176-.9 2.076-2.076 2.076-12.877 0-23.4 10.523-23.4 23.399 0 12.877 10.523 23.399 23.4 23.399 12.876 0 23.398-10.522 23.398-23.399 0-1.177.9-2.076 2.077-2.076s2.077.9 2.077 2.076c0 15.161-12.392 27.553-27.552 27.553Z"/></g><defs><clipPath id="a"><path fill="#fff" transform="translate(55.825 96.763)" d="M0 0h55.105v55.105H0z"/></clipPath></defs></svg>