<svg width="608" height="301" fill="none" xmlns="http://www.w3.org/2000/svg"><path fill-rule="evenodd" clip-rule="evenodd" d="M287.682 106.499c.786 7.037 7.558 2.821 13.837 3.411 2.463.23 19.015-11.627 10.63-25.82-10.219-17.283-2.565-17.315-22.438-22.045-5.434-1.292-21.256 25.53-34.533 14.213-7.739 1.29-29.239 30.014-20.712 41.587 4.493 6.1-.511 16.588-1.53 23.795.619.231 13.074 10.188 21.187 13.18 4.858 1.794 18.804 9.002 22.556 4.975 4.454-4.781 16.181-23.246 13.83-29.456-1.988-5.254-2.315-19.264-2.827-23.84Z" fill="#FAB40A"/><path fill-rule="evenodd" clip-rule="evenodd" d="M242.939 148.228c-9.889-.967-59.113-37.846-61.106-20.679-1.503 12.935-18.459 38.518 10.285 31.555.095-.023 22.794 1.936 23.759 4.118 1.442 3.266 13.54 14.777 3.193 13.356-11.804-1.62-11.819 3.578-13.258 13.873-2.688 19.242-33.475 23.45 29.182 20.856 6.084-.251 41.046-4.748 43.289-12.77 5.223-18.695 25.414-27.042 2.542-35.249-13.533-4.854-35.651-13.26-37.886-15.06ZM385.552 89.327c-6.013 7.978-5.582 5.986-9.548 15.608-7.061 17.14-11.67 4.768-18.877 23.652-2.507 6.553-.018 20.309 13.625 14.93.11-.043 28.894-3.892 24.239 1.571-.065.082-11.413 22.065-11.624 23.808-2.8 22.303 3.572 32.799-9.613 56.558-2.644 4.765-20.153 39.697-25.276 38.517-15.691-3.609-23.311-36.353-34.485-47.74-19.209-19.582 18.739-49.374 11.082-74.957-2.185-7.287.184-18.019-5.821-30.85-1.313-2.807-8.787-32.372 3.324-30.157 28.232 5.167 25.744-8.03 57.355-1.318.937.198 19.492 3.875 5.619 10.378Z" fill="#6EC72D"/><path d="M109.873 294.885c5.503.425 7.355.577 8.742-6.329.463-2.311.689-4.313.904-6.235 1.011-9.036 1.682-15.011 25.334-32.183 26.342-19.127 28.108-25.012 31.975-37.904.238-.798.484-1.619.747-2.472 1.256-4.113 7.035-3.398 13.724-2.569 7.078.875 15.098 1.869 19.681-2.174 9.141-8.059 11.568-12.691 11.286-21.554-.066-2.066.465-3.244 1.575-3.499 1.149-.267 2.332.693 3.245 2.633 2.129 4.524 3.058 15.305-8.682 23.725-5.098 3.653-6.026 5.109-6.192 5.536 2.294 1.001 16.615-3.254 23.576-5.319l.307-.092c8.451-2.506 15.374-2.044 22.067-1.594 4.829.322 9.389.627 14.171-.247 4.217-.771 7.803-3.802 10.091-8.537 3.297-6.818 3.049-15.465-.633-22.026-3.19-5.686-11.667-10.463-20.449-14.527-7.775-.726-17.23-2.515-25.232-6.692a2440.536 2440.536 0 0 1-8.191-4.306c-14.26-7.527-29.006-15.309-35.804-16.843-.551-.132-1.131-.025-1.72.281 2.022 8.804-1.763 23.507-5.197 28.413-1.571 2.243-2.897 1.972-3.549 1.607-3.369-1.871-1.241-15.603 1.931-23.575 1.492-3.744 3.024-5.996 4.472-7.284-.448-1.326-1.096-2.401-1.984-3.113-5.259-4.214-17.952-9.485-28.004-11.751-4.615.418-8.199 1.122-10.041 2.294-2.715 1.729-4.239 3.583-5.213 5.476-.865 8.583-.379 22.402.01 33.432.354 10.1.689 19.64.157 24.906-1.29 12.789-5.565 23.144-12.707 30.781-5.828 6.236-13.973 10.649-20.744 11.247-1.352.119-2.82.14-4.378.164-3.721.053-7.937.113-9.244 1.724-.436.54-.54 1.291-.319 2.295.195.885.27 1.854.233 2.886 7.406 2.707 13.846 1.524 20.585.293 3.223-.59 6.515-1.193 9.977-1.373 10.452-15.379 20.487-31.713 26.566-41.609 1.055-1.717 2.01-3.275 2.854-4.641 1.994-3.227 4.827-5.93 7.963-8.172 2.042-4.855 3.13-10.351 3.493-15.661-5.381-8.415-7.251-17.769-6.866-21.745.165-1.719.721-2.754 1.656-3.075.546-.188 1.416-.194 2.451.85 3.541 3.573 5.436 13.232 4.839 23.406 2.219 3.356 5.053 6.563 8.606 9.111 8.279-2.92 17.855-4.617 25.84-4.568 7.962.049 13.377 1.786 15.236 4.892 1.433 2.388.415 3.955-.319 4.677-5.404 5.312-33.006 1.944-39.183-1.574a30.245 30.245 0 0 1-1.878-1.158c-4.5 1.675-8.696 3.76-12.215 6.205l-.105.234c-6.134 13.669-11.21 34.453-9.087 45.574.713 3.733.23 6.406-1.476 8.17-3.564 3.69-11.862 2.637-22.364 1.303a32.339 32.339 0 0 0-4.841-.234c-11.056 16.218-22.463 31.129-30.443 36.569-8.408 5.733-24.422 18.625-33.787 20.051-3.95.596-5.805 1.988-5.889 3.084-.074.986 1.236 2.562 5.175 3.769 1.277.388 2.444.802 3.573 1.192 16.827 5.889 26.979-3.492 43.694-2.145Zm-13.95-27.616c7.456-5.077 18.356-19.242 28.999-34.753-2.786.246-5.488.741-8.139 1.226-6.618 1.214-13.415 2.458-21.17-.206l-.066.407a17.416 17.416 0 0 0-4.495-2.389c-.75-.397-1.51-.832-2.28-1.31-1.682-1.044-3.367-2.113-5.059-3.186C70.99 218.984 37.31 196.819.5 202.782v-2.042c38.958-5.965 71.346 16.373 84.34 24.619 1.685 1.069 3.364 2.135 5.039 3.174a33.9 33.9 0 0 0 3.878 2.085 8.679 8.679 0 0 0-.194-1.613c-.357-1.612-.114-2.954.722-3.986 1.914-2.361 6.448-2.426 10.835-2.49 1.517-.021 2.947-.043 4.22-.156 6.189-.546 13.988-4.805 19.406-10.597 6.83-7.305 10.927-17.268 12.172-29.611.518-5.132.185-14.607-.167-24.638-.353-10.007-.602-18.788-.439-25.786-.521 1.492-1.245 2.943-2.488 4.237-1.765 1.84-2.9 4.194-3.902 6.272-1.541 3.197-2.999 6.217-6.283 5.511-.896-.18-1.577-.719-1.983-1.518-.604-1.195-.545-3.029-.178-4.974-1.966 3.999-3.522 8.749-2.209 12.175.461 1.205 1.422 3.713-.216 4.362-2.521 1.006-7.94-6.832-9.246-9.767-2.701-6.049-2.237-10.229 1.904-17.2 2.32-3.902 6.924-8.457 10.984-12.473 3.194-3.157 6.21-6.14 7.223-7.961 1.406-2.528 4.618-2.78 8.688-3.103 4.342-.341 9.742-.765 15.716-3.793 10.606-5.38 26.628-13.506 41.946-13.605 4.091-.028 16.301-2.46 25.832-5.414.564-2.516 1.276-4.612 2.075-5.919.809-1.324 1.696-1.32 2.151-1.17 1.255.359 1.793 2.462 1.981 4.914 2.808-1.137 4.907-2.284 5.761-3.348 4.23-5.275 14.985-9.925 24.249-8.435 1.44.233 1.755-.006 1.758-.008.297-.698-1.724-3.871-3.058-5.97-2.325-3.652-4.956-7.788-5.219-11.336-.533-7.214-4.489-9.623-8.499-11.473-2.588-1.194-3.347-2.872-3.528-4.07-.276-1.834.628-3.87 2.416-5.446.858-.756.758-1.246.617-1.924-.103-.494-.242-1.17.186-1.791.378-.551 1.033-.781 1.57-.903-.549-.655-1.226-1.444-.913-2.35.172-.506.593-.865 1.25-1.071-.143-.236-.358-.535-.518-.762-.842-1.18-2.253-3.155-.77-4.891 1.14-1.34 3.571-1.962 5.923-2.564 1.707-.438 4.045-1.035 4.44-1.746l.12-.219c.852-1.553 2.843-5.169 7.324-7.201-1.94-.684-3.856-1.018-5.526-.868-1.067.095-1.557-1.286-.66-1.859 6.444-4.102 22.354-8.375 36.471 4.804 5.565 5.196 8.292 10.615 8.098 16.108-.343 9.72-9.548 17.196-14.492 21.212-1.898 1.542-2.841 3.03-2.881 4.548-.092 3.505 4.801 6.872 7.174 9.319 1.18 1.214 2.52 1.801 4.069 2.482 2.693 1.18 6.044 2.65 9.575 8.093 4.983 7.68 11.949 27.812 10.618 32.627-.184.682-.532 1.155-1.037 1.411-3.01 1.523 1.413 14.223 2.514 17.539 1.478 4.482 1.873 5.686 4.415 20.452 2.569 14.972 2.074 16.582 0 23.369a176.631 176.631 0 0 0-1.285 4.364c-1.028 3.679-2.891 8.705-4.864 14.027-3.974 10.728-8.489 22.886-8.26 29.32.065 1.836.248 3.618.432 5.345.752 7.425 1.468 14.437-8.895 18.453-12.11 4.695-15.122 3.739-19.559.252-.889-.698-1.531-1.688-1.04-2.8-2.195-1.452-4.571-3.671-6.743-6.874-3.779-5.571-.402-10.175 3.508-15.506.948-1.291 1.924-2.623 2.888-4.067 4.958-7.447 8.47-16.775 10.007-26.519-.602-3.131-1.689-6.114-3.442-8.752-1.956-2.943 5.498-21.818 12.222-31.133-2.25-4.589-13.031-26.956-13.262-34.624-1.942-.532-3.468-1.386-4.278-2.646-3.079-4.784-6.245-24.778-.377-34.568 1.686-2.818 4.039-4.585 6.901-5.216-2.29-2.357-4.499-4.844-6.23-7.026.033 2.333-.423 4.787-1.854 6.712-4.838 6.506-10.969 14.013-22.567 20.816a1.05 1.05 0 0 1-1.225-.116c-.202-.179-1.672-1.634-1.406-6.053-4.239 4.908-13.297 16.83-15.252 31.025.143.113.284.232.42.358 4.387 4.047 3.379 13.561 2.296 19.198 8.912 18.583 34.756 27.722 35.049 27.823 1.047.363.844 1.88-.263 1.965-.389.03-4.296.311-9.911.079 7.363 3.732 13.963 8.057 16.842 13.189 3.989 7.112 4.262 16.48.689 23.867-2.581 5.337-6.693 8.768-11.583 9.662-5.04.921-9.729.607-14.691.276-6.508-.436-13.237-.887-21.326 1.514l-.306.091c-17.328 5.141-24.785 6.881-26.1 4.296-.707-1.381.196-3.287 6.892-8.086 9.307-6.676 9.405-14.563 9.015-17.644-.331-2.612-1.239-4.275-1.787-4.873-.051.241-.093.628-.073 1.229.299 9.486-2.385 14.671-11.969 23.123-5.293 4.663-14.182 3.562-21.327 2.676-5.757-.712-10.729-1.328-11.485 1.142l-.742 2.461c-3.882 12.936-5.829 19.427-32.727 38.959-22.928 16.656-23.524 21.974-24.511 30.785-.211 1.874-.447 4.006-.93 6.396-1.743 8.681-5.206 8.413-10.938 7.955-15.902-1.237-26.883 8.101-44.223 2.032-1.112-.385-2.258-.78-3.493-1.159-4.392-1.335-6.804-3.477-6.623-5.85.182-2.421 2.968-4.235 7.636-4.94 4.975-.752 9.847-3.618 16.675-8.329 5.128-2.81 11.246-7.973 16.244-11.384Zm190.148-32.012a83.46 83.46 0 0 1-.93-1.051c-.397.155-.786.31-1.15.47.853.343 1.565.516 2.08.581Zm2.5-9.532c-.706-.984-1.172-2.439-1.542-3.996-1.171 2.262-1.92 4.147-1.852 4.865.349.293 1.363-.074 2.95-.695l.444-.174Zm-2.201-7.145c-.169-.852-.367-1.779-.551-2.313-1.356 1.075-4.25 5.693-4.587 7.807-.153.952 1.011 3.492 4.551 7.727l.646-.232c2.494-.893 5.319-1.906 6.67-3.161 1.072-1 1.983-1.934 2.792-2.807-.849.36-1.665.628-2.386.755-.429.076-.85.168-1.252.274-.362.225-.781.36-1.274.379-.744.247-1.434.518-2.084.771-2.175.85-4.23 1.653-5.472-.089-.372-.523-.608-1.425.485-4.144.559-1.394 1.423-3.143 2.462-4.967Zm4.89 6.219c.631-.557 1.015-2.266 1.359-3.806.373-1.666.759-3.389 1.558-4.655 3.355-5.31 3.281-6.591 3.163-6.869-.018.016-.226-.03-.735.078-2.054.437-5.48 5.058-8.048 9.42.372 1.876 1.163 5.723 2.135 6.002.185-.058.375-.114.568-.17Zm-162.331 5.532c1.22.02 2.46.099 3.728.259 9.524 1.21 17.753 2.253 20.595-.685 1.217-1.262 1.528-3.358.944-6.407-2.032-10.652 2.24-29.699 7.851-43.532-1.809 1.615-3.328 3.357-4.475 5.212-.845 1.365-1.799 2.92-2.854 4.638-6.339 10.317-15.858 25.814-25.789 40.515Zm46.737-60.643c-2.553-1.994-4.743-4.31-6.597-6.775-.42 3.815-1.199 7.623-2.382 11.131 3.01-1.809 6.141-3.245 8.979-4.356Zm11.43 2.921c10.072 2.16 26.805 3.082 30.135-.194.416-.408.741-.992.004-2.222-1.436-2.394-6.467-3.846-13.467-3.892-7.354-.046-15.86 1.349-23.678 3.947.153.094.309.183.467.273 1.318.75 3.658 1.47 6.539 2.088Zm-19.702-16.126c.041-8.592-1.772-16.112-4.381-18.745a2.576 2.576 0 0 0-.289-.25c-.246.5-.505 2.048-.133 4.893.442 3.375 1.9 8.731 4.803 14.102Zm15.218 3.69c.909-.398 3.218-4.469 4.889-11.697 1.118-4.831 1.792-10.633 1.114-14.98-.905 1.082-1.803 2.614-2.65 4.551-3.902 8.909-4.762 20.874-3.353 22.126Zm-39.11-40.603c.903-.928 2.013-1.839 3.392-2.717 1.082-.688 2.608-1.232 4.498-1.659-2.933-.212-5.216.091-6.387 1.088-.628.536-1.121 1.681-1.503 3.288Zm146.829 85.277c.677-.492 1.334-.833 1.91-1.135 1.319-.693 1.965-1.078 2.221-2.254.203-.942.723-2.259 1.383-3.926 2.029-5.138 5.424-13.733 4.416-23.599-.713-6.957 1.375-17.055 2.757-23.736.223-1.075.448-2.167.638-3.142-6.35 11.515-10.046 22.172-11.288 32.553a69.52 69.52 0 0 1-.33 2.412c1.396 7.773.022 16.268-1.707 22.827Zm-18.632-46.922c-7.673-3.369-22.989-11.436-30.506-24.738l-.024.092c-.99 3.939-3.145 5.999-4.721 7.503-.872.835-1.563 1.494-1.536 2.028.034.691 1.04 1.819 2.992 3.355 2.788 2.191 8.376 4.585 14.844 7.353 2.905 1.243 5.989 2.563 9.05 3.972 3.879.353 7.322.44 9.901.435Zm-31.308-31.62c.663-5.212.492-10.416-1.495-13.19-.315 4.39.102 8.988 1.495 13.19Zm-10.863-14.627c-1.789-.385-2.788-2.045-3.383-3.604-2.134 3.019-4.92 5.292-8.515 6.095-7.289 1.628-20.408 1.572-33.092 1.515-6.913-.03-13.933-.062-20.017.175 9.351 2.889 18.944 7.446 22.858 10.579 1.06.85 1.852 2.065 2.42 3.536a4.455 4.455 0 0 1 2.78-.27c7.069 1.596 21.942 9.443 36.322 17.032 2.765 1.457 5.51 2.907 8.184 4.302 5.472 2.855 11.745 4.552 17.659 5.549l-2.826-1.213c-6.604-2.828-12.307-5.27-15.309-7.63-2.606-2.049-3.696-3.45-3.765-4.836-.072-1.445.963-2.432 2.159-3.577 1.474-1.407 3.307-3.158 4.158-6.537a62.9 62.9 0 0 0 .567-2.491 32.591 32.591 0 0 1-2.385-7.585c-.703-3.851-.784-7.618-.41-11.237-1.412-.62-3.255-.592-5.504.092-.66.201-1.3.233-1.901.105Zm-4.13-6.247c-1.075-5.195-.795-12.719.257-18.705-9.831 2.961-21.655 5.179-25.372 5.203-14.821.096-30.58 8.088-41.007 13.376-6.347 3.22-12.218 3.679-16.505 4.016-3.578.283-6.165.486-7.035 2.052-1.153 2.073-4.126 5.014-7.568 8.418-3.977 3.932-8.481 8.386-10.667 12.066-3.787 6.376-4.209 9.969-1.8 15.371 1.394 3.127 4.421 6.775 6.037 8.128a13.995 13.995 0 0 0-.406-1.201c-3.101-8.087 6.736-21.239 7.154-21.795.727-.962 2.272-.084 1.778 1.011-1.608 3.555-3.78 9.949-2.752 11.972.126.248.276.373.52.43 1.531.334 2.378-.99 4.018-4.388 1.068-2.213 2.277-4.724 4.265-6.795 1.655-1.722 2.192-3.788 2.811-6.176.416-1.609.859-3.309 1.687-5.014.497-4.419 1.384-7.41 2.833-8.646 2.58-2.195 8.212-1.998 14.689-.554 7.177-.625 16.539-.584 26.213-.54 12.567.054 25.565.112 32.621-1.467 3.707-.83 6.356-3.577 8.229-6.762Zm82.589-2.768c-.771-.901-5.003-1.626-10.588-.807-4.906.718-8.511 2.299-9.558 4.132 2.061.305 4.63.344 7.541.092 6.973-.606 11.953-2.499 12.605-3.417Zm-80.974-.486c.394-.942.737-1.88 1.029-2.78 1.608-4.963 2.218-10.259 2.267-14.19-.768.273-1.564.542-2.381.81-.934 4.877-1.374 11.228-.915 16.16Zm3.265-19.083c-.068-1.47-.229-2.61-.445-3.283-.517.921-.992 2.285-1.405 3.928.636-.215 1.252-.43 1.85-.645Zm67.892-11.415c-1.042-2.543-3.361-3.856-5.341-4.434 2.174 2.012 4.118 3.639 5.341 4.434ZM277.892 43.67c6.561-1.32 17.705-7.948 18.021-17.317.323-9.639-10.887-17.918-21.138-18.876a21.044 21.044 0 0 0-3.486-.05c2.983 1.956 5.475 4.486 6.81 6.976 1.206 2.255 1.319 4.397 1.399 5.961.039.747.091 1.77.312 1.918.047.032.489.269 2.532-.382 3.34-1.067 5.788-.898 7.276.503 1.206 1.134 1.579 3.016.999 5.037-.851 2.963-2.094 3.65-5.78 5.686-.543.3-1.147.63-1.819 1.01-3.846 2.168-6.271 6.132-7.101 7.664l1.975 1.87Zm37.914 59.247c1.514-2.29-4.8-22.691-10.308-31.185-3.199-4.93-5.983-6.152-8.678-7.332-1.675-.736-3.258-1.43-4.721-2.937-.525-.539-1.182-1.13-1.875-1.756-2.657-2.397-5.962-5.378-5.867-9.008.056-2.106 1.276-4.142 3.629-6.055 4.695-3.812 13.435-10.912 13.745-19.722.171-4.891-2.337-9.793-7.459-14.572-12.356-11.535-24.9-8.562-30.666-6.186 1.607.323 3.249.889 4.814 1.64 1.856-.42 4.023-.58 6.553-.342 11.179 1.05 23.38 9.913 23.009 20.956-.351 10.366-12.197 18.016-20.253 19.342a1.049 1.049 0 0 1-.891-.27l-2.907-2.75a1.002 1.002 0 0 1-.223-1.142c.115-.25 2.874-6.171 8.279-9.217.677-.382 1.287-.718 1.833-1.019 3.546-1.96 4.184-2.311 4.805-4.469.37-1.291.204-2.422-.44-3.03-.869-.82-2.716-.83-5.201-.04-2.157.69-3.455.724-4.346.128-1.062-.714-1.128-1.998-1.206-3.485-.076-1.451-.171-3.262-1.165-5.124-1.546-2.883-4.71-5.595-8.151-7.368-5.17 1.475-7.262 5.28-8.2 6.99l-.125.229c-.824 1.48-3.212 2.09-5.735 2.736-1.942.5-4.141 1.063-4.858 1.905-.399.466-.036 1.155.877 2.434.666.933 1.296 1.815.942 2.746-.126.33-.421.75-1.116.994.553.699 1.309 1.468.943 2.432-.328.87-1.337 1.056-1.666 1.114-.187.035-.313.07-.395.096l.049.25c.166.805.477 2.3-1.259 3.834-1.274 1.121-1.928 2.484-1.754 3.645.156 1.03.949 1.882 2.363 2.534 4.362 2.012 9.065 4.853 9.68 13.16.225 3.047 2.822 7.128 4.912 10.408 2.405 3.782 4.144 6.516 3.01 8.18-.814 1.196-2.561 1.068-3.8.87-8.417-1.355-18.502 2.963-22.289 7.687-1.122 1.4-3.814 2.84-7.303 4.21.003.583-.005 1.162-.023 1.722-.168 5.507-1.45 13.52-4.792 19.619.332 1.372.784 2.484 1.374 3.218.552.686 1.11.882 1.867.651 2.482-.754 4.621-.833 6.378-.243 2.838-18.727 17.217-33.061 17.961-33.794.72-.707 1.945-.065 1.749.91-.774 3.854-.381 5.884-.022 6.82 10.693-6.465 16.474-13.565 21.065-19.736 1.882-2.532 1.61-6.373 1.027-9.019-.413-.68-.706-1.266-.855-1.727-.389-1.234-.697-2.207.157-2.68.426-.234 1.019-.112 1.344.24.33.363.923 1.755 1.351 3.615 1.768 2.881 5.606 7.14 9.335 10.812 4.615.03 9.113 2.86 10.208 7.407.281 1.168-.321 1.77-.924 1.93-1.476.395-5.751-3.015-10.111-7.29-2.952.19-5.213 1.658-6.89 4.456-5.409 9.022-2.465 28.099.344 32.465.475.741 1.456 1.327 2.834 1.739 1.617-3.967 9.004-5.352 11.325-5.693 5.16-.755 11.352-.485 12.747 1.895.303.512.762 1.854-1.514 3.197-3.574 2.105-13.801 4.061-20.799 3.015.455 5.943 7.947 22.969 13.325 33.857a.99.99 0 0 1-.096 1.038c-7.439 9.962-13.325 27.391-12.5 29.364a23.542 23.542 0 0 1 2.393 4.701c1.567-10.1 5.382-20.47 11.622-31.609 1.285-2.297 2.006-3.349 3.102-2.945 1.282.458 1.003 1.796-.328 8.236-1.358 6.561-3.409 16.478-2.728 23.131 1.062 10.347-2.447 19.227-4.543 24.531-.627 1.584-1.119 2.834-1.289 3.617-.465 2.15-1.891 2.895-3.27 3.619-1.461.766-2.975 1.556-4.196 4.207-.402.873-.75 1.636-1.678 1.278-.926-.349-.646-1.198-.423-1.882 1.634-4.979 3.557-12.381 3.63-19.8-1.92 7.465-4.96 14.48-8.881 20.362-.988 1.483-1.978 2.835-2.937 4.143-3.889 5.299-6.455 8.799-3.466 13.206 2.193 3.234 4.51 5.271 6.501 6.515.554-.338 1.228-.653 1.988-.96-2.671-3.273-4.901-6.716-4.568-8.806.409-2.553 4.093-8.874 6.308-9.617.596-.203 1.178-.093 1.6.294.348.32.592.834.814 1.601 2.632-4.105 5.859-7.962 8.258-8.472 1.675-.355 2.48.2 2.862.728 1.179 1.632-.383 4.821-3.09 9.108-.614.971-.963 2.524-1.297 4.023-.206.923-.424 1.89-.726 2.754 3.491-1.014 7.766-4.609 7.81-4.648l.006.005c.419-.315.729-.4 1.194-.154.384.206.595.627.525 1.051-.023.143-.164.347-.399.596l.026.034c-.044.035-.217.18-.547.471-1.198 1.057-2.201 2.188-3.364 3.496-1.254 1.413-2.675 3.012-4.64 4.843-1.652 1.536-4.527 2.574-7.318 3.572.302.341.617.691.947 1.048.677.737.567 1.393.441 1.717-.134.344-.53.94-1.685 1.067-.961.105-2.382-.138-4.043-.859 3.531 2.749 5.816 3.683 17.252-.748 8.904-3.452 8.353-8.872 7.592-16.37-.184-1.76-.367-3.576-.432-5.474-.245-6.827 4.332-19.184 8.379-30.082 1.964-5.282 3.809-10.271 4.809-13.868.487-1.732.927-3.163 1.303-4.413 2.01-6.578 2.432-7.948-.064-22.453-2.505-14.62-2.9-15.795-4.341-20.163-.275-.846-.596-1.81-.973-3.007-2.808-8.848-3.982-15.116-.587-16.923Z" fill="#383536"/><path d="M384.644 205.969a43.28 43.28 0 0 0 .661-3.669c-2.13.56-3.745 1.241-4.782 1.94-.753.499-.946.861-.955.947.074.099.744.543 2.717.692.716.054 1.505.084 2.359.09Zm2.12-.029c6.187-.197 14.696-1.355 22.461-3.129.697-.161 1.395-.327 2.084-.493-10.051-1.857-18.257-1.591-23.856-.505a45.744 45.744 0 0 1-.689 4.127Zm-1.22-5.779.055-.624c.156-1.914.303-3.89.44-5.901-13.327 2.39-29.528 4.545-48.703 6.487-11.133 1.127-19.376-2.107-24.305-4.039-1.716-.675-3.855-1.513-4.332-1.302.009.005-.156.284-.028 1.367.808 6.751 24.673 49.486 35.761 58.14 2.074 1.62 3.827 2.222 5.36 1.843 3.525-.874 6.15-6.944 8.931-13.374 1.652-3.817 3.369-7.765 5.489-11.313 2.882-4.803 6.333-7.513 9.665-10.137 4.278-3.357 8.124-6.372 10.235-13.325a35.998 35.998 0 0 1-1.992-.092c-2.506-.188-4.011-.858-4.479-1.99-.184-.45-.349-1.359.615-2.412 1.083-1.188 3.579-2.439 7.288-3.328Zm92.65 7.356a249.992 249.992 0 0 1-6.939-1.639c-6.856-1.715-12.758-1.269-18.835-.575 8.683 9.604 17.284 20.952 19.772 27.828 1.789 4.941-1.166 8.661-3.773 11.942-2.487 3.135-3.956 5.173-2.653 7.472 1.607 2.863 3.828 2.733 8.307 2.196 3.093-.371 6.958-.825 11.4.22 5.15 1.221 9.069 4.077 12.529 6.598 3.598 2.624 6.71 4.897 10.611 5.226 7.059.607 12.676-.162 13.97-1.913.202-.282.432-.76.028-1.675-.937-2.08-3.745-2.763-7.004-3.556-2.964-.72-6.324-1.538-8.738-3.69-7.462-6.659-20.111-28.757-28.675-48.434Zm-29.987-3.758a155.257 155.257 0 0 0-3.947-4.065c-2.68-2.671-5.02-5.532-6.975-8.5-.652.955-1.313 1.801-1.983 2.514-3.405 3.63-9.785 6.416-15.852 8.393 12.226 3.222 20.753 2.574 28.757 1.658Zm-12.125-14.479c-2.23-3.751-3.873-7.644-4.855-11.523a21.693 21.693 0 0 1-3.516 2.99c-6.976 4.746-20.056 8.89-39.57 12.507a530.419 530.419 0 0 1-.486 6.442v.022c6.599-1.191 16.209-1.265 28.023 1.438 8.738-2.516 15.062-5.576 18.1-8.811.744-.8 1.524-1.831 2.304-3.065Zm-3.699-16.576c1.625-2.925 2.276-5.979 2.267-8.486-.018-2.048-.459-3.204-.734-3.611-.211.263-.643.976-1.056 2.771-.679 2.975-.826 6.119-.477 9.326Zm-39.854-23.885c.385-.772.78-1.458 1.22-2.052-5.534.683-17.127 2.255-27.453 4.593.523 1.433 1.174 2.443 2.092 2.873 2.093 1 14.209-2.425 24.141-5.414Zm211.461 28.956c-.78-.636-1.276-.649-1.57-.601-1.56.24-3.607 3.224-6.113 7.101-.018.028-.036.057-.064.085-1.661 2.063-5.397 2.195-11.06 2.398-6.389.226-15.127.537-25.343 3.747-8.518 2.679-26.912 1.547-49.217-3.028-16.503-3.38-36.32-9.125-40.901-13.727a38.681 38.681 0 0 1-.789-.81c1.432 4.705 2.653 9.098 3.488 12.455 1.395 5.605 4.03 12.773 7.316 20.386 21.285 4.561 39.955 5.427 56.945 2.606 23.094-3.838 26.481-1.637 33.227 2.745.468.308.964.629 1.487.96 2.488 1.588 4.268 2.203 5.287 1.83 1.285-.472 1.937-2.744 2.763-5.62.138-.506.294-1.031.45-1.57 1.496-5.015 10.087-9.354 16.356-12.522 2.35-1.188 4.388-2.215 5.397-2.957 2.029-1.487 3.681-5.427 3.773-8.967.055-2.112-.45-3.713-1.432-4.511Zm-166.705 9.486c2.882-5.192 5.801-12.792 8.013-21.15 3.322-12.505 3.433-20.539 1.826-22.013-1.936-1.77-8.05-2.388-16.788-1.695-7.563.6-16.513 2.166-22.791 3.99a727.2 727.2 0 0 0-8.518 2.566 1051.97 1051.97 0 0 1-5.076 1.542c-3.332 7.886-4.543 25.029-5.571 39.421l-.083 1.213c18.844-3.535 31.64-7.563 38.23-12.046a18.95 18.95 0 0 0 4.149-3.832c-.762-4.232-.735-8.409.165-12.323.679-2.931 1.661-4.389 3.001-4.464.579-.03 1.662.204 2.332 2.119 1.083 3.06.771 9.569-3.295 15.172.798 3.843 2.285 7.733 4.406 11.5Zm26.618-23.084c-4.185-11.873-8.343-20.396-10.069-20.441.009.002-.046.049-.129.164-2.037 2.908 3.479 12.004 10.198 20.277ZM328.607 89.781a13.004 13.004 0 0 0-1.018-1.258 33.804 33.804 0 0 1-1.754-2.058 6.952 6.952 0 0 0-3.249.842c-2.24 1.2-2.396 1.856-2.396 1.862.193.27 1.983.956 6.013.795a35.57 35.57 0 0 0 2.404-.183Zm4.314-.7c-1.303-.887-2.616-1.59-3.91-2.043.037.042.074.089.12.132.661.719 1.239 1.49 1.725 2.302a42.134 42.134 0 0 0 2.065-.392Zm43.82 17.164c.376.08.689.002 1.019-.237 1.762-1.295 2.726-6.07 3.13-10.1-2.543 2.447-5.085 5.814-5.452 8.206-.202 1.317.349 1.751.918 1.999.137.061.266.106.385.132Zm-25.214 1.567c-.165-6.083-1.808-15.644-6.242-21.884-2.193 1.74-4.993 3.074-7.949 4.044 6.123 5.4 11.492 13.444 14.191 17.84Zm57.395-50.866c.174-.18.349-.358.514-.535.964-1.004 2.763-2.87 2.57-3.407 0-.006-.22-.44-2.12-.683-.459-.057-.927-.14-1.386-.248-.918 2.045-1.845 3.64-3.534 3.555-2.396-.118-6.398-2.391-6.829-4.955a2.698 2.698 0 0 1-.028-.681c-3.203.575-6.59 3.256-10.546 10.807 6.985-3.715 15.053-3.856 21.359-3.853Zm-2.432-5.425a44.34 44.34 0 0 1-1.322-.43c-1.643-.537-3.259-1.07-4.902-1.196a.709.709 0 0 0-.082.455c.22 1.34 3.231 3.172 4.892 3.263.367.017.918-1.016 1.414-2.093Zm.816-1.865a33.55 33.55 0 0 1 1.487-3.048c-1.799.355-3.699.92-5.7 1.734.928.242 1.845.543 2.736.838.505.165.991.327 1.477.476Zm22.993 4.946c-.018-.01-.045-.104-.137-.267-1.726-2.925-8.188-9.085-18.688-8.116-.881 1.229-1.561 2.635-2.148 3.965.275.054.551.098.826.135 1.386.173 3.277.573 3.8 2.003.532 1.46-.624 2.95-2.194 4.621 2.267-.014 4.204-.09 5.535-.45 2.295-.618 5.039-.817 7.462-.993 2.029-.148 5.076-.368 5.544-.898Zm-93.633-21.16c-2.478-.529-2.918-2.492-3.313-4.255-.147-.653-.303-1.33-.542-2.013-2.138.538-4.47.854-7.003.95 2.111 1.771 3.8 4.595 4.323 7.499.606 3.447-.523 6.381-3.203 8.265-1.854 1.307-2.102 2.038-2.121 2.29-.027.273.212.528.569.882.368.357.918.898.698 1.658-.229.793-1.092 1.065-1.882 1.26-2.239.55-4.231.445-5.993.351-1.478-.075-2.864-.149-4.259.147-1.037.22-1.221 1.495-1.249 1.879-.174 2.08 1.276 4.94 4.856 6.313 2.194.84 4.14.382 5.691.013 1.294-.308 2.515-.598 3.359.233.918.91.836 2.605-.33 6.98-2.561 9.6-2.919 13.69.642 18.604.67.065 1.359.2 2.056.4 2.185.632 4.388 1.893 6.517 3.54 3.24-.928 6.38-2.3 8.674-4.19-4.497-7.373-3.478-15.739-2.79-21.397l.083-.679c.523-4.33 4.203-6.25 7.159-7.791 1.386-.722 2.689-1.405 3.158-2.112.192-.29.238-.562.156-.876-.294-1.081-2.02-2.319-3.039-2.845a1.043 1.043 0 0 1-.523-.648 1.015 1.015 0 0 1 .147-.81c.266-.384.358-.71.275-.97-.146-.486-.853-.862-1.092-.957a1.04 1.04 0 0 1-.615-.672 1.01 1.01 0 0 1 .175-.88c.908-1.16.872-1.64.844-1.757-.092-.336-.863-.664-1.487-.925-.395-.168-.808-.342-1.175-.556-1.588-.929-.679-2.774.055-4.26.404-.809 1.148-2.317.799-2.657-.588-.565-.918-.563-2.735-.299-1.249.183-2.956.43-5.489.423-.533 0-.992-.05-1.396-.139Zm75.68 80.545c1.578.338 3.983-.381 5.746-1.758 1.101-.863 2.873-2.728 2.423-5.5-.413-2.545-.826-9.129-1.304-16.751-.642-10.366-1.376-22.115-2.34-27.32a1.313 1.313 0 0 1 .275-1.08c.679-.855 2.286-1.002 5.847-1.256 3.782-.266 9.482-.67 10.794-2.71.634-.998.625-2.897-.036-5.355-1.166-4.349-3.745-8.484-4.663-9.211-.78.11-2.148.038-4.461-.098-3.167-.187-7.517-.441-9.234.16a7.084 7.084 0 0 0-1.845.974c10.216-.044 16.605 6.194 18.404 9.246.596 1.01.431 1.759.183 2.21-.826 1.51-3.506 1.706-7.223 1.976-2.323.169-4.966.36-7.068.926-1.964.53-4.764.532-8.013.527-.771.846-1.441 1.67-1.726 2.375-.541 1.339-.789 7.4-1.037 13.263-.597 14.376-1.138 20.605-2.928 21.952-2.084 1.566-6.48-.047-11.125-1.751-2.836-1.04-6.058-2.218-7.481-2.044-.605.076-1.477.55-2.469 1.285-.248 4.559-1.211 11.479-4.057 13.573-1.046.768-2.258.885-3.506.336-1.661-.733-2.414-2.202-2.111-4.142.514-3.345 4.25-8.045 7.692-10.806.046-1.206.018-2.175-.055-2.714-.322-.303-2.451-.385-4.002-.443-3.195-.118-7.564-.279-11.143-2.21-5.214-2.802-14.742-4.713-17.459-5.214-.44.752-.991 1.455-1.615 2.112.009.006.009.012.018.017 5.866 8.06 7.233 21.535 6.655 26.959a1.012 1.012 0 0 1-.826.887c-.45.086-.9-.122-1.111-.512-.101-.174-7.848-14.055-16.531-21.235a43.855 43.855 0 0 1-3.185.7c2.304 5.343 1.983 12.212 1.643 19.389-.11 2.447-.229 4.978-.238 7.417 0 4.086-.34 5.796-1.304 6.537-.771.591-1.652.377-2.304.23-1.009-.237-1.881-.444-3.166 1.512-7.059 10.714-8.087 19.263-2.974 24.724 4.91 5.245 17.485 7.846 26.334 3.339 3.46-1.761 8.435-3.305 13.878-4.623-.431-1.725-.771-3.731-1.156-5.96-.377-2.225-.817-4.75-1.405-7.4-1.973-8.87-1.56-9.526 3.516-13.847.596-.513 1.266-1.085 2.019-1.742 6.434-5.658 8.334-9.397 8.353-9.433a1.04 1.04 0 0 1 1.285-.513c6.195 2.17 17.081 2.228 25.03 2.266 5.801.026 9.161.068 10.584.615.128.051.275.09.422.121Zm-78.406-89.25c2.708-.894 5.003-2.215 6.848-3.96 1.037-.974.908-1.652.725-2.078-1.12-2.526-8.555-5.05-17.431-4.635-6.25.294-21.295 2.546-26.1 17.108-.512 1.553-1.173 3.177-1.873 4.9-3.45 8.485-7.361 18.102 4.478 24.422 4.627 2.47 7.276 5.153 8.093 8.204 1.111 4.15-1.42 8.102-3.653 11.587-1.019 1.59-1.981 3.092-2.547 4.496-.535 1.33-.521 2.563.038 3.772.993 2.14 3.461 3.681 5.153 4.528-.293-3.097.312-9.165 7.884-14.322 2.717-1.846 4.076-3.963 4.039-6.293-.101-5.841-8.353-11.705-11.896-13.956-9.45-6-11.841-15.996-6.559-27.419 2.473-5.347 7.091-9.338 12.993-11.235 5.453-1.75 11.235-1.41 15.467.906 2.221 1.214 3.534 2.602 4.341 3.976Zm.294-11.912c4.663.997 8.178 2.825 9.179 5.074.367.85.716 2.544-1.184 4.334-2.038 1.914-4.525 3.368-7.435 4.356.257.767.422 1.5.578 2.164.459 2.036.634 2.804 2.699 2.807 2.368.008 3.993-.228 5.177-.4 1.817-.265 3.13-.456 4.488.859 1.414 1.354.422 3.36-.376 4.974-.257.515-.67 1.343-.725 1.723.229.12.504.236.798.36 1.028.437 2.322.979 2.662 2.268.211.762.028 1.59-.551 2.56.478.36.982.89 1.212 1.613.138.423.211 1.027-.037 1.749 1.065.682 2.763 1.987 3.204 3.61a3.006 3.006 0 0 1-.413 2.487c-.762 1.148-2.231 1.912-3.929 2.8-2.662 1.387-5.682 2.96-6.076 6.242l-.083.686c-.633 5.254-1.579 12.974 2.249 19.676a9.09 9.09 0 0 0 1.257-1.902c.202-.41.652-.64 1.111-.563.505.088 12.446 2.133 18.835 5.57 3.157 1.697 7.077 1.844 10.225 1.961 3.176.12 5.682.212 5.975 2.17.037.25.065.808.065 1.582.789-.458 1.523-.75 2.138-.824 1.937-.24 4.957.87 8.463 2.154 3.36 1.233 7.967 2.923 9.133 2.042 1.331-1.241 1.827-13.255 2.13-20.434.312-7.602.541-12.342 1.175-13.92.22-.54.559-1.086.973-1.633-6.719.056-15.017.607-21.479 5.425a1.05 1.05 0 0 1-1.267-.012.994.994 0 0 1-.303-1.207c5.737-12.379 10.795-15.356 15.384-15.356a6.581 6.581 0 0 1 1.469-.766c3.396-1.534 6.535-2.396 9.417-2.762 1.111-1.322 2.497-2.445 4.314-3.082 2.121-.745 6.526-.485 10.069-.277 1.634.096 3.663.215 4.103.104 1.001-.267 1.855.64 2.57 1.566 2.157 2.829 6.692 12.056 4.113 16.08-1.864 2.908-7.702 3.32-12.401 3.653-1.524.11-3.359.24-4.149.45.946 5.529 1.652 16.954 2.286 27.068.477 7.57.881 14.108 1.285 16.558.449 2.759-.707 5.454-3.176 7.39-2.524 1.983-5.976 2.797-8.215 1.943-1.138-.425-5.37-.453-9.84-.475-7.765-.035-18.275-.091-24.893-2.112-.899 1.448-3.277 4.783-8.38 9.273-.762.665-1.441 1.244-2.047 1.764-4.626 3.938-4.626 3.938-2.845 11.897.596 2.696 1.037 5.246 1.422 7.497.368 2.167.707 4.152 1.12 5.817 14.016-3.196 30.125-4.927 31.098-5.032.514-.055.991.273 1.111.764a.994.994 0 0 1-.625 1.182c-.716.272-1.367.836-1.964 1.652 1.083-.328 2.111-.644 3.084-.939 3.139-.962 6.086-1.86 8.546-2.575 11.225-3.263 36.091-6.866 41.58-1.833 3.827 3.513.027 19.252-1.23 23.994-1.909 7.176-5.131 16.435-8.812 22.665 1.983 3.144 4.406 6.176 7.242 8.997a172.037 172.037 0 0 1 4.993 5.183c6.802-.799 13.273-1.49 21.038.46 1.836.459 3.653.892 5.443 1.301-3.029-7.171-5.452-13.919-6.801-19.352a246.422 246.422 0 0 0-4.755-16.52c-6.792-7.741-17.274-21.446-13.658-26.595.762-1.086 1.726-1.096 2.221-1.007a.38.38 0 0 1 .065.014c3.818.815 9.123 14.011 13.217 26.642a108.812 108.812 0 0 0 3.708 3.938c7.848 7.899 69.456 22.072 87.998 16.238 10.482-3.297 19.394-3.614 25.893-3.844 4.681-.166 8.38-.299 9.491-1.591 3.047-4.71 5.076-7.596 7.508-7.968 1.074-.166 2.166.185 3.213 1.045 1.478 1.202 2.249 3.371 2.184 6.111-.11 4.156-2.092 8.682-4.598 10.53-1.157.843-3.259 1.906-5.691 3.138-5.608 2.829-14.071 7.107-15.32 11.293-.165.532-.312 1.05-.449 1.55-.982 3.427-1.763 6.133-4.03 6.965-1.735.636-3.937.011-7.15-2.029-.523-.332-1.019-.656-1.496-.969-6.49-4.216-9.445-6.14-31.741-2.436-16.861 2.802-35.356 2.046-56.293-2.319 8.444 19.054 20.56 40.17 27.536 46.403 2.029 1.807 4.984 2.526 7.848 3.22 3.626.883 7.059 1.716 8.39 4.709.771 1.712.293 2.936-.239 3.66-2.644 3.584-12.786 3.01-15.834 2.748-4.479-.389-7.967-2.929-11.666-5.623-3.46-2.524-7.04-5.129-11.776-6.253-4.066-.96-7.582-.547-10.666-.178-4.296.518-8.013.962-10.372-3.228-2.01-3.576.45-6.682 2.836-9.682 2.396-3.014 4.874-6.13 3.461-10.03-2.506-6.898-11.474-18.567-20.331-28.21-8.335.979-17.817 1.978-31.346-1.632-.964-.26-1.918-.5-2.864-.721a123.182 123.182 0 0 1-6.012 1.536c-8.243 1.885-17.054 3.063-23.434 3.201-2.257 7.975-6.572 11.364-11.078 14.904-3.195 2.507-6.499 5.1-9.179 9.582-2.056 3.433-3.736 7.321-5.37 11.078-3.111 7.206-5.81 13.428-10.326 14.544-2.212.549-4.553-.18-7.169-2.221-10.987-8.58-35.557-51.417-36.522-59.483-.132-1.106-.155-2.471.837-3.212 1.274-.949 3.183-.201 6.35 1.04 4.745 1.86 12.694 4.98 23.314 3.903 19.257-1.95 35.632-4.152 49.079-6.591.037-.578.083-1.16.129-1.741 1.046-14.805 2.12-29.965 5.204-38.552-12.612 3.764-21.487 6.02-24.039 4.821-1.542-.726-2.506-2.183-3.222-4.219-5.333 1.285-10.179 2.777-13.493 4.461-3.836 1.958-9.335 2.821-14.695 2.31-5.966-.573-10.987-2.731-14.126-6.077-4.057-4.332-6.866-12.562 2.763-27.178 2.083-3.162 4.24-2.652 5.397-2.384.174.042.431.099.56.108.156-.225.495-1.156.495-4.91 0-2.487.129-5.04.239-7.51.34-7.15.661-13.974-1.707-18.968-2.855.368-5.471.412-7.408.169-2.505-.314-3.901-1.104-4.139-2.343-.331-1.734 1.799-3.097 3.433-3.974a9.104 9.104 0 0 1 2.909-.978c-3.368-5.401-2.606-10.27-.229-19.17.954-3.573.945-4.668.863-5.004-.294-.004-.918.146-1.396.258-1.652.389-4.139.974-6.939-.094-4.562-1.747-6.397-5.554-6.168-8.354.156-1.934 1.258-3.35 2.882-3.692 1.662-.351 3.25-.269 4.801-.188 1.643.088 3.332.175 5.195-.25-.413-.473-.835-1.14-.762-2.053.101-1.205 1.047-2.399 2.974-3.76 2.561-1.803 2.699-4.411 2.368-6.284-.587-3.364-3.249-6.817-5.792-7.54-1.083-.307-1.863-.528-1.707-1.459.147-.923 1.01-.892 1.928-.86 3.478.122 6.608-.142 9.362-.788-.679-.975-1.689-1.926-3.286-2.797-3.736-2.043-8.894-2.325-13.805-.749-5.351 1.719-9.527 5.323-11.759 10.149-4.888 10.573-2.828 19.415 5.802 24.895 4.746 3.013 12.722 9.05 12.832 15.616.055 3.042-1.606 5.727-4.92 7.981-9.358 6.37-6.755 13.961-6.728 14.037a.978.978 0 0 1-.248 1.051c-.284.276-.706.37-1.074.234-.247-.087-6.119-2.185-8.054-6.345-.793-1.707-.822-3.508-.082-5.349.635-1.578 1.648-3.157 2.718-4.83 2.111-3.293 4.293-6.696 3.405-10.003-.665-2.485-2.983-4.755-7.082-6.943-13.445-7.177-8.989-18.136-5.411-26.94.689-1.69 1.338-3.286 1.83-4.773 5.2-15.764 21.286-18.194 27.968-18.507 3.653-.17 7.206.127 10.253.778Z" fill="#383536"/></svg>