<svg width="167" height="56" viewBox="0 0 167 56" fill="none" xmlns="http://www.w3.org/2000/svg">
<path d="M153.281 0.000181999H13.7267C13.218 0.000181999 12.7154 0.000181999 12.208 0.00298199C11.7833 0.00578198 11.362 0.013916 10.9333 0.0207619C10.0018 0.0318244 9.07245 0.114528 8.15341 0.268155C7.23566 0.425126 6.34666 0.721062 5.51648 1.14595C4.68731 1.57444 3.92968 2.13121 3.27106 2.79607C2.60899 3.45906 2.0571 4.22539 1.63662 5.06559C1.21497 5.90412 0.922602 6.80267 0.769606 7.73023C0.615154 8.65661 0.532042 9.59368 0.521016 10.533C0.508143 10.9623 0.506783 11.3929 0.5 11.8222V44.1821C0.506783 44.6168 0.508143 45.0379 0.521016 45.4727C0.532046 46.412 0.615158 47.349 0.769606 48.2754C0.92218 49.2035 1.21457 50.1026 1.63662 50.9414C2.05691 51.7789 2.60888 52.5421 3.27106 53.2014C3.92718 53.8692 4.68531 54.4264 5.51648 54.8516C6.34666 55.2776 7.23556 55.5753 8.15341 55.7347C9.07261 55.8871 10.0018 55.9698 10.9333 55.9822C11.362 55.9917 11.7833 55.9972 12.208 55.9972C12.7154 56 13.218 56 13.7267 56H153.281C153.779 56 154.286 56 154.785 55.9972C155.207 55.9972 155.641 55.9917 156.063 55.9822C156.993 55.9705 157.921 55.8878 158.838 55.7347C159.759 55.5742 160.651 55.2766 161.485 54.8516C162.315 54.4261 163.073 53.869 163.728 53.2014C164.389 52.5395 164.942 51.7769 165.367 50.9414C165.786 50.1019 166.076 49.2029 166.226 48.2754C166.381 47.3489 166.467 46.4121 166.484 45.4727C166.489 45.0379 166.489 44.6168 166.489 44.1821C166.5 43.6735 166.5 43.1676 166.5 42.6508V13.3507C166.5 12.838 166.5 12.3294 166.489 11.8222C166.489 11.3929 166.489 10.9623 166.484 10.533C166.467 9.59354 166.381 8.65668 166.226 7.73017C166.076 6.80315 165.786 5.90467 165.367 5.06553C164.511 3.38145 163.153 2.01061 161.485 1.14583C160.651 0.721974 159.759 0.426117 158.838 0.268029C157.921 0.113726 156.993 0.0309928 156.063 0.0205659C155.641 0.013734 155.207 0.00552998 154.785 0.00279999C154.286 0 153.779 0 153.281 0V0.000181999Z" fill="white"/>
<path d="M12.2148 54.7749C11.7922 54.7749 11.3797 54.7695 10.9604 54.7599C10.0917 54.7485 9.225 54.6722 8.36747 54.5316C7.56786 54.3926 6.79326 54.1341 6.06921 53.7645C5.3518 53.3981 4.69746 52.9175 4.13127 52.3413C3.55688 51.7719 3.07867 51.1115 2.7156 50.3862C2.34853 49.6562 2.09449 48.8738 1.96234 48.0661C1.81963 47.1983 1.74242 46.3208 1.73137 45.4412C1.72257 45.1459 1.71106 44.1628 1.71106 44.1628V11.8221C1.71106 11.8221 1.72332 10.8542 1.73144 10.5698C1.74202 9.69154 1.81878 8.81539 1.96106 7.9489C2.09346 7.13903 2.34769 6.35433 2.71496 5.62197C3.0767 4.89721 3.55225 4.23629 4.12318 3.66484C4.69347 3.08796 5.3499 2.60494 6.06853 2.23339C6.79092 1.86503 7.56405 1.60832 8.36204 1.47187C9.22239 1.32987 10.0921 1.25309 10.9638 1.24219L12.2155 1.2251H154.778L156.044 1.24288C156.908 1.25324 157.77 1.32933 158.622 1.4705C159.428 1.60866 160.21 1.86716 160.94 2.23749C162.38 2.98627 163.551 4.17092 164.29 5.62538C164.652 6.35269 164.902 7.13099 165.033 7.93386C165.177 8.80746 165.257 9.6905 165.274 10.5759C165.278 10.9724 165.278 11.3983 165.278 11.8221C165.289 12.3471 165.289 12.8468 165.289 13.3506V42.6507C165.289 43.1593 165.289 43.6556 165.278 44.156C165.278 44.6112 165.278 45.0283 165.273 45.4575C165.256 46.3272 165.177 47.1945 165.036 48.0524C164.906 48.8659 164.653 49.6545 164.286 50.3904C163.921 51.1078 163.445 51.7625 162.878 52.3304C162.311 52.9097 161.655 53.393 160.936 53.7619C160.208 54.1343 159.428 54.3938 158.622 54.5316C157.765 54.6729 156.898 54.7493 156.029 54.7599C155.623 54.7695 155.198 54.7749 154.785 54.7749L153.281 54.7777L12.2148 54.7749Z" fill="white"/>
<path d="M34.8598 28.4212C34.8747 27.2527 35.1823 26.107 35.7538 25.0906C36.3254 24.0743 37.1424 23.2204 38.1289 22.6083C37.5022 21.7051 36.6755 20.9618 35.7144 20.4374C34.7533 19.9131 33.6843 19.6221 32.5922 19.5876C30.2628 19.3408 28.0045 20.9944 26.8174 20.9944C25.6074 20.9944 23.7797 19.6121 21.8116 19.653C20.5386 19.6945 19.298 20.0681 18.2106 20.7374C17.1232 21.4066 16.2261 22.3488 15.6067 23.472C12.9239 28.1597 14.925 35.0492 17.495 38.8384C18.7808 40.6939 20.2836 42.7665 22.2499 42.693C24.174 42.6125 24.8927 41.4548 27.2153 41.4548C29.5163 41.4548 30.1906 42.693 32.1968 42.6463C34.2615 42.6125 35.5623 40.7826 36.803 38.9095C37.7269 37.5874 38.4378 36.1262 38.9094 34.58C37.7099 34.068 36.6862 33.211 35.9661 32.1158C35.2459 31.0205 34.8612 29.7356 34.8598 28.4212V28.4212Z" fill="#2E2E2E"/>
<path d="M31.0704 17.0953C32.1962 15.7315 32.7508 13.9784 32.6165 12.2085C30.8966 12.3908 29.3079 13.2204 28.1669 14.5319C27.609 15.1727 27.1818 15.9181 26.9095 16.7256C26.6373 17.533 26.5254 18.3867 26.5803 19.2379C27.4406 19.2468 28.2917 19.0586 29.0694 18.6875C29.8472 18.3164 30.5314 17.772 31.0704 17.0953Z" fill="#2E2E2E"/>
<path d="M59.1824 37.9957H52.6162L51.0393 42.6947H48.2581L54.4775 25.3096H57.3671L63.5865 42.6947H60.7579L59.1824 37.9957ZM53.2962 35.8273H58.501L55.9352 28.2012H55.8634L53.2962 35.8273Z" fill="#2E2E2E"/>
<path d="M77.0184 36.3575C77.0184 40.2964 74.9295 42.827 71.7771 42.827C70.9785 42.8692 70.1843 42.6835 69.4855 42.2913C68.7866 41.8991 68.2113 41.3163 67.8254 40.6094H67.7658V46.8875H65.1878V30.0192H67.6832V32.1274H67.7306C68.1342 31.424 68.7192 30.8441 69.4234 30.4495C70.1276 30.055 70.9246 29.8604 71.7297 29.8866C74.9172 29.8866 77.0184 32.4296 77.0184 36.3575ZM74.3686 36.3575C74.3686 33.7913 73.0546 32.1042 71.0496 32.1042C69.0799 32.1042 67.755 33.8268 67.755 36.3575C67.755 38.9114 69.0799 40.6218 71.0496 40.6218C73.0546 40.6218 74.3686 38.947 74.3686 36.3575Z" fill="#2E2E2E"/>
<path d="M90.8418 36.3575C90.8418 40.2964 88.7529 42.827 85.6005 42.827C84.8019 42.8692 84.0077 42.6835 83.3089 42.2913C82.61 41.8991 82.0347 41.3162 81.6488 40.6094H81.5892V46.8875H79.0112V30.0192H81.5065V32.1274H81.5539C81.9575 31.424 82.5426 30.8441 83.2468 30.4495C83.951 30.0549 84.748 29.8604 85.553 29.8866C88.7407 29.8866 90.8418 32.4296 90.8418 36.3575ZM88.192 36.3575C88.192 33.7913 86.8779 32.1042 84.873 32.1042C82.9033 32.1042 81.5783 33.8268 81.5783 36.3575C81.5783 38.9114 82.9033 40.6217 84.873 40.6217C86.878 40.6217 88.192 38.9469 88.192 36.3575H88.192Z" fill="#2E2E2E"/>
<path d="M99.978 37.8506C100.169 39.5746 101.829 40.7066 104.096 40.7066C106.269 40.7066 107.833 39.5746 107.833 38.0201C107.833 36.6707 106.89 35.8627 104.657 35.309L102.425 34.7662C99.2613 33.9951 97.7928 32.5021 97.7928 30.0795C97.7928 27.0799 100.383 25.0195 104.061 25.0195C107.701 25.0195 110.196 27.0799 110.28 30.0795H107.678C107.522 28.3445 106.101 27.2973 104.024 27.2973C101.948 27.2973 100.527 28.3568 100.527 29.899C100.527 31.1281 101.434 31.8514 103.655 32.405L105.553 32.8753C109.087 33.7189 110.555 35.1517 110.555 37.6946C110.555 40.9472 107.988 42.9843 103.905 42.9843C100.085 42.9843 97.5056 40.995 97.3389 37.8505L99.978 37.8506Z" fill="#2E2E2E"/>
<path d="M116.119 27.0195V30.0191H118.508V32.0795H116.119V39.0671C116.119 40.1527 116.597 40.6586 117.647 40.6586C117.931 40.6536 118.214 40.6335 118.495 40.5983V42.6464C118.023 42.7354 117.544 42.7757 117.063 42.7667C114.521 42.7667 113.529 41.8028 113.529 39.3446V32.0795H111.703V30.0191H113.529V27.0195H116.119Z" fill="#2E2E2E"/>
<path d="M119.891 36.3574C119.891 32.3693 122.218 29.8633 125.847 29.8633C129.489 29.8633 131.805 32.3693 131.805 36.3574C131.805 40.3564 129.501 42.8515 125.847 42.8515C122.195 42.8515 119.891 40.3564 119.891 36.3574ZM129.179 36.3574C129.179 33.6217 127.936 32.007 125.847 32.007C123.758 32.007 122.518 33.634 122.518 36.3574C122.518 39.1041 123.758 40.7064 125.847 40.7064C127.936 40.7064 129.179 39.1041 129.179 36.3574H129.179Z" fill="#2E2E2E"/>
<path d="M133.931 30.0196H136.39V32.177H136.449C136.616 31.5032 137.007 30.9077 137.557 30.4907C138.107 30.0737 138.783 29.8605 139.47 29.887C139.767 29.8859 140.064 29.9185 140.354 29.984V32.4176C139.979 32.302 139.587 32.2489 139.195 32.2604C138.821 32.2451 138.447 32.3117 138.101 32.4558C137.754 32.5998 137.443 32.8178 137.187 33.0949C136.932 33.3719 136.739 33.7014 136.622 34.0608C136.505 34.4201 136.466 34.8007 136.509 35.1766V42.6947H133.931L133.931 30.0196Z" fill="#2E2E2E"/>
<path d="M152.24 38.9715C151.893 41.2724 149.673 42.8515 146.832 42.8515C143.178 42.8515 140.91 40.381 140.91 36.4176C140.91 32.4418 143.19 29.8633 146.723 29.8633C150.198 29.8633 152.383 32.2723 152.383 36.1154V37.0068H143.513V37.164C143.472 37.6305 143.53 38.1004 143.682 38.5426C143.835 38.9848 144.08 39.3891 144.399 39.7287C144.719 40.0682 145.106 40.3353 145.536 40.5121C145.966 40.6889 146.428 40.7715 146.891 40.7542C147.501 40.8119 148.112 40.6695 148.635 40.3482C149.157 40.027 149.563 39.5442 149.792 38.9714L152.24 38.9715ZM143.525 35.1885H149.804C149.827 34.769 149.764 34.3493 149.619 33.9556C149.474 33.5619 149.249 33.2028 148.96 32.9007C148.671 32.5986 148.323 32.3601 147.938 32.2002C147.553 32.0403 147.14 31.9625 146.723 31.9715C146.304 31.9689 145.887 32.0504 145.499 32.211C145.11 32.3716 144.757 32.6083 144.46 32.9074C144.163 33.2065 143.927 33.562 143.766 33.9536C143.606 34.3451 143.524 34.7648 143.525 35.1885V35.1885Z" fill="#2E2E2E"/>
<path d="M52.9731 12.2238C53.5136 12.1847 54.056 12.2671 54.5611 12.4651C55.0662 12.6631 55.5214 12.9718 55.894 13.3689C56.2666 13.7659 56.5472 14.2415 56.7156 14.7613C56.884 15.2811 56.9361 15.8321 56.8679 16.3746C56.8679 19.0433 55.4387 20.5774 52.9731 20.5774H49.9833V12.2238H52.9731ZM51.2689 19.396H52.8295C53.2157 19.4193 53.6022 19.3554 53.9609 19.2089C54.3195 19.0625 54.6413 18.8372 54.9028 18.5494C55.1643 18.2616 55.3589 17.9186 55.4724 17.5453C55.586 17.172 55.6157 16.7779 55.5593 16.3916C55.6116 16.0069 55.5789 15.6152 55.4636 15.2446C55.3483 14.8741 55.1532 14.5339 54.8923 14.2484C54.6314 13.9629 54.3112 13.7392 53.9546 13.5933C53.598 13.4473 53.2138 13.3828 52.8295 13.4043H51.2689V19.396Z" fill="#2E2E2E"/>
<path d="M58.3201 17.4223C58.2809 17.008 58.3278 16.59 58.458 16.1951C58.5882 15.8002 58.7987 15.4371 59.0761 15.1292C59.3534 14.8212 59.6915 14.5751 60.0686 14.4067C60.4457 14.2383 60.8536 14.1514 61.2659 14.1514C61.6783 14.1514 62.0861 14.2383 62.4633 14.4067C62.8404 14.5751 63.1785 14.8212 63.4558 15.1292C63.7332 15.4371 63.9437 15.8002 64.0739 16.1951C64.2041 16.59 64.251 17.008 64.2117 17.4223C64.2518 17.837 64.2054 18.2556 64.0755 18.6511C63.9457 19.0466 63.7353 19.4104 63.4579 19.719C63.1804 20.0275 62.8421 20.2741 62.4646 20.4429C62.0871 20.6116 61.6788 20.6988 61.2659 20.6988C60.8531 20.6988 60.4448 20.6116 60.0673 20.4429C59.6898 20.2741 59.3515 20.0275 59.074 19.719C58.7966 19.4104 58.5862 19.0466 58.4564 18.6511C58.3265 18.2556 58.2801 17.837 58.3201 17.4223V17.4223ZM62.9437 17.4223C62.9437 16.0558 62.3355 15.2567 61.268 15.2567C60.1964 15.2567 59.5936 16.0558 59.5936 17.4223C59.5936 18.7997 60.1964 19.5927 61.268 19.5927C62.3355 19.5927 62.9437 18.7943 62.9437 17.4223H62.9437Z" fill="#2E2E2E"/>
<path d="M72.0433 20.577H70.7645L69.4734 15.9341H69.3759L68.0903 20.577H66.8236L65.1018 14.2729H66.3522L67.4712 19.0833H67.5633L68.8476 14.2729H70.0302L71.3145 19.0833H71.412L72.5256 14.2729H73.7584L72.0433 20.577Z" fill="#2E2E2E"/>
<path d="M75.2065 14.2729H76.3932V15.2744H76.4854C76.6417 14.9147 76.9052 14.6132 77.2394 14.4118C77.5735 14.2105 77.9616 14.1194 78.3494 14.1512C78.6534 14.1282 78.9586 14.1744 79.2424 14.2865C79.5262 14.3987 79.7814 14.5738 79.989 14.799C80.1967 15.0242 80.3515 15.2936 80.4419 15.5874C80.5324 15.8811 80.5562 16.1916 80.5116 16.4959V20.5769H79.2788V16.8084C79.2788 15.7953 78.8426 15.2915 77.9308 15.2915C77.7245 15.2818 77.5185 15.3172 77.327 15.3954C77.1355 15.4735 76.963 15.5926 76.8213 15.7443C76.6796 15.896 76.5721 16.0769 76.5062 16.2745C76.4403 16.4721 76.4174 16.6817 76.4393 16.889V20.577H75.2065L75.2065 14.2729Z" fill="#2E2E2E"/>
<path d="M82.4759 11.812H83.7087V20.577H82.4759V11.812Z" fill="#2E2E2E"/>
<path d="M85.4223 17.4224C85.3831 17.0081 85.4301 16.5901 85.5603 16.1952C85.6905 15.8003 85.9011 15.4372 86.1784 15.1292C86.4558 14.8212 86.794 14.5751 87.1711 14.4067C87.5482 14.2384 87.9561 14.1514 88.3685 14.1514C88.7809 14.1514 89.1887 14.2384 89.5659 14.4067C89.943 14.5751 90.2811 14.8212 90.5585 15.1292C90.8359 15.4372 91.0465 15.8003 91.1767 16.1952C91.3069 16.5901 91.3539 17.0081 91.3146 17.4224C91.3546 17.8371 91.3081 18.2557 91.1783 18.6512C91.0484 19.0468 90.838 19.4105 90.5605 19.7191C90.283 20.0276 89.9447 20.2742 89.5672 20.443C89.1897 20.6117 88.7814 20.6989 88.3685 20.6989C87.9556 20.6989 87.5473 20.6117 87.1698 20.443C86.7923 20.2742 86.4539 20.0276 86.1765 19.7191C85.899 19.4105 85.6886 19.0468 85.5587 18.6512C85.4288 18.2557 85.3824 17.8371 85.4223 17.4224V17.4224ZM90.0459 17.4224C90.0459 16.0559 89.4377 15.2568 88.3702 15.2568C87.2986 15.2568 86.6958 16.0559 86.6958 17.4224C86.6958 18.7999 87.2986 19.5928 88.3702 19.5928C89.4377 19.5928 90.0459 18.7944 90.0459 17.4224H90.0459Z" fill="#2E2E2E"/>
<path d="M92.6124 18.7943C92.6124 17.6595 93.4497 17.0054 94.9357 16.9124L96.6278 16.8139V16.2698C96.6278 15.604 96.1916 15.228 95.3489 15.228C94.6608 15.228 94.1839 15.483 94.0471 15.9287H92.8536C92.9796 14.8459 93.9888 14.1514 95.4058 14.1514C96.9719 14.1514 97.8551 14.9382 97.8551 16.2698V20.5771H96.6684V19.6912H96.5709C96.3729 20.009 96.0949 20.268 95.7653 20.4419C95.4356 20.6158 95.0662 20.6983 94.6946 20.681C94.4324 20.7085 94.1674 20.6803 93.9166 20.5981C93.6658 20.5159 93.4349 20.3816 93.2388 20.2039C93.0426 20.0261 92.8855 19.8088 92.7776 19.5661C92.6697 19.3233 92.6135 19.0604 92.6124 18.7943V18.7943ZM96.6278 18.2556V17.7286L95.1024 17.827C94.2421 17.8851 93.852 18.1804 93.852 18.7362C93.852 19.3036 94.3397 19.6337 95.0103 19.6337C95.2068 19.6538 95.4053 19.6338 95.594 19.5749C95.7826 19.5159 95.9576 19.4193 96.1085 19.2907C96.2594 19.1622 96.3832 19.0043 96.4724 18.8264C96.5616 18.6486 96.6144 18.4545 96.6278 18.2556V18.2556Z" fill="#2E2E2E"/>
<path d="M99.4754 17.4223C99.4754 15.4303 100.49 14.1684 102.068 14.1684C102.459 14.1502 102.846 14.2446 103.185 14.4404C103.525 14.6363 103.801 14.9255 103.984 15.2744H104.076V11.812H105.309V20.577H104.127V19.581H104.03C103.833 19.9275 103.547 20.2132 103.201 20.407C102.855 20.6009 102.464 20.6956 102.068 20.6809C100.479 20.681 99.4754 19.419 99.4754 17.4223ZM100.749 17.4223C100.749 18.7594 101.373 19.564 102.418 19.564C103.457 19.564 104.099 18.7478 104.099 17.4277C104.099 16.1139 103.45 15.286 102.418 15.286C101.38 15.286 100.749 16.0961 100.749 17.4223H100.749Z" fill="#2E2E2E"/>
<path d="M110.409 17.4223C110.37 17.008 110.417 16.59 110.547 16.1951C110.677 15.8002 110.888 15.4371 111.165 15.1292C111.442 14.8212 111.781 14.5751 112.158 14.4067C112.535 14.2383 112.943 14.1514 113.355 14.1514C113.767 14.1514 114.175 14.2383 114.552 14.4067C114.929 14.5751 115.267 14.8212 115.545 15.1292C115.822 15.4371 116.033 15.8002 116.163 16.1951C116.293 16.59 116.34 17.008 116.301 17.4223C116.341 17.837 116.294 18.2556 116.165 18.6511C116.035 19.0466 115.824 19.4104 115.547 19.719C115.269 20.0275 114.931 20.2741 114.554 20.4429C114.176 20.6116 113.768 20.6988 113.355 20.6988C112.942 20.6988 112.534 20.6116 112.156 20.4429C111.779 20.2741 111.44 20.0275 111.163 19.719C110.886 19.4104 110.675 19.0466 110.545 18.6511C110.416 18.2556 110.369 17.837 110.409 17.4223V17.4223ZM115.033 17.4223C115.033 16.0558 114.425 15.2567 113.357 15.2567C112.285 15.2567 111.683 16.0558 111.683 17.4223C111.683 18.7997 112.285 19.5927 113.357 19.5927C114.425 19.5927 115.033 18.7943 115.033 17.4223Z" fill="#2E2E2E"/>
<path d="M117.955 14.2729H119.142V15.2744H119.234C119.39 14.9147 119.654 14.6132 119.988 14.4118C120.322 14.2105 120.71 14.1194 121.098 14.1512C121.402 14.1282 121.707 14.1744 121.991 14.2865C122.275 14.3987 122.53 14.5738 122.737 14.799C122.945 15.0242 123.1 15.2936 123.19 15.5874C123.281 15.8811 123.305 16.1916 123.26 16.4959V20.5769H122.027V16.8084C122.027 15.7953 121.591 15.2915 120.679 15.2915C120.473 15.2818 120.267 15.3172 120.075 15.3954C119.884 15.4735 119.711 15.5926 119.57 15.7443C119.428 15.896 119.32 16.0769 119.255 16.2745C119.189 16.4721 119.166 16.6817 119.188 16.889V20.577H117.955V14.2729Z" fill="#2E2E2E"/>
<path d="M130.226 12.7036V14.3018H131.579V15.3498H130.226V18.5914C130.226 19.2517 130.495 19.5409 131.109 19.5409C131.266 19.5404 131.423 19.5308 131.579 19.5122V20.5485C131.358 20.5885 131.133 20.6097 130.909 20.6121C129.538 20.6121 128.992 20.1254 128.992 18.9099V15.3497H128V14.3018H128.992V12.7036H130.226Z" fill="#2E2E2E"/>
<path d="M133.263 11.812H134.485V15.286H134.583C134.746 14.923 135.017 14.6198 135.358 14.4177C135.699 14.2156 136.093 14.1245 136.487 14.1567C136.79 14.1401 137.092 14.1911 137.372 14.3059C137.653 14.4208 137.905 14.5967 138.111 14.8212C138.316 15.0457 138.47 15.3132 138.561 15.6045C138.652 15.8959 138.679 16.204 138.638 16.5069V20.577H137.404V16.8138C137.404 15.8069 136.94 15.297 136.069 15.297C135.857 15.2794 135.644 15.3088 135.444 15.3831C135.245 15.4574 135.064 15.5747 134.914 15.7269C134.764 15.8792 134.649 16.0626 134.577 16.2644C134.505 16.4662 134.477 16.6815 134.496 16.8952V20.577H133.263L133.263 11.812Z" fill="#2E2E2E"/>
<path d="M145.827 18.8751C145.659 19.4512 145.296 19.9496 144.801 20.283C144.307 20.6164 143.711 20.7636 143.12 20.6989C142.708 20.7099 142.299 20.6303 141.921 20.4658C141.543 20.3012 141.205 20.0557 140.931 19.7461C140.656 19.4365 140.452 19.0703 140.331 18.6729C140.211 18.2756 140.178 17.8566 140.234 17.445C140.18 17.0322 140.213 16.6123 140.333 16.2137C140.453 15.8152 140.657 15.4473 140.93 15.135C141.203 14.8227 141.539 14.5733 141.916 14.4036C142.293 14.2339 142.702 14.1479 143.114 14.1515C144.853 14.1515 145.901 15.3499 145.901 17.3295V17.7636H141.49V17.8333C141.471 18.0647 141.5 18.2975 141.575 18.517C141.65 18.7364 141.77 18.9376 141.926 19.1076C142.083 19.2777 142.273 19.4128 142.484 19.5044C142.696 19.5959 142.924 19.6419 143.154 19.6393C143.449 19.675 143.747 19.6214 144.012 19.4854C144.277 19.3493 144.495 19.1368 144.64 18.875L145.827 18.8751ZM141.49 16.8435H144.645C144.661 16.6319 144.632 16.4194 144.562 16.2196C144.491 16.0197 144.38 15.8371 144.235 15.6833C144.09 15.5295 143.915 15.4079 143.721 15.3265C143.527 15.2451 143.318 15.2055 143.108 15.2104C142.894 15.2077 142.683 15.2481 142.485 15.3292C142.288 15.4103 142.108 15.5305 141.958 15.6827C141.807 15.8349 141.688 16.016 141.608 16.2154C141.527 16.4147 141.487 16.6283 141.49 16.8435H141.49Z" fill="#2E2E2E"/>
</svg>
