<svg width="119" height="40" viewBox="0 0 119 40" fill="none" xmlns="http://www.w3.org/2000/svg">
<path d="M108.648 0.00013H9.40598C9.04423 0.00013 8.68682 0.00013 8.32602 0.00212999C8.02401 0.00412999 7.7244 0.00993997 7.41948 0.01483C6.75706 0.0227317 6.09619 0.081806 5.44263 0.191539C4.78998 0.303662 4.15778 0.515044 3.56741 0.818537C2.97775 1.1246 2.43897 1.52229 1.97061 1.99719C1.49978 2.47076 1.10731 3.01814 0.80829 3.61828C0.508443 4.21723 0.300528 4.85905 0.191727 5.52159C0.0818904 6.1833 0.0227866 6.85263 0.0149455 7.52359C0.00579076 7.83018 0.00482399 8.1378 0 8.44444V31.5586C0.00482399 31.8691 0.00579076 32.1699 0.0149455 32.4805C0.022789 33.1514 0.0818928 33.8207 0.191727 34.4824C0.300228 35.1453 0.508155 35.7875 0.80829 36.3867C1.10718 36.9849 1.4997 37.5301 1.97061 38.001C2.4372 38.478 2.97633 38.876 3.56741 39.1797C4.15778 39.484 4.78991 39.6967 5.44263 39.8105C6.0963 39.9194 6.7571 39.9785 7.41948 39.9873C7.7244 39.9941 8.02401 39.998 8.32602 39.998C8.68681 40 9.04425 40 9.40598 40H108.648C109.003 40 109.363 40 109.717 39.998C110.018 39.998 110.326 39.9941 110.627 39.9873C111.288 39.9789 111.948 39.9198 112.6 39.8105C113.255 39.6959 113.889 39.4833 114.482 39.1797C115.073 38.8758 115.612 38.4779 116.078 38.001C116.547 37.5282 116.941 36.9835 117.243 36.3867C117.541 35.7871 117.747 35.145 117.854 34.4824C117.964 33.8207 118.025 33.1515 118.037 32.4805C118.041 32.1699 118.041 31.8691 118.041 31.5586C118.049 31.1953 118.049 30.834 118.049 30.4648V9.53623C118.049 9.17002 118.049 8.80674 118.041 8.44444C118.041 8.1378 118.041 7.83018 118.037 7.52355C118.025 6.85253 117.964 6.18335 117.854 5.52155C117.747 4.8594 117.541 4.21762 117.243 3.61824C116.634 2.41532 115.669 1.43615 114.482 0.818447C113.889 0.515696 113.255 0.304369 112.6 0.191449C111.948 0.0812325 111.288 0.0221377 110.627 0.01469C110.326 0.00980997 110.018 0.00394999 109.717 0.00199999C109.363 0 109.003 0 108.648 0V0.00013Z" fill="white"/>
<path d="M8.33094 39.1249C8.03037 39.1249 7.73707 39.121 7.43886 39.1142C6.82109 39.1061 6.20477 39.0516 5.59495 38.9511C5.02632 38.8519 4.47547 38.6672 3.96057 38.4032C3.45039 38.1415 2.98507 37.7982 2.58243 37.3866C2.17396 36.9799 1.83389 36.5082 1.57569 35.9901C1.31465 35.4687 1.134 34.9099 1.04002 34.333C0.938536 33.7131 0.883627 33.0863 0.875771 32.458C0.869516 32.2471 0.861328 31.5449 0.861328 31.5449V8.44438C0.861328 8.44438 0.870049 7.75297 0.87582 7.54984C0.883343 6.92252 0.937932 6.2967 1.03912 5.67778C1.13327 5.0993 1.31406 4.5388 1.57524 4.01568C1.83248 3.498 2.17067 3.02591 2.57668 2.61774C2.98223 2.20568 3.44904 1.86066 3.96009 1.59527C4.4738 1.33215 5.02361 1.14879 5.59109 1.05133C6.20292 0.949897 6.82138 0.895057 7.44128 0.887271L8.33142 0.875061H109.713L110.614 0.887761C111.228 0.89516 111.841 0.949511 112.447 1.05035C113.02 1.14904 113.576 1.33368 114.095 1.5982C115.119 2.13304 115.952 2.97922 116.478 4.01812C116.735 4.53763 116.913 5.09355 117.006 5.66704C117.108 6.29103 117.165 6.92178 117.177 7.55424C117.18 7.83744 117.18 8.14164 117.18 8.44438C117.188 8.81937 117.188 9.1763 117.188 9.53616V30.4648C117.188 30.8281 117.188 31.1826 117.18 31.54C117.18 31.8652 117.18 32.1631 117.176 32.4697C117.165 33.0908 117.108 33.7103 117.007 34.3232C116.915 34.9042 116.736 35.4675 116.475 35.9931C116.215 36.5056 115.877 36.9732 115.473 37.3788C115.07 37.7926 114.604 38.1379 114.092 38.4013C113.574 38.6673 113.019 38.8527 112.447 38.9511C111.837 39.0521 111.221 39.1066 110.603 39.1142C110.314 39.121 110.011 39.1249 109.718 39.1249L108.648 39.1269L8.33094 39.1249Z" fill="white"/>
<path d="M24.4345 20.3007C24.4451 19.466 24.6638 18.6476 25.0703 17.9217C25.4767 17.1957 26.0577 16.5858 26.7592 16.1486C26.3136 15.5035 25.7257 14.9725 25.0422 14.598C24.3587 14.2234 23.5985 14.0156 22.8219 13.991C21.1654 13.8147 19.5594 14.9958 18.7152 14.9958C17.8547 14.9958 16.555 14.0085 15.1555 14.0376C14.2502 14.0673 13.3679 14.3341 12.5946 14.8122C11.8213 15.2903 11.1833 15.9632 10.7429 16.7655C8.83502 20.1139 10.2581 25.0349 12.0857 27.7415C13.0001 29.0669 14.0688 30.5473 15.4671 30.4948C16.8354 30.4373 17.3465 29.6104 18.9982 29.6104C20.6345 29.6104 21.114 30.4948 22.5407 30.4615C24.009 30.4373 24.9341 29.1302 25.8164 27.7923C26.4734 26.848 26.9789 25.8043 27.3143 24.6998C26.4613 24.3341 25.7333 23.7219 25.2212 22.9396C24.7091 22.1573 24.4355 21.2395 24.4345 20.3007Z" fill="#2E2E2E"/>
<path d="M21.7398 12.2109C22.5404 11.2367 22.9348 9.98456 22.8393 8.72034C21.6162 8.85056 20.4864 9.44311 19.675 10.3799C19.2783 10.8376 18.9745 11.37 18.7809 11.9468C18.5873 12.5236 18.5077 13.1334 18.5468 13.7413C19.1585 13.7477 19.7638 13.6133 20.3168 13.3482C20.8699 13.0831 21.3565 12.6943 21.7398 12.2109Z" fill="#2E2E2E"/>
<path d="M41.7311 27.1396H37.0616L35.9402 30.4961H33.9624L38.3853 18.0781H40.4402L44.8631 30.4961H42.8515L41.7311 27.1396ZM37.5452 25.5908H41.2466L39.4219 20.1436H39.3709L37.5452 25.5908Z" fill="#2E2E2E"/>
<path d="M54.4152 25.9697C54.4152 28.7832 52.9296 30.5908 50.6879 30.5908C50.12 30.6209 49.5552 30.4883 49.0582 30.2082C48.5612 29.9281 48.1521 29.5117 47.8777 29.0068H47.8353V33.4912H46.002V21.4424H47.7765V22.9483H47.8102C48.0973 22.4458 48.5133 22.0316 49.0141 21.7498C49.5149 21.4679 50.0817 21.329 50.6541 21.3477C52.9209 21.3477 54.4152 23.1641 54.4152 25.9697ZM52.5308 25.9697C52.5308 24.1367 51.5963 22.9317 50.1705 22.9317C48.7698 22.9317 47.8276 24.1621 47.8276 25.9697C47.8276 27.794 48.7698 29.0156 50.1705 29.0156C51.5963 29.0156 52.5308 27.8193 52.5308 25.9697Z" fill="#2E2E2E"/>
<path d="M64.2453 25.9698C64.2453 28.7833 62.7597 30.5909 60.5179 30.5909C59.9501 30.621 59.3853 30.4884 58.8883 30.2082C58.3913 29.9281 57.9822 29.5118 57.7078 29.0069H57.6653V33.4912H55.832V21.4425H57.6066V22.9483H57.6403C57.9273 22.4459 58.3434 22.0317 58.8441 21.7498C59.3449 21.468 59.9117 21.329 60.4842 21.3477C62.7511 21.3477 64.2453 23.1641 64.2453 25.9698ZM62.3609 25.9698C62.3609 24.1368 61.4264 22.9317 60.0006 22.9317C58.5999 22.9317 57.6577 24.1622 57.6577 25.9698C57.6577 27.794 58.5999 29.0157 60.0006 29.0157C61.4264 29.0157 62.3609 27.8194 62.3609 25.9698H62.3609Z" fill="#2E2E2E"/>
<path d="M70.7424 27.0362C70.8783 28.2676 72.0584 29.0761 73.6711 29.0761C75.2164 29.0761 76.3281 28.2676 76.3281 27.1572C76.3281 26.1933 75.6576 25.6162 74.0699 25.2207L72.4823 24.833C70.2328 24.2822 69.1885 23.2158 69.1885 21.4853C69.1885 19.3428 71.0305 17.8711 73.6461 17.8711C76.2346 17.8711 78.0092 19.3428 78.0689 21.4853H76.2183C76.1075 20.2461 75.0969 19.498 73.62 19.498C72.1432 19.498 71.1326 20.2549 71.1326 21.3564C71.1326 22.2344 71.778 22.751 73.357 23.1464L74.7067 23.4824C77.2202 24.0849 78.2645 25.1084 78.2645 26.9247C78.2645 29.248 76.4389 30.703 73.5352 30.703C70.8185 30.703 68.9842 29.2822 68.8657 27.0361L70.7424 27.0362Z" fill="#2E2E2E"/>
<path d="M82.2212 19.2998V21.4424H83.9196V22.9141H82.2212V27.9052C82.2212 28.6806 82.5613 29.042 83.3079 29.042C83.5095 29.0384 83.7108 29.024 83.911 28.999V30.4618C83.5753 30.5254 83.2341 30.5542 82.8927 30.5478C81.0844 30.5478 80.3792 29.8593 80.3792 28.1035V22.9141H79.0806V21.4424H80.3792V19.2998H82.2212Z" fill="#2E2E2E"/>
<path d="M84.9033 25.9697C84.9033 23.1211 86.5584 21.3311 89.1393 21.3311C91.7289 21.3311 93.3763 23.121 93.3763 25.9697C93.3763 28.8261 91.7375 30.6084 89.1393 30.6084C86.542 30.6084 84.9033 28.8261 84.9033 25.9697ZM91.5083 25.9697C91.5083 24.0156 90.6248 22.8623 89.1393 22.8623C87.6538 22.8623 86.7713 24.0244 86.7713 25.9697C86.7713 27.9316 87.6538 29.0761 89.1393 29.0761C90.6248 29.0761 91.5082 27.9316 91.5082 25.9697H91.5083Z" fill="#2E2E2E"/>
<path d="M94.8877 21.4424H96.6362V22.9834H96.6787C96.797 22.5021 97.0751 22.0768 97.4663 21.7789C97.8576 21.481 98.338 21.3287 98.827 21.3476C99.0383 21.3469 99.2489 21.3702 99.4551 21.417V23.1553C99.1884 23.0726 98.9102 23.0347 98.6314 23.043C98.3651 23.032 98.0995 23.0796 97.8531 23.1825C97.6066 23.2854 97.385 23.4411 97.2035 23.639C97.022 23.8369 96.8849 24.0722 96.8016 24.3289C96.7184 24.5856 96.6908 24.8575 96.721 25.1259V30.496H94.8877L94.8877 21.4424Z" fill="#2E2E2E"/>
<path d="M107.908 27.8369C107.661 29.4804 106.082 30.6084 104.062 30.6084C101.464 30.6084 99.8511 28.8437 99.8511 26.0127C99.8511 23.1728 101.472 21.3311 103.985 21.3311C106.456 21.3311 108.01 23.0517 108.01 25.7969V26.4336H101.702V26.5459C101.673 26.8791 101.714 27.2147 101.822 27.5306C101.931 27.8464 102.105 28.1352 102.332 28.3777C102.559 28.6203 102.835 28.8111 103.141 28.9374C103.446 29.0637 103.775 29.1226 104.104 29.1103C104.538 29.1515 104.972 29.0498 105.344 28.8203C105.716 28.5909 106.004 28.246 106.167 27.8369L107.908 27.8369ZM101.71 25.1347H106.176C106.192 24.8352 106.147 24.5353 106.044 24.2541C105.941 23.9729 105.781 23.7164 105.576 23.5006C105.37 23.2849 105.122 23.1145 104.849 23.0003C104.575 22.8861 104.281 22.8305 103.985 22.8369C103.686 22.8351 103.39 22.8932 103.114 23.008C102.838 23.1227 102.587 23.2918 102.375 23.5054C102.164 23.7191 101.996 23.973 101.882 24.2527C101.768 24.5323 101.71 24.8321 101.71 25.1348V25.1347Z" fill="#2E2E2E"/>
<path d="M37.3156 8.73107C37.7 8.70312 38.0857 8.76198 38.4449 8.90341C38.8041 9.04484 39.1278 9.26532 39.3928 9.54894C39.6577 9.83257 39.8573 10.1723 39.9771 10.5435C40.0968 10.9148 40.1338 11.3084 40.0853 11.6959C40.0853 13.6021 39.069 14.6979 37.3156 14.6979H35.1895V8.73107H37.3156ZM36.1037 13.8541H37.2135C37.4882 13.8707 37.763 13.8251 38.0181 13.7204C38.2731 13.6158 38.5019 13.4549 38.6879 13.2493C38.8738 13.0437 39.0122 12.7987 39.093 12.5321C39.1737 12.2655 39.1948 11.984 39.1547 11.7081C39.1919 11.4332 39.1687 11.1535 39.0867 10.8888C39.0047 10.6241 38.866 10.3811 38.6804 10.1772C38.4949 9.97327 38.2672 9.81347 38.0136 9.70923C37.76 9.60499 37.4868 9.55891 37.2135 9.57428H36.1037V13.8541Z" fill="#2E2E2E"/>
<path d="M41.1183 12.4444C41.0904 12.1485 41.1238 11.8499 41.2164 11.5678C41.3089 11.2858 41.4586 11.0264 41.6559 10.8065C41.8531 10.5865 42.0935 10.4107 42.3617 10.2904C42.6299 10.1702 42.9199 10.108 43.2132 10.108C43.5064 10.108 43.7965 10.1702 44.0646 10.2904C44.3328 10.4107 44.5732 10.5865 44.7705 10.8065C44.9677 11.0264 45.1174 11.2858 45.21 11.5678C45.3026 11.8499 45.336 12.1485 45.308 12.4444C45.3365 12.7406 45.3035 13.0396 45.2112 13.3221C45.1189 13.6047 44.9692 13.8645 44.7719 14.0849C44.5746 14.3053 44.334 14.4814 44.0656 14.602C43.7971 14.7225 43.5068 14.7848 43.2132 14.7848C42.9196 14.7848 42.6292 14.7225 42.3608 14.602C42.0923 14.4814 41.8517 14.3053 41.6544 14.0849C41.4571 13.8645 41.3075 13.6047 41.2152 13.3221C41.1228 13.0396 41.0899 12.7406 41.1183 12.4444ZM44.4063 12.4444C44.4063 11.4683 43.9738 10.8975 43.2146 10.8975C42.4526 10.8975 42.0239 11.4683 42.0239 12.4444C42.0239 13.4283 42.4526 13.9947 43.2146 13.9947C43.9738 13.9947 44.4063 13.4244 44.4063 12.4444H44.4063Z" fill="#2E2E2E"/>
<path d="M50.8773 14.6978H49.9679L49.0498 11.3814H48.9804L48.0661 14.6978H47.1654L45.9409 10.1949H46.8301L47.6259 13.6309H47.6914L48.6047 10.1949H49.4457L50.359 13.6309H50.4284L51.2202 10.1949H52.0969L50.8773 14.6978Z" fill="#2E2E2E"/>
<path d="M53.1265 10.1949H53.9704V10.9103H54.0359C54.147 10.6533 54.3345 10.438 54.5721 10.2942C54.8097 10.1504 55.0857 10.0853 55.3615 10.108C55.5777 10.0915 55.7947 10.1246 55.9965 10.2047C56.1984 10.2848 56.3798 10.4099 56.5275 10.5707C56.6752 10.7316 56.7852 10.924 56.8495 11.1338C56.9139 11.3437 56.9308 11.5655 56.8991 11.7828V14.6978H56.0224V12.006C56.0224 11.2823 55.7122 10.9225 55.0638 10.9225C54.9171 10.9155 54.7706 10.9409 54.6344 10.9967C54.4982 11.0525 54.3755 11.1375 54.2748 11.2459C54.174 11.3543 54.0976 11.4835 54.0507 11.6246C54.0038 11.7658 53.9876 11.9155 54.0031 12.0636V14.6978H53.1265L53.1265 10.1949Z" fill="#2E2E2E"/>
<path d="M58.2959 8.43707H59.1726V14.6978H58.2959V8.43707Z" fill="#2E2E2E"/>
<path d="M60.3912 12.4444C60.3633 12.1485 60.3967 11.8499 60.4893 11.5678C60.5819 11.2857 60.7317 11.0264 60.9289 10.8064C61.1262 10.5864 61.3666 10.4107 61.6348 10.2904C61.903 10.1701 62.1931 10.108 62.4863 10.108C62.7796 10.108 63.0697 10.1701 63.3379 10.2904C63.6061 10.4107 63.8465 10.5864 64.0438 10.8064C64.241 11.0264 64.3908 11.2857 64.4834 11.5678C64.5759 11.8499 64.6094 12.1485 64.5815 12.4444C64.6099 12.7407 64.5769 13.0396 64.4845 13.3222C64.3921 13.6047 64.2425 13.8645 64.0452 14.0849C63.8479 14.3053 63.6072 14.4814 63.3388 14.602C63.0703 14.7225 62.78 14.7848 62.4863 14.7848C62.1927 14.7848 61.9024 14.7225 61.6339 14.602C61.3654 14.4814 61.1248 14.3053 60.9275 14.0849C60.7302 13.8645 60.5806 13.6047 60.4882 13.3222C60.3958 13.0396 60.3628 12.7407 60.3912 12.4444ZM63.6792 12.4444C63.6792 11.4684 63.2467 10.8976 62.4875 10.8976C61.7255 10.8976 61.2968 11.4684 61.2968 12.4444C61.2968 13.4283 61.7255 13.9947 62.4875 13.9947C63.2467 13.9947 63.6793 13.4244 63.6793 12.4444H63.6792Z" fill="#2E2E2E"/>
<path d="M65.5044 13.4244C65.5044 12.6138 66.0998 12.1465 67.1566 12.0801L68.3599 12.0098V11.6211C68.3599 11.1456 68.0496 10.877 67.4504 10.877C66.961 10.877 66.6219 11.0591 66.5246 11.3775H65.6759C65.7655 10.6041 66.4832 10.108 67.4909 10.108C68.6046 10.108 69.2327 10.67 69.2327 11.6211V14.6978H68.3888V14.065H68.3194C68.1786 14.292 67.9809 14.477 67.7465 14.6012C67.5121 14.7254 67.2493 14.7844 66.9851 14.772C66.7986 14.7916 66.6102 14.7715 66.4318 14.7128C66.2535 14.6541 66.0893 14.5582 65.9498 14.4312C65.8103 14.3042 65.6986 14.149 65.6219 13.9756C65.5451 13.8022 65.5051 13.6144 65.5044 13.4244ZM68.3599 13.0396V12.6631L67.2751 12.7334C66.6633 12.7749 66.3859 12.9859 66.3859 13.3828C66.3859 13.7881 66.7327 14.024 67.2096 14.024C67.3493 14.0383 67.4905 14.024 67.6247 13.9819C67.7588 13.9398 67.8833 13.8708 67.9906 13.779C68.0979 13.6871 68.1859 13.5743 68.2493 13.4473C68.3128 13.3203 68.3504 13.1816 68.3599 13.0396Z" fill="#2E2E2E"/>
<path d="M70.3853 12.4444C70.3853 11.0216 71.1068 10.1202 72.2292 10.1202C72.5068 10.1072 72.7823 10.1746 73.0235 10.3145C73.2648 10.4544 73.4617 10.661 73.5914 10.9102H73.6569V8.43707H74.5336V14.6978H73.6935V13.9864H73.6241C73.4845 14.2339 73.2806 14.4379 73.0347 14.5764C72.7889 14.7149 72.5103 14.7825 72.2292 14.772C71.0991 14.7721 70.3853 13.8707 70.3853 12.4444ZM71.2909 12.4444C71.2909 13.3995 71.735 13.9742 72.4778 13.9742C73.2166 13.9742 73.6733 13.3912 73.6733 12.4483C73.6733 11.5098 73.2118 10.9185 72.4778 10.9185C71.7398 10.9185 71.2908 11.4971 71.2908 12.4444H71.2909Z" fill="#2E2E2E"/>
<path d="M78.1608 12.4444C78.1329 12.1485 78.1663 11.8499 78.2588 11.5678C78.3514 11.2858 78.5011 11.0264 78.6984 10.8065C78.8956 10.5865 79.136 10.4107 79.4042 10.2904C79.6724 10.1702 79.9624 10.108 80.2557 10.108C80.5489 10.108 80.8389 10.1702 81.1071 10.2904C81.3753 10.4107 81.6157 10.5865 81.8129 10.8065C82.0102 11.0264 82.1599 11.2858 82.2525 11.5678C82.345 11.8499 82.3784 12.1485 82.3505 12.4444C82.379 12.7406 82.346 13.0396 82.2536 13.3221C82.1613 13.6047 82.0117 13.8645 81.8144 14.0849C81.6171 14.3053 81.3765 14.4814 81.1081 14.602C80.8396 14.7225 80.5493 14.7848 80.2557 14.7848C79.962 14.7848 79.6717 14.7225 79.4032 14.602C79.1348 14.4814 78.8942 14.3053 78.6969 14.0849C78.4996 13.8645 78.35 13.6047 78.2577 13.3221C78.1653 13.0396 78.1323 12.7406 78.1608 12.4444ZM81.4488 12.4444C81.4488 11.4683 81.0162 10.8975 80.2571 10.8975C79.4951 10.8975 79.0664 11.4683 79.0664 12.4444C79.0664 13.4283 79.4951 13.9947 80.2571 13.9947C81.0162 13.9947 81.4488 13.4244 81.4488 12.4444Z" fill="#2E2E2E"/>
<path d="M83.5264 10.1949H84.3703V10.9103H84.4358C84.5469 10.6533 84.7344 10.438 84.972 10.2942C85.2096 10.1504 85.4856 10.0853 85.7614 10.108C85.9776 10.0915 86.1946 10.1246 86.3964 10.2047C86.5983 10.2848 86.7797 10.4099 86.9274 10.5707C87.0751 10.7316 87.1851 10.924 87.2494 11.1338C87.3138 11.3437 87.3307 11.5655 87.299 11.7828V14.6978H86.4223V12.006C86.4223 11.2823 86.1121 10.9225 85.4637 10.9225C85.317 10.9155 85.1705 10.9409 85.0343 10.9967C84.8981 11.0525 84.7754 11.1375 84.6747 11.2459C84.5739 11.3543 84.4975 11.4835 84.4506 11.6246C84.4037 11.7658 84.3875 11.9155 84.403 12.0636V14.6978H83.5264V10.1949Z" fill="#2E2E2E"/>
<path d="M92.2528 9.07379V10.2154H93.2152V10.9639H92.2528V13.2793C92.2528 13.751 92.4445 13.9576 92.8809 13.9576C92.9926 13.9572 93.1042 13.9504 93.2152 13.9371V14.6773C93.0578 14.7058 92.8982 14.721 92.7383 14.7227C91.7634 14.7227 91.3751 14.375 91.3751 13.5069V10.9639H90.6699V10.2153H91.3751V9.07379H92.2528Z" fill="#2E2E2E"/>
<path d="M94.4126 8.43707H95.2816V10.9185H95.3509C95.4675 10.6592 95.66 10.4426 95.9024 10.2983C96.1448 10.1539 96.4252 10.0888 96.7054 10.1119C96.9204 10.1 97.1354 10.1364 97.3349 10.2184C97.5345 10.3005 97.7137 10.4262 97.8598 10.5865C98.0059 10.7468 98.1153 10.9379 98.1802 11.146C98.2451 11.3542 98.2639 11.5742 98.2352 11.7906V14.6978H97.3577V12.0098C97.3577 11.2906 97.0272 10.9263 96.4078 10.9263C96.2571 10.9138 96.1056 10.9348 95.9637 10.9878C95.8219 11.0409 95.6932 11.1247 95.5867 11.2335C95.4801 11.3422 95.3983 11.4732 95.347 11.6174C95.2956 11.7615 95.2759 11.9153 95.2893 12.0679V14.6978H94.4126L94.4126 8.43707Z" fill="#2E2E2E"/>
<path d="M103.347 13.4819C103.228 13.8935 102.97 14.2495 102.618 14.4876C102.266 14.7258 101.843 14.8309 101.423 14.7847C101.13 14.7925 100.839 14.7357 100.57 14.6181C100.301 14.5006 100.061 14.3252 99.8658 14.1041C99.6705 13.8829 99.5251 13.6214 99.4396 13.3375C99.354 13.0537 99.3305 12.7544 99.3705 12.4605C99.3315 12.1656 99.3555 11.8656 99.4408 11.581C99.5262 11.2963 99.6708 11.0335 99.865 10.8105C100.059 10.5874 100.298 10.4092 100.567 10.288C100.835 10.1668 101.125 10.1054 101.419 10.1079C102.655 10.1079 103.4 10.9639 103.4 12.3779V12.688H100.264V12.7378C100.25 12.9031 100.27 13.0694 100.324 13.2261C100.377 13.3829 100.462 13.5266 100.574 13.648C100.685 13.7695 100.82 13.866 100.971 13.9314C101.121 13.9968 101.283 14.0296 101.447 14.0278C101.656 14.0533 101.869 14.015 102.057 13.9178C102.245 13.8206 102.401 13.6689 102.503 13.4819L103.347 13.4819ZM100.264 12.0308H102.507C102.518 11.8796 102.498 11.7278 102.448 11.5851C102.397 11.4424 102.318 11.3119 102.215 11.2021C102.112 11.0922 101.988 11.0054 101.85 10.9472C101.712 10.8891 101.563 10.8608 101.414 10.8643C101.262 10.8623 101.112 10.8912 100.971 10.9491C100.831 11.0071 100.703 11.0929 100.596 11.2017C100.489 11.3104 100.404 11.4397 100.347 11.5821C100.29 11.7245 100.262 11.8771 100.264 12.0308H100.264Z" fill="#2E2E2E"/>
</svg>
