<svg width="136" height="135" fill="none" xmlns="http://www.w3.org/2000/svg"><path d="M37.5 42.975c-8.011 7.754-13 18.625-13 30.641 0 10.224 3.611 19.618 9.623 26.969 1.337 1.635 3.709.412 3.377-1.673-5.818-6.81-9.337-15.65-9.337-25.296 0-9.799 3.63-18.764 9.614-25.616l-.277-5.025ZM109.559 73.616c0-11.496-4.567-21.943-11.977-29.616L96.5 48.252c5.853 6.82 9.395 15.685 9.395 25.364a38.79 38.79 0 0 1-7.395 22.83c-.363 2.175 2.124 3.367 3.387 1.56a42.438 42.438 0 0 0 7.672-24.39Z" fill="#80BA27"/><path fill-rule="evenodd" clip-rule="evenodd" d="m62.418 61.334 3.93 5.679a1.4 1.4 0 0 0 2.303 0l3.983-5.753 1.746-.106c5.994-.363 11.5-1.064 15.44-1.661 2.297-.349 4.04-2.034 4.444-4.236.79-4.292 1.636-10.3 1.636-16.241 0-6.103-.893-12.594-1.702-17.205-.398-2.267-2.163-3.995-4.464-4.351-5.441-.842-13.832-1.86-22.52-1.86-8.621 0-16.756 1.003-22.03 1.84-2.256.358-3.98 2.053-4.37 4.282-.81 4.624-1.714 11.275-1.714 17.859 0 6.32.833 12.074 1.608 16.047.392 2.01 1.983 3.554 4.115 3.904 3.896.642 9.51 1.394 15.825 1.713l1.77.09Zm-25.15-40.233c.657-3.755 3.588-6.62 7.353-7.217C50.001 13.031 58.337 12 67.215 12c8.94 0 17.53 1.046 23.069 1.902 3.812.59 6.792 3.487 7.46 7.286.825 4.699 1.756 11.423 1.756 17.828 0 6.246-.886 12.491-1.695 16.892-.69 3.753-3.673 6.572-7.446 7.144-4.011.608-9.63 1.324-15.761 1.696l-2.987 4.314c-1.988 2.872-6.234 2.872-8.222 0l-2.923-4.222a147.389 147.389 0 0 1-16.227-1.755c-3.561-.586-6.374-3.226-7.065-6.769C36.371 52.195 35.5 46.2 35.5 39.581c0-6.876.94-13.755 1.767-18.48Z" fill="#80BA27"/><path fill-rule="evenodd" clip-rule="evenodd" d="M72.265 42.977c-1.007.86-2.713 2.074-4.66 2.074-1.965 0-3.627-1.232-4.596-2.105a14.103 14.103 0 0 1-1.715-1.859l-.03-.04-.01-.012-.003-.005-.002-.003 1.455-1.06-1.455 1.06a1.8 1.8 0 0 1 2.907-2.123l.001.001.012.015c.011.016.032.042.06.078a10.502 10.502 0 0 0 1.19 1.273c.853.77 1.642 1.18 2.187 1.18.564 0 1.406-.43 2.32-1.21a11.69 11.69 0 0 0 1.352-1.373l.013-.017a1.8 1.8 0 0 1 2.827 2.23l-1.414-1.114 1.414 1.114-.003.003-.003.005-.01.012-.032.039a13.958 13.958 0 0 1-.483.556 15.27 15.27 0 0 1-1.322 1.281Zm-.974-4.126.001-.001v.001ZM49.704 31a2 2 0 1 1-4 0 2 2 0 0 1 4 0Zm40 0a2 2 0 1 1-4 0 2 2 0 0 1 4 0Z" fill="#80BA27"/><path d="m67.851 125.157.178.201.178-.201 1.044-1.184c.17-.192 4.137-4.703 8.171-10.533 2.76-3.989 4.844-7.566 6.239-10.71 1.394-3.142 2.105-5.864 2.105-8.138 0-9.83-7.955-17.829-17.737-17.829-9.781 0-17.737 7.999-17.737 17.829 0 2.274.712 4.996 2.106 8.138 1.395 3.144 3.479 6.721 6.238 10.71 4.034 5.829 8 10.34 8.171 10.533l1.044 1.184Zm6.905-13.612.19.13-.19-.13c-2.606 3.769-5.24 7.035-6.727 8.817-1.483-1.777-4.107-5.031-6.711-8.795l-.19.131.19-.131c-2.547-3.68-4.49-6.991-5.794-9.853-1.307-2.866-1.966-5.263-1.966-7.122 0-8.023 6.493-14.549 14.471-14.549S82.5 86.57 82.5 94.592c0 1.857-.657 4.251-1.961 7.113-1.303 2.858-3.241 6.164-5.783 9.84Z" fill="#80BA27" stroke="#80BA27" stroke-width=".474"/><path d="M68.03 85.437c-5.107 0-9.26 4.153-9.26 9.26 0 5.105 4.153 9.259 9.26 9.259 5.105 0 9.259-4.154 9.259-9.26s-4.154-9.26-9.26-9.26Zm0 15.606a6.354 6.354 0 0 1-6.348-6.347c0-3.5 2.848-6.346 6.347-6.346 3.5 0 6.347 2.847 6.347 6.346 0 3.5-2.847 6.347-6.347 6.347Z" fill="#80BA27" stroke="#80BA27" stroke-width=".474"/></svg>