<svg width="168" height="168" fill="none" xmlns="http://www.w3.org/2000/svg"><path d="M144.356 84.622c0 32.99-26.744 59.734-59.734 59.734S24.89 117.612 24.89 84.622 51.632 24.89 84.622 24.89c32.99 0 59.734 26.743 59.734 59.733Z" fill="#FFEED6"/><path fill-rule="evenodd" clip-rule="evenodd" d="M77.956 51.114c1.253-1.071 3.376-2.58 5.798-2.58 2.446 0 4.514 1.532 5.72 2.618a17.565 17.565 0 0 1 2.135 2.314l.037.049.011.016.005.006.002.003-1.81 1.32 1.81-1.32a2.241 2.241 0 0 1-3.617 2.643l-.002-.002-.014-.018a11.562 11.562 0 0 0-.393-.485 13.074 13.074 0 0 0-1.161-1.197c-1.064-.957-2.045-1.468-2.723-1.468-.702 0-1.75.534-2.888 1.507a14.535 14.535 0 0 0-1.682 1.708l-.016.02a2.24 2.24 0 0 1-3.517-2.774l1.759 1.386-1.76-1.386.004-.005.004-.005.013-.015.038-.048.132-.16a18.988 18.988 0 0 1 2.114-2.127Zm1.212 5.134-.002.002h.001l.001-.002Z" fill="#F45600"/><path fill-rule="evenodd" clip-rule="evenodd" d="M55.608 29.631c6.562-1.04 16.685-2.29 27.415-2.29 10.81 0 21.253 1.268 28.023 2.315 2.865.443 5.06 2.593 5.556 5.415 1.007 5.739 2.118 13.815 2.118 21.41 0 7.394-1.054 14.87-2.035 20.211-.504 2.74-2.673 4.838-5.532 5.272-6.99 1.06-17.885 2.373-28.842 2.373-10.805 0-20.799-1.278-27.153-2.324-2.653-.436-4.634-2.357-5.122-4.859-.963-4.944-2-12.104-2-19.97 0-8.192 1.124-16.47 2.131-22.223.486-2.774 2.632-4.884 5.44-5.33Zm-9.853 4.557c.818-4.673 4.466-8.238 9.151-8.982 6.694-1.061 17.07-2.344 28.117-2.344 11.126 0 21.816 1.301 28.708 2.367 4.744.734 8.453 4.339 9.283 9.067 1.027 5.847 2.186 14.215 2.186 22.185 0 7.774-1.103 15.545-2.109 21.021-.859 4.672-4.571 8.18-9.267 8.891-4.991.757-11.983 1.648-19.614 2.11l-.734 1.061-2.983 4.308c-2.474 3.574-7.757 3.574-10.231 0l-2.983-4.308-.654-.945c-8.07-.408-15.229-1.368-20.195-2.185-4.431-.73-7.932-4.015-8.791-8.423-1-5.129-2.084-12.589-2.084-20.826 0-8.557 1.17-17.117 2.2-22.997Zm36.19 57.134-1.217-1.758h5.3l-1.218 1.758c-.693 1-2.172 1-2.865 0Z" fill="#F45600"/><path fill-rule="evenodd" clip-rule="evenodd" d="M94.705 83.844a223.12 223.12 0 0 0 16.448-1.88c2.859-.434 5.028-2.531 5.532-5.272.122-.667.246-1.368.369-2.098.859-5.11 1.666-11.643 1.666-18.113 0-7.595-1.111-15.671-2.118-21.41-.496-2.822-2.691-4.972-5.556-5.415-6.77-1.047-17.213-2.314-28.023-2.314-10.73 0-20.853 1.248-27.415 2.29-2.81.445-4.955 2.555-5.44 5.329-.127.72-.254 1.478-.381 2.27-.89 5.552-1.752 12.785-1.752 19.954 0 7.865 1.038 15.025 2.001 19.97.488 2.501 2.469 4.422 5.122 4.858.606.1 1.245.202 1.916.305 4.693.719 10.901 1.48 17.777 1.826l.098.005c2.387.12 4.853.188 7.362.188 3.201 0 6.397-.112 9.491-.297l.137-.008c.933-.057 1.855-.12 2.766-.188Zm-20.08 4.775a158.65 158.65 0 0 1-.452-.024c-7.884-.42-14.87-1.36-19.743-2.161-4.44-.73-7.933-4.023-8.791-8.423-1-5.129-2.084-12.589-2.084-20.826 0-8.557 1.17-17.117 2.2-22.997.818-4.671 4.464-8.238 9.151-8.982 6.694-1.061 17.069-2.344 28.117-2.344 11.126 0 21.816 1.301 28.708 2.367 4.746.734 8.453 4.34 9.283 9.067 1.027 5.847 2.186 14.215 2.186 22.185 0 7.774-1.103 15.545-2.109 21.021-.859 4.672-4.571 8.18-9.267 8.891-4.991.757-11.983 1.648-19.614 2.11l-3.716 5.37c-2.475 3.573-7.758 3.573-10.232 0l-3.637-5.254Zm6.103.945 1.217 1.758c.693 1 2.172 1 2.865 0l1.217-1.758h-5.299Z" fill="#F45600"/><path fill-rule="evenodd" clip-rule="evenodd" d="M61.231 46.506a2.489 2.489 0 1 1-4.977 0 2.489 2.489 0 0 1 4.977 0Zm49.778 0a2.489 2.489 0 1 1-4.977 0 2.489 2.489 0 0 1 4.977 0ZM109.785 122.392c3.428 11.484 14.952 18.546 26.741 16.386l8.375-1.534a2.24 2.24 0 0 1 .807 4.407l-8.375 1.534c-14.037 2.571-27.759-5.837-31.841-19.511l4.293-1.282Z" fill="#F45600"/><path fill-rule="evenodd" clip-rule="evenodd" d="M106.401 105.762a4.056 4.056 0 0 0-.825-.154c-1.293-.131-3.244.107-5.416.984-2.172.878-3.741 2.062-4.58 3.055a4.05 4.05 0 0 0-.487.683l5.259 13.016c.157.051.418.113.825.154 1.293.131 3.244-.107 5.416-.985 2.172-.877 3.741-2.061 4.58-3.054.264-.312.409-.538.486-.684l-5.258-13.015Zm5.341 12.806c.002 0 0 .02-.016.064.005-.042.013-.064.016-.064Zm-11.595 4.684c.003-.001.023.009.056.035-.042-.02-.058-.033-.056-.035Zm-5.136-12.713c-.003.001 0-.02.016-.063-.005.041-.013.063-.016.063Zm11.539-4.719c.041.02.057.034.055.035-.002.002-.023-.008-.055-.035Zm3.827-2.175 5.613 13.892c1.154 2.855-2.302 6.944-7.719 9.132-5.416 2.188-10.742 1.648-11.896-1.207l-5.613-13.892c-1.153-2.855 2.303-6.943 7.72-9.131 5.416-2.189 10.742-1.649 11.895 1.206Z" fill="#F45600"/><path fill-rule="evenodd" clip-rule="evenodd" d="M105.571 105.614c-.837.994-2.403 2.179-4.572 3.055-2.17.877-4.119 1.112-5.411.979h-.001v-.001c.837-.994 2.404-2.178 4.573-3.055 2.169-.876 4.118-1.112 5.411-.978Zm-11.015 3.783c.002-.002.022.008.054.034-.04-.02-.056-.033-.054-.034Zm.464 1.148c-.003 0 0-.02.014-.063-.004.041-.012.063-.014.063Zm11.529-4.715c.04.02.056.033.054.035-.002.002-.023-.008-.054-.035Zm-.425-1.051c.005-.041.012-.062.015-.062.003-.001 0 .02-.015.062Zm4.263-1.111c1.158 2.868-2.293 6.967-7.71 9.155-5.417 2.188-10.747 1.638-11.905-1.23-1.159-2.867 2.293-6.966 7.71-9.154 5.416-2.189 10.746-1.638 11.905 1.229ZM58.043 122.643c-3.332 11.328-14.679 18.313-26.294 16.186l-8.65-1.584a2.24 2.24 0 1 0-.807 4.406l8.65 1.585c13.87 2.54 27.42-5.801 31.399-19.329l-4.298-1.264Z" fill="#F45600"/><path fill-rule="evenodd" clip-rule="evenodd" d="M61.599 105.762c.157-.051.418-.113.825-.154 1.293-.131 3.244.107 5.416.984 2.172.878 3.74 2.062 4.58 3.055.264.312.409.537.486.683l-5.258 13.016a4.04 4.04 0 0 1-.825.154c-1.293.131-3.244-.107-5.416-.985-2.172-.877-3.741-2.061-4.58-3.054a4.04 4.04 0 0 1-.487-.684l5.259-13.015Zm-5.34 12.806c-.004 0-.001.02.015.064-.005-.042-.013-.064-.016-.064Zm11.593 4.684a.17.17 0 0 0-.055.035c.041-.02.057-.033.055-.035Zm5.136-12.713c.003.001 0-.02-.015-.063.005.041.013.063.016.063ZM61.45 105.82c-.042.02-.058.034-.056.035.003.002.023-.008.056-.035Zm-3.828-2.175-5.613 13.892c-1.153 2.855 2.303 6.944 7.72 9.132 5.416 2.188 10.742 1.648 11.895-1.207l5.613-13.892c1.154-2.855-2.302-6.943-7.719-9.131-5.416-2.189-10.742-1.649-11.896 1.206Z" fill="#F45600"/><path fill-rule="evenodd" clip-rule="evenodd" d="M62.428 105.614c.838.994 2.404 2.179 4.573 3.055 2.169.877 4.118 1.112 5.41.979h.002l-.001-.001c-.837-.994-2.403-2.178-4.572-3.055-2.17-.876-4.119-1.112-5.411-.978Zm11.016 3.783c-.002-.002-.022.008-.054.034.04-.02.056-.033.054-.034Zm-.464 1.148c.003 0 0-.02-.015-.063.005.041.012.063.015.063Zm-11.53-4.715c-.04.02-.055.033-.053.035.002.002.022-.008.054-.035Zm.425-1.051c-.004-.041-.012-.062-.014-.062-.003-.001 0 .02.015.062Zm-4.262-1.111c-1.159 2.868 2.293 6.967 7.71 9.155 5.416 2.188 10.746 1.638 11.905-1.23 1.159-2.867-2.293-6.966-7.71-9.154-5.416-2.189-10.747-1.638-11.905 1.229Z" fill="#F45600"/><path fill-rule="evenodd" clip-rule="evenodd" d="M68.44 94.538a2.24 2.24 0 0 0-2.871 1.338l-2.202 6.039a2.24 2.24 0 0 0 4.209 1.535l2.202-6.04a2.24 2.24 0 0 0-1.337-2.872ZM75.907 97.027a2.24 2.24 0 0 0-2.871 1.337l-2.203 6.04a2.24 2.24 0 1 0 4.21 1.534l2.201-6.039a2.24 2.24 0 0 0-1.337-2.872Z" fill="#F45600"/></svg>