<svg width="49" height="24" fill="none" xmlns="http://www.w3.org/2000/svg"><g clip-path="url(#a)"><path d="M42.715 9.805v5.868H40.61v-4.116h-2.026v4.116h-2.104V9.805h6.234Z" fill="#000"/><path fill-rule="evenodd" clip-rule="evenodd" d="M32.16 15.883c1.883 0 3.282-1.15 3.282-2.894 0-1.687-1.032-2.783-2.757-2.783-.795 0-1.452.28-1.947.76.118-.994.963-1.72 1.894-1.72l1.83-.004.914-1.742s-2.029.046-2.972.046c-2.156.037-3.611 1.988-3.611 4.358 0 2.76 1.42 3.979 3.367 3.979Zm.011-4.134c.7 0 1.184.458 1.184 1.24 0 .704-.43 1.284-1.184 1.286-.72 0-1.205-.538-1.205-1.274 0-.783.485-1.252 1.205-1.252Z" fill="#000"/><path d="M27.08 13.708s-.497.286-1.239.34c-.853.025-1.613-.512-1.613-1.465 0-.93.67-1.463 1.592-1.463.565 0 1.312.39 1.312.39s.546-1 .83-1.499c-.519-.391-1.21-.606-2.013-.606-2.027 0-3.598 1.316-3.598 3.166 0 1.873 1.476 3.159 3.598 3.12.593-.022 1.411-.23 1.91-.548l-.779-1.435Z" fill="#000"/><path d="m.25 5.224 2.919 5.195v3.169L.253 18.773.25 5.224Z" fill="#5B57A2"/><path d="m11.456 8.529 2.735-1.67 5.597-.005-8.332 5.083V8.529Z" fill="#D90751"/><path d="m11.44 5.193.016 6.878-2.925-1.79V0l2.91 5.193Z" fill="#FAB718"/><path d="m19.788 6.854-5.597.005-2.75-1.666L8.53 0l11.257 6.854Z" fill="#ED6F26"/><path d="M11.456 18.801v-3.337l-2.925-1.756L8.532 24l2.924-5.199Z" fill="#63B22F"/><path d="M14.184 17.147 3.168 10.42.25 5.224l19.526 11.917-5.592.006Z" fill="#1487C9"/><path d="m8.533 24 2.923-5.199 2.728-1.654 5.592-.006L8.533 24Z" fill="#017F36"/><path d="m.253 18.773 8.301-5.064-2.79-1.706-2.596 1.585-2.915 5.185Z" fill="#984995"/></g><defs><clipPath id="a"><path fill="#fff" transform="translate(.25)" d="M0 0h48v24H0z"/></clipPath></defs></svg>