<svg xmlns="http://www.w3.org/2000/svg" width="20" height="20" viewBox="0 0 20 20" fill="none">
  <path fill-rule="evenodd" clip-rule="evenodd" d="M3.33236 7.50016H4.99935C4.99964 7.80556 5.16843 8.0995 5.46019 8.24538C5.87184 8.4512 6.3724 8.28435 6.57822 7.8727L6.76449 7.50016H13.2346L13.4208 7.8727C13.6267 8.28435 14.1272 8.4512 14.5389 8.24538C14.8306 8.0995 14.9994 7.80556 14.9997 7.50016H16.6657V9.16683H3.33236V7.50016ZM14.2645 5.83317H16.666C17.5865 5.83317 18.3327 6.57936 18.3327 7.49984V9.1665C18.3327 9.86668 17.9009 10.466 17.2891 10.7128C17.292 10.7527 17.2934 10.7929 17.2934 10.8335C17.2934 10.9551 17.2801 11.0763 17.2537 11.195L15.9574 17.0284C15.788 17.7909 15.1116 18.3335 14.3305 18.3335H5.66742C4.88626 18.3335 4.2099 17.7909 4.04044 17.0284L2.74415 11.195C2.70803 11.0325 2.69698 10.8703 2.70843 10.7123C2.09724 10.4653 1.66602 9.86624 1.66602 9.1665V7.49984C1.66602 6.57936 2.41221 5.83317 3.33268 5.83317H5.73459L7.58751 2.12734C7.79333 1.71569 8.29389 1.54884 8.70554 1.75466C9.11719 1.96049 9.28405 2.46105 9.07822 2.8727L7.59798 5.83317H12.4011L10.9208 2.8727C10.715 2.46105 10.8819 1.96049 11.2935 1.75466C11.7052 1.54884 12.2057 1.71569 12.4116 2.12734L14.2645 5.83317ZM4.37077 10.8332H15.6264L14.3301 16.6665H5.66706L4.37077 10.8332Z" fill="#80BA27"/>
</svg>
