<svg xmlns="http://www.w3.org/2000/svg" width="20" height="20" viewBox="0 0 20 20" fill="none">
  <path fill-rule="evenodd" clip-rule="evenodd" d="M4.9987 4.99837H6.66536V4.16504H13.332V4.99837H14.9987V4.16504H16.6634V6.66504H3.33008V4.16504H4.9987V4.99837ZM3.33008 8.33171V16.665H16.6634V8.33171H3.33008ZM6.66536 2.49829H13.332V1.66504H14.9987V2.49829H16.6641C17.5845 2.49829 18.3307 3.24448 18.3307 4.16496V16.665C18.3307 17.5854 17.5845 18.3316 16.6641 18.3316H3.33073C2.41025 18.3316 1.66406 17.5854 1.66406 16.665V4.16496C1.66406 3.24448 2.41025 2.49829 3.33073 2.49829H4.9987V1.66504H6.66536V2.49829Z" fill="#80BA27"></path>
</svg>
