<svg width="14" height="18" viewBox="0 0 14 18" fill="none" xmlns="http://www.w3.org/2000/svg">
<path d="M12 17.3334H2.00004C1.07957 17.3334 0.333374 16.5872 0.333374 15.6667V2.33341C0.333374 1.41293 1.07957 0.666742 2.00004 0.666742H7.83337C7.84084 0.665774 7.8484 0.665774 7.85587 0.666742H7.86087C7.86874 0.669207 7.87684 0.670882 7.88504 0.671742C7.95853 0.676453 8.03109 0.69074 8.10087 0.714242H8.11337H8.12587H8.13587C8.15125 0.725013 8.16574 0.736996 8.17921 0.750075C8.26999 0.790428 8.35272 0.846896 8.42337 0.916742L13.4234 5.91674C13.4932 5.9874 13.5497 6.07012 13.59 6.16091C13.5975 6.17924 13.6034 6.19674 13.6092 6.21591L13.6175 6.23924C13.6408 6.30873 13.6545 6.38106 13.6584 6.45424C13.6591 6.46254 13.6611 6.47069 13.6642 6.47841V6.48341C13.6656 6.48887 13.6664 6.49445 13.6667 6.50008V15.6667C13.6667 16.1088 13.4911 16.5327 13.1786 16.8453C12.866 17.1578 12.4421 17.3334 12 17.3334ZM7.83337 2.33341V6.50008H12L7.83337 2.33341Z" fill="#80BA27"/>
</svg>
