<svg width="24" height="32" viewBox="0 0 24 32" fill="none" xmlns="http://www.w3.org/2000/svg">
<path fill-rule="evenodd" clip-rule="evenodd" d="M2.57143 8.58238C2.57143 3.84246 6.42937 0 11 0H13C17.5706 0 21.4286 3.84246 21.4286 8.58238C21.4286 8.75166 21.5609 8.88889 21.7241 8.88889H23.1429C23.6162 8.88889 24 9.28686 24 9.77778V31.1111C24 31.602 23.6162 32 23.1429 32H0.857142C0.383756 32 0 31.602 0 31.1111V9.77778C0 9.28686 0.383756 8.88889 0.857143 8.88889H2.27586C2.4391 8.88889 2.57143 8.75166 2.57143 8.58238ZM4.71429 8.659C4.71429 8.78597 4.81353 8.88889 4.93596 8.88889H18.6355C18.7579 8.88889 18.8571 8.78596 18.8571 8.659C18.8571 5.10407 16.428 1.5 13 1.5H11C7.57203 1.5 4.71429 5.10407 4.71429 8.659Z" fill="#8BB488"/>
</svg>
