<svg width="103" height="34" viewBox="0 0 103 34" fill="none" xmlns="http://www.w3.org/2000/svg">
<path d="M0 17C0 7.61116 7.61116 0 17 0H69C78.3083 0 82.9624 0 86.7145 1.27368C93.7799 3.67205 99.3279 9.22007 101.726 16.2855C103 20.0376 103 24.6917 103 34H17C7.61116 34 0 26.3888 0 17Z" fill="#61A9B9"/>
<path d="M22.8178 17.754C22.8178 18.846 22.6678 19.8 22.3678 20.616C22.0798 21.432 21.6718 22.11 21.1438 22.65C20.6158 23.19 19.9738 23.598 19.2178 23.874C18.4738 24.138 17.6518 24.27 16.7518 24.27C15.9118 24.27 15.1498 24.186 14.4658 24.018C13.7938 23.85 13.2598 23.646 12.8638 23.406L13.4758 21.552C13.7638 21.696 14.1538 21.852 14.6458 22.02C15.1498 22.176 15.8038 22.254 16.6078 22.254C17.7358 22.254 18.6178 21.936 19.2538 21.3C19.8898 20.652 20.2738 19.758 20.4058 18.618H15.0418V16.692H20.3518C20.2198 15.588 19.8418 14.736 19.2178 14.136C18.6058 13.524 17.7358 13.218 16.6078 13.218C15.8518 13.218 15.2158 13.302 14.6998 13.47C14.1958 13.638 13.7938 13.8 13.4938 13.956L12.8638 12.156C13.2838 11.916 13.8238 11.706 14.4838 11.526C15.1438 11.334 15.9058 11.238 16.7698 11.238C17.6458 11.238 18.4498 11.376 19.1818 11.652C19.9258 11.928 20.5678 12.342 21.1078 12.894C21.6478 13.434 22.0678 14.112 22.3678 14.928C22.6678 15.744 22.8178 16.686 22.8178 17.754ZM27.3697 18.366C27.6457 18.09 27.9457 17.784 28.2697 17.448C28.5937 17.1 28.9117 16.752 29.2237 16.404C29.5477 16.056 29.8537 15.726 30.1417 15.414C30.4297 15.09 30.6697 14.814 30.8617 14.586H33.4177C33.1537 14.898 32.8477 15.24 32.4997 15.612C32.1637 15.984 31.8097 16.368 31.4377 16.764C31.0777 17.148 30.7177 17.526 30.3577 17.898C30.0097 18.258 29.6917 18.582 29.4037 18.87C29.7757 19.182 30.1597 19.548 30.5557 19.968C30.9637 20.376 31.3597 20.814 31.7437 21.282C32.1397 21.738 32.5057 22.206 32.8417 22.686C33.1777 23.154 33.4597 23.592 33.6877 24H31.1677C30.9397 23.64 30.6697 23.262 30.3577 22.866C30.0577 22.47 29.7397 22.086 29.4037 21.714C29.0677 21.33 28.7257 20.97 28.3777 20.634C28.0297 20.298 27.6937 20.01 27.3697 19.77V24H25.1917V14.586H27.3697V18.366ZM34.3201 19.302C34.3201 18.606 34.4281 17.958 34.6441 17.358C34.8601 16.746 35.1661 16.218 35.5621 15.774C35.9701 15.33 36.4621 14.982 37.0381 14.73C37.6141 14.478 38.2621 14.352 38.9821 14.352C39.8701 14.352 40.7101 14.514 41.5021 14.838L41.0341 16.62C40.7821 16.512 40.4941 16.422 40.1701 16.35C39.8581 16.278 39.5221 16.242 39.1621 16.242C38.3101 16.242 37.6621 16.512 37.2181 17.052C36.7741 17.58 36.5521 18.33 36.5521 19.302C36.5521 20.238 36.7621 20.982 37.1821 21.534C37.6021 22.074 38.3101 22.344 39.3061 22.344C39.6781 22.344 40.0441 22.308 40.4041 22.236C40.7641 22.164 41.0761 22.074 41.3401 21.966L41.6461 23.766C41.4061 23.886 41.0401 23.994 40.5481 24.09C40.0681 24.186 39.5701 24.234 39.0541 24.234C38.2501 24.234 37.5481 24.114 36.9481 23.874C36.3601 23.622 35.8681 23.28 35.4721 22.848C35.0881 22.404 34.8001 21.882 34.6081 21.282C34.4161 20.67 34.3201 20.01 34.3201 19.302ZM51.1623 14.586V24H48.9843V16.404H45.5103V24H43.3323V14.586H51.1623ZM60.1779 19.338C60.1779 18.366 59.9559 17.61 59.5119 17.07C59.0799 16.53 58.3779 16.26 57.4059 16.26C57.2019 16.26 56.9859 16.272 56.7579 16.296C56.5419 16.308 56.3259 16.344 56.1099 16.404V21.786C56.3019 21.918 56.5539 22.044 56.8659 22.164C57.1899 22.272 57.5319 22.326 57.8919 22.326C58.6839 22.326 59.2599 22.056 59.6199 21.516C59.9919 20.976 60.1779 20.25 60.1779 19.338ZM62.4099 19.302C62.4099 20.022 62.3139 20.682 62.1219 21.282C61.9419 21.882 61.6779 22.398 61.3299 22.83C60.9819 23.262 60.5439 23.598 60.0159 23.838C59.4999 24.078 58.9119 24.198 58.2519 24.198C57.8079 24.198 57.3999 24.144 57.0279 24.036C56.6559 23.928 56.3499 23.808 56.1099 23.676V27.33H53.9319V14.892C54.3759 14.772 54.9219 14.658 55.5699 14.55C56.2179 14.442 56.9019 14.388 57.6219 14.388C58.3659 14.388 59.0319 14.502 59.6199 14.73C60.2079 14.958 60.7059 15.288 61.1139 15.72C61.5339 16.14 61.8519 16.656 62.0679 17.268C62.2959 17.868 62.4099 18.546 62.4099 19.302ZM64.1326 19.338C64.1326 18.51 64.2526 17.784 64.4926 17.16C64.7446 16.536 65.0746 16.02 65.4826 15.612C65.8906 15.192 66.3586 14.88 66.8866 14.676C67.4146 14.46 67.9546 14.352 68.5066 14.352C69.8026 14.352 70.8106 14.754 71.5306 15.558C72.2626 16.362 72.6286 17.562 72.6286 19.158C72.6286 19.278 72.6226 19.416 72.6106 19.572C72.6106 19.716 72.6046 19.848 72.5926 19.968H66.3826C66.4426 20.724 66.7066 21.312 67.1746 21.732C67.6546 22.14 68.3446 22.344 69.2446 22.344C69.7726 22.344 70.2526 22.296 70.6846 22.2C71.1286 22.104 71.4766 22.002 71.7286 21.894L72.0166 23.676C71.8966 23.736 71.7286 23.802 71.5126 23.874C71.3086 23.934 71.0686 23.988 70.7926 24.036C70.5286 24.096 70.2406 24.144 69.9286 24.18C69.6166 24.216 69.2986 24.234 68.9746 24.234C68.1466 24.234 67.4266 24.114 66.8146 23.874C66.2026 23.622 65.6986 23.28 65.3026 22.848C64.9066 22.404 64.6126 21.888 64.4206 21.3C64.2286 20.7 64.1326 20.046 64.1326 19.338ZM70.4506 18.366C70.4506 18.066 70.4086 17.784 70.3246 17.52C70.2406 17.244 70.1146 17.01 69.9466 16.818C69.7906 16.614 69.5926 16.458 69.3526 16.35C69.1246 16.23 68.8486 16.17 68.5246 16.17C68.1886 16.17 67.8946 16.236 67.6426 16.368C67.3906 16.488 67.1746 16.65 66.9946 16.854C66.8266 17.058 66.6946 17.292 66.5986 17.556C66.5026 17.82 66.4366 18.09 66.4006 18.366H70.4506ZM74.4158 19.302C74.4158 18.606 74.5238 17.958 74.7398 17.358C74.9558 16.746 75.2618 16.218 75.6578 15.774C76.0658 15.33 76.5578 14.982 77.1338 14.73C77.7098 14.478 78.3578 14.352 79.0778 14.352C79.9658 14.352 80.8058 14.514 81.5978 14.838L81.1298 16.62C80.8778 16.512 80.5898 16.422 80.2658 16.35C79.9538 16.278 79.6178 16.242 79.2578 16.242C78.4058 16.242 77.7578 16.512 77.3138 17.052C76.8698 17.58 76.6478 18.33 76.6478 19.302C76.6478 20.238 76.8578 20.982 77.2778 21.534C77.6978 22.074 78.4058 22.344 79.4018 22.344C79.7738 22.344 80.1398 22.308 80.4998 22.236C80.8598 22.164 81.1718 22.074 81.4358 21.966L81.7418 23.766C81.5018 23.886 81.1358 23.994 80.6438 24.09C80.1638 24.186 79.6658 24.234 79.1498 24.234C78.3458 24.234 77.6438 24.114 77.0438 23.874C76.4558 23.622 75.9638 23.28 75.5678 22.848C75.1838 22.404 74.8958 21.882 74.7038 21.282C74.5118 20.67 74.4158 20.01 74.4158 19.302ZM82.906 19.302C82.906 18.606 83.014 17.958 83.23 17.358C83.446 16.746 83.752 16.218 84.148 15.774C84.556 15.33 85.048 14.982 85.624 14.73C86.2 14.478 86.848 14.352 87.568 14.352C88.456 14.352 89.296 14.514 90.088 14.838L89.62 16.62C89.368 16.512 89.08 16.422 88.756 16.35C88.444 16.278 88.108 16.242 87.748 16.242C86.896 16.242 86.248 16.512 85.804 17.052C85.36 17.58 85.138 18.33 85.138 19.302C85.138 20.238 85.348 20.982 85.768 21.534C86.188 22.074 86.896 22.344 87.892 22.344C88.264 22.344 88.63 22.308 88.99 22.236C89.35 22.164 89.662 22.074 89.926 21.966L90.232 23.766C89.992 23.886 89.626 23.994 89.134 24.09C88.654 24.186 88.156 24.234 87.64 24.234C86.836 24.234 86.134 24.114 85.534 23.874C84.946 23.622 84.454 23.28 84.058 22.848C83.674 22.404 83.386 21.882 83.194 21.282C83.002 20.67 82.906 20.01 82.906 19.302Z" fill="white"/>
</svg>
