<svg    width="16mm" height="14mm"
        viewBox="-20 -20 600 700"
        fill="none"
        xmlns="http://www.w3.org/2000/svg"
      >
        <path
          d="M193 628c10,-94 39,-163 69,-221 31,-59 60,-125 77,-183 16,-58 23,-117 16,-157 -8,-40 -20,-57 -55,-62 -36,-4 -83,10 -131,35 -49,25 -120,79 -146,129 -34,65 -23,129 45,178 31,23 94,48 133,58 38,10 59,7 95,3 36,-3 88,-13 118,-23 30,-9 45,-18 63,-39 17,-22 3,-57 -15,-88 -19,-31 -54,-60 -90,-84 -36,-24 -88,-55 -116,-62 -29,-6 -55,-6 -62,29 -7,36 5,98 21,151 16,52 45,123 74,152 28,29 50,45 92,53 41,7 95,-2 122,-25 26,-24 45,-53 57,-85 12,-32 14,-74 12,-97 -3,-23 -12,-39 -26,-52 -14,-14 -30,-14 -58,-2 -27,12 -73,43 -105,66 -31,23 -48,40 -76,66 -28,26 -60,64 -88,85 -29,22 -52,38 -79,38 -27,0 -53,-7 -71,-29 -18,-22 -24,-55 -25,-88 -1,-33 7,-68 16,-89 10,-21 23,-28 34,-32 10,-4 26,-1 45,12 19,12 43,33 59,54 17,21 52,66 64,88"
        />
      </svg>
