<svg width="20" height="20" viewBox="0 0 20 20" fill="none" xmlns="http://www.w3.org/2000/svg">
<path d="M19.1666 7.50001C19.1666 6.11929 18.0473 5.00001 16.6666 5.00001H16.2499V3.18822C16.2499 1.6583 14.8881 0.487242 13.3754 0.716432L2.95874 2.29471C1.7366 2.47989 0.833252 3.53042 0.833252 4.7665V16.6667C0.833252 18.0474 1.95254 19.1667 3.33325 19.1667H16.6666C18.0473 19.1667 19.1666 18.0474 19.1666 16.6667V7.50001ZM14.5833 3.18822V5.00001H3.33325C3.04106 5.00001 2.76057 5.05013 2.49992 5.14226V4.7665C2.49992 4.35447 2.80103 4.0043 3.20841 3.94257L13.6251 2.36429C14.1293 2.28789 14.5833 2.67825 14.5833 3.18822ZM2.49992 7.50001C2.49992 7.03977 2.87301 6.66667 3.33325 6.66667H16.6666C17.1268 6.66667 17.4999 7.03977 17.4999 7.50001V9.16667H14.5833C12.9724 9.16667 11.6666 10.4725 11.6666 12.0833C11.6666 13.6942 12.9724 15 14.5833 15H17.4999V16.6667C17.4999 17.1269 17.1268 17.5 16.6666 17.5H3.33325C2.87301 17.5 2.49992 17.1269 2.49992 16.6667V7.50001ZM17.4999 13.3333H14.5833C13.8929 13.3333 13.3333 12.7737 13.3333 12.0833C13.3333 11.393 13.8929 10.8333 14.5833 10.8333H17.4999V13.3333Z" fill="#80BA27"/>
</svg>
