<svg width="18" height="18" viewBox="0 0 18 18" fill="none" xmlns="http://www.w3.org/2000/svg">
<rect width="18" height="18" rx="9" fill="#80BA27"/>
<path d="M6.40112 13.9473C7.16577 13.9473 7.60742 13.4924 7.60742 12.6882V9.85376H7.66016L10.9099 13.321C11.3582 13.8154 11.6021 13.9473 12.0371 13.9473C12.6963 13.9473 13.1643 13.4661 13.1643 12.7937C13.1643 12.4773 13.0786 12.2927 12.8018 11.9895L9.77612 8.77271L12.6436 5.89209C12.9138 5.62842 13.0193 5.39771 13.0193 5.07471C13.0193 4.56055 12.5447 4.14526 11.9712 4.14526C11.6086 4.14526 11.4043 4.25732 10.9626 4.72534L7.66016 8.1333H7.60742V5.4043C7.60742 4.6001 7.16577 4.14526 6.40112 4.14526C5.63647 4.14526 5.18823 4.6001 5.18823 5.4043L5.18823 12.6882C5.18823 13.4924 5.63647 13.9473 6.40112 13.9473Z" fill="white"/>
</svg>
