<svg width="32" height="30" viewBox="0 0 32 30" fill="none" xmlns="http://www.w3.org/2000/svg">
<path d="M13.6412 1.94622C14.6418 0.0498306 17.3577 0.0498255 18.3583 1.94622L21.7635 8.40023L28.9539 9.64435C31.0666 10.0099 31.9059 12.5929 30.4115 14.1305L25.3256 19.3634L26.3644 26.5864C26.6696 28.7087 24.4723 30.3051 22.5482 29.359L15.9998 26.1391L9.45135 29.359C7.52722 30.3051 5.32996 28.7087 5.63517 26.5864L6.6739 19.3634L1.58803 14.1305C0.0936423 12.5929 0.932914 10.0099 3.04568 9.64435L10.2361 8.40023L13.6412 1.94622ZM19.4049 9.6446L15.9998 3.19059L12.5946 9.6446C12.2087 10.3759 11.5055 10.8869 10.6907 11.0279L3.50032 12.272L8.58619 17.5049C9.16249 18.0978 9.43111 18.9246 9.31341 19.743L8.27469 26.9659L14.8231 23.7461C15.5651 23.3812 16.4344 23.3812 17.1764 23.7461L23.7248 26.9659L22.6861 19.743C22.5684 18.9246 22.837 18.0978 23.4133 17.5049L28.4992 12.272L21.3088 11.0279C20.4941 10.8869 19.7908 10.3759 19.4049 9.6446Z" fill="white"/>
</svg>
