<svg width="30" height="30" viewBox="0 0 30 30" fill="none" xmlns="http://www.w3.org/2000/svg">
<path d="M1.49626 11.4148C-0.133071 8.86516 0.726181 5.93593 2.61472 4.04739L4.62837 2.03374C6.19047 0.471644 8.72313 0.471639 10.2852 2.03374L12.9262 4.67476C14.102 5.85053 14.3432 7.66871 13.5147 9.11038C13.0224 9.96696 13.1657 11.0472 13.8643 11.7458L18.3343 16.2159C19.0329 16.9145 20.1132 17.0578 20.9698 16.5655C22.4114 15.7369 24.2296 15.9781 25.4054 17.1539L28.0464 19.7949C29.6085 21.357 29.6085 23.8897 28.0464 25.4518L26.0328 27.4654C24.1442 29.354 21.215 30.2132 18.6654 28.5839C16.5586 27.2375 13.4884 24.8741 9.3472 20.7329C5.20601 16.5917 2.84261 13.5216 1.49626 11.4148ZM4.50034 5.93301C3.23377 7.19958 2.96989 8.76859 3.74329 9.97881C4.96311 11.8876 7.1946 14.8091 11.2328 18.8473C15.271 22.8855 18.1925 25.117 20.1013 26.3369C21.3116 27.1103 22.8806 26.8464 24.1471 25.5798L26.1608 23.5662C26.6815 23.0455 26.6815 22.2012 26.1608 21.6805L23.5198 19.0395C23.1961 18.7158 22.6955 18.6494 22.2985 18.8775C20.3972 19.9702 17.9993 19.6521 16.4487 18.1015L11.9787 13.6315C10.428 12.0808 10.1099 9.68293 11.2026 7.78161C11.4308 7.38469 11.3643 6.8841 11.0406 6.56038L8.39961 3.91936C7.87891 3.39866 7.03469 3.39866 6.51399 3.91936L4.50034 5.93301Z" fill="#80BA27"/>
</svg>
