<svg width="18" height="18" viewBox="0 0 18 18" fill="none" xmlns="http://www.w3.org/2000/svg">
<path fill-rule="evenodd" clip-rule="evenodd" d="M8.14741 12.6502C10.3902 13.003 12.2406 12.1804 13.9416 10.8248C14.4924 10.384 14.5536 9.82602 14.4186 9.08622C13.7706 9.58662 13.1424 9.97542 12.4854 10.312C9.61261 11.7736 7.03501 11.311 4.88941 8.94762C4.49881 8.51742 4.08661 8.12863 3.53941 7.90903C3.31081 8.78383 3.52501 9.42282 4.34761 9.84042C4.90068 10.1221 5.31115 10.579 5.72061 11.0348C5.81089 11.1353 5.90112 11.2358 5.99281 11.3342C6.58681 11.9716 7.22941 12.5062 8.14741 12.6502ZM7.22329 5.42578C6.17858 5.40737 5.13142 5.38892 4.13881 5.80842C3.35221 6.13962 3.27481 6.50323 3.95521 6.97483C4.86241 7.60303 5.62561 8.37523 6.37621 9.16903C6.88921 9.71263 7.51561 10.0186 8.25901 10.1302C10.1472 10.411 11.7942 9.82062 13.3026 8.75682C13.3492 8.72411 13.397 8.69123 13.4453 8.65799C13.9605 8.30342 14.5376 7.90629 14.424 7.20522C14.3019 6.46423 13.6031 6.27347 12.9676 6.09997C12.9192 6.08677 12.8712 6.07366 12.8238 6.06042C11.085 5.57622 9.29761 5.48424 7.50481 5.43042C7.41102 5.42909 7.31717 5.42743 7.22329 5.42578ZM14.739 5.99922C15.1926 6.41682 15.4482 6.89022 15.4176 7.53282C15.3834 8.29962 15.3942 9.07182 15.4176 9.84042C15.4338 10.3426 15.2772 10.7692 14.9298 11.104C12.8994 13.0606 10.5378 14.0198 7.68481 13.4728C6.84601 13.3126 6.18901 12.8518 5.61481 12.2524C5.58505 12.2215 5.55531 12.1906 5.52557 12.1597C4.84488 11.4523 4.16685 10.7477 3.32521 10.2148C2.76181 9.86023 2.46301 9.34362 2.52961 8.62182C2.58541 8.02242 2.57821 7.40862 2.53141 6.80562C2.46121 5.86062 2.95621 5.32602 3.75001 4.98042C4.84801 4.50342 6.01081 4.47822 7.18261 4.50882C9.20761 4.56984 11.2308 4.65822 13.2 5.21802C13.7634 5.37822 14.2962 5.59062 14.739 5.99922ZM8.08801 7.21242C8.06461 6.64362 7.52281 6.21882 6.82801 6.22422C6.12961 6.22782 5.61661 6.65983 5.6184 7.24483C5.6184 7.82623 6.13681 8.26182 6.83161 8.26542C7.54981 8.26902 8.11141 7.79742 8.08801 7.21242Z" fill="#74140D"/>
</svg>
