<svg width="20" height="20" viewBox="0 0 20 20" fill="none" xmlns="http://www.w3.org/2000/svg">
<path d="M9.99986 17.5C9.46236 17.0233 8.85486 16.5275 8.21236 16H8.20402C5.94152 14.15 3.37736 12.0566 2.24486 9.54829C1.87279 8.74973 1.67561 7.8809 1.66651 6.99996C1.66403 5.7912 2.14883 4.63245 3.01136 3.7856C3.87389 2.93875 5.04134 2.47529 6.24986 2.49996C7.23371 2.50151 8.19639 2.78586 9.02319 3.31913C9.3865 3.55493 9.71521 3.84017 9.99986 4.16663C10.2861 3.84145 10.6149 3.55638 10.9774 3.31913C11.8038 2.78576 12.7662 2.50139 13.7499 2.49996C14.9584 2.47529 16.1258 2.93875 16.9884 3.7856C17.8509 4.63245 18.3357 5.7912 18.3332 6.99996C18.3247 7.88231 18.1275 8.75262 17.7549 9.55246C16.6224 12.0608 14.059 14.1533 11.7965 16L11.7882 16.0066C11.1449 16.5308 10.5382 17.0266 10.0007 17.5066L9.99986 17.5ZM6.24986 4.16663C5.47362 4.15691 4.72492 4.454 4.16652 4.99329C3.62851 5.52176 3.32782 6.24583 3.33312 6.99996C3.34263 7.64204 3.48805 8.27484 3.75986 8.85663C4.29445 9.93888 5.01578 10.9183 5.89069 11.75C6.71652 12.5833 7.66652 13.39 8.48819 14.0683C8.71569 14.2558 8.94736 14.445 9.17902 14.6341L9.32486 14.7533C9.54736 14.935 9.77736 15.1233 9.99986 15.3083L10.0107 15.2983L10.0157 15.2941H10.0207L10.0282 15.2883H10.0324H10.0365L10.0515 15.2758L10.0857 15.2483L10.0915 15.2433L10.1007 15.2366H10.1057L10.1132 15.23L10.6665 14.7758L10.8115 14.6566C11.0457 14.4658 11.2774 14.2766 11.5049 14.0891C12.3265 13.4108 13.2774 12.605 14.1032 11.7675C14.9782 10.9363 15.6996 9.95706 16.234 8.87496C16.5108 8.28813 16.6582 7.64872 16.6666 6.99996C16.67 6.24816 16.3695 5.52687 15.8332 4.99996C15.2759 4.45823 14.527 4.1587 13.7499 4.16663C12.8015 4.15857 11.8948 4.5561 11.2582 5.25913L9.99986 6.70913L8.74152 5.25913C8.10491 4.5561 7.19825 4.15857 6.24986 4.16663Z" fill="#818181"/>
</svg>
