<svg width="24" height="24" viewBox="0 0 24 24" fill="none" xmlns="http://www.w3.org/2000/svg">
<path fill-rule="evenodd" clip-rule="evenodd" d="M19.0615 10.0548C19.0244 10.6182 18.7639 12.5237 16.9741 13.3857C15.4525 14.1177 13.5728 13.7384 12.3665 12.5724C16.5364 12.2546 17.5745 10.985 17.8078 10.2121C17.9632 9.69739 17.8721 9.00062 17.4056 8.19674C17.9615 7.96998 18.3481 7.92918 18.5455 8.05629C18.8035 8.22185 19.1345 8.95197 19.0615 10.0548ZM6.86454 13.3809C6.1087 13.0337 5.82433 11.9725 5.79878 11.0749C6.90411 11.7418 8.32884 12.2381 9.94438 12.4919C8.86337 13.441 7.60143 13.7195 6.86454 13.3809ZM9.93903 11.2949C8.31895 11.0093 6.90864 10.4471 5.94879 9.73349C6.10993 9.13401 6.36504 8.74679 6.56534 8.66479C6.60944 8.64674 6.66178 8.63772 6.72277 8.63772C7.29233 8.63772 8.58024 9.43963 9.93903 11.2949ZM4.65512 7.96998C4.45771 6.95621 5.20655 5.18015 7.96534 3.50884C9.48033 2.59197 10.8985 2.17375 11.8117 2.17375C12.167 2.17375 12.4456 2.23652 12.624 2.35814C13.0539 2.65082 13.2365 3.43351 13.1425 4.56733C11.6959 3.82819 10.1591 3.42056 9.27467 4.04475C8.39313 4.66659 8.34244 6.1951 9.11394 8.60045C7.98389 7.64631 6.89298 7.24967 6.07696 7.58354C5.58571 7.7848 5.23334 8.22303 4.99183 8.75424C4.82574 8.5004 4.70746 8.23833 4.65512 7.96998ZM10.0107 4.98987C10.0853 4.9373 10.2102 4.90905 10.3775 4.90905C10.8948 4.90905 11.8245 5.18289 12.9529 5.81885C12.6706 7.15826 12.1048 8.80132 11.2125 10.6343C9.81827 7.39208 9.52648 5.33158 10.0107 4.98987ZM16.6192 9.88728C16.4177 10.555 14.9534 11.0996 12.873 11.3381C14.2553 10.1439 15.4125 9.29604 16.3208 8.75385C16.5933 9.19835 16.7078 9.59382 16.6192 9.88728ZM15.5761 7.81501C14.812 8.27011 13.9573 8.88018 13.0102 9.64914C13.4969 8.50041 13.8489 7.45564 14.0706 6.52857C14.6563 6.9464 15.1665 7.38659 15.5761 7.81501ZM19.2371 7.08058C18.6465 6.7008 17.7959 6.75651 16.6979 7.23358C16.1543 6.61881 15.4043 5.96558 14.39 5.29628C14.3628 5.27823 14.3348 5.26097 14.3076 5.24331C14.5644 3.26049 14.1559 1.95405 13.3436 1.40087C11.9782 0.470662 9.32495 1.29102 7.30181 2.51625C5.15421 3.81681 3.01196 5.98873 3.43975 8.1838C3.58029 8.90568 3.98829 9.58126 4.60731 10.178C4.5797 10.3942 4.56321 10.6072 4.55868 10.81C4.51912 12.5567 5.18017 13.9141 6.32713 14.441C6.7001 14.6125 7.11553 14.6937 7.55033 14.6937C8.19902 14.6937 8.89098 14.505 9.55575 14.1703C9.10529 15.2971 8.80361 16.476 8.67544 17.6695C8.4735 19.5581 8.61527 21.1835 9.22316 23L10.4938 22.9674C9.93779 21.3055 9.7206 19.5158 9.90606 17.7887C10.0742 16.2135 10.5696 14.665 11.3403 13.2519C12.3731 14.3292 13.839 14.9342 15.3115 14.9342C16.0699 14.9342 16.8298 14.7741 17.5325 14.4355C19.1353 13.6638 20.1685 12.0537 20.2954 10.1286C20.3865 8.74875 19.9711 7.55254 19.2371 7.08058Z" fill="#BCBCBC"/>
</svg>
