<svg width="17" height="17" viewBox="0 0 17 17" fill="none" xmlns="http://www.w3.org/2000/svg">
<path d="M8.74763 16.3068C8.30511 16.3081 7.88047 16.1322 7.56846 15.8184L1.04013 9.28926C0.695617 8.94573 0.518969 8.46847 0.556793 7.98343L0.97346 2.51176C1.03288 1.68875 1.68862 1.03477 2.51179 0.977591L7.98346 0.560924C8.02596 0.551758 8.06929 0.551758 8.11179 0.551758C8.55333 0.552891 8.97655 0.728407 9.28929 1.04009L15.8185 7.56842C16.1312 7.881 16.3069 8.30503 16.3069 8.74717C16.3069 9.18932 16.1312 9.61334 15.8185 9.92592L9.92596 15.8184C9.61415 16.132 9.18986 16.3079 8.74763 16.3068ZM8.11096 2.21842L2.63513 2.63509L2.21846 8.11092L8.74763 14.6401L14.6393 8.74842L8.11096 2.21842ZM5.21179 6.87843C4.41666 6.87859 3.73214 6.31706 3.57686 5.53723C3.42158 4.75741 3.8388 3.97649 4.57335 3.67208C5.3079 3.36766 6.1552 3.62452 6.59707 4.28558C7.03893 4.94663 6.95229 5.82776 6.39013 6.39009C6.07832 6.70369 5.65402 6.87953 5.21179 6.87843Z" fill="#F8A42A"/>
</svg>
