<svg width="30" height="24" viewBox="0 0 30 24" fill="none" xmlns="http://www.w3.org/2000/svg">
<path d="M1.46744 3.66782L0.578546 14.3345C0.384207 16.6666 2.22457 18.6667 4.56473 18.6667H13.6666V20.2403L8.07178 21.3592C7.3497 21.5036 6.88141 22.2061 7.02582 22.9282C7.17024 23.6502 7.87267 24.1185 8.59475 23.9741L14.9999 22.6931L21.4051 23.9741C22.1272 24.1185 22.8296 23.6502 22.974 22.9282C23.1185 22.2061 22.6502 21.5036 21.9281 21.3592L16.3333 20.2403V18.6667H25.4351C27.7753 18.6667 29.6157 16.6666 29.4213 14.3345L28.5324 3.66782C28.3597 1.59465 26.6266 0 24.5462 0H5.45362C3.37326 0 1.6402 1.59465 1.46744 3.66782ZM25.4351 16H4.56473C3.78468 16 3.17122 15.3333 3.236 14.5559L4.12489 3.88927C4.18248 3.19822 4.76017 2.66667 5.45362 2.66667H24.5462C25.2397 2.66667 25.8174 3.19822 25.875 3.88927L26.7639 14.5559C26.8286 15.3333 26.2152 16 25.4351 16Z" fill="white"/>
</svg>
