<svg width="19" height="18" viewBox="0 0 19 18" fill="none" xmlns="http://www.w3.org/2000/svg">
<path fill-rule="evenodd" clip-rule="evenodd" d="M12.3832 14.4976C10.4914 14.4886 8.59956 14.485 6.70775 14.4994C6.28655 14.5012 6.13715 14.3392 6.14255 13.9252C6.16055 12.865 6.16415 11.803 6.14075 10.7428C6.13175 10.354 6.28115 10.2136 6.64835 10.1722C7.42595 10.0876 8.18735 10.1344 8.84795 10.5736C10.0972 11.4034 11.3662 11.5024 12.6964 10.804C12.7486 10.7752 12.826 10.7932 12.9322 10.7878C12.9322 11.8606 12.9286 12.9172 12.9358 13.9756C12.9376 14.359 12.7612 14.4994 12.3832 14.4976ZM6.65196 8.33795C6.92736 7.78175 7.35756 7.25975 7.46736 6.67475C7.67616 5.54975 8.39436 5.56398 9.24396 5.62536C9.86136 5.67036 10.5976 5.43618 11.0746 5.70096C11.4814 5.92596 11.5948 6.68177 11.8432 7.20215C12.1294 7.80155 12.4174 8.40276 12.7108 9.00036C12.9196 9.43056 12.8368 9.67175 12.3652 9.90395C11.3716 10.3918 10.459 10.4332 9.50135 9.81395C8.55995 9.20555 7.50695 9.01475 6.24875 9.25415C6.41255 8.87975 6.52236 8.60255 6.65196 8.33795ZM7.28555 3.66677C8.78495 3.67595 10.2844 3.67595 11.7838 3.66677C12.1402 3.66515 12.2734 3.81995 12.277 4.16735C12.2788 4.51655 12.1474 4.67118 11.7892 4.66596C11.0278 4.65336 10.2664 4.66235 9.50496 4.66235C8.76696 4.66235 8.02895 4.65156 7.29095 4.66596C6.93275 4.67316 6.79595 4.52178 6.79774 4.17276C6.80135 3.83436 6.92195 3.66515 7.28555 3.66677ZM13.9006 10.2316C13.897 9.46115 13.7206 8.72676 13.3624 8.03898C13.0636 7.46676 12.7918 6.88176 12.4786 6.31836C12.2554 5.91678 12.2086 5.65398 12.6964 5.37336C13.2454 5.05656 13.4308 4.23215 13.1788 3.56975C12.9502 2.96495 12.4822 2.69495 11.8288 2.70027C10.2826 2.71295 8.73636 2.70935 7.19015 2.70215C6.56555 2.70027 6.08315 2.96676 5.91035 3.55536C5.72495 4.18716 5.66915 4.91615 6.30815 5.31575C6.88055 5.67215 6.75995 5.99256 6.53135 6.44616C5.94455 7.61256 5.17775 8.71236 5.18315 10.0984C5.18675 11.4142 5.17596 12.73 5.18496 14.044C5.19216 14.9728 5.66915 15.4462 6.59615 15.457C7.56635 15.4678 8.53475 15.4587 9.50315 15.4587C10.4734 15.4587 11.4418 15.4642 12.412 15.457C13.4092 15.4516 13.8916 14.9746 13.9006 13.9702C13.9114 12.7246 13.9078 11.479 13.9006 10.2316Z" fill="#4F4F4F"/>
</svg>
