<svg width="21" height="20" viewBox="0 0 21 20" fill="none" xmlns="http://www.w3.org/2000/svg">
<path fill-rule="evenodd" clip-rule="evenodd" d="M17.5007 7.07239L18.0985 5.48231H9.19036C8.86954 5.48231 8.60946 5.23899 8.60946 4.93884C8.60946 4.63869 8.86954 4.39537 9.19036 4.39537H18.9186C19.3192 4.39537 19.5995 4.76568 19.4666 5.11918L17.9153 9.24524C17.6538 9.94069 17.0033 10.4443 16.2242 10.5544L8.14317 11.6964L8.34661 12.8112H16.2851C16.6059 12.8112 16.866 13.0545 16.866 13.3547C16.866 13.6548 16.6059 13.8981 16.2851 13.8981H7.85149C7.56619 13.8981 7.32312 13.7043 7.27792 13.4408L6.91079 11.4224C6.90012 11.3937 6.89189 11.3637 6.88636 11.3327L6.51057 9.22218L5.75509 5.06887C5.55923 3.92685 4.50592 3.08694 3.26964 3.08694H2.0809C1.76008 3.08694 1.5 2.84362 1.5 2.54347C1.5 2.24332 1.76008 2 2.0809 2H3.28554C5.08413 2 6.61906 3.21659 6.9146 4.8764L7.55863 8.49344L7.9476 10.6248L16.0506 9.47964C16.4048 9.42958 16.7005 9.20069 16.8193 8.88457L17.092 8.15933H9.82629C9.50547 8.15933 9.24539 7.91601 9.24539 7.61586C9.24539 7.31571 9.50547 7.07239 9.82629 7.07239H17.5007ZM9.11043 18.0001C8.2549 18.0001 7.56135 17.3512 7.56135 16.5508C7.56135 15.7504 8.2549 15.1016 9.11043 15.1016C9.96596 15.1016 10.6595 15.7504 10.6595 16.5508C10.6595 17.3512 9.96596 18.0001 9.11043 18.0001ZM13.7592 16.5508C13.7592 17.3512 14.4527 18.0001 15.3083 18.0001C16.1638 18.0001 16.8573 17.3512 16.8573 16.5508C16.8573 15.7504 16.1638 15.1016 15.3083 15.1016C14.4527 15.1016 13.7592 15.7504 13.7592 16.5508Z" fill="#80BA27"/>
</svg>
