<svg width="20" height="20" viewBox="0 0 20 20" fill="none" xmlns="http://www.w3.org/2000/svg">
<path fill-rule="evenodd" clip-rule="evenodd" d="M2.92944 2.92657C6.82893 -0.97292 13.1759 -0.97292 17.0754 2.92657C20.9749 6.8268 20.9749 13.1723 17.0754 17.0717C15.1253 19.0219 12.5638 19.9965 10.0024 19.9965C7.44101 19.9965 4.87958 19.0219 2.92944 17.0717C1.04052 15.1828 0 12.671 0 9.99953C0 7.3281 1.04052 4.81624 2.92944 2.92657ZM1.54955 9.99953C1.54955 12.2572 2.42893 14.3802 4.02496 15.9762C7.32089 19.2721 12.6839 19.2721 15.9798 15.9762C19.275 12.681 19.275 7.31802 15.9798 4.02209C12.6839 0.72694 7.32089 0.726159 4.02496 4.02209C2.42893 5.6189 1.54955 7.74181 1.54955 9.99953ZM11.1477 9.95152L13.3412 12.1418C13.6441 12.444 13.6441 12.9344 13.342 13.2374C13.1909 13.3884 12.9918 13.4644 12.7935 13.4644C12.5951 13.4644 12.3968 13.3892 12.2457 13.2381L10.0507 11.0463L7.85579 13.2381C7.7047 13.3884 7.50637 13.4644 7.30801 13.4644C7.10965 13.4644 6.91055 13.3892 6.75945 13.2374C6.4573 12.9344 6.4573 12.444 6.76023 12.1418L8.95365 9.95152L6.76023 7.76123C6.4573 7.45904 6.4573 6.96861 6.75945 6.66568C7.06239 6.36196 7.55282 6.36274 7.85575 6.6649L10.0507 8.85675L12.2456 6.6649C12.5486 6.36274 13.039 6.36196 13.3419 6.66568C13.6433 6.96865 13.6433 7.45908 13.3412 7.76123L11.1477 9.95152Z" fill="#818181"/>
</svg>
