<svg width="24" height="24" viewBox="0 0 24 24" fill="none" xmlns="http://www.w3.org/2000/svg">
<path fill-rule="evenodd" clip-rule="evenodd" d="M17.1731 6.00306C17.7734 5.961 18.299 6.39499 18.359 6.98239C18.5259 8.61529 18.2303 11.241 16.633 13.2788C15.1186 15.2108 12.5921 16.4203 8.78216 15.9984C8.7801 16.152 8.77912 16.5524 8.77986 16.9588C8.78091 17.527 8.31613 18.0002 7.74791 18.0002H7.36774C6.88323 18.0002 6.46559 17.6531 6.43077 17.1699C6.301 15.369 6.59317 12.9016 7.12742 11.4224C7.46982 10.4743 8.00393 9.58834 8.8178 8.81426C10.4967 7.21745 13.1731 6.2833 17.1731 6.00306ZM8.86135 13.8109C12.141 14.2219 13.8982 13.1882 14.8695 11.949C15.7263 10.8559 16.0882 9.45616 16.1617 8.286C13.1128 8.63373 11.3732 9.42289 10.3663 10.3806C9.45552 11.2469 9.0157 12.3747 8.86135 13.8109Z" fill="#80BA27"/>
<path d="M14.8695 11.949C13.8982 13.1882 12.141 14.2219 8.86135 13.8109C9.0157 12.3747 9.45552 11.2469 10.3663 10.3806C11.3732 9.42289 13.1128 8.63373 16.1617 8.286C16.0882 9.45616 15.7263 10.8559 14.8695 11.949Z" fill="#80BA27"/>
</svg>
