<svg width="24" height="24" viewBox="0 0 24 24" fill="none" xmlns="http://www.w3.org/2000/svg">
<g clip-path="url(#clip0)">
<path d="M12.0131 23.5C10.0312 23.5 8.41931 21.8881 8.41931 19.9062C8.41931 19.5095 8.74131 19.1875 9.13806 19.1875C9.53481 19.1875 9.85681 19.5095 9.85681 19.9062C9.85681 21.0956 10.8239 22.0625 12.0131 22.0625C13.2024 22.0625 14.1693 21.0956 14.1693 19.9062C14.1693 19.5095 14.4913 19.1875 14.8881 19.1875C15.2848 19.1875 15.6068 19.5095 15.6068 19.9062C15.6068 21.8881 13.9949 23.5 12.0131 23.5Z" fill="#2E2E2E"/>
<path d="M19.9212 20.625H4.10867C3.18391 20.625 2.43164 19.8727 2.43164 18.948C2.43164 18.4572 2.64537 17.9925 3.01808 17.6733C4.47576 16.4418 5.30664 14.6518 5.30664 12.7552V10.0833C5.30664 6.38424 8.31588 3.375 12.0149 3.375C15.7141 3.375 18.7234 6.38424 18.7234 10.0833V12.7552C18.7234 14.6518 19.5542 16.4418 21.0023 17.6666C21.3846 17.9925 21.5984 18.4572 21.5984 18.948C21.5984 19.8727 20.8461 20.625 19.9212 20.625ZM12.0149 4.8125C9.10833 4.8125 6.74414 7.17669 6.74414 10.0833V12.7552C6.74414 15.0752 5.72743 17.266 3.95547 18.7639C3.92178 18.7927 3.86914 18.8522 3.86914 18.948C3.86914 19.0782 3.97846 19.1875 4.10867 19.1875H19.9212C20.0515 19.1875 20.1609 19.0782 20.1609 18.948C20.1609 18.8522 20.108 18.7927 20.0765 18.7658C18.3026 17.266 17.2859 15.0752 17.2859 12.7552V10.0833C17.2859 7.17669 14.9217 4.8125 12.0149 4.8125Z" fill="#2E2E2E"/>
<path d="M12.0131 4.8125C11.6163 4.8125 11.2943 4.4905 11.2943 4.09375V1.21875C11.2943 0.821999 11.6163 0.5 12.0131 0.5C12.4098 0.5 12.7318 0.821999 12.7318 1.21875V4.09375C12.7318 4.4905 12.4098 4.8125 12.0131 4.8125Z" fill="#2E2E2E"/>
</g>
<defs>
<clipPath id="clip0">
<rect width="23" height="23" fill="white" transform="translate(0.5 0.5)"/>
</clipPath>
</defs>
</svg>
