<svg width="20" height="20" viewBox="0 0 20 20" fill="none" xmlns="http://www.w3.org/2000/svg">
<path fill-rule="evenodd" clip-rule="evenodd" d="M3.33268 7.50004H4.99967C4.99996 7.80544 5.16875 8.09937 5.46051 8.24525C5.87216 8.45108 6.37272 8.28422 6.57854 7.87257L6.76481 7.50004H13.2349L13.4212 7.87257C13.627 8.28422 14.1276 8.45108 14.5392 8.24525C14.831 8.09937 14.9998 7.80544 15.0001 7.50004H16.666V9.16671H3.33268V7.50004ZM14.2648 5.83305H16.6664C17.5868 5.83305 18.333 6.57924 18.333 7.49971V9.16638C18.333 9.86655 17.9013 10.4659 17.2895 10.7127C17.2923 10.7525 17.2938 10.7928 17.2938 10.8334C17.2938 10.955 17.2805 11.0762 17.2541 11.1949L15.9578 17.0283C15.7883 17.7908 15.112 18.3334 14.3308 18.3334H5.66776C4.88659 18.3334 4.21024 17.7908 4.04078 17.0283L2.74448 11.1949C2.70837 11.0324 2.69732 10.8701 2.70876 10.7122C2.09757 10.4651 1.66635 9.86612 1.66635 9.16638V7.49971C1.66635 6.57924 2.41254 5.83305 3.33302 5.83305H5.73492L7.58783 2.12722C7.79365 1.71557 8.29422 1.54872 8.70586 1.75454C9.11751 1.96037 9.28437 2.46093 9.07854 2.87258L7.59831 5.83305H12.4014L10.9212 2.87258C10.7154 2.46093 10.8822 1.96037 11.2939 1.75454C11.7055 1.54872 12.2061 1.71557 12.4119 2.12722L14.2648 5.83305ZM4.37112 10.833H15.6268L14.3305 16.6664H5.66741L4.37112 10.833Z" fill="white"/>
</svg>
