<svg width="18" height="18" viewBox="0 0 18 18" fill="none" xmlns="http://www.w3.org/2000/svg">
<path fill-rule="evenodd" clip-rule="evenodd" d="M10.0421 4.67095C10.0433 4.66605 10.0446 4.66117 10.0458 4.6563C9.97975 4.6295 9.92173 4.58404 9.88026 4.5238L9.88002 4.52347C9.86236 4.49829 9.06917 3.36766 8.11784 3.20364C7.91487 3.16734 7.77955 2.97428 7.81421 2.77131C7.85051 2.56998 8.04193 2.43466 8.24491 2.46931C9.03536 2.60628 9.69709 3.18384 10.0948 3.61289C10.1905 3.27443 10.2186 2.8109 9.89181 2.38333C9.7664 2.22013 9.79775 1.98581 9.96112 1.86039C10.1245 1.73663 10.3572 1.76632 10.4826 1.92969C10.9429 2.53201 10.9581 3.16204 10.8523 3.65019C11.5672 3.23271 12.477 3.2063 12.5354 3.20513C12.745 3.18384 12.91 3.36354 12.9166 3.56833C12.9199 3.7746 12.7582 3.94458 12.5519 3.94953C12.5514 3.94958 12.5497 3.94968 12.5467 3.94984C12.455 3.95485 11.2049 4.0232 10.8404 4.66587C11.0548 4.6475 11.2758 4.61926 11.5024 4.58981C12.9942 4.39822 14.8523 4.16243 15.6658 7.21696C16.0784 8.7665 15.8276 10.2399 14.9596 11.3672C14.187 12.3731 12.9984 13.0304 11.5393 13.2768C11.6979 13.3787 11.7569 13.5857 11.6707 13.7567C11.5783 13.9399 11.3538 14.0141 11.1707 13.9234L10.7746 13.7237C10.7977 13.9036 10.6871 14.0801 10.5073 14.1311C10.4726 14.141 10.4396 14.1462 10.405 14.1462C10.2478 14.1462 10.1016 14.0449 10.051 13.8892L9.9908 13.9795C9.91984 14.0884 9.80103 14.1462 9.68056 14.1462C9.6096 14.1462 9.53864 14.1245 9.47429 14.0834C9.44293 14.0618 9.42148 14.0356 9.40003 14.0074C9.63627 13.8422 9.79441 13.5345 9.85728 13.2148L9.82904 13.1164C9.78779 12.9727 9.83564 12.821 9.94951 12.727C10.0233 12.665 10.1157 12.6362 10.2076 12.6411C12.0398 12.6366 13.5171 12.023 14.3704 10.9132C15.0932 9.97278 15.2979 8.72853 14.9464 7.40837C14.3015 4.98362 13.1092 5.13591 11.5987 5.32884L11.5964 5.32913L11.5691 5.33257C11.1074 5.39077 10.6318 5.45071 10.1674 5.42482C9.71357 5.40172 9.34722 5.34068 9.02543 5.28623C8.82906 5.25322 8.66074 5.22844 8.50562 5.21524C8.56172 4.94791 8.55182 4.67397 8.46436 4.46604C8.67889 4.47743 8.89837 4.50895 9.1492 4.55186L9.18406 4.55756L9.18407 4.55756C9.43598 4.59878 9.71674 4.64471 10.0421 4.67095ZM4.68119 7.44982C5.08874 7.27671 5.52805 7.18231 5.98574 7.18231C6.25144 7.18231 6.51094 7.21412 6.76164 7.27468C6.92246 7.14047 7.16274 6.9688 7.47921 6.82089C7.24158 6.79613 6.99075 6.77636 6.74157 6.76481C6.60625 6.7582 6.48578 6.67899 6.42473 6.55853C6.36532 6.43641 6.37522 6.29284 6.45113 6.18063C6.45385 6.17699 6.46258 6.16459 6.47666 6.14455L6.47669 6.14451L6.4767 6.1445C6.53943 6.05526 6.70844 5.81485 6.92804 5.52385C6.84553 5.57814 6.76962 5.62945 6.70856 5.67235C6.41318 5.87533 6.13099 6.06842 5.88016 5.82089C5.73659 5.67898 5.68048 5.44465 5.71184 5.11791C5.65408 5.25817 5.59797 5.40834 5.54682 5.56841C5.50556 5.70372 5.39005 5.8011 5.25308 5.8242C5.11447 5.8473 4.9742 5.78952 4.89169 5.67566C4.73657 5.46443 4.36197 5.19215 3.94612 4.93637L4.76957 6.34714C4.84383 6.47767 4.83558 6.63773 4.74647 6.7582C4.65736 6.87701 4.50554 6.9331 4.36032 6.89828L4.12599 6.8422L4.68119 7.44982ZM8.10552 7.93193C8.83183 8.49745 9.38606 9.34467 9.65421 10.3399C9.695 10.394 9.72076 10.4589 9.72673 10.5287L9.74718 10.7524C9.80262 11.0561 9.83198 11.3711 9.83236 11.694C9.83244 11.6976 9.83246 11.7012 9.83243 11.7049L9.83236 11.7093C9.82824 14.1955 8.10372 16.2172 5.98574 16.2172C3.86523 16.2172 2.13912 14.1907 2.13912 11.7004C2.13912 10.0554 2.89145 8.61322 4.01292 7.82302L2.75798 6.44959C2.64741 6.32913 2.62761 6.15092 2.71177 6.01065C2.79428 5.86873 2.9593 5.79942 3.11937 5.83572L3.68704 5.97254L2.63421 4.16243C2.55335 4.02216 2.5715 3.84392 2.68207 3.72345C2.79263 3.60299 2.96755 3.56837 3.11607 3.63933C3.26624 3.71029 4.34547 4.22845 5.04351 4.79117C5.65408 3.3786 6.5848 2.86372 6.62935 2.84062C6.77127 2.76306 6.94784 2.78928 7.06501 2.90165C7.18052 3.01552 7.21022 3.19046 7.13761 3.33568C6.85543 3.90005 6.6178 4.50238 6.50559 4.90833C6.95774 4.60964 7.54852 4.28619 8.08978 4.48091C8.2053 4.522 8.29276 4.61954 8.32411 4.73819C8.35381 4.85717 8.32411 4.98424 8.2416 5.07665C7.96767 5.38837 7.67558 5.76479 7.4528 6.06677C8.22015 6.13938 9.10631 6.2978 9.39179 6.64269C9.48585 6.75656 9.50401 6.91497 9.438 7.04698C9.37199 7.179 9.23172 7.26151 9.0865 7.25161C8.43428 7.21999 7.93346 7.40521 7.59631 7.5977C7.76296 7.68832 7.9232 7.79255 8.076 7.90917C8.08618 7.91623 8.09603 7.92382 8.10552 7.93193ZM7.12339 8.19097C6.77091 8.02141 6.38706 7.9282 5.98574 7.9282C5.58063 7.9282 5.19345 8.023 4.83843 8.19531L6.10121 8.74386L7.12339 8.19097ZM6.96929 9.12094L7.82076 8.66071C8.1801 8.98228 8.48066 9.39567 8.69877 9.87221L6.96929 9.12094ZM5.26843 9.19431L4.11445 8.69302C3.65029 9.12097 3.28793 9.70394 3.07989 10.3781L5.26843 9.19431ZM2.88421 11.6115C2.88365 11.6411 2.88336 11.6707 2.88336 11.7004C2.88336 12.6799 3.19203 13.5733 3.69742 14.2444L5.56112 13.2858L2.88421 11.6115ZM6.33251 12.889L3.39659 11.052L6.13617 9.57125L9.00205 10.8162C9.00424 10.8272 9.00638 10.8382 9.00849 10.8493L9.06665 11.4827L6.33251 12.889ZM6.29603 13.7454L4.22979 14.8079C4.72934 15.2262 5.33435 15.4713 5.98574 15.4713C6.68315 15.4713 7.32783 15.1898 7.84675 14.7153L6.29603 13.7454ZM8.34397 14.1476L7.06737 13.3488L9.04456 12.3321C8.949 13.0175 8.70072 13.6405 8.34397 14.1476ZM14.2962 8.82093C14.2681 8.82093 14.2401 8.81762 14.2104 8.81102C14.0107 8.76465 13.8869 8.56515 13.9331 8.36382C14.0454 7.88361 13.9348 7.40504 13.9331 7.40009C13.8853 7.20025 14.0074 6.9991 14.2087 6.95124C14.4084 6.90338 14.6097 7.02553 14.6576 7.2252C14.6642 7.2516 14.811 7.87355 14.6576 8.53215C14.618 8.70542 14.4662 8.82093 14.2962 8.82093ZM10.3588 11.7664C10.3918 11.9464 10.5486 12.0717 10.7252 12.0717C10.7466 12.0717 10.7697 12.0702 10.7912 12.0669C13.3506 11.5982 14.1394 9.64441 14.1708 9.56174C14.245 9.37048 14.151 9.15431 13.9596 9.08005C13.7681 9.00414 13.552 9.09982 13.476 9.29108C13.4711 9.30775 12.8127 10.9398 10.6575 11.3326C10.4562 11.3705 10.3209 11.5652 10.3588 11.7664Z" fill="#80BA27"/>
</svg>
