<svg width="24" height="24" viewBox="0 0 24 24" fill="none" xmlns="http://www.w3.org/2000/svg">
<path fill-rule="evenodd" clip-rule="evenodd" d="M5.99853 5.99829H7.99853V4.99829H15.9985V5.99829H17.9985V4.99829H19.9962V7.99829H3.99617V4.99829H5.99853V5.99829ZM3.99617 9.99829V19.9983H19.9962V9.99829H3.99617ZM7.99853 2.99819H15.9985V1.99829H17.9985V2.99819H19.9969C21.1015 2.99819 21.9969 3.89362 21.9969 4.99819V19.9982C21.9969 21.1028 21.1015 21.9982 19.9969 21.9982H3.99695C2.89238 21.9982 1.99695 21.1028 1.99695 19.9982V4.99819C1.99695 3.89362 2.89238 2.99819 3.99695 2.99819H5.99853V1.99829H7.99853V2.99819Z" fill="#BCBCBC"/>
</svg>
