<svg width="20" height="20" viewBox="0 0 20 20" fill="none" xmlns="http://www.w3.org/2000/svg">
<path fill-rule="evenodd" clip-rule="evenodd" d="M3.33268 7.50016H4.99967C4.99996 7.80556 5.16875 8.09949 5.46051 8.24537C5.87216 8.4512 6.37272 8.28434 6.57854 7.8727L6.76481 7.50016H13.2349L13.4212 7.8727C13.627 8.28434 14.1276 8.4512 14.5392 8.24537C14.831 8.09949 14.9998 7.80556 15.0001 7.50016H16.666V9.16683H3.33268V7.50016ZM14.2648 5.83317H16.6664C17.5868 5.83317 18.333 6.57936 18.333 7.49984V9.1665C18.333 9.86668 17.9013 10.466 17.2895 10.7128C17.2923 10.7526 17.2938 10.7929 17.2938 10.8335C17.2938 10.9551 17.2805 11.0763 17.2541 11.195L15.9578 17.0284C15.7883 17.7909 15.112 18.3335 14.3308 18.3335H5.66776C4.88659 18.3335 4.21024 17.7909 4.04078 17.0284L2.74448 11.195C2.70837 11.0325 2.69732 10.8703 2.70876 10.7123C2.09757 10.4653 1.66635 9.86624 1.66635 9.1665V7.49984C1.66635 6.57936 2.41254 5.83317 3.33302 5.83317H5.73492L7.58783 2.12734C7.79365 1.71569 8.29422 1.54884 8.70586 1.75466C9.11751 1.96049 9.28437 2.46105 9.07854 2.8727L7.59831 5.83317H12.4014L10.9212 2.8727C10.7154 2.46105 10.8822 1.96049 11.2939 1.75466C11.7055 1.54884 12.2061 1.71569 12.4119 2.12734L14.2648 5.83317ZM4.37112 10.8332H15.6268L14.3305 16.6665H5.66741L4.37112 10.8332Z" fill="#818181"/>
</svg>
