<svg width="16" height="16" viewBox="0 0 16 16" fill="none" xmlns="http://www.w3.org/2000/svg">
<path d="M2.94666 13.7194C2.75965 13.7191 2.58137 13.6403 2.45533 13.5021C2.32696 13.3651 2.26317 13.1798 2.28 12.9928L2.44333 11.1968L9.98866 3.6541L12.3467 6.01143L4.80333 13.5534L3.00733 13.7168C2.98666 13.7188 2.966 13.7194 2.94666 13.7194ZM12.8173 5.5401L10.46 3.18277L11.874 1.76877C11.999 1.64358 12.1687 1.57324 12.3457 1.57324C12.5226 1.57324 12.6923 1.64358 12.8173 1.76877L14.2313 3.18277C14.3565 3.30781 14.4269 3.47749 14.4269 3.65443C14.4269 3.83137 14.3565 4.00105 14.2313 4.1261L12.818 5.53943L12.8173 5.5401Z" fill="#80BA27"/>
</svg>
