<svg width="32" height="25" viewBox="0 0 32 25" fill="none" xmlns="http://www.w3.org/2000/svg">
<path d="M4 0.5C1.79086 0.5 0 2.29086 0 4.5V20.5C0 22.7091 1.79086 24.5 4 24.5H28C30.2091 24.5 32 22.7091 32 20.5V4.5C32 2.29086 30.2091 0.5 28 0.5H4ZM2.66667 5.21358L13.7812 12.6233C15.1248 13.519 16.8752 13.519 18.2188 12.6233L29.3333 5.21358V20.5C29.3333 21.2364 28.7364 21.8333 28 21.8333H4C3.26362 21.8333 2.66667 21.2364 2.66667 20.5V5.21358ZM27.5963 3.16667L16.7396 10.4045C16.2917 10.703 15.7083 10.703 15.2604 10.4045L4.4037 3.16667H27.5963Z" fill="#80BA27"/>
</svg>
