<svg width="24" height="24" viewBox="0 0 24 24" fill="none" xmlns="http://www.w3.org/2000/svg">
<path fill-rule="evenodd" clip-rule="evenodd" d="M1.2998 6.00005C1.2998 5.03362 2.00578 4.30005 2.81799 4.30005H21.1816C21.9938 4.30005 22.6998 5.03362 22.6998 6.00005V18C22.6998 18.9665 21.9938 19.7 21.1816 19.7H2.81799C2.00578 19.7 1.2998 18.9665 1.2998 18V6.00005ZM2.9998 5.70005H2.6998V6.00005V9.00005V9.30005H2.9998H20.9998H21.2998V9.00005V6.00005V5.70005H20.9998H2.9998ZM2.9998 10.7H2.6998V11V18V18.3H2.9998H20.9998H21.2998V18V11V10.7H20.9998H2.9998Z" fill="#BCBCBC"/>
</svg>
