<svg width="24" height="24" viewBox="0 0 24 24" fill="none" xmlns="http://www.w3.org/2000/svg">
<path fill-rule="evenodd" clip-rule="evenodd" d="M1.2998 12C1.2998 6.0906 6.09036 1.30005 11.9998 1.30005C17.9093 1.30005 22.6998 6.0906 22.6998 12C22.6998 17.9095 17.9093 22.7001 11.9998 22.7001C6.09036 22.7001 1.2998 17.9095 1.2998 12ZM11.9998 2.70005C6.86356 2.70005 2.6998 6.8638 2.6998 12C2.6998 17.1363 6.86356 21.3 11.9998 21.3C17.1361 21.3 21.2998 17.1363 21.2998 12C21.2998 6.8638 17.1361 2.70005 11.9998 2.70005ZM9.71919 9.70005H8.31179C8.4645 7.7969 10.0573 6.30005 11.9998 6.30005C13.0863 6.30005 14.0132 6.61404 14.663 7.16211C15.3077 7.70582 15.6998 8.49584 15.6998 9.50005C15.6998 10.3145 15.5505 10.855 15.2622 11.272C14.9703 11.6942 14.5109 12.0271 13.8129 12.3761C13.4152 12.575 13.1059 12.7439 12.9211 13.0026C12.7774 13.2039 12.7253 13.4337 12.7079 13.7H11.3071C11.3404 13.0491 11.4861 12.5917 11.7374 12.2281C12.0293 11.8059 12.4887 11.473 13.1868 11.1239C13.5844 10.9251 13.8937 10.7562 14.0785 10.4975C14.2736 10.2243 14.2998 9.89833 14.2998 9.50005C14.2998 8.94278 14.0816 8.47554 13.6595 8.15681C13.2489 7.8467 12.6764 7.70005 11.9998 7.70005C10.8312 7.70005 9.86619 8.57154 9.71919 9.70005ZM11.2998 15.9984C11.2998 15.6119 11.6133 15.2984 12.0001 15.2984C12.387 15.2984 12.7005 15.6119 12.7005 15.9984C12.7005 16.3849 12.387 16.6984 12.0001 16.6984C11.6133 16.6984 11.2998 16.3849 11.2998 15.9984Z" fill="#BCBCBC"/>
</svg>
