<svg width="20" height="20" viewBox="0 0 20 20" fill="none" xmlns="http://www.w3.org/2000/svg">
<path d="M5.97321 0.371084C6.2285 -0.0118566 6.74589 -0.115335 7.12884 0.139959L9.62883 1.80663C10.0118 2.06192 10.1153 2.57931 9.85996 2.96225L8.19329 5.46225C7.938 5.84519 7.42061 5.94867 7.03767 5.69338C6.65473 5.43808 6.55125 4.92069 6.80654 4.53775L7.46307 3.55296C4.60641 4.30577 2.49992 6.90689 2.49992 10C2.49992 13.1717 4.71558 15.8278 7.68432 16.5015C8.13315 16.6033 8.41444 17.0497 8.31259 17.4986C8.21075 17.9474 7.76434 18.2287 7.31551 18.1268C3.6043 17.2847 0.833252 13.967 0.833252 10C0.833252 6.18784 3.39302 2.97354 6.8875 1.98215L6.20433 1.52671C5.82139 1.27142 5.71792 0.754025 5.97321 0.371084ZM11.6872 2.50144C11.7891 2.05262 12.2355 1.77133 12.6843 1.87317C16.3955 2.71529 19.1666 6.03305 19.1666 10C19.1666 13.8122 16.6068 17.0265 13.1123 18.0178L13.7955 18.4733C14.1784 18.7286 14.2819 19.246 14.0266 19.6289C13.7713 20.0119 13.2539 20.1153 12.871 19.86L10.371 18.1934C9.98806 17.9381 9.88458 17.4207 10.1399 17.0378L11.8065 14.5378C12.0618 14.1548 12.5792 14.0513 12.9622 14.3066C13.3451 14.5619 13.4486 15.0793 13.1933 15.4623L12.5368 16.447C15.3934 15.6942 17.4999 13.0931 17.4999 10C17.4999 6.82833 15.2843 4.17217 12.3155 3.49852C11.8667 3.39668 11.5854 2.95027 11.6872 2.50144Z" fill="#80BA27"/>
</svg>
