<svg width="20" height="20" viewBox="0 0 20 20" fill="none" xmlns="http://www.w3.org/2000/svg">
<path d="M3.3335 16.6667V10.8333H9.16683L6.486 13.5167C7.41096 14.4625 8.67722 14.997 10.0002 15C12.1164 14.9969 14.0014 13.6618 14.7068 11.6667H14.7218C14.8173 11.3955 14.8895 11.1167 14.9377 10.8333H16.6143C16.1944 14.1666 13.3598 16.6665 10.0002 16.6667H9.99183C8.22413 16.6719 6.5278 15.9698 5.281 14.7167L3.3335 16.6667ZM5.06183 9.16665H3.38516C3.80495 5.83466 6.63766 3.33511 9.996 3.33329H10.0002C11.7682 3.32763 13.4649 4.02985 14.7118 5.28332L16.6668 3.33329V9.16665H10.8335L13.5185 6.48332C12.5926 5.53636 11.3246 5.00177 10.0002 4.99999C7.88396 5.00311 5.9989 6.33814 5.2935 8.33332H5.2785C5.18229 8.60424 5.11007 8.88309 5.06266 9.16665H5.06183Z" fill="#80BA27"/>
</svg>
