<svg width="20" height="20" viewBox="0 0 20 20" fill="none" xmlns="http://www.w3.org/2000/svg">
<path fill-rule="evenodd" clip-rule="evenodd" d="M13.2482 4.30565H18.5422C19.3473 4.30565 20 4.95828 19.9999 5.76327V16.3172C19.9999 17.1223 19.3473 17.7749 18.5422 17.7749H1.45763C0.65257 17.7749 0 17.1223 0 16.3172V5.76327C0 4.95828 0.65257 4.30565 1.45769 4.30565H1.71021V3.90982C1.71021 3.58969 1.96969 3.33015 2.28989 3.33015H4.43477C4.7549 3.33015 5.01445 3.58969 5.01445 3.90982V4.30565H6.75166L7.82069 2.50973C7.92521 2.33414 8.11446 2.22656 8.31882 2.22656H11.681C11.8854 2.22656 12.0746 2.33414 12.1792 2.50973L13.2482 4.30565ZM5.85081 11.0402C5.85081 13.3318 7.70842 15.1894 9.99994 15.1894C12.2914 15.1894 14.1491 13.3318 14.1491 11.0402C14.1491 8.74874 12.2914 6.89106 9.99994 6.89106C7.70842 6.89106 5.85081 8.74874 5.85081 11.0402ZM15.8164 7.31084H17.6328C17.953 7.31084 18.2125 7.05129 18.2125 6.7311C18.2125 6.4109 17.9531 6.15135 17.6328 6.15135H15.8164C15.4962 6.15135 15.2367 6.4109 15.2367 6.7311C15.2367 7.05129 15.4962 7.31084 15.8164 7.31084ZM12.8985 11.0404C12.8985 12.6413 11.6008 13.939 9.99994 13.939C8.39909 13.939 7.10135 12.6413 7.10135 11.0404C7.10135 9.43956 8.39909 8.14182 9.99994 8.14182C11.6008 8.14182 12.8985 9.43956 12.8985 11.0404Z" fill="#80BA27"/>
</svg>
