<svg width="20" height="20" viewBox="0 0 20 20" fill="none" xmlns="http://www.w3.org/2000/svg">
<path fill-rule="evenodd" clip-rule="evenodd" d="M12.6974 15.4525C12.6956 15.6506 11.8124 16.2106 10.1349 16.2106H10.0656C8.34305 16.1937 7.44555 15.6037 7.44743 15.4031C7.44805 15.3412 7.60243 15.1456 8.0568 14.9644C8.45743 14.805 8.98243 14.7019 9.54493 14.6637L9.53805 15.25C9.53493 15.5269 9.75555 15.7531 10.0318 15.7562C10.3118 15.7562 10.5343 15.5362 10.5381 15.2625L10.5449 14.6687C11.1331 14.7131 11.6831 14.8281 12.0968 15.0025C12.5474 15.1925 12.6981 15.3912 12.6974 15.4525ZM8.04368 4.80625C8.13243 4.85937 8.23055 4.91125 8.34555 4.95937C8.81055 5.155 9.4193 5.26687 10.0599 5.2725C10.0774 5.2725 10.0943 5.27312 10.1118 5.27312C10.8449 5.27312 11.5962 5.12562 12.1081 4.82437C12.4931 5.88125 12.9937 7.49813 12.8812 8.285C12.7106 9.48 11.6137 10.46 10.0724 10.8062C8.53118 10.46 7.43493 9.48 7.2643 8.285C7.15055 7.49375 7.65805 5.8625 8.04368 4.80625ZM11.7031 3.90125C11.5443 4.04187 10.9962 4.26437 10.0687 4.2725C9.15618 4.26375 8.59868 4.01437 8.44243 3.87062C8.60118 3.73062 9.1593 3.50812 10.0762 3.5C10.9887 3.50812 11.5468 3.75812 11.7031 3.90125ZM12.7568 3.7275C12.7381 3.68375 12.7087 3.64937 12.6799 3.61312C12.5924 3.35937 12.3656 3.05187 11.7999 2.81312C11.3349 2.6175 10.7262 2.50562 10.0856 2.5C8.92118 2.51187 7.68368 2.84562 7.45993 3.62062C7.4343 3.655 7.40555 3.68625 7.38805 3.7275C7.25243 4.05562 6.0668 6.97375 6.2743 8.42687C6.4943 9.96687 7.78743 11.2162 9.60368 11.7081L9.55743 13.6575C8.85805 13.6925 8.2068 13.8269 7.68618 14.0356C6.61555 14.4631 6.45055 15.0694 6.44743 15.3931C6.43618 16.5631 8.2543 17.1931 10.0556 17.21C10.0799 17.2106 10.1043 17.2106 10.1293 17.2106C11.9062 17.2106 13.6862 16.6156 13.6974 15.4619C13.7006 15.1381 13.5474 14.5281 12.4849 14.0806C11.9524 13.8569 11.2787 13.7175 10.5574 13.6687L10.6037 11.6919C12.3868 11.1881 13.6537 9.94937 13.8712 8.42687C14.0787 6.97375 12.8924 4.05562 12.7568 3.7275Z" fill="#F45600"/>
</svg>
