<svg width="30" height="30" viewBox="0 0 30 30" fill="none" xmlns="http://www.w3.org/2000/svg">
<path d="M26.0098 1.16016C27.7614 0.459501 29.6668 1.74952 29.6668 3.63609V22.3493C29.6668 24.1157 28.5082 25.673 26.8162 26.1806L15.3833 29.6105C15.1334 29.6855 14.867 29.6855 14.617 29.6105L3.1841 26.1806C1.49217 25.673 0.333496 24.1157 0.333496 22.3493V3.63609C0.333496 1.74952 2.2389 0.4595 3.99054 1.16016L15.0002 5.56401L26.0098 1.16016ZM13.6668 7.90276L3.00016 3.63609V22.3493C3.00016 22.9381 3.38639 23.4572 3.95037 23.6264L13.6668 26.5413V7.90276ZM16.3335 26.5413L26.05 23.6264C26.6139 23.4572 27.0002 22.9381 27.0002 22.3493V3.63609L16.3335 7.90276V26.5413Z" fill="white"/>
</svg>
