<svg width="30" height="30" viewBox="0 0 30 30" fill="none" xmlns="http://www.w3.org/2000/svg">
<path d="M29.6668 11C29.6668 8.7909 27.876 7.00003 25.6668 7.00003H25.0002V4.10118C25.0002 1.65331 22.8212 -0.220388 20.4009 0.146315L3.73427 2.67157C1.77885 2.96784 0.333496 4.64869 0.333496 6.62643V25.6667C0.333496 27.8758 2.12436 29.6667 4.3335 29.6667H25.6668C27.876 29.6667 29.6668 27.8758 29.6668 25.6667V11ZM22.3335 4.10118V7.00003H4.3335C3.86598 7.00003 3.4172 7.08024 3.00016 7.22764V6.62643C3.00016 5.96718 3.48195 5.4069 4.13376 5.30814L20.8004 2.78289C21.6072 2.66066 22.3335 3.28522 22.3335 4.10118ZM3.00016 11C3.00016 10.2637 3.59712 9.6667 4.3335 9.6667H25.6668C26.4032 9.6667 27.0002 10.2637 27.0002 11V13.6667H22.3335C19.7562 13.6667 17.6668 15.756 17.6668 18.3334C17.6668 20.9107 19.7562 23 22.3335 23H27.0002V25.6667C27.0002 26.4031 26.4032 27 25.6668 27H4.3335C3.59712 27 3.00016 26.4031 3.00016 25.6667V11ZM27.0002 20.3334H22.3335C21.2289 20.3334 20.3335 19.4379 20.3335 18.3334C20.3335 17.2288 21.2289 16.3334 22.3335 16.3334H27.0002V20.3334Z" fill="white"/>
</svg>
