<svg width="16" height="16" viewBox="0 0 16 16" fill="none" xmlns="http://www.w3.org/2000/svg">
<mask id="path-1-inside-1_4628:63880" fill="white">
<path d="M1.33337 5.59989C1.33321 4.63344 1.72163 3.70752 2.41125 3.03044C3.10087 2.35336 4.03376 1.98199 5.00004 1.99989C6.14492 1.99381 7.23737 2.47934 8.00004 3.33322C8.76272 2.47934 9.85516 1.99381 11 1.99989C11.9663 1.98199 12.8992 2.35336 13.5888 3.03044C14.2785 3.70752 14.6669 4.63344 14.6667 5.59989C14.6667 9.17055 10.414 11.8666 8.00004 13.9999C5.59137 11.8486 1.33337 9.17322 1.33337 5.59989Z"/>
</mask>
<path d="M1.33337 5.59989C1.33321 4.63344 1.72163 3.70752 2.41125 3.03044C3.10087 2.35336 4.03376 1.98199 5.00004 1.99989C6.14492 1.99381 7.23737 2.47934 8.00004 3.33322C8.76272 2.47934 9.85516 1.99381 11 1.99989C11.9663 1.98199 12.8992 2.35336 13.5888 3.03044C14.2785 3.70752 14.6669 4.63344 14.6667 5.59989C14.6667 9.17055 10.414 11.8666 8.00004 13.9999C5.59137 11.8486 1.33337 9.17322 1.33337 5.59989Z" fill="#ED1344"/>
<!-- <path d="M1.33337 5.59989H2.83337L2.83337 5.59963L1.33337 5.59989ZM5.00004 1.99989L4.97226 3.49963L4.99013 3.49996L5.00801 3.49986L5.00004 1.99989ZM8.00004 3.33322L6.88132 4.33245L8.00004 5.58496L9.11876 4.33245L8.00004 3.33322ZM11 1.99989L10.9921 3.49986L11.0099 3.49996L11.0278 3.49963L11 1.99989ZM13.5888 3.03044L14.6397 1.96009V1.96009L13.5888 3.03044ZM14.6667 5.59989L13.1667 5.59963V5.59989H14.6667ZM8.00004 13.9999L7.00083 15.1186L7.99475 16.0064L8.99335 15.1239L8.00004 13.9999ZM2.83337 5.59963C2.83328 5.03587 3.05986 4.49575 3.46213 4.10078L1.36036 1.96009C0.383404 2.91929 -0.166861 4.23102 -0.166626 5.60014L2.83337 5.59963ZM3.46213 4.10078C3.86441 3.70582 4.4086 3.48919 4.97226 3.49963L5.02782 0.500143C3.65893 0.474789 2.33733 1.00089 1.36036 1.96009L3.46213 4.10078ZM5.00801 3.49986C5.72291 3.49607 6.40507 3.79925 6.88132 4.33245L9.11877 2.33399C8.06966 1.15942 6.56693 0.491543 4.99207 0.499907L5.00801 3.49986ZM9.11876 4.33245C9.59501 3.79925 10.2772 3.49607 10.9921 3.49986L11.008 0.499907C9.43315 0.491543 7.93043 1.15942 6.88132 2.33399L9.11876 4.33245ZM11.0278 3.49963C11.5915 3.48919 12.1357 3.70582 12.5379 4.10078L14.6397 1.96009C13.6628 1.00089 12.3412 0.474789 10.9723 0.500143L11.0278 3.49963ZM12.5379 4.10078C12.9402 4.49575 13.1668 5.03587 13.1667 5.59963L16.1667 5.60014C16.1669 4.23101 15.6167 2.91929 14.6397 1.96009L12.5379 4.10078ZM13.1667 5.59989C13.1667 6.77541 12.4605 7.97488 11.1695 9.28677C10.5434 9.92303 9.83429 10.5317 9.10595 11.1321C8.40233 11.7122 7.63567 12.3201 7.00674 12.8759L8.99335 15.1239C9.57141 14.613 10.2416 14.0839 11.0143 13.4469C11.7623 12.8303 12.569 12.1417 13.3078 11.391C14.7466 9.92889 16.1667 7.99503 16.1667 5.59989H13.1667ZM8.99926 12.8811C8.36809 12.3174 7.60294 11.7082 6.89717 11.1255C6.16775 10.5234 5.45823 9.91528 4.83136 9.27976C3.53921 7.9698 2.83337 6.77524 2.83337 5.59989H-0.166626C-0.166626 7.99786 1.25653 9.92764 2.69556 11.3865C3.43427 12.1354 4.24087 12.8229 4.98727 13.439C5.7573 14.0747 6.42766 14.6067 7.00083 15.1186L8.99926 12.8811Z" fill="#ED1344" mask="url(#path-1-inside-1_4628:63880)"/> -->
</svg>
