<svg width="24" height="24" viewBox="0 0 24 24" fill="none" xmlns="http://www.w3.org/2000/svg">
<path fill-rule="evenodd" clip-rule="evenodd" d="M8.34346 5.86278C8.86123 6.75957 8.55397 7.90631 7.65717 8.42407C7.51403 8.50671 7.31888 8.56932 7.07173 8.6119C6.76625 8.66453 6.537 8.92021 6.51789 9.2296C6.51628 9.25568 6.5167 9.28184 6.51914 9.30786C6.54516 9.5856 6.79141 9.78965 7.06915 9.76364C7.2789 9.74398 7.45036 9.71407 7.58356 9.67391C7.80103 9.60832 8.01444 9.51684 8.21967 9.39835C9.65454 8.56992 10.1462 6.73515 9.31774 5.30028C8.48932 3.8654 6.65454 3.37377 5.21967 4.2022C4.36419 4.69611 3.90091 5.55709 3.73894 6.45905C3.67209 6.83135 3.71712 7.24989 3.87403 7.71468C3.88447 7.74561 3.89794 7.77542 3.91426 7.80368C4.0507 8.04 4.35288 8.12097 4.5892 7.98453C4.86234 7.82684 4.9984 7.50761 4.92299 7.20136C4.86086 6.94899 4.83869 6.74487 4.85649 6.58901C4.92161 6.01868 5.24687 5.48553 5.78217 5.17648C6.67897 4.65871 7.8257 4.96598 8.34346 5.86278ZM16.8132 4.14452C17.0095 3.90375 17.3638 3.86772 17.6046 4.06404C17.8454 4.26036 17.8814 4.61469 17.6851 4.85546L6.70256 18.3243C6.50624 18.5651 6.15192 18.6011 5.91115 18.4048C5.67038 18.2085 5.63435 17.8542 5.83067 17.6134L16.8132 4.14452ZM14.6244 14.9987C14.6244 16.0342 15.4639 16.8737 16.4994 16.8737C17.535 16.8737 18.3744 16.0342 18.3744 14.9987C18.3744 14.3806 18.0753 13.8324 17.614 13.4908C17.4879 13.3974 17.3 13.3146 17.0504 13.2422C16.7475 13.1544 16.5391 12.8769 16.5391 12.5615C16.5391 12.2887 16.7603 12.0675 17.0332 12.0675C17.0658 12.0675 17.0984 12.0707 17.1304 12.0771C17.6113 12.1736 17.9963 12.3439 18.2853 12.5879C18.9854 13.1792 19.4994 14.0109 19.4994 14.9987C19.4994 16.6556 18.1563 17.9987 16.4994 17.9987C14.8426 17.9987 13.4994 16.6556 13.4994 14.9987C13.4994 14.7617 13.5269 14.5312 13.5789 14.3101C13.6107 14.1746 13.6705 14.0112 13.7583 13.8197C13.8747 13.5662 14.1745 13.4549 14.4281 13.5713C14.4518 13.5822 14.4747 13.5949 14.4965 13.6093C14.7548 13.7806 14.8617 14.1069 14.7545 14.3978C14.6678 14.6331 14.6244 14.8334 14.6244 14.9987Z" fill="#818181"/>
</svg>
