<svg width="24" height="24" viewBox="0 0 24 24" fill="none" xmlns="http://www.w3.org/2000/svg">
<path fill-rule="evenodd" clip-rule="evenodd" d="M9.25135 3.70831L10.6198 1.30005H13.4054L14.7681 3.71505L14.8186 3.80455L14.9134 3.84429L15.7241 4.18419L15.8197 4.22429L15.9197 4.19678L18.5886 3.4624L20.5599 5.4308L19.8163 8.10021L19.7886 8.19966L19.8279 8.2951L20.1624 9.10616L20.2018 9.2016L20.2915 9.25261L22.6998 10.6211V13.4067L20.285 14.7693L20.1955 14.8198L20.1558 14.9147L19.8156 15.7272L19.7755 15.8228L19.803 15.9227L20.5376 18.5912L18.5677 20.5611L15.8986 19.8175L15.7992 19.7898L15.7037 19.8292L14.8922 20.1639L14.7969 20.2032L14.7459 20.2928L13.3753 22.699H10.5902L9.22749 20.285L9.17699 20.1956L9.08225 20.1558L8.27148 19.8159L8.17586 19.7758L8.07589 19.8033L5.4066 20.5378L3.43778 18.569L4.18132 15.8999L4.20903 15.8004L4.16966 15.705L3.83488 14.8932L3.7956 14.798L3.70611 14.747L1.2998 13.3754V10.5904L3.71481 9.22767L3.80431 9.17717L3.84405 9.08239L4.18395 8.27173L4.22404 8.17611L4.19653 8.07614L3.46206 5.40684L5.42999 3.43892L8.09904 4.18348L8.19854 4.21124L8.29403 4.17185L9.1049 3.83743L9.20035 3.79807L9.25135 3.70831ZM11.6091 2.70005H11.4345L11.3483 2.85183L10.1795 4.90862L8.28668 5.68928L6.01043 5.05429L5.84161 5.0072L5.71768 5.13112L5.15143 5.69738L5.028 5.82081L5.07431 5.9891L5.70224 8.27122L4.90998 10.1608L2.85238 11.3218L2.6998 11.4079V11.5831V12.3876V12.5619L2.85124 12.6482L4.90656 13.8198L5.68696 15.712L5.05284 17.9884L5.00582 18.1571L5.1297 18.281L5.69714 18.8484L5.82056 18.9719L5.98886 18.9255L8.27098 18.2976L10.1605 19.0898L11.3215 21.1465L11.4076 21.299H11.5827H12.3871H12.5615L12.6478 21.1475L13.8184 19.0923L15.7108 18.3119L17.9871 18.946L18.1559 18.993L18.2797 18.8691L18.8481 18.3007L18.9716 18.1773L18.9252 18.009L18.2974 15.7281L19.0895 13.8364L21.1472 12.6753L21.2998 12.5892V12.414V11.6104V11.4358L21.148 11.3495L19.0912 10.1808L18.3106 8.28806L18.9446 6.01221L18.9917 5.84331L18.8676 5.71942L18.2987 5.15139L18.1753 5.02815L18.0072 5.07442L15.7246 5.70249L13.835 4.91022L12.674 2.85262L12.5879 2.70005H12.4127H11.6091ZM8.2998 12C8.2998 9.9566 9.95635 8.30005 11.9998 8.30005C14.0433 8.30005 15.6998 9.9566 15.6998 12C15.6998 14.0435 14.0433 15.7 11.9998 15.7C9.95635 15.7 8.2998 14.0435 8.2998 12ZM11.9998 9.70005C10.7295 9.70005 9.6998 10.7298 9.6998 12C9.6998 13.2703 10.7295 14.3 11.9998 14.3C13.2701 14.3 14.2998 13.2703 14.2998 12C14.2998 10.7298 13.2701 9.70005 11.9998 9.70005Z" fill="#80BA27"/>
</svg>
