<svg width="16" height="20" viewBox="0 0 16 20" fill="none" xmlns="http://www.w3.org/2000/svg">
<path d="M15.0241 0.00212029C15.4739 -0.0300093 15.8677 0.30151 15.9126 0.750219C16.0377 1.99758 15.8162 4.00332 14.6194 5.56C13.4848 7.03583 11.5918 7.95973 8.73715 7.63747C8.73567 7.75014 8.73484 7.8609 8.73526 7.96985C8.73575 8.09877 8.73805 8.22001 8.74257 8.33334H14.6667C14.9139 8.33334 15.1482 8.443 15.3065 8.63271C15.4649 8.82243 15.5308 9.07262 15.4866 9.31574L13.82 18.4824C13.7479 18.8786 13.4028 19.1667 13.0001 19.1667H3.00008C2.59734 19.1667 2.25223 18.8786 2.18019 18.4824L0.513524 9.31574C0.469321 9.07262 0.535292 8.82243 0.693622 8.63271C0.851953 8.443 1.08631 8.33334 1.33342 8.33334H7.05003C7.00541 8.0785 6.95019 7.81356 6.88347 7.54296C4.72724 7.64404 3.22151 7.29618 2.19502 6.48814C1.04854 5.58563 0.698062 4.2622 0.509852 3.0439C0.445363 2.62646 0.703396 2.22679 1.11038 2.11374C3.49896 1.45024 5.17129 1.54212 6.34671 2.53997C6.86379 2.97894 7.22049 3.54409 7.49733 4.1419C7.75387 3.41769 8.15406 2.74089 8.76385 2.14958C10.0218 0.929783 12.0271 0.216195 15.0241 0.00212029ZM8.01653 10C8.00504 10.0002 7.99359 10.0002 7.98217 10H2.33193L3.69556 17.5H12.3046L13.6682 10H8.01653ZM8.79649 5.96648C11.2538 6.28045 12.5703 5.49077 13.2981 4.54417C13.9401 3.70914 14.2112 2.63992 14.2663 1.74604C11.9819 2.01167 10.6785 2.6145 9.92409 3.34608C9.24167 4.00782 8.91214 4.86934 8.79649 5.96648ZM3.22592 5.17855C3.75733 5.59687 4.6823 5.92038 6.38772 5.89161C6.2743 5.55061 6.16116 5.24078 6.03742 4.9587C5.80238 4.4229 5.55705 4.05586 5.26808 3.81054C4.8087 3.42056 4.01661 3.16388 2.30121 3.53451C2.48186 4.27499 2.75355 4.8067 3.22592 5.17855Z" fill="#80BA27"/>
</svg>
