<svg width="24" height="24" viewBox="0 0 24 24" fill="none" xmlns="http://www.w3.org/2000/svg">
<path fill-rule="evenodd" clip-rule="evenodd" d="M12 23.3323L12.6577 22.758C18.1887 17.9284 21 13.7115 21 10.0047C21 4.75536 16.9029 1.0047 12 1.0047C7.09705 1.0047 3 4.75536 3 10.0047C3 13.7115 5.81131 17.9284 11.3423 22.758L12 23.3323ZM12 20.6681C7.30663 16.4382 5.00002 12.8539 5.00002 10.0047C5.00002 5.9013 8.16413 3.0047 12 3.0047C15.8359 3.0047 19 5.9013 19 10.0047C19 12.8539 16.6934 16.4382 12 20.6681ZM12 5.00314C14.7614 5.00314 17 7.24171 17 10.0031C17 12.7646 14.7614 15.0031 12 15.0031C9.23856 15.0031 6.99998 12.7646 6.99998 10.0031C6.99998 7.24171 9.23856 5.00314 12 5.00314ZM9 10.0016C9 8.34472 10.3431 7.00158 12 7.00158C13.6569 7.00158 15 8.34472 15 10.0016C15 11.6584 13.6569 13.0016 12 13.0016C10.3431 13.0016 9 11.6584 9 10.0016Z" fill="#BCBCBC"/>
</svg>
