<svg width="26" height="24" viewBox="0 0 26 24" fill="none" xmlns="http://www.w3.org/2000/svg">
<path d="M19.3332 2.66667C18.5968 2.66667 17.9998 2.06971 17.9998 1.33333C17.9998 0.596954 18.5968 0 19.3332 0H24.6665C25.4029 0 25.9998 0.596954 25.9998 1.33333V6.66667C25.9998 7.40305 25.4029 8 24.6665 8C23.9301 8 23.3332 7.40305 23.3332 6.66667V4.55229L16.276 11.6095C15.7553 12.1302 14.9111 12.1302 14.3904 11.6095L9.99984 7.21895L2.94265 14.2761C2.42195 14.7968 1.57773 14.7968 1.05703 14.2761C0.536329 13.7554 0.536329 12.9112 1.05703 12.3905L9.05703 4.39052C9.57773 3.86983 10.4219 3.86983 10.9426 4.39052L15.3332 8.78105L21.4476 2.66667H19.3332ZM1.99984 22.6667C1.99984 21.9303 2.59679 21.3333 3.33317 21.3333H24.6665C25.4029 21.3333 25.9998 21.9303 25.9998 22.6667C25.9998 23.403 25.4029 24 24.6665 24H3.33317C2.59679 24 1.99984 23.403 1.99984 22.6667Z" fill="white"/>
</svg>
