<svg width="24" height="24" viewBox="0 0 24 24" fill="none" xmlns="http://www.w3.org/2000/svg">
<path fill-rule="evenodd" clip-rule="evenodd" d="M12.8137 19.5496C12.3587 19.5919 12 19.9667 12 20.4236V20.7729C12 21.2626 12.4097 21.6534 12.8976 21.6117C13.2303 21.5833 13.5858 21.5452 13.8309 21.4977C18.2571 20.6397 21.6 16.7299 21.6 12.0364C21.6 6.71437 17.302 2.40002 12 2.40002C6.69809 2.40002 2.40002 6.71437 2.40002 12.0364C2.40002 14.8442 3.59636 17.3715 5.50528 19.1327C5.69154 19.3046 5.97365 19.5241 6.2413 19.7231C6.63632 20.0167 7.19317 19.8966 7.4486 19.4759L7.63026 19.1767C7.86545 18.7893 7.75753 18.2868 7.39656 18.0128C7.1793 17.8479 6.95488 17.6687 6.80562 17.5264C5.35906 16.1469 4.45717 14.1973 4.45717 12.0364C4.45717 7.8548 7.83422 4.46496 12 4.46496C16.1658 4.46496 19.5429 7.8548 19.5429 12.0364C19.5429 15.7159 16.928 18.7825 13.4618 19.4657C13.2899 19.4996 13.0497 19.5276 12.8137 19.5496ZM10.9406 7.95139V12.8324C10.9406 13.4026 11.4012 13.8649 11.9692 13.8649H15.3221C15.8902 13.8649 16.3507 13.4026 16.3507 12.8324C16.3507 12.2622 15.8902 11.7999 15.3221 11.7999H12.9978V7.95139C12.9978 7.38117 12.5373 6.91892 11.9692 6.91892C11.4012 6.91892 10.9406 7.38117 10.9406 7.95139Z" fill="#2E2E2E"/>
</svg>
