<svg width="20" height="20" viewBox="0 0 20 20" fill="none" xmlns="http://www.w3.org/2000/svg">
<path d="M14.9997 11.6666C14.0792 11.6666 13.333 10.9205 13.333 9.99998C13.333 9.0795 14.0792 8.33331 14.9997 8.33331C15.9201 8.33331 16.6663 9.0795 16.6663 9.99998C16.6663 10.442 16.4907 10.8659 16.1782 11.1785C15.8656 11.4911 15.4417 11.6666 14.9997 11.6666ZM9.99967 11.6666C9.0792 11.6666 8.33301 10.9205 8.33301 9.99998C8.33301 9.0795 9.0792 8.33331 9.99967 8.33331C10.9201 8.33331 11.6663 9.0795 11.6663 9.99998C11.6663 10.442 11.4907 10.8659 11.1782 11.1785C10.8656 11.4911 10.4417 11.6666 9.99967 11.6666ZM4.99967 11.6666C4.0792 11.6666 3.33301 10.9205 3.33301 9.99998C3.33301 9.0795 4.0792 8.33331 4.99967 8.33331C5.92015 8.33331 6.66634 9.0795 6.66634 9.99998C6.66634 10.442 6.49075 10.8659 6.17819 11.1785C5.86562 11.4911 5.4417 11.6666 4.99967 11.6666Z" fill="#818181"/>
</svg>
