<svg width="18" height="18" viewBox="0 0 18 18" fill="none" xmlns="http://www.w3.org/2000/svg">
<path fill-rule="evenodd" clip-rule="evenodd" d="M6.19215 15.0275L11.6714 15.0725L11.7092 13.0007L12.1574 6.40195L5.81595 6.34975L6.16695 13.1592L6.16875 14.5829L6.19215 15.0275ZM4.81335 4.39313L4.80435 5.50894L13.1834 5.57754L13.1924 4.46137L4.81335 4.39313ZM11.4914 2.85236L6.54135 2.81272L6.10035 3.57056L11.9198 3.61736L11.4914 2.85236ZM12.1934 15.8861C12.1484 15.9005 12.1034 15.9095 12.0566 15.9095V16.0228L12.0512 15.9095L5.79075 15.8592C5.57115 15.8574 5.38935 15.6845 5.37855 15.4649L4.98255 6.34434L4.37955 6.33894C4.26975 6.33894 4.16535 6.29395 4.08615 6.21475C4.00875 6.13555 3.96555 6.03112 3.9673 5.91952L3.98355 3.97015C3.98355 3.85855 4.02855 3.75395 4.10775 3.67673C4.18335 3.60113 4.28955 3.55614 4.40295 3.55614L5.16615 3.56335L5.19495 3.48592C5.20215 3.46432 5.21115 3.44095 5.22375 3.41917L5.94195 2.18452C6.01755 2.05672 6.15435 1.97754 6.30555 1.97754L11.7398 2.02056C11.8874 2.02254 12.026 2.10352 12.0998 2.23313L12.7982 3.47875C12.8108 3.50215 12.8198 3.52374 12.827 3.54894L12.854 3.62452L13.6172 3.63173C13.727 3.63173 13.8314 3.67672 13.9088 3.75592C13.988 3.83512 14.0294 3.93954 14.0294 4.05114L14.0132 6.00056C14.0132 6.11036 13.9682 6.21636 13.889 6.29394C13.8458 6.33714 13.7936 6.36954 13.736 6.38917C13.691 6.40555 13.646 6.41254 13.5938 6.41254L12.9908 6.40916L12.4706 15.5206C12.4598 15.6863 12.35 15.8303 12.1934 15.8861ZM9.95315 9.5358C9.83615 9.4188 9.71195 9.3162 9.58235 9.228C9.09275 8.8968 8.55275 8.79403 8.19455 8.96701C8.80835 9.40441 9.08735 9.86338 9.33395 10.279C9.58955 10.7076 9.81635 11.0856 10.4139 11.4582C10.6336 11.2134 10.6156 10.8624 10.5814 10.6714C10.5148 10.2826 10.2862 9.8688 9.95315 9.5358ZM7.41875 10.3026C7.48715 10.6914 7.71575 11.1054 8.04695 11.4366C8.60495 11.9964 9.34655 12.2232 9.80195 12.0126C9.17375 11.5716 8.89295 11.1072 8.64455 10.6896C8.39075 10.263 8.16755 9.89039 7.58255 9.52121C7.36835 9.76421 7.38635 10.1118 7.41875 10.3026ZM7.97855 12.4194C7.80575 12.3024 7.63835 12.1638 7.47995 12.0036C7.02815 11.55 6.72575 10.9956 6.62855 10.4392C6.52235 9.831 6.66995 9.29281 7.04255 8.92021C7.09112 8.87343 7.14689 8.83206 7.20266 8.79068L7.20275 8.79061C7.22975 8.75101 7.26395 8.71861 7.30175 8.69341C7.30697 8.68651 7.31217 8.67962 7.31736 8.67274C7.35688 8.62033 7.3958 8.56871 7.44035 8.524C8.18195 7.78438 9.53735 7.98061 10.5219 8.96881C10.9737 9.42241 11.2762 9.9786 11.3734 10.533C11.4778 11.1412 11.332 11.6812 10.9576 12.054C10.8928 12.1188 10.8189 12.1782 10.7397 12.2304C10.6857 12.3096 10.6263 12.3834 10.5616 12.4482C9.93875 13.069 8.88395 13.0312 7.97855 12.4194Z" fill="#74140D"/>
</svg>
