<svg width="12" height="15" viewBox="0 0 12 15" fill="none" xmlns="http://www.w3.org/2000/svg">
<path d="M10.0003 14.1667H2.00033C1.26395 14.1667 0.666992 13.5698 0.666992 12.8334V2.16671C0.666992 1.43033 1.26395 0.833374 2.00033 0.833374H6.66699C6.67426 0.833689 6.68144 0.835036 6.68832 0.837374C6.69484 0.839386 6.70154 0.840726 6.70833 0.841374C6.76712 0.845143 6.82516 0.856573 6.88099 0.875374L6.89966 0.881374C6.91477 0.886495 6.92948 0.892735 6.94366 0.900041C7.01629 0.932323 7.08247 0.977497 7.13899 1.03337L11.139 5.03337C11.1949 5.0899 11.24 5.15608 11.2723 5.22871C11.279 5.24337 11.2837 5.25871 11.289 5.27404L11.295 5.29137C11.3136 5.34697 11.3246 5.40483 11.3277 5.46337C11.3287 5.4695 11.3303 5.47552 11.3323 5.48137C11.3335 5.48752 11.334 5.49379 11.3337 5.50004V12.8334C11.3337 13.5698 10.7367 14.1667 10.0003 14.1667ZM2.00033 2.16671V12.8334H10.0003V6.16671H6.66699C6.2988 6.16671 6.00033 5.86823 6.00033 5.50004V2.16671H2.00033ZM7.33366 3.10937V4.83337H9.05766L7.33366 3.10937Z" fill="#2E2E2E"/>
</svg>
