<svg width="24" height="24" viewBox="0 0 24 24" fill="none" xmlns="http://www.w3.org/2000/svg">
<path d="M5.37171 23.5148C5.10876 23.5148 4.84765 23.4327 4.6248 23.2716C4.20969 22.9707 4.01578 22.4536 4.12876 21.9547L5.67274 15.1534L0.436525 10.5614C0.0516272 10.2253 -0.0954103 9.69323 0.0626139 9.20634C0.220638 8.72036 0.650581 8.3763 1.15963 8.32924L8.08778 7.70026L10.8269 1.29012C11.0289 0.819161 11.4889 0.515015 11.9999 0.515015C12.511 0.515015 12.971 0.819161 13.1729 1.28902L15.9121 7.70026L22.8391 8.32924C23.3493 8.3752 23.7792 8.72036 23.9373 9.20634C24.0953 9.69231 23.9492 10.2253 23.5643 10.5614L18.328 15.1525L19.872 21.9536C19.9852 22.4536 19.7911 22.9707 19.3762 23.2707C18.9621 23.5706 18.4101 23.5937 17.9741 23.3316L11.9999 19.7615L6.02578 23.3337C5.82381 23.4536 5.59877 23.5148 5.37171 23.5148ZM11.9999 18.2236C12.227 18.2236 12.4518 18.2846 12.654 18.4045L18.2921 21.7767L16.835 15.3574C16.731 14.9005 16.886 14.4235 17.2391 14.1144L22.1832 9.77837L15.642 9.18437C15.171 9.14133 14.766 8.84525 14.582 8.41127L11.9999 2.36205L9.41478 8.41219C9.23277 8.84323 8.82773 9.13932 8.35787 9.18235L1.81571 9.77636L6.75969 14.1124C7.11382 14.4224 7.26873 14.8985 7.16381 15.3565L5.70772 21.7756L11.3459 18.4045C11.5478 18.2846 11.7729 18.2236 11.9999 18.2236ZM8.03486 7.82422C8.03486 7.82422 8.03486 7.82532 8.03377 7.82624L8.03486 7.82422ZM15.963 7.82129L15.9641 7.82331C15.9641 7.82221 15.9641 7.82221 15.963 7.82129Z" fill="#BCBCBC"/>
</svg>
