<svg width="42" height="42" viewBox="0 0 42 42" fill="none" xmlns="http://www.w3.org/2000/svg">
<g filter="url(#filter0_d)">
<path d="M6 19C6 10.7157 12.7157 4 21 4C29.2843 4 36 10.7157 36 19C36 27.2843 29.2843 34 21 34C12.7157 34 6 27.2843 6 19Z" fill="white"/>
<path fill-rule="evenodd" clip-rule="evenodd" d="M13.7879 16.6866L13.772 14.9519L16.085 11.4824H25.9151L28.2281 14.9519V16.6866C28.1321 17.4685 27.6955 18.1459 27.0716 18.5621V25.3603C27.0716 25.999 26.5538 26.5168 25.9151 26.5168H16.085C15.4462 26.5168 14.9285 25.999 14.9285 25.3603V18.5614C14.3066 18.1452 13.8742 17.4681 13.7879 16.6866ZM16.3741 18.1322C15.4879 18.1322 14.7464 17.464 14.65 16.5913L14.6393 16.4952V15.6611H27.3607V16.4952L27.3501 16.5913C27.2536 17.464 26.5121 18.1322 25.626 18.1322C24.9699 18.1322 24.3797 17.7653 24.0835 17.1925L23.8267 16.6956C23.7717 16.5892 23.685 16.5025 23.5786 16.4475C23.2949 16.3009 22.946 16.4119 22.7994 16.6956L22.5425 17.1925C22.2464 17.7653 21.6562 18.1322 21 18.1322C20.3439 18.1322 19.7537 17.7653 19.4576 17.1925L19.2007 16.6956C19.1457 16.5892 19.059 16.5025 18.9526 16.4475C18.6689 16.3009 18.32 16.4119 18.1734 16.6956L17.9166 17.1925C17.6204 17.7653 17.0302 18.1322 16.3741 18.1322ZM27.0803 14.7938H14.9198L16.5492 12.3498H25.4509L27.0803 14.7938ZM16.3741 25.6494C16.0547 25.6494 15.7958 25.3905 15.7958 25.0712V18.9351C15.9818 18.9773 16.1753 18.9996 16.3741 18.9996C17.0448 18.9996 17.6562 18.7459 18.1176 18.3292C18.2918 18.1596 18.4817 17.9134 18.6871 17.5908C18.825 17.8742 19.0148 18.1203 19.2566 18.3292C19.7179 18.7459 20.3294 18.9996 21 18.9996C21.6707 18.9996 22.2821 18.7459 22.7435 18.3292C22.949 18.1264 23.1389 17.8803 23.313 17.5908C23.5225 17.934 23.7124 18.1801 23.8825 18.3292C24.3439 18.7459 24.9553 18.9996 25.626 18.9996C25.8247 18.9996 26.0182 18.9773 26.2042 18.9351V25.0712C26.2042 25.3905 25.9454 25.6494 25.626 25.6494H19.2653V21.0235H22.7348V23.1919C22.7348 23.4314 22.9289 23.6256 23.1685 23.6256C23.408 23.6256 23.6021 23.4314 23.6021 23.1919V20.1561H18.3979V25.6494H16.3741Z" fill="#80BA27"/>
<path fill-rule="evenodd" clip-rule="evenodd" d="M13.6923 14.9285L16.0424 11.4033H25.9576L28.3075 14.9282V16.6967C28.2105 17.4873 27.7747 18.1741 27.151 18.6046V25.3607C27.151 26.0433 26.5977 26.5966 25.9151 26.5966H16.0849C15.4023 26.5966 14.849 26.0433 14.849 25.3607V18.6038C14.2273 18.1732 13.7962 17.4864 13.7088 16.6957L13.708 16.6877L13.6923 14.9285ZM14.9284 18.5618V25.3607C14.9284 25.9994 15.4462 26.5172 16.0849 26.5172H25.9151C26.5538 26.5172 27.0716 25.9994 27.0716 25.3607V18.5625C27.6955 18.1463 28.1321 17.4688 28.2281 16.687V14.9522L25.9151 11.4828H16.0849L13.7719 14.9522L13.7878 16.687C13.8742 17.4684 14.3066 18.1456 14.9284 18.5618ZM18.1175 18.3295C17.6561 18.7462 17.0447 19 16.374 19C16.2034 19 16.0367 18.9835 15.8752 18.9522C15.8486 18.947 15.8221 18.9415 15.7958 18.9355V25.0715C15.7958 25.3909 16.0547 25.6498 16.374 25.6498H18.3979V20.1565H23.6021V23.1922C23.6021 23.4318 23.4079 23.6259 23.1684 23.6259C22.9289 23.6259 22.7347 23.4318 22.7347 23.1922V21.0238H19.2653V25.6498H25.626C25.9453 25.6498 26.2042 25.3909 26.2042 25.0715V18.9355C26.1779 18.9415 26.1514 18.947 26.1248 18.9522C25.9633 18.9835 25.7966 19 25.626 19C24.9553 19 24.3439 18.7462 23.8825 18.3295C23.7251 18.1917 23.5509 17.9708 23.3599 17.6669C23.3444 17.6422 23.3287 17.6169 23.313 17.5911C23.2976 17.6168 23.282 17.6421 23.2664 17.667C23.1051 17.9239 22.9308 18.1447 22.7435 18.3295C22.2821 18.7462 21.6707 19 21 19C20.3293 19 19.7179 18.7462 19.2565 18.3295C19.0384 18.141 18.8625 17.9222 18.7289 17.673C18.7144 17.6461 18.7005 17.6188 18.687 17.5911C18.6702 17.6175 18.6535 17.6434 18.637 17.6687C18.4507 17.9535 18.2776 18.1738 18.1175 18.3295ZM18.6796 17.7484C18.5004 18.0188 18.3316 18.2321 18.1729 18.3865L18.1708 18.3885C17.6954 18.8179 17.0651 19.0794 16.374 19.0794C16.2037 19.0794 16.0369 19.0635 15.8752 19.0331V25.0715C15.8752 25.347 16.0986 25.5703 16.374 25.5703H18.3184V20.077H23.6816V23.1922C23.6816 23.4756 23.4518 23.7054 23.1684 23.7054C22.885 23.7054 22.6553 23.4756 22.6553 23.1922V21.1033H19.3447V25.5703H25.626C25.9014 25.5703 26.1248 25.347 26.1248 25.0715V19.0331C25.9631 19.0635 25.7963 19.0794 25.626 19.0794C24.9351 19.0794 24.3051 18.818 23.8297 18.3889C23.67 18.2489 23.498 18.0318 23.3132 17.7416C23.1548 17.9893 22.9836 18.2043 22.7993 18.3861L22.7968 18.3885C22.3214 18.8179 21.6911 19.0794 21 19.0794C20.3092 19.0794 19.6793 18.8181 19.2039 18.3891C18.9899 18.204 18.815 17.9904 18.6796 17.7484ZM14.7289 16.583C14.8209 17.4154 15.5284 18.0531 16.374 18.0531C17.0001 18.0531 17.5633 17.7031 17.8459 17.1563L18.1028 16.6595C18.2696 16.3368 18.6664 16.2105 18.989 16.3773C19.1101 16.4398 19.2087 16.5385 19.2713 16.6595L19.5281 17.1563C19.8108 17.7031 20.374 18.0531 21 18.0531C21.6261 18.0531 22.1892 17.7031 22.4719 17.1563L22.7287 16.6595C22.8955 16.3368 23.2923 16.2105 23.615 16.3773C23.736 16.4398 23.8347 16.5385 23.8972 16.6595L24.1541 17.1563C24.4367 17.7031 24.9999 18.0531 25.626 18.0531C26.4716 18.0531 27.1791 17.4154 27.2711 16.583L27.2812 16.4911V15.741H14.7188V16.4911L14.7289 16.583ZM14.6393 16.4955L14.6499 16.5917C14.7464 17.4643 15.4879 18.1326 16.374 18.1326C17.0302 18.1326 17.6204 17.7657 17.9165 17.1928L18.1734 16.696C18.32 16.4123 18.6689 16.3012 18.9526 16.4479C19.059 16.5029 19.1457 16.5896 19.2007 16.696L19.4575 17.1928C19.7537 17.7657 20.3439 18.1326 21 18.1326C21.6561 18.1326 22.2463 17.7657 22.5425 17.1928L22.7993 16.696C22.946 16.4123 23.2948 16.3012 23.5785 16.4479C23.6849 16.5029 23.7716 16.5896 23.8267 16.696L24.0835 17.1928C24.3796 17.7657 24.9699 18.1326 25.626 18.1326C26.5121 18.1326 27.2536 17.4643 27.3501 16.5917L27.3607 16.4955V15.6615H14.6393V16.4955ZM27.0802 14.7941L25.4509 12.3501H16.5491L14.9198 14.7941H27.0802ZM26.9318 14.7147H15.0683L16.5916 12.4296H25.4084L26.9318 14.7147Z" fill="#80BA27"/>
<path d="M21 33C13.268 33 7 26.732 7 19H5C5 27.8366 12.1634 35 21 35V33ZM35 19C35 26.732 28.732 33 21 33V35C29.8366 35 37 27.8366 37 19H35ZM21 5C28.732 5 35 11.268 35 19H37C37 10.1634 29.8366 3 21 3V5ZM21 3C12.1634 3 5 10.1634 5 19H7C7 11.268 13.268 5 21 5V3Z" fill="white"/>
</g>
<defs>
<filter id="filter0_d" x="0" y="0" width="42" height="42" filterUnits="userSpaceOnUse" color-interpolation-filters="sRGB">
<feFlood flood-opacity="0" result="BackgroundImageFix"/>
<feColorMatrix in="SourceAlpha" type="matrix" values="0 0 0 0 0 0 0 0 0 0 0 0 0 0 0 0 0 0 127 0"/>
<feOffset dy="2"/>
<feGaussianBlur stdDeviation="2.5"/>
<feColorMatrix type="matrix" values="0 0 0 0 0 0 0 0 0 0 0 0 0 0 0 0 0 0 0.05 0"/>
<feBlend mode="normal" in2="BackgroundImageFix" result="effect1_dropShadow"/>
<feBlend mode="normal" in="SourceGraphic" in2="effect1_dropShadow" result="shape"/>
</filter>
</defs>
</svg>
