<svg width="24" height="24" viewBox="0 0 24 24" fill="none" xmlns="http://www.w3.org/2000/svg">
<path fill-rule="evenodd" clip-rule="evenodd" d="M1.2998 9.11992C1.2998 5.2317 3.91158 2.30005 7.45435 2.30005C8.8154 2.30005 9.74864 2.48272 10.7886 2.99709C11.1506 3.17614 11.4903 3.38829 11.806 3.63294L11.9915 3.77666L12.1756 3.63129C12.5038 3.37224 12.8573 3.15014 13.2343 2.96557C14.2519 2.46751 15.1368 2.3001 16.5524 2.30006C20.0629 2.31495 22.6998 5.2751 22.6998 9.11992C22.6998 12.0377 21.074 14.8975 17.9503 17.7069C16.3103 19.1819 14.2166 20.6404 12.7282 21.4111L11.9998 21.7883L11.2714 21.4111C9.78296 20.6404 7.68927 19.1819 6.04926 17.7069C2.92564 14.8975 1.2998 12.0377 1.2998 9.11992ZM7.45435 3.70005C4.68052 3.70005 2.6998 6.02195 2.6998 9.11992C2.6998 11.6242 4.18639 14.1485 6.98547 16.666C8.51283 18.0397 10.4763 19.4135 11.8605 20.1394L11.9998 20.2125L12.1391 20.1394C13.5233 19.4135 15.4868 18.0397 17.0141 16.666C19.8132 14.1485 21.2998 11.6242 21.2998 9.11992C21.2998 6.06246 19.2906 3.71142 16.5501 3.70006H16.5489C15.3587 3.70005 14.6681 3.82248 13.8498 4.22302C13.3462 4.46956 12.8993 4.80261 12.5106 5.22429L12.0003 5.7781L11.4852 5.22865C11.1047 4.82275 10.6647 4.49767 10.1679 4.25199C9.32848 3.83679 8.59599 3.70005 7.45435 3.70005Z" fill="#BCBCBC"/>
</svg>
