<svg width="18" height="18" viewBox="0 0 18 18" fill="none" xmlns="http://www.w3.org/2000/svg">
<path d="M8.99163 17.3333C4.39034 17.3287 0.663563 13.5957 0.666628 8.9944C0.669697 4.39312 4.40145 0.665095 9.00274 0.666626C13.604 0.668159 17.3333 4.39867 17.3333 8.99996C17.3305 13.6044 13.5961 17.3351 8.99163 17.3333ZM2.33329 9.14329C2.37272 12.811 5.36755 15.7579 9.03541 15.7383C12.7033 15.7185 15.6662 12.7395 15.6662 9.07162C15.6662 5.40371 12.7033 2.42477 9.03541 2.40495C5.36755 2.38534 2.37272 5.33225 2.33329 8.99995V9.14329ZM9.83329 13.1666H8.16663V11.5H9.83329V13.1666ZM9.83329 9.83329H8.16663V4.83329H9.83329V9.83329Z" fill="#BCBCBC"/>
</svg>
