<svg width="24" height="24" viewBox="0 0 24 24" fill="none" xmlns="http://www.w3.org/2000/svg">
<path d="M0 12C0 5.37258 5.37258 0 12 0C18.6274 0 24 5.37258 24 12C24 18.6274 18.6274 24 12 24C5.37258 24 0 18.6274 0 12Z" fill="#80BA27"/>
<path d="M4.74844 15.1031C5.29219 15.1031 5.60625 14.7797 5.60625 14.2078V12.1922H5.64375L7.95469 14.6578C8.27344 15.0094 8.44688 15.1031 8.75625 15.1031C9.225 15.1031 9.55781 14.7609 9.55781 14.2828C9.55781 14.0578 9.49688 13.9266 9.3 13.7109L7.14844 11.4234L9.1875 9.375C9.37969 9.1875 9.45469 9.02344 9.45469 8.79375C9.45469 8.42812 9.11719 8.13281 8.70938 8.13281C8.45156 8.13281 8.30625 8.2125 7.99219 8.54531L5.64375 10.9687H5.60625V9.02812C5.60625 8.45625 5.29219 8.13281 4.74844 8.13281C4.20469 8.13281 3.88594 8.45625 3.88594 9.02812V14.2078C3.88594 14.7797 4.20469 15.1031 4.74844 15.1031ZM10.8797 15.1031C11.4234 15.1031 11.7375 14.7797 11.7375 14.2078V9.61875H13.8844C14.3578 9.61875 14.6484 9.35156 14.6484 8.92969C14.6484 8.49844 14.3578 8.23594 13.8844 8.23594H10.8797C10.3359 8.23594 10.0172 8.56406 10.0172 9.13594V14.2078C10.0172 14.7797 10.3359 15.1031 10.8797 15.1031ZM14.6438 15.0516C15.8859 15.0516 16.4906 14.0859 16.5844 12.2531L16.7203 9.61875H18.4266V14.2078C18.4266 14.7797 18.7406 15.1031 19.2844 15.1031C19.8328 15.1031 20.1469 14.7797 20.1469 14.2078V9.13594C20.1469 8.56406 19.8328 8.23594 19.2844 8.23594H16.0125C15.4688 8.23594 15.1781 8.55937 15.1547 9.13594L15 12.3141C14.9578 13.2937 14.7516 13.6359 14.2453 13.6359H14.2313C13.8703 13.6359 13.6219 13.8797 13.6219 14.2406C13.6219 14.7328 14.025 15.0516 14.6438 15.0516Z" fill="white"/>
</svg>
