<svg width="24" height="24" viewBox="0 0 24 24" fill="none" xmlns="http://www.w3.org/2000/svg">
<path fill-rule="evenodd" clip-rule="evenodd" d="M5.2998 9.00005C5.2998 5.18945 8.26667 2.30005 11.9998 2.30005C15.7329 2.30005 18.6998 5.18945 18.6998 9.00005C18.6998 11.6714 16.8041 14.6193 12.8987 18.0295L11.9998 18.8144L11.1009 18.0295C7.19546 14.6193 5.2998 11.6714 5.2998 9.00005ZM11.9998 3.70005C9.03266 3.70005 6.6998 5.97023 6.6998 9.00005C6.6998 10.1027 7.13739 11.3016 7.98442 12.5892C8.83233 13.8783 10.1029 15.2752 11.8008 16.7806L11.9998 16.957L12.1988 16.7806C13.8967 15.2752 15.1673 13.8783 16.0152 12.5892C16.8622 11.3016 17.2998 10.1027 17.2998 9.00005C17.2998 5.97023 14.9669 3.70005 11.9998 3.70005ZM9.2998 9.00005C9.2998 7.50888 10.5086 6.30005 11.9998 6.30005C13.491 6.30005 14.6998 7.50888 14.6998 9.00005C14.6998 10.4912 13.491 11.7 11.9998 11.7C10.5086 11.7 9.2998 10.4912 9.2998 9.00005ZM11.9998 7.70005C11.2818 7.70005 10.6998 8.28208 10.6998 9.00005C10.6998 9.71802 11.2818 10.3 11.9998 10.3C12.7178 10.3 13.2998 9.71802 13.2998 9.00005C13.2998 8.28208 12.7178 7.70005 11.9998 7.70005ZM2.2998 18C2.2998 17.404 2.59789 16.8529 3.19193 16.3553C3.75288 15.8853 4.56178 15.4785 5.57082 15.1536C5.86266 15.5455 6.17642 15.9415 6.51197 16.3418C5.77901 16.5301 5.16079 16.7467 4.69859 16.9724C4.41994 17.1084 4.18458 17.2542 4.01419 17.4086C3.85217 17.5555 3.6998 17.7552 3.6998 18C3.6998 18.2134 3.81611 18.3917 3.94684 18.5265C4.08155 18.6654 4.2663 18.7949 4.48216 18.9151C4.91563 19.1565 5.52627 19.3889 6.26223 19.5919C7.7376 19.9987 9.76458 20.3 11.9998 20.3C14.235 20.3 16.262 19.9987 17.7374 19.5919C18.4733 19.3889 19.084 19.1565 19.5174 18.9151C19.7333 18.7949 19.9181 18.6654 20.0528 18.5265C20.1835 18.3917 20.2998 18.2134 20.2998 18C20.2998 17.7552 20.1474 17.5555 19.9854 17.4086C19.815 17.2542 19.5797 17.1084 19.301 16.9724C18.8388 16.7467 18.2206 16.5301 17.4876 16.3418C17.8232 15.9415 18.137 15.5455 18.4288 15.1536C19.4378 15.4785 20.2467 15.8853 20.8077 16.3553C21.4017 16.8529 21.6998 17.404 21.6998 18C21.6998 19.048 20.7575 19.979 18.9635 20.6596C17.1988 21.3291 14.738 21.7001 11.9998 21.7001C9.26158 21.7001 6.80079 21.3291 5.03612 20.6596C3.24213 19.979 2.2998 19.048 2.2998 18Z" fill="#BCBCBC"/>
</svg>
