<svg width="18" height="18" viewBox="0 0 18 18" fill="none" xmlns="http://www.w3.org/2000/svg">
<path d="M9.00041 17.3337C7.74046 17.3372 6.49643 17.0522 5.36374 16.5003C4.9492 16.2987 4.55201 16.0632 4.17624 15.7962L4.06208 15.7128C3.02859 14.95 2.18364 13.9605 1.59208 12.8203C0.980189 11.6402 0.662832 10.3296 0.667033 9.00033C0.667033 4.39795 4.39804 0.666992 9.00041 0.666992C13.6028 0.666992 17.3338 4.39795 17.3338 9.00033C17.3379 10.329 17.0209 11.639 16.4096 12.8187C15.8188 13.9582 14.9751 14.9473 13.9429 15.7103C13.5535 15.9953 13.1403 16.2463 12.7079 16.4603L12.6412 16.4937C11.5078 17.0484 10.2623 17.3358 9.00041 17.3337ZM9.00041 13.167C7.75164 13.1645 6.60679 13.862 6.03624 14.9728C7.90407 15.898 10.0967 15.898 11.9646 14.9728V14.9687C11.3933 13.8591 10.2484 13.1632 9.00041 13.167ZM9.00041 11.5003C10.8055 11.5027 12.4699 12.4754 13.3579 14.047L13.3704 14.0362L13.3821 14.0262L13.3679 14.0387L13.3596 14.0453C15.4671 12.2246 16.2207 9.28561 15.2493 6.67542C14.2779 4.06522 11.7863 2.33392 9.00124 2.33392C6.21616 2.33392 3.72457 4.06522 2.7532 6.67542C1.78183 9.28561 2.53541 12.2246 4.64291 14.0453C5.53146 12.4745 7.19571 11.5025 9.00041 11.5003ZM9.00041 10.667C7.15946 10.667 5.66708 9.17461 5.66708 7.33366C5.66708 5.49271 7.15946 4.00033 9.00041 4.00033C10.8414 4.00033 12.3337 5.49271 12.3337 7.33366C12.3337 8.21771 11.9826 9.06556 11.3574 9.69068C10.7323 10.3158 9.88446 10.667 9.00041 10.667ZM9.00041 5.66699C8.07993 5.66699 7.33374 6.41318 7.33374 7.33366C7.33374 8.25413 8.07993 9.00033 9.00041 9.00033C9.92088 9.00033 10.6671 8.25413 10.6671 7.33366C10.6671 6.41318 9.92088 5.66699 9.00041 5.66699Z" fill="#818181"/>
</svg>
