<svg width="10" height="2" viewBox="0 0 10 2" fill="#80BA27" xmlns="http://www.w3.org/2000/svg">
<rect width="10" height="2"/>
<rect x="-82.5" y="-653.5" width="1448" height="742" />
<rect x="-50.5" y="-54.5" width="723" height="111" />
<path d="M-11 1C-11 -7.83656 -3.83656 -15 5 -15V-15C13.8366 -15 21 -7.83656 21 1V1C21 9.83656 13.8366 17 5 17V17C-3.83656 17 -11 9.83656 -11 1V1Z" />
<path d="M0.333374 1.66658V0.333252H9.66671V1.66658H0.333374Z"/>
<path d="M5 -22H161V-24H5V-22ZM161 24H5V26H161V24ZM5 24C-7.70255 24 -18 13.7025 -18 1H-20C-20 14.8071 -8.80712 26 5 26V24ZM184 1C184 13.7025 173.703 24 161 24V26C174.807 26 186 14.8071 186 1H184ZM161 -22C173.703 -22 184 -11.7025 184 1H186C186 -12.8071 174.807 -24 161 -24V-22ZM5 -24C-8.80712 -24 -20 -12.8071 -20 1H-18C-18 -11.7025 -7.70255 -22 5 -22V-24Z"/>
<rect x="-50.5" y="-54.5" width="723" height="111" stroke="#EBEBEB"/>
<rect x="-82.5" y="-653.5" width="1448" height="742" stroke="#EBEBEB"/>
</svg>
