<svg width="24" height="24" viewBox="0 0 24 24" fill="none" xmlns="http://www.w3.org/2000/svg">
<path fill-rule="evenodd" clip-rule="evenodd" d="M21.0796 11.7288C20.9954 11.9012 20.9954 12.0989 21.0796 12.2713L21.8607 13.8693C22.2956 14.759 21.9511 15.8195 21.0763 16.2836L19.5051 17.1173C19.3357 17.2072 19.2194 17.3672 19.1863 17.5562L18.879 19.308C18.7079 20.2834 17.806 20.9389 16.8252 20.8001L15.0641 20.551C14.8741 20.5244 14.6861 20.5853 14.5482 20.7187L13.2699 21.9553C12.9141 22.2996 12.4572 22.4717 12.0006 22.4718C11.5438 22.4718 11.0873 22.2997 10.7313 21.9553L9.453 20.7187C9.31507 20.5853 9.12699 20.5241 8.93707 20.551L7.176 20.8001C7.0881 20.8126 7.00064 20.8186 6.91446 20.8186C6.03938 20.8187 5.27798 20.196 5.12222 19.308L4.81494 17.5561C4.78177 17.3672 4.66556 17.2072 4.49605 17.1173L2.9249 16.2836C2.05011 15.8195 1.70553 14.759 2.14043 13.8693L2.92155 12.2714C3.00581 12.099 3.00581 11.9013 2.92155 11.7289L2.14047 10.131C1.70557 9.24126 2.05015 8.18073 2.92494 7.71662L4.49609 6.88299C4.66556 6.79304 4.78177 6.63306 4.81494 6.44408L5.12222 4.69225C5.29332 3.71684 6.19527 3.0613 7.17596 3.20009L8.93703 3.4492C9.12708 3.47595 9.31503 3.41496 9.45296 3.28153L10.7313 2.04478C11.4431 1.35615 12.5581 1.35619 13.2699 2.04478L14.5482 3.28141C14.6861 3.4148 14.8741 3.47591 15.0641 3.44908L16.8252 3.19997C17.8056 3.06126 18.7079 3.71672 18.879 4.69213L19.1862 6.44404C19.2194 6.63298 19.3356 6.79299 19.5051 6.8829L21.0763 7.71654C21.9511 8.18069 22.2956 9.24114 21.8607 10.1309L21.0796 11.7288ZM18.939 16.0502L20.5101 15.2165C20.8061 15.0595 20.9227 14.7007 20.7755 14.3996L19.9944 12.8017C19.7454 12.2922 19.7454 11.7078 19.9944 11.1983L20.7755 9.60041C20.9226 9.29939 20.8061 8.94061 20.5101 8.78358L18.9389 7.94994C18.438 7.68419 18.0944 7.21137 17.9964 6.65277L17.6892 4.90087C17.6313 4.57085 17.3259 4.3491 16.9943 4.39602L15.2332 4.64513C14.6717 4.72461 14.1159 4.54397 13.7083 4.14965L12.43 2.91302C12.1891 2.68011 11.8119 2.68011 11.5711 2.91302L10.2927 4.14965C9.88512 4.54393 9.32919 4.72461 8.76777 4.64513L7.0067 4.39602C6.67484 4.34914 6.36977 4.57085 6.31185 4.90087L6.00457 6.65273C5.90661 7.21133 5.56305 7.6841 5.06213 7.94994L3.49098 8.78358C3.19499 8.94061 3.07842 9.29939 3.22555 9.60041L4.00667 11.1983C4.25569 11.7079 4.25569 12.2922 4.00667 12.8017L3.22555 14.3997C3.07842 14.7007 3.19499 15.0595 3.49098 15.2165L5.06213 16.0501C5.56309 16.3159 5.90661 16.7887 6.00462 17.3473L6.31193 19.0992C6.36985 19.4292 6.67521 19.6509 7.00678 19.6041L8.76785 19.3549C8.85481 19.3426 8.94165 19.3366 9.0278 19.3366C9.49796 19.3366 9.94832 19.5172 10.2928 19.8504L11.5711 21.0871C11.812 21.32 12.1892 21.32 12.43 21.0871L13.7084 19.8505C14.116 19.4562 14.6717 19.2754 15.2333 19.355L16.9944 19.6041C17.3263 19.6509 17.6314 19.4293 17.6892 19.0993L17.9965 17.3474C18.0945 16.7888 18.438 16.316 18.939 16.0502ZM15.5622 7.59041C15.7981 7.35455 16.1805 7.35455 16.4163 7.59041C16.6522 7.82631 16.6522 8.20868 16.4163 8.44458L8.44443 16.4165C8.32654 16.5344 8.17192 16.5934 8.01738 16.5934C7.86284 16.5934 7.70827 16.5344 7.59034 16.4165C7.35448 16.1806 7.35448 15.7982 7.59034 15.5623L15.5622 7.59041ZM9.58708 6.56671C8.36599 6.56671 7.37254 7.56016 7.37254 8.78125C7.37254 10.0023 8.36599 10.9958 9.58708 10.9958C10.8082 10.9958 11.8016 10.0023 11.8016 8.78125C11.8016 7.56016 10.8082 6.56671 9.58708 6.56671ZM9.58708 9.78783C9.03204 9.78783 8.5805 9.33628 8.5805 8.78121C8.5805 8.22617 9.03204 7.77462 9.58708 7.77462C10.1421 7.77462 10.5937 8.22617 10.5937 8.78121C10.5937 9.33628 10.1421 9.78783 9.58708 9.78783ZM12.2044 15.2206C12.2044 13.9995 13.1979 13.0061 14.419 13.0061C15.6401 13.0061 16.6335 13.9995 16.6335 15.2206C16.6335 16.4417 15.6401 17.4352 14.419 17.4352C13.1979 17.4352 12.2044 16.4417 12.2044 15.2206ZM13.4124 15.2206C13.4124 15.7757 13.8639 16.2272 14.419 16.2272C14.974 16.2272 15.4256 15.7757 15.4256 15.2206C15.4256 14.6656 14.974 14.214 14.419 14.214C13.8639 14.214 13.4124 14.6656 13.4124 15.2206Z" fill="#BCBCBC"/>
</svg>
