<svg width="24" height="24" viewBox="0 0 24 24" fill="none" xmlns="http://www.w3.org/2000/svg">
<path fill-rule="evenodd" clip-rule="evenodd" d="M11.1907 6.15829C11.1907 6.36963 11.2862 6.55869 11.4365 6.68478C11.5647 6.83281 11.7542 6.92645 11.9656 6.92645C14.7534 6.92645 17.0133 9.1833 17.0133 11.9673C17.0133 14.7512 14.7534 17.0081 11.9656 17.0081C9.17788 17.0081 6.91796 14.7512 6.91796 11.9673C6.91796 10.4755 7.56686 9.13506 8.59816 8.21211C8.62281 8.19005 8.6503 8.16642 8.68064 8.14123L8.68066 8.14125C8.68809 8.13507 8.69538 8.12873 8.70253 8.12223C8.96102 7.88678 8.97944 7.48664 8.74367 7.2285C8.46819 6.92688 8.00108 6.9025 7.69562 7.1738L7.69563 7.17382L7.69382 7.17543C6.3731 8.35047 5.54133 10.0619 5.54133 11.9673C5.54133 15.5105 8.41758 18.3829 11.9656 18.3829C15.5137 18.3829 18.3899 15.5105 18.3899 11.9673C18.3899 8.62667 15.8332 5.88241 12.5673 5.57945V1.68738C12.5673 1.30775 12.2592 1 11.879 1C11.4989 1 11.1907 1.30775 11.1907 1.68738V6.15829ZM17.3898 6.54927C17.6586 6.81771 18.0944 6.81771 18.3632 6.54927L19.7695 5.14491C20.0383 4.87647 20.0383 4.44124 19.7695 4.1728C19.5007 3.90436 19.0649 3.90436 18.7961 4.1728L17.3898 5.57717C17.121 5.84561 17.121 6.28083 17.3898 6.54927ZM19.6348 11.966C19.6348 12.3456 19.9429 12.6534 20.3231 12.6534H22.3118C22.692 12.6534 23.0002 12.3456 23.0002 11.966C23.0002 11.5864 22.692 11.2786 22.3118 11.2786H20.3231C19.9429 11.2786 19.6348 11.5864 19.6348 11.966ZM11.9618 19.6393C11.5816 19.6393 11.2734 19.9471 11.2734 20.3267V22.3128C11.2734 22.6924 11.5816 23.0002 11.9618 23.0002C12.3419 23.0002 12.6501 22.6924 12.6501 22.3128V20.3267C12.6501 19.9471 12.3419 19.6393 11.9618 19.6393ZM1.68832 12.6536C1.30817 12.6536 1 12.3458 1 11.9662C1 11.5865 1.30817 11.2788 1.68832 11.2788H3.67709C4.05724 11.2788 4.36541 11.5865 4.36541 11.9662C4.36541 12.3458 4.05724 12.6536 3.67709 12.6536H1.68832ZM5.18289 19.71C4.91408 19.9785 4.47827 19.9785 4.20946 19.71C3.94066 19.4416 3.94066 19.0064 4.20946 18.7379L5.61574 17.3335C5.88454 17.0651 6.32036 17.0651 6.58916 17.3335C6.85797 17.602 6.85797 18.0372 6.58916 18.3057L5.18289 19.71ZM6.54029 6.54927C6.80909 6.28083 6.80909 5.84561 6.54029 5.57717L5.13401 4.1728C4.86521 3.90436 4.42939 3.90436 4.16058 4.1728C3.89178 4.44124 3.89178 4.87647 4.16058 5.14491L5.56686 6.54927C5.83566 6.81771 6.27148 6.81771 6.54029 6.54927ZM19.7136 18.7379C19.9824 19.0064 19.9824 19.4416 19.7136 19.71C19.4448 19.9785 19.009 19.9785 18.7402 19.71L17.3339 18.3057C17.0651 18.0372 17.0651 17.602 17.3339 17.3335C17.6027 17.0651 18.0385 17.0651 18.3074 17.3335L19.7136 18.7379Z" fill="#BCBCBC"/>
</svg>
