<svg width="24" height="24" viewBox="0 0 24 24" fill="none" xmlns="http://www.w3.org/2000/svg">
<path fill-rule="evenodd" clip-rule="evenodd" d="M1.80762 3.61638C1.80762 2.61703 2.61776 1.80688 3.61712 1.80688H20.3834C21.3828 1.80688 22.1929 2.61703 22.1929 3.61638V17.5545L17.5552 22.1922H3.61712C2.61776 22.1922 1.80762 21.3821 1.80762 20.3827V3.61638ZM3.33082 3.33009V20.669H15.4303V17.239C15.4303 16.2397 16.2404 15.4295 17.2398 15.4295H20.6697V3.33009H3.33082ZM7.0471 8.56957V7.04636H16.9535V8.56957H7.0471ZM7.0471 12.7612V11.2379H16.9535V12.7612H7.0471ZM7.0471 16.9527V15.4295H12.7619V16.9527H7.0471ZM16.9535 16.9527V20.6398L20.6406 16.9527H16.9535Z" fill="#BCBCBC"/>
</svg>
