<svg width="25" height="24" viewBox="0 0 25 24" fill="none" xmlns="http://www.w3.org/2000/svg">
<path fill-rule="evenodd" clip-rule="evenodd" d="M19.0138 5.7391C18.7197 5.7391 18.5381 5.48591 18.5027 5.1939C18.433 4.61829 17.9778 4.17388 17.4266 4.17388H8.73168C8.67318 4.17388 8.61478 4.179 8.55705 4.18918C8.06382 4.27615 7.70279 4.70995 7.65226 5.22263C7.62519 5.4972 7.44854 5.7391 7.17264 5.7391H7.08242C6.80384 5.7391 6.56178 5.52743 6.56383 5.24887C6.56402 5.22378 6.56472 5.20049 6.56607 5.1799C6.63555 4.11892 7.36962 3.20915 8.38241 3.03056C8.49788 3.0102 8.61469 2.99997 8.73168 2.99997H17.4266C18.6254 2.99997 19.5973 4.05113 19.5973 5.3478C19.5973 5.57151 19.3981 5.7391 19.1743 5.7391H19.0138ZM21.002 9.32874C20.9674 9.51615 20.804 9.65218 20.6135 9.65218H20.398C20.1054 9.65218 19.8846 9.38685 19.9376 9.09915C19.9516 9.02356 19.9586 8.94666 19.9586 8.86957C19.9586 8.22124 19.4726 7.69566 18.8732 7.69566H7.28359C7.21232 7.69566 7.14123 7.70325 7.07133 7.71833C6.48349 7.84512 6.10199 8.46334 6.21921 9.09915C6.27226 9.38685 6.05138 9.65218 5.75883 9.65218H5.54337C5.3528 9.65218 5.18939 9.51615 5.15483 9.32874C4.92038 8.05711 5.68339 6.82067 6.85907 6.56708C6.99886 6.53693 7.14105 6.52175 7.28359 6.52175H18.8732C20.0721 6.52175 21.0439 7.5729 21.0439 8.86957C21.0439 9.02375 21.0299 9.17754 21.002 9.32874ZM11.0671 14.0392C11.0671 14.3634 11.3101 14.6262 11.6098 14.6262H14.504C14.8037 14.6262 15.0467 14.3634 15.0467 14.0392C15.0467 13.7151 14.8037 13.4523 14.504 13.4523H11.6098C11.3101 13.4523 11.0671 13.7151 11.0671 14.0392ZM6.04608 12C5.93788 12 5.8303 12.0175 5.72689 12.0519C5.15398 12.2425 4.83245 12.8994 5.00873 13.5191L6.56717 18.9974C6.70729 19.4899 7.12804 19.8261 7.60451 19.8261H18.1457C18.6222 19.8261 19.0429 19.4899 19.1831 18.9974L20.7415 13.5191C20.7733 13.4073 20.7895 13.2909 20.7895 13.1739C20.7895 12.5255 20.3036 12 19.7041 12H6.04608ZM19.7043 10.826H6.04625C5.82987 10.826 5.6147 10.861 5.40789 10.9298C4.26207 11.3112 3.61901 12.625 3.97157 13.8643L5.53 19.3426C5.81025 20.3277 6.65175 20.9999 7.60469 20.9999H18.1459C19.0988 20.9999 19.9403 20.3277 20.2206 19.3426L21.779 13.8643C21.8426 13.6406 21.875 13.4079 21.875 13.1738C21.875 11.8772 20.9032 10.826 19.7043 10.826Z" fill="#818181"/>
</svg>
