<svg width="18" height="18" viewBox="0 0 18 18" fill="none" xmlns="http://www.w3.org/2000/svg">
<path d="M12.1963 10.804L12.1684 10.7508C11.5115 11.0957 10.8726 11.2423 10.2455 11.202C9.61829 11.1616 8.9987 10.9338 8.38109 10.5236C7.70327 10.0729 6.9249 10.0273 6.14178 10.1125L6.14155 10.1125C5.95358 10.1337 5.80637 10.1814 5.70933 10.2865C5.61161 10.3922 5.57605 10.5436 5.58069 10.7441C5.60406 11.8033 5.60047 12.8645 5.58248 13.9241L5.58248 13.9244C5.57972 14.136 5.61571 14.3004 5.72204 14.41C5.82866 14.5198 5.99216 14.5603 6.20792 14.5594L6.20813 14.5594C8.09956 14.545 9.99108 14.5486 11.8828 14.5576C12.077 14.5585 12.2343 14.5234 12.3421 14.4254C12.4513 14.3262 12.4966 14.1748 12.4957 13.9753L12.4957 13.9751C12.4903 13.1821 12.4909 12.3901 12.4916 11.5913C12.4918 11.3243 12.4921 11.0566 12.4921 10.7878V10.7246L12.429 10.7278C12.3948 10.7296 12.3658 10.7288 12.3371 10.728C12.3229 10.7276 12.3089 10.7272 12.2943 10.7271C12.2547 10.7269 12.2082 10.7288 12.1673 10.7514L12.1963 10.804ZM12.1963 10.804C12.2305 10.7851 12.2756 10.7863 12.3325 10.7879C12.3451 10.7882 12.3583 10.7886 12.3721 10.7888L6.14827 10.1722C6.92587 10.0876 7.68727 10.1344 8.34787 10.5736C9.59707 11.4034 10.8661 11.5024 12.1963 10.804ZM6.09799 8.31156L6.0981 8.31133C6.18958 8.12657 6.29907 7.94365 6.40695 7.76342C6.46247 7.67068 6.51756 7.57864 6.56954 7.48744C6.72443 7.21572 6.85527 6.94611 6.90828 6.6638C7.01522 6.08763 7.25646 5.78909 7.59228 5.64974C7.91957 5.51394 8.32644 5.53505 8.74819 5.56552L8.74823 5.56552C8.96589 5.58138 9.19668 5.56191 9.43072 5.54217C9.52288 5.53439 9.61555 5.52657 9.70812 5.52086C10.0292 5.50102 10.3484 5.50687 10.6036 5.6485L10.5745 5.70096M6.09799 8.31156L11.232 6.75978C11.2193 6.72366 11.2066 6.68717 11.1939 6.65057C11.1551 6.53893 11.1159 6.42614 11.0741 6.31895C10.964 6.03741 10.8277 5.77245 10.6035 5.64845L10.5745 5.70096M6.09799 8.31156C6.01084 8.48948 5.93221 8.67392 5.84103 8.88777C5.79585 8.99373 5.7476 9.10692 5.6937 9.23011L5.64809 9.33437L5.75989 9.3131C7.00469 9.07625 8.04168 9.26524 8.96869 9.86434C9.45577 10.1793 9.9342 10.3278 10.4189 10.3341C10.903 10.3403 11.3889 10.2045 11.8915 9.95781L11.8916 9.95778C12.1308 9.83998 12.2873 9.71282 12.3492 9.54743C12.4116 9.38081 12.3712 9.19377 12.2646 8.97416L12.2645 8.97392C11.9713 8.37664 11.6834 7.77569 11.3972 7.1763M6.09799 8.31156L12.2107 9.00036M10.5745 5.70096C10.8543 5.85573 10.9953 6.26168 11.1369 6.6694C11.2012 6.85438 11.2655 7.03973 11.3431 7.20215M10.5745 5.70096C10.2695 5.53168 9.85862 5.56634 9.44055 5.60161C9.20469 5.6215 8.96656 5.64159 8.74387 5.62536C7.89427 5.56398 7.17607 5.54975 6.96727 6.67475C6.89355 7.06752 6.67541 7.43188 6.45665 7.79727L11.3431 7.20215M11.3431 7.20215C11.6293 7.80155 11.9173 8.40276 12.2107 9.00036M11.3431 7.20215L11.3972 7.1763M11.3431 7.20215L11.3972 7.1763C11.3972 7.1763 11.3972 7.1763 11.3972 7.1763M11.3431 7.20215L11.3972 7.1763M12.2107 9.00036C12.4195 9.43056 12.3367 9.67175 11.8651 9.90395L12.2107 9.00036ZM6.79204 4.72595C7.30792 4.71588 7.82339 4.71814 8.33969 4.72041C8.56123 4.72138 8.78292 4.72235 9.00487 4.72235C9.22923 4.72235 9.4534 4.72157 9.67745 4.7208C10.2147 4.71893 10.7512 4.71706 11.2881 4.72595L11.2882 4.72595C11.4742 4.72866 11.6172 4.69033 11.7115 4.59084C11.805 4.49224 11.8378 4.34684 11.8369 4.16705L11.8369 4.16673C11.835 3.98764 11.8 3.84314 11.7059 3.74472C11.6111 3.64548 11.4687 3.60593 11.2834 3.60677L11.2833 3.60677C9.78415 3.61595 8.28499 3.61595 6.78584 3.60677L6.78574 3.60677C6.59588 3.60593 6.45439 3.64956 6.362 3.75209C6.27108 3.85299 6.23951 3.99828 6.23766 4.17212L6.23765 4.17245C6.23673 4.3526 6.27108 4.4974 6.36636 4.59488C6.46214 4.69287 6.60626 4.72967 6.79204 4.72595ZM6.79204 4.72595L6.79087 4.66596M6.79204 4.72595C6.79205 4.72595 6.79206 4.72594 6.79208 4.72594L6.79087 4.66596M6.79087 4.66596C6.43267 4.67316 6.29587 4.52178 6.29765 4.17276C6.30127 3.83436 6.42187 3.66515 6.78547 3.66677C8.28487 3.67595 9.78427 3.67595 11.2837 3.66677C11.6401 3.66515 11.7733 3.81995 11.7769 4.16735C11.7787 4.51655 11.6473 4.67118 11.2891 4.66596C10.7516 4.65706 10.2141 4.65893 9.67659 4.6608C9.45268 4.66158 9.22878 4.66235 9.00487 4.66235C8.7835 4.66235 8.56213 4.66138 8.34076 4.66041C7.82413 4.65814 7.3075 4.65588 6.79087 4.66596ZM13.3405 10.2319V10.2318C13.3369 9.47077 13.1627 8.74583 12.8091 8.06675C12.6914 7.84134 12.5785 7.61538 12.466 7.39009C12.2909 7.03945 12.1167 6.69041 11.926 6.34751L11.926 6.3475C11.8147 6.14719 11.7369 5.96498 11.7613 5.79208C11.7866 5.61374 11.9165 5.46506 12.1663 5.32135L12.1963 5.37336M13.3405 10.2319L11.3292 2.76027C11.6476 2.75768 11.916 2.82221 12.1311 2.95706C12.3457 3.09156 12.5122 3.29899 12.6225 3.59097L12.6226 3.59109C12.7441 3.91049 12.7602 4.26957 12.6797 4.58638C12.5991 4.90337 12.4234 5.173 12.1663 5.32139L12.1963 5.37336M13.3405 10.2319C13.3477 11.4792 13.3513 12.7245 13.3405 13.9696L13.3405 10.2319ZM12.1963 5.37336C12.7453 5.05656 12.9307 4.23215 12.6787 3.56975M12.1963 5.37336C11.7085 5.65398 11.7553 5.91678 11.9785 6.31836C12.1695 6.66196 12.3451 7.0136 12.5208 7.36547C12.6332 7.59056 12.7457 7.81574 12.8623 8.03898L12.6787 3.56975M12.6787 3.56975C12.4501 2.96495 11.9821 2.69495 11.3287 2.70027L12.6787 3.56975ZM11.9119 15.457C11.233 15.462 10.555 15.4609 9.87664 15.4597C9.58555 15.4592 9.29439 15.4587 9.00307 15.4587C8.70039 15.4587 8.3977 15.4596 8.09496 15.4605C7.42913 15.4624 6.76302 15.4644 6.09607 15.457M11.9119 15.457L4.68251 11.7604C4.68109 12.522 4.67966 13.2833 4.68487 14.044M11.9119 15.457C12.9091 15.4516 13.3915 14.9746 13.4005 13.9702L11.9119 15.457ZM6.09607 15.457L6.09677 15.397C6.09676 15.397 6.09675 15.397 6.09674 15.397C5.64273 15.3917 5.30918 15.2733 5.08795 15.0523C4.86677 14.8313 4.74839 14.4983 4.74487 14.0435L4.68487 14.044M6.09607 15.457C5.16907 15.4462 4.69207 14.9728 4.68487 14.044M6.09607 15.457L4.68487 14.044M4.68487 14.044L4.74487 14.0435C4.73966 13.2829 4.74109 12.5223 4.74251 11.7611C4.74355 11.2072 4.74459 10.653 4.74307 10.0982L4.74307 10.0981M4.68487 14.044L4.74307 10.0981M5.46784 3.57226C5.55041 3.29103 5.70568 3.08965 5.91292 2.95797C6.1211 2.8257 6.38577 2.76124 6.68984 2.76215L6.08486 6.47314C6.1977 6.24923 6.29408 6.04086 6.2799 5.84027C6.26513 5.6315 6.13371 5.44783 5.83978 5.26482L5.80807 5.31575L5.83988 5.26488C5.5375 5.07578 5.40014 4.81053 5.35946 4.51447C5.3184 4.21558 5.37609 3.88493 5.46784 3.57226ZM5.46784 3.57226L5.41027 3.55536L5.46784 3.57226ZM4.74307 10.0981C4.74042 9.41665 4.92748 8.80393 5.18991 8.2143M4.74307 10.0981L5.18991 8.2143M5.18991 8.2143C5.3537 7.8463 5.5446 7.4916 5.73671 7.13462M5.18991 8.2143L5.73671 7.13462M5.73671 7.13462C5.85428 6.91618 5.9723 6.69688 6.08485 6.47316L5.73671 7.13462ZM6.20767 14.4994C5.78647 14.5012 5.63707 14.3392 5.64247 13.9252C5.66047 12.865 5.66407 11.803 5.64067 10.7428L6.20767 14.4994Z" fill="#818181" stroke="#818181" stroke-width="0.12"/>
<path d="M4.09965 14.3628L14.3628 4.09965M16.5 9C16.5 13.1421 13.1421 16.5 9 16.5C4.85786 16.5 1.5 13.1421 1.5 9C1.5 4.85786 4.85786 1.5 9 1.5C13.1421 1.5 16.5 4.85786 16.5 9Z" stroke="#818181"/>
</svg>
