<svg width="18" height="18" viewBox="0 0 18 18" fill="none" xmlns="http://www.w3.org/2000/svg">
<g clip-path="url(#clip0)">
<path d="M15.364 2.63603C13.6641 0.936172 11.4039 0 9 0C6.59605 0 4.33589 0.936172 2.63603 2.63603C0.936172 4.33589 0 6.59605 0 9C0 11.4039 0.936172 13.6641 2.63603 15.364C4.33589 17.0638 6.59605 18 9 18C11.4039 18 13.6641 17.0638 15.364 15.364C17.0638 13.6641 18 11.4039 18 9C18 6.59605 17.0638 4.33589 15.364 2.63603ZM14.6181 14.6181C13.1175 16.1189 11.1223 16.9453 9 16.9453C6.87772 16.9453 4.88246 16.1189 3.38187 14.6181C1.88113 13.1175 1.05469 11.1223 1.05469 9C1.05469 6.87772 1.88113 4.88246 3.38187 3.38187C4.88246 1.88113 6.87772 1.05469 9 1.05469C11.1223 1.05469 13.1175 1.88113 14.6181 3.38187C16.1189 4.88246 16.9453 6.87772 16.9453 9C16.9453 11.1223 16.1189 13.1175 14.6181 14.6181Z" fill="#E88A01"/>
<path d="M9.70312 3.55078H6.53906C6.24779 3.55078 6.01172 3.78685 6.01172 4.07812V14.2734C6.01172 14.5647 6.24779 14.8008 6.53906 14.8008C6.83034 14.8008 7.06641 14.5647 7.06641 14.2734V10.9336H9.70312C11.7386 10.9336 13.3945 9.27768 13.3945 7.24219C13.3945 5.2067 11.7386 3.55078 9.70312 3.55078ZM9.70312 9.87891H7.06641V4.60547H9.70312C11.157 4.60547 12.3398 5.78828 12.3398 7.24219C12.3398 8.69609 11.157 9.87891 9.70312 9.87891Z" fill="#E88A01"/>
</g>
<defs>
<clipPath id="clip0">
<rect width="18" height="18" fill="white"/>
</clipPath>
</defs>
</svg>
