<svg width="16" height="20" viewBox="0 0 16 20" fill="none" xmlns="http://www.w3.org/2000/svg">
<path d="M3.83332 3.33333C3.83332 1.95262 4.95261 0.833333 6.33332 0.833333H9.66666C11.0474 0.833333 12.1667 1.95262 12.1667 3.33333V8.33333H12.467C13.6587 8.33333 14.6847 9.17448 14.9184 10.343L15.0851 11.1764C15.3945 12.7234 14.2113 14.1667 12.6336 14.1667H8.83332V18.3333C8.83332 18.7936 8.46023 19.1667 7.99999 19.1667C7.53975 19.1667 7.16666 18.7936 7.16666 18.3333V14.1667H3.36633C1.78871 14.1667 0.60548 12.7234 0.914876 11.1764L1.08154 10.343C1.31525 9.17448 2.34129 8.33333 3.533 8.33333H3.83332V3.33333ZM12.6336 12.5C13.1595 12.5 13.5539 12.0189 13.4508 11.5032L13.2841 10.6699C13.2062 10.2804 12.8642 10 12.467 10H11.3333C10.8731 10 10.5 9.6269 10.5 9.16667V3.33333C10.5 2.8731 10.1269 2.5 9.66666 2.5H6.33332C5.87308 2.5 5.49999 2.8731 5.49999 3.33333V9.16667C5.49999 9.6269 5.12689 10 4.66666 10H3.533C3.13576 10 2.79375 10.2804 2.71584 10.6699L2.54918 11.5032C2.44605 12.0189 2.84046 12.5 3.36633 12.5H12.6336Z" fill="#80BA27"/>
</svg>
