<svg width="24" height="24" viewBox="0 0 24 24" fill="none" xmlns="http://www.w3.org/2000/svg">
<path fill-rule="evenodd" clip-rule="evenodd" d="M3.7574 19.9834L3.7398 20.3H4.05693H19.9427H20.2599L20.2423 19.9834L19.3534 3.98341L19.3376 3.70005H19.0538H4.94582H4.66203L4.64628 3.98341L3.7574 19.9834ZM3.33765 2.30005H20.662L21.6401 19.9058C21.6922 20.8427 20.9752 21.6445 20.0385 21.6974C20.0107 21.6986 20.0002 21.6991 19.9899 21.6994C19.9796 21.6997 19.9691 21.6998 19.9412 21.7001H4.05693C3.11849 21.7001 2.35765 20.9397 2.35693 20.0014C2.35719 19.9737 2.3573 19.9632 2.35759 19.9529C2.35787 19.9426 2.35835 19.9321 2.35963 19.9044L2.35969 19.903L3.33765 2.30005ZM7.29984 6.30005H8.69984V8.50005C8.69984 9.23484 9.10413 9.93701 9.69924 10.4461C10.2977 10.9581 11.1158 11.3 11.9998 11.3C12.8839 11.3 13.702 10.9581 14.3004 10.4461C14.8955 9.93701 15.2998 9.23484 15.2998 8.50005V6.30005H16.6998V8.50005C16.6998 10.7064 14.5411 12.7 11.9998 12.7C9.45862 12.7 7.29984 10.7064 7.29984 8.50005V6.30005Z" fill="#BCBCBC"/>
</svg>
