<svg width="24" height="24" viewBox="0 0 24 24" fill="none" xmlns="http://www.w3.org/2000/svg">
<path fill-rule="evenodd" clip-rule="evenodd" d="M1.82031 3.9998C1.82031 3.06092 2.58143 2.2998 3.52031 2.2998H10.2203V3.6998H3.52031H3.22031V3.9998V19.9998V20.2998H3.52031H19.5203H19.8203V19.9998V13.2998H21.2203V19.9998C21.2203 20.9387 20.4592 21.6998 19.5203 21.6998H3.52031C2.58143 21.6998 1.82031 20.9387 1.82031 19.9998V3.9998ZM15.4285 2.93592C15.8332 2.52878 16.3835 2.2998 16.9577 2.2998C17.5327 2.2998 18.0836 2.52947 18.4855 2.93452L18.4863 2.93536L20.5872 5.03626C20.9926 5.44168 21.2204 5.99154 21.2204 6.56488C21.2204 7.13823 20.9926 7.68809 20.5872 8.09351L12.2657 16.4114L12.2582 16.419L12.2511 16.4271C11.6086 17.1682 10.6974 17.6274 9.64447 17.7021H5.82031L5.82031 17.0024L5.82031 17.0021L5.82355 13.7996C5.90536 12.8244 6.36033 11.9217 7.04514 11.3183L7.05224 11.3121L7.05894 11.3054L15.4278 2.93657L15.4285 2.93592ZM16.9577 3.6998C16.7563 3.6998 16.5633 3.7801 16.4214 3.92288L16.4209 3.92336L15.5251 4.81892L15.3129 5.03105L15.525 5.24321L18.2791 7.99744L18.4912 8.20958L18.7034 7.99745L19.5972 7.10356C19.7401 6.9607 19.8204 6.76693 19.8204 6.56488C19.8204 6.36284 19.7401 6.16907 19.5972 6.02621L17.4944 3.92336L17.4939 3.92288C17.352 3.7801 17.159 3.6998 16.9577 3.6998ZM14.5349 6.23295L14.3228 6.02084L14.1106 6.23291L8.01058 12.331C7.55612 12.7361 7.26872 13.3037 7.22147 13.8414L7.22031 13.8545V13.8676V16.0027V16.3025L7.52004 16.3027L9.58402 16.3046L9.59476 16.3046L9.60548 16.3039C10.2213 16.2603 10.7877 15.9737 11.2341 15.4667L17.2891 9.41166L17.5013 9.19953L17.2891 8.9874L14.5349 6.23295Z" fill="#BCBCBC"/>
</svg>
