<svg width="20" height="20" viewBox="0 0 20 20" fill="#80BA27" xmlns="http://www.w3.org/2000/svg">
<path d="M10.8333 10.8337V15.8337H9.16663V10.8337H4.16663V9.16699H9.16663V4.16699H10.8333V9.16699H15.8333V10.8337H10.8333Z" />
<path d="M10.8333 10.8337V10.5837H10.5833V10.8337H10.8333ZM10.8333 15.8337V16.0837H11.0833V15.8337H10.8333ZM9.16663 15.8337H8.91663V16.0837H9.16663V15.8337ZM9.16663 10.8337H9.41663V10.5837H9.16663V10.8337ZM4.16663 10.8337H3.91663V11.0837H4.16663V10.8337ZM4.16663 9.16699V8.91699H3.91663V9.16699H4.16663ZM9.16663 9.16699V9.41699H9.41663V9.16699H9.16663ZM9.16663 4.16699V3.91699H8.91663V4.16699H9.16663ZM10.8333 4.16699H11.0833V3.91699H10.8333V4.16699ZM10.8333 9.16699H10.5833V9.41699H10.8333V9.16699ZM15.8333 9.16699H16.0833V8.91699H15.8333V9.16699ZM15.8333 10.8337V11.0837H16.0833V10.8337H15.8333ZM10.5833 10.8337V15.8337H11.0833V10.8337H10.5833ZM10.8333 15.5837H9.16663V16.0837H10.8333V15.5837ZM9.41663 15.8337V10.8337H8.91663V15.8337H9.41663ZM9.16663 10.5837H4.16663V11.0837H9.16663V10.5837ZM4.41663 10.8337V9.16699H3.91663V10.8337H4.41663ZM4.16663 9.41699H9.16663V8.91699H4.16663V9.41699ZM9.41663 9.16699V4.16699H8.91663V9.16699H9.41663ZM9.16663 4.41699H10.8333V3.91699H9.16663V4.41699ZM10.5833 4.16699V9.16699H11.0833V4.16699H10.5833ZM10.8333 9.41699H15.8333V8.91699H10.8333V9.41699ZM15.5833 9.16699V10.8337H16.0833V9.16699H15.5833ZM15.8333 10.5837H10.8333V11.0837H15.8333V10.5837Z" />
</svg>
