<svg width="24" height="25" viewBox="0 0 24 25" fill="none" xmlns="http://www.w3.org/2000/svg">
<path d="M16 19.5C14.7866 19.5 13.6927 18.7691 13.2284 17.648C12.764 16.527 13.0207 15.2367 13.8787 14.3787C14.7367 13.5207 16.027 13.264 17.1481 13.7283C18.2691 14.1927 19 15.2866 19 16.5C19 17.2956 18.6839 18.0587 18.1213 18.6213C17.5587 19.1839 16.7956 19.5 16 19.5ZM8 19.5C6.34315 19.5 5 18.1568 5 16.5C5 14.8431 6.34315 13.5 8 13.5C9.65685 13.5 11 14.8431 11 16.5C11 17.2956 10.6839 18.0587 10.1213 18.6213C9.55871 19.1839 8.79565 19.5 8 19.5ZM16 11.5C14.3431 11.5 13 10.1568 13 8.49998C13 6.84313 14.3431 5.49998 16 5.49998C17.6569 5.49998 19 6.84313 19 8.49998C19 10.1568 17.6569 11.5 16 11.5ZM8 11.5C6.34315 11.5 5 10.1568 5 8.49998C5 6.84313 6.34315 5.49998 8 5.49998C9.65685 5.49998 11 6.84313 11 8.49998C11 9.29563 10.6839 10.0587 10.1213 10.6213C9.55871 11.1839 8.79565 11.5 8 11.5Z" fill="#80BA27"/>
</svg>
