<svg width="24" height="24" viewBox="0 0 24 24" fill="none" xmlns="http://www.w3.org/2000/svg">
<path fill-rule="evenodd" clip-rule="evenodd" d="M1.2998 12C1.2998 6.0906 6.09036 1.30005 11.9998 1.30005C17.9093 1.30005 22.6998 6.0906 22.6998 12C22.6998 17.9095 17.9093 22.7001 11.9998 22.7001C6.09036 22.7001 1.2998 17.9095 1.2998 12ZM16.559 15.7942C15.339 15.4586 13.7999 15.3 11.9998 15.3C10.1997 15.3 8.6606 15.4586 7.44064 15.7942C6.21765 16.1306 5.34649 16.6361 4.83949 17.3058L4.58973 17.6357L4.35383 17.2957C3.31099 15.7928 2.6998 13.9673 2.6998 12C2.6998 6.8638 6.86356 2.70005 11.9998 2.70005C17.1361 2.70005 21.2998 6.8638 21.2998 12C21.2998 13.9673 20.6886 15.7928 19.6458 17.2957L19.4099 17.6357L19.1601 17.3058C18.6531 16.6361 17.782 16.1306 16.559 15.7942ZM8.2998 10C8.2998 7.91261 9.75334 6.30005 11.9998 6.30005C14.223 6.30005 15.6998 8.06086 15.6998 10.2C15.6998 11.7868 15.2693 12.9069 14.6102 13.6274C13.953 14.3458 13.0384 14.7 11.9998 14.7C10.9535 14.7 10.0408 14.3349 9.38573 13.5876C8.72723 12.8363 8.2998 11.6648 8.2998 10ZM11.9998 7.70005C11.3004 7.70005 10.7175 7.92703 10.3097 8.34701C9.90336 8.76556 9.6998 9.34606 9.6998 10C9.6998 11.1608 9.90723 11.989 10.3173 12.5318C10.7408 13.0926 11.342 13.3 11.9998 13.3C12.6509 13.3 13.2495 13.1031 13.675 12.5752C14.0898 12.0606 14.2998 11.2797 14.2998 10.2C14.2998 9.51347 14.084 8.8894 13.6805 8.43279C13.2739 7.97279 12.6912 7.70005 11.9998 7.70005ZM11.9998 16.7C10.2 16.7 8.74966 16.8729 7.70227 17.188C6.68089 17.4953 5.93753 17.9711 5.74609 18.6594L5.69585 18.8401L5.83622 18.9644C7.47695 20.4175 9.63568 21.3 11.9998 21.3C14.3639 21.3 16.5227 20.4175 18.1634 18.9644L18.3038 18.8401L18.2535 18.6594C18.0621 17.9711 17.3187 17.4953 16.2973 17.188C15.2499 16.8729 13.7996 16.7 11.9998 16.7Z" fill="#BCBCBC"/>
</svg>
