<svg width="43" height="43" viewBox="0 0 43 43" fill="none" xmlns="http://www.w3.org/2000/svg">
<g filter="url(#filter0_d)">
<path d="M6.25049 19.123C6.25049 10.8388 12.9662 4.12305 21.2505 4.12305C29.5348 4.12305 36.2505 10.8388 36.2505 19.123C36.2505 27.4073 29.5348 34.123 21.2505 34.123C12.9662 34.123 6.25049 27.4073 6.25049 19.123Z" fill="#80BA27"/>
<path fill-rule="evenodd" clip-rule="evenodd" d="M14.0383 16.8097L14.0225 15.0749L16.3354 11.6055H26.1656L28.4786 15.0749V16.8097C28.3826 17.5915 27.946 18.269 27.3221 18.6852V25.4834C27.3221 26.1221 26.8043 26.6398 26.1656 26.6398H16.3354C15.6967 26.6398 15.179 26.1221 15.179 25.4834V18.6845C14.5571 18.2682 14.1247 17.5911 14.0383 16.8097ZM16.6246 18.2553C15.7384 18.2553 14.9969 17.587 14.9005 16.7144L14.8898 16.6182V15.7842H27.6112V16.6182L27.6006 16.7144C27.5041 17.587 26.7626 18.2553 25.8765 18.2553C25.2204 18.2553 24.6302 17.8884 24.334 17.3155L24.0772 16.8187C24.0222 16.7123 23.9355 16.6256 23.8291 16.5706C23.5454 16.4239 23.1965 16.535 23.0498 16.8187L22.793 17.3155C22.4969 17.8884 21.9066 18.2553 21.2505 18.2553C20.5944 18.2553 20.0042 17.8884 19.7081 17.3155L19.4512 16.8187C19.3962 16.7123 19.3095 16.6256 19.2031 16.5706C18.9194 16.4239 18.5705 16.535 18.4239 16.8187L18.167 17.3155C17.8709 17.8884 17.2807 18.2553 16.6246 18.2553ZM27.3307 14.9168H15.1703L16.7996 12.4728H25.7014L27.3307 14.9168ZM16.6246 25.7725C16.3052 25.7725 16.0463 25.5136 16.0463 25.1942V19.0582C16.2323 19.1004 16.4258 19.1227 16.6246 19.1227C17.2952 19.1227 17.9067 18.8689 18.3681 18.4522C18.5423 18.2826 18.7322 18.0365 18.9375 17.7138C19.0755 17.9972 19.2653 18.2433 19.507 18.4522C19.9684 18.8689 20.5799 19.1227 21.2505 19.1227C21.9212 19.1227 22.5326 18.8689 22.994 18.4522C23.1995 18.2495 23.3893 18.0033 23.5635 17.7138C23.773 18.057 23.9628 18.3032 24.133 18.4522C24.5944 18.8689 25.2058 19.1227 25.8765 19.1227C26.0752 19.1227 26.2687 19.1004 26.4547 19.0582V25.1942C26.4547 25.5136 26.1958 25.7725 25.8765 25.7725H19.5158V21.1465H22.9853V23.3149C22.9853 23.5545 23.1794 23.7486 23.4189 23.7486C23.6585 23.7486 23.8526 23.5545 23.8526 23.3149V20.2791H18.6484V25.7725H16.6246Z" fill="white"/>
<path fill-rule="evenodd" clip-rule="evenodd" d="M13.9427 15.0516L16.2929 11.5264H26.2081L28.558 15.0512V16.8198C28.461 17.6104 28.0252 18.2972 27.4015 18.7276V25.4837C27.4015 26.1663 26.8482 26.7197 26.1656 26.7197H16.3354C15.6528 26.7197 15.0995 26.1663 15.0995 25.4837V18.7268C14.4778 18.2963 14.0467 17.6094 13.9593 16.8188L13.9584 16.8108L13.9427 15.0516ZM15.1789 18.6848V25.4837C15.1789 26.1224 15.6967 26.6402 16.3354 26.6402H26.1656C26.8043 26.6402 27.3221 26.1224 27.3221 25.4837V18.6855C27.9459 18.2693 28.3826 17.5919 28.4786 16.81V15.0753L26.1656 11.6058H16.3354L14.0224 15.0753L14.0383 16.81C14.1247 17.5915 14.5571 18.2686 15.1789 18.6848ZM18.368 18.4526C17.9066 18.8693 17.2952 19.123 16.6245 19.123C16.4539 19.123 16.2872 19.1066 16.1257 19.0753C16.0991 19.0701 16.0726 19.0645 16.0463 19.0585V25.1946C16.0463 25.5139 16.3052 25.7728 16.6245 25.7728H18.6484V20.2795H23.8526V23.3153C23.8526 23.5548 23.6584 23.749 23.4189 23.749C23.1794 23.749 22.9852 23.5548 22.9852 23.3153V21.1469H19.5158V25.7728H25.8765C26.1958 25.7728 26.4547 25.5139 26.4547 25.1946V19.0585C26.4284 19.0645 26.4019 19.0701 26.3752 19.0753C26.2138 19.1066 26.047 19.123 25.8765 19.123C25.2058 19.123 24.5944 18.8693 24.133 18.4526C23.9756 18.3147 23.8014 18.0939 23.6104 17.79C23.5949 17.7652 23.5792 17.74 23.5635 17.7142C23.5481 17.7398 23.5325 17.7651 23.5168 17.7901C23.3556 18.0469 23.1813 18.2678 22.994 18.4526C22.5326 18.8693 21.9212 19.123 21.2505 19.123C20.5798 19.123 19.9684 18.8693 19.507 18.4526C19.2889 18.2641 19.113 18.0452 18.9794 17.7961C18.9649 17.7691 18.951 17.7418 18.9375 17.7142C18.9207 17.7406 18.904 17.7664 18.8874 17.7918C18.7012 18.0766 18.528 18.2968 18.368 18.4526ZM18.9301 17.8715C18.7509 18.1418 18.5821 18.3551 18.4234 18.5095L18.4213 18.5116C17.9459 18.941 17.3156 19.2025 16.6245 19.2025C16.4541 19.2025 16.2874 19.1866 16.1257 19.1561V25.1946C16.1257 25.4701 16.3491 25.6934 16.6245 25.6934H18.5689V20.2H23.932V23.3153C23.932 23.5987 23.7023 23.8284 23.4189 23.8284C23.1355 23.8284 22.9058 23.5987 22.9058 23.3153V21.2263H19.5952V25.6934H25.8765C26.1519 25.6934 26.3752 25.4701 26.3752 25.1946V19.1562C26.2136 19.1866 26.0468 19.2025 25.8765 19.2025C25.1856 19.2025 24.5555 18.9411 24.0802 18.5119C23.9205 18.372 23.7485 18.1549 23.5636 17.8647C23.4053 18.1123 23.2341 18.3273 23.0498 18.5091L23.0473 18.5116C22.5719 18.941 21.9416 19.2025 21.2505 19.2025C20.5597 19.2025 19.9298 18.9412 19.4544 18.5121C19.2404 18.3271 19.0655 18.1134 18.9301 17.8715ZM14.9794 16.706C15.0714 17.5384 15.7789 18.1762 16.6245 18.1762C17.2506 18.1762 17.8138 17.8262 18.0964 17.2794L18.3533 16.7825C18.5201 16.4599 18.9169 16.3335 19.2395 16.5003C19.3606 16.5629 19.4592 16.6615 19.5218 16.7825L19.7786 17.2794C20.0613 17.8262 20.6244 18.1762 21.2505 18.1762C21.8765 18.1762 22.4397 17.8262 22.7224 17.2794L22.9792 16.7825C23.146 16.4599 23.5428 16.3335 23.8655 16.5003C23.9865 16.5629 24.0852 16.6615 24.1477 16.7825L24.4046 17.2794C24.6872 17.8262 25.2504 18.1762 25.8765 18.1762C26.7221 18.1762 27.4296 17.5384 27.5216 16.706L27.5317 16.6142V15.864H14.9692V16.6142L14.9794 16.706ZM14.8898 16.6186L14.9004 16.7147C14.9969 17.5874 15.7384 18.2556 16.6245 18.2556C17.2806 18.2556 17.8709 17.8887 18.167 17.3159L18.4238 16.819C18.5705 16.5353 18.9194 16.4243 19.203 16.5709C19.3095 16.6259 19.3962 16.7126 19.4512 16.819L19.708 17.3159C20.0042 17.8887 20.5944 18.2556 21.2505 18.2556C21.9066 18.2556 22.4968 17.8887 22.793 17.3159L23.0498 16.819C23.1965 16.5353 23.5453 16.4243 23.829 16.5709C23.9354 16.6259 24.0221 16.7126 24.0771 16.819L24.334 17.3159C24.6301 17.8887 25.2203 18.2556 25.8765 18.2556C26.7626 18.2556 27.5041 17.5874 27.6006 16.7147L27.6112 16.6186V15.7845H14.8898V16.6186ZM27.3307 14.9172L25.7014 12.4732H16.7996L15.1703 14.9172H27.3307ZM27.1822 14.8377H15.3187L16.8421 12.5526H25.6589L27.1822 14.8377Z" fill="white"/>
<path d="M21.2505 33.123C13.5185 33.123 7.25049 26.855 7.25049 19.123H5.25049C5.25049 27.9596 12.4139 35.123 21.2505 35.123V33.123ZM35.2505 19.123C35.2505 26.855 28.9825 33.123 21.2505 33.123V35.123C30.087 35.123 37.2505 27.9596 37.2505 19.123H35.2505ZM21.2505 5.12305C28.9825 5.12305 35.2505 11.3911 35.2505 19.123H37.2505C37.2505 10.2865 30.087 3.12305 21.2505 3.12305V5.12305ZM21.2505 3.12305C12.4139 3.12305 5.25049 10.2865 5.25049 19.123H7.25049C7.25049 11.3911 13.5185 5.12305 21.2505 5.12305V3.12305Z" fill="white"/>
</g>
<defs>
<filter id="filter0_d" x="0.250488" y="0.123047" width="42" height="42" filterUnits="userSpaceOnUse" color-interpolation-filters="sRGB">
<feFlood flood-opacity="0" result="BackgroundImageFix"/>
<feColorMatrix in="SourceAlpha" type="matrix" values="0 0 0 0 0 0 0 0 0 0 0 0 0 0 0 0 0 0 127 0"/>
<feOffset dy="2"/>
<feGaussianBlur stdDeviation="2.5"/>
<feColorMatrix type="matrix" values="0 0 0 0 0 0 0 0 0 0 0 0 0 0 0 0 0 0 0.05 0"/>
<feBlend mode="normal" in2="BackgroundImageFix" result="effect1_dropShadow"/>
<feBlend mode="normal" in="SourceGraphic" in2="effect1_dropShadow" result="shape"/>
</filter>
</defs>
</svg>
