<svg width="20" height="20" viewBox="0 0 20 20" fill="none" xmlns="http://www.w3.org/2000/svg">
<path d="M8.5259 1.84142C9.15124 0.656175 10.8487 0.656171 11.4741 1.84142L13.6023 5.87517L18.0963 6.65275C19.4168 6.88122 19.9413 8.49561 19.0073 9.45661L15.8286 12.7272L16.4778 17.2415C16.6686 18.568 15.2953 19.5657 14.0927 18.9744L9.99998 16.962L5.90722 18.9744C4.70464 19.5657 3.33135 18.568 3.52211 17.2415L4.17131 12.7272L0.99264 9.45661C0.0586485 8.49562 0.583193 6.88122 1.90367 6.65275L6.39766 5.87517L8.5259 1.84142ZM12.1282 6.65291L9.99998 2.61915L7.87174 6.65291C7.63059 7.10998 7.19104 7.42933 6.68182 7.51744L2.18782 8.29501L5.36649 11.5656C5.72668 11.9362 5.89457 12.4529 5.821 12.9644L5.1718 17.4788L9.26456 15.4663C9.72832 15.2383 10.2716 15.2383 10.7354 15.4663L14.8282 17.4788L14.179 12.9644C14.1054 12.4529 14.2733 11.9362 14.6335 11.5656L17.8121 8.29501L13.3181 7.51744C12.8089 7.42933 12.3694 7.10998 12.1282 6.65291Z" fill="#80BA27"/>
</svg>
