<svg width="24" height="24" viewBox="0 0 24 24" fill="none" xmlns="http://www.w3.org/2000/svg">
<path fill-rule="evenodd" clip-rule="evenodd" d="M16.382 7L18.2243 10.6847L21 12.5352V16H19.8285C19.4166 14.8349 18.3054 14.0002 16.9992 14.0002C15.693 14.0002 14.5818 14.835 14.1699 16.0002H9.8285C9.41666 14.835 8.30542 14.0002 6.9992 14.0002C5.69306 14.0002 4.58187 14.8349 4.16998 16H3V7H16.382ZM21 18H19.8286C19.4168 19.1653 18.3055 20.0002 16.9992 20.0002C15.693 20.0002 14.5818 19.1654 14.1699 18.0002H9.8285C9.41666 19.1654 8.30542 20.0002 6.9992 20.0002C5.69291 20.0002 4.58162 19.1653 4.16984 18H3C1.89543 18 1 17.1046 1 16V7C1 5.89543 1.89543 5 3 5H16.382C17.1395 5 17.832 5.428 18.1708 6.10557L19.7757 9.31526L23 11.4648V16C23 17.1046 22.1046 18 21 18ZM7.99922 17.0002C7.99922 17.5525 7.5515 18.0002 6.99922 18.0002C6.44693 18.0002 5.99922 17.5525 5.99922 17.0002C5.99922 16.4479 6.44693 16.0002 6.99922 16.0002C7.5515 16.0002 7.99922 16.4479 7.99922 17.0002ZM17.9992 17.0002C17.9992 17.5525 17.5515 18.0002 16.9992 18.0002C16.4469 18.0002 15.9992 17.5525 15.9992 17.0002C15.9992 16.4479 16.4469 16.0002 16.9992 16.0002C17.5515 16.0002 17.9992 16.4479 17.9992 17.0002Z" fill="#BCBCBC"/>
</svg>
