<svg width="18" height="18" viewBox="0 0 18 18" fill="none" xmlns="http://www.w3.org/2000/svg">
<path fill-rule="evenodd" clip-rule="evenodd" d="M13.2519 11.3449C12.9847 11.4281 12.6942 11.469 12.4138 11.4704C10.1404 11.4792 7.86701 11.4821 5.59361 11.4717C4.49998 11.4674 3.78306 10.9448 3.58157 10.0512C3.36985 9.10797 4.07363 8.11069 5.0227 7.97782C5.2388 7.94862 5.35999 8.01872 5.44322 8.18955C5.53959 8.38521 5.64763 8.58086 5.69874 8.7882C5.77758 9.10504 5.85497 9.44524 6.26526 9.32697C6.67118 9.21016 6.55437 8.83346 6.48866 8.54727C6.43026 8.29599 6.35433 8.01432 6.1908 7.82889C5.75276 7.33391 6.06231 7.05648 6.4361 6.7849C7.53411 5.98621 8.9037 6.52208 9.1344 7.84495C9.19134 8.17785 9.2001 8.56918 9.67318 8.47559C10.0908 8.3925 9.97981 8.03039 9.95645 7.72376C9.92432 7.30325 9.68486 6.95283 9.56659 6.56298C10.9347 6.21532 12.0108 6.94553 12.1408 8.2976C12.1729 8.62612 12.043 9.10942 12.5686 9.08168C13.065 9.0554 12.9322 8.58231 12.9511 8.2494C12.9555 8.18516 12.9657 8.12092 12.9745 8.05667C13.8287 8.1821 14.4142 8.78673 14.4784 9.59855C14.5354 10.3461 14.0156 11.1098 13.2519 11.3449ZM13.157 7.17768C12.8227 7.12205 12.6197 7.00246 12.4211 6.73526C11.6327 5.67083 10.4967 5.32625 9.23077 5.7672C8.95918 5.86065 8.75039 5.84737 8.4861 5.75699C7.21288 5.32041 6.03895 5.70733 5.2607 6.80388C5.13075 6.9864 5.02124 7.11635 4.77886 7.18643C3.33919 7.60549 2.55364 8.71518 2.72302 10.038C2.89093 11.3609 4.00208 12.2734 5.50162 12.2939C6.65804 12.3084 7.81737 12.2968 8.97525 12.2968V12.2808C10.2631 12.2808 11.5538 12.3158 12.8416 12.2706C14.1514 12.2253 15.2114 11.1609 15.2946 9.8992C15.3808 8.58509 14.4697 7.3967 13.157 7.17768Z" fill="#E88A01"/>
</svg>
