<svg width="20" height="20" viewBox="0 0 20 20" fill="none" xmlns="http://www.w3.org/2000/svg">
<path d="M0 9.58333C0 5.066 0 2.80667 1.40333 1.40333C2.80667 0 5.06667 0 9.58333 0H10.4167C14.934 0 17.1933 0 18.5967 1.40333C20 2.80667 20 5.06667 20 9.58333V10.4167C20 14.934 20 17.1933 18.5967 18.5967C17.1933 20 14.9333 20 10.4167 20H9.58333C5.066 20 2.80667 20 1.40333 18.5967C0 17.1933 0 14.9333 0 10.4167V9.58333Z" fill="#2787F5"/>
<path fill-rule="evenodd" clip-rule="evenodd" d="M5.4165 6.25H3.9585C3.54183 6.25 3.4585 6.446 3.4585 6.66267C3.4585 7.04867 3.9525 8.96467 5.7605 11.498C6.96516 13.2287 8.66316 14.1667 10.2078 14.1667C11.1352 14.1667 11.2498 13.958 11.2498 13.6V12.292C11.2498 11.8753 11.3378 11.792 11.6312 11.792C11.8478 11.792 12.2178 11.9 13.0838 12.734C14.0725 13.7233 14.2352 14.1667 14.7912 14.1667H16.2498C16.6665 14.1667 16.8752 13.958 16.7545 13.5467C16.6232 13.1373 16.1512 12.5427 15.5245 11.838C15.1845 11.4367 14.6752 11.004 14.5205 10.7873C14.3038 10.5093 14.3658 10.386 14.5205 10.1387C14.5205 10.1387 16.2972 7.636 16.4825 6.786C16.5758 6.47733 16.4825 6.25 16.0412 6.25H14.5832C14.2125 6.25 14.0412 6.446 13.9485 6.66267C13.9485 6.66267 13.2072 8.47 12.1565 9.644C11.8165 9.984 11.6618 10.0927 11.4765 10.0927C11.3838 10.0927 11.2498 9.984 11.2498 9.67533V6.786C11.2498 6.41533 11.1425 6.25 10.8332 6.25H8.54116C8.30983 6.25 8.1705 6.422 8.1705 6.58533C8.1705 6.93667 8.69583 7.018 8.74983 8.00667V10.154C8.74983 10.6253 8.66516 10.7107 8.47916 10.7107C7.98516 10.7107 6.7825 8.89467 6.06916 6.81733C5.92916 6.41333 5.78916 6.25 5.4165 6.25Z" fill="white"/>
</svg>
