<svg width="24" height="24" viewBox="0 0 24 24" fill="none" xmlns="http://www.w3.org/2000/svg">
<path fill-rule="evenodd" clip-rule="evenodd" d="M5.38986 1.87109L2.25635 6.57136L2.27728 8.91695L2.27846 8.92762C2.39499 9.98182 2.96971 10.8976 3.79863 11.4717V20.4809C3.79863 21.391 4.53643 22.1288 5.44656 22.1288H18.5534C19.4636 22.1288 20.2014 21.391 20.2014 20.4809V11.4727C21.033 10.8988 21.614 9.98313 21.7434 8.92898V6.57092L18.6101 1.87109H5.38986ZM5.167 11.9363C5.13149 11.9294 5.09617 11.9219 5.06106 11.914C5.09617 11.9219 5.13149 11.9294 5.167 11.9363ZM8.23059 11.1819C8.44213 10.9761 8.66724 10.6917 8.90615 10.3312C9.08671 10.6538 9.31989 10.9387 9.60522 11.1854C10.239 11.7575 11.0789 12.1059 12 12.1059C12.9215 12.1059 13.7618 11.7572 14.3957 11.1847L14.3991 11.1814C14.6448 10.939 14.8731 10.6523 15.0842 10.3221C15.3306 10.7091 15.56 10.9986 15.7729 11.1852C16.4067 11.7574 17.2468 12.1059 18.168 12.1059C18.3951 12.1059 18.6174 12.0847 18.833 12.0441V20.0954C18.833 20.4627 18.5353 20.7604 18.168 20.7604H9.79296V14.8044H14.207V17.5897C14.207 17.9675 14.5134 18.2738 14.8912 18.2738C15.2691 18.2738 15.5754 17.9675 15.5754 17.5897V13.436H8.42459V20.7604H5.83205C5.46475 20.7604 5.167 20.4627 5.167 20.0954V12.0441C5.38255 12.0847 5.60487 12.1059 5.83205 12.1059C6.75353 12.1059 7.59385 11.7572 8.22776 11.1847L8.23059 11.1819ZM5.83205 10.7375C4.70458 10.7375 3.76123 9.88716 3.63854 8.77727L3.62501 8.65486V7.65461H20.375V8.65485L20.3615 8.77727C20.2388 9.88716 19.2954 10.7375 18.168 10.7375C17.3332 10.7375 16.5823 10.2708 16.2054 9.54178L15.863 8.87933C15.7796 8.71795 15.6481 8.58646 15.4867 8.50304C15.0565 8.28063 14.5274 8.44911 14.305 8.87933L13.9625 9.54178C13.5857 10.2708 12.8347 10.7375 12 10.7375C11.1653 10.7375 10.4143 10.2708 10.0375 9.54178L9.69503 8.87933C9.6116 8.71795 9.48011 8.58646 9.31873 8.50304C8.8885 8.28063 8.35943 8.44911 8.13703 8.87933L7.79458 9.54178C7.41771 10.2708 6.66679 10.7375 5.83205 10.7375ZM4.091 6.28624H19.909L17.8778 3.23946H6.12219L4.091 6.28624Z" fill="#BCBCBC"/>
</svg>
