<svg xmlns="http://www.w3.org/2000/svg" width="20" height="20" viewBox="0 0 20 20" fill="none">
  <path fill-rule="evenodd" clip-rule="evenodd" d="M10 19.4437L10.5481 18.9651C15.1572 14.9405 17.5 11.4264 17.5 8.3374C17.5 3.96296 14.0858 0.837402 10 0.837402C5.91421 0.837402 2.5 3.96296 2.5 8.3374C2.5 11.4264 4.84276 14.9405 9.45189 18.9651L10 19.4437ZM10 17.2236C6.08884 13.6987 4.16667 10.7118 4.16667 8.3374C4.16667 4.9179 6.80343 2.50407 10 2.50407C13.1966 2.50407 15.8333 4.9179 15.8333 8.3374C15.8333 10.7118 13.9112 13.6987 10 17.2236ZM10 4.16943C12.3012 4.16943 14.1667 6.03491 14.1667 8.3361C14.1667 10.6373 12.3012 12.5028 10 12.5028C7.69881 12.5028 5.83333 10.6373 5.83333 8.3361C5.83333 6.03491 7.69881 4.16943 10 4.16943ZM7.5 8.3348C7.5 6.95409 8.61929 5.8348 10 5.8348C11.3807 5.8348 12.5 6.95409 12.5 8.3348C12.5 9.71551 11.3807 10.8348 10 10.8348C8.61929 10.8348 7.5 9.71551 7.5 8.3348Z" fill="#80BA27"></path>
</svg>
