<svg width="24" height="32" viewBox="0 0 24 32" fill="none" xmlns="http://www.w3.org/2000/svg">
<path fill-rule="evenodd" clip-rule="evenodd" d="M7.71429 2C7.71429 0.895431 8.60972 0 9.71429 0H14.2857C15.3903 0 16.2857 0.895431 16.2857 2V3C16.2857 3.55228 16.7334 4 17.2857 4H23.1429C23.6162 4 24 4.39797 24 4.88889V31.1111C24 31.602 23.6162 32 23.1429 32H0.857143C0.383763 32 0 31.602 0 31.1111V4.88889C0 4.39797 0.383763 4 0.857143 4H6.71429C7.26657 4 7.71429 3.55228 7.71429 3V2ZM9.42857 3.11111C9.42857 3.60203 9.82654 4 10.3175 4H13.6825C14.1735 4 14.5714 3.60203 14.5714 3.11111C14.5714 2.12927 13.7755 1.33333 12.7937 1.33333H11.2063C10.2245 1.33333 9.42857 2.12927 9.42857 3.11111Z" fill="#C6BA9A"/>
</svg>
