<svg xmlns="http://www.w3.org/2000/svg" width="20" height="21" viewBox="0 0 20 21" fill="none">
  <path fill-rule="evenodd" clip-rule="evenodd" d="M13.6971 2.16675C14.2428 2.16675 14.7658 2.3846 15.1478 2.7696L17.7319 5.35368C18.1166 5.73841 18.3327 6.26022 18.3327 6.80431C18.3327 7.34841 18.1166 7.87021 17.7319 8.25495L8.29727 17.6865C7.7152 18.358 6.8901 18.7705 5.94485 18.8354H1.66602V18.002L1.66872 14.4895C1.73971 13.6108 2.14824 12.7937 2.77143 12.2446L12.2455 2.7706C12.6297 2.38411 13.1521 2.16675 13.6971 2.16675ZM5.88535 17.1709C6.33054 17.1393 6.74494 16.9321 7.07769 16.5515L13.3795 10.2497L10.2508 7.12098L3.91212 13.4582C3.57449 13.7568 3.36562 14.1745 3.33203 14.5567V17.1693L5.88535 17.1709ZM11.4295 5.94261L14.558 9.07123L16.5527 7.07651C16.6249 7.00434 16.6654 6.90646 16.6654 6.8044C16.6654 6.70233 16.6249 6.60445 16.5527 6.53228L13.9663 3.94588C13.8949 3.87395 13.7978 3.8335 13.6965 3.8335C13.5952 3.8335 13.498 3.87395 13.4267 3.94588L11.4295 5.94261Z" fill="#80BA27"/>
</svg>
