<svg width="24" height="32" viewBox="0 0 24 32" fill="none" xmlns="http://www.w3.org/2000/svg">
<path d="M0.857143 0C0.383756 0 0 0.39797 0 0.888889V31.1111C0 31.602 0.383756 32 0.857142 32H23.1429C23.6162 32 24 31.602 24 31.1111V0.888889C24 0.397969 23.6162 0 23.1429 0H20.8571C19.7526 0 18.8571 0.895431 18.8571 2V7.11111C18.8571 9.32025 17.0663 11.1111 14.8571 11.1111H9.14285C6.93372 11.1111 5.14286 9.32025 5.14286 7.11111V2C5.14286 0.89543 4.24743 0 3.14286 0H0.857143Z" fill="#B6C3CB"/>
</svg>
