<svg width="117" height="34" viewBox="0 0 117 34" fill="none" xmlns="http://www.w3.org/2000/svg">
<path d="M0 17C0 7.61116 7.61116 0 17 0H83C92.3083 0 96.9624 0 100.715 1.27368C107.78 3.67205 113.328 9.22007 115.726 16.2855C117 20.0376 117 24.6917 117 34H17C7.61116 34 0 26.3888 0 17Z" fill="#B87C8A"/>
<path d="M23.5836 11.526V24H21.3156V13.47H15.9876V24H13.7196V11.526H23.5836ZM32.7072 19.338C32.7072 18.366 32.4852 17.61 32.0412 17.07C31.6092 16.53 30.9072 16.26 29.9352 16.26C29.7312 16.26 29.5152 16.272 29.2872 16.296C29.0712 16.308 28.8552 16.344 28.6392 16.404V21.786C28.8312 21.918 29.0832 22.044 29.3952 22.164C29.7192 22.272 30.0612 22.326 30.4212 22.326C31.2132 22.326 31.7892 22.056 32.1492 21.516C32.5212 20.976 32.7072 20.25 32.7072 19.338ZM34.9392 19.302C34.9392 20.022 34.8432 20.682 34.6512 21.282C34.4712 21.882 34.2072 22.398 33.8592 22.83C33.5112 23.262 33.0732 23.598 32.5452 23.838C32.0292 24.078 31.4412 24.198 30.7812 24.198C30.3372 24.198 29.9292 24.144 29.5572 24.036C29.1852 23.928 28.8792 23.808 28.6392 23.676V27.33H26.4612V14.892C26.9052 14.772 27.4512 14.658 28.0992 14.55C28.7472 14.442 29.4312 14.388 30.1512 14.388C30.8952 14.388 31.5612 14.502 32.1492 14.73C32.7372 14.958 33.2352 15.288 33.6432 15.72C34.0632 16.14 34.3812 16.656 34.5972 17.268C34.8252 17.868 34.9392 18.546 34.9392 19.302ZM36.6619 19.338C36.6619 18.51 36.7819 17.784 37.0219 17.16C37.2739 16.536 37.6039 16.02 38.0119 15.612C38.4199 15.192 38.8879 14.88 39.4159 14.676C39.9439 14.46 40.4839 14.352 41.0359 14.352C42.3319 14.352 43.3399 14.754 44.0599 15.558C44.7919 16.362 45.1579 17.562 45.1579 19.158C45.1579 19.278 45.1519 19.416 45.1399 19.572C45.1399 19.716 45.1339 19.848 45.1219 19.968H38.9119C38.9719 20.724 39.2359 21.312 39.7039 21.732C40.1839 22.14 40.8739 22.344 41.7739 22.344C42.3019 22.344 42.7819 22.296 43.2139 22.2C43.6579 22.104 44.0059 22.002 44.2579 21.894L44.5459 23.676C44.4259 23.736 44.2579 23.802 44.0419 23.874C43.8379 23.934 43.5979 23.988 43.3219 24.036C43.0579 24.096 42.7699 24.144 42.4579 24.18C42.1459 24.216 41.8279 24.234 41.5039 24.234C40.6759 24.234 39.9559 24.114 39.3439 23.874C38.7319 23.622 38.2279 23.28 37.8319 22.848C37.4359 22.404 37.1419 21.888 36.9499 21.3C36.7579 20.7 36.6619 20.046 36.6619 19.338ZM42.9799 18.366C42.9799 18.066 42.9379 17.784 42.8539 17.52C42.7699 17.244 42.6439 17.01 42.4759 16.818C42.3199 16.614 42.1219 16.458 41.8819 16.35C41.6539 16.23 41.3779 16.17 41.0539 16.17C40.7179 16.17 40.4239 16.236 40.1719 16.368C39.9199 16.488 39.7039 16.65 39.5239 16.854C39.3559 17.058 39.2239 17.292 39.1279 17.556C39.0319 17.82 38.9659 18.09 38.9299 18.366H42.9799ZM46.3151 22.218H47.3951C47.7671 21.726 48.0551 21.18 48.2591 20.58C48.4751 19.968 48.6311 19.332 48.7271 18.672C48.8231 18 48.8831 17.316 48.9071 16.62C48.9311 15.924 48.9491 15.246 48.9611 14.586H55.7111V22.218H57.1511V26.664H55.2071V24H48.2411V26.664H46.3151V22.218ZM53.5331 22.218V16.386H50.9771C50.9531 16.878 50.9231 17.382 50.8871 17.898C50.8511 18.402 50.7851 18.906 50.6891 19.41C50.5931 19.902 50.4611 20.388 50.2931 20.868C50.1371 21.336 49.9271 21.786 49.6631 22.218H53.5331ZM58.4437 14.874C58.5997 14.814 58.7917 14.754 59.0197 14.694C59.2477 14.634 59.4937 14.58 59.7577 14.532C60.0217 14.484 60.2977 14.448 60.5857 14.424C60.8857 14.388 61.1857 14.37 61.4857 14.37C62.0017 14.37 62.4937 14.418 62.9617 14.514C63.4297 14.61 63.8377 14.766 64.1857 14.982C64.5337 15.198 64.8097 15.474 65.0137 15.81C65.2297 16.146 65.3377 16.548 65.3377 17.016C65.3377 17.52 65.1997 17.946 64.9237 18.294C64.6477 18.642 64.3297 18.9 63.9697 19.068C64.5097 19.272 64.9237 19.572 65.2117 19.968C65.4997 20.364 65.6437 20.868 65.6437 21.48C65.6437 21.972 65.5357 22.392 65.3197 22.74C65.1157 23.088 64.8277 23.376 64.4557 23.604C64.0957 23.82 63.6697 23.976 63.1777 24.072C62.6857 24.18 62.1517 24.234 61.5757 24.234C60.8797 24.234 60.2317 24.174 59.6317 24.054C59.0317 23.946 58.5577 23.814 58.2097 23.658L58.5877 21.894C58.8157 21.99 59.1817 22.104 59.6857 22.236C60.1897 22.356 60.7837 22.416 61.4677 22.416C62.7877 22.416 63.4477 22.032 63.4477 21.264C63.4477 20.988 63.3877 20.766 63.2677 20.598C63.1477 20.43 62.9977 20.304 62.8177 20.22C62.6377 20.124 62.4337 20.064 62.2057 20.04C61.9777 20.004 61.7557 19.986 61.5397 19.986H59.7397V18.366H61.5217C61.9657 18.366 62.3437 18.288 62.6557 18.132C62.9797 17.964 63.1417 17.676 63.1417 17.268C63.1417 16.932 62.9857 16.668 62.6737 16.476C62.3737 16.272 61.9477 16.17 61.3957 16.17C61.1557 16.17 60.9097 16.188 60.6577 16.224C60.4057 16.248 60.1597 16.284 59.9197 16.332C59.6917 16.38 59.4817 16.434 59.2897 16.494C59.0977 16.542 58.9477 16.59 58.8397 16.638L58.4437 14.874ZM71.1697 22.47C71.8417 22.47 72.3517 22.434 72.6997 22.362V19.95C72.5797 19.914 72.4057 19.878 72.1777 19.842C71.9497 19.806 71.6977 19.788 71.4217 19.788C71.1817 19.788 70.9357 19.806 70.6837 19.842C70.4437 19.878 70.2217 19.944 70.0177 20.04C69.8257 20.136 69.6697 20.274 69.5497 20.454C69.4297 20.622 69.3697 20.838 69.3697 21.102C69.3697 21.618 69.5317 21.978 69.8557 22.182C70.1797 22.374 70.6177 22.47 71.1697 22.47ZM70.9897 14.352C71.7097 14.352 72.3157 14.442 72.8077 14.622C73.2997 14.802 73.6897 15.054 73.9777 15.378C74.2777 15.702 74.4877 16.098 74.6077 16.566C74.7397 17.022 74.8057 17.526 74.8057 18.078V23.784C74.4697 23.856 73.9597 23.94 73.2757 24.036C72.6037 24.144 71.8417 24.198 70.9897 24.198C70.4257 24.198 69.9097 24.144 69.4417 24.036C68.9737 23.928 68.5717 23.754 68.2357 23.514C67.9117 23.274 67.6537 22.962 67.4617 22.578C67.2817 22.194 67.1917 21.72 67.1917 21.156C67.1917 20.616 67.2937 20.16 67.4977 19.788C67.7137 19.416 68.0017 19.116 68.3617 18.888C68.7217 18.648 69.1357 18.48 69.6037 18.384C70.0837 18.276 70.5817 18.222 71.0977 18.222C71.3377 18.222 71.5897 18.24 71.8537 18.276C72.1177 18.3 72.3997 18.348 72.6997 18.42V18.06C72.6997 17.808 72.6697 17.568 72.6097 17.34C72.5497 17.112 72.4417 16.914 72.2857 16.746C72.1417 16.566 71.9437 16.428 71.6917 16.332C71.4517 16.236 71.1457 16.188 70.7737 16.188C70.2697 16.188 69.8077 16.224 69.3877 16.296C68.9677 16.368 68.6257 16.452 68.3617 16.548L68.0917 14.784C68.3677 14.688 68.7697 14.592 69.2977 14.496C69.8257 14.4 70.3897 14.352 70.9897 14.352ZM79.6509 18.366C79.9269 18.09 80.2269 17.784 80.5509 17.448C80.8749 17.1 81.1929 16.752 81.5049 16.404C81.8289 16.056 82.1349 15.726 82.4229 15.414C82.7109 15.09 82.9509 14.814 83.1429 14.586H85.6989C85.4349 14.898 85.1289 15.24 84.7809 15.612C84.4449 15.984 84.0909 16.368 83.7189 16.764C83.3589 17.148 82.9989 17.526 82.6389 17.898C82.2909 18.258 81.9729 18.582 81.6849 18.87C82.0569 19.182 82.4409 19.548 82.8369 19.968C83.2449 20.376 83.6409 20.814 84.0249 21.282C84.4209 21.738 84.7869 22.206 85.1229 22.686C85.4589 23.154 85.7409 23.592 85.9689 24H83.4489C83.2209 23.64 82.9509 23.262 82.6389 22.866C82.3389 22.47 82.0209 22.086 81.6849 21.714C81.3489 21.33 81.0069 20.97 80.6589 20.634C80.3109 20.298 79.9749 20.01 79.6509 19.77V24H77.4729V14.586H79.6509V18.366ZM90.8572 22.47C91.5292 22.47 92.0392 22.434 92.3872 22.362V19.95C92.2672 19.914 92.0932 19.878 91.8652 19.842C91.6372 19.806 91.3852 19.788 91.1092 19.788C90.8692 19.788 90.6232 19.806 90.3712 19.842C90.1312 19.878 89.9092 19.944 89.7052 20.04C89.5132 20.136 89.3572 20.274 89.2372 20.454C89.1172 20.622 89.0572 20.838 89.0572 21.102C89.0572 21.618 89.2192 21.978 89.5432 22.182C89.8672 22.374 90.3052 22.47 90.8572 22.47ZM90.6772 14.352C91.3972 14.352 92.0032 14.442 92.4952 14.622C92.9872 14.802 93.3772 15.054 93.6652 15.378C93.9652 15.702 94.1752 16.098 94.2952 16.566C94.4272 17.022 94.4932 17.526 94.4932 18.078V23.784C94.1572 23.856 93.6472 23.94 92.9632 24.036C92.2912 24.144 91.5292 24.198 90.6772 24.198C90.1132 24.198 89.5972 24.144 89.1292 24.036C88.6612 23.928 88.2592 23.754 87.9232 23.514C87.5992 23.274 87.3412 22.962 87.1492 22.578C86.9692 22.194 86.8792 21.72 86.8792 21.156C86.8792 20.616 86.9812 20.16 87.1852 19.788C87.4012 19.416 87.6892 19.116 88.0492 18.888C88.4092 18.648 88.8232 18.48 89.2912 18.384C89.7712 18.276 90.2692 18.222 90.7852 18.222C91.0252 18.222 91.2772 18.24 91.5412 18.276C91.8052 18.3 92.0872 18.348 92.3872 18.42V18.06C92.3872 17.808 92.3572 17.568 92.2972 17.34C92.2372 17.112 92.1292 16.914 91.9732 16.746C91.8292 16.566 91.6312 16.428 91.3792 16.332C91.1392 16.236 90.8332 16.188 90.4612 16.188C89.9572 16.188 89.4952 16.224 89.0752 16.296C88.6552 16.368 88.3132 16.452 88.0492 16.548L87.7792 14.784C88.0552 14.688 88.4572 14.592 88.9852 14.496C89.5132 14.4 90.0772 14.352 90.6772 14.352ZM96.7464 14.874C96.9024 14.814 97.0944 14.754 97.3224 14.694C97.5504 14.634 97.7964 14.58 98.0604 14.532C98.3244 14.484 98.6004 14.448 98.8884 14.424C99.1884 14.388 99.4884 14.37 99.7884 14.37C100.304 14.37 100.796 14.418 101.264 14.514C101.732 14.61 102.14 14.766 102.488 14.982C102.836 15.198 103.112 15.474 103.316 15.81C103.532 16.146 103.64 16.548 103.64 17.016C103.64 17.52 103.502 17.946 103.226 18.294C102.95 18.642 102.632 18.9 102.272 19.068C102.812 19.272 103.226 19.572 103.514 19.968C103.802 20.364 103.946 20.868 103.946 21.48C103.946 21.972 103.838 22.392 103.622 22.74C103.418 23.088 103.13 23.376 102.758 23.604C102.398 23.82 101.972 23.976 101.48 24.072C100.988 24.18 100.454 24.234 99.8784 24.234C99.1824 24.234 98.5344 24.174 97.9344 24.054C97.3344 23.946 96.8604 23.814 96.5124 23.658L96.8904 21.894C97.1184 21.99 97.4844 22.104 97.9884 22.236C98.4924 22.356 99.0864 22.416 99.7704 22.416C101.09 22.416 101.75 22.032 101.75 21.264C101.75 20.988 101.69 20.766 101.57 20.598C101.45 20.43 101.3 20.304 101.12 20.22C100.94 20.124 100.736 20.064 100.508 20.04C100.28 20.004 100.058 19.986 99.8424 19.986H98.0424V18.366H99.8244C100.268 18.366 100.646 18.288 100.958 18.132C101.282 17.964 101.444 17.676 101.444 17.268C101.444 16.932 101.288 16.668 100.976 16.476C100.676 16.272 100.25 16.17 99.6984 16.17C99.4584 16.17 99.2124 16.188 98.9604 16.224C98.7084 16.248 98.4624 16.284 98.2224 16.332C97.9944 16.38 97.7844 16.434 97.5924 16.494C97.4004 16.542 97.2504 16.59 97.1424 16.638L96.7464 14.874Z" fill="white"/>
</svg>
