<?xml version="1.0" encoding="UTF-8"?>
<!DOCTYPE svg PUBLIC "-//W3C//DTD SVG 1.1//EN" "http://www.w3.org/Graphics/SVG/1.1/DTD/svg11.dtd">
<!-- Creator: CorelDRAW Standard 2021 (64-Bit Оценочная версия) -->
<svg xmlns="http://www.w3.org/2000/svg" xml:space="preserve" width="4.8654mm" height="4.4098mm" version="1.1" style="shape-rendering:geometricPrecision; text-rendering:geometricPrecision; image-rendering:optimizeQuality; fill-rule:evenodd; clip-rule:evenodd"
viewBox="0 0 60.71 55.03"
 xmlns:xlink="http://www.w3.org/1999/xlink"
 xmlns:xodm="http://www.corel.com/coreldraw/odm/2003">
 <defs>
  <style type="text/css">
   <![CDATA[
    .fil0 {fill:#FF281F;fill-rule:nonzero}
   ]]>
  </style>
 </defs>
 <g id="Слой_x0020_1">
  <metadata id="CorelCorpID_0Corel-Layer"/>
  <path class="fil0" d="M51.58 49.66c2.08,0 3.76,-1.68 3.76,-3.76 0,-0.69 -0.18,-1.33 -0.5,-1.88l-21.22 -36.76c-1.04,-1.8 -3.34,-2.41 -5.14,-1.38 -0.59,0.34 -1.06,0.82 -1.38,1.38l-21.22 36.76c-0.32,0.55 -0.5,1.2 -0.5,1.88 0,2.08 1.68,3.76 3.76,3.76 14.15,0 28.3,0 42.45,0zm7.91 -8.33c0.78,1.34 1.22,2.91 1.22,4.57 0,5.05 -4.09,9.14 -9.13,9.14 -14.15,0 -28.3,0 -42.45,0 -5.05,0 -9.13,-4.09 -9.13,-9.14 0,-1.66 0.45,-3.23 1.22,-4.57l21.22 -36.75c0.77,-1.35 1.9,-2.51 3.35,-3.35 4.37,-2.52 9.96,-1.03 12.48,3.34l21.22 36.76zm-26.37 -8.31l-5.53 0 0 -16.57 5.53 0 0 16.57zm0 11.05l-5.53 0 0 -5.52 5.53 0 0 5.52z"/>
 </g>
</svg>
