<svg width="40" height="60" viewBox="0 0 40 60" fill="none" xmlns="http://www.w3.org/2000/svg">
<circle cx="20" cy="20" r="20" fill="#80BA27"/>
<path fill-rule="evenodd" clip-rule="evenodd" d="M27.6758 17.6311C27.6363 18.2304 27.3593 20.2572 25.4555 21.1739C23.8371 21.9526 21.8378 21.5491 20.5547 20.3089C24.99 19.9709 26.0942 18.6205 26.3423 17.7985C26.5076 17.251 26.4107 16.5099 25.9145 15.6548C26.5058 15.4136 26.917 15.3702 27.127 15.5054C27.4014 15.6815 27.7534 16.4581 27.6758 17.6311ZM14.7117 21.1677C13.9078 20.7984 13.6053 19.6696 13.5781 18.7148C14.7538 19.4242 16.2692 19.9521 17.9875 20.2221C16.8377 21.2315 15.4955 21.5278 14.7117 21.1677ZM17.9785 18.9513C16.2554 18.6475 14.7553 18.0496 13.7344 17.2905C13.9058 16.6529 14.1771 16.241 14.3902 16.1538C14.4371 16.1346 14.4927 16.125 14.5576 16.125C15.1634 16.125 16.5333 16.9779 17.9785 18.9513ZM12.3442 15.4151C12.1342 14.3368 12.9307 12.4477 15.865 10.67C17.4764 9.69483 18.9848 9.25 19.9562 9.25C20.3341 9.25 20.6304 9.31677 20.8202 9.44613C21.2774 9.75743 21.4716 10.5899 21.3717 11.7959C19.833 11.0097 18.1984 10.5762 17.2577 11.2401C16.3201 11.9015 16.2661 13.5272 17.0867 16.0857C15.8848 15.0708 14.7244 14.6489 13.8565 15.004C13.334 15.2181 12.9592 15.6842 12.7023 16.2492C12.5257 15.9793 12.3998 15.7005 12.3442 15.4151ZM18.0478 12.2461C18.1272 12.1902 18.26 12.1602 18.438 12.1602C18.9881 12.1602 19.977 12.4514 21.1773 13.1279C20.877 14.5525 20.2751 16.3001 19.3261 18.2497C17.8431 14.8012 17.5328 12.6096 18.0478 12.2461ZM25.0745 17.4517C24.8601 18.1619 23.3027 18.7411 21.0898 18.9948C22.5601 17.7246 23.791 16.8228 24.7571 16.2461C25.0469 16.7189 25.1687 17.1395 25.0745 17.4517ZM23.9675 15.2472C23.1548 15.7313 22.2456 16.3802 21.2383 17.1981C21.756 15.9762 22.1303 14.865 22.3662 13.8789C22.9891 14.3233 23.5318 14.7915 23.9675 15.2472ZM27.8611 14.4675C27.2329 14.0636 26.3282 14.1228 25.1604 14.6303C24.5822 13.9764 23.7844 13.2816 22.7056 12.5697C22.6767 12.5505 22.6468 12.5321 22.6179 12.5133C22.891 10.4043 22.4566 9.01476 21.5926 8.42638C20.1403 7.43698 17.3182 8.30954 15.1663 9.61274C12.882 10.9961 10.6035 13.3062 11.0585 15.6409C11.208 16.4088 11.6419 17.1273 12.3003 17.762C12.271 17.992 12.2534 18.2186 12.2486 18.4343C12.2065 20.2921 12.9097 21.7359 14.1296 22.2963C14.5263 22.4787 14.9682 22.5651 15.4306 22.5651C16.1206 22.5651 16.8566 22.3644 17.5637 22.0084C17.0846 23.2069 16.7637 24.4608 16.6274 25.7302C16.4126 27.7391 16.5634 29.4679 17.2099 31.4L18.5614 31.3654C17.97 29.5977 17.739 27.694 17.9363 25.8571C18.1151 24.1817 18.642 22.5346 19.4618 21.0315C20.5603 22.1774 22.1195 22.8209 23.6858 22.8209C24.4923 22.8209 25.3007 22.6506 26.0481 22.2905C27.7528 21.4697 28.8518 19.7571 28.9868 17.7095C29.0837 16.2418 28.6418 14.9695 27.8611 14.4675Z" fill="white"/>
<g filter="url(#filter0_f)">
<ellipse cx="20" cy="58" rx="2" ry="1" fill="#434343" fill-opacity="0.4"/>
</g>
<path d="M17.2844 39.9865C17.1319 38.385 18.3913 37 20 37C21.6087 37 22.8681 38.385 22.7156 39.9865L21.0948 57.0045C21.0411 57.5689 20.567 58 20 58C19.433 58 18.9589 57.5689 18.9052 57.0045L17.2844 39.9865Z" fill="#80BA27"/>
<defs>
<filter id="filter0_f" x="17" y="56" width="6" height="4" filterUnits="userSpaceOnUse" color-interpolation-filters="sRGB">
<feFlood flood-opacity="0" result="BackgroundImageFix"/>
<feBlend mode="normal" in="SourceGraphic" in2="BackgroundImageFix" result="shape"/>
<feGaussianBlur stdDeviation="0.5" result="effect1_foregroundBlur"/>
</filter>
</defs>
</svg>
