<svg width="193" height="56" viewBox="0 0 193 56" fill="none" xmlns="http://www.w3.org/2000/svg">
<g clip-path="url(#clip0)">
<g filter="url(#filter0_b)">
<path fill-rule="evenodd" clip-rule="evenodd" d="M48.9198 20.4759C48.8431 21.6411 48.3044 25.582 44.6026 27.3647C41.4557 28.8788 37.5681 28.0941 35.0732 25.6827C43.6974 25.0254 45.8445 22.3997 46.3269 20.8013C46.6483 19.7367 46.4599 18.2957 45.495 16.6331C46.6449 16.1641 47.4444 16.0797 47.8526 16.3426C48.3862 16.685 49.0707 18.195 48.9198 20.4759ZM23.6944 27.3554C22.1312 26.6373 21.5431 24.4424 21.4902 22.5859C23.7763 23.9653 26.7229 24.9917 30.0641 25.5167C27.8284 27.4795 25.2184 28.0556 23.6944 27.3554ZM30.0572 23.0425C26.7066 22.4518 23.7898 21.2891 21.8047 19.8131C22.138 18.5733 22.6656 17.7724 23.0798 17.6029C23.171 17.5655 23.2793 17.5469 23.4054 17.5469C24.5834 17.5469 27.247 19.2054 30.0572 23.0425ZM19.1251 16.1634C18.7168 14.0668 20.2655 10.3936 25.9712 6.93698C29.1045 5.04074 32.0374 4.17578 33.9263 4.17578C34.661 4.17578 35.2372 4.30561 35.6063 4.55714C36.4953 5.16245 36.8729 6.78119 36.6785 9.12615C33.6867 7.59746 30.5083 6.75442 28.6791 8.04536C26.8559 9.33143 26.7511 12.4927 28.3467 17.4674C26.0096 15.494 23.7534 14.6737 22.0657 15.3642C21.0497 15.7805 20.3209 16.6868 19.8214 17.7854C19.4779 17.2605 19.2333 16.7184 19.1251 16.1634ZM30.2049 10.0031C30.3592 9.89436 30.6174 9.83594 30.9635 9.83594C32.0332 9.83594 33.9561 10.4023 36.2899 11.7176C35.706 14.4877 34.5357 17.8859 32.6904 21.6767C29.8068 14.9713 29.2034 10.7098 30.2049 10.0031ZM43.8739 20.1332C43.4571 21.5142 40.4287 22.6404 36.126 23.1338C38.9848 20.6639 41.3782 18.9104 43.2568 17.7891C43.8202 18.7084 44.0572 19.5263 43.8739 20.1332ZM41.713 15.8481C40.1328 16.7893 38.365 18.051 36.4062 19.6414C37.4129 17.2656 38.1408 15.1048 38.5994 13.1875C39.8106 14.0516 40.8658 14.962 41.713 15.8481ZM49.2854 14.3257C48.064 13.5403 46.3048 13.6555 44.0341 14.6422C42.9098 13.3707 41.3585 12.0197 39.2609 10.6355C39.2046 10.5982 39.1467 10.5625 39.0904 10.5259C39.6214 6.42511 38.7767 3.72314 37.0967 2.57907C34.2729 0.655233 28.7854 2.35187 24.6012 4.88588C20.1595 7.57568 15.729 12.0676 16.6137 16.6074C16.9044 18.1004 17.7482 19.4976 19.0284 20.7318C18.9713 21.1788 18.9372 21.6194 18.9279 22.0389C18.846 25.6513 20.2132 28.4587 22.5853 29.5485C23.3567 29.903 24.2159 30.071 25.1151 30.071C26.4567 30.071 27.8879 29.6807 29.2627 28.9886C28.3311 31.3189 27.7072 33.7572 27.4421 36.2255C27.0244 40.1316 27.3176 43.4932 28.5749 47.25L31.2027 47.1827C30.0528 43.7456 29.6037 40.0439 29.9872 36.4721C30.335 33.2144 31.3595 30.0118 32.9534 27.0891C35.0894 29.3172 38.1213 30.5684 41.1667 30.5684C42.7351 30.5684 44.3068 30.2373 45.7601 29.5371C49.0749 27.9411 51.2118 24.6111 51.4743 20.6295C51.6627 17.7758 50.8035 15.3019 49.2854 14.3257Z" fill="#80BA27"/>
<mask id="mask0" mask-type="alpha" maskUnits="userSpaceOnUse" x="16" y="1" width="36" height="47">
<path fill-rule="evenodd" clip-rule="evenodd" d="M48.9198 20.4759C48.8431 21.6411 48.3044 25.582 44.6026 27.3647C41.4557 28.8788 37.5681 28.0941 35.0732 25.6827C43.6974 25.0254 45.8445 22.3997 46.3269 20.8013C46.6483 19.7367 46.4599 18.2957 45.495 16.6331C46.6449 16.1641 47.4444 16.0797 47.8526 16.3426C48.3862 16.685 49.0707 18.195 48.9198 20.4759ZM23.6944 27.3554C22.1312 26.6373 21.5431 24.4424 21.4902 22.5859C23.7763 23.9653 26.7229 24.9917 30.0641 25.5167C27.8284 27.4795 25.2184 28.0556 23.6944 27.3554ZM30.0572 23.0425C26.7066 22.4518 23.7898 21.2891 21.8047 19.8131C22.138 18.5733 22.6656 17.7724 23.0798 17.6029C23.171 17.5655 23.2793 17.5469 23.4054 17.5469C24.5834 17.5469 27.247 19.2054 30.0572 23.0425ZM19.1251 16.1634C18.7168 14.0668 20.2655 10.3936 25.9712 6.93698C29.1045 5.04074 32.0374 4.17578 33.9263 4.17578C34.661 4.17578 35.2372 4.30561 35.6063 4.55714C36.4953 5.16245 36.8729 6.78119 36.6785 9.12615C33.6867 7.59746 30.5083 6.75442 28.6791 8.04536C26.8559 9.33143 26.7511 12.4927 28.3467 17.4674C26.0096 15.494 23.7534 14.6737 22.0657 15.3642C21.0497 15.7805 20.3209 16.6868 19.8214 17.7854C19.4779 17.2605 19.2333 16.7184 19.1251 16.1634ZM30.2049 10.0031C30.3592 9.89436 30.6174 9.83594 30.9635 9.83594C32.0332 9.83594 33.9561 10.4023 36.2899 11.7176C35.706 14.4877 34.5357 17.8859 32.6904 21.6767C29.8068 14.9713 29.2034 10.7098 30.2049 10.0031ZM43.8739 20.1332C43.4571 21.5142 40.4287 22.6404 36.126 23.1338C38.9848 20.6639 41.3782 18.9104 43.2568 17.7891C43.8202 18.7084 44.0572 19.5263 43.8739 20.1332ZM41.713 15.8481C40.1328 16.7893 38.365 18.051 36.4062 19.6414C37.4129 17.2656 38.1408 15.1048 38.5994 13.1875C39.8106 14.0516 40.8658 14.962 41.713 15.8481ZM49.2854 14.3257C48.064 13.5403 46.3048 13.6555 44.0341 14.6422C42.9098 13.3707 41.3585 12.0197 39.2609 10.6355C39.2046 10.5982 39.1467 10.5625 39.0904 10.5259C39.6214 6.42511 38.7767 3.72314 37.0967 2.57907C34.2729 0.655233 28.7854 2.35187 24.6012 4.88588C20.1595 7.57568 15.729 12.0676 16.6137 16.6074C16.9044 18.1004 17.7482 19.4976 19.0284 20.7318C18.9713 21.1788 18.9372 21.6194 18.9279 22.0389C18.846 25.6513 20.2132 28.4587 22.5853 29.5485C23.3567 29.903 24.2159 30.071 25.1151 30.071C26.4567 30.071 27.8879 29.6807 29.2627 28.9886C28.3311 31.3189 27.7072 33.7572 27.4421 36.2255C27.0244 40.1316 27.3176 43.4932 28.5749 47.25L31.2027 47.1827C30.0528 43.7456 29.6037 40.0439 29.9872 36.4721C30.335 33.2144 31.3595 30.0118 32.9534 27.0891C35.0894 29.3172 38.1213 30.5684 41.1667 30.5684C42.7351 30.5684 44.3068 30.2373 45.7601 29.5371C49.0749 27.9411 51.2118 24.6111 51.4743 20.6295C51.6627 17.7758 50.8035 15.3019 49.2854 14.3257Z" fill="white"/>
</mask>
<g mask="url(#mask0)">
</g>
</g>
<path d="M60.3945 32.9392C60.3768 33.3459 60.253 33.6552 60.0232 33.8674C59.811 34.0619 59.5724 34.1591 59.3072 34.1591C59.0597 34.1591 58.821 34.0619 58.5912 33.8674C58.3613 33.6729 58.2199 33.3812 58.1669 32.9923C58.1845 30.6939 58.1934 28.4133 58.1934 26.1503C58.1934 23.8873 58.1845 21.5271 58.1669 19.0696C58.2552 18.716 58.3967 18.4508 58.5912 18.274C58.7856 18.0972 59.0066 18.0088 59.2541 18.0088C59.484 18.0088 59.6961 18.0884 59.8906 18.2475C60.1028 18.4066 60.253 18.6541 60.3414 18.9901C60.3414 19.9978 60.3326 20.9613 60.3149 21.8807C60.3149 22.8 60.3149 23.7724 60.3149 24.7978C61.0928 24.4619 61.7558 24.0818 62.3039 23.6575C62.8696 23.2331 63.3912 22.7646 63.8685 22.2519C64.3459 21.7215 64.8232 21.147 65.3006 20.5282C65.7779 19.8917 66.326 19.2111 66.9448 18.4862C67.2276 18.2564 67.5193 18.1414 67.8199 18.1414C68.1028 18.1414 68.3414 18.2387 68.5359 18.4331C68.7304 18.6276 68.8276 18.8751 68.8276 19.1757C68.8276 19.3348 68.7834 19.5293 68.695 19.7591C68.1646 20.3779 67.6873 20.9613 67.263 21.5094C66.8387 22.0398 66.4232 22.5436 66.0166 23.021C65.6099 23.4983 65.1945 23.9492 64.7702 24.3735C64.3635 24.7801 63.9127 25.1602 63.4177 25.5138C64.4608 26.6276 65.495 27.7326 66.5204 28.8287C67.5459 29.9072 68.5713 31.0033 69.5967 32.1171C69.7912 32.3646 69.8884 32.6387 69.8884 32.9392C69.8884 33.2398 69.7912 33.4873 69.5967 33.6818C69.4022 33.8586 69.1635 33.947 68.8807 33.947C68.7392 33.947 68.5801 33.9204 68.4033 33.8674C68.2442 33.7967 68.0939 33.6818 67.9525 33.5227C67.8287 33.3812 67.5989 33.1337 67.263 32.7801C66.9271 32.4265 66.5381 32.0199 66.0961 31.5602C65.6718 31.0829 65.2122 30.5878 64.7171 30.0751C64.2398 29.5448 63.7801 29.0497 63.3381 28.5901C62.9138 28.1127 62.5337 27.6972 62.1978 27.3436C61.8619 26.9901 61.632 26.7425 61.5083 26.6011C61.1724 26.7602 60.7657 26.9282 60.2884 27.105C60.2884 28.1304 60.2972 29.1116 60.3149 30.0486C60.3326 30.968 60.3591 31.9315 60.3945 32.9392ZM71.4116 22.2785C71.3585 21.9425 71.3939 21.6685 71.5176 21.4564C71.6591 21.2265 71.827 21.0762 72.0215 21.0055C72.2336 20.9171 72.4635 20.9171 72.711 21.0055C72.9585 21.0762 73.1795 21.2442 73.374 21.5094C73.7276 22.7116 74.2138 23.8696 74.8325 24.9834C75.469 26.0972 76.2116 27.1227 77.0602 28.0597L77.5906 26.2298C77.8381 25.4166 78.0767 24.6033 78.3066 23.7901C78.5364 22.9768 78.7662 22.1547 78.9961 21.3238C79.1729 21.0409 79.3762 20.8552 79.606 20.7669C79.8359 20.6608 80.0569 20.6431 80.269 20.7138C80.4812 20.7669 80.658 20.8994 80.7994 21.1116C80.9585 21.3238 81.0292 21.5978 81.0115 21.9337C80.7817 22.7646 80.5519 23.5867 80.322 24.4C80.0922 25.2133 79.8535 26.0265 79.606 26.8398C79.3232 27.8298 79.0403 28.811 78.7574 29.7834C78.4922 30.7381 78.2093 31.7017 77.9088 32.674C77.8911 32.7448 77.8469 32.9215 77.7762 33.2044C77.7055 33.4873 77.6171 33.7967 77.511 34.1326C77.4049 34.4862 77.29 34.8398 77.1662 35.1934C77.0602 35.547 76.9453 35.8298 76.8215 36.042C76.574 36.5017 76.2557 36.8818 75.8668 37.1823C75.4778 37.4829 75.0535 37.7127 74.5939 37.8718C74.1519 38.0309 73.6745 38.1105 73.1618 38.1105C72.6668 38.1282 72.1806 38.0663 71.7033 37.9249C71.2966 37.8188 70.943 37.6685 70.6425 37.474C70.3419 37.2796 70.0414 37.0497 69.7408 36.7845C69.4756 36.5193 69.3342 36.2365 69.3165 35.9359C69.2988 35.653 69.3696 35.4144 69.5287 35.2199C69.6878 35.0431 69.9088 34.9282 70.1917 34.8751C70.4745 34.8398 70.7751 34.937 71.0933 35.1669C71.3232 35.379 71.5972 35.5646 71.9154 35.7238C72.2336 35.8829 72.5607 35.9801 72.8966 36.0155C73.2325 36.0508 73.5596 36.0155 73.8778 35.9094C74.1961 35.821 74.479 35.6354 74.7265 35.3525C74.8856 35.1757 75.027 34.9105 75.1508 34.5569C75.2922 34.2033 75.416 33.8497 75.522 33.4961C75.6281 33.1249 75.7165 32.8066 75.7872 32.5414C75.858 32.2586 75.8933 32.0994 75.8933 32.0641L76.3707 30.3934C75.2215 29.2796 74.2138 28.0331 73.3475 26.6541C72.4988 25.2575 71.8535 23.7989 71.4116 22.2785ZM82.4741 22.2785C82.421 21.9425 82.4564 21.6685 82.5801 21.4564C82.7216 21.2265 82.8895 21.0762 83.084 21.0055C83.2961 20.9171 83.526 20.9171 83.7735 21.0055C84.021 21.0762 84.242 21.2442 84.4365 21.5094C84.7901 22.7116 85.2763 23.8696 85.895 24.9834C86.5315 26.0972 87.2741 27.1227 88.1227 28.0597L88.6531 26.2298C88.9006 25.4166 89.1392 24.6033 89.3691 23.7901C89.5989 22.9768 89.8287 22.1547 90.0586 21.3238C90.2354 21.0409 90.4387 20.8552 90.6685 20.7669C90.8984 20.6608 91.1194 20.6431 91.3315 20.7138C91.5437 20.7669 91.7205 20.8994 91.8619 21.1116C92.021 21.3238 92.0917 21.5978 92.074 21.9337C91.8442 22.7646 91.6144 23.5867 91.3845 24.4C91.1547 25.2133 90.916 26.0265 90.6685 26.8398C90.3857 27.8298 90.1028 28.811 89.8199 29.7834C89.5547 30.7381 89.2718 31.7017 88.9713 32.674C88.9536 32.7448 88.9094 32.9215 88.8387 33.2044C88.768 33.4873 88.6796 33.7967 88.5735 34.1326C88.4674 34.4862 88.3525 34.8398 88.2287 35.1934C88.1227 35.547 88.0078 35.8298 87.884 36.042C87.6365 36.5017 87.3182 36.8818 86.9293 37.1823C86.5403 37.4829 86.116 37.7127 85.6564 37.8718C85.2144 38.0309 84.737 38.1105 84.2243 38.1105C83.7293 38.1282 83.2431 38.0663 82.7658 37.9249C82.3591 37.8188 82.0055 37.6685 81.705 37.474C81.4044 37.2796 81.1039 37.0497 80.8033 36.7845C80.5381 36.5193 80.3967 36.2365 80.379 35.9359C80.3613 35.653 80.4321 35.4144 80.5912 35.2199C80.7503 35.0431 80.9713 34.9282 81.2542 34.8751C81.537 34.8398 81.8376 34.937 82.1558 35.1669C82.3857 35.379 82.6597 35.5646 82.9779 35.7238C83.2961 35.8829 83.6232 35.9801 83.9591 36.0155C84.295 36.0508 84.6221 36.0155 84.9403 35.9094C85.2586 35.821 85.5415 35.6354 85.789 35.3525C85.9481 35.1757 86.0895 34.9105 86.2133 34.5569C86.3547 34.2033 86.4785 33.8497 86.5845 33.4961C86.6906 33.1249 86.779 32.8066 86.8497 32.5414C86.9205 32.2586 86.9558 32.0994 86.9558 32.0641L87.4332 30.3934C86.284 29.2796 85.2763 28.0331 84.41 26.6541C83.5613 25.2575 82.916 23.7989 82.4741 22.2785ZM93.7222 30.3934C93.5631 30.0575 93.5189 29.7569 93.5896 29.4917C93.678 29.2088 93.8283 29.0055 94.0404 28.8818C94.2526 28.7403 94.5001 28.6961 94.783 28.7492C95.0658 28.8022 95.3222 28.9878 95.552 29.3061C95.5874 29.3591 95.6758 29.5359 95.8172 29.8365C95.9763 30.1193 96.162 30.4199 96.3741 30.7381C96.5863 31.0564 96.8073 31.3392 97.0371 31.5867C97.2669 31.8166 97.4791 31.905 97.6736 31.8519C97.9564 31.5514 98.1421 31.1624 98.2305 30.6851C98.3189 30.2077 98.3896 29.7746 98.4426 29.3856C98.6017 28.2188 98.6725 27.0519 98.6548 25.8851C98.6548 24.7006 98.6371 23.516 98.6017 22.3315C98.6548 22.0663 98.7432 21.863 98.8669 21.7215C98.9907 21.5624 99.1852 21.4387 99.4504 21.3503C100.493 21.2088 101.537 21.1293 102.58 21.1116C103.64 21.0762 104.692 20.9878 105.735 20.8464C106.39 20.8287 106.814 21.1293 107.008 21.7481C107.008 23.5691 107.008 25.3812 107.008 27.1845C107.026 28.9702 107.035 30.7735 107.035 32.5945C107.017 32.9834 106.902 33.2751 106.69 33.4696C106.496 33.6641 106.266 33.7702 106.001 33.7878C105.753 33.8055 105.523 33.726 105.311 33.5492C105.099 33.3547 104.966 33.063 104.913 32.674C104.913 31.0652 104.905 29.4652 104.887 27.874C104.887 26.2652 104.887 24.6475 104.887 23.021L100.75 23.3657C100.767 24.0552 100.785 24.7978 100.803 25.5934C100.821 26.3713 100.803 27.158 100.75 27.9536C100.714 28.7315 100.626 29.5006 100.485 30.2608C100.343 31.021 100.122 31.7282 99.8216 32.3823C99.5564 32.9481 99.2294 33.3635 98.8404 33.6287C98.4515 33.8762 98.036 34 97.594 34C97.1697 33.9823 96.7366 33.8497 96.2946 33.6022C95.8526 33.3547 95.4548 33.0188 95.1012 32.5945C94.836 32.2762 94.5885 31.9227 94.3586 31.5337C94.1465 31.1448 93.9343 30.7646 93.7222 30.3934ZM111.629 32.9392C111.611 33.3459 111.487 33.6552 111.258 33.8674C111.045 34.0619 110.807 34.1591 110.542 34.1591C110.294 34.1591 110.055 34.0619 109.826 33.8674C109.596 33.6729 109.454 33.3812 109.401 32.9923C109.419 30.6939 109.428 28.4133 109.428 26.1503C109.428 23.8873 109.419 21.5271 109.401 19.0696C109.49 18.716 109.631 18.4508 109.826 18.274C110.02 18.0972 110.241 18.0088 110.489 18.0088C110.718 18.0088 110.931 18.0884 111.125 18.2475C111.337 18.4066 111.487 18.6541 111.576 18.9901C111.576 19.9978 111.567 20.9613 111.549 21.8807C111.549 22.8 111.549 23.7724 111.549 24.7978C112.327 24.4619 112.99 24.0818 113.538 23.6575C114.104 23.2331 114.626 22.7646 115.103 22.2519C115.58 21.7215 116.058 21.147 116.535 20.5282C117.012 19.8917 117.56 19.2111 118.179 18.4862C118.462 18.2564 118.754 18.1414 119.054 18.1414C119.337 18.1414 119.576 18.2387 119.77 18.4331C119.965 18.6276 120.062 18.8751 120.062 19.1757C120.062 19.3348 120.018 19.5293 119.929 19.7591C119.399 20.3779 118.922 20.9613 118.497 21.5094C118.073 22.0398 117.658 22.5436 117.251 23.021C116.844 23.4983 116.429 23.9492 116.005 24.3735C115.598 24.7801 115.147 25.1602 114.652 25.5138C115.695 26.6276 116.729 27.7326 117.755 28.8287C118.78 29.9072 119.806 31.0033 120.831 32.1171C121.026 32.3646 121.123 32.6387 121.123 32.9392C121.123 33.2398 121.026 33.4873 120.831 33.6818C120.637 33.8586 120.398 33.947 120.115 33.947C119.974 33.947 119.814 33.9204 119.638 33.8674C119.479 33.7967 119.328 33.6818 119.187 33.5227C119.063 33.3812 118.833 33.1337 118.497 32.7801C118.161 32.4265 117.772 32.0199 117.331 31.5602C116.906 31.0829 116.447 30.5878 115.952 30.0751C115.474 29.5448 115.014 29.0497 114.572 28.5901C114.148 28.1127 113.768 27.6972 113.432 27.3436C113.096 26.9901 112.866 26.7425 112.743 26.6011C112.407 26.7602 112 26.9282 111.523 27.105C111.523 28.1304 111.532 29.1116 111.549 30.0486C111.567 30.968 111.593 31.9315 111.629 32.9392ZM122.832 30.3934C122.672 30.0575 122.628 29.7569 122.699 29.4917C122.787 29.2088 122.938 29.0055 123.15 28.8818C123.362 28.7403 123.609 28.6961 123.892 28.7492C124.175 28.8022 124.432 28.9878 124.661 29.3061C124.697 29.3591 124.785 29.5359 124.927 29.8365C125.086 30.1193 125.271 30.4199 125.483 30.7381C125.696 31.0564 125.917 31.3392 126.146 31.5867C126.376 31.8166 126.588 31.905 126.783 31.8519C127.066 31.5514 127.251 31.1624 127.34 30.6851C127.428 30.2077 127.499 29.7746 127.552 29.3856C127.711 28.2188 127.782 27.0519 127.764 25.8851C127.764 24.7006 127.746 23.516 127.711 22.3315C127.764 22.0663 127.853 21.863 127.976 21.7215C128.1 21.5624 128.295 21.4387 128.56 21.3503C129.603 21.2088 130.646 21.1293 131.689 21.1116C132.75 21.0762 133.802 20.9878 134.845 20.8464C135.499 20.8287 135.923 21.1293 136.118 21.7481C136.118 23.5691 136.118 25.3812 136.118 27.1845C136.135 28.9702 136.144 30.7735 136.144 32.5945C136.127 32.9834 136.012 33.2751 135.8 33.4696C135.605 33.6641 135.375 33.7702 135.11 33.7878C134.862 33.8055 134.633 33.726 134.421 33.5492C134.208 33.3547 134.076 33.063 134.023 32.674C134.023 31.0652 134.014 29.4652 133.996 27.874C133.996 26.2652 133.996 24.6475 133.996 23.021L129.859 23.3657C129.877 24.0552 129.895 24.7978 129.912 25.5934C129.93 26.3713 129.912 27.158 129.859 27.9536C129.824 28.7315 129.735 29.5006 129.594 30.2608C129.453 31.021 129.232 31.7282 128.931 32.3823C128.666 32.9481 128.339 33.3635 127.95 33.6287C127.561 33.8762 127.145 34 126.703 34C126.279 33.9823 125.846 33.8497 125.404 33.6022C124.962 33.3547 124.564 33.0188 124.211 32.5945C123.945 32.2762 123.698 31.9227 123.468 31.5337C123.256 31.1448 123.044 30.7646 122.832 30.3934ZM148.668 26.389C148.367 27.0077 147.907 27.5204 147.289 27.9271C146.687 28.316 146.024 28.6431 145.3 28.9083C144.575 29.1558 143.823 29.3591 143.045 29.5182C142.285 29.6597 141.605 29.7746 141.003 29.863C141.357 30.6939 141.887 31.3569 142.595 31.8519C143.319 32.347 144.221 32.5326 145.3 32.4088C145.971 32.3204 146.564 32.1702 147.076 31.958C147.607 31.7282 148.155 31.463 148.721 31.1624C149.092 31.021 149.41 31.0033 149.675 31.1094C149.94 31.2155 150.126 31.3834 150.232 31.6133C150.338 31.8254 150.347 32.0729 150.259 32.3558C150.188 32.621 149.993 32.8508 149.675 33.0453C149.092 33.3635 148.438 33.6552 147.713 33.9204C147.006 34.1856 146.281 34.3713 145.538 34.4773C144.796 34.5834 144.062 34.5746 143.337 34.4508C142.612 34.3448 141.949 34.0619 141.348 33.6022C140.694 33.1072 140.146 32.5149 139.704 31.8254C139.28 31.1182 138.961 30.3757 138.749 29.5978C138.555 28.8022 138.475 27.9978 138.511 27.1845C138.546 26.3536 138.696 25.5669 138.961 24.8243C139.227 24.0641 139.616 23.3746 140.128 22.7558C140.659 22.137 141.304 21.6331 142.064 21.2442C142.506 21.0144 143.01 20.8641 143.576 20.7934C144.142 20.705 144.707 20.6961 145.273 20.7669C145.856 20.8376 146.413 20.979 146.944 21.1912C147.474 21.4033 147.925 21.6862 148.296 22.0398C148.685 22.3757 148.968 22.7912 149.145 23.2862C149.322 23.7812 149.348 24.347 149.224 24.9834C149.171 25.2309 149.092 25.4696 148.986 25.6994C148.897 25.9293 148.791 26.1591 148.668 26.389ZM140.765 26.0972C140.694 26.3801 140.641 26.663 140.606 26.9459C140.57 27.2287 140.561 27.5116 140.579 27.7945C141.233 27.6884 141.834 27.6 142.382 27.5293C142.948 27.4409 143.479 27.3171 143.974 27.158C144.486 26.9812 144.972 26.7514 145.432 26.4685C145.909 26.168 146.387 25.7613 146.864 25.2486C146.9 25.1425 146.935 25.0365 146.97 24.9304C147.023 24.8066 147.076 24.6917 147.129 24.5856C147.112 24.4972 147.103 24.4177 147.103 24.347C147.103 24.2586 147.103 24.1702 147.103 24.0818C147.05 23.9934 146.997 23.9138 146.944 23.8431C146.908 23.7724 146.873 23.6928 146.838 23.6044L146.228 23.1536C145.927 23.0475 145.706 22.9768 145.565 22.9414C145.423 22.8884 145.291 22.853 145.167 22.8354C145.061 22.8 144.919 22.7912 144.743 22.8088C144.584 22.8088 144.318 22.8088 143.947 22.8088C143.593 22.8088 143.24 22.9238 142.886 23.1536C142.533 23.3834 142.206 23.6663 141.905 24.0022C141.622 24.3381 141.375 24.7006 141.163 25.0895C140.968 25.4608 140.835 25.7967 140.765 26.0972ZM153.303 34.2917C152.808 34.221 152.472 34.0354 152.295 33.7348C152.136 33.4343 152.127 33.1337 152.268 32.8331V32.7271V21.9337C152.304 21.7392 152.357 21.589 152.428 21.4829C152.498 21.3591 152.613 21.2265 152.772 21.0851C153.285 20.8729 153.789 20.6785 154.284 20.5017C154.797 20.3249 155.309 20.2011 155.822 20.1304C156.335 20.042 156.847 20.0155 157.36 20.0508C157.873 20.0862 158.403 20.2188 158.951 20.4486C159.446 20.6608 159.888 20.9525 160.277 21.3238C160.666 21.6773 160.958 22.084 161.152 22.5436C161.365 23.0033 161.462 23.4895 161.444 24.0022C161.444 24.5149 161.285 25.0188 160.967 25.5138C160.808 25.7613 160.631 25.9912 160.436 26.2033C160.26 26.3978 160.056 26.5746 159.826 26.7337C160.445 27.0696 160.94 27.5028 161.312 28.0331C161.683 28.5459 161.904 29.0939 161.974 29.6773C162.045 30.2431 161.957 30.8177 161.709 31.4011C161.462 31.9845 161.046 32.5061 160.463 32.9657C160.003 33.3193 159.473 33.5845 158.872 33.7613C158.271 33.9204 157.643 34.0354 156.989 34.1061C156.335 34.1945 155.689 34.2387 155.053 34.2387C154.416 34.2564 153.833 34.274 153.303 34.2917ZM156.565 27.9536C156.176 27.9182 155.795 27.9006 155.424 27.9006C155.053 27.8829 154.708 27.874 154.39 27.874V32.1702C154.832 32.1702 155.283 32.1613 155.742 32.1436C156.22 32.126 156.679 32.0818 157.121 32.011C157.581 31.9227 158.014 31.7989 158.421 31.6398C158.845 31.4807 159.225 31.2508 159.561 30.9503C159.597 30.8796 159.632 30.8177 159.667 30.7646C159.703 30.6939 159.738 30.6232 159.773 30.5525C159.844 30.1105 159.809 29.7392 159.667 29.4387C159.526 29.1204 159.305 28.8641 159.004 28.6696C158.704 28.4751 158.35 28.3249 157.944 28.2188C157.537 28.095 157.113 28.0066 156.671 27.9536H156.565ZM154.39 25.7525C154.761 25.7525 155.133 25.7613 155.504 25.779C155.875 25.779 156.237 25.7967 156.591 25.832C156.786 25.7967 156.945 25.7702 157.068 25.7525C157.192 25.7171 157.351 25.6641 157.546 25.5934C157.811 25.4873 158.085 25.337 158.368 25.1425C158.668 24.9481 158.907 24.7271 159.084 24.4796C159.278 24.2144 159.367 23.9403 159.349 23.6575C159.349 23.3746 159.172 23.1006 158.819 22.8354C158.695 22.747 158.589 22.6674 158.5 22.5967C158.412 22.526 158.306 22.4641 158.182 22.4111C157.988 22.3403 157.811 22.2873 157.652 22.2519C157.51 22.1989 157.342 22.1547 157.148 22.1193C156.724 22.0309 156.255 22.0575 155.742 22.1989C155.23 22.3403 154.779 22.4994 154.39 22.6762V25.7525ZM174.308 26.389C174.008 27.0077 173.548 27.5204 172.929 27.9271C172.328 28.316 171.665 28.6431 170.94 28.9083C170.215 29.1558 169.464 29.3591 168.686 29.5182C167.926 29.6597 167.245 29.7746 166.644 29.863C166.998 30.6939 167.528 31.3569 168.235 31.8519C168.96 32.347 169.862 32.5326 170.94 32.4088C171.612 32.3204 172.204 32.1702 172.717 31.958C173.247 31.7282 173.795 31.463 174.361 31.1624C174.732 31.021 175.051 31.0033 175.316 31.1094C175.581 31.2155 175.767 31.3834 175.873 31.6133C175.979 31.8254 175.988 32.0729 175.899 32.3558C175.829 32.621 175.634 32.8508 175.316 33.0453C174.732 33.3635 174.078 33.6552 173.353 33.9204C172.646 34.1856 171.921 34.3713 171.179 34.4773C170.436 34.5834 169.703 34.5746 168.978 34.4508C168.253 34.3448 167.59 34.0619 166.989 33.6022C166.335 33.1072 165.787 32.5149 165.345 31.8254C164.92 31.1182 164.602 30.3757 164.39 29.5978C164.195 28.8022 164.116 27.9978 164.151 27.1845C164.187 26.3536 164.337 25.5669 164.602 24.8243C164.867 24.0641 165.256 23.3746 165.769 22.7558C166.299 22.137 166.945 21.6331 167.705 21.2442C168.147 21.0144 168.651 20.8641 169.216 20.7934C169.782 20.705 170.348 20.6961 170.914 20.7669C171.497 20.8376 172.054 20.979 172.584 21.1912C173.115 21.4033 173.566 21.6862 173.937 22.0398C174.326 22.3757 174.609 22.7912 174.785 23.2862C174.962 23.7812 174.989 24.347 174.865 24.9834C174.812 25.2309 174.732 25.4696 174.626 25.6994C174.538 25.9293 174.432 26.1591 174.308 26.389ZM166.405 26.0972C166.335 26.3801 166.282 26.663 166.246 26.9459C166.211 27.2287 166.202 27.5116 166.22 27.7945C166.874 27.6884 167.475 27.6 168.023 27.5293C168.589 27.4409 169.119 27.3171 169.614 27.158C170.127 26.9812 170.613 26.7514 171.073 26.4685C171.55 26.168 172.027 25.7613 172.505 25.2486C172.54 25.1425 172.576 25.0365 172.611 24.9304C172.664 24.8066 172.717 24.6917 172.77 24.5856C172.752 24.4972 172.743 24.4177 172.743 24.347C172.743 24.2586 172.743 24.1702 172.743 24.0818C172.69 23.9934 172.637 23.9138 172.584 23.8431C172.549 23.7724 172.514 23.6928 172.478 23.6044L171.868 23.1536C171.568 23.0475 171.347 22.9768 171.205 22.9414C171.064 22.8884 170.931 22.853 170.808 22.8354C170.702 22.8 170.56 22.7912 170.383 22.8088C170.224 22.8088 169.959 22.8088 169.588 22.8088C169.234 22.8088 168.881 22.9238 168.527 23.1536C168.173 23.3834 167.846 23.6663 167.546 24.0022C167.263 24.3381 167.015 24.7006 166.803 25.0895C166.609 25.4608 166.476 25.7967 166.405 26.0972ZM178.201 21.1912C178.271 20.8729 178.395 20.6343 178.572 20.4751C178.766 20.2983 178.979 20.2099 179.208 20.2099C179.438 20.1923 179.65 20.263 179.845 20.4221C180.057 20.5635 180.216 20.7934 180.322 21.1116V21.7481C180.764 21.3945 181.268 21.147 181.834 21.0055C182.417 20.8464 183.001 20.7934 183.584 20.8464C184.168 20.8818 184.725 21.0144 185.255 21.2442C185.803 21.474 186.263 21.8011 186.634 22.2254C187.253 22.9149 187.695 23.7105 187.96 24.6122C188.243 25.4961 188.402 26.3978 188.437 27.3171C188.455 27.8298 188.42 28.3602 188.331 28.9083C188.243 29.4564 188.101 29.9956 187.907 30.526C187.73 31.0564 187.491 31.5514 187.191 32.011C186.89 32.4707 186.528 32.8597 186.104 33.1779C185.679 33.4961 185.211 33.726 184.698 33.8674C184.203 33.9912 183.699 34.0354 183.186 34C182.674 33.9646 182.17 33.8497 181.675 33.6552C181.197 33.4608 180.755 33.2044 180.349 32.8862V38.9591C180.331 39.3481 180.216 39.6398 180.004 39.8343C179.81 40.0287 179.58 40.1348 179.315 40.1525C179.067 40.1702 178.837 40.0818 178.625 39.8873C178.413 39.7105 178.28 39.4276 178.227 39.0387C178.227 36.0508 178.227 33.0807 178.227 30.1282C178.227 27.1757 178.218 24.1967 178.201 21.1912ZM181.436 23.6044C181.189 23.8343 180.994 24.0994 180.853 24.4C180.711 24.7006 180.605 25.0188 180.534 25.3547C180.464 25.6906 180.42 26.0354 180.402 26.389C180.384 26.7425 180.366 27.0785 180.349 27.3967V27.4497C180.384 28.0155 180.437 28.5724 180.508 29.1204C180.579 29.6685 180.791 30.1812 181.144 30.6586C181.357 30.9591 181.631 31.2155 181.966 31.4276C182.302 31.6398 182.656 31.7812 183.027 31.8519C183.399 31.9227 183.761 31.9138 184.115 31.8254C184.486 31.737 184.804 31.5337 185.069 31.2155C185.529 30.7028 185.847 30.1105 186.024 29.4387C186.218 28.7669 186.316 28.0862 186.316 27.3967C186.316 27.0077 186.28 26.5834 186.21 26.1238C186.139 25.6641 186.015 25.2221 185.838 24.7978C185.662 24.3735 185.423 24.0022 185.122 23.684C184.839 23.3481 184.477 23.1182 184.035 22.9945C183.823 22.9414 183.584 22.9326 183.319 22.968C183.054 22.9856 182.824 23.0122 182.629 23.0475C182.17 23.1006 181.772 23.2862 181.436 23.6044Z" fill="#80BA27"/>
</g>
<defs>
<filter id="filter0_b" x="-35.5699" y="-47.5699" width="139.14" height="151.14" filterUnits="userSpaceOnUse" color-interpolation-filters="sRGB">
<feFlood flood-opacity="0" result="BackgroundImageFix"/>
<feGaussianBlur in="BackgroundImage" stdDeviation="23.785"/>
<feComposite in2="SourceAlpha" operator="in" result="effect1_backgroundBlur"/>
<feBlend mode="normal" in="SourceGraphic" in2="effect1_backgroundBlur" result="shape"/>
</filter>
<clipPath id="clip0">
<rect width="193" height="56" fill="white"/>
</clipPath>
</defs>
</svg>
