<svg width="206" height="85" fill="none" xmlns="http://www.w3.org/2000/svg"><path d="m10.754 74.728-1.672 2.448.874 3.55a5.696 5.696 0 0 1 1.922.042l.658 2.298L4.698 85l-.485-2.34a5.72 5.72 0 0 1 1.682-.931l-3.344-13.57c-2.08.422-2.142-.443-2.41-1.53-.064-.259-.099-.523-.141-.818l7.78-1.92c.162.78.324 1.56.514 2.333-.336.235-.98.699-1.681.933l1.53 6.212 4.99-7.823c-.736.09-1.164-.046-1.635-.112l-.514-2.334 7.036-1.737.486 2.34c-.337.235-.817.627-1.346.818l-4.337 6.902 7.853 6.383 2.272.229.149 2.453c-2.745.678-4.745.443-7.219-1.589l-5.124-4.17ZM20.707 60.723l7.978-1.405.356 2.362c-.346.24-.997.625-1.712.81l4.893 6.054 2.475-7.351a5.29 5.29 0 0 1-1.855-.182l-.356-2.362 7.659-1.35.326 2.368c-.317.236-.988.504-1.703.689l-3.302 9.802c-.51 1.527-.967 3.344-1.842 5.174-1.044 2.22-3.107 3.422-5.937 4.339l-1.228-3.077s2.98-1.423 2.974-1.452c.328-.177.617-.407.843-.657.27-.496.604-1.154.793-1.606l-7.917-9.652c-.736.07-1.595-.05-1.973-.162l-.472-2.342ZM41.658 57.114l8.045-.952.222 2.38c-.36.22-1.031.567-1.755.712l4.543 6.32 2.887-7.2a5.3 5.3 0 0 1-1.843-.286l-.222-2.379 7.723-.914.192 2.383c-.33.217-1.015.446-1.739.592l-3.85 9.6c-.594 1.495-1.154 3.283-2.13 5.061-1.17 2.158-3.296 3.24-6.173 3.997l-1.054-3.142s3.056-1.252 3.053-1.28c.337-.16.638-.374.877-.61.3-.48.669-1.118.884-1.56l-7.362-10.084c-.738.028-1.588-.139-1.96-.273l-.338-2.365ZM62.71 74.61l-.933-3.156s2.94-1.45 2.938-1.479c.671-.522.93-1.87 1.023-2.645.009-.71-.025-1.595-.102-2.683l-.508-7.148c-.74-.035-1.078-.218-1.383-.345l-.257-2.376 16.867-1.2.11 2.387c-.34.202-1.085.521-1.815.632l.99 13.942c.739.007 1.52.217 1.885.369l.258 2.375-8.05.573-.082-2.389a5.711 5.711 0 0 1 1.816-.632l-.99-13.942-5.759.41.618 8.707c.41 5.765-2.06 7.595-6.625 8.6ZM94.294 64.451l-2.176 2.012.062 3.655a5.707 5.707 0 0 1 1.864.47l.128 2.387-8.069.135.047-2.389a5.698 5.698 0 0 1 1.847-.532l-.233-13.973c-2.121-.053-1.99-.91-2.008-2.03-.004-.266.02-.531.046-.827l8.01-.134a63.62 63.62 0 0 0-.02 2.388c-.38.154-1.111.461-1.847.532l.107 6.397 6.61-6.51c-.738-.075-1.125-.305-1.57-.474l.02-2.389 7.245-.121-.049 2.389c-.38.154-.935.429-1.494.497l-5.766 5.758 6.232 7.975 2.163.73-.401 2.425c-2.828.047-4.724-.628-6.682-3.16l-4.066-5.21ZM107.005 72.779l-.609-3.234s3.071-1.145 3.072-1.175c.721-.45 1.115-1.765 1.287-2.527.08-.705.135-1.589.17-2.68l.219-7.16c-.734-.112-1.051-.328-1.341-.484l-.015-2.39 16.901.518-.131 2.386a5.725 5.725 0 0 1-1.871.444l-.428 13.97c.734.081 1.492.37 1.84.557l.015 2.39-8.068-.247.161-2.385a5.714 5.714 0 0 1 1.871-.444l.428-13.97-5.772-.176-.267 8.723c-.176 5.777-2.819 7.348-7.462 7.884ZM129.924 73.654l.278-2.374a5.705 5.705 0 0 1 1.89-.352l1.111-13.932c-2.575-.324-1.975-1.548-1.678-3.033l14.301 1.142-.413 5.174a5.404 5.404 0 0 1-1.125.028c-1.557-.124-1.981-1.105-1.952-2.58l-4.962-.397-.427 5.348 3.406.273c.073-.172.317-1.01.388-1.152l2.342.276-.349 2.516-.03 2.6-2.386-.101c-.073-.184-.155-1.019-.194-1.258l-3.407-.273-.455 5.702 5.404.433c.236-1.49.779-2.364 2.365-2.237.322.026.702.086 1.107.207l-.422 5.29-3.222-.375-11.57-.925ZM156.635 59.257l-.699 5.41 1.607.207c1.899.246 3.593-.22 3.872-2.383.234-1.813-.917-2.794-3.078-3.074a33.49 33.49 0 0 0-1.702-.16Zm-1.072 8.304-.714 5.527c.234.03 2.272.353 2.593.394 1.841.239 3.319-.402 3.56-2.274.231-1.783-.969-3.07-3.482-3.394l-1.957-.253Zm-7.135 7.64.393-2.357a5.716 5.716 0 0 1 1.905-.26l1.789-13.86c-2.092-.36-1.837-1.189-1.693-2.3.034-.263.097-.523.164-.812l3.36.435c.642.083 3.667.356 5.186.552 3.74.484 6.763 2.836 6.351 6.024-.404 3.129-2.644 3.91-4.493 3.968l-.03.234c2.595.84 4.382 2.41 4.031 5.13-.411 3.186-3.364 5.123-7.892 4.538-1.432-.185-3.433-.563-4.426-.692l-4.645-.6ZM168.049 77.838l.523-2.331a5.688 5.688 0 0 1 1.916-.154l2.551-13.742c-2.527-.59-1.804-1.745-1.355-3.191l14.106 2.623-.947 5.103a5.353 5.353 0 0 1-1.123-.09c-1.535-.285-1.856-1.304-1.673-2.77l-4.895-.91-.98 5.276 3.36.625c.091-.163.42-.971.505-1.106l2.301.519-.608 2.466-.299 2.583-2.363-.35c-.054-.19-.049-1.028-.063-1.27l-3.361-.626-1.043 5.625 5.329.991c.39-1.457 1.021-2.27 2.585-1.979.319.06.69.159 1.079.32l-.968 5.22-3.165-.71-11.412-2.122ZM196.8 66.561l-1.501 5.977s1.564.425 1.906.51c2.486.626 4.088-.43 4.54-2.232.488-1.945-.703-3.248-2.503-3.7l-2.442-.555Zm-2.14 8.522-1.264 5.033c.7.237 1.949.825 2.249 1.082l-.496 2.338-8.399-2.112.667-2.295a5.706 5.706 0 0 1 1.922-.034l3.403-13.554c-2.485-.746-1.691-1.854-1.153-3.269l4.028 1.013s3.743.82 4.571 1.028c.115.03.229.058.372.093 4.457 1.122 6.003 4.278 5.264 7.223-.646 2.573-3.094 5.667-8.035 4.423a7.295 7.295 0 0 1-.765-.222c-.315-.08-2.364-.747-2.364-.747ZM10.283 52.255l-.46.676.244.979c.202-.033.424-.013.53.01l.184.634-2.161.54-.136-.646c.083-.07.27-.193.463-.258l-.933-3.741c-.574.118-.591-.12-.666-.42-.018-.072-.028-.144-.04-.225l2.145-.537c.046.216.09.43.144.644-.093.065-.27.193-.464.258l.428 1.713 1.37-2.163c-.203.026-.321-.011-.45-.029l-.145-.643 1.94-.485.136.645c-.093.065-.225.173-.37.226l-1.192 1.908 2.172 1.754.627.062.043.677c-.757.19-1.31.125-1.993-.433l-1.416-1.146ZM14.596 50.816c.266 1.166 1.115 1.816 2.018 1.609.904-.207 1.386-1.16 1.12-2.327-.267-1.166-1.107-1.816-2.018-1.608-.904.207-1.387 1.16-1.12 2.326Zm-1.19.272c-.4-1.753.506-3.011 2.13-3.383 1.625-.371 2.994.367 3.395 2.12.4 1.752-.505 3.01-2.137 3.384-1.641.377-2.987-.368-3.387-2.12ZM20.135 52.344l-.108-.651c.086-.068.278-.182.474-.239l-.552-3.824a1.571 1.571 0 0 1-.53-.032l-.155-.64 1.743-.36 2.103 2.967.122.232.022-.253.86-3.583 1.616-.332.109.65a1.58 1.58 0 0 1-.474.24l.982 3.735c.202-.025.424.005.537.03.043.216.096.43.148.644l-2.15.441c-.037-.216-.073-.433-.117-.649.094-.069.286-.183.482-.24l-.697-2.756-.058-.362-.05.36-.79 3.442-.572.118-2.07-2.89-.132-.238.05.28.449 2.841c.202-.026.424.004.53.032l.155.64-1.927.397ZM29.478 46.276l-.334 1.889L30.6 47.9l-.962-1.653-.122-.308-.032.005-.006.332Zm-1.794 4.536-.094-.652c.081-.056.158-.128.345-.196l.785-4.128-.04.006a.503.503 0 0 1-.479-.408c-.013-.072-.025-.136-.023-.22l1.913-.472 2.528 4.36c.204-.02.336.03.449.06.039.215.087.43.134.645l-2.175.396c-.04-.216-.071-.434-.103-.651.088-.065.29-.177.488-.229l-.4-.696-1.999.363-.06.358a9.389 9.389 0 0 0-.084.438c.202-.02.44.01.552.04.04.216.088.43.134.645l-1.871.342ZM33.858 49.69l-.082-.653a1.58 1.58 0 0 1 .483-.219l-.621-3.804a1.507 1.507 0 0 1-.519-.055l-.13-.646 2.18-.357.09.653a1.65 1.65 0 0 1-.483.22l.242 1.475 2.388-.39-.24-1.477a1.517 1.517 0 0 1-.52-.055l-.13-.646 2.18-.357.09.653a1.53 1.53 0 0 1-.475.217l.622 3.803a1.64 1.64 0 0 1 .527.055l.122.647-2.196.36-.082-.654c.088-.065.284-.17.483-.22l-.253-1.548-2.39.39.254 1.55c.203-.017.423.02.527.053l.13.646-2.197.36ZM42.282 45.612c.132.91-.016 1.531-.368 1.993l1.995-.29-.552-3.815-1.352.196.277 1.916Zm2.625-3.143.079.655a1.645 1.645 0 0 1-.487.21l.552 3.816.7-.101.238 1.814-.643.094c-.063-.09-.228-.781-.277-1.004l-3.877.563c.018.235.071.943.037 1.046l-.653.087-.295-1.806.29-.043c1.084-.395.942-1.665.86-2.229l-.255-1.755a1.626 1.626 0 0 1-.526-.063l-.11-.65 4.367-.634ZM48.57 43.312l-.433 1.867 1.466-.187-.871-1.701-.106-.315-.032.005-.024.33Zm-2.033 4.433-.059-.657c.085-.051.165-.119.355-.176l1.004-4.081-.04.005a.504.504 0 0 1-.457-.434c-.009-.072-.017-.137-.011-.22l1.936-.37 2.292 4.49c.203-.01.333.047.444.082.029.218.064.435.1.652l-2.193.28c-.028-.219-.047-.438-.068-.656.091-.061.3-.162.5-.203l-.362-.717-2.016.257-.078.355c-.039.144-.078.288-.109.432.204-.01.44.034.55.069.028.218.063.434.099.651l-1.887.241ZM55.553 41.12l2.223-.23.051.656c-.1.06-.286.152-.486.19l1.227 1.761.825-1.974a1.482 1.482 0 0 1-.507-.086l-.052-.658 2.134-.221.044.658c-.092.058-.282.12-.482.156l-1.1 2.632c-.17.41-.332.902-.609 1.388-.33.59-.921.88-1.718 1.078l-.278-.87s.848-.334.847-.342a.88.88 0 0 0 .244-.165c.085-.13.19-.305.25-.426l-1.99-2.81a1.679 1.679 0 0 1-.539-.084l-.084-.654ZM61.932 45.969l-.032-.659c.093-.057.298-.148.499-.182l-.105-3.86a1.586 1.586 0 0 1-.521-.093l-.082-.655 1.773-.153 1.744 3.188.093.245.052-.25 1.269-3.456 1.643-.142.033.659a1.564 1.564 0 0 1-.498.182l.54 3.822c.204 0 .422.054.531.094.019.218.046.436.073.654l-2.186.189c-.011-.22-.022-.439-.04-.658.1-.057.305-.149.505-.182l-.373-2.817-.015-.366-.092.35-1.181 3.327-.583.05-1.72-3.108-.103-.252.016.284.117 2.871c.204 0 .42.054.522.094l.08.654-1.959.17ZM69.793 45.302l-.021-.66c.094-.055.3-.142.501-.173l-.265-3.846a1.515 1.515 0 0 1-.513-.104l-.07-.656 2.206-.152.03.658c-.103.056-.3.143-.502.174l.104 1.493 2.416-.167-.103-1.493a1.51 1.51 0 0 1-.512-.103l-.07-.656 2.205-.152.03.658a1.534 1.534 0 0 1-.494.172l.266 3.848c.203.002.411.061.52.102l.063.657-2.223.153-.02-.659c.093-.055.298-.143.5-.173l-.108-1.567-2.417.168.108 1.566c.204.002.42.06.52.103l.07.655-2.221.154ZM81.273 44.594l-.01-.66c.094-.053.302-.137.504-.164l-.2-3.85a1.501 1.501 0 0 1-.51-.113l-.058-.656 2.207-.115c.003.22.006.44.017.659a1.633 1.633 0 0 1-.503.164l.2 3.851c.203.006.417.068.517.111l.058.657-2.222.116Zm-3.167-2.401.09 1.754c.065-.003.7-.02.788-.024.512-.019.874-.428.847-.94-.026-.496-.42-.858-1.116-.822l-.61.032Zm.378-2.911c.01.22.014.439.018.658a1.585 1.585 0 0 1-.505.165l.067 1.283.511-.026c1.931-.1 2.434.794 2.473 1.55.048.941-.641 1.76-1.9 1.825-.396.02-1.014.02-1.3.035-.023 0-.048.002-.072.004l-1.217.063-.01-.66c.094-.053.302-.137.504-.164l-.2-3.85c-.716.004-.596-.352-.569-.769l2.2-.114ZM90.031 44.25l-2.436.085.003-.66c.095-.052.287-.132.49-.155l-1.08-1.33-1.007 1.403c.203.009.401.075.5.12l.007.66-1.916.067.001-.66c.096-.052.215-.13.417-.153l1.498-2.03-1.51-1.828a1.678 1.678 0 0 1-.533-.12l-.04-.657 2.413-.084.006.659a1.465 1.465 0 0 1-.49.155l.993 1.203.923-1.27a1.57 1.57 0 0 1-.508-.12l-.008-.66 1.868-.064.007.658c-.105.053-.223.13-.425.154l-1.374 1.88 1.63 1.969c.203.01.425.075.532.12l.04.658ZM101.072 38.585l2.235.003-.017.66a1.585 1.585 0 0 1-.505.137l1.039 1.881 1.026-1.878a1.454 1.454 0 0 1-.495-.139l.017-.658 2.146.003-.026.66c-.098.047-.292.088-.495.104l-1.37 2.504c-.212.39-.424.861-.751 1.316-.39.553-1.008.78-1.821.892l-.186-.895s.878-.242.878-.251a.893.893 0 0 0 .261-.138 5.54 5.54 0 0 0 .293-.398l-1.686-3.005a1.683 1.683 0 0 1-.528-.14l-.015-.658ZM108.644 39.455l-.02 1.505.447.006c.528.007.978-.174.987-.776.007-.504-.34-.737-.942-.745a9.518 9.518 0 0 0-.472.01Zm-.031 2.31-.021 1.538c.064 0 .634.025.723.026.512.007.897-.215.904-.736.007-.496-.363-.81-1.061-.82l-.545-.008Zm-1.715 2.32.033-.659c.098-.047.311-.117.515-.13l.053-3.857c-.585-.033-.542-.268-.538-.577.002-.073.011-.147.02-.228l.935.013c.179.003 1.016-.018 1.439-.013 1.041.015 1.944.564 1.932 1.451-.013.87-.602 1.155-1.107 1.23l-.001.065c.738.148 1.278.522 1.267 1.278-.012.888-.761 1.512-2.021 1.495-.398-.006-.958-.046-1.235-.05l-1.292-.018ZM112.183 44.153l-.171-.892s.845-.319.845-.327c.198-.125.306-.488.352-.698.022-.195.036-.44.044-.74l.054-1.975c-.204-.03-.291-.09-.371-.132l-.007-.66 4.662.126-.034.658a1.578 1.578 0 0 1-.515.124l-.103 3.854c.202.022.411.1.508.151l.007.66-2.225-.06.041-.658c.099-.046.312-.114.516-.124l.103-3.854-1.592-.043-.064 2.407c-.044 1.594-.77 2.03-2.05 2.183ZM118.291 44.332l.05-.657c.099-.045.313-.11.517-.118l.15-3.854c-.714-.06-.562-.404-.497-.817l3.956.154-.056 1.431c-.115.02-.221.024-.31.02-.43-.016-.559-.282-.567-.69l-1.373-.053-.057 1.48.942.036c.018-.048.076-.282.094-.321l.649.05-.068.697.021.717-.659-.001c-.023-.05-.054-.28-.068-.345l-.942-.036-.061 1.577 1.494.058c.049-.413.188-.66.627-.643.089.003.194.015.308.044l-.058 1.463-.892-.067-3.2-.125ZM125.51 39.188c-.011.22-.03.438-.05.657-.1.044-.307.106-.51.112l-.047.902c-.05.804.269 1.243 1.023 1.283.374.019.756-.132 1.118-.366l.089-1.706a1.51 1.51 0 0 1-.496-.164l.009-.66 2.208.116c-.011.22-.031.438-.05.657-.1.043-.307.106-.511.112l-.199 3.85c.201.027.4.11.503.164l-.017.66-2.378-.124c.011-.22.03-.438.05-.657.1-.043.477-.097.681-.103l.065-1.251c-.426.206-.812.292-1.21.271-1.177-.061-2.12-.721-2.054-1.989l.055-1.056a1.5 1.5 0 0 1-.496-.164l.01-.659 2.207.115ZM129.439 44.86l.068-.656c.1-.043.316-.102.519-.105l.25-3.847c-.711-.079-.55-.419-.475-.83l3.949.257-.093 1.428a1.41 1.41 0 0 1-.31.013c-.43-.028-.55-.296-.548-.704l-1.371-.09-.096 1.478.941.061c.019-.047.083-.28.102-.32l.647.067-.086.696.002.717-.658-.018c-.021-.05-.047-.28-.059-.346l-.941-.062-.102 1.575 1.492.097c.06-.412.205-.655.643-.626.089.006.195.02.307.052l-.095 1.461-.891-.09-3.195-.208ZM134.32 45.176l.076-.654c.101-.041.318-.098.521-.098l.304-3.844a1.517 1.517 0 0 1-.492-.178l.027-.659 2.205.174-.069.656a1.64 1.64 0 0 1-.521.098l-.118 1.492 2.415.19.117-1.492a1.516 1.516 0 0 1-.491-.178l.027-.658 2.205.174-.069.655a1.508 1.508 0 0 1-.513.098l-.303 3.845c.201.032.398.12.5.178l-.036.658-2.22-.175.076-.655c.102-.041.318-.098.521-.098l.124-1.565-2.414-.19-.124 1.564c.202.033.406.122.499.179l-.027.659-2.22-.176ZM140.949 45.706l.087-.654c.102-.04.32-.091.523-.089l.365-3.837a1.518 1.518 0 0 1-.488-.186l.038-.658 2.201.21-.079.654c-.11.039-.32.092-.523.09l-.142 1.489 2.411.23.141-1.49a1.53 1.53 0 0 1-.488-.185l.039-.659 2.199.21-.078.655c-.102.04-.31.093-.514.09l-.366 3.837c.201.036.396.128.496.186l-.046.658-2.216-.212.087-.653c.101-.04.319-.092.522-.09l.149-1.562-2.411-.23-.148 1.563c.201.035.404.128.496.186l-.038.658-2.217-.211ZM152.405 46.886l.099-.652c.102-.038.32-.087.524-.08l.434-3.832a1.516 1.516 0 0 1-.485-.194l.05-.657 2.197.249c-.033.218-.066.434-.091.653a1.62 1.62 0 0 1-.524.08l-.434 3.831c.2.039.402.136.493.196l-.049.657-2.214-.251Zm-2.732-2.89-.198 1.746c.065.008.693.096.782.106.509.066.932-.28.989-.789.057-.493-.273-.915-.967-.993l-.606-.07Zm.85-2.81c-.024.219-.057.436-.09.654a1.58 1.58 0 0 1-.525.08l-.144 1.276.508.058c1.923.218 2.271 1.183 2.186 1.935-.106.937-.92 1.63-2.173 1.489-.395-.045-1.005-.147-1.288-.18l-.073-.007-1.211-.138.098-.652a1.58 1.58 0 0 1 .525-.08l.434-3.83c-.707-.114-.53-.446-.435-.853l2.188.248ZM161.112 47.998l-2.417-.32.111-.65c.102-.036.306-.083.509-.072l-.843-1.49-1.226 1.215c.198.043.382.141.473.202l-.103.651-1.901-.252.11-.65c.103-.035.233-.092.437-.081l1.815-1.753-1.188-2.053a1.712 1.712 0 0 1-.506-.207l.07-.655 2.393.317-.103.651a1.46 1.46 0 0 1-.509.072l.781 1.35 1.121-1.098a1.584 1.584 0 0 1-.482-.203l.102-.651 1.853.245-.102.651c-.11.035-.241.092-.445.081l-1.666 1.625 1.281 2.213c.2.043.407.144.505.207l-.07.655ZM165.348 48.614l-.053-.907s.88-.204.883-.212c.212-.098.366-.444.44-.646.047-.19.093-.43.141-.727l.312-1.952c-.197-.056-.276-.126-.35-.18l.08-.654 4.606.738-.121.648a1.573 1.573 0 0 1-.527.056l-.609 3.806c.199.048.395.154.483.218l-.079.654-2.199-.352.128-.646c.104-.033.325-.072.528-.056l.608-3.807-1.571-.252-.381 2.378c-.252 1.573-1.03 1.91-2.319 1.893ZM175.786 47.614c-.214 1.176.319 2.108 1.223 2.274.92.166 1.73-.52 1.944-1.697.214-1.177-.294-2.105-1.222-2.274-.911-.166-1.73.52-1.945 1.697Zm-1.256.184-.96-.175-.272 1.497c.197.053.392.162.479.228l-.094.653-2.191-.4.142-.643c.105-.03.326-.066.529-.045l.69-3.794a1.509 1.509 0 0 1-.471-.226l.094-.653 2.175.396c-.039.216-.087.431-.134.646-.105.03-.326.065-.528.044l-.273 1.497.96.175c.444-1.49 1.696-2.147 3.207-1.872 1.64.299 2.6 1.516 2.278 3.284-.321 1.77-1.649 2.57-3.288 2.27-1.528-.277-2.46-1.332-2.343-2.882ZM182.783 48.979c-.186.9-.535 1.434-1.023 1.748l1.972.407.778-3.775-1.337-.276-.39 1.896Zm3.535-2.061-.148.642a1.627 1.627 0 0 1-.529.032l-.778 3.775.692.143-.392 1.787-.637-.131c-.028-.106.05-.811.081-1.037l-3.836-.792c-.063.227-.254.91-.321.996l-.643-.14.337-1.8.286.06c1.154-.003 1.452-1.246 1.567-1.803l.357-1.736a1.629 1.629 0 0 1-.474-.24l.117-.647 4.321.89ZM186.244 52.483l.168-.638c.106-.025.328-.05.53-.02l.849-3.761c-.689-.19-.478-.5-.339-.894l3.86.873-.316 1.397a1.483 1.483 0 0 1-.308-.037c-.42-.095-.497-.38-.432-.781l-1.339-.303-.327 1.443.92.208c.027-.044.126-.263.151-.3l.629.168-.194.674-.11.708-.648-.121c-.013-.053-.002-.284-.004-.351l-.919-.209-.348 1.54 1.458.33c.124-.398.306-.615.735-.518.086.02.187.05.293.1l-.323 1.427-.864-.229-3.122-.706ZM196.922 47.6c-.225.672-.838.922-1.469.766-.639-.158-1.081-.67-.947-1.382l.705.024c-.022.43.163.593.415.656.253.063.479-.007.671-.379l.625.314Zm-5.725 6.002.182-.633a1.56 1.56 0 0 1 .529-.011l.925-3.741a1.518 1.518 0 0 1-.456-.255l.134-.646 2.145.531-.173.636a1.64 1.64 0 0 1-.53.01l-.552 2.234 2.826-1.344.075-.307a1.53 1.53 0 0 1-.456-.256l.135-.645 2.145.531-.174.636a1.52 1.52 0 0 1-.522.013l-.924 3.74c.193.065.373.185.464.257l-.143.644-2.16-.535.181-.633c.107-.024.329-.045.53-.012l.566-2.288-2.826 1.344-.089.363c.192.064.381.186.464.257l-.135.645-2.161-.535ZM127.564 81.144H78.063v-.864h49.501v.864ZM97.782 8.611c-.35 0-.611.062-.768.178-1.097.814-.3 6.046 3.27 14.217 5.773-.29 10.069-1.667 10.575-3.43.508-1.766-2.135-5.198-6.147-7.983-3.052-2.119-5.618-2.982-6.93-2.982Zm.848 17.047-.355-.79C93.753 14.79 92.81 8.68 95.471 6.705c2.406-1.784 7.113.254 10.717 2.757 6.314 4.383 7.839 8.468 7.161 10.83-.532 1.852-3.039 5.008-13.853 5.339l-.866.026Z" fill="#fff"/><path d="M100.787 2.584c-1.913 0-4.885.922-8.06 2.942-5.78 3.68-7.347 7.593-6.933 9.826.674 3.642 6.15 6.834 12.906 7.607 5.148-10.355 6.003-18.383 3.789-19.968-.374-.268-.958-.407-1.702-.407Zm-.573 23.114-.864-.07c-8.544-.705-15.164-4.736-16.102-9.803-.895-4.837 3.59-9.621 8.089-12.486 4.24-2.7 9.799-4.505 12.66-2.456 3.252 2.33 3.466 10.667-3.388 24.044l-.395.771Z" fill="#fff"/><path d="M90.123 16.824a.83.83 0 0 0-.33.059c-.639.275-1.555 2.09-1.613 4.781-.046 2.066.515 4.774 2.24 5.608 1.783.86 5.034-.083 7.473-3.028-3.208-5.214-6.433-7.42-7.77-7.42Zm1.734 13.34c-.912 0-1.78-.18-2.563-.558-2.401-1.16-3.786-4.15-3.703-7.998.058-2.672.926-6.136 3.18-7.107 3.037-1.306 7.893 2.468 11.804 9.182l.423.724-.488.683c-2.265 3.168-5.681 5.073-8.653 5.073Z" fill="#fff"/><path d="M101.122 24.529c2.419 3.31 6.922 4.555 10.481 2.753 3.749-1.898 4.294-6.095 4.372-7.336.152-2.43-.54-4.038-1.081-4.403-1.255-.85-6.078 1.626-13.772 8.986Zm6.997 6.164c-3.873 0-7.728-2.095-9.788-5.716l-.495-.87.717-.7c8.86-8.635 14.845-12.003 17.791-10.013 1.537 1.04 2.407 3.675 2.217 6.714-.267 4.24-2.431 7.787-5.789 9.488a10.27 10.27 0 0 1-4.653 1.097Z" fill="#fff"/><path d="M95.364 48.46c-1.274-4-1.572-7.582-1.148-11.742a30.581 30.581 0 0 1 4.476-13.034l2.196 1.375a27.974 27.974 0 0 0-4.094 11.922c-.388 3.805.067 7.747 1.233 11.407l-2.663.073Z" fill="#fff"/></svg>