<svg width="226" height="32" fill="none" xmlns="http://www.w3.org/2000/svg"><g clip-path="url(#a)"><ellipse cx="13.757" cy="16" rx="13.757" ry="14" fill="#80BA27"/><path fill-rule="evenodd" clip-rule="evenodd" d="M21.888 16.098c-.04.605-.318 2.652-2.227 3.577-1.624.787-3.63.38-4.916-.873 4.449-.341 5.556-1.705 5.805-2.535.166-.552.069-1.3-.429-2.164.593-.243 1.006-.287 1.216-.15.276.177.628.961.55 2.145ZM8.882 19.671c-.807-.373-1.11-1.513-1.138-2.477 1.18.716 2.7 1.25 4.424 1.522-1.154 1.02-2.5 1.318-3.286.955Zm3.275-2.24c-1.728-.306-3.233-.91-4.257-1.677.172-.643.444-1.06.658-1.147a.439.439 0 0 1 .168-.03c.607 0 1.982.862 3.431 2.854Zm-5.648-3.57c-.21-1.09.589-2.997 3.532-4.791 1.617-.985 3.13-1.434 4.104-1.434.379 0 .676.067.867.198.458.314.653 1.155.553 2.372-1.544-.793-3.183-1.231-4.127-.56-.94.667-.995 2.308-.171 4.891-1.206-1.024-2.37-1.45-3.24-1.092-.525.216-.9.687-1.158 1.258a2.394 2.394 0 0 1-.36-.843Zm5.72-3.2c.08-.057.214-.088.392-.088.552 0 1.544.295 2.748.978-.301 1.438-.905 3.202-1.857 5.17-1.488-3.481-1.799-5.694-1.282-6.06Zm7.048 5.258c-.215.717-1.777 1.302-3.997 1.558 1.475-1.282 2.71-2.193 3.678-2.775.291.477.413.902.319 1.217Zm-1.11-2.226c-.815.489-1.727 1.144-2.737 1.97.52-1.234.895-2.356 1.131-3.351.625.448 1.17.921 1.606 1.381Zm3.905-.788c-.63-.408-1.537-.348-2.709.164-.58-.66-1.38-1.362-2.462-2.08l-.088-.057c.274-2.13-.162-3.532-1.029-4.127-1.456-.998-4.287-.117-6.446 1.198-2.291 1.397-4.577 3.73-4.12 6.086.15.776.585 1.501 1.246 2.142-.03.232-.048.46-.052.679-.043 1.875.663 3.333 1.886 3.899.398.184.842.271 1.305.271.693 0 1.43-.202 2.14-.562a14.312 14.312 0 0 0-.94 3.758c-.215 2.028-.063 3.773.585 5.724l1.356-.035c-.593-1.785-.825-3.707-.627-5.561.18-1.692.708-3.355 1.53-4.872a5.9 5.9 0 0 0 4.237 1.806c.81 0 1.62-.172 2.37-.535 1.71-.829 2.812-2.558 2.947-4.625.098-1.482-.346-2.767-1.129-3.273Z" fill="#fff"/></g><path d="m43.479 16.95-1.26 1.871.659 2.713a4.234 4.234 0 0 1 1.448.032l.496 1.756-5.907 1.478-.366-1.788c.227-.196.74-.533 1.268-.712l-2.52-10.369c-1.569.323-1.615-.338-1.817-1.17-.048-.197-.074-.399-.106-.624l5.864-1.467c.122.596.243 1.192.387 1.783-.253.18-.74.533-1.267.712l1.153 4.747 3.761-5.977c-.555.068-.877-.036-1.232-.086l-.388-1.784 5.303-1.327.366 1.789c-.254.179-.616.479-1.014.624l-3.269 5.274 5.918 4.878 1.712.175.113 1.874c-2.07.518-3.576.339-5.44-1.214l-3.862-3.187ZM50.98 6.249l6.013-1.074.268 1.805c-.26.184-.751.477-1.29.619l3.688 4.626 1.865-5.618a3.934 3.934 0 0 1-1.398-.138l-.268-1.805 5.772-1.032.246 1.81c-.24.18-.745.384-1.284.526l-2.488 7.49c-.384 1.167-.73 2.555-1.388 3.954-.788 1.696-2.343 2.615-4.475 3.316l-.926-2.352s2.246-1.087 2.242-1.11c.247-.134.465-.31.635-.501.204-.38.455-.882.598-1.228l-5.967-7.375c-.555.053-1.202-.038-1.487-.124l-.355-1.79ZM66.77 3.492l6.062-.728L73 4.582c-.272.169-.778.434-1.323.544l3.424 4.83 2.175-5.501a3.944 3.944 0 0 1-1.388-.22l-.168-1.817 5.82-.698.146 1.82c-.249.166-.765.341-1.31.452l-2.903 7.336c-.447 1.143-.87 2.51-1.605 3.868-.881 1.649-2.484 2.476-4.652 3.054l-.794-2.4s2.303-.957 2.3-.98c.255-.121.482-.285.661-.465.226-.367.505-.854.666-1.191l-5.548-7.707c-.556.022-1.196-.106-1.477-.208l-.255-1.807ZM82.635 16.86l-.703-2.411s2.215-1.109 2.213-1.13c.507-.4.702-1.43.771-2.022a25.845 25.845 0 0 0-.076-2.05l-.383-5.462c-.558-.027-.813-.167-1.042-.263l-.194-1.816L95.933.79l.083 1.824a4.268 4.268 0 0 1-1.368.483l.746 10.653a4.233 4.233 0 0 1 1.42.282l.195 1.815-6.067.438-.061-1.825a4.266 4.266 0 0 1 1.368-.483l-.746-10.654-4.34.314.465 6.653c.309 4.405-1.552 5.804-4.993 6.572ZM106.44 9.098l-1.64 1.537.046 2.793a4.254 4.254 0 0 1 1.405.36l.096 1.824-6.08.103.035-1.826c.265-.14.838-.352 1.392-.407l-.176-10.677c-1.599-.04-1.499-.696-1.513-1.552-.003-.202.016-.405.034-.63l6.037-.104a48.297 48.297 0 0 0-.015 1.825c-.286.118-.837.353-1.392.407l.081 4.888 4.982-4.974c-.556-.058-.848-.233-1.184-.363l.015-1.825 5.46-.093-.036 1.826c-.287.118-.705.327-1.126.38l-4.346 4.4 4.697 6.093 1.63.559-.302 1.852c-2.131.037-3.561-.48-5.036-2.415l-3.064-3.981ZM116.018 15.461l-.458-2.471s2.314-.875 2.315-.898c.543-.343.84-1.349.969-1.93.06-.54.102-1.215.128-2.048l.165-5.473c-.552-.085-.792-.25-1.01-.37l-.012-1.826 12.738.397-.099 1.822a4.266 4.266 0 0 1-1.41.34l-.322 10.675a4.263 4.263 0 0 1 1.386.426l.012 1.827-6.081-.19.122-1.822c.27-.127.854-.312 1.41-.34l.322-10.674-4.35-.135-.201 6.666c-.133 4.414-2.125 5.615-5.624 6.024ZM133.292 16.13l.209-1.814c.277-.113.868-.27 1.425-.27l.838-10.645c-1.941-.247-1.489-1.183-1.266-2.318l10.779.873-.312 3.954a4.006 4.006 0 0 1-.847.021c-1.174-.095-1.493-.844-1.471-1.972l-3.74-.303-.322 4.087 2.567.208c.055-.13.239-.772.293-.88l1.764.211-.262 1.923-.023 1.987-1.798-.078c-.055-.14-.117-.778-.147-.961l-2.567-.208-.343 4.357 4.072.33c.179-1.139.587-1.806 1.783-1.709.243.02.529.066.834.158l-.318 4.043-2.428-.287-8.72-.707ZM153.422 5.129l-.526 4.133 1.211.16c1.431.187 2.708-.168 2.918-1.822.177-1.385-.691-2.135-2.32-2.349-.375-.049-.883-.093-1.283-.122Zm-.807 6.346-.538 4.223c.176.023 1.712.27 1.954.301 1.387.182 2.501-.307 2.683-1.738.174-1.362-.73-2.345-2.625-2.593l-1.474-.193Zm-5.378 5.837.297-1.801c.281-.1.879-.225 1.435-.198l1.349-10.591c-1.577-.276-1.384-.909-1.276-1.758.025-.2.073-.4.124-.62l2.531.332c.485.064 2.764.272 3.909.422 2.818.37 5.097 2.167 4.786 4.603-.304 2.39-1.992 2.987-3.386 3.032l-.022.179c1.955.642 3.302 1.841 3.038 3.92-.31 2.435-2.536 3.915-5.948 3.467-1.079-.14-2.587-.43-3.335-.528l-3.502-.459ZM162.024 19.327l.395-1.781a4.23 4.23 0 0 1 1.444-.118l1.922-10.5c-1.904-.451-1.359-1.334-1.021-2.44l10.631 2.005-.714 3.9a3.978 3.978 0 0 1-.846-.069c-1.157-.217-1.398-.997-1.261-2.116l-3.689-.696-.738 4.032 2.532.477c.068-.124.316-.742.38-.845l1.735.396-.459 1.885-.225 1.974-1.781-.267c-.041-.145-.037-.786-.047-.972l-2.533-.477-.786 4.298 4.016.757c.294-1.113.769-1.734 1.948-1.512.24.046.52.121.813.245l-.73 3.988-2.385-.542-8.601-1.622ZM183.692 10.71l-1.131 4.567s1.179.324 1.437.39c1.873.478 3.08-.33 3.421-1.706.368-1.486-.53-2.482-1.887-2.828l-1.84-.423Zm-1.612 6.512-.953 3.846c.527.18 1.469.63 1.695.827l-.374 1.786-6.33-1.614.503-1.753c.291-.066.899-.12 1.449-.026l2.564-10.358c-1.873-.57-1.274-1.416-.869-2.498l3.036.774s2.821.627 3.445.786l.28.071c3.359.857 4.524 3.269 3.967 5.52-.487 1.966-2.331 4.33-6.056 3.38-.194-.05-.388-.1-.576-.17a78.58 78.58 0 0 1-1.781-.571Z" fill="#80BA27"/><g clip-path="url(#b)"><ellipse cx="212.244" cy="16" rx="13.757" ry="14" fill="#80BA27"/><path fill-rule="evenodd" clip-rule="evenodd" d="M220.375 16.098c-.04.605-.317 2.652-2.227 3.577-1.624.787-3.629.38-4.916-.873 4.449-.341 5.557-1.705 5.805-2.535.166-.552.069-1.3-.429-2.164.593-.243 1.006-.287 1.216-.15.276.177.629.961.551 2.145Zm-13.006 3.573c-.807-.373-1.11-1.513-1.137-2.477 1.179.716 2.699 1.25 4.423 1.522-1.154 1.02-2.5 1.318-3.286.955Zm3.276-2.24c-1.729-.306-3.234-.91-4.258-1.677.172-.643.444-1.06.658-1.147a.44.44 0 0 1 .168-.03c.608 0 1.982.862 3.432 2.854Zm-5.648-3.57c-.211-1.09.588-2.997 3.532-4.791 1.616-.985 3.129-1.434 4.103-1.434.379 0 .677.067.867.198.459.314.653 1.155.553 2.372-1.543-.793-3.183-1.231-4.127-.56-.94.667-.994 2.308-.171 4.891-1.206-1.024-2.37-1.45-3.24-1.092-.524.216-.9.687-1.158 1.258a2.4 2.4 0 0 1-.359-.843Zm5.72-3.2c.08-.057.213-.088.391-.088.552 0 1.544.295 2.748.978-.301 1.438-.905 3.202-1.857 5.17-1.487-3.481-1.799-5.694-1.282-6.06Zm7.047 5.258c-.215.717-1.777 1.302-3.997 1.558 1.475-1.282 2.71-2.193 3.679-2.775.29.477.413.902.318 1.217Zm-1.109-2.226c-.815.489-1.727 1.144-2.738 1.97.519-1.234.895-2.356 1.131-3.351.625.448 1.17.921 1.607 1.381Zm3.905-.788c-.631-.408-1.538-.348-2.71.164-.579-.66-1.38-1.362-2.462-2.08-.029-.02-.059-.038-.088-.057.274-2.13-.162-3.532-1.028-4.127-1.457-.998-4.288-.117-6.446 1.198-2.292 1.397-4.577 3.73-4.121 6.086.15.776.585 1.501 1.246 2.142-.03.232-.047.46-.052.679-.042 1.875.663 3.333 1.887 3.899.398.184.841.271 1.305.271.692 0 1.43-.202 2.139-.562a14.347 14.347 0 0 0-.939 3.758c-.215 2.028-.064 3.773.585 5.724l1.355-.035c-.593-1.785-.825-3.707-.627-5.561.18-1.692.708-3.355 1.53-4.872a5.9 5.9 0 0 0 4.237 1.806c.809 0 1.62-.172 2.37-.535 1.71-.829 2.812-2.558 2.948-4.625.097-1.482-.346-2.767-1.129-3.273Z" fill="#fff"/></g><defs><clipPath id="a"><path fill="#fff" transform="translate(0 2)" d="M0 0h27.513v28H0z"/></clipPath><clipPath id="b"><path fill="#fff" transform="translate(198.487 2)" d="M0 0h27.513v28H0z"/></clipPath></defs></svg>