<svg width="16" height="16" fill="none" xmlns="http://www.w3.org/2000/svg"><mask id="a" mask-type="alpha" maskUnits="userSpaceOnUse" x="0" y="0" width="16" height="16"><path fill-rule="evenodd" clip-rule="evenodd" d="M0 0h16v16H0V0Z" fill="#fff"/></mask><g mask="url(#a)"><path fill-rule="evenodd" clip-rule="evenodd" d="M16 8A8 8 0 1 1 0 8a8 8 0 0 1 16 0Z" fill="#781D14"/></g><path fill-rule="evenodd" clip-rule="evenodd" d="M8.91 5.17s-.192-.187-.565-.118l-.064.109.025.108.083-.135s.031-.01.082-.016a.22.22 0 0 0-.029.098.23.23 0 0 0 .03.12 2.004 2.004 0 0 0-.132.018c.087.081.538.004.538.004a.389.389 0 0 0-.166-.034.21.21 0 0 0 .026-.091l-.002-.021c-.028.01-.062-.02-.076-.07l-.004-.021a.73.73 0 0 1 .274.097l-.02-.049ZM7.804 5.265l.025-.108-.064-.108c-.374-.068-.564.12-.564.12l-.02.048a.726.726 0 0 1 .253-.095l-.027.008a.236.236 0 0 0-.02.1.22.22 0 0 0 .026.091.372.372 0 0 0-.163.035s.434.076.517-.005c0 0-.048-.01-.115-.017a.233.233 0 0 0 .03-.122c-.027.012-.061-.013-.079-.06a.141.141 0 0 1-.008-.041c.08.004.13.02.13.02l.08.134ZM9.03 4.906c-.265-.178-.701-.17-.701-.17l-.048.168c.35-.07.768.101.768.101l-.018-.1ZM7.782 4.734s-.436-.01-.702.168l-.019.1s.418-.17.77-.099l-.049-.169Z" fill="#fff"/><path fill-rule="evenodd" clip-rule="evenodd" d="M7.576 6.408s.141.134.463.135c.321 0 .473-.132.473-.132l.067.07s-.07.034-.12.104c-.05.07-.14.168-.42.167-.28 0-.38-.135-.429-.204-.05-.07-.103-.076-.103-.076s.07-.076.07-.064Zm-.188 1.676c.294.022.421-.033.644-.045h.013c.223.014.35.069.644.049.762-.023 1.397-.755.861-2.19a2.239 2.239 0 0 1-.04-.116c.203-.046-.042-.31.053-.603.092-.284 0-.336-.096-.328H9.45c.023-.212.057-.375.057-.495.004-.83-.46-1.025-1.011-.995.165.315-.083.95.39 1.106.169.056.302.218.295.494-.01.375.176.616.146.907-.013.12-.036.243-.07.356-.128.11-.302.222-.467.072-.222-.202-.417-.256-.553-.262a.38.38 0 0 1 .149-.026c.164 0 .122-.23.122-.23l-.096-.045c.027.13 0 .166-.058.15-.057-.015-.058-.035-.062-.075-.006-.04-.07-.216-.06-.115.01.1-.001.165-.031.225s-.151.06-.151.06c-.09 0-.186-.025-.221-.07-.035-.046-.05-.05-.108-.036-.057.015-.04-.156-.04-.156l-.092.06s-.043.23.12.23c.07 0 .111.013.148.027-.135.003-.334.055-.561.26-.165.148-.338.037-.464-.072a1.871 1.871 0 0 1-.07-.358c-.03-.29.158-.532.15-.907-.01-.406.743-.393 1.053-.465.476-.141.549-.796.43-1.13-.123-.331-.517-.756-1.382-.499 0 0 .285.248-.129.685-.186.149-.296.399-.296.803 0 .12.033.283.055.494h-.027c-.094-.007-.189.043-.098.329.095.298-.16.564.06.605-.016.049-.031.09-.04.114-.543 1.432.09 2.167.851 2.192ZM7.97 12.105a.48.48 0 1 1 0-.96.48.48 0 0 1 0 .96Zm1.027 2.262h2.9l-.022-.922c-.094-.062-.422-.165-.618-.18l-.21-3.989c.196-.015.524-.117.618-.18.008-.305.015-.61.031-.922L9.4 8.173l-1.307 2.021-.131.235-.15-.243-1.134-2.014H4.295c.007.313.015.617.03.923.086.062.423.164.619.18l-.19 3.988c-.195.016-.524.117-.618.18l-.023.922 2.796.001a36.78 36.78 0 0 1-.03-.922c-.095-.063-.423-.165-.618-.18l.078-1.867.063.097 1.558 2.219 1.538-2.187.102-.16-.016.313.055 1.585c-.196.016-.524.118-.618.18l-.024.923ZM3.655 3.733l-.08-.103a.598.598 0 0 1 .085-.106l-.49-.586a.593.593 0 0 1-.119.064l-.087-.097.908-.76.082.102a.574.574 0 0 1-.085.106l.49.585c.033-.023.099-.06.121-.065l.087.097-.388.325-.08-.103a.6.6 0 0 1 .085-.107l-.49-.585-.348.291.49.586c.033-.024.099-.06.12-.065l.087.097-.388.324ZM4.549 1.93l.163.293.095-.05c.123-.068.147-.17.098-.26-.053-.095-.15-.102-.238-.053l-.118.07Zm.234.419.138.247a.948.948 0 0 1 .158-.056l.067.112-.47.26-.06-.116a.578.578 0 0 1 .105-.088L4.35 2.04c-.127.063-.165.004-.197-.072l.227-.126.22-.13.019-.01c.22-.122.399-.054.48.09.07.128.088.342-.156.478a.453.453 0 0 1-.038.019c-.016.009-.122.059-.122.059ZM5.591 1.845c.076.224.256.335.43.277.174-.059.25-.256.174-.48-.076-.225-.254-.336-.43-.277-.174.06-.25.256-.174.48Zm-.23.078c-.113-.337.04-.603.353-.709.313-.105.598.013.711.35.114.337-.04.603-.353.709-.316.106-.596-.013-.71-.35ZM7.096 1.461c.023.181-.01.303-.082.393l.397-.049-.093-.758-.268.033.046.381Zm.566-.615.013.13a.61.61 0 0 1-.13.043l.094.759.155-.02.04.361-.128.016a1.34 1.34 0 0 1-.051-.2l-.803.099c.002.046.01.187.003.207l-.13.014-.05-.359.073-.009c.216-.074.193-.326.18-.438L6.885 1.1a.607.607 0 0 1-.136-.01l-.02-.13.933-.114ZM7.963.833l.506.035-.012.13a.578.578 0 0 1-.134.018l.2.429.209-.4a.55.55 0 0 1-.129-.038l.013-.13.434.03-.014.13a.43.43 0 0 1-.12.02l-.336.602c-.128.21-.207.281-.39.298l-.105-.204c.013-.018.054-.032.096-.03.032.003.065.016.082.05.05-.015.099-.049.193-.21l.005-.01-.111-.007L8.092 1a.621.621 0 0 1-.135-.037l.006-.13ZM9.649 1.683l-.145.073-.052.193a.585.585 0 0 1 .123.061l-.03.127-.488-.13.038-.125a.597.597 0 0 1 .136.008l.198-.738c-.11-.035-.122-.086-.106-.145a.3.3 0 0 1 .015-.043l.485.13c-.013.041-.026.083-.037.125a.728.728 0 0 1-.136-.008l-.09.338.445-.243a.583.583 0 0 1-.107-.057l.037-.125.445.12-.038.124a.627.627 0 0 1-.117-.005l-.39.216.23.564.102.07-.057.122a.404.404 0 0 1-.304-.266l-.157-.386ZM10.51 1.642l.135-.294.867.414-.145.29-.121-.047c0-.022.039-.132.054-.17l-.188-.085-.329.686c.036.02.096.066.11.083l-.053.12-.456-.219.06-.116c.022 0 .095.019.133.033l.328-.686-.184-.092a.808.808 0 0 1-.098.148l-.114-.065ZM11.872 3.332l.084-.1a.59.59 0 0 1 .122.06l.466-.604a.566.566 0 0 1-.088-.102l.076-.106.397.306c-.027.034-.056.068-.082.102a.637.637 0 0 1-.123-.06l-.465.603c.03.028.08.084.09.104l-.077.106-.4-.309Zm-.141-.749-.213.275.122.098c.08.063.186.048.248-.032.06-.077.048-.183-.062-.267l-.095-.074Zm.457-.369a2.601 2.601 0 0 1-.083.102.588.588 0 0 1-.122-.06l-.155.201.08.062c.303.234.263.433.172.551-.114.148-.323.182-.52.03-.063-.048-.156-.128-.2-.163l-.011-.009-.217-.167.083-.1a.58.58 0 0 1 .123.06l.465-.603c-.108-.092-.069-.15-.012-.209l.397.305Z" fill="#fff"/></svg>