<svg width="194" height="92" fill="none" xmlns="http://www.w3.org/2000/svg"><path d="m10.128 70.877-1.575 2.322.823 3.367a5.316 5.316 0 0 1 1.81.038l.62 2.18-7.38 1.836-.459-2.22a5.347 5.347 0 0 1 1.585-.883l-3.15-12.87c-1.959.4-2.017-.42-2.27-1.453-.06-.244-.092-.496-.132-.775l7.326-1.82c.153.74.305 1.48.485 2.213-.316.222-.924.661-1.583.883l1.44 5.893 4.7-7.42c-.693.086-1.096-.045-1.54-.106l-.484-2.215 6.627-1.645.457 2.22c-.317.222-.77.593-1.268.774l-4.085 6.547 7.396 6.054 2.14.216.14 2.326c-2.585.644-4.469.421-6.798-1.505l-4.825-3.957ZM19.502 57.594l7.514-1.334.335 2.241c-.327.228-.94.593-1.613.768l4.608 5.742 2.332-6.973a4.944 4.944 0 0 1-1.748-.172l-.335-2.24 7.212-1.28.308 2.245c-.3.224-.931.479-1.605.654l-3.108 9.297c-.48 1.448-.911 3.171-1.735 4.908-.984 2.105-2.927 3.245-5.591 4.114l-1.158-2.918s2.807-1.35 2.803-1.377c.308-.167.58-.387.792-.624.256-.47.57-1.094.748-1.523l-7.456-9.155c-.693.067-1.502-.046-1.858-.152l-.445-2.221ZM39.23 54.172l7.576-.904.21 2.257c-.34.21-.972.538-1.654.675l4.28 5.995 2.717-6.829a4.927 4.927 0 0 1-1.735-.272l-.209-2.255 7.273-.867.182 2.26c-.311.205-.956.423-1.638.56l-3.627 9.105c-.559 1.42-1.086 3.115-2.006 4.802-1.1 2.047-3.103 3.073-5.813 3.79l-.992-2.98s2.878-1.187 2.875-1.214c.317-.15.6-.353.826-.577.282-.457.63-1.06.832-1.48l-6.933-9.565c-.695.027-1.495-.131-1.845-.258l-.319-2.243ZM59.056 70.765l-.878-2.994s2.767-1.376 2.767-1.404c.631-.494.875-1.773.962-2.508a31.937 31.937 0 0 0-.096-2.544l-.478-6.78c-.697-.033-1.015-.207-1.302-.327l-.242-2.254 15.884-1.138.105 2.264a5.351 5.351 0 0 1-1.71.6l.93 13.223a5.32 5.32 0 0 1 1.777.35l.243 2.252-7.582.544-.076-2.266a5.366 5.366 0 0 1 1.71-.599l-.932-13.223-5.424.388.581 8.258c.386 5.468-1.939 7.204-6.239 8.158ZM88.802 61.13l-2.049 1.909.059 3.466a5.358 5.358 0 0 1 1.754.447l.121 2.264-7.598.127.045-2.266a5.347 5.347 0 0 1 1.739-.505l-.22-13.253c-1.998-.05-1.874-.863-1.89-1.925-.005-.252.018-.504.042-.784l7.543-.128a58.483 58.483 0 0 0-.018 2.266c-.358.146-1.047.437-1.74.505l.1 6.068 6.226-6.175c-.694-.072-1.06-.29-1.479-.451l.019-2.265 6.823-.115-.045 2.266c-.358.146-.88.406-1.408.47l-5.43 5.463 5.87 7.564 2.036.692-.377 2.3c-2.664.045-4.45-.596-6.293-2.999l-3.83-4.941ZM100.77 69.027l-.573-3.067s2.892-1.085 2.893-1.114c.678-.427 1.049-1.674 1.211-2.397.075-.668.128-1.507.16-2.54l.207-6.794c-.691-.105-.99-.31-1.263-.459l-.015-2.266 15.918.492-.124 2.262a5.376 5.376 0 0 1-1.762.422l-.403 13.249a5.37 5.37 0 0 1 1.733.53l.014 2.266-7.598-.235.152-2.261a5.33 5.33 0 0 1 1.762-.422l.402-13.249-5.435-.168-.251 8.274c-.166 5.479-2.655 6.969-7.028 7.477ZM122.355 69.858l.262-2.25a5.332 5.332 0 0 1 1.78-.335l1.047-13.214c-2.425-.307-1.859-1.469-1.581-2.876l13.468 1.083-.389 4.907c-.393.052-.755.05-1.06.027-1.465-.119-1.864-1.048-1.837-2.449l-4.673-.375-.402 5.073 3.208.258c.068-.163.298-.958.364-1.093l2.206.262-.328 2.387-.028 2.466-2.247-.097c-.07-.174-.147-.965-.183-1.193l-3.209-.258-.428 5.409 5.088.408c.223-1.412.734-2.24 2.228-2.12a5 5 0 0 1 1.042.196l-.398 5.018-3.033-.356-10.897-.878ZM147.51 56.203l-.658 5.131 1.514.197c1.788.232 3.383-.208 3.646-2.26.221-1.72-.863-2.65-2.899-2.915a31.163 31.163 0 0 0-1.603-.153Zm-1.009 7.877-.672 5.241c.22.029 2.139.336 2.442.375 1.733.226 3.125-.382 3.352-2.157.217-1.692-.913-2.912-3.279-3.22l-1.843-.24Zm-6.72 7.245.37-2.236a5.356 5.356 0 0 1 1.795-.246l1.685-13.145c-1.971-.341-1.73-1.128-1.595-2.182.032-.249.092-.495.155-.77l3.164.413c.605.079 3.453.337 4.884.523 3.522.459 6.369 2.69 5.981 5.714-.381 2.967-2.49 3.708-4.231 3.763l-.028.223c2.444.797 4.127 2.285 3.795 4.863-.387 3.024-3.167 4.86-7.432 4.306-1.348-.176-3.233-.534-4.168-.657l-4.375-.57ZM158.26 73.826l.492-2.211a5.312 5.312 0 0 1 1.805-.146l2.402-13.033c-2.38-.56-1.699-1.656-1.276-3.027l13.283 2.488-.891 4.839a4.999 4.999 0 0 1-1.057-.084c-1.446-.271-1.747-1.238-1.576-2.628l-4.609-.863-.923 5.005 3.164.591c.085-.154.395-.92.475-1.048l2.167.492-.572 2.339-.282 2.45-2.225-.332c-.051-.18-.046-.975-.059-1.205l-3.165-.593-.983 5.334 5.019.941c.367-1.383.961-2.153 2.434-1.877.3.057.65.15 1.016.304l-.912 4.95-2.98-.673-10.747-2.013ZM185.335 63.13l-1.413 5.669s1.473.403 1.795.483c2.341.594 3.849-.407 4.276-2.116.459-1.844-.662-3.081-2.358-3.51l-2.3-.525Zm-2.015 8.083-1.19 4.773c.659.225 1.835.783 2.118 1.027l-.468 2.218-7.909-2.004.628-2.177a5.325 5.325 0 0 1 1.81-.031l3.205-12.856c-2.34-.709-1.592-1.759-1.086-3.101l3.794.96s3.524.778 4.305.977c.108.026.216.054.349.088 4.198 1.063 5.654 4.056 4.957 6.85-.607 2.44-2.912 5.374-7.567 4.195-.242-.062-.484-.123-.72-.211-.296-.075-2.226-.708-2.226-.708ZM9.683 49.56l-.433.643.231.928c.19-.031.398-.013.499.01l.173.6-2.035.513-.128-.612c.078-.067.254-.183.436-.245l-.879-3.547c-.54.111-.557-.116-.628-.4-.016-.067-.025-.137-.036-.214l2.019-.508c.044.204.086.408.135.61-.086.062-.254.184-.436.245l.402 1.625 1.29-2.051c-.19.024-.301-.011-.423-.028l-.136-.61 1.826-.46.129.611c-.087.062-.212.165-.35.215l-1.121 1.81 2.045 1.664.59.058.041.642c-.713.18-1.233.12-1.876-.41l-1.335-1.088ZM13.746 48.197c.25 1.106 1.049 1.721 1.901 1.526.85-.197 1.305-1.102 1.054-2.207-.25-1.106-1.042-1.723-1.9-1.525-.852.195-1.306 1.1-1.055 2.206Zm-1.12.257c-.377-1.662.476-2.855 2.006-3.209 1.53-.352 2.819.348 3.196 2.01.378 1.663-.476 2.858-2.012 3.211-1.545.357-2.813-.349-3.19-2.012ZM18.96 49.647l-.1-.618c.08-.064.262-.172.446-.226l-.52-3.627c-.19.024-.4-.004-.498-.03l-.147-.609 1.642-.34 1.98 2.815.115.22.02-.24.81-3.4 1.523-.314.102.617a1.493 1.493 0 0 1-.447.226l.925 3.544c.19-.024.4.004.506.028.041.204.09.408.14.61l-2.026.42a15.318 15.318 0 0 0-.11-.616c.09-.066.27-.174.455-.228l-.657-2.614-.055-.344-.047.341-.742 3.266-.54.112-1.95-2.741-.123-.226.046.266.423 2.694c.19-.024.4.004.498.03l.146.608-1.814.376ZM27.76 43.891l-.314 1.792 1.37-.252-.904-1.567-.116-.293-.03.006-.005.314Zm-1.689 4.303-.089-.619c.077-.052.15-.12.325-.185l.74-3.916-.038.007a.475.475 0 0 1-.45-.389.982.982 0 0 1-.023-.206l1.802-.45 2.38 4.136c.192-.019.317.029.424.057.036.204.081.407.126.611l-2.048.377a14.195 14.195 0 0 1-.096-.618c.082-.063.272-.168.458-.217l-.376-.66-1.883.343-.056.34c-.029.14-.058.278-.08.416.191-.02.413.01.52.037.037.206.082.409.127.612l-1.763.324ZM31.886 47.129l-.077-.62a1.46 1.46 0 0 1 .454-.208l-.585-3.607a1.404 1.404 0 0 1-.489-.053l-.123-.612 2.054-.339.085.62c-.091.061-.269.16-.455.207l.227 1.4 2.25-.37-.227-1.4a1.43 1.43 0 0 1-.489-.053l-.122-.613 2.053-.338.086.618c-.085.062-.262.16-.449.208l.586 3.606c.191-.015.39.022.497.052l.115.614-2.07.34-.077-.62c.083-.06.268-.161.455-.208l-.238-1.468-2.25.37.238 1.47c.191-.016.4.02.497.05l.123.614-2.07.34ZM39.82 43.26c.124.863-.016 1.452-.347 1.89l1.878-.274-.52-3.619-1.272.186.261 1.817Zm2.472-2.98.074.62c-.092.061-.272.157-.46.2l.522 3.619.658-.096.225 1.72-.606.09c-.059-.085-.215-.74-.261-.952l-3.65.533c.016.224.066.895.034.993l-.615.083-.278-1.714.273-.04c1.02-.375.887-1.58.81-2.114l-.24-1.666a1.504 1.504 0 0 1-.496-.059l-.103-.616 4.113-.602ZM45.742 41.08l-.41 1.771 1.383-.177-.821-1.613-.1-.298-.03.003-.022.314Zm-1.915 4.205-.055-.623c.08-.048.155-.113.334-.167l.945-3.87-.038.004a.477.477 0 0 1-.43-.412c-.008-.068-.016-.129-.01-.208l1.822-.352 2.16 4.26c.19-.01.313.044.419.078.025.206.06.41.093.618l-2.066.265c-.026-.207-.044-.415-.063-.622.085-.059.282-.154.47-.193l-.34-.68-1.899.244-.074.336a7.471 7.471 0 0 0-.102.41 1.7 1.7 0 0 1 .518.066c.025.207.06.412.093.618l-1.777.228ZM52.316 39l2.093-.219.05.623c-.093.056-.27.145-.459.18l1.156 1.67.777-1.872a1.384 1.384 0 0 1-.477-.081l-.049-.624 2.01-.21.04.624a1.467 1.467 0 0 1-.453.149l-1.036 2.496c-.16.389-.313.855-.574 1.316-.31.56-.867.836-1.618 1.022l-.26-.825s.797-.316.797-.324a.811.811 0 0 0 .23-.157c.08-.123.178-.289.234-.403l-1.873-2.667a1.565 1.565 0 0 1-.508-.079l-.08-.62ZM58.325 43.6l-.03-.625c.087-.053.28-.14.469-.172l-.098-3.662c-.191 0-.396-.05-.491-.089l-.077-.62 1.67-.146 1.642 3.025.088.232.05-.237 1.194-3.279 1.548-.133.03.623c-.088.055-.28.142-.47.174l.51 3.625c.192-.002.396.051.5.089.017.207.042.413.068.62l-2.058.179c-.01-.208-.02-.415-.039-.624.095-.054.288-.141.477-.172l-.351-2.672-.015-.347-.086.333-1.113 3.155-.55.048-1.618-2.95-.098-.238.016.27.11 2.723c.191-.001.396.05.492.088l.076.622-1.846.16ZM65.726 42.967l-.02-.626c.088-.052.283-.135.473-.164l-.25-3.649a1.444 1.444 0 0 1-.483-.097l-.065-.623 2.076-.144.028.624a1.551 1.551 0 0 1-.472.165l.098 1.417 2.275-.159-.097-1.416a1.439 1.439 0 0 1-.483-.098l-.065-.623 2.076-.144.029.625a1.453 1.453 0 0 1-.465.163l.25 3.65c.192.002.387.057.49.097l.058.622-2.093.146-.02-.625a1.47 1.47 0 0 1 .473-.164l-.102-1.487-2.276.16.102 1.484c.192.002.395.059.49.098l.065.622-2.092.146ZM76.54 42.295l-.01-.626c.089-.05.285-.13.475-.156l-.188-3.651a1.398 1.398 0 0 1-.481-.107l-.056-.622 2.08-.109c.002.209.005.416.015.625-.096.051-.283.13-.473.156l.188 3.652c.192.006.394.064.487.105l.055.623-2.093.11Zm-2.984-2.277.086 1.663c.06-.002.659-.018.742-.023.482-.017.823-.406.798-.89-.025-.471-.395-.815-1.052-.78l-.573.03Zm.356-2.76c.01.207.014.415.018.623-.09.052-.286.131-.476.156l.064 1.218.48-.025c1.82-.096 2.292.753 2.33 1.47.045.893-.604 1.669-1.79 1.73-.373.02-.955.02-1.223.034a1.839 1.839 0 0 1-.069.003l-1.147.06-.009-.625c.089-.05.285-.13.475-.156l-.188-3.652c-.674.005-.561-.334-.536-.729l2.072-.107ZM84.787 41.97l-2.294.079.002-.625c.09-.05.27-.126.461-.147l-1.016-1.261-.949 1.33c.192.008.378.07.47.114l.007.626-1.804.063.001-.626c.09-.049.203-.122.393-.145l1.41-1.924-1.421-1.734a1.592 1.592 0 0 1-.503-.114l-.036-.624 2.271-.08.007.625a1.37 1.37 0 0 1-.462.148l.935 1.141.868-1.205a1.447 1.447 0 0 1-.477-.114l-.008-.626 1.76-.062.006.626c-.098.05-.21.123-.401.146l-1.293 1.782 1.535 1.867c.19.01.4.072.5.115l.038.624ZM95.184 36.596l2.105.004-.016.626c-.1.045-.284.115-.476.13l.978 1.784.967-1.782a1.367 1.367 0 0 1-.467-.131l.017-.625 2.02.003-.024.625a1.507 1.507 0 0 1-.467.1l-1.29 2.375c-.199.37-.399.816-.706 1.248-.369.524-.95.739-1.716.846l-.175-.849s.827-.23.827-.238a.798.798 0 0 0 .246-.131c.091-.115.207-.27.275-.377l-1.587-2.85a1.604 1.604 0 0 1-.497-.132l-.014-.626ZM102.316 37.42l-.02 1.428.421.006c.498.007.921-.165.929-.736.007-.478-.319-.698-.887-.707a9.077 9.077 0 0 0-.443.01Zm-.03 2.192-.02 1.458c.061.002.597.024.681.025.482.007.845-.204.851-.697.008-.472-.34-.769-.999-.779l-.513-.007Zm-1.614 2.2.03-.625c.093-.044.293-.111.485-.124l.05-3.657c-.551-.03-.51-.255-.507-.547.002-.07.011-.14.02-.216l.879.012c.17.002.958-.018 1.356-.012.98.013 1.83.534 1.819 1.375-.012.826-.566 1.096-1.042 1.167v.061c.694.142 1.202.497 1.192 1.213-.011.842-.716 1.434-1.903 1.418-.375-.006-.903-.044-1.163-.047l-1.216-.018ZM105.647 41.877l-.161-.846s.797-.301.797-.309c.185-.119.287-.463.331-.663a8.54 8.54 0 0 0 .042-.7l.049-1.875c-.19-.028-.273-.084-.348-.125l-.007-.625 4.391.119-.032.624a1.483 1.483 0 0 1-.485.118l-.097 3.654c.19.021.388.096.478.145l.007.625-2.096-.058.039-.622c.092-.045.294-.108.486-.118l.096-3.656-1.499-.04-.06 2.282c-.041 1.512-.725 1.925-1.931 2.07ZM111.4 42.048l.047-.624c.093-.042.296-.104.488-.111l.141-3.656c-.673-.057-.53-.384-.469-.776l3.726.147-.053 1.357c-.108.02-.207.023-.291.02-.405-.016-.526-.268-.535-.655l-1.292-.05-.054 1.404.887.034c.017-.046.071-.268.089-.305l.61.047-.063.661.019.681-.62-.002c-.021-.047-.051-.264-.064-.326l-.887-.035-.058 1.495 1.407.056c.047-.393.178-.627.591-.61.083.002.182.015.289.042l-.054 1.388-.84-.064-3.014-.118ZM118.199 37.168c-.011.209-.029.416-.048.623a1.398 1.398 0 0 1-.48.107l-.044.855c-.047.762.253 1.18.964 1.218.352.018.712-.125 1.052-.348l.083-1.618a1.387 1.387 0 0 1-.466-.156l.009-.625 2.078.11c-.01.208-.028.414-.046.622a1.41 1.41 0 0 1-.481.107l-.188 3.652c.19.025.378.105.475.155l-.018.625-2.239-.117c.011-.208.029-.415.047-.623.095-.041.45-.092.642-.098l.061-1.185c-.401.195-.765.276-1.14.255-1.109-.057-1.995-.683-1.934-1.885l.052-1.001a1.406 1.406 0 0 1-.467-.156l.009-.626 2.079.11ZM121.9 42.548l.064-.623a1.48 1.48 0 0 1 .489-.099l.235-3.648c-.67-.075-.519-.398-.446-.787l3.717.243-.087 1.355a1.28 1.28 0 0 1-.292.012c-.404-.026-.518-.28-.516-.668l-1.291-.084-.09 1.401.885.057c.019-.044.079-.266.096-.302l.61.063-.081.659.003.68-.62-.017c-.021-.048-.045-.265-.056-.328l-.886-.058-.096 1.493 1.405.093c.055-.392.194-.621.605-.595a1.3 1.3 0 0 1 .289.05l-.09 1.386-.837-.086-3.01-.197ZM126.496 42.849l.071-.621c.096-.04.3-.093.491-.093l.287-3.646a1.408 1.408 0 0 1-.464-.168l.026-.626 2.076.165-.064.622a1.517 1.517 0 0 1-.492.093l-.111 1.414 2.275.182.111-1.416a1.381 1.381 0 0 1-.464-.169l.026-.623 2.076.164-.065.623c-.094.038-.29.093-.482.093l-.286 3.646c.189.03.374.114.471.168l-.034.624-2.091-.166.072-.62c.096-.04.299-.093.491-.093l.116-1.485-2.273-.18-.116 1.483c.189.032.381.117.469.17l-.025.625-2.091-.166ZM132.738 43.35l.082-.62c.096-.037.301-.087.492-.084l.344-3.64a1.453 1.453 0 0 1-.46-.176l.037-.624 2.072.199-.075.62a1.52 1.52 0 0 1-.492.085l-.133 1.413 2.271.218.133-1.413a1.418 1.418 0 0 1-.461-.177l.036-.623 2.072.199-.074.62a1.426 1.426 0 0 1-.484.086l-.345 3.64c.19.033.373.12.468.176l-.044.623-2.086-.2.081-.62c.095-.037.3-.087.493-.084l.139-1.483-2.27-.217-.139 1.482c.189.033.38.121.467.176l-.036.625-2.088-.201ZM143.528 44.469l.093-.618c.097-.036.302-.082.494-.076l.409-3.634a1.393 1.393 0 0 1-.458-.185l.048-.623 2.068.236c-.031.207-.061.413-.085.62a1.517 1.517 0 0 1-.493.075l-.408 3.634c.186.038.378.13.464.186l-.047.623-2.085-.238Zm-2.573-2.74-.186 1.656c.061.007.652.09.736.1.479.061.877-.265.932-.748.052-.467-.258-.868-.911-.943l-.571-.065Zm.8-2.665c-.022.206-.053.412-.085.62a1.477 1.477 0 0 1-.493.074l-.137 1.212.479.055c1.81.207 2.14 1.121 2.059 1.834-.1.89-.867 1.547-2.046 1.413-.373-.043-.947-.14-1.214-.17l-.068-.008-1.141-.13.093-.619c.097-.036.302-.082.494-.075l.408-3.634c-.665-.107-.499-.422-.409-.808l2.06.236ZM151.728 45.524l-2.276-.304.104-.616c.096-.033.288-.079.479-.069l-.794-1.413-1.155 1.153c.187.04.361.134.446.192l-.096.617-1.791-.239.104-.616c.097-.034.22-.087.411-.077l1.709-1.664-1.119-1.946a1.625 1.625 0 0 1-.476-.196l.066-.622 2.253.3-.097.618a1.342 1.342 0 0 1-.479.068l.736 1.282 1.056-1.042a1.5 1.5 0 0 1-.454-.193l.096-.617 1.745.233-.096.617c-.104.032-.228.087-.42.076l-1.568 1.542 1.206 2.099c.188.04.383.137.476.196l-.066.621ZM155.715 46.11l-.049-.86s.829-.195.831-.204c.2-.09.345-.42.415-.611.044-.181.087-.408.132-.69l.293-1.85c-.184-.055-.259-.121-.328-.17l.076-.623 4.336.702-.113.614c-.098.03-.305.067-.497.053l-.573 3.61c.187.046.372.145.455.206l-.075.62-2.07-.334.121-.613c.098-.03.306-.068.497-.053l.573-3.61-1.481-.239-.359 2.255c-.237 1.493-.969 1.812-2.184 1.796ZM165.547 45.16c-.201 1.115.301 2 1.152 2.156.866.158 1.63-.493 1.83-1.61.202-1.115-.276-1.995-1.15-2.155-.859-.159-1.629.492-1.832 1.609Zm-1.182.175-.904-.166-.257 1.42c.186.05.369.153.452.216l-.089.619-2.063-.38.134-.61c.098-.029.306-.061.496-.042l.65-3.599a1.416 1.416 0 0 1-.443-.214l.088-.619 2.049.376c-.036.205-.081.408-.126.612-.099.029-.307.061-.497.042l-.257 1.42.904.166c.418-1.414 1.597-2.037 3.019-1.775 1.545.283 2.45 1.436 2.146 3.114-.302 1.678-1.552 2.438-3.096 2.154-1.439-.263-2.317-1.264-2.206-2.734ZM172.135 46.455c-.174.852-.504 1.36-.963 1.656l1.858.388.733-3.582-1.26-.261-.368 1.799Zm3.33-1.955-.14.608a1.535 1.535 0 0 1-.499.03l-.732 3.581.652.136-.369 1.695-.601-.125c-.025-.1.048-.77.077-.983l-3.612-.751c-.06.216-.24.863-.303.945l-.606-.134.319-1.705.269.055c1.086-.003 1.366-1.182 1.475-1.708l.336-1.648a1.53 1.53 0 0 1-.446-.227l.11-.615 4.07.846ZM175.395 49.778l.158-.606c.1-.024.309-.048.499-.02l.8-3.566c-.65-.179-.451-.474-.32-.848l3.634.829-.296 1.325a1.376 1.376 0 0 1-.291-.036c-.395-.09-.468-.36-.406-.74l-1.262-.288-.307 1.369.866.197c.025-.041.119-.25.142-.284l.593.159-.183.64-.104.671-.609-.115c-.013-.051-.003-.27-.004-.333l-.866-.198-.328 1.46 1.373.312c.117-.376.288-.583.691-.49.083.018.178.048.278.095-.102.45-.204.902-.304 1.353l-.815-.217-2.939-.67ZM185.451 45.146c-.212.638-.79.875-1.385.728-.601-.15-1.017-.635-.891-1.311l.664.023c-.021.408.153.562.391.622.238.059.451-.007.632-.36l.589.298Zm-5.391 5.694.171-.6a1.48 1.48 0 0 1 .498-.01l.871-3.55a1.4 1.4 0 0 1-.429-.242l.126-.611 2.02.503-.164.603c-.108.02-.31.041-.499.01l-.52 2.12 2.662-1.276.071-.292a1.431 1.431 0 0 1-.429-.243l.126-.61 2.02.503-.164.602a1.43 1.43 0 0 1-.492.013l-.869 3.548c.182.062.351.175.436.243l-.134.61-2.034-.506.17-.601c.101-.024.31-.042.5-.011l.533-2.17-2.662 1.273-.084.345c.181.061.359.177.436.245l-.126.611-2.034-.507ZM120.131 76.963H73.514v-.82h46.617v.82ZM92.087 8.168c-.33 0-.576.058-.724.169-1.033.77-.282 5.733 3.08 13.483 5.437-.275 9.483-1.58 9.959-3.252.478-1.675-2.011-4.93-5.789-7.573-2.875-2.009-5.29-2.827-6.526-2.827Zm.798 16.168-.334-.75c-4.258-9.558-5.147-15.353-2.64-17.225 2.265-1.692 6.698.241 10.092 2.614 5.945 4.157 7.382 8.032 6.744 10.272-.502 1.757-2.862 4.75-13.045 5.064l-.817.025Z" fill="#7BC142"/><path d="M94.916 2.451c-1.802 0-4.6.874-7.59 2.79-5.442 3.491-6.92 7.203-6.53 9.32.636 3.454 5.792 6.481 12.155 7.215C97.8 11.955 98.605 4.34 96.52 2.836c-.351-.253-.901-.385-1.603-.385Zm-.54 21.922-.812-.067c-8.048-.667-14.281-4.49-15.164-9.297-.844-4.587 3.38-9.125 7.617-11.843C90.01.607 95.245-1.105 97.939.836c3.064 2.211 3.265 10.119-3.19 22.807l-.373.73Z" fill="#7BC142"/><path d="M84.874 15.957c-.12 0-.224.019-.31.056-.603.261-1.465 1.983-1.52 4.535-.043 1.959.485 4.527 2.11 5.318 1.68.817 4.74-.077 7.037-2.871-3.02-4.945-6.058-7.038-7.317-7.038Zm1.633 12.652c-.858 0-1.677-.17-2.413-.528-2.262-1.1-3.567-3.936-3.487-7.587.054-2.534.871-5.819 2.993-6.74 2.86-1.239 7.433 2.34 11.117 8.709l.398.686-.46.649c-2.132 3.004-5.35 4.81-8.148 4.81Z" fill="#7BC142"/><path d="M95.23 23.265c2.28 3.14 6.519 4.32 9.871 2.612 3.531-1.801 4.044-5.781 4.117-6.958.144-2.304-.508-3.83-1.017-4.176-1.182-.807-5.725 1.542-12.97 8.522Zm6.591 5.847c-3.647 0-7.278-1.986-9.218-5.422l-.466-.825.674-.664c8.344-8.189 13.98-11.384 16.755-9.497 1.447.986 2.267 3.485 2.088 6.368-.252 4.022-2.29 7.386-5.452 8.998a9.605 9.605 0 0 1-4.381 1.042Z" fill="#7BC142"/><path d="M89.809 45.963c-1.201-3.796-1.481-7.192-1.082-11.138a29.142 29.142 0 0 1 4.215-12.362l2.069 1.304a26.65 26.65 0 0 0-3.856 11.308c-.364 3.609.063 7.348 1.161 10.82l-2.507.068Z" fill="#7BC142"/><path d="M52.987 82.498c-.217 1.159.614 2.501 2.117 2.742.261-.952.648-3.671-.809-3.763-.67-.047-1.172.287-1.308 1.021Zm3.358 2.846c.5-.058 1.15-.265 1.582-.539.16-.116.148.424-.01.528a4.202 4.202 0 0 1-1.788.664c-.559 1.458-1.685 2.72-3.313 2.709-.99 0-1.64-.367-2.016-1.01-.522-.895-.42-2.501.286-3.465.26-.218.932.23.83.516-.603 1.09-.523 3.11.91 3.144 1.048.023 1.675-.895 2.062-1.939-1.947-.207-3.45-1.757-3.12-3.568.25-1.355 1.525-1.837 2.618-1.756 2.721.195 2.414 3.224 1.959 4.716Z" fill="#231F20"/><path d="M62.583 87.432c.08-.46.353-1.457.501-2.065.079-.332.148-.735-.217-.735-.398.012-1.07.701-1.32 1.32-.204.746-.444 1.86-.615 2.513-.125.252-1.207.288-1.252-.046.227-.964.455-1.893.752-3.097.079-.299.101-.678-.228-.667-.352 0-.912.585-1.298 1.263a39.688 39.688 0 0 0-.649 2.559c-.102.264-1.308.276-1.264-.127.4-1.526.752-2.8 1.196-4.486.182-.253 1.127-.16 1.184.172l-.25.906c.398-.562 1.114-1.239 1.798-1.227.603 0 .921.459.797 1.146.432-.56 1.059-1.158 1.8-1.146.863 0 1.103.561.887 1.503-.194.826-.956 2.696-.365 2.685.433 0 1.138-.86 1.548-1.835.057-.14.466.09.398.229-.466 1.01-1.297 2.375-2.401 2.41-.888.034-1.15-.495-1.002-1.275ZM69.093 87.364c.023-.883.546-1.87 1.219-2.823-.365-.15-.73-.39-.934-.677-.103.63-.388 1.847-.9 2.811-.068.138-.49-.057-.41-.217.445-.873.763-1.93.934-2.984-.682-1.09.968-1.698.797-.219.228.38.74.643 1.104.735.603-.137.979.367.375 1.09-.59.759-.876 1.515-.898 2.111-.023.425.159.69.557.701.558 0 1.367-.471 1.97-1.837.056-.126.455.104.398.241-.75 1.654-1.65 2.399-2.812 2.41-.899.011-1.434-.539-1.4-1.342Z" fill="#231F20"/><path d="M77.539 84.047c-.297 1.068-1.184 3.821-.604 3.821.433.012 1.115-.837 1.525-1.801.068-.15.467.09.399.23-.387.78-1.229 2.375-2.412 2.362-.626 0-.866-.722-.695-1.41-.66 1.1-1.376 1.48-2.14 1.457-.898-.012-1.126-.701-.979-1.504.205-1.147.604-2.272.866-3.292.136-.287 1.184-.184 1.184.126-.159.642-.456 1.663-.66 2.581-.16.654-.274 1.251.148 1.251.444 0 1.16-.677 1.502-1.652.239-.723.466-1.561.682-2.33.137-.252 1.104-.171 1.184.161Z" fill="#231F20"/><path d="M82.204 85.584c-.239.275-1.092.207-1.092-.045.261-.333.5-.952.034-.998-.637-.07-1.377.884-1.479 2.007-.068.804.386 1.32 1.138 1.343.921.035 1.865-.516 2.434-1.824.057-.139.455.103.398.229-.91 2.032-2.207 2.456-3.4 2.398-1.184-.046-1.935-1.032-1.878-2.146.08-1.422 1.263-2.845 2.867-2.822 1.502.022 1.604 1.193.978 1.858Z" fill="#231F20"/><path d="M88.213 87.432c.08-.46.353-1.457.5-2.065.08-.332.148-.735-.216-.735-.398.012-1.07.701-1.32 1.32-.204.746-.443 1.86-.614 2.513-.125.252-1.206.288-1.252-.046.227-.964.456-1.893.752-3.097.08-.299.102-.678-.228-.667-.352 0-.91.585-1.297 1.263a40.288 40.288 0 0 0-.649 2.559c-.102.264-1.308.276-1.263-.127.398-1.526.75-2.8 1.195-4.486.182-.253 1.126-.16 1.183.172l-.25.906c.398-.562 1.115-1.239 1.798-1.227.603 0 .921.459.797 1.146.432-.56 1.057-1.158 1.798-1.146.864 0 1.103.561.887 1.503-.194.826-.956 2.696-.364 2.685.433 0 1.138-.86 1.548-1.835.057-.14.467.09.398.229-.465 1.01-1.297 2.375-2.401 2.41-.889.034-1.15-.495-1.002-1.275Z" fill="#231F20"/><path d="M92.435 86.365c-.136.712-.171 1.538.534 1.538.286 0 .57-.16.775-.402-.216-.332.08-.758.399-.688.445-1.056.569-2.33-.285-2.285-.67.035-1.252.976-1.423 1.837Zm2.687 1.079c.557.057 1.218-.218 1.707-1.377.069-.138.467.08.398.229-.74 1.63-1.707 1.802-2.538 1.63-.512.505-1.15.79-1.9.79-1.106 0-2.004-.618-1.663-2.362.319-1.584 1.537-2.616 2.88-2.64 2.027-.034 2.083 2.124 1.116 3.73Z" fill="#231F20"/><path d="M97.387 87.559c.045-1.055 1-1.584 1.65-2.295.148-.172.239-.356.229-.528-.024-.402-.525-.483-1.014.023-.455.436-.797 1.125-1.207 1.928-.067.126-.478-.07-.398-.23.546-1.112 1.15-2.753 2.595-2.753.991-.012 1.458.745 1.002 1.537-.524.975-1.15 1.389-1.411 1.859-.32.437-.16.837.33.837.66.013 1.775-.413 2.413-1.87.057-.138.443.104.387.229-.876 2.042-2.265 2.42-3.188 2.42-.842 0-1.41-.424-1.388-1.157Z" fill="#231F20"/><path d="M102.794 86.365c-.136.712-.171 1.538.536 1.538.284 0 .569-.16.774-.402-.217-.332.079-.758.399-.688.443-1.056.567-2.33-.286-2.285-.671.035-1.252.976-1.423 1.837Zm2.687 1.079c.558.057 1.218-.218 1.707-1.377.069-.138.468.08.399.229-.739 1.63-1.708 1.802-2.539 1.63a2.634 2.634 0 0 1-1.9.79c-1.104 0-2.004-.618-1.663-2.362.319-1.584 1.537-2.616 2.881-2.64 2.025-.034 2.083 2.124 1.115 3.73ZM113.608 85.584c-.239.275-1.092.207-1.092-.045.26-.333.5-.952.034-.998-.637-.07-1.378.884-1.48 2.007-.069.804.386 1.32 1.138 1.343.922.035 1.867-.516 2.436-1.824.057-.139.455.103.399.229-.912 2.032-2.209 2.456-3.404 2.398-1.184-.046-1.935-1.032-1.878-2.146.079-1.422 1.264-2.845 2.868-2.822 1.502.022 1.605 1.193.979 1.858Z" fill="#231F20"/><path d="M115.93 86.032c.842.126 1.411-.173 1.64-.676.181-.379.17-.793-.263-.804-.535-.035-1.173.654-1.377 1.48Zm2.744-.367c-.421.86-1.504 1.263-2.823.953-.069.734.353 1.205 1.149 1.285.774.08 1.981-.321 2.641-1.836.068-.138.467.091.409.229-.921 2.076-2.287 2.456-3.368 2.42-1.73-.057-2.345-1.296-2.061-2.58.308-1.504 1.502-2.446 2.834-2.398 1.276.046 1.651 1.089 1.219 1.927Z" fill="#231F20"/><path d="M121.053 85.322c-.205.733-.365 1.4-.57 2.157.387.516 1.23.55 1.674.057-.296-.322.114-.838.375-.689.467-.987.615-2.203-.148-2.226-.409-.011-.968.322-1.331.701Zm2.493 2.122c.739.092 1.32-.321 1.752-1.377.058-.138.467.092.399.23-.683 1.583-1.685 1.835-2.516 1.606-.933.999-2.208.999-2.891.322-.273 1.17-.569 2.386-.843 3.569-.125.239-1.206.195-1.195-.07a221.22 221.22 0 0 1 1.97-7.849c.068-.228 1.104-.217 1.172.184-.034.138-.113.344-.159.47.478-.47 1.138-.825 1.798-.791 1.719.057 1.252 2.65.513 3.706Z" fill="#231F20"/><path d="M126.267 90.576c-.353.735.615.919.991-.24.068-.219.125-.449.193-.689-.535.23-1.024.597-1.184.93Zm4.2-6.173c.103.184-.363.734-.545.608a2.202 2.202 0 0 0-1.549-.47c-.705.057-1.332.642-1.729 1.445-.377.77-.433 1.538-.16 1.802.353.31 1.047-.23 1.583-1.33a10.9 10.9 0 0 0 .534-1.356c.159-.24 1.059 0 1.081.23-.307 1.08-.501 1.928-.854 3.19.866-.355 1.549-1.159 2.13-2.467.057-.126.467.103.398.24-.774 1.63-1.48 2.434-2.721 2.973-.523 1.928-1.024 2.72-2.288 2.731-.763.023-1.286-.402-1.194-1.159.136-1.101 1.354-1.56 2.481-1.927.137-.413.33-1.032.5-1.606-.353.643-.91 1.375-1.799 1.4-1.593.034-1.628-1.998-.591-3.467.615-.895 1.514-1.4 2.311-1.503.75-.09 1.73.058 2.412.666Z" fill="#231F20"/><path d="M134.19 89.555c-.398.195-.671.332-.865.62-.182.25-.091.493.171.493.274-.011.5-.481.694-1.113Zm-1.48.114c.456-.492 1.23-.71 1.685-.894.068-.195.102-.345.149-.54-.388.046-.889-.195-.774-.941-.649.987-1.413 1.422-2.106 1.412-.9 0-1.128-.7-.98-1.504.205-1.147.558-2.225.819-3.246.069-.288 1.321-.23 1.23.056-.216.838-.513 1.916-.763 2.95-.113.481-.136.93.25.906.387-.022 1.059-.757 1.435-1.664.285-.7.421-1.503.648-2.271.081-.265 1.31-.207 1.219.103-.171.584-.569 1.812-.752 2.719-.102.528-.068.872.331.872.205 0 .318.103.273.299a1.648 1.648 0 0 1-.068.32c.42-.528.866-1.341 1.251-2.191.07-.127.468.103.387.253-.636 1.354-1.069 2.145-1.843 2.892-.376 1.503-.775 2.294-1.844 2.247-.933-.044-1.219-1.031-.547-1.778Z" fill="#231F20"/><path d="M141.679 84.403c.115.185-.353.712-.534.62a2.226 2.226 0 0 0-1.628-.47c-.66.09-1.287.677-1.64 1.433-.352.747-.421 1.527-.16 1.792.559.55 1.696-1.194 2.084-2.663.205-.264 1.048-.023 1.093.218-.126.436-.33 1.125-.434 1.686-.123.574-.055.838.206.838.422-.01 1.196-.791 1.605-1.79.056-.138.467.092.399.23-.592 1.251-1.48 2.352-2.55 2.352-.546 0-.854-.527-.717-1.378-.399.7-.899 1.412-1.822 1.436-.83.01-1.468-.597-1.263-1.882.25-1.538 1.582-2.858 2.869-3.076.751-.125 1.854 0 2.492.654Z" fill="#231F20"/></svg>