<svg width="70" height="62" fill="none" xmlns="http://www.w3.org/2000/svg"><path d="M0 31C0 18.297 10.297 8 23 8s23 10.297 23 23-10.297 23-23 23S0 43.703 0 31Z" fill="#80BA27"/><rect y="8" width="46" height="46" rx="23" fill="#80BA27"/><path fill-rule="evenodd" clip-rule="evenodd" d="M33.366 36.216c-2.79 1.36-6.243.66-8.456-1.502 7.668-.587 9.56-2.95 9.988-4.385.286-.957.125-2.25-.735-3.747 1.022-.42 1.725-.49 2.087-.253.473.307 1.08 1.662.947 3.708-.069 1.045-.547 4.58-3.83 6.18Zm-.647-6.49c.163-.546-.046-1.28-.549-2.108-1.67 1.009-3.796 2.582-6.339 4.804 3.826-.442 6.516-1.456 6.888-2.695Zm-6.606-.459c1.73-1.419 3.294-2.55 4.69-3.39a19.723 19.723 0 0 0-2.76-2.382c-.407 1.717-1.039 3.644-1.93 5.772Zm2.514-8.06c1.856 1.24 3.24 2.45 4.236 3.587 2.016-.886 3.571-.98 4.656-.274 1.346.875 2.11 3.094 1.942 5.654-.234 3.57-2.129 6.558-5.07 7.99a9.287 9.287 0 0 1-4.075.925c-2.704 0-5.4-1.122-7.296-3.123a22.853 22.853 0 0 0-2.622 8.418c-.34 3.203.058 6.525 1.08 9.608h-2.352c-1.1-3.346-1.354-6.346-.986-9.83a24.791 24.791 0 0 1 1.594-6.463c-1.213.612-2.476.944-3.658.944-.8 0-1.56-.151-2.244-.47-2.105-.976-3.318-3.495-3.246-6.735.008-.377.037-.773.087-1.174-1.134-1.107-1.881-2.36-2.138-3.698-.786-4.073 3.146-8.102 7.086-10.515 3.711-2.273 8.58-3.793 11.086-2.069 1.492 1.028 2.254 3.444 1.778 7.131l.142.095ZM11.375 27.63a4.133 4.133 0 0 1-.61-1.461c-.362-1.88 1.011-5.176 6.073-8.275 2.78-1.703 5.381-2.48 7.058-2.48.651 0 1.163.119 1.49.345.79.544 1.134 1.988.96 4.098-2.656-1.373-5.48-2.129-7.104-.97-1.618 1.154-1.715 3.987-.298 8.45-2.074-1.768-4.075-2.504-5.571-1.884-.904.373-1.554 1.188-1.998 2.177Zm1.757 1.81c.295-1.116.769-1.83 1.137-1.982a.757.757 0 0 1 .288-.05c1.047 0 3.414 1.485 5.91 4.936-2.979-.53-5.572-1.577-7.335-2.904Zm-.276 2.494c2.03 1.238 4.646 2.161 7.611 2.631-1.982 1.76-4.298 2.27-5.65 1.643-1.383-.644-1.912-2.611-1.96-4.274Zm9.94-.818c1.639-3.401 2.682-6.456 3.2-8.942-2.075-1.185-3.779-1.683-4.73-1.683-.308 0-.537.051-.673.15-.89.634-.358 4.455 2.204 10.475Z" fill="#fff"/><g style="mix-blend-mode:color-dodge" opacity=".8"><g filter="url(#a)"><rect x="9.926" y="10.044" width="26.148" height="2.139" rx="1.07" fill="#fff"/></g><g filter="url(#b)"><rect x="41.059" y="45.256" width="28.526" height=".981" rx=".49" transform="rotate(-90 41.059 45.256)" fill="#fff"/></g><g filter="url(#c)"><rect x="3.961" y="45.256" width="28.526" height=".49" rx=".245" transform="rotate(-90 3.96 45.256)" fill="#fff"/></g><g filter="url(#d)"><rect x="3.961" y="19.939" width="3.209" height=".49" rx=".245" transform="rotate(-90 3.96 19.94)" fill="#fff"/></g><g filter="url(#e)"><rect x="41.059" y="19.939" width="3.209" height=".981" rx=".49" transform="rotate(-90 41.059 19.94)" fill="#fff"/></g></g><defs><filter id="a" x="-23.967" y="-23.848" width="93.934" height="69.925" filterUnits="userSpaceOnUse" color-interpolation-filters="sRGB"><feFlood flood-opacity="0" result="BackgroundImageFix"/><feBlend in="SourceGraphic" in2="BackgroundImageFix" result="shape"/><feGaussianBlur stdDeviation="16.946" result="effect1_foregroundBlur"/></filter><filter id="b" x="17.398" y="-6.931" width="48.302" height="75.848" filterUnits="userSpaceOnUse" color-interpolation-filters="sRGB"><feFlood flood-opacity="0" result="BackgroundImageFix"/><feBlend in="SourceGraphic" in2="BackgroundImageFix" result="shape"/><feGaussianBlur stdDeviation="11.831" result="effect1_foregroundBlur"/></filter><filter id="c" x="-19.7" y="-6.931" width="47.812" height="75.848" filterUnits="userSpaceOnUse" color-interpolation-filters="sRGB"><feFlood flood-opacity="0" result="BackgroundImageFix"/><feBlend in="SourceGraphic" in2="BackgroundImageFix" result="shape"/><feGaussianBlur stdDeviation="11.831" result="effect1_foregroundBlur"/></filter><filter id="d" x="-7.55" y="5.219" width="23.512" height="26.231" filterUnits="userSpaceOnUse" color-interpolation-filters="sRGB"><feFlood flood-opacity="0" result="BackgroundImageFix"/><feBlend in="SourceGraphic" in2="BackgroundImageFix" result="shape"/><feGaussianBlur stdDeviation="5.755" result="effect1_foregroundBlur"/></filter><filter id="e" x="29.548" y="5.219" width="24.002" height="26.231" filterUnits="userSpaceOnUse" color-interpolation-filters="sRGB"><feFlood flood-opacity="0" result="BackgroundImageFix"/><feBlend in="SourceGraphic" in2="BackgroundImageFix" result="shape"/><feGaussianBlur stdDeviation="5.755" result="effect1_foregroundBlur"/></filter></defs></svg>