<svg width="16" height="16" fill="none" xmlns="http://www.w3.org/2000/svg"><mask id="a" mask-type="alpha" maskUnits="userSpaceOnUse" x="0" y="0" width="16" height="17"><path fill-rule="evenodd" clip-rule="evenodd" d="M0 0h16v16H0V0Z" fill="#fff"/></mask><g mask="url(#a)"><path fill-rule="evenodd" clip-rule="evenodd" d="M16 8A8 8 0 1 1 0 8a8 8 0 0 1 16 0Z" fill="#EC174B"/></g><path fill-rule="evenodd" clip-rule="evenodd" d="M9.058 12.734c.135.086.361.268.368.524.007.247-.197.495-.545.666-.244.12-.533.187-.838.195-.83.024-1.417-.396-1.427-.785-.007-.256.21-.45.34-.543.177-.128.408-.221.66-.273l-.001.625c0 .195.148.286.334.32a.39.39 0 0 0 .07.006c.22 0 .391-.105.391-.325v-.642c.245.04.47.118.648.232ZM5.941 7.591c.001-.172.009-.334.021-.489.483.476 1.24.782 2.09.782.032 0 .064 0 .096-.002a3.352 3.352 0 0 0 1.44-.357c.168-.087.32-.188.456-.298.005.113.008.228.008.35-.013 2.28-.903 3.027-2.032 3.037h-.015c-1.134.004-2.076-.751-2.064-3.023Zm2.12-2.973h.077c.497 0 .962.129 1.314.367.33.223.516.513.524.817.011.387-.271.767-.754 1.017-.32.165-.698.258-1.095.268-1.023.028-1.899-.515-1.917-1.184-.018-.669.83-1.257 1.85-1.285Zm3.064 2.942c.016-2.848-1.309-3.777-3.12-3.77-1.82.005-3.091.91-3.107 3.792-.015 2.611 1.092 3.627 2.72 3.756l-.001.373c-.424.062-.814.21-1.125.434-.439.314-.683.755-.67 1.21.023.886.963 1.56 2.157 1.56h.086c.417-.012.82-.108 1.166-.277.635-.311 1.005-.835.99-1.4-.012-.456-.28-.883-.735-1.174a2.544 2.544 0 0 0-1.074-.365v-.364c1.603-.13 2.698-1.059 2.713-3.775Z" fill="#FEFEFE"/><path fill-rule="evenodd" clip-rule="evenodd" d="M7.104 6.223a.439.439 0 1 0 .02-.878.439.439 0 0 0-.02.878ZM2.346 3.891c-.074.087-.126.077-.173.04-.011-.01-.023-.02-.034-.032l.533-.671.218.173-.083.1a1.832 1.832 0 0 1-.104-.059l-.214.27.598.475c.027-.028.104-.1.123-.11l.105.077-.333.42-.1-.086a.61.61 0 0 1 .063-.122l-.599-.475ZM3.27 3.002l.147.35.214-.2-.337-.172-.054-.038-.005.004.036.056Zm.164.969-.085-.098a.585.585 0 0 1 .06-.092l-.312-.771-.03.027a.1.1 0 0 1-.123-.017.194.194 0 0 1-.028-.033l.292-.306.888.454a.432.432 0 0 1 .105-.06l.092.093-.367.343a2.99 2.99 0 0 1-.087-.097.611.611 0 0 1 .08-.113l-.141-.073-.294.275.029.066c.01.028.02.056.032.082a.662.662 0 0 1 .12-.075c.03.032.06.063.091.093l-.322.302ZM4.085 2.21a.58.58 0 0 1-.126.046l-.072-.109.842-.516.065.113a.59.59 0 0 1-.1.093l.4.65a.591.591 0 0 1 .127-.047l.073.109-.431.264-.064-.113a.56.56 0 0 1 .1-.094l-.4-.65-.273.167.251.41c.164.26.101.438-.019.577l-.208-.083c-.001-.024.021-.073.061-.098a.087.087 0 0 1 .077-.01c.025-.045.053-.126-.043-.285l-.26-.424ZM5.413 2.5l-.042-.123a.6.6 0 0 1 .114-.074L5.21 1.59c-.134.045-.164-.018-.185-.098l.761-.295.103.265a.314.314 0 0 1-.055.028c-.08.03-.124-.007-.157-.081l-.254.098.106.273.174-.067c0-.01-.008-.057-.008-.066l.122-.042.043.132.06.129-.12.052c-.008-.008-.032-.047-.04-.058l-.174.068.113.291.276-.107c-.024-.079-.017-.135.064-.166a.303.303 0 0 1 .06-.016l.104.27-.167.058-.623.241ZM6.517 1.176l.068.33.106-.02c.137-.03.191-.12.17-.219-.021-.107-.111-.142-.21-.122l-.134.031Zm.097.47.057.277a.949.949 0 0 1 .169-.006l.03.126-.526.11-.022-.13a.596.596 0 0 1 .126-.053l-.155-.747c-.14.022-.159-.045-.166-.127l.254-.053s.203-.049.25-.058l.02-.004c.245-.051.397.067.43.23.03.141-.017.352-.29.408a.298.298 0 0 1-.043.007c-.017.004-.134.02-.134.02ZM7.324 1.96v-.13a.555.555 0 0 1 .132-.032l-.029-.762c-.142-.001-.15-.07-.143-.152L8.1.852l.011.283a.3.3 0 0 1-.06.008c-.086.004-.115-.047-.124-.127l-.271.01.011.293.187-.007c.003-.01.01-.057.014-.065h.128l-.002.139.015.14-.13.01c-.006-.009-.015-.054-.019-.067l-.187.008.013.312.296-.012c.003-.082.027-.133.113-.136.018 0 .039 0 .062.004l.011.29H7.99l-.666.026ZM8.942 1.434l.009.14-.076-.005-.211.266c-.103.132-.196.146-.348.126l-.005-.135.124-.026c.003-.001.134-.17.22-.283-.146-.077-.178-.23-.163-.341.021-.166.17-.296.436-.261l.213.034.294.039c0 .082-.015.15-.156.138l-.099.756a.62.62 0 0 1 .13.045l-.013.13-.501-.066.022-.128a.583.583 0 0 1 .136-.01l.098-.756-.12-.02c-.102-.013-.202.026-.217.14-.017.13.05.196.175.212l.052.005ZM10.862 1.63l-.126.27.08.038c.095.044.191.048.242-.06.042-.09-.002-.16-.11-.211a1.528 1.528 0 0 0-.086-.037Zm-.193.414-.129.276.129.064c.092.043.18.033.223-.06.042-.089 0-.176-.125-.234l-.098-.046Zm-.527.266.06-.116c.021 0 .095.018.132.032l.322-.692c-.103-.053-.105-.106-.079-.16a.416.416 0 0 1 .022-.04l.197.091c.032.015.185.08.261.115.187.087.305.26.231.418-.073.157-.202.16-.3.133l-.005.011c.121.087.189.198.125.334-.074.159-.26.21-.486.105-.071-.033-.17-.086-.219-.11l-.261-.12ZM11.077 2.742l.08-.103c.022.004.09.036.125.057l.449-.617a.564.564 0 0 1-.09-.1l.072-.108.406.296-.08.103a.63.63 0 0 1-.124-.056l-.268.368.62-.035.036-.051a.585.585 0 0 1-.09-.1l.072-.108.406.295-.08.104a.567.567 0 0 1-.122-.056l-.449.617c.03.027.08.081.092.1l-.074.108-.409-.297.081-.103c.021.004.09.036.124.057l.275-.378-.62.036-.043.06a.607.607 0 0 1 .093.1l-.074.108-.408-.297ZM12.152 3.543l.1-.082a.6.6 0 0 1 .11.082l.573-.503a.572.572 0 0 1-.066-.117l.095-.09.331.378-.1.083a.58.58 0 0 1-.109-.082l-.223.195.316.361.223-.195a.567.567 0 0 1-.066-.118l.095-.089.331.377-.1.084a.585.585 0 0 1-.108-.08l-.574.502a.588.588 0 0 1 .068.119l-.096.088-.334-.38.102-.083c.02.009.08.055.108.083l.234-.205-.316-.36-.234.204a.584.584 0 0 1 .068.119l-.095.09-.333-.38Z" fill="#FEFEFE"/></svg>