<svg width="16" height="16" fill="none" xmlns="http://www.w3.org/2000/svg"><circle cx="8" cy="8" r="8" fill="#80BA27"/><path fill-rule="evenodd" clip-rule="evenodd" d="M12.728 8.056c-.023.346-.184 1.515-1.295 2.044-.944.45-2.11.217-2.859-.499 2.588-.195 3.232-.974 3.377-1.448.096-.316.04-.744-.25-1.237.345-.14.585-.164.707-.086.16.101.366.55.32 1.226Zm-7.563 2.042c-.47-.214-.646-.865-.662-1.416.686.41 1.57.714 2.573.87-.671.582-1.454.753-1.911.546Zm1.905-1.28c-1.006-.175-1.88-.52-2.476-.958.1-.368.258-.606.382-.656a.26.26 0 0 1 .098-.017c.354 0 1.153.492 1.996 1.63Zm-3.285-2.04c-.122-.623.342-1.713 2.054-2.738.94-.563 1.82-.82 2.387-.82.22 0 .393.039.504.114.266.18.38.66.321 1.355-.897-.453-1.85-.703-2.4-.32-.546.381-.578 1.32-.1 2.795-.7-.585-1.377-.829-1.884-.624-.304.124-.523.393-.673.719a1.356 1.356 0 0 1-.209-.482Zm3.327-1.83a.411.411 0 0 1 .227-.049c.321 0 .898.168 1.598.558-.175.822-.526 1.83-1.08 2.955-.865-1.99-1.046-3.254-.745-3.463Zm4.098 3.006c-.125.41-1.034.744-2.324.89.857-.733 1.575-1.253 2.139-1.586.169.273.24.516.185.696Zm-.645-1.272c-.474.28-1.005.653-1.592 1.125.302-.705.52-1.346.658-1.915.363.257.68.527.934.79Zm2.27-.45c-.366-.234-.894-.2-1.575.093-.337-.377-.802-.778-1.432-1.189l-.05-.032c.158-1.217-.095-2.019-.599-2.358-.847-.57-2.493-.067-3.749.684-1.332.799-2.661 2.131-2.396 3.478.087.443.34.858.725 1.224a3.7 3.7 0 0 0-.03.388c-.025 1.072.385 1.905 1.097 2.228.231.105.489.155.759.155.402 0 .831-.116 1.244-.321a8.063 8.063 0 0 0-.546 2.147c-.126 1.159-.038 2.156.34 3.271l.788-.02a7.475 7.475 0 0 1-.365-3.178 7.442 7.442 0 0 1 .89-2.784A3.46 3.46 0 0 0 10.4 11.05c.47 0 .942-.098 1.378-.306.995-.473 1.636-1.461 1.714-2.642.057-.847-.2-1.581-.656-1.87Z" fill="#fff"/></svg>