<svg width="88" height="24" fill="none" xmlns="http://www.w3.org/2000/svg"><path d="M9.768 17.278a.738.738 0 0 0-.87-.616.76.76 0 0 0-.632.86.771.771 0 0 0 .873.633.755.755 0 0 0 .63-.877ZM8.94 4.428a1.765 1.765 0 0 0-.565-.118l.005.032c.036.123.125.173.182.13l.005.033c.015.094.01.16-.017.196.128-.005.24-.006.339.01 0 0-.864.317-1.064.172 0 0 .107-.034.246-.072a.529.529 0 0 1-.085-.228.4.4 0 0 1 .014-.212c-.091.03-.167.059-.167.059l-.096.306-.098-.21.088-.255c.715-.246 1.166.068 1.166.068l.047.09Zm.164-.478s-.883-.196-1.548.057l.038-.36s.858-.156 1.448.12l.062.183Zm-.45 3.089-.148-.122s-.27.318-.896.42c-.642.104-.966-.117-.966-.117-.003-.016-.121.148-.121.148s.112-.002.229.124c.132.124.363.36.926.27.548-.09.705-.309.774-.48a.845.845 0 0 1 .202-.243ZM6.533 4.64s-.114-.014-.274-.004c.006.031.024.045.029.076.065.102.135.14.195.114a.526.526 0 0 1-.025.246c.127-.006.224-.004.224-.004-.128.198-1.03.183-1.03.183.055-.058.178-.094.303-.114a.359.359 0 0 1-.08-.197c-.01-.062-.02-.126.001-.194.031-.004.045-.022.045-.022-.139.038-.298.144-.453.283l.032-.102s.297-.452 1.066-.464l.18.229-.01.227-.202-.257Zm.13-.49c-.742-.023-1.503.439-1.503.439l.001-.194c.474-.448 1.353-.574 1.353-.574l.15.33Zm2.721 6.044c-.555.138-.84.072-1.295.129-.436.087-.668.238-1.286.29-1.492.21-2.991-1.031-2.374-4.084.01-.034.027-.133.043-.232-.466-.005-.034-.608-.333-1.172-.266-.553-.108-.676.097-.693l.047-.007c-.097-.404-.215-.74-.253-.976-.131-.816-.022-1.335.324-1.68.656-1.01.03-1.408.03-1.408C6.004-.45 6.938.27 7.294.89c.326.625.395 1.951-.497 2.402-.59.225-2.075.466-1.947 1.267.153.75-.144 1.297.007 1.837.053.233.141.477.241.703.286.18.65.346.928-.021.39-.467.782-.627 1.061-.689-.086-.034-.166-.037-.307-.014-.329.053-.324-.415-.324-.415l.17-.141s.022.335.13.302c.117-.067.15-.057.228.027.094.081.286.083.443.057 0 0 .25-.04.297-.145a.915.915 0 0 0-.028-.48c-.044-.17.15.138.178.214.01.063.018.11.135.14.13.01.18-.078.077-.32l.185.051s.183.438-.161.494c-.141.023-.217.051-.272.108.253-.024.675.004 1.176.326.379.261.652-.041.903-.276.025-.246.047-.507.025-.745-.026-.56-.496-.984-.601-1.74-.073-.554-.393-.84-.723-.9-1.005-.16-.706-1.498-1.151-2.07 1.069-.238 2.07.002 2.336 1.652.038.236.026.56.048.992l.018.013c.198-.064.403.016.309.627-.079.61.49 1.05.095 1.194.05.105.096.194.117.224 1.542 2.7.49 4.356-1.006 4.63Zm8.09 11.38-5.225.848-.23-1.832c.151-.154.45-.396.835-.491l-.61-3.093-.082-.617-.137.345-2.328 4.796-3.755-3.89-.153-.152.432 3.687c.396-.032.755.104.963.199l.34 1.814-4.99.811-.247-1.831a2.7 2.7 0 0 1 .993-.516l-.92-7.915c-.362.043-.911-.077-1.072-.18-.127-.593-.241-1.203-.371-1.812l4.521-.734 2.876 3.615.342.428.193-.499 1.924-4.41 4.35-.705c.051.62.134 1.237.214 1.837-.152.153-.62.439-.992.515l1.67 7.794c.396-.031.911.078 1.104.176l.355 1.813ZM23.328 15.18c.032-.002.458-.041.772-.087l-.23-2.506-.854.064c-.648.044-.891.69-.844 1.198.058.634.51 1.392 1.156 1.332Zm.336 5.885-.125-1.875c.177-.144.505-.382.897-.45l-.165-1.792-.852.08-.977 2.185c-.963 2.151-1.672 2.233-3.597 2.588l-.471-2.53 1.417-.515c-.032.003.511-1.183.924-2.053-1.253-.475-1.637-1.703-1.731-2.734-.16-1.728 1.168-3.387 3.645-3.617 0 0 1.601-.07 2.423-.13l2.951-.274.11 1.877c-.178.144-.522.385-.914.453l.566 6.153c.398-.005.764.168.965.277.073.617.145 1.234.235 1.864l-5.301.493ZM29.592 15.28c-.173-4.137 2.44-5.746 5.622-5.88 1.14-.049 2.511.117 3.46.411l-.021 3.3a3.24 3.24 0 0 1-.52.07c-1.157.049-1.755-.61-2.093-1.49a2.325 2.325 0 0 0-.653-.052c-1.266.054-2.374 1.265-2.278 3.54.085 2.052 1.114 3.124 2.65 3.06.87-.037 2.295-.48 3.185-1.203l.24 2.332c-.97.679-2.301 1.085-3.426 1.133-3.641.154-6.015-1.61-6.166-5.221ZM40.56 20.068l.077-1.877c.19-.126.541-.33.938-.36l.046-6.178c-.396-.035-.758-.245-.948-.374L40.64 9.4l5.34.04-.061 1.88c-.191.125-.557.33-.954.358l-.015 1.96 3.455.026.015-1.96c-.397-.035-.76-.244-.948-.372l-.05-1.88 5.357.04-.078 1.88c-.191.125-.557.329-.954.358l-.046 6.18c.396.034.758.244.948.372l.033 1.88-5.325-.04.063-1.88c.19-.125.556-.33.953-.358l.015-1.975-3.454-.027-.015 1.975c.396.035.742.245.932.373l.033 1.879-5.325-.04ZM57.336 15.09c-.115 1.89.654 3.342 1.92 3.42 1.265.077 2.189-1.27 2.304-3.161.115-1.892-.654-3.344-1.904-3.42-1.265-.078-2.205 1.268-2.32 3.16Zm-3.527-.218c.22-3.624 2.6-5.408 5.984-5.2 3.418.21 5.53 2.285 5.31 5.894-.22 3.608-2.568 5.41-5.984 5.2-3.402-.21-5.53-2.286-5.31-5.894ZM70.87 13.101l-.219 1.946.078.01c.678.077 1.25-.051 1.345-.89.087-.775-.385-.973-1.204-1.066Zm-.475 4.226-.21 1.866.016.002s.768.12.626.103c.599.068 1.035-.122 1.108-.771.083-.744-.422-1.074-1.193-1.161l-.347-.04Zm.547 4.355c-.96-.109-1.77-.297-2.304-.357l-2.993-.34.258-1.861c.203-.105.572-.272.97-.259l.69-6.14c-1.143-.193-.98-.784-.9-1.496a8.25 8.25 0 0 1 .159-.847l2.11.24c.346.039 2.026.133 2.908.233 1.89.214 4.02 1.402 3.802 3.349-.2 1.788-1.458 2.046-2.31 2.11l-.021.19c1.228.412 2.296.997 2.116 2.595-.19 1.693-1.84 2.883-4.485 2.583ZM82.415 18.514l-.398 2.355.016.003s.947.193.791.166c.656.113 1.122-.454 1.223-1.05.122-.721-.335-1.253-1.1-1.383l-.532-.09Zm-5.281-6.976 7.265 1.242a69.929 69.929 0 0 1-.376 1.842c-.193.096-.587.239-.983.203l-.242 1.429.25.043c4.157.71 4.749 2.718 4.48 4.302-.314 1.852-2.098 3.275-4.723 2.826-.796-.136-1.626-.358-2.202-.473l-3.234-.553c.138-.622.257-1.23.376-1.84.209-.094.587-.24.983-.204l1.026-6.059-.969-.166a15.253 15.253 0 0 1-.397 1.208l-1.852-.268.598-3.533ZM25.784 5.299l-.018-.511c.073-.044.233-.112.388-.136l-.212-2.984a1.2 1.2 0 0 1-.396-.08l-.055-.508 4.363-.312.024.51a1.205 1.205 0 0 1-.387.136l.211 2.985c.158 0 .325.046.41.078l.047.509-1.717.123-.018-.511c.073-.043.232-.112.388-.135L28.6 1.478l-1.768.126.212 2.985c.158.001.325.046.403.079l.055.508-1.718.123ZM32.034 1.27l.068 1.318s.345-.011.42-.015c.547-.029.807-.346.787-.742-.023-.43-.347-.622-.742-.6l-.533.04Zm.097 1.88.057 1.109c.158.004.45.046.527.08l.045.51-1.845.095-.008-.511a1.22 1.22 0 0 1 .39-.127l-.155-2.988c-.553.003-.46-.274-.44-.597l.886-.047s.814-.067.996-.077l.082-.004c.979-.051 1.492.497 1.525 1.147.03.567-.276 1.354-1.361 1.41-.057.003-.114.007-.17.003-.07.004-.53-.004-.53-.004ZM35.546 2.605c.03.927.579 1.547 1.295 1.523.716-.024 1.222-.68 1.191-1.606-.03-.927-.572-1.546-1.295-1.523-.715.024-1.222.68-1.191 1.606Zm-.942.032c-.046-1.394.825-2.22 2.113-2.262 1.287-.044 2.218.722 2.263 2.115.047 1.394-.825 2.218-2.118 2.262-1.3.044-2.212-.722-2.258-2.115ZM41.228 2.464c.01.714-.167 1.176-.483 1.496l1.558-.02L42.265.95l-1.056.013.02 1.502Zm2.33-2.151-.007.511c-.081.04-.238.098-.395.113l.04 2.992.546-.008v1.42l-.504.006c-.038-.075-.095-.623-.11-.8l-3.029.04c-.01.183-.04.733-.077.809h-.51l-.042-1.42.226-.002c.87-.195.89-1.185.884-1.628L40.562.971a1.26 1.26 0 0 1-.397-.102l-.02-.511 3.412-.045ZM44.41.284l1.727.011-.016.512a1.221 1.221 0 0 1-.39.104l.794 1.463.802-1.452a1.143 1.143 0 0 1-.383-.11l.016-.511 1.659.011-.023.511a1.201 1.201 0 0 1-.383.08l-1.069 1.936c-.166.302-.331.667-.585 1.02-.304.426-.783.6-1.412.684l-.14-.696s.68-.185.68-.19a.667.667 0 0 0 .202-.107c.076-.094.171-.22.228-.307L44.826.905a1.313 1.313 0 0 1-.407-.11l-.01-.511ZM51.05 2.801l-.482.41-.021.783c.157.017.319.078.393.118l.006.511-1.722-.046.032-.51c.077-.036.241-.088.4-.097L49.733.98c-.452-.031-.415-.213-.41-.453.003-.057.01-.113.018-.176l1.71.046c-.012.17-.023.34-.027.51-.083.03-.241.088-.399.097l-.036 1.37 1.469-1.332c-.157-.023-.237-.076-.33-.116l.025-.511 1.547.041-.034.511c-.082.03-.203.083-.322.092l-1.283 1.179L52.917 4l.454.177-.107.514c-.603-.015-1.001-.177-1.395-.738l-.819-1.152ZM53.975 1.687 54.01.482l3.743.171-.073 1.204-.51.015c-.035-.078-.062-.47-.066-.636l-.805-.018-.135 2.978c.156.02.316.083.39.125l-.004.512-1.72-.08.041-.51c.077-.034.243-.083.4-.088l.136-2.978-.803-.049c-.014.164-.067.516-.123.62l-.506-.06ZM61.818 5.153l.054-.509c.077-.032.245-.078.402-.08l.201-2.985a1.145 1.145 0 0 1-.38-.133l.014-.511 1.706.116c-.018.17-.036.34-.047.51a1.267 1.267 0 0 1-.403.08l-.2 2.984c.155.023.314.09.386.134l-.015.512-1.718-.118Zm-2.21-2.142-.092 1.36c.05.002.538.048.607.053.395.033.71-.249.736-.646.026-.384-.242-.699-.781-.736l-.47-.031Zm.558-2.209c-.011.17-.03.34-.047.51a1.209 1.209 0 0 1-.402.08l-.067.995.395.027c1.491.101 1.794.837 1.755 1.422-.05.73-.654 1.297-1.626 1.23-.307-.02-.782-.078-1.001-.093a2.156 2.156 0 0 0-.056-.003l-.94-.065.052-.509c.078-.032.245-.078.403-.08l.201-2.984c-.55-.063-.425-.327-.366-.645l1.7.115Z" fill="#74140D"/></svg>