<svg width="89" height="30" fill="none" xmlns="http://www.w3.org/2000/svg"><path d="m8.953 25.43.191 1.174c.064.39-.212.637-.601.702a.358.358 0 0 1-.133.004c-.35-.008-.65-.11-.709-.468L7.515 25.7c-.402.183-.798.415-1.082.713-.203.184-.55.61-.46 1.064.134.714 1.326 1.288 2.81.993a4.24 4.24 0 0 0 1.452-.59c.55-.41.846-.943.76-1.365-.074-.456-.535-.732-.802-.838a3.58 3.58 0 0 0-1.24-.248ZM3.927 14.307a.783.783 0 0 1 .688-.883c.438-.072.82.233.893.673.055.442-.246.843-.67.896a.777.777 0 0 1-.911-.686Zm3.717 7.69c.016-.003.035.011.035.011 1.957-.356 3.352-1.607 2.701-5.7-.037-.23-.026-.164-.074-.357-.683.816-1.941 1.475-3.195 1.748l-.146.024c-1.476.243-2.818-.121-3.796-.814.012.282-.002.301.047.595.65 4.094 2.45 4.819 4.428 4.493Zm-4.561-7.35c.213 1.203 1.916 1.944 3.689 1.585 1.694-.33 3.06-1.659 2.836-2.827-.216-1.12-1.857-1.887-3.543-1.61l-.13.022c-1.773.359-3.075 1.661-2.852 2.83Zm5.557 8.86.082.505c.743-.039 1.445.08 2.036.334.91.37 1.534 1.137 1.659 1.903.173 1.06-.314 2.06-1.356 2.818a5.28 5.28 0 0 1-2.012.833l-.146.025c-2.157.354-4.056-.571-4.351-2.18-.15-.812.175-1.686.86-2.384.488-.482 1.158-.86 1.886-1.098l-.083-.505c-2.942.234-5.315-1.25-6.053-5.983-.815-5.205 1.273-7.206 4.53-7.76 3.256-.552 5.962.726 6.783 5.864.764 4.895-.989 6.908-3.835 7.628ZM13.785 14.499l-.383-3.132 9.74-1.046.284 3.143-1.314.24c-.118-.187-.341-1.193-.42-1.616l-2.086.274.824 7.753c.412-.01.853.091 1.06.169l.19 1.325-4.478.48-.092-1.335c.186-.12.595-.313 1-.39l-.824-7.753-2.095.192c.029.428.029 1.359-.072 1.652l-1.334.044ZM28.813 15.514c.11 1.863-.295 3.095-1.083 3.969l4.068-.242-.461-7.816-2.756.164.232 3.925Zm5.824-5.908.046 1.338a3.293 3.293 0 0 1-1.017.342l.461 7.816 1.427-.085.17 3.713-1.312.078c-.11-.192-.326-1.62-.386-2.079l-7.906.472c-.005.48-.019 1.92-.105 2.125l-1.33.063-.285-3.707.59-.035c2.253-.614 2.182-3.208 2.114-4.362l-.212-3.595a3.279 3.279 0 0 1-1.05-.219l-.112-1.333 8.907-.532ZM39.175 15.041c.021 2.428 1.416 4.084 3.29 4.068 1.873-.017 3.238-1.697 3.217-4.126-.02-2.428-1.4-4.084-3.289-4.068-1.873.017-3.239 1.697-3.218 4.126Zm-2.465.02c-.031-3.65 2.3-5.751 5.669-5.781 3.369-.03 5.753 2.031 5.784 5.682.032 3.65-2.3 5.752-5.685 5.782-3.401.03-5.736-2.031-5.768-5.682ZM60.167 20.97l-4.926-.2.103-1.336c.202-.09.602-.223 1.014-.24l-1.974-2.857-2.246 2.686c.41.05.797.214.99.32l-.086 1.337-3.875-.159.103-1.334c.201-.091.453-.23.865-.246l3.33-3.881-2.768-3.932a3.416 3.416 0 0 1-1.056-.323l.02-1.34 4.877.2L54.451 11c-.2.091-.6.224-1.012.24l1.82 2.586 2.054-2.428a3.176 3.176 0 0 1-1.006-.322l.086-1.336 3.776.154-.086 1.335c-.218.09-.47.23-.882.246l-3.055 3.594 2.986 4.238c.41.05.847.217 1.056.325l-.021 1.338ZM61.853 21.073l.179-1.327a3.18 3.18 0 0 1 1.057-.178l.758-7.793c-.406-.073-.8-.261-.987-.38l.08-1.336 4.45.437-.162 1.329a3.301 3.301 0 0 1-1.058.178l-.294 3.025 4.873.48.295-3.026a3.07 3.07 0 0 1-.987-.379l.08-1.336 4.45.437-.163 1.328c-.207.08-.63.187-1.042.18l-.758 7.793c.407.073.801.261 1.004.38l-.097 1.336-4.48-.44.178-1.328c.205-.08.645-.185 1.057-.178l.308-3.173-4.873-.479-.309 3.173a3.19 3.19 0 0 1 1.003.38l-.08 1.337-4.481-.44ZM75.177 22.42l.263-1.311c.21-.066.656-.143 1.067-.11l1.257-7.726a3.058 3.058 0 0 1-.961-.443l.166-1.328 4.41.725-.248 1.315a3.283 3.283 0 0 1-1.065.109l-.75 4.613 5.479-3.184.102-.636a3.059 3.059 0 0 1-.96-.441l.165-1.329 4.413.724-.247 1.316a3.073 3.073 0 0 1-1.052.111l-1.255 7.727c.4.1.782.312.977.445l-.183 1.325-4.443-.73.263-1.311c.21-.066.656-.144 1.067-.11l.77-4.727-5.48 3.184-.123.75c.4.098.799.315.978.444l-.167 1.329-4.443-.73ZM21.045 1.758c-.463.023-.577-.158-.599-.4-.005-.058-.005-.124-.004-.19l3.452-.316.103 1.129-.527.035c-.028-.083-.071-.277-.115-.47l-1.389.127.28 3.094c.158-.001.585.025.666.05l.068.527-2.155.198-.028-.53c.074-.047.367-.133.528-.16l-.28-3.094ZM26.57 1.705l-.429 1.484 1.183-.086-.623-1.407-.07-.258-.027.002-.033.265Zm-1.822 3.477-.018-.531c.069-.038.137-.09.291-.126l.984-3.239-.032.003a.405.405 0 0 1-.347-.37c-.004-.058-.008-.11 0-.177l1.567-.211 1.637 3.712c.163.001.265.053.352.086.013.177.032.353.05.529l-1.767.127a14.907 14.907 0 0 1-.025-.53c.075-.045.247-.116.408-.141l-.258-.593-1.625.118-.078.281a7.115 7.115 0 0 0-.106.343c.164.002.35.048.437.08.013.177.032.353.05.529l-1.52.11ZM29.776 4.818l-.193-.705s.656-.31.656-.316c.15-.113.213-.412.238-.584a7.69 7.69 0 0 0-.011-.596l-.082-1.59c-.163-.012-.238-.053-.304-.083l-.047-.529L33.77.223l.014.53c-.076.043-.242.11-.404.132l.158 3.102c.163.005.336.055.416.09l.046.53-1.783.092-.007-.532a1.25 1.25 0 0 1 .404-.132L32.454.933 31.18.999l.099 1.937c.065 1.283-.488 1.679-1.502 1.882ZM34.659 4.584l.002-.53c.077-.043.244-.107.406-.126L34.965.824c-.574-.007-.473-.292-.445-.627L37.69.091l.038 1.152c-.09.023-.175.032-.246.034-.345.012-.463-.194-.493-.52l-1.101.037.04 1.19.755-.025c.012-.04.044-.23.056-.263l.522.001-.014.565.058.575-.527.037c-.02-.038-.059-.221-.074-.272l-.755.024.042 1.271 1.198-.04c.015-.335.113-.542.464-.553.072-.002.156.001.248.018l.04 1.179-.718-.003-2.565.086ZM39.999.685l.023 1.37s.358 0 .436-.002c.567-.01.848-.329.842-.741-.008-.445-.337-.656-.747-.65l-.554.023Zm.033 1.952.02 1.154c.162.01.463.064.542.102l.028.53-1.916.033.011-.531c.078-.04.246-.103.409-.119L39.073.701c-.573-.017-.467-.3-.434-.635l.919-.015s.846-.04 1.035-.044l.085-.002c1.016-.017 1.528.57 1.54 1.245.01.59-.336 1.395-1.463 1.415a1.442 1.442 0 0 1-.176-.004c-.071.001-.547-.024-.547-.024ZM42.754 4.394l.019-.53c.078-.04.247-.1.41-.113L43.178.646c-.574-.025-.463-.307-.425-.641L45.926 0l.002 1.152c-.091.02-.176.027-.248.027-.345 0-.456-.21-.476-.537l-1.101.003.002 1.192.756-.002c.013-.039.052-.229.064-.262l.522.019-.032.563.04.577-.528.02c-.019-.038-.052-.222-.065-.275l-.756.002.002 1.27 1.2-.001c.024-.335.128-.538.48-.539.072 0 .157.007.248.026l.002 1.18-.717-.025-2.567.004ZM48.934 2.105l.287.005.023-1.422-.495-.021c-.417-.007-.798.197-.806.661-.009.53.294.772.802.78l.189-.003Zm-2.175 2.29-.082-.545.485-.162c.013-.006.381-.623.676-1.116-.621-.246-.82-.846-.813-1.305.011-.68.549-1.274 1.637-1.256 0 0 .586.029.872.04l1.069.018c.033.334.14.618-.434.634l-.05 3.106c.162.015.33.078.408.118l.01.531-1.784-.03.028-.53c.079-.037.249-.094.413-.104l.017-1.12-.462.005-.65 1.044c-.354.578-.72.683-1.34.673ZM55.426.877l-.054 1.21.358.017c.424.019.788-.116.81-.6.018-.406-.254-.602-.736-.623a7.332 7.332 0 0 0-.378-.004Zm-.083 1.859-.055 1.238c.053.002.508.036.58.039.41.018.724-.151.743-.57.018-.4-.271-.662-.831-.687l-.437-.02Zm-1.43 1.826.042-.53a1.26 1.26 0 0 1 .416-.093l.137-3.104c-.468-.04-.427-.229-.416-.478.003-.058.012-.117.021-.182l.749.034c.143.006.815.01 1.154.025.833.037 1.543.502 1.511 1.215-.03.701-.51.916-.916.963l-.003.053c.588.137 1.011.452.984 1.06-.032.715-.647 1.2-1.656 1.154-.319-.014-.767-.06-.989-.07l-1.035-.047ZM58.097 4.752l.053-.53c.08-.033.254-.081.417-.084l.199-3.1a1.212 1.212 0 0 1-.396-.137l.015-.53 1.768.113-.047.529a1.285 1.285 0 0 1-.417.085l-.118 1.85 2.04-1.47.016-.255a1.195 1.195 0 0 1-.396-.137l.015-.53 1.769.114-.047.528c-.08.035-.247.083-.41.086l-.2 3.1c.163.024.321.093.404.138l-.022.53-1.782-.115.054-.529c.08-.034.253-.082.417-.084l.121-1.897-2.04 1.47-.02.301c.162.024.328.094.403.138l-.014.531-1.782-.115ZM63.397 5.104l.065-.527a1.27 1.27 0 0 1 .419-.075l.27-3.095a1.23 1.23 0 0 1-.393-.147l.026-.53 1.767.155-.06.528a1.307 1.307 0 0 1-.418.075l-.105 1.202 1.935.17.104-1.202a1.206 1.206 0 0 1-.392-.146l.026-.53 1.766.156-.059.527a1.2 1.2 0 0 1-.412.076l-.27 3.095c.161.027.319.1.4.147l-.034.53-1.779-.157.066-.527c.081-.033.255-.077.419-.075l.11-1.26-1.935-.171-.11 1.26c.161.027.325.101.399.147l-.027.53-1.778-.156Z" fill="#ED1344"/></svg>