<svg width="151" height="38" fill="none" xmlns="http://www.w3.org/2000/svg"><path d="M14.624 27.228c-.106-.66-.692-1.068-1.346-.96-.606.098-1.084.68-.978 1.34a1.194 1.194 0 0 0 1.35.987 1.176 1.176 0 0 0 .974-1.367ZM13.341 7.197a2.715 2.715 0 0 0-.875-.185l.008.05c.056.191.193.27.281.204l.008.05c.024.147.015.249-.025.305.197-.007.37-.01.524.016 0 0-1.338.494-1.647.269 0 0 .166-.053.38-.113a.827.827 0 0 1-.131-.356.627.627 0 0 1 .021-.33c-.14.048-.258.092-.258.092l-.148.477-.151-.327.135-.398c1.106-.383 1.806.107 1.806.107l.072.139Zm.253-.746s-1.365-.305-2.396.09l.06-.563s1.328-.242 2.241.187l.095.286Zm-.697 4.815-.229-.19s-.417.496-1.386.655c-.993.163-1.496-.182-1.496-.182-.003-.026-.187.23-.187.23s.174-.003.354.194c.205.193.562.562 1.434.42.848-.139 1.091-.481 1.198-.75.113-.22.312-.377.312-.377Zm-3.28-3.737s-.178-.022-.424-.007c.008.048.036.07.044.119.1.159.209.217.302.177A.826.826 0 0 1 9.5 8.2c.198-.008.347-.006.347-.006-.199.309-1.594.286-1.594.286.085-.09.275-.147.469-.179-.06-.064-.1-.16-.124-.306-.016-.097-.032-.196.002-.303.048-.006.068-.034.068-.034-.214.059-.46.225-.7.44l.05-.159s.459-.704 1.649-.722l.28.357-.018.354-.312-.4Zm.201-.763c-1.149-.038-2.327.682-2.327.682l.002-.302c.734-.698 2.094-.895 2.094-.895l.231.515Zm4.212 9.42c-.86.215-1.3.112-2.006.201-.673.136-1.034.371-1.99.452-2.308.327-4.63-1.607-3.675-6.366.017-.053.042-.207.067-.362-.722-.008-.052-.947-.516-1.827-.41-.862-.167-1.053.151-1.08l.072-.012c-.15-.629-.332-1.152-.391-1.52-.203-1.273-.034-2.08.501-2.62C7.259 1.48 6.291.858 6.291.858c2.506-1.264 3.952-.142 4.504.823.503.974.61 3.043-.77 3.746-.912.35-3.212.725-3.013 1.975.236 1.168-.224 2.022.01 2.864.082.363.218.743.374 1.095.442.28 1.005.54 1.435-.033.605-.728 1.212-.978 1.643-1.074-.133-.053-.258-.058-.476-.022-.508.083-.5-.646-.5-.646l.263-.22s.034.522.2.47c.181-.105.233-.089.354.042.145.127.443.13.685.09 0 0 .388-.064.46-.226a1.436 1.436 0 0 0-.044-.748c-.067-.265.233.214.276.333.017.097.028.17.21.217.2.017.278-.12.119-.497l.286.079s.282.682-.25.77c-.218.035-.335.08-.42.168.39-.038 1.044.006 1.82.508.586.407 1.009-.064 1.398-.43.038-.383.072-.79.038-1.162-.04-.873-.767-1.533-.93-2.713-.113-.862-.608-1.31-1.119-1.402-1.555-.249-1.094-2.335-1.782-3.227 1.655-.371 3.206.003 3.616 2.576.06.367.04.873.074 1.546l.028.02c.306-.1.624.024.478.978-.12.95.759 1.636.148 1.86.076.165.148.304.18.35 2.387 4.21.76 6.79-1.556 7.219Zm12.522 17.741-8.088 1.322-.357-2.857c.235-.24.697-.617 1.294-.766l-.943-4.821-.128-.96-.213.536-3.602 7.477L8.7 27.795l-.237-.238.67 5.747c.613-.05 1.168.162 1.49.31l.526 2.83-7.725 1.263-.38-2.855c.259-.243.938-.656 1.536-.804L3.158 21.71c-.56.067-1.411-.12-1.66-.282-.197-.922-.374-1.874-.575-2.823l6.999-1.144 4.452 5.636.53.667.298-.778 2.978-6.874 6.732-1.1c.08.967.209 1.928.333 2.863-.236.24-.96.685-1.537.804l2.586 12.15c.613-.05 1.41.121 1.708.274l.55 2.825ZM35.614 23.958c.049-.005.709-.065 1.195-.136l-.357-3.906-1.322.098c-1.003.069-1.38 1.077-1.307 1.868.09.99.79 2.17 1.791 2.076Zm.52 9.174-.194-2.923c.275-.225.782-.596 1.388-.703l-.255-2.792-1.319.123-1.511 3.407c-1.492 3.353-2.589 3.482-5.568 4.034l-.73-3.943 2.193-.803c-.05.004.792-1.844 1.431-3.2-1.94-.74-2.534-2.656-2.68-4.263-.247-2.694 1.808-5.28 5.643-5.639 0 0 2.478-.107 3.75-.202l4.568-.427.169 2.926c-.275.225-.807.6-1.414.706l.877 9.592c.616-.008 1.182.262 1.493.432.113.962.225 1.923.365 2.906l-8.207.769ZM45.31 24.113c-.268-6.449 3.776-8.956 8.703-9.167 1.764-.075 3.887.183 5.354.642l-.031 5.145c-.293.061-.561.099-.806.109-1.79.076-2.716-.953-3.24-2.323a3.577 3.577 0 0 0-1.01-.08c-1.96.083-3.674 1.97-3.526 5.517.132 3.2 1.724 4.87 4.102 4.77 1.348-.058 3.553-.748 4.93-1.875l.372 3.636c-1.503 1.057-3.563 1.69-5.303 1.765-5.637.24-9.31-2.509-9.545-8.139ZM62.286 31.578l.12-2.927c.296-.196.838-.515 1.452-.56l.073-9.632c-.614-.055-1.175-.381-1.468-.583l-.052-2.929 8.266.064-.095 2.928c-.295.196-.862.515-1.476.56l-.023 3.054 5.348.041.023-3.054c-.613-.055-1.175-.381-1.467-.581l-.077-2.932 8.292.064-.12 2.929c-.297.196-.864.514-1.477.56l-.072 9.632c.612.054 1.174.381 1.468.582l.05 2.929-8.242-.063.097-2.928c.295-.197.862-.515 1.475-.56l.023-3.078-5.346-.041-.024 3.078c.613.055 1.15.382 1.443.582l.051 2.928-8.242-.063ZM88.257 23.815c-.178 2.949 1.012 5.211 2.971 5.333 1.959.12 3.389-1.98 3.567-4.928.178-2.95-1.012-5.212-2.947-5.332-1.959-.121-3.413 1.977-3.591 4.927Zm-5.46-.338c.342-5.65 4.025-8.43 9.263-8.107 5.29.327 8.56 3.563 8.22 9.189-.34 5.625-3.976 8.432-9.264 8.106-5.265-.327-8.56-3.563-8.22-9.188ZM109.205 20.716l-.338 3.034.12.015c1.049.12 1.936-.08 2.082-1.387.134-1.208-.596-1.517-1.864-1.662Zm-.735 6.587-.325 2.91.025.003s1.188.186.969.16c.927.107 1.601-.19 1.714-1.202.13-1.16-.652-1.673-1.847-1.81l-.536-.06Zm.847 6.79c-1.487-.17-2.739-.463-3.567-.557l-4.632-.53.398-2.901c.315-.164.887-.423 1.502-.403l1.068-9.572c-1.769-.3-1.518-1.222-1.394-2.332.048-.42.148-.882.247-1.321l3.266.374c.536.061 3.137.209 4.502.364 2.925.334 6.224 2.186 5.885 5.22-.311 2.787-2.257 3.19-3.576 3.29l-.033.295c1.902.642 3.555 1.556 3.276 4.046-.294 2.64-2.848 4.494-6.942 4.027ZM127.077 29.155l-.617 3.67.024.005s1.467.302 1.225.26c1.016.175 1.737-.708 1.894-1.637.188-1.125-.519-1.953-1.704-2.156l-.822-.142Zm-8.176-10.876 11.246 1.936c-.188.975-.373 1.925-.582 2.872-.299.15-.909.372-1.521.317l-.375 2.227.387.067c6.434 1.108 7.35 4.237 6.935 6.707-.486 2.886-3.248 5.105-7.311 4.406-1.232-.213-2.518-.56-3.409-.738l-5.006-.862c.213-.97.397-1.919.582-2.87.323-.145.909-.372 1.522-.317l1.588-9.445-1.499-.258c-.238.815-.49 1.577-.616 1.883l-2.866-.418.925-5.507ZM39.416 8.553l-.028-.796c.113-.068.36-.174.6-.212l-.327-4.652a1.845 1.845 0 0 1-.614-.123l-.084-.793 6.753-.486.036.796a1.858 1.858 0 0 1-.599.21l.328 4.653c.244.002.502.073.633.122l.075.793-2.659.192-.027-.797a1.87 1.87 0 0 1 .6-.21l-.328-4.653-2.736.197.328 4.652c.243.002.502.073.623.123l.084.793-2.658.191ZM49.09 2.274l.105 2.054s.535-.018.651-.025c.846-.044 1.25-.539 1.217-1.157-.034-.668-.537-.968-1.149-.935l-.824.063Zm.15 2.928.089 1.73c.243.007.695.072.815.124l.07.795-2.856.15-.012-.798a1.88 1.88 0 0 1 .604-.198l-.24-4.658c-.857.005-.713-.426-.681-.93l1.37-.073s1.26-.106 1.542-.12c.04-.002.078-.003.127-.007 1.516-.08 2.31.776 2.36 1.788.047.884-.426 2.111-2.107 2.2-.087.004-.175.009-.263.004-.106.005-.818-.007-.818-.007ZM54.527 4.354c.047 1.446.896 2.41 2.004 2.374 1.108-.038 1.892-1.059 1.845-2.504-.048-1.445-.887-2.41-2.005-2.373-1.108.038-1.893 1.059-1.844 2.503Zm-1.459.05c-.071-2.174 1.278-3.46 3.27-3.526 1.993-.068 3.434 1.125 3.505 3.297.072 2.173-1.278 3.458-3.28 3.526-2.012.069-3.423-1.125-3.495-3.298ZM63.322 4.134c.014 1.112-.259 1.834-.748 2.331l2.412-.03-.06-4.664-1.634.021.03 2.342ZM66.927.781l-.01.797a1.932 1.932 0 0 1-.61.175l.06 4.664.846-.011V8.62l-.78.008c-.059-.117-.148-.97-.17-1.246l-4.689.061c-.015.286-.062 1.143-.119 1.261l-.789.001-.066-2.213.35-.005c1.348-.303 1.376-1.847 1.368-2.537l-.028-2.144a1.94 1.94 0 0 1-.615-.16l-.03-.796 5.282-.07ZM68.246.736l2.675.018-.025.797a1.878 1.878 0 0 1-.604.163l1.23 2.28 1.24-2.263a1.76 1.76 0 0 1-.592-.171l.025-.797 2.567.018-.034.796c-.117.059-.352.106-.594.124L72.48 4.72c-.257.47-.513 1.039-.907 1.588-.47.666-1.21.936-2.185 1.068l-.216-1.085s1.052-.288 1.052-.298c.118-.038.225-.097.313-.165a6.92 6.92 0 0 0 .353-.479l-1.999-3.645a2.022 2.022 0 0 1-.63-.17l-.015-.798ZM78.526 4.661l-.747.64-.032 1.22c.243.026.493.12.609.183l.008.797L75.7 7.43l.05-.796c.119-.056.373-.137.618-.15l.122-4.664c-.7-.048-.644-.331-.634-.706.003-.089.014-.177.026-.275l2.646.072c-.016.265-.034.529-.04.796-.129.046-.374.137-.617.15l-.056 2.135 2.273-2.075c-.243-.037-.367-.118-.51-.182l.039-.796 2.393.064-.05.797c-.128.045-.315.129-.5.144L79.473 3.78l1.943 2.749.703.275-.167.802c-.933-.024-1.55-.277-2.16-1.15L78.527 4.66ZM83.053 2.924l.054-1.88 5.794.268-.114 1.876-.79.024c-.053-.122-.094-.733-.101-.99l-1.246-.029-.209 4.642c.242.03.49.13.605.194l-.008.799-2.662-.123.064-.795c.12-.054.376-.131.62-.14l.21-4.64-1.243-.077c-.022.255-.105.803-.19.966l-.784-.095ZM95.193 8.326l.084-.793c.12-.05.379-.122.622-.125l.312-4.653a1.764 1.764 0 0 1-.59-.208l.024-.797 2.64.181c-.028.265-.056.529-.073.794-.13.05-.38.121-.624.125l-.31 4.652c.24.037.486.141.599.209l-.024.798-2.66-.183Zm-3.42-3.34-.143 2.12c.078.004.834.075.94.084.611.05 1.099-.389 1.14-1.007.04-.599-.375-1.09-1.21-1.148l-.728-.05Zm.864-3.443c-.018.266-.046.53-.073.794a1.86 1.86 0 0 1-.622.126l-.105 1.55.612.042c2.31.159 2.778 1.305 2.717 2.218-.077 1.138-1.013 2.021-2.517 1.918-.476-.032-1.21-.122-1.55-.146a3.342 3.342 0 0 0-.087-.005l-1.455-.101.082-.793c.12-.051.378-.122.623-.125l.311-4.652c-.851-.099-.658-.509-.566-1.006l2.63.18Z" fill="#74140D"/><path d="M141.562 14.806c-.143 0-.249.026-.313.075-.447.34-.122 2.528 1.333 5.945 2.352-.122 4.103-.697 4.309-1.434.207-.739-.87-2.174-2.505-3.338-1.243-.886-2.289-1.248-2.824-1.248Zm.346 7.13-.145-.332c-1.842-4.214-2.227-6.769-1.142-7.594.98-.746 2.898.106 4.367 1.153 2.572 1.832 3.194 3.54 2.918 4.529-.217.774-1.239 2.094-5.645 2.232l-.353.011Z" fill="#80BA27"/><path d="M142.787 12.286c-.78 0-1.991.386-3.284 1.23-2.356 1.54-2.994 3.176-2.826 4.11.275 1.523 2.506 2.857 5.259 3.18 2.098-4.33 2.446-7.687 1.544-8.35-.152-.111-.39-.17-.693-.17Zm-.234 9.666-.352-.03c-3.481-.294-6.179-1.98-6.561-4.099-.365-2.022 1.463-4.023 3.296-5.221 1.728-1.129 3.993-1.884 5.159-1.027 1.325.974 1.413 4.46-1.381 10.055l-.161.322Z" fill="#80BA27"/><path d="M138.442 18.241a.329.329 0 0 0-.134.025c-.261.115-.634.874-.658 2-.019.863.21 1.996.913 2.344.726.36 2.051-.034 3.045-1.265-1.307-2.181-2.621-3.104-3.166-3.104Zm.707 5.579a2.34 2.34 0 0 1-1.045-.233c-.978-.486-1.543-1.736-1.509-3.345.024-1.117.377-2.566 1.296-2.972 1.237-.546 3.216 1.032 4.81 3.84l.172.303-.199.285c-.922 1.325-2.315 2.122-3.525 2.122Z" fill="#80BA27"/><path d="M142.923 21.463c.986 1.384 2.821 1.905 4.271 1.152 1.527-.794 1.75-2.55 1.782-3.068.062-1.017-.221-1.689-.441-1.842-.511-.355-2.477.68-5.612 3.758Zm2.851 2.578c-1.578 0-3.149-.876-3.988-2.39l-.202-.364.292-.293c3.61-3.61 6.05-5.02 7.25-4.187.626.434.981 1.536.903 2.807-.109 1.774-.99 3.257-2.359 3.968a4.095 4.095 0 0 1-1.896.459Z" fill="#80BA27"/><path d="M140.577 31.471c-.52-1.673-.641-3.17-.468-4.91.191-1.921.821-3.806 1.824-5.452l.894.576a11.922 11.922 0 0 0-1.668 4.985c-.158 1.591.028 3.24.503 4.77l-1.085.031Z" fill="#80BA27"/></svg>