<svg width="89" height="30" fill="none" xmlns="http://www.w3.org/2000/svg"><path d="m8.953 25.43.191 1.174c.064.39-.212.637-.601.702a.358.358 0 0 1-.133.004c-.35-.008-.65-.11-.709-.468L7.515 25.7c-.402.183-.798.415-1.082.713-.203.184-.55.61-.46 1.064.134.714 1.326 1.288 2.81.993a4.24 4.24 0 0 0 1.452-.59c.55-.41.846-.943.76-1.365-.074-.456-.535-.732-.802-.838a3.58 3.58 0 0 0-1.24-.248ZM3.927 14.307a.783.783 0 0 1 .688-.883c.438-.072.82.233.893.673.055.442-.246.843-.67.896a.777.777 0 0 1-.911-.686Zm3.717 7.69c.016-.003.035.011.035.011 1.957-.356 3.352-1.607 2.701-5.7-.037-.23-.026-.164-.074-.357-.683.816-1.941 1.475-3.195 1.748l-.146.024c-1.476.243-2.818-.121-3.796-.814.012.282-.002.301.047.595.65 4.094 2.45 4.819 4.428 4.493Zm-4.561-7.35c.213 1.203 1.916 1.944 3.689 1.585 1.694-.33 3.06-1.659 2.836-2.827-.216-1.12-1.857-1.887-3.543-1.61l-.13.022c-1.773.359-3.075 1.661-2.852 2.83Zm5.557 8.86.082.505c.743-.039 1.445.08 2.036.334.91.37 1.534 1.137 1.659 1.903.173 1.06-.314 2.06-1.356 2.818a5.28 5.28 0 0 1-2.012.833l-.146.025c-2.157.354-4.056-.571-4.351-2.18-.15-.812.175-1.686.86-2.384.488-.482 1.158-.86 1.886-1.098l-.083-.505c-2.942.234-5.315-1.25-6.053-5.983-.815-5.205 1.273-7.206 4.53-7.76 3.256-.552 5.962.726 6.783 5.864.764 4.895-.989 6.908-3.835 7.628ZM13.784 14.499l-.382-3.132 9.74-1.046.284 3.143-1.314.24c-.119-.187-.341-1.193-.42-1.616l-2.086.274.824 7.753c.412-.01.853.091 1.06.169l.19 1.325-4.478.48-.092-1.335c.185-.12.595-.313 1-.39l-.824-7.753-2.095.192c.029.428.028 1.359-.072 1.652l-1.335.044ZM28.813 15.514c.11 1.863-.294 3.095-1.082 3.969l4.067-.242-.461-7.816-2.756.164.232 3.925Zm5.824-5.908.046 1.338a3.292 3.292 0 0 1-1.017.342l.462 7.816 1.427-.085.17 3.713-1.313.078c-.11-.192-.326-1.62-.386-2.079l-7.906.472c-.005.48-.018 1.92-.105 2.125l-1.33.063-.284-3.707.59-.035c2.252-.614 2.181-3.208 2.113-4.362l-.212-3.595a3.278 3.278 0 0 1-1.05-.219l-.112-1.333 8.907-.532ZM39.175 15.041c.021 2.428 1.416 4.084 3.29 4.068 1.873-.017 3.238-1.697 3.217-4.126-.02-2.428-1.4-4.084-3.289-4.068-1.873.017-3.239 1.697-3.218 4.126Zm-2.465.02c-.031-3.65 2.3-5.751 5.669-5.781 3.369-.03 5.753 2.031 5.784 5.682.032 3.65-2.3 5.752-5.685 5.782-3.401.03-5.736-2.031-5.768-5.682ZM60.166 20.97l-4.925-.2.103-1.336c.201-.09.601-.223 1.013-.24l-1.973-2.857-2.246 2.686c.409.05.797.214.99.32l-.087 1.337-3.874-.159.103-1.334c.2-.091.453-.23.865-.246l3.33-3.881-2.769-3.932a3.415 3.415 0 0 1-1.056-.323l.021-1.34 4.877.2L54.45 11c-.201.091-.601.224-1.013.24l1.82 2.586 2.055-2.428a3.176 3.176 0 0 1-1.007-.322l.087-1.336 3.776.154-.087 1.335c-.218.09-.47.23-.882.246l-3.055 3.594 2.987 4.238c.41.05.846.217 1.056.325l-.022 1.338ZM61.854 21.073l.178-1.327a3.18 3.18 0 0 1 1.058-.178l.757-7.793c-.406-.073-.8-.261-.986-.38l.08-1.336 4.449.437-.162 1.329a3.3 3.3 0 0 1-1.058.178l-.294 3.025 4.874.48.294-3.026a3.07 3.07 0 0 1-.987-.379l.08-1.336 4.45.437-.163 1.328a3.06 3.06 0 0 1-1.041.18l-.758 7.793c.406.073.8.261 1.003.38l-.097 1.336-4.48-.44.178-1.328c.205-.08.645-.185 1.057-.178l.309-3.173-4.874-.479-.309 3.173a3.19 3.19 0 0 1 1.004.38l-.08 1.337-4.482-.44ZM75.177 22.42l.263-1.311c.21-.066.656-.143 1.067-.11l1.257-7.726a3.058 3.058 0 0 1-.961-.443l.166-1.328 4.41.725-.248 1.315a3.283 3.283 0 0 1-1.065.109l-.75 4.613 5.479-3.184.102-.636a3.059 3.059 0 0 1-.96-.441l.165-1.329 4.413.724-.247 1.316a3.073 3.073 0 0 1-1.052.111l-1.255 7.727c.4.1.782.312.977.445l-.183 1.325-4.443-.73.263-1.311c.21-.066.656-.144 1.067-.11l.77-4.727-5.48 3.184-.123.75c.4.098.799.315.978.444l-.167 1.329-4.443-.73ZM21.044 1.758c-.462.023-.576-.158-.598-.4-.006-.058-.005-.124-.005-.19l3.453-.316.102 1.129-.527.035c-.027-.083-.07-.277-.114-.47l-1.39.127.281 3.094c.157-.001.585.025.666.05l.067.527-2.154.198-.029-.53c.075-.047.368-.133.529-.16l-.28-3.094ZM26.571 1.705l-.43 1.484 1.184-.086-.624-1.407-.07-.258-.026.002-.034.265Zm-1.823 3.477-.018-.531c.07-.038.137-.09.292-.126l.984-3.239-.033.003a.405.405 0 0 1-.346-.37c-.005-.058-.009-.11 0-.177l1.566-.211 1.637 3.712c.164.001.266.053.353.086.012.177.031.353.05.529l-1.768.127a14.907 14.907 0 0 1-.024-.53c.075-.045.246-.116.408-.141l-.258-.593-1.625.118-.078.281a7.115 7.115 0 0 0-.107.343c.164.002.35.048.438.08.012.177.031.353.05.529l-1.52.11ZM29.776 4.818l-.192-.705s.656-.31.655-.316c.151-.113.214-.412.238-.584a7.69 7.69 0 0 0-.01-.596l-.082-1.59c-.164-.012-.238-.053-.305-.083l-.046-.529 3.735-.192.014.53c-.076.043-.242.11-.404.132l.159 3.102c.163.005.335.055.415.09l.047.53-1.783.092-.008-.532a1.25 1.25 0 0 1 .404-.132L32.455.933l-1.276.066.1 1.937c.065 1.283-.489 1.679-1.503 1.882ZM34.659 4.584l.002-.53c.076-.043.243-.107.406-.126L34.964.824c-.574-.007-.472-.292-.444-.627l3.17-.106.04 1.152c-.091.023-.176.032-.248.034-.345.012-.462-.194-.493-.52l-1.1.037.04 1.19.755-.025c.011-.04.044-.23.056-.263l.522.001-.014.565.058.575-.527.037c-.02-.038-.06-.221-.074-.272l-.755.024.042 1.271 1.198-.04c.015-.335.112-.542.464-.553.072-.002.156.001.248.018L37.94 4.5l-.717-.003-2.565.086ZM40 .685l.022 1.37s.358 0 .437-.002c.566-.01.848-.329.841-.741-.007-.445-.337-.656-.747-.65l-.554.023Zm.032 1.952.02 1.154c.162.01.463.064.542.102l.029.53-1.916.033.01-.531c.078-.04.247-.103.41-.119L39.074.701c-.574-.017-.468-.3-.434-.635l.919-.015s.846-.04 1.035-.044l.084-.002c1.017-.017 1.529.57 1.54 1.245.01.59-.335 1.395-1.462 1.415a1.441 1.441 0 0 1-.176-.004c-.072.001-.548-.024-.548-.024ZM42.755 4.394l.018-.53c.078-.04.248-.1.41-.113L43.178.646c-.573-.025-.463-.307-.424-.641L45.927 0l.002 1.152c-.092.02-.177.027-.248.027-.345 0-.456-.21-.476-.537l-1.102.003.003 1.192.755-.002c.013-.039.052-.229.065-.262l.521.019-.032.563.04.577-.527.02c-.02-.038-.053-.222-.066-.275l-.756.002.003 1.27 1.198-.001c.026-.335.13-.538.482-.539.071 0 .156.007.247.026l.002 1.18-.717-.025-2.566.004ZM48.934 2.105l.286.005.023-1.422-.495-.021c-.416-.007-.798.197-.805.661-.01.53.293.772.802.78l.189-.003Zm-2.175 2.29-.083-.545.486-.162c.013-.006.38-.623.676-1.116-.622-.246-.82-.846-.813-1.305.01-.68.548-1.274 1.636-1.256 0 0 .587.029.873.04l1.069.018c.033.334.14.618-.434.634l-.05 3.106c.162.015.33.078.407.118l.011.531-1.785-.03.029-.53c.079-.037.249-.094.412-.104l.018-1.12-.463.005-.649 1.044c-.354.578-.72.683-1.34.673ZM55.426.877l-.054 1.21.359.017c.423.019.788-.116.809-.6.018-.406-.254-.602-.736-.623a7.33 7.33 0 0 0-.378-.004Zm-.082 1.859-.055 1.238c.052.002.507.036.579.039.41.018.724-.151.743-.57.018-.4-.27-.662-.83-.687l-.437-.02Zm-1.432 1.826.044-.53a1.26 1.26 0 0 1 .415-.093l.137-3.104c-.468-.04-.427-.229-.416-.478.003-.058.012-.117.021-.182l.75.034c.142.006.814.01 1.153.025.833.037 1.544.502 1.512 1.215-.031.701-.51.916-.917.963l-.002.053c.587.137 1.01.452.983 1.06-.031.715-.646 1.2-1.656 1.154-.319-.014-.767-.06-.988-.07l-1.036-.047ZM58.097 4.752l.053-.53c.08-.033.254-.081.417-.084l.199-3.1a1.213 1.213 0 0 1-.396-.137l.015-.53 1.768.113-.047.529a1.284 1.284 0 0 1-.416.085l-.119 1.85 2.04-1.47.017-.255a1.194 1.194 0 0 1-.396-.137l.014-.53 1.769.114-.047.528c-.08.035-.247.083-.41.086l-.2 3.1c.163.024.321.093.404.138l-.021.53-1.782-.115.053-.529c.08-.034.254-.082.417-.084l.122-1.897-2.04 1.47-.02.301c.162.024.327.094.402.138l-.014.531-1.782-.115ZM63.397 5.104l.065-.527a1.27 1.27 0 0 1 .419-.075l.27-3.095a1.23 1.23 0 0 1-.393-.147l.026-.53 1.767.155-.06.528a1.307 1.307 0 0 1-.418.075l-.105 1.202 1.935.17.104-1.202a1.206 1.206 0 0 1-.392-.146l.026-.53 1.766.156-.059.527a1.2 1.2 0 0 1-.412.076l-.27 3.095c.161.027.319.1.4.147l-.034.53-1.779-.157.066-.527c.081-.033.255-.077.419-.075l.11-1.26-1.935-.171-.11 1.26c.161.027.325.101.399.147l-.027.53-1.778-.156Z" fill="#BCBCBC"/></svg>