<svg width="132" height="200" fill="none" xmlns="http://www.w3.org/2000/svg"><g><g clip-path="url(#a)"><path fill-rule="evenodd" clip-rule="evenodd" d="M18.882 14.515s-.6-.42-1.552-.092l-.117.343.131.281.127-.41.222-.079a.527.527 0 0 0-.018.285.699.699 0 0 0 .112.305c-.183.051-.326.096-.326.096.266.194 1.416-.231 1.416-.231a2.262 2.262 0 0 0-.45-.012c.033-.05.04-.138.021-.264l-.006-.042c-.077.056-.195-.011-.243-.176l-.006-.042c.215.008.478.05.751.158l-.062-.12ZM15.743 14.917l.268.345.015-.305-.24-.306c-1.023.016-1.418.62-1.418.62l-.042.137c.206-.185.417-.327.602-.38 0 0-.018.025-.06.031-.028.092-.014.176 0 .26.02.126.053.207.105.263-.167.028-.33.076-.403.153 0 0 1.2.02 1.37-.245 0 0-.127-.001-.297.005a.706.706 0 0 0 .033-.33c-.08.036-.173-.014-.26-.151-.007-.042-.03-.06-.037-.102a2.35 2.35 0 0 1 .364.005" fill="#7A1600"/><mask id="b" mask-type="alpha" maskUnits="userSpaceOnUse" x="12" y="8" width="10" height="15"><path fill-rule="evenodd" clip-rule="evenodd" d="M12.34 8.705h9.544v14.241h-9.543V8.705Z" fill="#fff"/></mask><g mask="url(#b)"><path fill-rule="evenodd" clip-rule="evenodd" d="M15.89 18.375s.432.295 1.286.156c.833-.136 1.192-.562 1.192-.562l.197.163s-.17.135-.269.324c-.091.232-.3.524-1.03.644-.748.121-1.055-.196-1.232-.361-.155-.17-.304-.166-.304-.166s.157-.22.16-.198m-3.14-3.743-.063.01c-.275.022-.483.186-.13.928.399.755-.177 1.561.443 1.568-.021.133-.043.266-.057.312-.821 4.085 1.174 5.747 3.16 5.466.82-.07 1.13-.271 1.71-.388.607-.077.985.013 1.724-.173 1.992-.368 3.39-2.583 1.338-6.2a2.644 2.644 0 0 1-.155-.299c.524-.193-.232-.783-.127-1.598.126-.82-.148-.927-.411-.84l-.025-.017c-.028-.579-.012-1.013-.063-1.33-.352-2.209-1.686-2.531-3.109-2.213.593.768.195 2.56 1.533 2.773.44.08.864.464.96 1.204.142 1.013.766 1.581.8 2.332.03.318 0 .669-.032.998-.334.313-.698.718-1.202.369-.667-.431-1.228-.47-1.565-.436.074-.076.175-.115.362-.145.458-.075.214-.662.214-.662l-.245-.067c.136.323.07.442-.103.426-.156-.038-.166-.102-.18-.186-.037-.102-.294-.513-.237-.285.085.267.071.442.039.642-.063.14-.397.193-.397.193-.208.035-.464.033-.588-.076-.104-.113-.149-.127-.306-.037-.142.046-.171-.404-.171-.404l-.227.188s-.006.628.431.557c.188-.03.295-.027.409.019-.371.083-.892.297-1.411.922-.371.491-.856.27-1.235.028a5.292 5.292 0 0 1-.321-.94c-.201-.723.194-1.457-.009-2.46-.171-1.074 1.806-1.397 2.591-1.697 1.186-.605 1.094-2.382.661-3.218-.475-.83-1.717-1.793-3.872-.707 0 0 .832.534-.04 1.885-.46.465-.606 1.157-.432 2.252.05.316.209.765.338 1.306" fill="#7A1600"/></g><path fill-rule="evenodd" clip-rule="evenodd" d="M15.717 13.823s-1.17.17-1.8.77l-.001.258s1.012-.618 2-.585l-.199-.443ZM19.083 13.75c-.785-.37-1.927-.161-1.927-.161l-.05.483c.885-.339 2.059-.077 2.059-.077l-.082-.246ZM19.21 33.01a1.027 1.027 0 0 1-1.16-.846c-.092-.568.32-1.068.84-1.152.563-.092 1.067.258 1.158.825a1.008 1.008 0 0 1-.838 1.174m9.15 1.918-2.223-10.434c.497-.102 1.12-.485 1.321-.69a49.613 49.613 0 0 1-.286-2.458l-5.787.944-2.56 5.903-.257.668-.455-.573-3.827-4.84-6.015.983c.172.814.324 1.631.493 2.424.214.138.945.3 1.427.242l1.223 10.597c-.513.127-1.098.482-1.32.69l.327 2.453 6.641-1.084-.453-2.431c-.277-.128-.753-.309-1.28-.266l-.576-4.938.203.205 4.997 5.209 3.097-6.423.183-.462.11.825.812 4.143c-.514.127-.911.45-1.113.657l.306 2.454 6.954-1.135-.474-2.427c-.255-.132-.941-.28-1.468-.236M38.092 29.024c-.862.08-1.463-.934-1.54-1.782-.063-.68.26-1.544 1.124-1.604l1.136-.085.306 3.354c-.417.06-.985.113-1.026.117m5.906 4.353-.753-8.236c.52-.092.978-.412 1.214-.606l-.145-2.512-3.926.367c-1.094.081-3.224.173-3.224.173-3.297.308-5.063 2.529-4.852 4.843.126 1.379.637 3.023 2.305 3.66-.55 1.163-1.273 2.75-1.231 2.746l-1.885.691.628 3.388c2.56-.476 3.504-.584 4.786-3.466l1.3-2.926 1.133-.106.22 2.399c-.521.09-.957.41-1.194.603l.166 2.51 7.055-.659c-.12-.846-.217-1.67-.314-2.497-.267-.146-.754-.379-1.283-.372M54.63 33.125c-2.043.087-3.411-1.348-3.526-4.096-.126-3.045 1.347-4.665 3.032-4.737.38-.015.634.016.868.07.45 1.176 1.246 2.06 2.784 1.994.21-.009.442-.04.693-.093l.026-4.418c-1.261-.394-3.085-.616-4.602-.551-4.234.18-7.711 2.333-7.481 7.87.202 4.835 3.36 7.197 8.205 6.99 1.496-.063 3.268-.607 4.56-1.516l-.32-3.122c-1.184.968-3.08 1.56-4.24 1.61M70.218 23.879c.252.172.735.453 1.262.5l-.02 2.62-4.597-.034.02-2.623c.528-.038 1.014-.311 1.269-.48l.082-2.515-7.106-.053.044 2.515c.252.172.735.453 1.262.5l-.063 8.27c-.527.039-.993.313-1.248.481l-.102 2.515 7.084.054-.044-2.515c-.251-.173-.713-.454-1.241-.5l.02-2.643 4.597.035-.02 2.643c-.527.039-1.015.312-1.269.48l-.081 2.516 7.085.054-.045-2.515c-.251-.173-.734-.454-1.262-.5l.062-8.272c.529-.038 1.015-.311 1.27-.48l.103-2.515-7.127-.055.065 2.517ZM88.96 29.254c-.153 2.531-1.38 4.335-3.064 4.23-1.685-.103-2.708-2.045-2.555-4.577.153-2.533 1.404-4.335 3.088-4.23 1.662.102 2.685 2.044 2.532 4.577m-2.351-7.601c-4.504-.278-7.67 2.11-7.964 6.962-.292 4.83 2.54 7.61 7.066 7.89 4.546.282 7.67-2.131 7.963-6.961.292-4.83-2.518-7.61-7.065-7.891M102.951 27.672c-.126 1.122-.888 1.293-1.788 1.19l-.105-.012.291-2.605c1.089.124 1.718.389 1.602 1.427m-.186 5.838c-.097.869-.677 1.124-1.473 1.033.188.022-.834-.138-.834-.138l-.021-.003.279-2.5.462.053c1.026.118 1.698.56 1.587 1.555m-.123-10.271c-1.174-.134-3.41-.26-3.87-.313l-2.808-.32c-.085.376-.172.773-.212 1.133-.107.954-.322 1.744 1.198 2.004l-.918 8.219c-.529-.017-1.021.205-1.29.346l-.344 2.492 3.982.456c.712.08 1.788.332 3.066.478 3.52.402 5.714-1.192 5.968-3.459.239-2.14-1.18-2.924-2.816-3.475l.028-.255c1.135-.085 2.807-.43 3.074-2.824.291-2.605-2.543-4.195-5.058-4.482M118.882 35.47c-.134.799-.754 1.558-1.627 1.408.208.035-1.053-.225-1.053-.225l-.021-.004.53-3.152.708.121c1.018.175 1.626.886 1.463 1.852m-1.327-4.945-.332-.057.322-1.913c.527.048 1.051-.143 1.308-.272a97.4 97.4 0 0 0 .5-2.465l-9.667-1.663-.795 4.729 2.463.359c.109-.263.326-.917.529-1.618l1.289.222-1.365 8.112c-.527-.048-1.03.148-1.308.273a99.761 99.761 0 0 1-.501 2.465l4.304.74c.766.154 1.871.452 2.931.634 3.492.6 5.867-1.304 6.284-3.785.357-2.123-.431-4.81-5.962-5.76M41.57 10.938l.282 3.996a1.59 1.59 0 0 0-.516.182l.023.685 2.285-.165-.072-.68a1.566 1.566 0 0 0-.536-.106l-.282-3.998 2.353-.169.281 3.997a1.619 1.619 0 0 0-.516.181l.023.685 2.286-.165-.064-.68a1.704 1.704 0 0 0-.544-.106l-.282-3.997c.207-.032.419-.124.515-.18l-.032-.685-5.805.417.073.682c.104.043.318.104.528.106M50.38 10.35c.526-.027.958.229.987.803.028.531-.319.957-1.045.995-.1.005-.56.02-.56.02l-.09-1.763.708-.055Zm-1.893.117.206 4.002a1.594 1.594 0 0 0-.52.171l.011.685 2.455-.128-.06-.683c-.103-.046-.491-.101-.7-.107l-.077-1.486s.612.01.703.005c.077.005.15 0 .227-.003 1.444-.076 1.85-1.13 1.812-1.89-.046-.87-.728-1.603-2.03-1.535l-.109.005c-.242.013-1.326.104-1.326.104l-1.178.062c-.027.433-.15.804.586.798ZM55.931 10.043c.96-.032 1.682.798 1.723 2.04.042 1.241-.633 2.118-1.585 2.15-.952.032-1.683-.798-1.723-2.039-.04-1.242.632-2.119 1.585-2.15m.168 5.025c1.722-.058 2.88-1.163 2.82-3.03-.062-1.866-1.3-2.89-3.012-2.832-1.714.058-2.874 1.162-2.812 3.03.061 1.866 1.275 2.89 3.004 2.832M61.266 14.005c.421-.428.655-1.048.643-2.003l-.025-2.012 1.404-.017.052 4.005-2.074.027Zm3.318 1.86.669-.008v-1.902l-.727.01-.051-4.006c.209-.02.416-.099.525-.15l.007-.685-4.54.059.027.684c.109.05.319.123.528.137l.024 1.843c.008.591-.017 1.919-1.176 2.179l-.301.004.057 1.901h.678c.048-.102.09-.838.103-1.084l4.03-.052c.02.236.095.97.147 1.07ZM66.694 9.917l1.718 3.13a5.79 5.79 0 0 1-.303.413.919.919 0 0 1-.27.142c0 .007-.904.255-.904.255l.186.93c.837-.112 1.474-.344 1.879-.915.338-.472.559-.96.778-1.364l1.423-2.594c.209-.015.409-.056.51-.106l.03-.685-2.208-.015-.02.685c.1.051.3.129.508.147l-1.065 1.945-1.058-1.96c.21-.015.41-.09.52-.14l.02-.684-2.298-.016.012.685c.099.051.333.129.542.147M75.793 11.7l1.707-1.578c.158-.013.319-.084.429-.123l.043-.684-2.057-.055-.034.684c.124.054.231.124.439.155l-1.954 1.783.048-1.833c.21-.012.421-.091.53-.13.006-.229.02-.456.035-.684l-2.274-.062c-.01.085-.02.16-.023.237-.008.32-.056.565.545.607l-.105 4.006c-.21.01-.429.08-.53.129l-.043.684 2.29.061-.007-.686a1.64 1.64 0 0 0-.523-.157l.027-1.048.642-.55L76.068 14c.523.75 1.054.966 1.856.988l.143-.69-.604-.236-1.67-2.361ZM79.708 10.218l1.068.066-.179 3.987c-.21.007-.431.073-.533.119l-.057.683 2.289.106.007-.685a1.597 1.597 0 0 0-.52-.168l.18-3.987 1.07.024c.008.22.043.747.088.851l.678-.02.099-1.612-4.98-.23-.048 1.614.674.082c.075-.14.146-.61.164-.83M91.611 15.077a1.604 1.604 0 0 0-.516-.18l.269-3.997a1.66 1.66 0 0 0 .534-.107c.016-.227.04-.454.063-.681l-2.27-.156-.02.685c.097.057.3.147.508.178l-.268 3.997c-.21.002-.432.064-.535.107l-.07.682 2.285.156.02-.684ZM86.364 12.736l.626.042c.717.05 1.074.472 1.04.987-.036.531-.455.909-.98.865-.092-.007-.74-.069-.808-.072l.122-1.822Zm-.58 2.628c.292.02.924.097 1.332.125 1.293.088 2.098-.67 2.164-1.647.052-.784-.35-1.77-2.336-1.906l-.526-.036.09-1.332c.21-.003.432-.064.535-.108.024-.226.047-.454.062-.682l-2.26-.154c-.079.427-.245.78.487.863l-.268 3.997c-.21.002-.432.064-.535.107l-.071.682 1.25.085.075.006Z" fill="#7A1600"/></g><defs><clipPath id="a"><path fill="#fff" d="M0 0h132v49H0z"/></clipPath></defs></g><g clip-path="url(#a)" transform="translate(0 50)"><path fill-rule="evenodd" clip-rule="evenodd" d="M18.882 14.515s-.6-.42-1.552-.092l-.117.343.131.281.127-.41.222-.079a.527.527 0 0 0-.018.285.699.699 0 0 0 .112.305c-.183.051-.326.096-.326.096.266.194 1.416-.231 1.416-.231a2.262 2.262 0 0 0-.45-.012c.033-.05.04-.138.021-.264l-.006-.042c-.077.056-.195-.011-.243-.176l-.006-.042c.215.008.478.05.751.158l-.062-.12ZM15.743 14.917l.268.345.015-.305-.24-.306c-1.023.016-1.418.62-1.418.62l-.042.137c.206-.185.417-.327.602-.38 0 0-.018.025-.06.031-.028.092-.014.176 0 .26.02.126.053.207.105.263-.167.028-.33.076-.403.153 0 0 1.2.02 1.37-.245 0 0-.127-.001-.297.005a.706.706 0 0 0 .033-.33c-.08.036-.173-.014-.26-.151-.007-.042-.03-.06-.037-.102a2.35 2.35 0 0 1 .364.005" fill="#B3B3B3"/><g mask="url(#b)"><path fill-rule="evenodd" clip-rule="evenodd" d="M15.89 18.375s.432.295 1.286.156c.833-.136 1.192-.562 1.192-.562l.197.163s-.17.135-.269.324c-.091.232-.3.524-1.03.644-.748.121-1.055-.196-1.232-.361-.155-.17-.304-.166-.304-.166s.157-.22.16-.198m-3.14-3.743-.063.01c-.275.022-.483.186-.13.928.399.755-.177 1.561.443 1.568-.021.133-.043.266-.057.312-.821 4.085 1.174 5.747 3.16 5.466.82-.07 1.13-.271 1.71-.388.607-.077.985.013 1.724-.173 1.992-.368 3.39-2.583 1.338-6.2a2.644 2.644 0 0 1-.155-.299c.524-.193-.232-.783-.127-1.598.126-.82-.148-.927-.411-.84l-.025-.017c-.028-.579-.012-1.013-.063-1.33-.352-2.209-1.686-2.531-3.109-2.213.593.768.195 2.56 1.533 2.773.44.08.864.464.96 1.204.142 1.013.766 1.581.8 2.332.03.318 0 .669-.032.998-.334.313-.698.718-1.202.369-.667-.431-1.228-.47-1.565-.436.074-.076.175-.115.362-.145.458-.075.214-.662.214-.662l-.245-.067c.136.323.07.442-.103.426-.156-.038-.166-.102-.18-.186-.037-.102-.294-.513-.237-.285.085.267.071.442.039.642-.063.14-.397.193-.397.193-.208.035-.464.033-.588-.076-.104-.113-.149-.127-.306-.037-.142.046-.171-.404-.171-.404l-.227.188s-.006.628.431.557c.188-.03.295-.027.409.019-.371.083-.892.297-1.411.922-.371.491-.856.27-1.235.028a5.292 5.292 0 0 1-.321-.94c-.201-.723.194-1.457-.009-2.46-.171-1.074 1.806-1.397 2.591-1.697 1.186-.605 1.094-2.382.661-3.218-.475-.83-1.717-1.793-3.872-.707 0 0 .832.534-.04 1.885-.46.465-.606 1.157-.432 2.252.05.316.209.765.338 1.306" fill="#B3B3B3"/></g><path fill-rule="evenodd" clip-rule="evenodd" d="M15.717 13.823s-1.17.17-1.8.77l-.001.258s1.012-.618 2-.585l-.199-.443ZM19.083 13.75c-.785-.37-1.927-.161-1.927-.161l-.05.483c.885-.339 2.059-.077 2.059-.077l-.082-.246ZM19.21 33.01a1.027 1.027 0 0 1-1.16-.846c-.092-.568.32-1.068.84-1.152.563-.092 1.067.258 1.158.825a1.008 1.008 0 0 1-.838 1.174m9.15 1.918-2.223-10.434c.497-.102 1.12-.485 1.321-.69a49.613 49.613 0 0 1-.286-2.458l-5.787.944-2.56 5.903-.257.668-.455-.573-3.827-4.84-6.015.983c.172.814.324 1.631.493 2.424.214.138.945.3 1.427.242l1.223 10.597c-.513.127-1.098.482-1.32.69l.327 2.453 6.641-1.084-.453-2.431c-.277-.128-.753-.309-1.28-.266l-.576-4.938.203.205 4.997 5.209 3.097-6.423.183-.462.11.825.812 4.143c-.514.127-.911.45-1.113.657l.306 2.454 6.954-1.135-.474-2.427c-.255-.132-.941-.28-1.468-.236M38.092 29.024c-.862.08-1.463-.934-1.54-1.782-.063-.68.26-1.544 1.124-1.604l1.136-.085.306 3.354c-.417.06-.985.113-1.026.117m5.906 4.353-.753-8.236c.52-.092.978-.412 1.214-.606l-.145-2.512-3.926.367c-1.094.081-3.224.173-3.224.173-3.297.308-5.063 2.529-4.852 4.843.126 1.379.637 3.023 2.305 3.66-.55 1.163-1.273 2.75-1.231 2.746l-1.885.691.628 3.388c2.56-.476 3.504-.584 4.786-3.466l1.3-2.926 1.133-.106.22 2.399c-.521.09-.957.41-1.194.603l.166 2.51 7.055-.659c-.12-.846-.217-1.67-.314-2.497-.267-.146-.754-.379-1.283-.372M54.63 33.125c-2.043.087-3.411-1.348-3.526-4.096-.126-3.045 1.347-4.665 3.032-4.737.38-.015.634.016.868.07.45 1.176 1.246 2.06 2.784 1.994.21-.009.442-.04.693-.093l.026-4.418c-1.261-.394-3.085-.616-4.602-.551-4.234.18-7.711 2.333-7.481 7.87.202 4.835 3.36 7.197 8.205 6.99 1.496-.063 3.268-.607 4.56-1.516l-.32-3.122c-1.184.968-3.08 1.56-4.24 1.61M70.218 23.879c.252.172.735.453 1.262.5l-.02 2.62-4.597-.034.02-2.623c.528-.038 1.014-.311 1.269-.48l.082-2.515-7.106-.053.044 2.515c.252.172.735.453 1.262.5l-.063 8.27c-.527.039-.993.313-1.248.481l-.102 2.515 7.084.054-.044-2.515c-.251-.173-.713-.454-1.241-.5l.02-2.643 4.597.035-.02 2.643c-.527.039-1.015.312-1.269.48l-.081 2.516 7.085.054-.045-2.515c-.251-.173-.734-.454-1.262-.5l.062-8.272c.529-.038 1.015-.311 1.27-.48l.103-2.515-7.127-.055.065 2.517ZM88.96 29.254c-.153 2.531-1.38 4.335-3.064 4.23-1.685-.103-2.708-2.045-2.555-4.577.153-2.533 1.404-4.335 3.088-4.23 1.662.102 2.685 2.044 2.532 4.577m-2.351-7.601c-4.504-.278-7.67 2.11-7.964 6.962-.292 4.83 2.54 7.61 7.066 7.89 4.546.282 7.67-2.131 7.963-6.961.292-4.83-2.518-7.61-7.065-7.891M102.951 27.672c-.126 1.122-.888 1.293-1.788 1.19l-.105-.012.291-2.605c1.089.124 1.718.389 1.602 1.427m-.186 5.838c-.097.869-.677 1.124-1.473 1.033.188.022-.834-.138-.834-.138l-.021-.003.279-2.5.462.053c1.026.118 1.698.56 1.587 1.555m-.123-10.271c-1.174-.134-3.41-.26-3.87-.313l-2.808-.32c-.085.376-.172.773-.212 1.133-.107.954-.322 1.744 1.198 2.004l-.918 8.219c-.529-.017-1.021.205-1.29.346l-.344 2.492 3.982.456c.712.08 1.788.332 3.066.478 3.52.402 5.714-1.192 5.968-3.459.239-2.14-1.18-2.924-2.816-3.475l.028-.255c1.135-.085 2.807-.43 3.074-2.824.291-2.605-2.543-4.195-5.058-4.482M118.882 35.47c-.134.799-.754 1.558-1.627 1.408.208.035-1.053-.225-1.053-.225l-.021-.004.53-3.152.708.121c1.018.175 1.626.886 1.463 1.852m-1.327-4.945-.332-.057.322-1.913c.527.048 1.051-.143 1.308-.272a97.4 97.4 0 0 0 .5-2.465l-9.667-1.663-.795 4.729 2.463.359c.109-.263.326-.917.529-1.618l1.289.222-1.365 8.112c-.527-.048-1.03.148-1.308.273a99.761 99.761 0 0 1-.501 2.465l4.304.74c.766.154 1.871.452 2.931.634 3.492.6 5.867-1.304 6.284-3.785.357-2.123-.431-4.81-5.962-5.76M41.57 10.938l.282 3.996a1.59 1.59 0 0 0-.516.182l.023.685 2.285-.165-.072-.68a1.566 1.566 0 0 0-.536-.106l-.282-3.998 2.353-.169.281 3.997a1.619 1.619 0 0 0-.516.181l.023.685 2.286-.165-.064-.68a1.704 1.704 0 0 0-.544-.106l-.282-3.997c.207-.032.419-.124.515-.18l-.032-.685-5.805.417.073.682c.104.043.318.104.528.106M50.38 10.35c.526-.027.958.229.987.803.028.531-.319.957-1.045.995-.1.005-.56.02-.56.02l-.09-1.763.708-.055Zm-1.893.117.206 4.002a1.594 1.594 0 0 0-.52.171l.011.685 2.455-.128-.06-.683c-.103-.046-.491-.101-.7-.107l-.077-1.486s.612.01.703.005c.077.005.15 0 .227-.003 1.444-.076 1.85-1.13 1.812-1.89-.046-.87-.728-1.603-2.03-1.535l-.109.005c-.242.013-1.326.104-1.326.104l-1.178.062c-.027.433-.15.804.586.798ZM55.931 10.043c.96-.032 1.682.798 1.723 2.04.042 1.241-.633 2.118-1.585 2.15-.952.032-1.683-.798-1.723-2.039-.04-1.242.632-2.119 1.585-2.15m.168 5.025c1.722-.058 2.88-1.163 2.82-3.03-.062-1.866-1.3-2.89-3.012-2.832-1.714.058-2.874 1.162-2.812 3.03.061 1.866 1.275 2.89 3.004 2.832M61.266 14.005c.421-.428.655-1.048.643-2.003l-.025-2.012 1.404-.017.052 4.005-2.074.027Zm3.318 1.86.669-.008v-1.902l-.727.01-.051-4.006c.209-.02.416-.099.525-.15l.007-.685-4.54.059.027.684c.109.05.319.123.528.137l.024 1.843c.008.591-.017 1.919-1.176 2.179l-.301.004.057 1.901h.678c.048-.102.09-.838.103-1.084l4.03-.052c.02.236.095.97.147 1.07ZM66.694 9.917l1.718 3.13a5.79 5.79 0 0 1-.303.413.919.919 0 0 1-.27.142c0 .007-.904.255-.904.255l.186.93c.837-.112 1.474-.344 1.879-.915.338-.472.559-.96.778-1.364l1.423-2.594c.209-.015.409-.056.51-.106l.03-.685-2.208-.015-.02.685c.1.051.3.129.508.147l-1.065 1.945-1.058-1.96c.21-.015.41-.09.52-.14l.02-.684-2.298-.016.012.685c.099.051.333.129.542.147M75.793 11.7l1.707-1.578c.158-.013.319-.084.429-.123l.043-.684-2.057-.055-.034.684c.124.054.231.124.439.155l-1.954 1.783.048-1.833c.21-.012.421-.091.53-.13.006-.229.02-.456.035-.684l-2.274-.062c-.01.085-.02.16-.023.237-.008.32-.056.565.545.607l-.105 4.006c-.21.01-.429.08-.53.129l-.043.684 2.29.061-.007-.686a1.64 1.64 0 0 0-.523-.157l.027-1.048.642-.55L76.068 14c.523.75 1.054.966 1.856.988l.143-.69-.604-.236-1.67-2.361ZM79.708 10.218l1.068.066-.179 3.987c-.21.007-.431.073-.533.119l-.057.683 2.289.106.007-.685a1.597 1.597 0 0 0-.52-.168l.18-3.987 1.07.024c.008.22.043.747.088.851l.678-.02.099-1.612-4.98-.23-.048 1.614.674.082c.075-.14.146-.61.164-.83M91.611 15.077a1.604 1.604 0 0 0-.516-.18l.269-3.997a1.66 1.66 0 0 0 .534-.107c.016-.227.04-.454.063-.681l-2.27-.156-.02.685c.097.057.3.147.508.178l-.268 3.997c-.21.002-.432.064-.535.107l-.07.682 2.285.156.02-.684ZM86.364 12.736l.626.042c.717.05 1.074.472 1.04.987-.036.531-.455.909-.98.865-.092-.007-.74-.069-.808-.072l.122-1.822Zm-.58 2.628c.292.02.924.097 1.332.125 1.293.088 2.098-.67 2.164-1.647.052-.784-.35-1.77-2.336-1.906l-.526-.036.09-1.332c.21-.003.432-.064.535-.108.024-.226.047-.454.062-.682l-2.26-.154c-.079.427-.245.78.487.863l-.268 3.997c-.21.002-.432.064-.535.107l-.071.682 1.25.085.075.006Z" fill="#B3B3B3"/></g><g fill-rule="evenodd" clip-rule="evenodd" fill="#ED1848"><path d="M19.194 136.333s-.024-.017-.045-.015c-2.51.41-4.796-.5-5.622-5.656-.061-.37-.044-.393-.06-.749 1.242.872 2.946 1.332 4.82 1.026l.185-.031c1.592-.344 3.19-1.174 4.057-2.2.06.242.048.16.094.447.826 5.155-.944 6.73-3.429 7.178m1.858 5.787-.242-1.478c.572.011 1.12.133 1.573.311.339.135.924.482 1.02 1.057.107.53-.27 1.202-.966 1.717a5.405 5.405 0 0 1-1.844.743c-1.885.371-3.398-.351-3.567-1.25-.115-.572.325-1.108.584-1.338.36-.376.862-.669 1.373-.9l.237 1.436c.074.452.455.58.9.591.065.01.106.004.168-.006.495-.081.844-.391.764-.883m-4.075-18.618.165-.026c2.142-.35 4.223.617 4.498 2.026.283 1.472-1.45 3.145-3.601 3.56-2.251.452-4.413-.48-4.684-1.996-.283-1.472 1.371-3.111 3.622-3.564m8.303 5.114c-1.042-6.467-4.477-8.077-8.612-7.38-4.135.696-6.787 3.215-5.752 9.768.938 5.96 3.95 7.827 7.686 7.533l.106.637c-.925.297-1.776.773-2.395 1.38-.87.88-1.282 1.98-1.092 3.003.374 2.025 2.786 3.19 5.525 2.743l.185-.03a6.718 6.718 0 0 0 2.554-1.05c1.324-.953 1.941-2.213 1.722-3.547-.16-.965-.952-1.931-2.107-2.395-.75-.32-1.641-.47-2.584-.42l-.105-.638c3.614-.906 5.84-3.44 4.869-9.604"/><path d="M15.583 127.505c.539-.067.92-.572.851-1.13-.091-.554-.578-.938-1.133-.846a.986.986 0 0 0-.874 1.112.987.987 0 0 0 1.156.864M26.457 122.937l.485 3.943 1.695-.055c.128-.37.128-1.54.091-2.08l2.66-.241 1.047 9.76a4.076 4.076 0 0 0-1.27.491l.117 1.682 5.685-.605-.242-1.668a4.02 4.02 0 0 0-1.345-.213l-1.046-9.762 2.65-.344c.099.533.381 1.8.532 2.034l1.668-.302-.362-3.957-12.365 1.317ZM44.651 133.159c1-1.101 1.514-2.653 1.375-4.997l-.295-4.942 3.5-.207.585 9.84-5.165.306Zm8.123-.482-.586-9.841a4.193 4.193 0 0 0 1.29-.43l-.057-1.684-11.309.67.142 1.678c.278.109.81.265 1.332.275l.27 4.526c.087 1.453.177 4.718-2.683 5.492l-.75.044.363 4.666 1.687-.079c.11-.256.128-2.07.134-2.675l10.038-.594c.076.58.35 2.376.49 2.617l1.666-.098-.215-4.674-1.812.107ZM63.353 132.685c-2.378.021-4.15-2.064-4.176-5.12-.027-3.058 1.708-5.174 4.085-5.194 2.4-.022 4.15 2.064 4.177 5.121.026 3.057-1.708 5.173-4.086 5.193m-.107-12.376c-4.277.038-7.238 2.683-7.197 7.28.04 4.596 3.005 7.191 7.324 7.154 4.298-.038 7.258-2.684 7.218-7.28-.04-4.596-3.068-7.19-7.345-7.153M80.723 127.598l3.88-4.527c.523-.02.844-.194 1.12-.308l.11-1.682-4.795-.192-.11 1.68c.266.136.759.344 1.278.407l-2.609 3.057-2.31-3.257a3.77 3.77 0 0 0 1.286-.301l.11-1.682-6.191-.25-.026 1.685c.245.135.82.345 1.34.407l3.515 4.95-4.228 4.887c-.523.02-.844.195-1.099.31l-.13 1.68 4.92.199.11-1.682a3.75 3.75 0 0 0-1.258-.404l2.852-3.382 2.505 3.598c-.523.02-1.03.187-1.285.301l-.132 1.681 6.253.253.028-1.685a4.55 4.55 0 0 0-1.341-.408l-3.793-5.335ZM98.388 123.866c.236.148.738.385 1.252.478l-.373 3.807-6.188-.602.373-3.809a4.2 4.2 0 0 0 1.343-.224l.206-1.673-5.648-.55-.102 1.683a3.93 3.93 0 0 0 1.253.477l-.963 9.811a4.055 4.055 0 0 0-1.341.225l-.227 1.67 5.69.554.102-1.682a4.027 4.027 0 0 0-1.274-.478l.391-3.996 6.188.603-.391 3.995a4.037 4.037 0 0 0-1.343.224l-.227 1.67 5.69.555.123-1.68a4.156 4.156 0 0 0-1.273-.48l.961-9.811a3.93 3.93 0 0 0 1.322-.227l.206-1.673-5.648-.55-.102 1.683ZM116.226 124.58l-.212 1.673c.227.163.712.432 1.22.556l-.132.802-6.955 4.008.952-5.809a4.229 4.229 0 0 0 1.354-.137l.313-1.656-5.6-.912-.21 1.672c.227.163.711.433 1.219.558l-1.594 9.727a4.011 4.011 0 0 0-1.355.138l-.334 1.652 5.641.918.211-1.671a4.044 4.044 0 0 0-1.24-.56l.154-.945 6.957-4.008-.975 5.952a4.038 4.038 0 0 0-1.354.137l-.335 1.652 5.642.919.23-1.67a4.2 4.2 0 0 0-1.239-.559l1.594-9.728a3.902 3.902 0 0 0 1.334-.141l.313-1.656-5.599-.912ZM35.397 110.099c0 .082-.002.166.005.239.028.305.174.53.76.502l.357 3.894c-.205.035-.577.143-.671.202l.035.666 2.735-.248-.085-.663c-.103-.033-.646-.066-.845-.064l-.356-3.892 1.763-.16c.056.242.111.486.146.59l.669-.044-.13-1.42-4.383.398ZM43.172 110.776l.042-.334.033-.002.09.324.792 1.77-1.502.108.545-1.866Zm-.38 4.237c-.025-.222-.05-.444-.065-.666-.111-.04-.348-.1-.554-.101.038-.144.086-.287.134-.431l.1-.355 2.062-.148.328.746a1.687 1.687 0 0 0-.519.178c.008.223.016.445.032.667l2.245-.16c-.024-.221-.05-.444-.065-.665-.11-.042-.24-.107-.447-.11l-2.079-4.67-1.989.265c-.01.084-.005.15 0 .223a.512.512 0 0 0 .44.466l.042-.003-1.25 4.074c-.196.047-.282.112-.37.16l.023.667 1.931-.138ZM47.834 113.41c0 .007-.833.397-.833.397l.245.888c1.287-.256 1.991-.755 1.907-2.37l-.125-2.437 1.619-.082.201 3.903a1.622 1.622 0 0 0-.513.167l.01.668 2.264-.116-.06-.666a1.622 1.622 0 0 0-.528-.113l-.2-3.904c.205-.027.416-.113.513-.166l-.018-.668-4.744.242.06.666c.085.037.179.09.387.104l.103 2.002c.015.304.02.552.014.75-.03.217-.111.592-.302.734M53.831 109.666l.13 3.906a1.643 1.643 0 0 0-.515.157l-.003.669 3.257-.108.91.002-.049-1.483a1.507 1.507 0 0 0-.315-.022c-.447.014-.57.274-.59.696l-1.52.05-.055-1.598.96-.032c.019.065.068.295.095.343l.668-.047-.074-.724.018-.71-.662-.003c-.016.042-.057.283-.072.334l-.96.03-.05-1.5 1.398-.046c.038.412.187.671.626.657a1.48 1.48 0 0 0 .314-.044l-.05-1.45-4.025.133c-.036.422-.165.781.564.79M60.93 109.461c.52-.009.938.257.948.818.008.519-.348.92-1.068.933-.1.002-.554 0-.554 0l-.03-1.722.703-.029Zm-1.877.048.067 3.91c-.207.02-.42.097-.519.149l-.014.668 2.432-.041-.036-.668c-.1-.047-.482-.115-.69-.129l-.023-1.45s.604.03.695.028c.075.008.15.006.224.006 1.43-.025 1.868-1.039 1.856-1.78-.015-.85-.663-1.59-1.955-1.568l-.107.002c-.24.003-1.315.055-1.315.055l-1.167.02c-.042.421-.176.778.552.798ZM64.263 109.442l.006 3.908a1.588 1.588 0 0 0-.521.141l-.023.668 3.258-.005.911.032-.004-1.485a1.46 1.46 0 0 0-.313-.033c-.447.001-.58.256-.612.677l-1.521.003-.003-1.6.96-.001c.016.066.058.297.083.346l.67-.026-.05-.726.039-.708-.662-.024c-.016.04-.065.28-.081.33l-.96.001-.003-1.5 1.399-.003c.025.413.166.676.604.675.09 0 .199-.008.315-.032l-.003-1.452-4.029.007c-.048.42-.188.775.54.807M71.566 111.276l-.24.005c-.645-.011-1.03-.314-1.018-.982.01-.585.493-.841 1.023-.832l.629.026-.03 1.79-.364-.007Zm-.191 2.257-.037.667 2.267.037-.014-.668a1.627 1.627 0 0 0-.519-.15l.064-3.907c.729-.021.594-.378.551-.8l-1.357-.022c-.363-.013-1.108-.05-1.108-.05-1.38-.023-2.063.724-2.077 1.583-.01.576.243 1.331 1.032 1.64-.374.621-.842 1.397-.859 1.405l-.615.204.104.686c.785.014 1.251-.12 1.702-.846l.824-1.314.588-.007-.024 1.41a1.594 1.594 0 0 0-.522.132ZM79.708 112.067l.554.024c.71.032 1.077.363 1.055.864-.024.528-.423.742-.944.718-.09-.004-.67-.046-.735-.049l.07-1.557Zm.106-2.338c.149-.002.34-.002.48.006.612.026.957.273.934.784-.027.609-.49.78-1.028.755l-.455-.02.069-1.525Zm.647 4.784c1.282.058 2.063-.552 2.103-1.45.034-.766-.503-1.162-1.25-1.335l.004-.066c.516-.06 1.124-.33 1.164-1.212.04-.898-.861-1.483-1.92-1.53-.43-.019-1.282-.024-1.464-.032l-.951-.042c-.012.082-.024.156-.027.23-.014.313-.066.55.527.602l-.174 3.905a1.607 1.607 0 0 0-.528.118l-.053.666 1.314.058c.281.013.85.07 1.255.088ZM86.908 114.174l-.067.665 2.262.145.027-.668a1.693 1.693 0 0 0-.512-.173l.253-3.901c.207-.004.418-.065.52-.107l.06-.666-2.246-.144-.018.668c.096.056.297.143.502.173l-.02.321-2.59 1.85.15-2.33c.207-.002.418-.063.529-.106l.06-.665-2.247-.145-.018.669c.096.055.297.142.504.172l-.253 3.903a1.623 1.623 0 0 0-.53.106l-.067.665 2.262.145.019-.668a1.606 1.606 0 0 0-.512-.174l.025-.378 2.59-1.851-.154 2.387a1.614 1.614 0 0 0-.529.107M92.224 114.583a1.6 1.6 0 0 0-.507-.185l.14-1.586 2.456.214-.14 1.586a1.59 1.59 0 0 0-.53.095l-.085.663 2.259.197.042-.666a1.667 1.667 0 0 0-.507-.185l.343-3.896c.208.002.42-.054.524-.095l.074-.664-2.242-.196-.034.667c.095.059.294.15.5.185l-.134 1.513-2.456-.215.132-1.513c.208.002.42-.054.532-.094l.075-.664-2.242-.196-.034.667c.095.059.294.15.498.185l-.342 3.895a1.625 1.625 0 0 0-.532.094l-.083.664 2.26.197.033-.667Z"/></g><g fill-rule="evenodd" clip-rule="evenodd" fill="#B3B3B3"><path d="M19.194 186.333s-.024-.017-.045-.015c-2.51.41-4.796-.5-5.622-5.656-.061-.37-.044-.393-.06-.749 1.242.872 2.946 1.332 4.82 1.026l.185-.031c1.592-.344 3.19-1.174 4.057-2.2.06.242.048.16.094.447.826 5.155-.944 6.73-3.429 7.178m1.858 5.787-.242-1.478c.572.011 1.12.133 1.573.311.339.135.924.482 1.02 1.057.107.53-.27 1.202-.966 1.717a5.405 5.405 0 0 1-1.844.743c-1.885.371-3.398-.351-3.567-1.25-.115-.572.325-1.108.584-1.338.36-.376.862-.669 1.373-.9l.237 1.436c.074.452.455.58.9.591.065.01.106.004.168-.006.495-.081.844-.391.764-.883m-4.075-18.618.165-.026c2.142-.35 4.223.617 4.498 2.026.283 1.472-1.45 3.145-3.601 3.56-2.251.452-4.413-.48-4.684-1.996-.283-1.472 1.371-3.111 3.622-3.564m8.303 5.114c-1.042-6.467-4.477-8.077-8.612-7.38-4.135.696-6.787 3.215-5.752 9.768.938 5.96 3.95 7.827 7.686 7.533l.106.637c-.925.297-1.776.773-2.395 1.38-.87.88-1.282 1.98-1.092 3.003.374 2.025 2.786 3.19 5.525 2.743l.185-.03a6.718 6.718 0 0 0 2.554-1.05c1.324-.953 1.941-2.213 1.722-3.547-.16-.965-.952-1.931-2.107-2.395-.75-.32-1.641-.47-2.584-.42l-.105-.638c3.614-.906 5.84-3.44 4.869-9.604"/><path d="M15.583 177.505c.539-.067.92-.572.851-1.13-.091-.554-.578-.938-1.133-.846a.986.986 0 0 0-.874 1.112.987.987 0 0 0 1.156.864M26.457 172.937l.485 3.943 1.695-.055c.128-.37.128-1.54.091-2.08l2.66-.241 1.047 9.76a4.076 4.076 0 0 0-1.27.491l.117 1.682 5.685-.605-.242-1.668a4.02 4.02 0 0 0-1.345-.213l-1.046-9.762 2.65-.344c.099.533.381 1.8.532 2.034l1.668-.302-.362-3.957-12.365 1.317ZM44.651 183.159c1-1.101 1.514-2.653 1.375-4.997l-.295-4.942 3.5-.207.585 9.84-5.165.306Zm8.123-.482-.586-9.841a4.193 4.193 0 0 0 1.29-.43l-.057-1.684-11.309.67.142 1.679c.278.108.81.264 1.332.274l.27 4.526c.087 1.453.177 4.718-2.683 5.492l-.75.044.363 4.666 1.687-.079c.11-.256.128-2.07.134-2.675l10.038-.594c.076.58.35 2.376.49 2.617l1.666-.098-.215-4.674-1.812.107ZM63.353 182.685c-2.378.021-4.15-2.064-4.176-5.12-.027-3.058 1.708-5.174 4.085-5.194 2.4-.022 4.15 2.064 4.177 5.121.026 3.057-1.708 5.173-4.086 5.193m-.107-12.375c-4.277.037-7.238 2.682-7.197 7.279.04 4.596 3.005 7.191 7.324 7.154 4.298-.038 7.258-2.684 7.218-7.28-.04-4.596-3.068-7.19-7.345-7.153M80.723 177.598l3.88-4.527c.523-.02.844-.194 1.12-.308l.11-1.682-4.795-.192-.11 1.68c.266.136.759.344 1.278.407l-2.609 3.057-2.31-3.257a3.77 3.77 0 0 0 1.286-.301l.11-1.682-6.191-.25-.026 1.685c.245.135.82.345 1.34.407l3.515 4.95-4.228 4.887c-.523.02-.844.195-1.099.31l-.13 1.68 4.92.199.11-1.682a3.75 3.75 0 0 0-1.258-.404l2.852-3.382 2.505 3.598c-.523.02-1.03.187-1.285.301l-.132 1.681 6.253.253.028-1.685a4.55 4.55 0 0 0-1.341-.408l-3.793-5.335ZM98.388 173.866c.236.148.738.385 1.252.478l-.373 3.807-6.188-.602.373-3.809a4.2 4.2 0 0 0 1.343-.224l.206-1.673-5.648-.55-.102 1.683a3.93 3.93 0 0 0 1.253.477l-.963 9.811a4.055 4.055 0 0 0-1.341.225l-.227 1.67 5.69.554.102-1.682a4.027 4.027 0 0 0-1.274-.478l.391-3.996 6.188.603-.391 3.995a4.037 4.037 0 0 0-1.343.224l-.227 1.67 5.69.555.123-1.68a4.156 4.156 0 0 0-1.273-.48l.961-9.811a3.93 3.93 0 0 0 1.322-.227l.206-1.673-5.648-.55-.102 1.683ZM116.226 174.58l-.212 1.673c.227.163.712.432 1.22.556l-.132.802-6.955 4.008.952-5.809a4.229 4.229 0 0 0 1.354-.137l.313-1.656-5.6-.912-.21 1.673c.227.162.711.432 1.219.557l-1.594 9.727a4.011 4.011 0 0 0-1.355.138l-.334 1.652 5.641.918.211-1.671a4.044 4.044 0 0 0-1.24-.56l.154-.945 6.957-4.008-.975 5.952a4.038 4.038 0 0 0-1.354.137l-.335 1.652 5.642.919.23-1.67a4.2 4.2 0 0 0-1.239-.559l1.594-9.728a3.902 3.902 0 0 0 1.334-.141l.313-1.656-5.599-.912ZM35.397 160.099c0 .082-.002.166.005.239.028.305.174.53.76.502l.357 3.894c-.205.035-.577.143-.671.202l.035.666 2.735-.248-.085-.663c-.103-.033-.646-.066-.845-.064l-.356-3.892 1.763-.16c.056.242.111.486.146.59l.669-.044-.13-1.42-4.383.398ZM43.172 160.776l.042-.334.033-.002.09.324.792 1.77-1.502.108.545-1.866Zm-.38 4.236c-.025-.221-.05-.443-.065-.665-.111-.04-.348-.1-.554-.101.038-.144.086-.287.134-.431l.1-.355 2.062-.148.328.746a1.687 1.687 0 0 0-.519.178c.008.223.016.445.032.667l2.245-.16c-.024-.221-.05-.444-.065-.665-.11-.042-.24-.107-.447-.11l-2.079-4.67-1.989.265c-.01.084-.005.15 0 .223a.512.512 0 0 0 .44.466l.042-.003-1.25 4.074c-.196.047-.282.112-.37.16l.023.667 1.931-.138ZM47.834 163.41c0 .007-.833.397-.833.397l.245.888c1.287-.256 1.991-.755 1.907-2.37l-.125-2.437 1.619-.082.201 3.903a1.622 1.622 0 0 0-.513.167l.01.668 2.264-.116-.06-.666a1.622 1.622 0 0 0-.528-.113l-.2-3.904c.205-.027.416-.113.513-.166l-.018-.668-4.744.242.06.666c.085.037.179.09.387.104l.103 2.002c.015.304.02.552.014.75-.03.217-.111.592-.302.734M53.831 159.666l.13 3.906a1.643 1.643 0 0 0-.515.157l-.003.669 3.257-.108.91.002-.049-1.483a1.507 1.507 0 0 0-.315-.022c-.447.014-.57.274-.59.696l-1.52.05-.055-1.598.96-.032c.019.065.068.295.095.343l.668-.047-.074-.724.018-.71-.662-.003c-.016.042-.057.283-.072.333l-.96.032-.05-1.5 1.398-.047c.038.412.187.671.626.657a1.48 1.48 0 0 0 .314-.044l-.05-1.45-4.025.133c-.036.422-.165.781.564.79M60.93 159.461c.52-.009.938.257.948.818.008.519-.348.92-1.068.933-.1.002-.554 0-.554 0l-.03-1.722.703-.029Zm-1.877.048.067 3.91c-.207.02-.42.097-.519.149l-.014.668 2.432-.041-.036-.668c-.1-.047-.482-.115-.69-.129l-.023-1.45s.604.03.695.028c.075.008.15.006.224.006 1.43-.025 1.868-1.039 1.856-1.78-.015-.85-.663-1.59-1.955-1.568l-.107.002c-.24.003-1.315.055-1.315.055l-1.167.02c-.042.421-.176.778.552.798ZM64.263 159.442l.006 3.908a1.588 1.588 0 0 0-.521.141l-.023.668 3.258-.005.911.031-.004-1.484a1.46 1.46 0 0 0-.313-.033c-.447.001-.58.256-.612.677l-1.521.003-.003-1.6.96-.001c.016.066.058.297.083.346l.67-.026-.05-.726.039-.708-.662-.024c-.016.04-.065.28-.081.33l-.96.001-.003-1.5 1.399-.003c.025.412.166.676.604.675.09 0 .199-.008.315-.032l-.003-1.452-4.029.007c-.048.42-.188.775.54.807M71.566 161.276l-.24.005c-.645-.011-1.03-.314-1.018-.982.01-.585.493-.841 1.023-.832l.629.026-.03 1.79-.364-.007Zm-.191 2.257-.037.667 2.267.037-.014-.668a1.627 1.627 0 0 0-.519-.15l.064-3.907c.729-.021.594-.378.551-.8l-1.357-.022c-.363-.013-1.108-.05-1.108-.05-1.38-.023-2.063.724-2.077 1.583-.01.576.243 1.331 1.032 1.64-.374.621-.842 1.397-.859 1.405l-.615.204.104.686c.785.014 1.251-.12 1.702-.846l.824-1.314.588-.006-.024 1.41a1.594 1.594 0 0 0-.522.13ZM79.708 162.067l.554.024c.71.032 1.077.363 1.055.864-.024.528-.423.742-.944.718-.09-.004-.67-.046-.735-.048l.07-1.558Zm.106-2.338c.149-.002.34-.002.48.006.612.026.957.273.934.784-.027.609-.49.78-1.028.755l-.455-.02.069-1.525Zm.647 4.784c1.282.058 2.063-.552 2.103-1.45.034-.766-.503-1.162-1.25-1.335l.004-.066c.516-.06 1.124-.33 1.164-1.212.04-.898-.861-1.483-1.92-1.53-.43-.019-1.282-.024-1.464-.032l-.951-.042c-.012.082-.024.156-.027.23-.014.313-.066.55.527.602l-.174 3.905a1.607 1.607 0 0 0-.528.118l-.053.666 1.314.058c.281.013.85.07 1.255.088ZM86.908 164.173l-.067.666 2.262.145.027-.668a1.693 1.693 0 0 0-.512-.173l.253-3.901c.207-.004.418-.065.52-.107l.06-.666-2.246-.144-.018.668c.096.056.297.143.502.173l-.02.321-2.59 1.85.15-2.33c.207-.002.418-.063.529-.106l.06-.665-2.247-.145-.018.669c.096.055.297.142.504.172l-.253 3.903a1.623 1.623 0 0 0-.53.105l-.067.666 2.262.145.019-.668a1.606 1.606 0 0 0-.512-.174l.025-.378 2.59-1.851-.154 2.387a1.614 1.614 0 0 0-.529.106M92.224 164.583a1.6 1.6 0 0 0-.507-.185l.14-1.586 2.456.214-.14 1.586a1.59 1.59 0 0 0-.53.095l-.085.663 2.259.197.042-.666a1.667 1.667 0 0 0-.507-.185l.343-3.896c.208.002.42-.054.524-.095l.074-.664-2.242-.196-.034.667c.095.059.294.15.5.185l-.134 1.513-2.456-.215.132-1.513c.208.002.42-.054.532-.094l.075-.664-2.242-.196-.034.667c.095.059.294.15.498.185l-.342 3.895a1.625 1.625 0 0 0-.532.094l-.083.664 2.26.197.033-.667Z"/></g></svg>