<svg width="111" height="28" fill="none" xmlns="http://www.w3.org/2000/svg"><path d="M10.611 20.158a.846.846 0 0 0-.993-.72.883.883 0 0 0 .274 1.742.878.878 0 0 0 .72-1.022ZM9.664 5.166a1.98 1.98 0 0 0-.645-.138l.005.037c.042.144.142.203.208.153l.006.038c.017.11.011.186-.02.228.147-.005.274-.007.388.012 0 0-.987.37-1.216.201 0 0 .123-.04.28-.084a.625.625 0 0 1-.096-.267.475.475 0 0 1 .016-.247c-.104.036-.191.07-.191.07l-.109.356-.112-.244.1-.299c.817-.286 1.333.08 1.333.08l.053.104Zm.187-.557s-1.008-.229-1.768.066l.044-.42s.98-.182 1.654.14l.07.214Zm-.514 3.603-.17-.142s-.307.371-1.023.49c-.732.122-1.103-.137-1.103-.137-.003-.019-.138.173-.138.173s.128-.002.261.145c.151.144.415.42 1.058.315.626-.104.805-.36.884-.561.084-.165.23-.283.23-.283Zm-2.42-2.797s-.132-.016-.314-.005c.006.036.027.052.032.089.074.119.155.162.223.132a.626.626 0 0 1-.028.287c.145-.006.256-.005.256-.005-.147.232-1.177.214-1.177.214.063-.067.203-.11.346-.133a.423.423 0 0 1-.091-.23c-.012-.072-.023-.146.001-.226a.077.077 0 0 0 .05-.026c-.157.044-.34.169-.516.33l.037-.119s.339-.527 1.217-.54l.206.266-.013.266-.23-.3Zm.147-.571c-.847-.028-1.717.51-1.717.51l.001-.226c.542-.522 1.546-.67 1.546-.67l.17.386Zm3.109 7.05c-.635.161-.96.084-1.48.15-.498.102-.764.278-1.47.339-1.703.244-3.416-1.203-2.711-4.764.012-.04.03-.156.049-.272-.533-.005-.038-.708-.38-1.367-.304-.645-.124-.788.111-.808l.053-.009c-.11-.47-.245-.862-.289-1.137-.15-.953-.025-1.558.37-1.961.75-1.178.035-1.643.035-1.643 1.85-.946 2.917-.107 3.324.616.372.729.45 2.277-.567 2.803-.674.262-2.372.543-2.225 1.478.175.874-.165 1.513.008 2.143.06.272.161.557.276.82.326.21.742.404 1.06-.025.445-.544.893-.731 1.211-.803-.098-.04-.19-.044-.35-.017-.376.062-.37-.483-.37-.483l.194-.165s.025.391.147.352c.134-.079.173-.066.262.031.107.095.327.097.506.067 0 0 .286-.047.34-.168a1.09 1.09 0 0 0-.033-.56c-.05-.199.171.16.203.249.012.073.02.128.155.163.148.012.205-.09.088-.373l.21.06s.21.51-.184.575c-.16.027-.247.06-.31.127.289-.03.77.004 1.343.38.433.304.745-.048 1.032-.322.028-.287.054-.592.028-.87-.03-.653-.566-1.147-.686-2.03-.083-.645-.448-.98-.826-1.049-1.147-.186-.807-1.747-1.315-2.416 1.221-.277 2.366.003 2.669 1.928.043.275.03.654.054 1.157l.02.016c.227-.075.462.018.354.731-.09.712.56 1.224.11 1.393.055.123.108.227.132.26 1.761 3.152.561 5.083-1.148 5.404Zm9.24 13.278-5.969.988-.263-2.137c.174-.18.515-.462.955-.573l-.696-3.609-.095-.719-.156.402-2.659 5.596-4.29-4.538-.175-.178.494 4.301c.453-.037.862.121 1.1.232l.388 2.117-5.7.946-.282-2.137c.192-.181.694-.49 1.134-.601l-1.05-9.234c-.413.05-1.041-.09-1.225-.211-.145-.69-.276-1.403-.424-2.113l5.165-.856 3.285 4.217.391.5.22-.583 2.198-5.144 4.968-.824c.06.724.154 1.443.246 2.143-.174.18-.708.513-1.134.602l1.908 9.093c.452-.037 1.04.09 1.26.205l.406 2.115ZM26.101 17.711c.036-.003.523-.049.882-.102l-.263-2.923-.976.073c-.74.052-1.018.806-.964 1.398.066.74.582 1.624 1.321 1.554Zm.383 6.866-.142-2.188c.203-.168.577-.446 1.024-.526l-.188-2.09-.973.093-1.116 2.55c-1.1 2.509-1.91 2.605-4.109 3.019l-.539-2.952 1.62-.6c-.037.003.583-1.38 1.055-2.396-1.431-.554-1.87-1.987-1.978-3.19-.182-2.016 1.335-3.951 4.165-4.22 0 0 1.828-.08 2.768-.151l3.37-.32.125 2.19c-.203.168-.596.449-1.043.529l.647 7.178c.454-.006.872.197 1.102.323.083.72.166 1.44.268 2.175l-6.056.576ZM33.255 17.827c-.197-4.826 2.788-6.703 6.423-6.86 1.302-.056 2.869.137 3.951.48l-.023 3.85a3.61 3.61 0 0 1-.594.082c-1.321.057-2.005-.713-2.391-1.738a2.603 2.603 0 0 0-.746-.061c-1.446.063-2.711 1.475-2.602 4.13.098 2.394 1.272 3.645 3.027 3.569.995-.043 2.622-.56 3.639-1.403l.274 2.72c-1.11.792-2.63 1.267-3.913 1.322-4.16.18-6.871-1.877-7.045-6.091ZM45.784 23.413l.089-2.19c.218-.147.618-.386 1.071-.42l.054-7.208c-.453-.04-.867-.285-1.084-.436l-.038-2.192 6.1.047-.07 2.192c-.218.147-.636.385-1.089.419L50.8 15.91l3.946.03.017-2.285c-.452-.042-.866-.286-1.082-.436l-.057-2.193 6.119.048-.089 2.191c-.218.147-.637.385-1.09.42l-.053 7.208c.453.04.867.286 1.084.435l.037 2.192-6.082-.046.071-2.192c.218-.147.636-.385 1.089-.418l.017-2.304-3.946-.031-.017 2.303c.452.042.848.286 1.065.436l.038 2.192-6.083-.048ZM64.949 17.604c-.132 2.207.747 3.9 2.192 3.99 1.446.091 2.5-1.48 2.632-3.687.132-2.207-.747-3.9-2.174-3.99-1.446-.09-2.519 1.48-2.65 3.687Zm-4.03-.253c.253-4.229 2.97-6.31 6.837-6.067 3.903.244 6.316 2.667 6.065 6.877-.25 4.21-2.934 6.31-6.836 6.066-3.886-.244-6.317-2.666-6.066-6.876ZM80.408 15.284l-.25 2.271.09.01c.773.09 1.428-.059 1.536-1.037.099-.904-.44-1.135-1.376-1.243Zm-.542 4.93-.24 2.177.018.003s.877.14.716.12c.683.08 1.181-.143 1.264-.9.096-.867-.48-1.252-1.362-1.354l-.396-.046Zm.625 5.082c-1.098-.127-2.022-.347-2.632-.418l-3.419-.396.294-2.171c.232-.123.654-.317 1.108-.302l.788-7.163c-1.305-.226-1.12-.915-1.028-1.746.035-.313.11-.66.182-.989l2.41.28c.396.046 2.316.157 3.323.273 2.158.25 4.592 1.636 4.343 3.907-.23 2.086-1.666 2.387-2.64 2.462l-.024.22c1.404.481 2.624 1.165 2.418 3.029-.217 1.975-2.102 3.363-5.123 3.014ZM93.597 21.6l-.455 2.746.018.004s1.083.226.904.194c.75.132 1.281-.53 1.397-1.224.14-.843-.382-1.462-1.257-1.614l-.607-.106Zm-6.033-8.14 8.3 1.45c-.14.73-.276 1.44-.43 2.149-.221.112-.671.278-1.123.237l-.277 1.667.286.05c4.748.829 5.424 3.17 5.118 5.02-.359 2.16-2.397 3.82-5.395 3.297-.91-.16-1.859-.419-2.517-.553l-3.694-.645c.158-.725.294-1.436.43-2.148.238-.108.67-.278 1.123-.237l1.172-7.069-1.107-.193c-.175.61-.36 1.18-.454 1.41l-2.115-.313.683-4.122ZM28.906 6.182l-.02-.596c.084-.051.265-.13.443-.159l-.242-3.481a1.346 1.346 0 0 1-.452-.093l-.063-.593 4.984-.364.027.596a1.36 1.36 0 0 1-.442.157l.241 3.482c.18.002.37.055.467.092l.056.593-1.962.144-.02-.597c.082-.05.264-.13.442-.157l-.241-3.482-2.02.147.242 3.482c.18.002.37.054.46.092l.063.594-1.963.143ZM36.045 1.482l.078 1.537.48-.018c.624-.033.922-.404.898-.866-.025-.5-.396-.725-.847-.7l-.61.047Zm.11 2.191.066 1.295c.18.005.513.054.602.093l.052.595-2.108.112-.009-.597c.084-.048.267-.125.446-.148l-.177-3.487c-.632.004-.526-.319-.503-.696l1.011-.054s.93-.08 1.138-.09c.03-.002.058-.002.094-.005 1.118-.06 1.704.58 1.742 1.338.034.662-.315 1.58-1.555 1.646-.065.003-.13.007-.194.003-.079.004-.604-.005-.604-.005ZM40.057 3.039c.035 1.082.661 1.804 1.48 1.776.817-.028 1.395-.792 1.36-1.873-.035-1.082-.654-1.804-1.48-1.776-.817.028-1.396.792-1.36 1.873Zm-1.077.037c-.052-1.626.944-2.589 2.414-2.639 1.47-.05 2.534.842 2.586 2.468.053 1.626-.943 2.588-2.42 2.639-1.485.051-2.527-.842-2.58-2.468ZM46.548 2.874c.01.832-.19 1.372-.552 1.745l1.78-.023-.044-3.49-1.206.015.022 1.753Zm2.66-2.51-.006.597a1.41 1.41 0 0 1-.451.131l.044 3.49.624-.008V6.23l-.575.006c-.044-.087-.11-.726-.126-.932l-3.46.046c-.011.213-.046.855-.088.943h-.582L44.54 4.64l.258-.004c.995-.227 1.016-1.383 1.01-1.899l-.02-1.604a1.415 1.415 0 0 1-.454-.12L45.31.416l3.897-.052ZM50.182.332l1.974.013-.019.597a1.372 1.372 0 0 1-.446.122l.907 1.706.916-1.693a1.286 1.286 0 0 1-.437-.129l.019-.596 1.894.013-.025.596c-.087.044-.26.08-.439.093l-1.22 2.26c-.19.351-.378.777-.669 1.188-.347.498-.894.7-1.613.799l-.16-.812s.777-.216.777-.223a.756.756 0 0 0 .231-.124c.087-.11.195-.256.261-.358l-1.475-2.728a1.476 1.476 0 0 1-.466-.127l-.01-.597ZM57.767 3.269l-.55.478-.024.913c.18.02.364.091.45.137l.005.597-1.966-.053.037-.596c.087-.042.275-.103.455-.113l.09-3.49c-.516-.036-.474-.248-.468-.528.003-.066.011-.132.02-.206l1.953.054c-.013.199-.026.396-.03.596-.095.034-.276.102-.456.112l-.041 1.598 1.678-1.553c-.18-.027-.271-.088-.377-.136l.029-.596 1.766.048-.038.596c-.093.034-.231.097-.368.108L58.467 2.61 59.9 4.667l.519.206-.123.6c-.688-.017-1.143-.207-1.593-.86l-.936-1.344ZM61.108 1.969l.04-1.407 4.276.2-.084 1.404-.583.018c-.04-.091-.069-.549-.075-.741l-.92-.021-.153 3.473c.178.023.361.098.446.146l-.006.598-1.964-.093.047-.595a1.35 1.35 0 0 1 .458-.104l.155-3.473-.918-.057c-.016.19-.077.6-.14.723l-.579-.071ZM70.068 6.012l.062-.594a1.37 1.37 0 0 1 .459-.094l.23-3.482a1.29 1.29 0 0 1-.435-.155l.017-.597 1.948.136c-.02.198-.041.396-.054.594a1.42 1.42 0 0 1-.46.094l-.229 3.48c.177.028.36.107.442.157l-.018.597-1.962-.136Zm-2.525-2.5-.105 1.586c.058.004.615.057.694.063.451.038.81-.29.841-.753.03-.448-.277-.816-.893-.86l-.537-.036Zm.638-2.576c-.013.198-.034.397-.053.594-.089.038-.28.091-.46.094l-.077 1.16.451.031c1.705.12 2.05.977 2.006 1.66-.057.852-.748 1.513-1.858 1.435-.35-.024-.893-.09-1.143-.109a2.459 2.459 0 0 0-.065-.004l-1.074-.075.06-.593c.09-.039.28-.092.46-.094l.23-3.482c-.628-.073-.485-.38-.418-.752l1.941.135Z" fill="#74140D"/><path d="M104.286 10.862c-.106 0-.184.02-.231.056-.33.254-.09 1.892.983 4.449 1.736-.09 3.028-.522 3.18-1.073.153-.553-.642-1.627-1.848-2.499-.918-.663-1.69-.933-2.084-.933Zm.255 5.335-.107-.247c-1.36-3.154-1.643-5.066-.843-5.684.723-.558 2.139.08 3.223.863 1.898 1.371 2.357 2.65 2.153 3.39-.16.579-.914 1.566-4.166 1.67l-.26.008Z" fill="#80BA27"/><path d="M105.19 8.976c-.576 0-1.469.288-2.424.92-1.738 1.152-2.209 2.377-2.085 3.076.203 1.14 1.849 2.139 3.881 2.38 1.548-3.24 1.805-5.753 1.14-6.249-.113-.084-.288-.127-.512-.127Zm-.173 7.234-.259-.022c-2.57-.22-4.56-1.482-4.843-3.068-.269-1.514 1.08-3.011 2.433-3.908 1.275-.845 2.947-1.41 3.807-.769.978.73 1.043 3.339-1.019 7.526l-.119.241Z" fill="#80BA27"/><path d="M101.983 13.433a.24.24 0 0 0-.099.018c-.192.086-.468.654-.485 1.496-.014.647.155 1.495.673 1.755.536.27 1.514-.025 2.247-.947-.964-1.632-1.934-2.322-2.336-2.322Zm.521 4.174c-.274 0-.535-.056-.77-.174-.722-.363-1.139-1.299-1.114-2.503.018-.836.279-1.92.956-2.224.914-.41 2.374.772 3.55 2.873l.127.227-.147.214c-.681.991-1.708 1.587-2.602 1.587Z" fill="#80BA27"/><path d="M105.291 15.844c.727 1.036 2.081 1.426 3.152.862 1.127-.594 1.291-1.908 1.314-2.296.046-.76-.162-1.264-.325-1.378-.377-.266-1.827.509-4.141 2.812Zm2.104 1.93c-1.165 0-2.324-.656-2.943-1.79l-.149-.272.215-.219c2.665-2.702 4.465-3.757 5.35-3.134.463.325.724 1.15.667 2.102-.08 1.327-.731 2.437-1.741 2.969a2.988 2.988 0 0 1-1.399.343Z" fill="#80BA27"/><path d="M103.559 23.334c-.383-1.253-.473-2.373-.345-3.675a9.829 9.829 0 0 1 1.345-4.08l.661.43a8.977 8.977 0 0 0-1.231 3.732 9.223 9.223 0 0 0 .371 3.57l-.801.023Z" fill="#80BA27"/></svg>