<svg width="48" height="48" fill="none" xmlns="http://www.w3.org/2000/svg"><path d="M0 24C0 10.745 10.745 0 24 0s24 10.745 24 24-10.745 24-24 24S0 37.255 0 24Z" fill="#fff"/><path d="M34.293 41.14H27.21l.086-2.459c.232-.17.678-.424 1.208-.466l-.149-4.2.022-.825-.254.423-4.093 5.811-4.135-5.917-.17-.232-.211 4.94c.529.042.975.296 1.23.466l.062 2.46h-6.763l.063-2.46c.254-.17.89-.424 1.421-.466l.466-10.602c-.488-.022-1.187-.298-1.379-.466-.042-.807-.062-1.634-.105-2.461h6.128l3.032 5.365.36.636.361-.614 3.478-5.387h5.894c-.062.827-.084 1.654-.106 2.46-.232.17-.911.445-1.42.467l.551 10.602c.53.042 1.188.296 1.422.466l.084 2.46Zm-8.27-16.687c-.764.064-1.124-.085-1.739-.106-.593.02-.933.17-1.76.106-2.015-.042-3.732-1.992-2.269-5.873.022-.044.064-.17.106-.297-.615-.107.085-.806-.19-1.612-.234-.784 0-.912.275-.89h.063c-.042-.551-.126-1.018-.126-1.336 0-1.103.254-1.76.784-2.143 1.08-1.187.34-1.844.34-1.844 2.31-.721 3.392.424 3.73 1.315.299.891.108 2.65-1.165 3.054-.827.169-2.841.169-2.841 1.25.042 1.019-.467 1.676-.381 2.417.02.319.084.659.168.977.34.296.785.593 1.23.169.616-.531 1.167-.657 1.548-.68-.105-.063-.211-.084-.403-.084-.445 0-.338-.614-.338-.614l.254-.149s-.042.445.106.423c.17-.062.212-.042.297.086.106.127.36.17.572.17 0 0 .339 0 .425-.128.064-.19.106-.36.064-.636-.022-.233.168.212.19.318 0 .086 0 .148.148.212.17.042.255-.064.17-.402l.233.106s.148.614-.319.614c-.19 0-.296.02-.38.085.338.022.89.148 1.484.679.445.424.869.084 1.251-.17.084-.317.169-.657.19-.976.085-.741-.444-1.398-.424-2.417.022-.741-.338-1.188-.763-1.336-1.294-.424-.615-2.12-1.081-2.968 1.463-.085 2.735.445 2.735 2.672 0 .318-.084.741-.148 1.314l.02.021c.276-.042.53.107.276.891-.232.785.425 1.485-.126 1.59.042.149.084.275.106.319 1.462 3.88-.276 5.831-2.312 5.873Zm-2.311-8.524c-.976-.19-2.079.254-2.079.254l.044-.254c.72-.489 1.908-.467 1.908-.467l.127.467Zm-.277.615s-.148-.043-.36-.064c0 .042.022.064.022.106.064.148.148.212.234.192a.713.713 0 0 1-.086.318c.17.02.296.042.296.042-.21.233-1.398.02-1.398.02.084-.062.255-.084.423-.084a.485.485 0 0 1-.062-.276c0-.084 0-.169.042-.254.042 0 .062-.022.062-.022-.19.022-.423.128-.657.276l.064-.127s.489-.53 1.506-.382l.19.34-.063.297-.213-.382Zm2.291 3.604-.17-.19s-.424.36-1.272.36c-.869 0-1.251-.36-1.251-.36 0-.022-.19.17-.19.17s.148.02.276.212c.148.19.402.55 1.165.55.743 0 .997-.253 1.124-.466.128-.17.318-.276.318-.276Zm-.7 13.7c0-.573-.445-.998-1.018-.998-.53 0-1.017.425-1.017.997 0 .573.488 1.018 1.017 1.018.573 0 1.019-.445 1.019-1.018Zm1.951-17.665s-1.123-.445-2.056-.254l.126-.467s1.167-.022 1.888.467l.043.254Zm-.318.595a2.37 2.37 0 0 0-.72-.277v.043c.021.17.126.254.211.212v.042c0 .128-.021.212-.063.254.17.022.318.044.446.086 0 0-1.21.233-1.444 0 0 0 .149-.022.34-.042a.717.717 0 0 1-.063-.319c0-.106.021-.212.064-.276-.128.02-.235.043-.235.043l-.19.382-.084-.297.168-.318c.998-.17 1.528.339 1.528.339l.042.128ZM10.54 12.081l-.298-.353c.029-.072.104-.21.202-.315L8.629 9.41a1.055 1.055 0 0 1-.328.166l-.322-.332 2.944-2.665.3.351c-.027.07-.103.208-.2.313l1.815 2.004a1.18 1.18 0 0 1 .336-.173l.318.334-1.159 1.05-.298-.354c.029-.071.104-.21.201-.313l-1.814-2.004-1.193 1.079 1.816 2.005c.113-.087.257-.15.33-.17l.324.332-1.159 1.048ZM13.79 7.464l.518.86c.128-.065.38-.156.456-.163l.252.388-1.437.865-.223-.405c.041-.064.142-.185.259-.268L12.22 6.424c-.442.24-.485-.02-.606-.288l.69-.414s.622-.402.764-.488c.02-.01.04-.023.064-.038.763-.458 1.406-.24 1.71.264.263.44.353 1.197-.491 1.706a20.752 20.752 0 0 1-.56.298Zm-.876-1.457.615 1.021s.272-.156.33-.193c.425-.256.498-.619.313-.926-.2-.333-.541-.347-.848-.162l-.41.26ZM15.305 6.12c-.438-1.182.078-2.138 1.175-2.543 1.097-.407 2.116-.018 2.553 1.164.437 1.182-.078 2.14-1.18 2.548-1.107.41-2.111.014-2.548-1.169Zm.803-.296c.29.786.94 1.16 1.549.934.61-.225.86-.931.569-1.718-.291-.786-.935-1.163-1.551-.934-.61.226-.858.932-.567 1.718ZM22.62 2.278l.055.459c-.07.045-.203.117-.341.148l.39 2.676.491-.073.169 1.274-.452.066c-.043-.064-.16-.548-.194-.704l-2.722.397c.013.166.05.662.027.734l-.458.062-.209-1.267.204-.03c.76-.279.659-1.168.602-1.564l-.18-1.231a1.15 1.15 0 0 1-.37-.043l-.079-.456 3.066-.448Zm-1.84 2.207c.093.638-.01 1.073-.257 1.398l1.4-.205-.392-2.676-.948.139.197 1.344ZM23.473 2.215l1.566.095-.038.46c-.076.03-.216.073-.36.076l.65 1.359.797-1.272a1.046 1.046 0 0 1-.342-.118l.04-.46 1.503.091-.045.46c-.07.03-.21.05-.352.053l-1.063 1.695c-.164.265-.333.586-.58.89-.296.372-.738.505-1.312.55l-.094-.634s.626-.134.626-.14a.625.625 0 0 0 .188-.085 3.67 3.67 0 0 0 .221-.267l-1.056-2.172a1.214 1.214 0 0 1-.365-.119l.016-.462ZM28.99 5.125l-.513.256-.188.681c.135.05.264.138.32.19l-.105.45-1.506-.413.137-.442a1.13 1.13 0 0 1 .373.002l.714-2.608c-.392-.125-.32-.276-.264-.486.014-.048.033-.097.053-.15l1.497.409c-.047.147-.093.294-.134.443-.078.007-.23.025-.371-.001l-.328 1.193 1.582-.85c-.133-.055-.193-.119-.266-.174l.133-.442 1.353.37-.138.442c-.08.006-.198.028-.305.01l-1.383.757.726 1.818.362.253-.206.429c-.529-.144-.844-.373-1.07-.95l-.474-1.187ZM31.653 4.793l.469-.983 3.045 1.512-.5.969-.428-.176c0-.076.12-.41.176-.548l-.66-.31-1.2 2.412c.123.073.233.185.28.246l-.19.421-1.4-.695.22-.406c.078 0 .233.02.366.073l1.197-2.412-.649-.334c-.07.13-.243.401-.328.468l-.398-.237ZM37.05 6.65c-.098.12-.198.234-.3.35a1.15 1.15 0 0 1-.34-.152l-.572.698.279.227c1.052.86.891 1.56.555 1.971-.419.513-1.163.613-1.847.052-.218-.177-.539-.468-.693-.594l-.039-.033-.664-.541.306-.349c.075.018.222.073.34.154l1.711-2.095c-.374-.334-.144-.463.067-.666l1.197.978Zm-1.568 1.333-.781.955c.035.028.373.318.422.358.275.232.655.19.883-.089.22-.27.186-.643-.194-.953l-.33-.271Zm.514 2.742.306-.347c.075.017.222.071.339.153l1.712-2.095a1.02 1.02 0 0 1-.212-.298l.279-.369 1.201.982c-.102.116-.204.232-.302.35a1.1 1.1 0 0 1-.339-.152l-1.712 2.094c.105.098.186.233.217.302l-.278.369-1.211-.989Z" fill="#74140D"/><path d="m38.795 20.959-.1-.224c-1.284-2.858-1.552-4.591-.797-5.152.682-.504 2.02.074 3.043.783 1.792 1.243 2.225 2.402 2.032 3.07-.151.526-.863 1.422-3.933 1.516l-.245.007Zm-.24-4.834c-.101 0-.174.016-.22.05-.31.23-.084 1.714.93 4.032 1.639-.082 2.858-.472 3.002-.973.144-.5-.607-1.474-1.745-2.265-.867-.6-1.596-.844-1.967-.844Z" fill="#80BA27"/><path d="m39.244 20.971-.245-.02c-2.425-.2-4.305-1.343-4.571-2.78-.255-1.373 1.02-2.73 2.297-3.543 1.203-.764 2.782-1.277 3.594-.696.923.66.983 3.025-.962 6.82l-.113.22Zm.163-6.556c-.542 0-1.386.26-2.287.835-1.64 1.043-2.087 2.153-1.969 2.786.192 1.033 1.745 1.938 3.663 2.158 1.461-2.938 1.705-5.215 1.076-5.664-.106-.076-.272-.115-.483-.115Z" fill="#80BA27"/><path d="M36.873 22.237c-.26 0-.506-.051-.727-.157-.683-.331-1.076-1.178-1.053-2.27.017-.757.264-1.74.903-2.015.862-.372 2.24.699 3.352 2.603l.12.206-.14.194c-.643.898-1.611 1.44-2.455 1.44Zm-.492-3.784a.243.243 0 0 0-.094.016c-.18.08-.442.593-.458 1.358-.013.585.147 1.353.636 1.59.506.244 1.428-.023 2.12-.86-.91-1.478-1.825-2.104-2.204-2.104Z" fill="#80BA27"/><path d="M41.488 22.387c-1.099 0-2.194-.594-2.779-1.621l-.14-.246.204-.2c2.514-2.449 4.214-3.404 5.05-2.84.436.296.684 1.043.63 1.905-.077 1.202-.69 2.21-1.644 2.69-.417.213-.87.312-1.32.312Zm-1.986-1.748c.687.939 1.965 1.291 2.975.78 1.064-.538 1.22-1.728 1.242-2.08.042-.69-.154-1.145-.307-1.249-.357-.24-1.726.461-3.91 2.55Z" fill="#80BA27"/><path d="M37.868 27.427c-.362-1.136-.447-2.15-.326-3.331a8.669 8.669 0 0 1 1.27-3.698l.624.39a7.936 7.936 0 0 0-1.163 3.382 8.066 8.066 0 0 0 .35 3.236l-.755.02Z" fill="#80BA27"/><path d="M24 47C11.297 47 1 36.703 1 24h-2c0 13.807 11.193 25 25 25v-2Zm23-23c0 12.703-10.297 23-23 23v2c13.807 0 25-11.193 25-25h-2ZM24 1c12.703 0 23 10.297 23 23h2C49 10.193 37.807-1 24-1v2Zm0-2C10.193-1-1 10.193-1 24h2C1 11.297 11.297 1 24 1v-2Z" fill="#74140D"/></svg>