<svg width="114" height="34" fill="none" xmlns="http://www.w3.org/2000/svg"><path d="m9.512 28.82.216 1.331c.073.443-.24.722-.68.795a.406.406 0 0 1-.15.006c-.397-.01-.735-.125-.802-.531l-.21-1.293c-.456.207-.903.47-1.224.808-.23.209-.623.69-.52 1.205.15.81 1.5 1.46 3.177 1.126a4.792 4.792 0 0 0 1.643-.67c.621-.463.956-1.067.86-1.545-.085-.517-.606-.83-.908-.95a4.045 4.045 0 0 0-1.402-.281ZM3.827 16.215a.887.887 0 0 1 .779-1c.495-.082.928.264 1.009.762.063.502-.278.957-.758 1.016a.88.88 0 0 1-1.03-.778Zm4.205 8.715c.018-.002.04.014.04.014 2.213-.404 3.79-1.821 3.054-6.461-.042-.26-.03-.186-.084-.404-.773.925-2.196 1.671-3.614 1.981l-.165.027c-1.67.276-3.186-.137-4.294-.922.015.32-.001.341.054.674.735 4.64 2.771 5.46 5.009 5.091Zm-5.16-8.33c.241 1.365 2.167 2.204 4.173 1.797 1.916-.373 3.46-1.88 3.207-3.204-.244-1.268-2.1-2.139-4.007-1.824l-.146.024c-2.006.407-3.48 1.883-3.226 3.207Zm6.286 10.042.093.573c.84-.044 1.634.09 2.302.378 1.03.419 1.736 1.289 1.877 2.157.195 1.2-.355 2.335-1.534 3.194a5.965 5.965 0 0 1-2.276.944c-.054.009-.128.02-.165.028-2.439.402-4.587-.647-4.921-2.47-.169-.921.198-1.911.973-2.703.551-.546 1.31-.975 2.133-1.243l-.094-.573c-3.328.265-6.012-1.418-6.846-6.78-.922-5.9 1.44-8.168 5.123-8.795 3.683-.627 6.744.822 7.672 6.645.865 5.548-1.118 7.83-4.337 8.645ZM14.976 16.432l-.432-3.55 11.015-1.185.322 3.562-1.486.273c-.134-.212-.386-1.352-.474-1.833l-2.36.31.932 8.788c.466-.012.964.103 1.198.191l.215 1.502-5.064.545-.104-1.514c.21-.136.672-.355 1.13-.442l-.931-8.787-2.37.218c.033.486.032 1.54-.082 1.873l-1.509.049ZM31.974 17.583c.124 2.112-.333 3.508-1.224 4.498l4.6-.274-.522-8.858-3.116.186.262 4.448Zm6.587-6.695.052 1.516a3.718 3.718 0 0 1-1.15.387l.522 8.858 1.614-.096.193 4.208-1.485.089c-.124-.218-.369-1.835-.437-2.356l-8.942.535c-.005.544-.02 2.176-.119 2.407l-1.504.072-.322-4.2.668-.04c2.548-.697 2.467-3.636 2.39-4.945l-.24-4.073c-.466-.01-.94-.15-1.188-.249l-.126-1.51 10.074-.603ZM43.694 17.046c.024 2.752 1.602 4.629 3.72 4.61 2.12-.018 3.664-1.923 3.64-4.675-.023-2.752-1.583-4.629-3.72-4.61-2.119.018-3.663 1.922-3.64 4.675Zm-2.787.024c-.036-4.137 2.6-6.52 6.411-6.553 3.81-.033 6.507 2.302 6.543 6.44.036 4.137-2.602 6.519-6.43 6.552-3.848.035-6.489-2.301-6.524-6.44ZM67.436 23.766l-5.57-.228.116-1.513c.228-.103.68-.252 1.146-.271l-2.232-3.239-2.54 3.044c.462.056.901.243 1.12.364l-.099 1.514-4.382-.18.117-1.512c.227-.103.513-.26.978-.279l3.767-4.398-3.132-4.456a3.857 3.857 0 0 1-1.194-.367l.024-1.517 5.515.225-.098 1.514c-.227.103-.68.253-1.145.271l2.058 2.932 2.324-2.753a3.588 3.588 0 0 1-1.139-.365l.098-1.513 4.271.174-.098 1.513c-.246.103-.531.26-.997.279l-3.456 4.074 3.378 4.802c.463.057.958.246 1.194.368l-.023 1.517ZM69.345 23.883l.202-1.504c.233-.09.73-.21 1.196-.201l.857-8.833a3.454 3.454 0 0 1-1.117-.43l.091-1.514 5.032.495-.183 1.506c-.252.088-.73.21-1.196.202l-.333 3.428 5.512.543.333-3.429a3.468 3.468 0 0 1-1.116-.429l.091-1.515 5.032.495-.184 1.506c-.233.09-.712.212-1.177.204l-.858 8.832c.46.083.906.296 1.135.432l-.11 1.513-5.068-.5.202-1.504c.233-.09.73-.209 1.196-.201l.35-3.597-5.513-.542-.35 3.596c.46.083.924.298 1.135.431l-.09 1.515-5.07-.499ZM84.414 25.41l.298-1.488a3.59 3.59 0 0 1 1.206-.124l1.422-8.756a3.456 3.456 0 0 1-1.087-.502l.188-1.505 4.99.821-.282 1.49a3.706 3.706 0 0 1-1.205.124l-.85 5.228 6.199-3.608.115-.72a3.46 3.46 0 0 1-1.085-.501l.186-1.506 4.991.821-.279 1.49c-.24.075-.725.166-1.19.127l-1.42 8.757a3.75 3.75 0 0 1 1.106.504l-.207 1.502-5.026-.826.298-1.487a3.554 3.554 0 0 1 1.207-.124l.87-5.358-6.198 3.608-.139.85c.453.112.903.357 1.106.504l-.188 1.506-5.026-.828ZM23.188 1.992c-.523.027-.652-.178-.677-.452-.006-.066-.005-.14-.005-.216l3.905-.358.116 1.279-.596.04c-.031-.094-.08-.313-.13-.533l-1.57.145.317 3.506c.177-.002.661.029.753.057l.076.597-2.437.224-.032-.6c.084-.053.416-.151.597-.182l-.317-3.507ZM29.439 1.932l-.486 1.681 1.338-.097-.705-1.594-.08-.293-.03.003-.037.3Zm-2.062 3.94-.02-.601c.078-.043.155-.101.33-.143l1.112-3.67-.036.002a.46.46 0 0 1-.393-.418c-.004-.067-.009-.126.001-.201L30.143.6l1.851 4.208c.185 0 .3.06.398.097.015.2.036.4.058.6l-2 .144c-.014-.2-.021-.401-.028-.601.085-.052.28-.132.462-.16l-.292-.672-1.838.133-.088.32c-.043.129-.085.258-.12.388.185.001.395.053.494.09.014.201.036.4.058.6l-1.721.124ZM33.063 5.46l-.217-.799s.742-.35.741-.358c.17-.127.242-.466.27-.661a8.783 8.783 0 0 0-.013-.676l-.092-1.802c-.185-.013-.269-.06-.345-.094l-.052-.6L37.58.253l.016.601c-.086.05-.274.126-.457.15l.179 3.516c.185.005.38.062.47.102l.053.6-2.017.104-.009-.602c.086-.05.274-.126.458-.15l-.18-3.516-1.442.075.111 2.196c.075 1.454-.552 1.903-1.699 2.133ZM38.587 5.195l.002-.601a1.42 1.42 0 0 1 .46-.142L38.932.934c-.649-.008-.534-.331-.503-.71l3.587-.121.044 1.306a1.328 1.328 0 0 1-.28.039c-.39.013-.523-.22-.557-.59l-1.245.041.045 1.35.854-.028c.013-.045.05-.262.064-.299l.59.002-.016.64.066.652-.596.041c-.023-.043-.067-.25-.084-.308l-.854.028.047 1.44 1.356-.046c.017-.38.127-.613.524-.627.082-.002.177.002.28.02l.045 1.337-.81-.003-2.902.097ZM44.626.776l.026 1.552.494-.001c.64-.011.96-.373.951-.84-.008-.505-.38-.744-.845-.736l-.626.025Zm.038 2.213.021 1.307c.184.011.525.072.614.115l.032.602-2.166.037.012-.602c.087-.046.278-.117.462-.134l-.06-3.52c-.648-.019-.529-.34-.49-.72l1.039-.017s.957-.046 1.17-.05l.096-.001c1.15-.02 1.729.646 1.741 1.41.012.67-.378 1.582-1.653 1.603a1.628 1.628 0 0 1-.2-.004c-.08.002-.618-.026-.618-.026ZM47.743 4.98l.021-.601c.088-.045.28-.112.464-.127l-.006-3.52c-.648-.028-.523-.348-.48-.726L51.331 0l.002 1.306c-.103.023-.2.03-.28.03-.39 0-.516-.237-.539-.608L49.27.731l.002 1.35h.855c.014-.045.058-.26.073-.298l.59.021-.037.639.046.654-.597.023c-.022-.045-.06-.253-.074-.312l-.855.001.003 1.44 1.356-.001c.028-.38.146-.61.544-.61.08 0 .177.007.28.03l.002 1.336-.81-.029-2.904.005ZM54.732 2.385l.324.005.026-1.611-.56-.024c-.471-.007-.902.223-.911.75-.01.601.332.874.907.884l.214-.004Zm-2.46 2.596-.093-.618.549-.184c.014-.007.43-.706.764-1.265-.703-.279-.927-.958-.919-1.478.012-.772.62-1.445 1.85-1.425 0 0 .664.033.988.046l1.208.02c.038.38.159.7-.49.72l-.058 3.52c.184.017.375.087.462.133l.013.602-2.02-.034.033-.6c.089-.043.281-.107.466-.12l.02-1.269-.523.006-.734 1.184c-.401.655-.816.774-1.516.762ZM62.075.993l-.06 1.373.405.018c.478.022.891-.13.915-.68.02-.46-.287-.682-.832-.706a8.277 8.277 0 0 0-.428-.005Zm-.093 2.108-.062 1.402c.06.003.574.041.655.045.464.02.82-.172.84-.646.02-.454-.306-.75-.94-.78l-.493-.021ZM60.363 5.17l.049-.6c.09-.041.285-.1.47-.106l.155-3.517c-.53-.046-.483-.26-.47-.542.003-.067.013-.133.024-.207l.846.038c.163.007.922.012 1.305.029.943.042 1.747.57 1.71 1.377-.034.795-.577 1.038-1.037 1.092l-.002.06c.664.155 1.143.511 1.112 1.202-.035.809-.731 1.358-1.873 1.306-.36-.016-.867-.068-1.118-.08l-1.17-.052ZM65.096 5.386l.06-.6a1.43 1.43 0 0 1 .472-.096l.224-3.513a1.37 1.37 0 0 1-.448-.156l.017-.601 2 .13-.053.598a1.45 1.45 0 0 1-.471.096l-.134 2.098 2.307-1.666.019-.29a1.35 1.35 0 0 1-.448-.155l.017-.602 2 .13-.053.6c-.09.038-.279.093-.464.096l-.225 3.514c.184.026.363.105.456.156l-.024.602-2.016-.132.06-.599a1.43 1.43 0 0 1 .473-.096l.137-2.15-2.307 1.667-.023.341c.183.027.37.106.456.156l-.017.602-2.015-.13ZM71.09 5.784l.074-.598c.092-.036.288-.086.474-.084l.305-3.508a1.39 1.39 0 0 1-.444-.166l.03-.602 1.997.177-.067.598c-.099.036-.288.086-.473.085l-.119 1.362 2.189.193.118-1.362a1.36 1.36 0 0 1-.444-.166l.03-.6 1.997.176-.067.597c-.091.037-.28.087-.465.086l-.306 3.508c.182.03.36.114.452.167l-.038.6-2.012-.177.074-.598a1.41 1.41 0 0 1 .474-.085l.124-1.428-2.188-.194-.125 1.429c.183.03.368.114.452.166l-.03.601-2.012-.177Z" fill="#ED1344"/><path d="M106.912 10.172c-.11 0-.192.02-.242.058-.346.262-.094 1.946 1.031 4.576 1.82-.093 3.174-.536 3.334-1.104.16-.568-.673-1.673-1.938-2.57-.962-.682-1.771-.96-2.185-.96Zm.268 5.488-.112-.255c-1.426-3.243-1.723-5.21-.884-5.846.758-.574 2.242.082 3.379.888 1.99 1.41 2.471 2.725 2.257 3.486-.168.596-.958 1.612-4.367 1.719l-.273.008Z" fill="#80BA27"/><path d="M107.86 8.232c-.603 0-1.54.297-2.541.947-1.822 1.185-2.317 2.445-2.186 3.163.212 1.173 1.939 2.2 4.069 2.449 1.623-3.333 1.892-5.918 1.194-6.428-.118-.086-.302-.13-.536-.13Zm-.181 7.44-.272-.022c-2.694-.226-4.781-1.524-5.077-3.156-.282-1.557 1.132-3.097 2.55-4.019 1.337-.869 3.09-1.45 3.992-.79 1.025.75 1.093 3.433-1.068 7.74l-.125.248Z" fill="#80BA27"/><path d="M104.498 12.816a.26.26 0 0 0-.104.02c-.201.088-.49.672-.508 1.538-.015.665.162 1.537.706 1.806.562.277 1.587-.027 2.356-.975-1.012-1.678-2.028-2.389-2.45-2.389Zm.547 4.294c-.288 0-.562-.057-.808-.179-.757-.373-1.194-1.336-1.168-2.575.019-.86.292-1.975 1.003-2.287.957-.42 2.488.794 3.721 2.955l.133.233-.153.22c-.714 1.02-1.791 1.633-2.728 1.633Z" fill="#80BA27"/><path d="M107.966 15.297c.762 1.065 2.182 1.466 3.304.886 1.182-.611 1.354-1.962 1.378-2.361.048-.783-.17-1.3-.341-1.418-.395-.274-1.916.524-4.341 2.893Zm2.206 1.984a3.566 3.566 0 0 1-3.086-1.84l-.156-.28.226-.225c2.793-2.78 4.68-3.864 5.609-3.224.484.335.758 1.183.699 2.162-.085 1.365-.767 2.507-1.826 3.054-.463.24-.966.353-1.466.353Z" fill="#80BA27"/><path d="M106.15 23c-.401-1.288-.495-2.44-.362-3.78a9.994 9.994 0 0 1 1.411-4.196l.693.443a9.137 9.137 0 0 0-1.291 3.838 9.328 9.328 0 0 0 .389 3.672l-.84.023Z" fill="#80BA27"/></svg>