<svg width="48" height="48" fill="none" xmlns="http://www.w3.org/2000/svg"><path d="M0 24C0 10.745 10.745 0 24 0s24 10.745 24 24-10.745 24-24 24S0 37.255 0 24Z" fill="#fff"/><path d="m38.904 24.441-.1-.224c-1.283-2.86-1.551-4.592-.796-5.151.682-.506 2.02.072 3.042.782 1.793 1.242 2.226 2.4 2.033 3.071-.151.525-.863 1.42-3.933 1.514l-.246.008Zm-.24-4.835c-.1 0-.174.017-.218.05-.312.231-.085 1.715.929 4.032 1.639-.082 2.858-.472 3.002-.973.144-.5-.607-1.474-1.745-2.263-.867-.602-1.596-.846-1.967-.846Z" fill="#80BA27"/><path d="m39.354 24.452-.245-.02c-2.425-.2-4.305-1.343-4.571-2.78-.255-1.372 1.02-2.73 2.297-3.541 1.202-.766 2.78-1.279 3.592-.697.924.66.985 3.025-.961 6.819l-.112.219Zm.163-6.555c-.544 0-1.387.261-2.288.834-1.64 1.043-2.086 2.153-1.968 2.787.192 1.032 1.745 1.938 3.663 2.157 1.463-2.936 1.705-5.213 1.076-5.664-.106-.076-.272-.114-.483-.114Z" fill="#80BA27"/><path d="M36.982 25.718c-.258 0-.504-.05-.726-.157-.683-.33-1.076-1.178-1.053-2.27.018-.757.264-1.74.903-2.015.863-.37 2.24.7 3.352 2.605l.12.205-.14.193c-.643.9-1.612 1.44-2.456 1.44Zm-.492-3.782a.239.239 0 0 0-.093.016c-.182.077-.442.593-.458 1.356-.014.586.145 1.353.637 1.59.506.245 1.428-.023 2.12-.858-.911-1.479-1.827-2.104-2.206-2.104Z" fill="#80BA27"/><path d="M41.599 25.867c-1.1 0-2.194-.593-2.78-1.62L38.68 24l.203-.199c2.515-2.448 4.216-3.404 5.05-2.84.438.295.685 1.043.63 1.904-.075 1.203-.689 2.21-1.642 2.692-.418.211-.871.31-1.321.31Zm-1.986-1.748c.685.94 1.964 1.293 2.975.781 1.063-.538 1.218-1.729 1.24-2.08.044-.69-.152-1.146-.306-1.25-.356-.24-1.726.462-3.91 2.55Z" fill="#80BA27"/><path d="M37.978 30.907c-.362-1.135-.446-2.15-.325-3.33a8.655 8.655 0 0 1 1.269-3.697l.624.389a7.924 7.924 0 0 0-1.163 3.382 8.06 8.06 0 0 0 .35 3.236l-.755.02Z" fill="#80BA27"/><path d="M32.953 21.303c.046-8.327-3.827-11.042-9.12-11.025-5.323.018-9.037 2.661-9.083 11.086C14.706 29 17.944 31.97 22.7 32.346l-.002 1.09c-1.237.181-2.38.615-3.288 1.267-1.283.92-1.997 2.209-1.961 3.54.069 2.59 2.82 4.56 6.308 4.56.083 0 .166-.001.25-.004 1.22-.033 2.4-.312 3.41-.805 1.856-.91 2.939-2.442 2.894-4.096-.035-1.33-.819-2.58-2.146-3.43-.891-.568-1.978-.93-3.143-1.067l.002-1.062c4.684-.38 7.884-3.096 7.929-11.036Zm-8.958-8.6c.075-.002.151-.003.226-.003 1.456 0 2.813.378 3.843 1.076.964.651 1.508 1.499 1.532 2.388.03 1.13-.794 2.242-2.204 2.97-.934.484-2.042.756-3.203.787-2.989.082-5.549-1.506-5.602-3.462-.053-1.956 2.424-3.676 5.409-3.757ZM17.8 21.391c.004-.498.025-.969.06-1.42 1.411 1.39 3.627 2.276 6.111 2.276.093 0 .186 0 .28-.004 1.51-.04 2.964-.4 4.207-1.044a7.74 7.74 0 0 0 1.336-.872c.015.33.025.67.022 1.023-.037 6.662-2.635 8.847-5.932 8.878l-.02-.001-.03.002c-3.317.011-6.071-2.196-6.034-8.838Zm9.113 15.036c.392.251 1.054.783 1.075 1.533.019.72-.577 1.447-1.594 1.945-.712.35-1.56.547-2.449.57-2.424.07-4.142-1.158-4.172-2.295-.02-.75.612-1.317.99-1.587.523-.376 1.196-.648 1.932-.798l-.001 1.827c-.002.572.43.834.975.933.067.013.136.018.207.018.642.001 1.141-.306 1.142-.948l.002-1.878c.713.115 1.37.346 1.893.68Z" fill="#ED1344"/><path d="M21.196 17.393a1.282 1.282 0 1 0 .061-2.564 1.282 1.282 0 0 0-.06 2.564ZM6.003 12.872c-.244.324-.429.301-.603.181a2.009 2.009 0 0 1-.129-.103l1.722-2.499.812.56-.27.373a5.703 5.703 0 0 1-.38-.185l-.692 1.007 2.226 1.533c.087-.106.344-.378.408-.42l.39.25-1.075 1.559-.37-.277c.01-.076.117-.32.188-.444l-2.227-1.535ZM9.98 12.748l-.315-.34c.024-.064.04-.136.122-.25L8.594 9.463l-.02.02a.354.354 0 0 1-.44-.044c-.036-.037-.069-.068-.1-.117l.915-1.037 3.198 1.506c.11-.093.207-.116.283-.144.109.109.222.213.335.318l-1.098 1.098c-.109-.11-.214-.223-.318-.336a1.16 1.16 0 0 1 .189-.327l-.508-.242-1.009 1.008.109.23c.04.097.08.193.125.287.109-.092.258-.17.335-.197.108.109.221.213.334.318l-.944.944Zm-.772-3.332.559 1.221.734-.733-1.213-.57-.193-.13-.017.017.13.195Z" fill="#ED1344"/><path d="m12.659 10.063-.456-.445s.359-.523.356-.528c.064-.151-.019-.403-.077-.543a6.705 6.705 0 0 0-.271-.443l-.762-1.158c-.128.064-.202.066-.266.074l-.267-.377 2.734-1.798.245.391c-.038.067-.135.19-.248.28l1.486 2.257c.125-.07.277-.107.353-.115l.268.375-1.305.86-.24-.396c.038-.067.135-.19.248-.279L12.97 5.96l-.934.614.927 1.41c.615.935.37 1.477-.306 2.079Z" fill="#ED1344"/><path d="m15.752 8.08-.164-.433c.05-.057.166-.162.294-.228l-1.051-2.492c-.471.174-.478-.09-.558-.372l2.56-1.078.389.925a.973.973 0 0 1-.19.106c-.28.117-.44-.014-.566-.27l-.889.374.404.957.61-.257c-.003-.036-.036-.202-.037-.233l.427-.16.165.462.227.45-.419.195c-.03-.025-.118-.16-.147-.199l-.61.257.43 1.02.969-.408c-.093-.277-.078-.474.207-.596.057-.023.128-.047.208-.062.133.315.267.631.398.947l-.586.223-2.072.872ZM19.288 5.143l.23.976c.142-.021.41-.031.483-.013l.124.445-1.634.384-.088-.452c.058-.05.19-.134.326-.177l-.62-2.632c-.494.092-.456-.17-.49-.46l.784-.184s.716-.193.877-.231l.072-.016c.867-.206 1.413.2 1.548.77.118.501-.027 1.251-.987 1.477a18.358 18.358 0 0 1-.624.113Zm-.39-1.656.273 1.16s.308-.065.374-.081c.483-.114.664-.438.581-.788-.088-.378-.41-.495-.759-.413l-.47.122ZM21.374 6.265l-.013-.462c.066-.038.21-.1.352-.12l-.178-2.699c-.503.011-.422-.24-.407-.533l2.772-.183.067 1a.996.996 0 0 1-.215.039c-.302.02-.41-.157-.446-.44l-.963.064.07 1.036.659-.044c.01-.035.033-.201.042-.231l.457-.014.004.493.067.497-.46.048c-.019-.033-.058-.19-.073-.235l-.66.045.073 1.103 1.048-.07c.003-.29.083-.473.39-.493a1.01 1.01 0 0 1 .218.008l.068 1.024-.629.02-2.243.147ZM24.287 6.061l-.03-.478.437-.104c.01-.005.38-.511.675-.916-.524-.262-.65-.798-.61-1.193.063-.59.577-1.065 1.525-.966l.758.103.93.098c.004.293.075.547-.427.517l-.282 2.69c.14.026.283.093.347.134l-.031.461-1.555-.163.066-.459c.072-.025.224-.06.367-.058l.102-.97-.404-.031-.646.855c-.354.474-.682.538-1.222.48Zm2.073-1.818.25.026.13-1.231-.43-.057c-.363-.039-.711.108-.754.511-.049.46.196.692.64.739l.164.012ZM31.165 7.552l.235-.397c.077.003.231.028.362.087l1.292-2.376c-.352-.211-.248-.343-.144-.534.024-.046.054-.088.085-.136l.577.315c.11.06.638.32.9.462.64.35 1.022.985.724 1.532-.29.536-.75.52-1.088.4l-.022.042c.41.333.623.741.369 1.208-.297.545-.966.688-1.742.266-.247-.134-.581-.343-.751-.435l-.797-.434Zm1.822-.879-.515.948.44.252c.316.173.629.16.803-.16.166-.307.04-.622-.392-.857l-.336-.183Zm.774-1.423-.504.927.276.15c.326.178.663.212.866-.158.169-.312.03-.569-.341-.772a6.01 6.01 0 0 0-.297-.147ZM33.874 8.966l.309-.344c.075.018.221.074.339.157l1.731-2.076a1.086 1.086 0 0 1-.21-.302l.284-.366 1.191.994-.305.349a1.162 1.162 0 0 1-.338-.157l-1.034 1.24 2.197.02.143-.17a1.083 1.083 0 0 1-.21-.302l.283-.365 1.192.993-.305.349a1.063 1.063 0 0 1-.335-.153l-1.731 2.076c.102.1.178.231.213.305l-.287.363-1.2-1.003.31-.342c.074.016.22.072.337.155l1.06-1.27-2.198-.021-.167.202c.102.1.182.234.214.305l-.283.365-1.2-1.002Z" fill="#ED1344"/><path d="m36.95 11.52.376-.267c.07.034.2.12.295.227l2.147-1.646a1.041 1.041 0 0 1-.138-.339l.355-.295.944 1.233-.374.272a1.202 1.202 0 0 1-.295-.228l-.832.638 1.033 1.351.833-.64a1.067 1.067 0 0 1-.138-.34l.357-.293.944 1.231-.374.272a1.075 1.075 0 0 1-.293-.222l-2.146 1.645c.077.12.124.265.141.344l-.359.291-.95-1.242.376-.267c.07.035.2.12.295.226l.875-.669-1.034-1.35-.874.67c.079.121.127.27.142.344l-.357.295-.95-1.24Z" fill="#ED1344"/><path d="M24 47C11.297 47 1 36.703 1 24h-2c0 13.807 11.193 25 25 25v-2Zm23-23c0 12.703-10.297 23-23 23v2c13.807 0 25-11.193 25-25h-2ZM24 1c12.703 0 23 10.297 23 23h2C49 10.193 37.807-1 24-1v2Zm0-2C10.193-1-1 10.193-1 24h2C1 11.297 11.297 1 24 1v-2Z" fill="#ED1344"/></svg>