<svg width="32" height="24" fill="none" xmlns="http://www.w3.org/2000/svg"><path fill-rule="evenodd" clip-rule="evenodd" d="M7.332 15.36c-.036.265-.214.76-.303 1.04-.461 1.448-1.221 3.331-1.943 4.618-.167.298-.303.57-.474.853-.134.223-.38.574-.41.9-.065.743.633 1.412 1.364 1.183.326-.102 1.26-.869 1.513-1.082 1.465-1.235 2.676-2.468 3.793-3.998 2.015-2.76 3.338-5.905 3.686-9.48.182-1.875.193-3-.426-4.637-.84-2.22-2.967-4.279-5.726-4.68C4.144-.543.35 2.663.02 7.1c-.115 1.544.28 3.244.911 4.324.182.312.312.536.508.819.327.47.828 1.04 1.24 1.37 1.35 1.078 2.672 1.708 4.653 1.747Z" fill="#FECC09"/><path fill-rule="evenodd" clip-rule="evenodd" d="M24.666.229C28.716.229 32 3.606 32 7.77c0 4.166-3.284 7.543-7.334 7.543s-7.333-3.377-7.333-7.543c0-4.165 3.283-7.542 7.333-7.542Z" fill="#80BA27"/></svg>